<svg width="41" height="40" viewBox="0 0 41 40" fill="none" xmlns="http://www.w3.org/2000/svg">
<path d="M34.6434 5.85524C26.8318 -1.95405 14.1684 -1.95218 6.35915 5.85954C-1.45015 13.6713 -1.44827 26.3345 6.36345 34.1438C14.1752 41.9531 26.8384 41.9513 34.6477 34.1395C38.3982 30.3879 40.5046 25.3 40.5034 19.9952C40.5024 14.6913 38.3945 9.60509 34.6434 5.85524ZM30.7927 27.8593C30.7919 27.8602 30.791 27.8611 30.7901 27.862V27.8553L29.7767 28.862C28.4662 30.1891 26.5575 30.7351 24.7434 30.302C22.9156 29.8127 21.1781 29.034 19.5967 27.9953C18.1275 27.0563 16.7659 25.9587 15.5367 24.722C14.4057 23.5992 13.3896 22.3664 12.5034 21.042C11.534 19.6168 10.7667 18.0643 10.2234 16.4286C9.60048 14.507 10.1167 12.3985 11.5567 10.982L12.7434 9.79532C13.0733 9.46392 13.6094 9.46274 13.9407 9.79267C13.9416 9.79353 13.9425 9.79438 13.9434 9.79532L17.69 13.542C18.0214 13.8719 18.0226 14.408 17.6927 14.7393C17.6918 14.7402 17.6909 14.741 17.69 14.742L15.49 16.942C14.8588 17.5663 14.7794 18.5585 15.3034 19.2753C16.0991 20.3674 16.9796 21.3949 17.9367 22.3487C19.0038 23.4204 20.1639 24.3953 21.4034 25.262C22.1195 25.7616 23.0905 25.6774 23.71 25.062L25.8367 22.902C26.1666 22.5706 26.7027 22.5695 27.034 22.8994C27.0349 22.9002 27.0357 22.9011 27.0366 22.902L30.79 26.662C31.1215 26.9919 31.1227 27.5279 30.7927 27.8593Z" fill="#1DB86A"/>
</svg>
