<svg width="180" height="180" viewBox="0 0 180 180" fill="none" xmlns="http://www.w3.org/2000/svg">
<g clip-path="url(#clip0_598_3579)">
<path d="M89.9884 179.428C139.536 179.428 179.702 139.262 179.702 89.7142C179.702 40.1665 139.536 0.000213623 89.9884 0.000213623C40.4407 0.000213623 0.274414 40.1665 0.274414 89.7142C0.274414 139.262 40.4407 179.428 89.9884 179.428Z" fill="#1DB86A"/>
<path d="M92.2497 109.808C96.2118 113.77 96.2118 120.562 92.2497 124.524L84.0424 132.731C80.0803 136.694 73.288 136.694 69.3259 132.731L33.3837 96.5062C29.4216 92.5441 29.4216 85.7518 33.3837 81.7897L41.591 73.5824C45.5531 69.6203 52.3453 69.6203 56.3075 73.5824L92.2497 109.808Z" fill="#EFEFEF"/>
<path d="M123.664 47.2622C127.626 43.3001 134.418 43.3001 138.38 47.2622L146.588 55.4695C150.55 59.4317 150.55 66.2239 146.588 70.186L84.3255 132.165C80.3634 136.127 73.5712 136.127 69.609 132.165L61.4018 123.958C57.4396 119.996 57.4396 113.203 61.4018 109.241L123.664 47.2622Z" fill="#EFEFEF"/>
</g>
<defs>
<clipPath id="clip0_598_3579">
<rect width="179.428" height="179.428" fill="white" transform="translate(0.275391)"/>
</clipPath>
</defs>
</svg>
