<svg width="100" height="70" viewBox="0 0 100 70" fill="none" xmlns="http://www.w3.org/2000/svg">
<path d="M7.82029 32.8112C8.02209 32.8112 8.2219 32.7742 8.40834 32.7024C8.59477 32.6306 8.76417 32.5253 8.90685 32.3926C9.04954 32.2599 9.16273 32.1024 9.23995 31.929C9.31718 31.7556 9.35692 31.5698 9.35692 31.3821V4.63007C9.35692 4.15778 9.55866 3.70482 9.91775 3.37086C10.2768 3.03689 10.7639 2.84928 11.2717 2.84928H87.2032C87.711 2.84928 88.1981 3.03689 88.5572 3.37086C88.9163 3.70482 89.118 4.15778 89.118 4.63007V6.62457C89.118 7.00358 89.2799 7.36708 89.5681 7.63508C89.8562 7.90309 90.2471 8.05365 90.6546 8.05365C91.0622 8.05365 91.453 7.90309 91.7412 7.63508C92.0294 7.36708 92.1913 7.00358 92.1913 6.62457V4.63007C92.1887 3.40128 91.6621 2.22363 90.7269 1.35558C89.7917 0.487523 88.5245 -2.26345e-06 87.2032 0L11.2669 0C9.94734 0.00235331 8.68251 0.490919 7.74941 1.35872C6.81631 2.22651 6.29098 3.40282 6.28845 4.63007V31.3821C6.28845 31.7603 6.44969 32.1232 6.73683 32.391C7.02397 32.6589 7.41358 32.81 7.82029 32.8112Z" fill="#0D72B9"/>
<path d="M90.6505 22.6152C90.2438 22.6152 89.8536 22.7652 89.5656 23.0322C89.2776 23.2993 89.1151 23.6616 89.1138 24.0399V44.706H13.3164C13.1077 44.6952 12.8989 44.724 12.7026 44.7908C12.5063 44.8577 12.3267 44.961 12.1749 45.0946C12.023 45.2281 11.902 45.3891 11.8194 45.5676C11.7367 45.7462 11.6941 45.9385 11.6941 46.1329C11.6941 46.3273 11.7367 46.5196 11.8194 46.6981C11.902 46.8767 12.023 47.0377 12.1749 47.1712C12.3267 47.3048 12.5063 47.4081 12.7026 47.4749C12.8989 47.5417 13.1077 47.5706 13.3164 47.5598H89.1138V49.9994C89.1138 50.4717 88.9121 50.9247 88.553 51.2587C88.1939 51.5926 87.7069 51.7802 87.199 51.7802H11.2676C10.7597 51.7802 10.2727 51.5926 9.9136 51.2587C9.55451 50.9247 9.35277 50.4717 9.35277 49.9994V46.9409C9.33086 46.5763 9.15967 46.2333 8.87435 45.9823C8.58903 45.7314 8.21123 45.5916 7.81854 45.5916C7.42584 45.5916 7.04804 45.7314 6.76272 45.9823C6.4774 46.2333 6.30621 46.5763 6.2843 46.9409V49.9994C6.28557 51.2275 6.81034 52.4049 7.74357 53.2737C8.67681 54.1424 9.94236 54.6316 11.2628 54.634H38.9795V61.5123C38.9783 63.0048 38.3405 64.4359 37.2062 65.4917C36.0719 66.5475 34.5336 67.1417 32.9288 67.1441H24.4701C24.2614 67.1332 24.0526 67.1621 23.8563 67.2289C23.66 67.2957 23.4804 67.399 23.3286 67.5326C23.1767 67.6662 23.0558 67.8271 22.9731 68.0057C22.8904 68.1842 22.8478 68.3765 22.8478 68.5709C22.8478 68.7653 22.8904 68.9577 22.9731 69.1362C23.0558 69.3147 23.1767 69.4757 23.3286 69.6093C23.4804 69.7428 23.66 69.8462 23.8563 69.913C24.0526 69.9798 24.2614 70.0086 24.4701 69.9978H32.8139H32.9575H65.4613H65.6049H73.9055C74.1142 70.0086 74.3231 69.9798 74.5194 69.913C74.7157 69.8462 74.8952 69.7428 75.0471 69.6093C75.1989 69.4757 75.3199 69.3147 75.4026 69.1362C75.4853 68.9577 75.5279 68.7653 75.5279 68.5709C75.5279 68.3765 75.4853 68.1842 75.4026 68.0057C75.3199 67.8271 75.1989 67.6662 75.0471 67.5326C74.8952 67.399 74.7157 67.2957 74.5194 67.2289C74.3231 67.1621 74.1142 67.1332 73.9055 67.1441H65.5426C63.9374 67.1417 62.3986 66.5476 61.2635 65.492C60.1284 64.4363 59.4896 63.0052 59.4871 61.5123V54.634H87.2038C88.5251 54.6328 89.7919 54.1441 90.7261 53.2752C91.6604 52.4064 92.1858 51.2282 92.1871 49.9994V24.0399C92.1858 23.6616 92.0234 23.2993 91.7354 23.0322C91.4473 22.7652 91.0572 22.6152 90.6505 22.6152ZM58.7594 67.1574H39.7215C41.22 65.6072 42.0502 63.5969 42.0528 61.5123V54.634H56.4138V61.5123C56.4204 63.5986 57.2558 65.6091 58.7594 67.1574Z" fill="#0D72B9"/>
<path d="M94.121 10.2617C92.7938 10.2641 91.5216 10.7555 90.5832 11.6283C89.6447 12.5011 89.1163 13.6842 89.1138 14.9185C89.1159 15.4835 89.2294 16.0433 89.4489 16.5702L68.5057 31.4977C68.0095 30.9547 67.3857 30.5251 66.6825 30.2421C65.9792 29.959 65.2154 29.8302 64.4501 29.8655C63.6848 29.9008 62.9385 30.0992 62.2688 30.4456C61.5991 30.7919 61.0241 31.2768 60.588 31.8628L40.2624 22.7496C40.2624 22.6561 40.2624 22.567 40.2624 22.478C40.2624 21.2429 39.7348 20.0585 38.7958 19.1851C37.8568 18.3118 36.5832 17.8212 35.2552 17.8212C33.9272 17.8212 32.6536 18.3118 31.7146 19.1851C30.7755 20.0585 30.248 21.2429 30.248 22.478C30.2509 22.7226 30.2733 22.9666 30.315 23.2081L8.89315 35.5268C7.99697 34.8875 6.89454 34.5491 5.76524 34.5666C4.63595 34.5841 3.54626 34.9565 2.67348 35.6232C1.80071 36.2899 1.19622 37.2117 0.958373 38.2385C0.720528 39.2654 0.863328 40.3369 1.36354 41.2787C1.86374 42.2204 2.69192 42.9771 3.7133 43.4254C4.73469 43.8738 5.88917 43.9875 6.98888 43.7481C8.0886 43.5087 9.06883 42.9302 9.77008 42.1068C10.4713 41.2833 10.8523 40.2634 10.851 39.213C10.8499 38.7607 10.7789 38.311 10.6404 37.8774L31.7272 25.7636C32.2209 26.2237 32.8129 26.5823 33.4651 26.8162C34.1172 27.0501 34.8149 27.154 35.5129 27.1213C36.211 27.0886 36.8939 26.9199 37.5174 26.6262C38.141 26.3325 38.6912 25.9203 39.1327 25.4163L59.7168 34.6319C59.7333 35.8658 60.2762 37.043 61.226 37.9047C62.1758 38.7663 63.4547 39.2417 64.7814 39.2264C66.1082 39.211 67.374 38.7062 68.3005 37.8228C69.2269 36.9395 69.7381 35.75 69.7216 34.5162C69.7216 34.4227 69.7216 34.3381 69.7216 34.2491L91.402 18.8006C92.0532 19.1991 92.7955 19.4505 93.5697 19.5348C94.3439 19.6191 95.1286 19.534 95.8612 19.2862C96.5937 19.0385 97.2539 18.6349 97.789 18.1078C98.3241 17.5806 98.7193 16.9445 98.9432 16.25C99.167 15.5556 99.2133 14.8222 99.0783 14.1082C98.9432 13.3942 98.6307 12.7194 98.1655 12.1377C97.7003 11.556 97.0954 11.0834 96.399 10.7577C95.7026 10.432 94.934 10.2622 94.1545 10.2617H94.121ZM5.84383 41.0161C5.46512 41.0161 5.09491 40.9116 4.78002 40.716C4.46513 40.5203 4.21971 40.2422 4.07478 39.9168C3.92985 39.5914 3.89193 39.2333 3.96582 38.8879C4.0397 38.5424 4.22207 38.2251 4.48986 37.9761C4.75765 37.727 5.09883 37.5574 5.47027 37.4887C5.8417 37.42 6.22671 37.4553 6.57659 37.59C6.92648 37.7248 7.22553 37.9531 7.43593 38.2459C7.64633 38.5388 7.75863 38.8831 7.75863 39.2353C7.75121 39.7054 7.54709 40.1544 7.18959 40.4869C6.83209 40.8194 6.34935 41.0092 5.84383 41.0161ZM35.2695 24.281C34.8841 24.2854 34.506 24.1829 34.1835 23.9865C33.8611 23.79 33.6089 23.5087 33.4592 23.1783C33.3095 22.848 33.2691 22.4836 33.3431 22.1318C33.4172 21.78 33.6023 21.4567 33.8749 21.2032C34.1474 20.9497 34.4951 20.7775 34.8734 20.7086C35.2517 20.6398 35.6434 20.6774 35.9987 20.8166C36.3539 20.9558 36.6564 21.1903 36.8676 21.4902C37.0788 21.7901 37.1891 22.1418 37.1843 22.5002C37.1769 22.9704 36.9728 23.4194 36.6153 23.7518C36.2578 24.0843 35.7751 24.2741 35.2695 24.281ZM64.6953 36.3014C64.3166 36.3014 63.9464 36.197 63.6315 36.0013C63.3166 35.8056 63.0712 35.5275 62.9262 35.2021C62.7813 34.8767 62.7434 34.5187 62.8173 34.1732C62.8911 33.8278 63.0735 33.5105 63.3413 33.2614C63.6091 33.0124 63.9503 32.8428 64.3217 32.774C64.6931 32.7053 65.0782 32.7406 65.428 32.8754C65.7779 33.0102 66.077 33.2384 66.2874 33.5313C66.4978 33.8241 66.6101 34.1684 66.6101 34.5206C66.6076 34.9935 66.4055 35.4465 66.0474 35.782C65.6892 36.1176 65.2036 36.3089 64.6953 36.3148V36.3014ZM94.121 16.7127C93.7423 16.7127 93.3721 16.6082 93.0572 16.4125C92.7423 16.2169 92.4969 15.9387 92.3519 15.6133C92.207 15.2879 92.1691 14.9299 92.243 14.5844C92.3169 14.239 92.4992 13.9217 92.767 13.6726C93.0348 13.4236 93.376 13.254 93.7474 13.1853C94.1189 13.1166 94.5039 13.1518 94.8538 13.2866C95.2036 13.4214 95.5027 13.6497 95.7131 13.9425C95.9235 14.2354 96.0358 14.5797 96.0358 14.9319C96.0364 15.1661 95.9874 15.3981 95.8914 15.6147C95.7955 15.8313 95.6545 16.0281 95.4767 16.194C95.2988 16.3598 95.0875 16.4914 94.8549 16.5811C94.6222 16.6709 94.3728 16.7171 94.121 16.7171V16.7127Z" fill="#0D72B9"/>
</svg>
