<svg width="70" height="70" viewBox="0 0 70 70" fill="none" xmlns="http://www.w3.org/2000/svg">
<path d="M65.309 19.4676H63.427C62.9182 19.4682 62.4207 19.3173 61.9976 19.0342C61.5744 18.7511 61.2445 18.3484 61.0498 17.8772C60.855 17.406 60.8041 16.8874 60.9035 16.3872C61.0029 15.887 61.2481 15.4275 61.6082 15.0671L62.9213 13.7294C63.3715 13.2961 63.7309 12.777 63.9784 12.2027C64.226 11.6284 64.3568 11.0103 64.3631 10.3847C64.3694 9.75902 64.2512 9.13841 64.0153 8.55916C63.7794 7.97991 63.4306 7.45367 62.9894 7.01125C62.5481 6.56884 62.0232 6.21914 61.4455 5.98265C60.8677 5.74615 60.2487 5.62761 59.6247 5.63396C59.0007 5.64031 58.3842 5.77143 57.8114 6.01963C57.2385 6.26784 56.7208 6.62814 56.2886 7.07945L54.9579 8.41366C54.5981 8.77531 54.1394 9.02179 53.6398 9.12187C53.1403 9.22195 52.6223 9.17114 52.1516 8.97587C51.6808 8.7806 51.2785 8.44965 50.9955 8.02495C50.7125 7.60024 50.5615 7.10089 50.5618 6.59012V4.7032C50.5618 3.45584 50.0676 2.25956 49.1878 1.37754C48.3081 0.495515 47.1149 0 45.8708 0C44.6267 0 43.4335 0.495515 42.5537 1.37754C41.674 2.25956 41.1798 3.45584 41.1798 4.7032V6.59012C41.1803 7.10019 41.0299 7.59895 40.7475 8.02324C40.4651 8.44752 40.0635 8.77824 39.5935 8.97351C39.1235 9.16879 38.6063 9.21982 38.1074 9.12016C37.6084 9.0205 37.1502 8.77462 36.7907 8.41366L35.4635 7.07945C34.5839 6.19714 33.3908 5.70128 32.1466 5.70095C30.9024 5.70062 29.709 6.19585 28.829 7.07769C27.949 7.95953 27.4544 9.15575 27.4541 10.4032C27.4538 11.6506 27.9477 12.8471 28.8272 13.7294L30.158 15.0671C30.518 15.4275 30.7633 15.887 30.8627 16.3872C30.9621 16.8874 30.9112 17.406 30.7164 17.8772C30.5216 18.3484 30.1918 18.7511 29.7686 19.0342C29.3454 19.3173 28.8479 19.4682 28.3392 19.4676H26.4572C25.4514 19.468 24.4724 19.7925 23.6645 20.3932C22.8566 20.9939 22.2628 21.839 21.9704 22.8038C21.6781 23.7687 21.7028 24.8022 22.0409 25.7519C22.3791 26.7016 23.0127 27.5172 23.8483 28.0784C24.0811 28.2353 24.3665 28.293 24.6418 28.2388C24.917 28.1847 25.1596 28.0232 25.316 27.7897C25.4725 27.5563 25.53 27.2702 25.476 26.9942C25.422 26.7182 25.2609 26.4751 25.0281 26.3182C24.5698 26.0104 24.2222 25.5632 24.0367 25.0423C23.8511 24.5215 23.8374 23.9547 23.9975 23.4254C24.1576 22.8962 24.483 22.4325 24.9259 22.1027C25.3687 21.773 25.9055 21.5946 26.4572 21.5939H28.3392C28.8274 21.5958 29.313 21.5222 29.7788 21.3756C29.3197 23.96 29.4898 26.6174 30.2748 29.1217C31.0597 31.626 32.4362 33.9033 34.2872 35.7598L34.3083 35.781C35.6208 37.0962 36.662 38.6578 37.3724 40.3766C38.0828 42.0954 38.4485 43.9376 38.4485 45.7981C38.4485 47.6587 38.0828 49.5009 37.3724 51.2197C36.662 52.9385 35.6208 54.5001 34.3083 55.8153C28.743 61.3951 19.7226 61.4655 14.2029 55.9667C12.8808 54.6504 11.8308 53.0853 11.1133 51.3612C10.3957 49.6371 10.0247 47.788 10.0214 45.9199C10.0181 44.0517 10.3827 42.2013 11.0943 40.4747C11.8058 38.7482 12.8503 37.1794 14.1678 35.8584L14.224 35.8021C15.66 34.3625 17.3882 33.2496 19.2912 32.5389C21.1942 31.8282 23.2274 31.5364 25.2528 31.6833C25.3911 31.6934 25.5301 31.6762 25.6618 31.6325C25.7935 31.5888 25.9153 31.5196 26.0203 31.4287C26.1253 31.3378 26.2114 31.2271 26.2737 31.1029C26.336 30.9786 26.3733 30.8433 26.3834 30.7046C26.3936 30.5659 26.3764 30.4266 26.3328 30.2945C26.2892 30.1625 26.2202 30.0404 26.1295 29.9351C26.0389 29.8299 25.9284 29.7435 25.8045 29.6811C25.6806 29.6186 25.5456 29.5812 25.4073 29.571C22.6306 29.3764 19.8505 29.8976 17.3315 31.0848H17.3034C16.8894 31.1156 16.4737 31.0571 16.0843 30.9131C15.6948 30.7692 15.3406 30.5432 15.0456 30.2505L13.6938 28.9022C12.8138 28.0203 11.6204 27.5251 10.3762 27.5254C9.13201 27.5258 7.93889 28.0216 7.05934 28.9039C6.17979 29.7862 5.68584 30.9827 5.68617 32.2302C5.6865 33.4776 6.18108 34.6738 7.0611 35.5557L8.39185 36.8899C8.75187 37.2503 8.99711 37.7097 9.09652 38.2099C9.19592 38.7102 9.14502 39.2287 8.95025 39.6999C8.75549 40.1712 8.42562 40.5738 8.00244 40.8569C7.57925 41.14 7.08178 41.2909 6.57303 41.2903H4.69101C3.44688 41.2903 2.2537 41.7858 1.37397 42.6679C0.49423 43.5499 0 44.7462 0 45.9935C0 47.2409 0.49423 48.4372 1.37397 49.3192C2.2537 50.2012 3.44688 50.6967 4.69101 50.6967H6.57303C7.08175 50.6972 7.57894 50.8487 8.00179 51.1323C8.42464 51.4159 8.75419 51.8187 8.94881 52.29C9.14343 52.7612 9.19439 53.2797 9.09526 53.78C8.99614 54.2802 8.75136 54.7398 8.39185 55.1007L7.0611 56.4349C6.21082 57.3227 5.74156 58.5094 5.75402 59.7401C5.76648 60.9709 6.25967 62.1477 7.12775 63.0181C7.99582 63.8884 9.1696 64.3829 10.3972 64.3954C11.6248 64.4079 12.8083 63.9374 13.6938 63.0849L15.0281 61.7507C15.3876 61.3897 15.8458 61.1438 16.3447 61.0442C16.8437 60.9445 17.3609 60.9956 17.8309 61.1908C18.3009 61.3861 18.7025 61.7168 18.9849 62.1411C19.2672 62.5654 19.4177 63.0641 19.4171 63.5742V65.4787C19.464 66.6937 19.9784 67.8432 20.8524 68.6862C21.7263 69.5291 22.8919 70 24.1046 70C25.3174 70 26.4829 69.5291 27.3569 68.6862C28.2308 67.8432 28.7452 66.6937 28.7921 65.4787V63.5918C28.7916 63.0817 28.942 62.583 29.2244 62.1587C29.5068 61.7344 29.9084 61.4037 30.3784 61.2084C30.8484 61.0132 31.3656 60.9621 31.8646 61.0618C32.3635 61.1614 32.8217 61.4073 33.1812 61.7683L34.5154 63.1025C35.401 63.955 36.5845 64.4255 37.8121 64.413C39.0397 64.4005 40.2134 63.906 41.0815 63.0357C41.9496 62.1653 42.4428 60.9885 42.4552 59.7577C42.4677 58.527 41.9984 57.3403 41.1482 56.4525L39.8174 55.1183C39.4502 54.7582 39.1988 54.2961 39.0956 53.7916C38.9925 53.287 39.0423 52.763 39.2387 52.2871C39.4351 51.8112 39.769 51.405 40.1975 51.121C40.6261 50.8369 41.1296 50.688 41.6433 50.6932H43.5393C44.7835 50.6932 45.9766 50.1977 46.8564 49.3157C47.7361 48.4337 48.2303 47.2374 48.2303 45.99C48.2303 44.7426 47.7361 43.5464 46.8564 42.6643C45.9766 41.7823 44.7835 41.2868 43.5393 41.2868C43.26 41.2868 42.992 41.3981 42.7945 41.5961C42.5969 41.7942 42.486 42.0628 42.486 42.3429C42.486 42.623 42.5969 42.8916 42.7945 43.0897C42.992 43.2878 43.26 43.399 43.5393 43.399C44.2247 43.399 44.882 43.672 45.3667 44.1579C45.8513 44.6438 46.1236 45.3028 46.1236 45.99C46.1236 46.6772 45.8513 47.3362 45.3667 47.8221C44.882 48.308 44.2247 48.581 43.5393 48.581H41.6433C41.1871 48.5805 40.7332 48.6445 40.2949 48.7711C40.4737 47.7908 40.5642 46.7964 40.5653 45.7999C40.5726 43.6593 40.1564 41.5385 39.341 39.5602C38.5255 37.5818 37.327 35.7852 35.8146 34.2742L35.7935 34.2531C33.1408 31.5915 31.6507 27.9828 31.6507 24.2201C31.6507 20.4574 33.1408 16.8487 35.7935 14.1871C38.4196 11.5464 41.9661 10.0318 45.6847 9.96262C48.5011 9.91149 51.2684 10.7055 53.6313 12.2428C55.9943 13.78 57.8451 15.9903 58.946 18.5898C60.0469 21.1893 60.3476 24.0594 59.8097 26.8316C59.2718 29.6037 57.9196 32.1514 55.927 34.1475L55.769 34.3059C54.3788 35.697 52.7157 36.7835 50.8849 37.4968C49.0542 38.21 47.0957 38.5344 45.1334 38.4494C44.8541 38.4368 44.5811 38.536 44.3747 38.7251C44.1683 38.9143 44.0452 39.1779 44.0327 39.458C44.0201 39.7381 44.119 40.0117 44.3077 40.2187C44.4963 40.4257 44.7593 40.549 45.0386 40.5616C47.1622 40.652 49.2829 40.3255 51.2816 39.6006C51.3619 39.5906 51.4408 39.5717 51.5169 39.5442C52.6264 39.1429 53.9045 38.8718 54.9579 39.9279L56.2886 41.2622C57.1741 42.1146 58.3577 42.5851 59.5853 42.5726C60.8128 42.5601 61.9866 42.0657 62.8547 41.1953C63.7228 40.325 64.216 39.1482 64.2284 37.9174C64.2409 36.6866 63.7716 35.5 62.9213 34.6122L61.5906 33.2745C61.2281 32.9144 60.9808 32.4544 60.88 31.953C60.7792 31.4515 60.8295 30.9314 61.0246 30.4587C61.2196 29.986 61.5506 29.5822 61.9753 29.2988C62.4 29.0153 62.8992 28.865 63.4094 28.867H65.309C66.5531 28.867 67.7463 28.3715 68.626 27.4894C69.5058 26.6074 70 25.4111 70 24.1638C70 22.9164 69.5058 21.7201 68.626 20.8381C67.7463 19.9561 66.5531 19.4606 65.309 19.4606V19.4676ZM8.56039 34.0525C8.10519 33.5634 7.8572 32.9162 7.86872 32.2474C7.88025 31.5785 8.15038 30.9403 8.62217 30.4673C9.09395 29.9943 9.73051 29.7235 10.3976 29.7119C11.0647 29.7003 11.7102 29.949 12.198 30.4054L13.5288 31.7396C13.8785 32.0841 14.2773 32.3748 14.7121 32.6021C14.0052 33.1119 13.3406 33.6781 12.7247 34.2954L12.6685 34.3517C11.9741 35.0472 11.343 35.8035 10.783 36.6118C10.5535 36.1547 10.2524 35.7375 9.89115 35.3761L8.56039 34.0525ZM4.69101 48.581C4.34526 48.5938 4.00048 48.5366 3.67728 48.4128C3.35408 48.289 3.05911 48.1011 2.80998 47.8604C2.56085 47.6196 2.36269 47.331 2.22734 47.0118C2.09199 46.6925 2.02223 46.3492 2.02223 46.0023C2.02223 45.6554 2.09199 45.3121 2.22734 44.9929C2.36269 44.6736 2.56085 44.385 2.80998 44.1443C3.05911 43.9036 3.35408 43.7157 3.67728 43.5919C4.00048 43.4681 4.34526 43.4109 4.69101 43.4237H6.57303C7.10354 43.4245 7.63046 43.3365 8.13202 43.1632C7.8152 45.0473 7.82827 46.9724 8.17065 48.8521C7.65728 48.6716 7.11704 48.5799 6.57303 48.581H4.69101ZM13.5288 60.2545L12.198 61.5887C11.7161 62.0724 11.0623 62.3443 10.3805 62.3446C9.69859 62.3449 9.04453 62.0737 8.56215 61.5905C8.07977 61.1073 7.80858 60.4518 7.80825 59.7682C7.80793 59.0846 8.07848 58.4288 8.56039 57.9452L9.89115 56.6074C10.2852 56.2152 10.6073 55.7564 10.8427 55.2521C11.3986 56.0486 12.0237 56.7943 12.7107 57.4805C13.3839 58.1482 14.1147 58.7549 14.8947 59.2935C14.3876 59.5296 13.9254 59.8524 13.5288 60.2475V60.2545ZM26.6854 65.4787C26.6982 65.8254 26.6411 66.1711 26.5176 66.4951C26.3941 66.8191 26.2067 67.1149 25.9666 67.3647C25.7265 67.6144 25.4387 67.8131 25.1203 67.9488C24.8018 68.0845 24.4594 68.1545 24.1134 68.1545C23.7674 68.1545 23.425 68.0845 23.1066 67.9488C22.7882 67.8131 22.5003 67.6144 22.2602 67.3647C22.0201 67.1149 21.8327 66.8191 21.7092 66.4951C21.5857 66.1711 21.5287 65.8254 21.5414 65.4787V63.5918C21.5421 63.0222 21.441 62.4571 21.243 61.9232C23.139 62.266 25.0808 62.266 26.9768 61.9232C26.7828 62.4555 26.6841 63.018 26.6854 63.5848V65.4787ZM38.3287 56.618L39.6594 57.9557C40.1413 58.4394 40.4119 59.0951 40.4115 59.7788C40.4112 60.4624 40.14 61.1179 39.6577 61.6011C39.1753 62.0842 38.5212 62.3555 37.8393 62.3551C37.1575 62.3548 36.5037 62.0829 36.0218 61.5993L34.691 60.2651C34.3116 59.8846 33.8713 59.5704 33.3883 59.3357C34.2564 58.7452 35.0676 58.0746 35.8111 57.3326C36.4055 56.7345 36.9537 56.092 37.4508 55.4105C37.6775 55.8511 37.9726 56.2527 38.3251 56.6004L38.3287 56.618ZM34.2872 12.6733C33.645 13.3189 33.0578 14.0172 32.5316 14.7609C32.3045 14.3174 32.0095 13.9124 31.6573 13.5604L30.3265 12.2262C30.0875 11.9869 29.8978 11.7026 29.7684 11.3897C29.639 11.0768 29.5723 10.7414 29.5723 10.4027C29.5723 10.0639 29.639 9.72852 29.7684 9.41562C29.8978 9.10271 30.0875 8.81846 30.3265 8.57912C30.5653 8.33941 30.8488 8.14925 31.1609 8.0195C31.473 7.88975 31.8075 7.82296 32.1454 7.82296C32.4832 7.82296 32.8178 7.88975 33.1299 8.0195C33.442 8.14925 33.7255 8.33941 33.9642 8.57912L35.2949 9.91334C35.6531 10.2736 36.0654 10.5753 36.5169 10.8075C35.7204 11.3625 34.9743 11.9869 34.2872 12.6733ZM45.6461 7.82576C44.7853 7.84408 43.9272 7.92882 43.0794 8.07923C43.235 7.59827 43.3144 7.09578 43.3146 6.59012V4.7032C43.3018 4.35655 43.3589 4.01088 43.4824 3.68684C43.6059 3.3628 43.7933 3.06706 44.0334 2.81728C44.2735 2.56751 44.5613 2.36883 44.8797 2.23313C45.1982 2.09743 45.5406 2.02748 45.8866 2.02748C46.2326 2.02748 46.575 2.09743 46.8934 2.23313C47.2118 2.36883 47.4997 2.56751 47.7398 2.81728C47.9799 3.06706 48.1673 3.3628 48.2908 3.68684C48.4143 4.01088 48.4713 4.35655 48.4586 4.7032V6.59012C48.4578 7.08323 48.5324 7.57355 48.6798 8.04403C47.6774 7.87748 46.6619 7.80441 45.6461 7.82576ZM57.1278 12.2614C56.5615 11.7207 55.9559 11.223 55.316 10.7723C55.7388 10.5456 56.1257 10.2573 56.4642 9.91686L57.7985 8.58264C58.2808 8.09947 58.9349 7.82822 59.6168 7.82855C60.2986 7.82888 60.9524 8.10077 61.4343 8.5844C61.9163 9.06804 62.1868 9.7238 62.1865 10.4074C62.1861 11.0911 61.915 11.7466 61.4326 12.2297L60.1018 13.564C59.7622 13.9046 59.4747 14.2937 59.2486 14.7186C58.6198 13.8319 57.9059 13.0089 57.1173 12.2614H57.1278ZM61.4326 36.1119C61.6714 36.3511 61.8609 36.6352 61.9903 36.9478C62.1197 37.2605 62.1863 37.5957 62.1865 37.9342C62.1866 38.2727 62.1203 38.6079 61.9913 38.9207C61.8622 39.2335 61.673 39.5177 61.4343 39.7572C61.1957 39.9967 60.9124 40.1867 60.6005 40.3164C60.2887 40.4461 59.9544 40.5129 59.6168 40.5131C59.2791 40.5132 58.9448 40.4467 58.6328 40.3173C58.3208 40.1879 58.0373 39.9982 57.7985 39.759L56.4642 38.4248C56.1052 38.0608 55.6888 37.7587 55.2317 37.5306C55.9599 37.01 56.6445 36.4307 57.2788 35.7986L57.4333 35.6401C58.0823 34.9871 58.6754 34.2805 59.2065 33.5279C59.437 33.9873 59.7393 34.4068 60.1018 34.7706L61.4326 36.1119ZM65.309 26.7548H63.427C62.9276 26.7529 62.4311 26.8301 61.9558 26.9836C62.1373 25.9636 62.222 24.9287 62.2086 23.8927C62.1978 23.0492 62.1226 22.2077 61.9838 21.3756C62.4506 21.5236 62.9374 21.5984 63.427 21.5974H65.309C65.6547 21.5846 65.9995 21.6418 66.3227 21.7656C66.6459 21.8895 66.9409 22.0773 67.19 22.3181C67.4391 22.5588 67.6373 22.8474 67.7727 23.1666C67.908 23.4859 67.9778 23.8292 67.9778 24.1761C67.9778 24.523 67.908 24.8663 67.7727 25.1855C67.6373 25.5048 67.4391 25.7934 67.19 26.0341C66.9409 26.2748 66.6459 26.4627 66.3227 26.5865C65.9995 26.7103 65.6547 26.7676 65.309 26.7548Z" fill="#0D72B9"/>
<path d="M19.2345 40.7236C18.0699 41.8981 17.3474 43.4412 17.1901 45.0899C17.0327 46.7386 17.4504 48.391 18.3717 49.7656C19.2931 51.1403 20.6613 52.1522 22.2433 52.629C23.8253 53.1058 25.5233 53.0181 27.048 52.3807C28.5726 51.7433 29.8298 50.5957 30.6053 49.1333C31.3809 47.671 31.6268 45.9843 31.3012 44.3606C30.9757 42.7368 30.0988 41.2765 28.8198 40.2282C27.5409 39.1799 25.9391 38.6085 24.2872 38.6113C23.3474 38.6104 22.4169 38.7967 21.5495 39.1593C20.6821 39.5219 19.8952 40.0536 19.2345 40.7236ZM29.3082 45.7858C29.308 46.9513 28.9048 48.0807 28.1671 48.9814C27.4295 49.8822 26.4032 50.4987 25.2631 50.7259C24.1229 50.9531 22.9395 50.7769 21.9144 50.2273C20.8893 49.6778 20.0859 48.7888 19.6413 47.712C19.1966 46.6352 19.138 45.4371 19.4756 44.3219C19.8133 43.2066 20.5261 42.2432 21.4927 41.5959C22.4594 40.9485 23.62 40.6572 24.7768 40.7716C25.9337 40.886 27.0152 41.399 27.837 42.2232C28.3055 42.6897 28.6767 43.2449 28.9293 43.8565C29.1819 44.4681 29.3107 45.1239 29.3082 45.7858Z" fill="#0D72B9"/>
<path d="M50.9131 29.2193C52.0795 28.0438 52.8034 26.4993 52.9614 24.8488C53.1193 23.1983 52.7017 21.5439 51.7795 20.1675C50.8574 18.7911 49.4878 17.7778 47.904 17.3003C46.3203 16.8227 44.6204 16.9105 43.094 17.5486C41.5676 18.1867 40.309 19.3357 39.5327 20.7998C38.7565 22.2639 38.5105 23.9525 38.8368 25.578C39.1631 27.2036 40.0413 28.6654 41.322 29.7145C42.6027 30.7636 44.2066 31.335 45.8604 31.3315C46.8 31.3318 47.7304 31.1453 48.5977 30.7827C49.465 30.4202 50.252 29.8888 50.9131 29.2193ZM40.8323 24.1605C40.8325 22.995 41.2358 21.8657 41.9734 20.9649C42.711 20.0641 43.7373 19.4476 44.8775 19.2204C46.0176 18.9932 47.2011 19.1694 48.2262 19.719C49.2513 20.2686 50.0546 21.1575 50.4993 22.2343C50.944 23.3111 51.0025 24.5092 50.6649 25.6245C50.3273 26.7397 49.6144 27.7031 48.6478 28.3505C47.6812 28.9978 46.5206 29.2891 45.3637 29.1747C44.2069 29.0603 43.1254 28.5473 42.3035 27.7231C41.8352 27.2565 41.4641 26.7013 41.2115 26.0897C40.959 25.4782 40.8301 24.8224 40.8323 24.1605Z" fill="#0D72B9"/>
</svg>
