<svg width="72" height="70" viewBox="0 0 72 70" fill="none" xmlns="http://www.w3.org/2000/svg">
<path d="M66.6395 32.97C67.9737 32.1121 68.994 30.8412 69.5466 29.3492C70.0992 27.8572 70.1539 26.2251 69.7027 24.6991C69.2514 23.1731 68.3186 21.836 67.045 20.8895C65.7714 19.9431 64.226 19.4387 62.6422 19.4524C61.0583 19.4662 59.5219 19.9973 58.2647 20.9656C57.0075 21.934 56.0978 23.2871 55.6728 24.8207C55.2478 26.3543 55.3306 27.9853 55.9087 29.4674C56.4867 30.9496 57.5288 32.2026 58.8775 33.0373C57.8297 33.5874 56.9116 34.3571 56.1852 35.2944C55.4588 36.2317 54.941 37.3148 54.6668 38.4705L53.4719 43.4731C53.4077 43.7548 53.4567 44.0505 53.6082 44.296C53.7597 44.5416 54.0016 44.7171 54.2811 44.7844C54.5607 44.8518 54.8554 44.8056 55.1012 44.6558C55.347 44.506 55.5241 44.2647 55.594 43.9845L56.7922 38.9853C57.1059 37.6427 57.8626 36.4465 58.9389 35.5913C60.0153 34.7361 61.3479 34.2723 62.72 34.2754C64.6005 34.2771 66.4035 35.0288 67.7332 36.3653C69.0629 37.7018 69.8108 39.514 69.8125 41.4041V60.5229C69.8043 60.6723 69.8265 60.8218 69.8777 60.9622C69.9289 61.1027 70.008 61.2312 70.1103 61.3398C70.2126 61.4485 70.3359 61.535 70.4726 61.5942C70.6093 61.6533 70.7565 61.6838 70.9054 61.6838C71.0542 61.6838 71.2015 61.6533 71.3382 61.5942C71.4749 61.535 71.5981 61.4485 71.7004 61.3398C71.8027 61.2312 71.8819 61.1027 71.9331 60.9622C71.9843 60.8218 72.0064 60.6723 71.9982 60.5229V41.4075C71.9945 39.6348 71.4886 37.8998 70.5396 36.4055C69.5905 34.9113 68.2377 33.7197 66.6395 32.97ZM62.7032 21.6428C63.7149 21.6421 64.7041 21.943 65.5456 22.5075C66.3871 23.0719 67.0431 23.8745 67.4307 24.8137C67.8183 25.753 67.9201 26.7867 67.7231 27.7841C67.5262 28.7815 67.0393 29.6977 66.3242 30.417C65.6091 31.1362 64.6978 31.6261 63.7056 31.8248C62.7134 32.0234 61.6849 31.9218 60.7502 31.5328C59.8154 31.1438 59.0165 30.485 58.4543 29.6395C57.8922 28.7941 57.5922 27.8001 57.5922 26.7833C57.5931 25.4208 58.1317 24.1143 59.09 23.1506C60.0482 22.1868 61.3477 21.6445 62.7032 21.6428Z" fill="#0D72B9"/>
<path d="M22.6346 53.155C23.1072 53.1697 23.578 53.0887 24.0189 52.917C24.4599 52.7454 24.862 52.4864 25.2015 52.1555C25.541 51.8247 25.8109 51.4286 25.9952 50.9909C26.1795 50.5532 26.2745 50.0828 26.2745 49.6075C26.2745 49.1322 26.1795 48.6618 25.9952 48.2241C25.8109 47.7864 25.541 47.3903 25.2015 47.0595C24.862 46.7286 24.4599 46.4696 24.0189 46.2979C23.578 46.1262 23.1072 46.0453 22.6346 46.0599H12.9882L12.6133 41.9253C12.5871 41.6353 12.4474 41.3677 12.2249 41.1813C12.0023 40.9948 11.7153 40.9049 11.4267 40.9312C11.1382 40.9575 10.872 41.098 10.6865 41.3216C10.501 41.5453 10.4115 41.8338 10.4377 42.1238L10.9029 47.2576C10.9248 47.5325 11.0489 47.789 11.2505 47.976C11.4521 48.163 11.7164 48.2669 11.9907 48.2669H22.6346C22.9897 48.2669 23.3302 48.4086 23.5813 48.661C23.8324 48.9134 23.9734 49.2556 23.9734 49.6125C23.9734 49.9694 23.8324 50.3117 23.5813 50.5641C23.3302 50.8164 22.9897 50.9582 22.6346 50.9582H10.5849C9.86143 50.9585 9.16288 50.6924 8.62137 50.2101C8.07986 49.7278 7.73293 49.0628 7.64617 48.3409L7.0303 38.7428C7.02063 38.599 6.98288 38.4585 6.91919 38.3294C6.85551 38.2002 6.76714 38.0849 6.65913 37.9901C6.55113 37.8953 6.4256 37.8228 6.28971 37.7768C6.15383 37.7307 6.01025 37.712 5.86718 37.7217C5.7241 37.7315 5.58434 37.7694 5.45585 37.8334C5.32737 37.8974 5.21269 37.9862 5.11836 38.0948C5.02403 38.2034 4.9519 38.3295 4.90608 38.4661C4.86026 38.6027 4.84166 38.747 4.85133 38.8908L5.49732 48.5023C5.49732 48.5192 5.49732 48.536 5.49732 48.5494C5.63344 49.814 6.2294 50.9835 7.17083 51.8335C8.11226 52.6835 9.33284 53.1541 10.5983 53.155H12.9212L2.92673 65.1956C2.79496 65.3562 2.71125 65.5512 2.68535 65.7578C2.65944 65.9643 2.6924 66.1741 2.78039 66.3626C2.86838 66.5511 3.00779 66.7106 3.18241 66.8226C3.35703 66.9347 3.5597 66.9946 3.76686 66.9954H20.0506C20.1992 67.0037 20.3479 66.9814 20.4877 66.9299C20.6274 66.8785 20.7552 66.7989 20.8634 66.6961C20.9715 66.5933 21.0576 66.4694 21.1164 66.332C21.1753 66.1946 21.2056 66.0466 21.2056 65.897C21.2056 65.7474 21.1753 65.5994 21.1164 65.462C21.0576 65.3246 20.9715 65.2007 20.8634 65.0979C20.7552 64.9951 20.6274 64.9155 20.4877 64.8641C20.3479 64.8126 20.1992 64.7903 20.0506 64.7986H6.0998L15.7663 53.155H22.6346Z" fill="#0D72B9"/>
<path d="M9.2799 34.2786C10.6519 34.2755 11.9846 34.7394 13.061 35.5946C14.1373 36.4498 14.8939 37.646 15.2077 38.9885L16.4026 43.9709C16.4348 44.1122 16.4945 44.2457 16.5784 44.3637C16.6622 44.4816 16.7685 44.5817 16.8911 44.6581C17.0136 44.7345 17.15 44.7857 17.2924 44.8088C17.4348 44.8319 17.5803 44.8264 17.7206 44.7926C17.8608 44.7588 17.993 44.6974 18.1095 44.6119C18.226 44.5265 18.3245 44.4186 18.3993 44.2947C18.4741 44.1707 18.5236 44.0331 18.5451 43.8897C18.5667 43.7464 18.5597 43.6002 18.5246 43.4596L17.3297 38.457C17.0559 37.3016 16.5386 36.2187 15.8128 35.2814C15.087 34.3441 14.1695 33.5743 13.1224 33.0238C14.4683 32.1865 15.5069 30.9321 16.0814 29.4497C16.6559 27.9673 16.7353 26.3373 16.3075 24.8056C15.8798 23.2738 14.9681 21.9235 13.7099 20.9581C12.4518 19.9927 10.9155 19.4648 9.33266 19.4538C7.74986 19.4428 6.20642 19.9495 4.93516 20.8973C3.66389 21.8451 2.73374 23.1827 2.28499 24.7084C1.83625 26.234 1.89324 27.8649 2.44739 29.3552C3.00153 30.8454 4.02277 32.1141 5.35707 32.97C3.75941 33.7201 2.4073 34.9119 1.45891 36.4061C0.510514 37.9003 0.00505979 39.635 0.00167363 41.4074V60.5262C-0.00655344 60.6756 0.0156121 60.825 0.0668153 60.9655C0.118019 61.106 0.197184 61.2344 0.299471 61.3431C0.401758 61.4518 0.525019 61.5383 0.661718 61.5975C0.798416 61.6566 0.945681 61.6871 1.09451 61.6871C1.24334 61.6871 1.3906 61.6566 1.5273 61.5975C1.664 61.5383 1.78726 61.4518 1.88955 61.3431C1.99183 61.2344 2.071 61.106 2.1222 60.9655C2.17341 60.825 2.19557 60.6756 2.18734 60.5262V41.4074C2.18912 39.5173 2.93694 37.7051 4.26666 36.3686C5.59639 35.0321 7.39938 34.2804 9.2799 34.2786ZM9.29663 21.6427C10.3082 21.6427 11.297 21.9442 12.138 22.509C12.9791 23.0739 13.6346 23.8767 14.0217 24.816C14.4088 25.7553 14.5101 26.7889 14.3128 27.786C14.1154 28.7832 13.6283 29.6992 12.9131 30.4181C12.1978 31.137 11.2865 31.6266 10.2944 31.8249C9.30231 32.0233 8.27397 31.9215 7.33944 31.5324C6.4049 31.1433 5.60614 30.4845 5.04416 29.6391C4.48218 28.7937 4.18223 27.7999 4.18223 26.7832C4.18312 25.4201 4.72224 24.1131 5.68118 23.1493C6.64013 22.1854 7.94048 21.6436 9.29663 21.6427Z" fill="#0D72B9"/>
<path d="M46.8181 60.7548C46.4527 58.9341 45.6364 57.2354 44.4446 55.8159C43.2529 54.3963 41.7242 53.3018 40 52.6336C41.3139 51.7642 42.3133 50.4916 42.8494 49.0052C43.3854 47.5187 43.4294 45.898 42.9748 44.3844C42.5202 42.8708 41.5913 41.5452 40.3265 40.6052C39.0617 39.6652 37.5286 39.1609 35.9556 39.1675C34.3826 39.1742 32.8537 39.6913 31.5968 40.642C30.3399 41.5927 29.4221 42.926 28.9802 44.4434C28.5382 45.9608 28.5958 47.5811 29.1442 49.063C29.6926 50.5448 30.7026 51.809 32.0238 52.6672C30.344 53.3326 28.8538 54.405 27.6859 55.789C26.518 57.173 25.7086 58.8257 25.3295 60.6L23.6158 68.6741C23.5864 68.8157 23.5851 68.9618 23.612 69.1039C23.6388 69.246 23.6933 69.3814 23.7723 69.5023C23.8512 69.6232 23.9531 69.7273 24.0722 69.8086C24.1912 69.8899 24.325 69.9468 24.466 69.9761C24.5408 69.992 24.6171 69.9999 24.6936 69.9996C24.944 70.0035 25.1881 69.9207 25.385 69.7651C25.5818 69.6095 25.7194 69.3906 25.7747 69.1451L27.4884 61.071C27.9117 59.0854 29.0031 57.3072 30.5786 56.036C32.1542 54.7649 34.1176 54.0786 36.1379 54.0928C38.1582 54.1071 40.1119 54.8209 41.6696 56.1141C43.2273 57.4073 44.2938 59.2007 44.6893 61.1921L46.2491 69.1384C46.3163 69.4129 46.4862 69.6509 46.7234 69.8029C46.9606 69.9549 47.2469 70.0093 47.5229 69.9547C47.799 69.9002 48.0435 69.741 48.2058 69.51C48.3681 69.2791 48.4357 68.9942 48.3946 68.7145L46.8181 60.7548ZM35.9868 41.3803C36.9983 41.3803 37.9871 41.6818 38.8282 42.2466C39.6693 42.8115 40.3248 43.6143 40.7119 44.5536C41.099 45.4929 41.2003 46.5265 41.0029 47.5237C40.8056 48.5208 40.3185 49.4368 39.6032 50.1557C38.888 50.8746 37.9767 51.3642 36.9846 51.5625C35.9925 51.7609 34.9641 51.6591 34.0296 51.27C33.0951 50.8809 32.2963 50.2221 31.7343 49.3767C31.1723 48.5314 30.8724 47.5375 30.8724 46.5208C30.8733 45.1577 31.4124 43.8507 32.3713 42.8869C33.3303 41.923 34.6306 41.3812 35.9868 41.3803Z" fill="#0D72B9"/>
<path d="M58.9478 53.1553H61.4013C62.6664 53.1572 63.8878 52.6896 64.831 51.8421C65.7742 50.9946 66.3729 49.827 66.5123 48.5631C66.5123 48.5631 66.5123 48.5328 66.5123 48.516L67.1583 38.9045C67.168 38.7607 67.1494 38.6164 67.1036 38.4798C67.0578 38.3432 66.9856 38.217 66.8913 38.1085C66.797 37.9999 66.6823 37.9111 66.5538 37.8471C66.4253 37.7831 66.2855 37.7451 66.1425 37.7354C65.9994 37.7257 65.8558 37.7444 65.7199 37.7904C65.5841 37.8365 65.4585 37.909 65.3505 38.0038C65.1324 38.1953 64.9989 38.466 64.9793 38.7564L64.3333 48.3411C64.2466 49.063 63.8997 49.728 63.3582 50.2103C62.8166 50.6926 62.1181 50.9587 61.3946 50.9584H49.3449C48.9899 50.9584 48.6493 50.8167 48.3982 50.5643C48.1471 50.3119 48.0061 49.9696 48.0061 49.6128C48.0061 49.2559 48.1471 48.9136 48.3982 48.6612C48.6493 48.4088 48.9899 48.2671 49.3449 48.2671H59.9888C60.2631 48.2671 60.5274 48.1633 60.729 47.9762C60.9306 47.7892 61.0547 47.5327 61.0766 47.2578L61.5419 42.1274C61.555 41.9838 61.54 41.839 61.4975 41.7013C61.455 41.5636 61.3859 41.4356 61.2942 41.3247C61.2025 41.2138 61.09 41.1221 60.9631 41.0549C60.8362 40.9877 60.6973 40.9463 60.5545 40.9331C60.4116 40.9198 60.2675 40.935 60.1305 40.9777C59.9935 41.0204 59.8662 41.0898 59.7558 41.182C59.533 41.3681 59.3929 41.6356 59.3662 41.9255L58.9913 46.0601H49.365C48.8924 46.0455 48.4216 46.1264 47.9807 46.2981C47.5397 46.4698 47.1376 46.7288 46.7981 47.0597C46.4586 47.3905 46.1887 47.7866 46.0044 48.2243C45.8201 48.662 45.7251 49.1324 45.7251 49.6077C45.7251 50.083 45.8201 50.5534 46.0044 50.9911C46.1887 51.4288 46.4586 51.8249 46.7981 52.1557C47.1376 52.4866 47.5397 52.7456 47.9807 52.9173C48.4216 53.089 48.8924 53.1699 49.365 53.1553H56.1028L65.7693 64.8122H51.8185C51.6699 64.804 51.5211 64.8263 51.3814 64.8777C51.2417 64.9292 51.1138 65.0088 51.0057 65.1116C50.8976 65.2144 50.8115 65.3383 50.7527 65.4757C50.6938 65.6131 50.6634 65.7611 50.6634 65.9107C50.6634 66.0602 50.6938 66.2083 50.7527 66.3457C50.8115 66.4831 50.8976 66.6069 51.0057 66.7098C51.1138 66.8126 51.2417 66.8921 51.3814 66.9436C51.5211 66.9951 51.6699 67.0173 51.8185 67.0091H68.1022C68.3099 67.0096 68.5135 66.9505 68.689 66.8387C68.8645 66.727 69.0045 66.5672 69.0928 66.3782C69.181 66.1891 69.2137 65.9787 69.1871 65.7717C69.1604 65.5646 69.0755 65.3695 68.9423 65.2092L58.9478 53.1553Z" fill="#0D72B9"/>
<path d="M29.4831 26.4937C30.7414 27.3218 32.1629 27.8669 33.6502 28.0917V30.1102C33.6552 30.3771 33.7177 30.6398 33.8332 30.8803C33.9488 31.1207 34.1147 31.3331 34.3197 31.503C34.6853 31.8155 35.1484 31.9893 35.6284 31.9941H37.6869C37.9369 31.9948 38.1845 31.9445 38.4147 31.8462C38.6448 31.7479 38.8527 31.6037 39.0257 31.4222C39.3713 31.0613 39.5603 30.5774 39.5512 30.0765V27.6913C42.7143 26.5677 44.6991 23.8729 44.6857 20.6265C44.6857 18.3927 44.0163 15.1596 38.4266 12.8888C35.538 11.7012 35.538 11.2639 35.5347 10.9106C35.5306 10.8045 35.5495 10.6987 35.5899 10.6006C35.6304 10.5025 35.6914 10.4143 35.769 10.3421C36.1587 10.0656 36.6323 9.93467 37.1078 9.97203H37.1547C38.2616 9.95782 39.3507 10.2525 40.301 10.8232C40.5374 10.9558 40.7995 11.0356 41.0693 11.0571C41.3392 11.0786 41.6106 11.0412 41.8648 10.9477C42.119 10.8541 42.3501 10.7064 42.5424 10.5148C42.7346 10.3232 42.8834 10.0922 42.9787 9.83747L43.7853 7.66755C43.9363 7.25018 43.9365 6.79276 43.786 6.37522C43.6355 5.95768 43.3438 5.60658 42.9619 5.38325C41.929 4.79692 40.8037 4.39297 39.6349 4.18896V1.83401C39.6327 1.58872 39.5821 1.34631 39.4859 1.12087C39.3897 0.895436 39.2498 0.691479 39.0745 0.520865C38.8991 0.350251 38.6917 0.216385 38.4645 0.127054C38.2372 0.0377237 37.9945 -0.00528889 37.7505 0.000518671H35.7422C35.4999 -0.000994741 35.2597 0.0467608 35.0362 0.140914C34.8127 0.235068 34.6105 0.373675 34.4417 0.548402C34.2728 0.723129 34.1409 0.930368 34.0538 1.15766C33.9667 1.38495 33.9262 1.6276 33.9347 1.87102V4.56239C30.8554 5.62211 28.9877 8.15873 29.0044 11.348C29.0245 15.6205 32.3516 17.4877 35.5849 18.7493C38.0952 19.7585 38.0986 20.4953 38.1019 20.8889C38.1019 21.8645 37.0275 22.2346 36.0936 22.2346H36.0635C34.7749 22.2318 33.5139 21.8595 32.4285 21.1614C32.1899 21.0043 31.919 20.9037 31.6361 20.8669C31.3531 20.8302 31.0656 20.8584 30.7951 20.9494C30.5231 21.0397 30.2753 21.1916 30.071 21.3934C29.8667 21.5952 29.7114 21.8416 29.617 22.1135L28.8438 24.317C28.6982 24.7001 28.682 25.1206 28.7975 25.5139C28.913 25.9072 29.1539 26.2515 29.4831 26.4937ZM31.5516 23.2136C32.9328 24.0245 34.5041 24.4507 36.1037 24.4482C38.5739 24.4482 40.2909 22.9814 40.2809 20.9091C40.2809 19.0789 39.1094 17.8308 36.3781 16.7341C33.2687 15.5263 31.1968 14.1537 31.1834 11.3514C31.1834 8.91904 32.703 7.09227 35.2803 6.46989C35.5195 6.41164 35.7322 6.27404 35.884 6.07931C36.0359 5.88459 36.118 5.64411 36.1171 5.39671V2.20071H37.4559V5.16794C37.4576 5.44253 37.5616 5.70651 37.7476 5.90771C37.9335 6.10891 38.1877 6.23269 38.4601 6.25458C39.5801 6.35049 40.6706 6.66594 41.6699 7.18311L41.0775 8.77438C39.8704 8.1285 38.5221 7.79548 37.1547 7.80548H37.1112C35.9263 7.80548 34.9824 8.1419 34.3063 8.75083C34.0036 9.03002 33.763 9.37035 33.6004 9.74952C33.4377 10.1287 33.3566 10.5381 33.3624 10.951C33.3624 12.8753 34.7414 13.7736 37.6166 14.9511C42.48 16.9225 42.5101 19.4423 42.5101 20.6534C42.5101 23.1362 40.8365 25.1715 38.199 25.8343C37.9583 25.8922 37.7445 26.0307 37.5924 26.2269C37.4404 26.4232 37.3592 26.6655 37.3622 26.9142V29.8141H35.8292V27.1228C35.8284 26.8476 35.7247 26.5828 35.5387 26.3809C35.3527 26.179 35.098 26.0547 34.8251 26.0328C33.4673 25.9328 32.1488 25.5294 30.9659 24.8519L31.5516 23.2136Z" fill="#0D72B9"/>
<path d="M63.8311 6.3523C63.9758 6.35408 64.1194 6.32692 64.2536 6.27239C64.3877 6.21787 64.5098 6.13706 64.6126 6.03469C64.7153 5.93231 64.7968 5.81041 64.8523 5.67607C64.9078 5.54173 64.9361 5.39765 64.9357 5.2522V4.33714C64.9202 4.05633 64.7983 3.79214 64.5951 3.59885C64.3918 3.40556 64.1226 3.29785 63.8428 3.29785C63.563 3.29785 63.2938 3.40556 63.0906 3.59885C62.8873 3.79214 62.7655 4.05633 62.75 4.33714V5.2522C62.75 5.54165 62.8635 5.81944 63.0658 6.02537C63.2682 6.23129 63.5432 6.34876 63.8311 6.3523Z" fill="#0D72B9"/>
<path d="M63.8311 12.6301C63.9757 12.6315 64.1191 12.604 64.2531 12.5493C64.387 12.4946 64.5089 12.4138 64.6116 12.3115C64.7143 12.2092 64.7958 12.0875 64.8514 11.9534C64.907 11.8192 64.9357 11.6754 64.9357 11.53V10.615C64.9202 10.3342 64.7983 10.07 64.5951 9.87668C64.3918 9.68339 64.1226 9.57568 63.8428 9.57568C63.563 9.57568 63.2938 9.68339 63.0906 9.87668C62.8873 10.07 62.7655 10.3342 62.75 10.615V11.53C62.7508 11.8192 62.8646 12.0965 63.0668 12.3022C63.269 12.508 63.5434 12.6257 63.8311 12.6301Z" fill="#0D72B9"/>
<path d="M60.2497 9.03347H61.1602C61.3088 9.04174 61.4575 9.01946 61.5972 8.968C61.737 8.91653 61.8648 8.83696 61.9729 8.73415C62.081 8.63135 62.1671 8.50745 62.226 8.37006C62.2848 8.23266 62.3152 8.08465 62.3152 7.93506C62.3152 7.78547 62.2848 7.63745 62.226 7.50006C62.1671 7.36266 62.081 7.23877 61.9729 7.13596C61.8648 7.03315 61.737 6.95358 61.5972 6.90212C61.4575 6.85065 61.3088 6.82837 61.1602 6.83664H60.2497C60.1011 6.82837 59.9524 6.85065 59.8127 6.90212C59.6729 6.95358 59.5451 7.03315 59.437 7.13596C59.3289 7.23877 59.2428 7.36266 59.1839 7.50006C59.1251 7.63745 59.0947 7.78547 59.0947 7.93506C59.0947 8.08465 59.1251 8.23266 59.1839 8.37006C59.2428 8.50745 59.3289 8.63135 59.437 8.73415C59.5451 8.83696 59.6729 8.91653 59.8127 8.968C59.9524 9.01946 60.1011 9.04174 60.2497 9.03347Z" fill="#0D72B9"/>
<path d="M66.4988 9.03347H67.4092C67.6886 9.01793 67.9514 8.89542 68.1437 8.69114C68.336 8.48685 68.4432 8.21629 68.4432 7.93506C68.4432 7.65382 68.336 7.38326 68.1437 7.17898C67.9514 6.97469 67.6886 6.85219 67.4092 6.83664H66.4988C66.3502 6.82837 66.2014 6.85065 66.0617 6.90212C65.922 6.95358 65.7941 7.03315 65.686 7.13596C65.5779 7.23877 65.4918 7.36266 65.433 7.50006C65.3741 7.63745 65.3438 7.78547 65.3438 7.93506C65.3438 8.08465 65.3741 8.23266 65.433 8.37006C65.4918 8.50745 65.5779 8.63135 65.686 8.73415C65.7941 8.83696 65.922 8.91653 66.0617 8.968C66.2014 9.01946 66.3502 9.04174 66.4988 9.03347Z" fill="#0D72B9"/>
<path d="M12.8613 4.37377C13.1507 4.37377 13.4283 4.25822 13.6329 4.05254C13.8375 3.84687 13.9525 3.56791 13.9525 3.27704V2.35524C13.9607 2.20589 13.9385 2.05641 13.8873 1.91595C13.8361 1.7755 13.757 1.64701 13.6547 1.53835C13.5524 1.42969 13.4291 1.34314 13.2924 1.28399C13.1557 1.22484 13.0085 1.19434 12.8596 1.19434C12.7108 1.19434 12.5636 1.22484 12.4269 1.28399C12.2902 1.34314 12.1669 1.42969 12.0646 1.53835C11.9623 1.64701 11.8832 1.7755 11.832 1.91595C11.7807 2.05641 11.7586 2.20589 11.7668 2.35524V3.27367C11.7668 3.56544 11.8821 3.84525 12.0874 4.05156C12.2926 4.25787 12.571 4.37377 12.8613 4.37377Z" fill="#0D72B9"/>
<path d="M12.8613 10.6483C13.1507 10.6483 13.4283 10.5327 13.6329 10.3271C13.8375 10.1214 13.9525 9.84243 13.9525 9.55156V8.63649C13.9607 8.48714 13.9385 8.33766 13.8873 8.1972C13.8361 8.05675 13.757 7.92826 13.6547 7.8196C13.5524 7.71094 13.4291 7.62439 13.2924 7.56524C13.1557 7.50609 13.0085 7.47559 12.8596 7.47559C12.7108 7.47559 12.5636 7.50609 12.4269 7.56524C12.2902 7.62439 12.1669 7.71094 12.0646 7.8196C11.9623 7.92826 11.8832 8.05675 11.832 8.1972C11.7807 8.33766 11.7586 8.48714 11.7668 8.63649V9.55156C11.7677 9.84274 11.8834 10.1217 12.0886 10.3273C12.2937 10.5329 12.5716 10.6483 12.8613 10.6483Z" fill="#0D72B9"/>
<path d="M9.28343 7.0657H10.1938C10.3424 7.07397 10.4912 7.05169 10.6309 7.00022C10.7707 6.94876 10.8985 6.86919 11.0066 6.76638C11.1147 6.66357 11.2008 6.53968 11.2597 6.40229C11.3185 6.26489 11.3489 6.11687 11.3489 5.96728C11.3489 5.8177 11.3185 5.66968 11.2597 5.53228C11.2008 5.39489 11.1147 5.271 11.0066 5.16819C10.8985 5.06538 10.7707 4.98581 10.6309 4.93434C10.4912 4.88288 10.3424 4.8606 10.1938 4.86887H9.28343C9.13483 4.8606 8.98611 4.88288 8.84637 4.93434C8.70663 4.98581 8.57879 5.06538 8.47069 5.16819C8.36258 5.271 8.27647 5.39489 8.21762 5.53228C8.15877 5.66968 8.12842 5.8177 8.12842 5.96728C8.12842 6.11687 8.15877 6.26489 8.21762 6.40229C8.27647 6.53968 8.36258 6.66357 8.47069 6.76638C8.57879 6.86919 8.70663 6.94876 8.84637 7.00022C8.98611 7.05169 9.13483 7.07397 9.28343 7.0657Z" fill="#0D72B9"/>
<path d="M15.529 7.0657H16.4395C16.7188 7.05015 16.9817 6.92765 17.174 6.72336C17.3663 6.51908 17.4735 6.24852 17.4735 5.96728C17.4735 5.68605 17.3663 5.41549 17.174 5.2112C16.9817 5.00692 16.7188 4.88442 16.4395 4.86887H15.529C15.3804 4.8606 15.2317 4.88288 15.092 4.93434C14.9522 4.98581 14.8244 5.06538 14.7163 5.16819C14.6082 5.271 14.5221 5.39489 14.4632 5.53228C14.4044 5.66968 14.374 5.8177 14.374 5.96728C14.374 6.11687 14.4044 6.26489 14.4632 6.40229C14.5221 6.53968 14.6082 6.66357 14.7163 6.76638C14.8244 6.86919 14.9522 6.94876 15.092 7.00022C15.2317 7.05169 15.3804 7.07397 15.529 7.0657Z" fill="#0D72B9"/>
</svg>
