<svg width="70" height="70" viewBox="0 0 70 70" fill="none" xmlns="http://www.w3.org/2000/svg">
<path d="M38.2657 32.7928L45.2368 29.025C46.6379 29.4097 48.1244 29.3262 49.4747 28.7868L57.1729 32.1189C57.0178 32.3904 56.942 32.7007 56.9541 33.014C56.9675 33.2822 57.0461 33.5428 57.183 33.773L50.9759 37.1289C50.8776 37.1821 50.7906 37.2543 50.7198 37.3415C50.6491 37.4287 50.596 37.5291 50.5637 37.6371C50.5313 37.745 50.5203 37.8583 50.5313 37.9705C50.5422 38.0828 50.575 38.1917 50.6276 38.2912C50.6802 38.3906 50.7516 38.4786 50.8379 38.5502C50.9241 38.6217 51.0234 38.6753 51.1302 38.708C51.2369 38.7407 51.349 38.7519 51.46 38.7408C51.571 38.7297 51.6787 38.6966 51.7771 38.6434L59.0814 34.6919C59.2224 34.6157 59.3392 34.5007 59.4184 34.3602C59.4975 34.2197 59.5358 34.0594 59.5287 33.8979C59.5217 33.7364 59.4696 33.5802 59.3786 33.4472C59.2875 33.3143 59.1612 33.2102 59.0141 33.1467C58.89 33.0965 58.7759 33.0238 58.6775 32.9323C58.7932 32.7895 58.9378 32.6735 59.1016 32.5919C59.2433 32.5168 59.3608 32.4021 59.4401 32.2616C59.5195 32.1211 59.5573 31.9605 59.5493 31.7989C59.5431 31.6375 59.4917 31.4811 59.4012 31.3479C59.3106 31.2148 59.1846 31.1104 59.0377 31.0467L49.7911 27.0578C49.6743 27.0072 49.5477 26.9837 49.4208 26.989C49.2938 26.9943 49.1696 27.0283 49.0573 27.0884C48.1013 27.6058 46.4419 27.7045 45.5027 27.296C45.3857 27.246 45.259 27.2231 45.132 27.2289C45.005 27.2348 44.881 27.2694 44.7689 27.3301L37.4646 31.2816C37.2735 31.3929 37.1328 31.575 37.0723 31.7894C37.0117 32.0037 37.0361 32.2335 37.1403 32.43C37.2445 32.6265 37.4202 32.7743 37.6303 32.842C37.8404 32.9097 38.0683 32.8921 38.2657 32.7928Z" fill="#0D72B9"/>
<path d="M22.7072 40.8413C22.8315 40.8913 22.9456 40.964 23.0438 41.0557C22.9274 41.1991 22.7815 41.3152 22.6163 41.3961C22.4754 41.4723 22.3585 41.5873 22.2794 41.7278C22.2003 41.8683 22.162 42.0286 22.169 42.1901C22.1761 42.3516 22.2281 42.5078 22.3192 42.6407C22.4102 42.7737 22.5366 42.8778 22.6837 42.9413L31.9269 46.9404C32.033 46.9869 32.1478 47.0101 32.2635 47.0085C32.403 47.0098 32.5407 46.9759 32.664 46.9098C33.62 46.3925 35.2795 46.2938 36.2186 46.6988C36.3352 46.7503 36.4619 46.7744 36.589 46.7691C36.7161 46.7637 36.8404 46.7292 36.9524 46.6681L44.2769 42.7064C44.3753 42.6532 44.4623 42.581 44.5331 42.4938C44.6038 42.4066 44.6569 42.3062 44.6892 42.1982C44.7216 42.0903 44.7326 41.977 44.7216 41.8647C44.7107 41.7525 44.6779 41.6436 44.6253 41.5441C44.5727 41.4447 44.5013 41.3567 44.415 41.2851C44.3288 41.2136 44.2295 41.16 44.1227 41.1273C44.016 41.0945 43.9039 41.0834 43.7929 41.0945C43.6819 41.1056 43.5742 41.1387 43.4758 41.1918L36.4879 44.963C35.0868 44.5783 33.6003 44.6618 32.25 45.2012L24.5518 41.8691C24.7037 41.5964 24.7793 41.2869 24.7706 40.974C24.7572 40.7058 24.6786 40.4452 24.5417 40.215L30.7689 36.8489C30.9667 36.7402 31.1136 36.5564 31.1774 36.3381C31.2411 36.1198 31.2165 35.8849 31.1089 35.6849C31.0013 35.485 30.8196 35.3364 30.6037 35.272C30.3878 35.2075 30.1555 35.2324 29.9577 35.3412L22.6433 39.2961C22.5022 39.372 22.3851 39.4868 22.3057 39.6271C22.2263 39.7674 22.1877 39.9275 22.1944 40.089C22.2011 40.2505 22.2528 40.4069 22.3435 40.5399C22.4342 40.673 22.5603 40.7775 22.7072 40.8413Z" fill="#0D72B9"/>
<path d="M34.5595 35.1206L35.953 35.7196C35.0038 36.5228 35.1755 37.3056 36.33 37.8025C37.7573 38.4118 39.5143 38.0748 41.2041 37.6154C42.7727 37.2001 43.3416 37.2988 43.7253 37.4622C44.3009 37.7072 44.1898 38.1429 43.4526 38.5445C42.7624 38.9021 42.0187 39.1425 41.2512 39.2559C41.1369 39.2665 41.0286 39.3129 40.9416 39.3886C40.9275 39.4001 40.9162 39.4146 40.9084 39.4311C40.9006 39.4476 40.8965 39.4656 40.8965 39.4839C40.8965 39.5022 40.9006 39.5202 40.9084 39.5367C40.9162 39.5532 40.9275 39.5677 40.9416 39.5792L41.5003 40.1204C41.5653 40.1689 41.6395 40.2034 41.7183 40.2215C41.7971 40.2397 41.8787 40.2412 41.9581 40.2259C42.805 40.0947 43.6298 39.845 44.4086 39.4839L45.4487 39.9298C45.6723 39.9973 45.9128 39.9766 46.1219 39.8719L46.9399 39.426C47.1115 39.3307 47.1048 39.198 46.9399 39.1231L45.819 38.6432C46.7547 37.8332 46.6033 36.9789 45.4049 36.4684C44.5836 36.128 43.2877 35.7877 40.5343 36.5262C38.8209 36.9721 38.343 36.9687 37.9256 36.7883C37.5082 36.6079 37.4005 36.2948 38.1847 35.8659C38.7759 35.5574 39.4106 35.3427 40.0664 35.2295C40.1719 35.2158 40.2707 35.1694 40.3491 35.0967C40.3619 35.0855 40.3722 35.0717 40.3793 35.0561C40.3863 35.0406 40.39 35.0237 40.39 35.0065C40.39 34.9894 40.3863 34.9725 40.3793 34.9569C40.3722 34.9414 40.3619 34.9275 40.3491 34.9163L39.8173 34.3718C39.7407 34.3222 39.655 34.2887 39.5654 34.2735C39.4757 34.2583 39.3839 34.2616 39.2955 34.2833C38.5999 34.4127 37.922 34.6253 37.2759 34.9163L35.9699 34.3548C35.871 34.3195 35.7661 34.3047 35.6615 34.3111C35.5569 34.3175 35.4545 34.3451 35.3606 34.3922L34.5561 34.8313C34.3676 34.9266 34.3845 35.0457 34.5595 35.1206Z" fill="#0D72B9"/>
<path d="M68.543 40.1072L33.536 59.0445L12.8145 50.0727C12.5748 49.9798 12.3087 49.9844 12.0722 50.0855C11.8358 50.1866 11.6472 50.3765 11.5462 50.6151C11.4451 50.8538 11.4395 51.1228 11.5303 51.3656C11.6212 51.6084 11.8016 51.8062 12.0336 51.9174L33.1859 61.0696C33.3225 61.1292 33.4707 61.1568 33.6193 61.1503C33.768 61.1438 33.9132 61.1034 34.0443 61.0321L69.4754 41.8668C69.5901 41.8049 69.6917 41.7207 69.7742 41.6192C69.8567 41.5176 69.9187 41.4006 69.9565 41.2748C69.9943 41.149 70.0073 41.0169 69.9946 40.886C69.982 40.7552 69.9439 40.6282 69.8827 40.5122C69.8215 40.3962 69.7383 40.2935 69.6378 40.2101C69.5373 40.1266 69.4216 40.064 69.2972 40.0257C69.1728 39.9875 69.0422 39.9744 68.9128 39.9872C68.7834 40 68.6577 40.0384 68.543 40.1003V40.1072Z" fill="#0D72B9"/>
<path d="M68.543 44.531L33.536 63.4683L12.8145 54.4965C12.5748 54.4036 12.3087 54.4082 12.0722 54.5093C11.8358 54.6105 11.6472 54.8003 11.5462 55.039C11.4451 55.2776 11.4395 55.5466 11.5303 55.7894C11.6212 56.0322 11.8016 56.23 12.0336 56.3413L33.1859 65.4934C33.3225 65.553 33.4707 65.5806 33.6193 65.5741C33.768 65.5677 33.9132 65.5273 34.0443 65.4559L69.4754 46.2906C69.5901 46.2287 69.6917 46.1446 69.7742 46.043C69.8567 45.9414 69.9187 45.8244 69.9565 45.6986C69.9943 45.5728 70.0073 45.4407 69.9946 45.3099C69.982 45.179 69.9439 45.052 69.8827 44.936C69.8215 44.82 69.7383 44.7174 69.6378 44.6339C69.5373 44.5504 69.4216 44.4878 69.2972 44.4495C69.1728 44.4113 69.0422 44.3982 68.9128 44.411C68.7834 44.4238 68.6577 44.4623 68.543 44.5242V44.531Z" fill="#0D72B9"/>
<path d="M68.5429 48.9563L33.5359 67.8936L12.8144 58.9218C12.5729 58.8171 12.3002 58.8137 12.0562 58.9123C11.8122 59.0109 11.617 59.2035 11.5134 59.4477C11.4099 59.6919 11.4065 59.9676 11.504 60.2143C11.6015 60.461 11.792 60.6585 12.0335 60.7632L33.1858 69.9187C33.3224 69.9783 33.4706 70.0059 33.6192 69.9994C33.7679 69.993 33.9131 69.9525 34.0442 69.8812L69.4753 50.7159C69.707 50.5909 69.88 50.3779 69.9564 50.1239C70.0328 49.8699 70.0063 49.5955 69.8826 49.3613C69.759 49.1271 69.5484 48.9521 69.2971 48.8748C69.0459 48.7976 68.7746 48.8244 68.5429 48.9495V48.9563Z" fill="#0D72B9"/>
<path d="M68.5433 35.6823L33.5362 54.6231L12.8147 45.6479C12.575 45.555 12.309 45.5596 12.0725 45.6607C11.836 45.7618 11.6475 45.9517 11.5464 46.1903C11.4454 46.429 11.4397 46.698 11.5306 46.9408C11.6215 47.1836 11.8018 47.3814 12.0338 47.4926L33.1861 56.6448C33.3227 56.7044 33.4709 56.732 33.6196 56.7255C33.7682 56.719 33.9135 56.6786 34.0445 56.6073L69.4757 37.442C69.7073 37.317 69.8804 37.104 69.9568 36.85C70.0331 36.5959 70.0066 36.3216 69.8829 36.0874C69.7593 35.8531 69.5487 35.6781 69.2975 35.6009C69.0462 35.5237 68.7749 35.5505 68.5433 35.6755V35.6823Z" fill="#0D72B9"/>
<path d="M8.46901 47.7958C8.73147 47.7958 8.98319 47.6903 9.16878 47.5027C9.35437 47.315 9.45863 47.0605 9.45863 46.7951C9.45863 46.5297 9.35437 46.2752 9.16878 46.0876C8.98319 45.8999 8.73147 45.7945 8.46901 45.7945C4.64516 45.7945 1.98261 44.1131 1.98261 42.602V41.4311C3.52427 42.5509 5.83675 43.2554 8.46901 43.2554C9.57126 43.2593 10.6699 43.1279 11.7408 42.864C11.8254 42.9494 11.9247 43.0186 12.0337 43.0682L33.186 52.2204C33.3226 52.28 33.4708 52.3076 33.6194 52.3011C33.7681 52.2946 33.9133 52.2542 34.0443 52.1829L69.4755 33.0176C69.6404 32.9288 69.777 32.7947 69.8697 32.6307C69.9623 32.4668 70.0072 32.2796 69.9991 32.091C69.991 31.9023 69.9302 31.7198 69.8239 31.5646C69.7175 31.4093 69.5699 31.2877 69.3981 31.2137L48.2458 22.0684C48.1096 22.0095 47.962 21.9824 47.8141 21.9888C47.6661 21.9953 47.5214 22.0353 47.3908 22.1058L38.9992 26.636V11.6195C38.9989 11.5309 38.9865 11.4427 38.9622 11.3575C38.7467 8.57336 35.108 6.41211 30.5033 6.41211C25.7537 6.41211 22.0342 8.7095 22.0342 11.6195V26.493C21.0599 26.28 20.0656 26.1739 19.0687 26.1765C14.3192 26.1765 10.5997 28.4568 10.5997 31.3703C10.603 31.9792 10.7644 32.5766 11.0676 33.1027C10.2107 32.9415 9.34066 32.8617 8.46901 32.8644C3.7195 32.8678 0 35.1482 0 38.065V56.1038C0 59.0172 3.7195 61.2976 8.46901 61.2976C8.72193 61.2827 8.95966 61.1706 9.13351 60.9843C9.30737 60.7979 9.40421 60.5514 9.40421 60.2953C9.40421 60.0391 9.30737 59.7926 9.13351 59.6063C8.95966 59.4199 8.72193 59.3078 8.46901 59.2929C4.64516 59.2929 1.98261 57.6116 1.98261 56.1038V55.0589C3.52427 56.1787 5.83675 56.8798 8.46901 56.8798C8.73147 56.8798 8.98319 56.7744 9.16878 56.5867C9.35437 56.3991 9.45863 56.1446 9.45863 55.8792C9.45863 55.6138 9.35437 55.3593 9.16878 55.1716C8.98319 54.984 8.73147 54.8785 8.46901 54.8785C4.64516 54.8785 1.98261 53.1972 1.98261 51.686V50.5152C3.52427 51.6384 5.83675 52.3395 8.46901 52.3395C8.72193 52.3246 8.95966 52.2125 9.13351 52.0262C9.30737 51.8398 9.40421 51.5933 9.40421 51.3372C9.40421 51.081 9.30737 50.8345 9.13351 50.6482C8.95966 50.4618 8.72193 50.3497 8.46901 50.3348C4.64516 50.3348 1.98261 48.6535 1.98261 47.1457V45.9749C3.52427 47.0946 5.83675 47.7958 8.46901 47.7958ZM37.0267 16.1871C37.0081 16.2617 36.998 16.3382 36.9964 16.4151C36.9964 17.9263 34.3338 19.6076 30.51 19.6076C26.6861 19.6076 24.0236 17.9263 24.0236 16.4151V14.9924C25.5652 16.1122 27.8777 16.8133 30.51 16.8133C33.1422 16.8133 35.4783 16.1054 37.0267 14.972V16.1871ZM30.5033 21.6089C33.1523 21.6089 35.4783 20.901 37.0199 19.7676V20.6559C37.0014 20.7305 36.9912 20.807 36.9897 20.884C36.9897 22.3951 34.3271 24.0765 30.5033 24.0765C26.6794 24.0765 24.0168 22.4088 24.0168 20.884V19.788C25.5585 20.9078 27.871 21.6089 30.5033 21.6089ZM30.5033 26.0778C33.1523 26.0778 35.4783 25.3698 37.0199 24.2365V25.1316C37.0012 25.205 36.991 25.2804 36.9897 25.3562C36.9897 26.8674 34.3271 28.5487 30.5033 28.5487C26.6794 28.5487 24.0168 26.8674 24.0168 25.3562V24.2569C25.5585 25.3766 27.871 26.0778 30.5033 26.0778ZM30.5033 30.5466C30.9779 30.5466 31.4424 30.5228 31.8934 30.482L27.0833 33.0823C27.3762 32.5636 27.5327 31.9777 27.5377 31.3805C27.5363 30.9722 27.4622 30.5676 27.319 30.1858C28.3627 30.432 29.4315 30.5531 30.5033 30.5466ZM47.9058 24.0799L66.7254 32.2246L33.5293 50.1919L14.7097 42.0472L47.9058 24.0799ZM16.8943 38.5926C16.9239 38.4172 16.9385 38.2396 16.938 38.0616C16.9347 37.4516 16.7734 36.8532 16.4701 36.3258C17.327 36.4884 18.197 36.5693 19.0687 36.5675C19.6617 36.568 20.2541 36.5316 20.8427 36.4586L16.8943 38.5926ZM30.5033 8.43041C34.3271 8.43041 36.9897 10.1118 36.9897 11.6195C36.9897 13.1273 34.3338 14.812 30.5033 14.812C26.6727 14.812 24.0168 13.1307 24.0168 11.6195C24.0168 10.1084 26.6794 8.43041 30.5033 8.43041ZM19.0586 28.1709C20.2258 28.1618 21.3873 28.3352 22.5021 28.6849C22.6213 28.7577 22.7544 28.8041 22.8926 28.821C24.5453 29.4507 25.545 30.4377 25.545 31.3601C25.545 32.8678 22.8825 34.5492 19.0586 34.5492C15.2348 34.5492 12.5722 32.8678 12.5722 31.3601C12.5722 29.8523 15.2449 28.1948 19.0687 28.1948L19.0586 28.1709ZM8.46901 34.8691C12.2929 34.8691 14.9554 36.5505 14.9554 38.0616C14.9554 39.5728 12.2929 41.2508 8.46901 41.2508C4.64516 41.2508 1.98261 39.5694 1.98261 38.065C1.98261 36.5607 4.64516 34.8691 8.46901 34.8691Z" fill="#0D72B9"/>
<path d="M15.8975 2.84138C16.0291 2.8441 16.16 2.82023 16.2824 2.77116C16.4048 2.72209 16.5163 2.64881 16.6103 2.55562C16.7044 2.46243 16.7791 2.3512 16.8301 2.22845C16.8811 2.10569 16.9073 1.97389 16.9073 1.84074V0.945612C16.8925 0.689872 16.7817 0.449503 16.5974 0.273711C16.4131 0.0979186 16.1693 0 15.916 0C15.6626 0 15.4189 0.0979186 15.2346 0.273711C15.0503 0.449503 14.9394 0.689872 14.9247 0.945612V1.84074C14.9246 2.10321 15.0266 2.35518 15.2086 2.54235C15.3905 2.72953 15.6379 2.83692 15.8975 2.84138Z" fill="#0D72B9"/>
<path d="M15.8976 8.97425C16.162 8.97431 16.4158 8.86954 16.6046 8.68245C16.7934 8.49536 16.9021 8.24086 16.9074 7.97361V7.0921C16.8927 6.83636 16.7818 6.59599 16.5975 6.42019C16.4132 6.2444 16.1695 6.14648 15.9161 6.14648C15.6628 6.14648 15.419 6.2444 15.2347 6.42019C15.0504 6.59599 14.9395 6.83636 14.9248 7.0921V7.98723C14.9283 8.24733 15.0318 8.49584 15.2134 8.68009C15.395 8.86435 15.6404 8.96985 15.8976 8.97425Z" fill="#0D72B9"/>
<path d="M12.4235 5.46221H13.3088C13.5617 5.4473 13.7994 5.3352 13.9733 5.14886C14.1471 4.96252 14.244 4.71604 14.244 4.45986C14.244 4.20369 14.1471 3.9572 13.9733 3.77086C13.7994 3.58453 13.5617 3.47243 13.3088 3.45752H12.4235C12.1706 3.47243 11.9328 3.58453 11.759 3.77086C11.5851 3.9572 11.4883 4.20369 11.4883 4.45986C11.4883 4.71604 11.5851 4.96252 11.759 5.14886C11.9328 5.3352 12.1706 5.4473 12.4235 5.46221Z" fill="#0D72B9"/>
<path d="M18.4898 5.46195H19.3717C19.5067 5.46991 19.6419 5.44989 19.769 5.40312C19.8962 5.35634 20.0125 5.2838 20.1109 5.18995C20.2093 5.09609 20.2877 4.98289 20.3412 4.85731C20.3948 4.73172 20.4224 4.59639 20.4224 4.45961C20.4224 4.32284 20.3948 4.1875 20.3412 4.06192C20.2877 3.93633 20.2093 3.82313 20.1109 3.72928C20.0125 3.63542 19.8962 3.56288 19.769 3.5161C19.6419 3.46933 19.5067 3.44931 19.3717 3.45727H18.4898C18.2368 3.47218 17.9991 3.58427 17.8253 3.77061C17.6514 3.95695 17.5546 4.20344 17.5546 4.45961C17.5546 4.71579 17.6514 4.96227 17.8253 5.14861C17.9991 5.33495 18.2368 5.44705 18.4898 5.46195Z" fill="#0D72B9"/>
<path d="M52.9274 11.2852C53.1899 11.2852 53.4416 11.1798 53.6272 10.9922C53.8128 10.8045 53.9171 10.55 53.9171 10.2846V9.38946C53.9023 9.13372 53.7915 8.89335 53.6072 8.71756C53.4229 8.54177 53.1791 8.44385 52.9258 8.44385C52.6724 8.44385 52.4286 8.54177 52.2443 8.71756C52.0601 8.89335 51.9492 9.13372 51.9344 9.38946V10.2846C51.9396 10.5489 52.046 10.8009 52.2312 10.9875C52.4164 11.1742 52.666 11.2809 52.9274 11.2852Z" fill="#0D72B9"/>
<path d="M52.9283 17.4192C53.1926 17.4138 53.4443 17.3039 53.6293 17.113C53.8143 16.9221 53.9179 16.6654 53.9179 16.3981V15.5234C53.9258 15.3869 53.906 15.2501 53.8597 15.1216C53.8134 14.9931 53.7417 14.8755 53.6489 14.776C53.556 14.6765 53.4441 14.5972 53.3199 14.5431C53.1957 14.4889 53.0619 14.4609 52.9266 14.4609C52.7913 14.4609 52.6575 14.4889 52.5333 14.5431C52.4091 14.5972 52.2971 14.6765 52.2043 14.776C52.1115 14.8755 52.0397 14.9931 51.9935 15.1216C51.9472 15.2501 51.9274 15.3869 51.9353 15.5234V16.4151C51.9396 16.6801 52.0456 16.9329 52.2309 17.1203C52.4162 17.3076 52.6663 17.4148 52.9283 17.4192Z" fill="#0D72B9"/>
<path d="M49.451 13.8997H50.3363C50.5988 13.8997 50.8505 13.7943 51.0361 13.6066C51.2217 13.419 51.3259 13.1645 51.3259 12.8991C51.3259 12.6337 51.2217 12.3792 51.0361 12.1915C50.8505 12.0039 50.5988 11.8984 50.3363 11.8984H49.451C49.1886 11.8984 48.9369 12.0039 48.7513 12.1915C48.5657 12.3792 48.4614 12.6337 48.4614 12.8991C48.4614 13.1645 48.5657 13.419 48.7513 13.6066C48.9369 13.7943 49.1886 13.8997 49.451 13.8997Z" fill="#0D72B9"/>
<path d="M55.5162 13.8997H56.4015C56.664 13.8997 56.9157 13.7943 57.1013 13.6066C57.2869 13.419 57.3911 13.1645 57.3911 12.8991C57.3911 12.6337 57.2869 12.3792 57.1013 12.1915C56.9157 12.0039 56.664 11.8984 56.4015 11.8984H55.5162C55.2538 11.8984 55.0021 12.0039 54.8165 12.1915C54.6309 12.3792 54.5266 12.6337 54.5266 12.8991C54.5266 13.1645 54.6309 13.419 54.8165 13.6066C55.0021 13.7943 55.2538 13.8997 55.5162 13.8997Z" fill="#0D72B9"/>
<path d="M4.99496 17.8505C5.25743 17.8505 5.50914 17.745 5.69473 17.5574C5.88032 17.3697 5.98459 17.1152 5.98459 16.8498V15.9411C5.98459 15.6757 5.88032 15.4212 5.69473 15.2335C5.50914 15.0459 5.25743 14.9404 4.99496 14.9404C4.7325 14.9404 4.48078 15.0459 4.29519 15.2335C4.1096 15.4212 4.00534 15.6757 4.00534 15.9411V16.8362C4.00356 16.9687 4.02784 17.1003 4.07677 17.2233C4.12571 17.3463 4.19832 17.4582 4.29039 17.5526C4.38246 17.6469 4.49216 17.7219 4.61311 17.773C4.73407 17.8241 4.86386 17.8505 4.99496 17.8505Z" fill="#0D72B9"/>
<path d="M4.99585 23.9809C5.25832 23.9809 5.51003 23.8755 5.69562 23.6878C5.88121 23.5002 5.98548 23.2456 5.98548 22.9803V22.0885C5.98548 21.9571 5.95988 21.827 5.91014 21.7056C5.86041 21.5842 5.78752 21.4739 5.69562 21.381C5.60373 21.2881 5.49463 21.2143 5.37457 21.1641C5.2545 21.1138 5.12581 21.0879 4.99585 21.0879C4.86589 21.0879 4.73721 21.1138 4.61714 21.1641C4.49707 21.2143 4.38798 21.2881 4.29609 21.381C4.20419 21.4739 4.1313 21.5842 4.08156 21.7056C4.03183 21.827 4.00623 21.9571 4.00623 22.0885V22.9803C4.00579 23.1118 4.03108 23.2421 4.08066 23.3637C4.13023 23.4853 4.20311 23.5958 4.29509 23.6888C4.38708 23.7818 4.49635 23.8555 4.61662 23.9056C4.73688 23.9558 4.86577 23.9814 4.99585 23.9809Z" fill="#0D72B9"/>
<path d="M1.52087 20.4681H2.40278C2.66524 20.4681 2.91696 20.3627 3.10255 20.175C3.28814 19.9873 3.3924 19.7328 3.3924 19.4674C3.3924 19.2021 3.28814 18.9475 3.10255 18.7599C2.91696 18.5722 2.66524 18.4668 2.40278 18.4668H1.52087C1.25841 18.4668 1.00669 18.5722 0.821104 18.7599C0.635513 18.9475 0.53125 19.2021 0.53125 19.4674C0.53125 19.7328 0.635513 19.9873 0.821104 20.175C1.00669 20.3627 1.25841 20.4681 1.52087 20.4681Z" fill="#0D72B9"/>
<path d="M7.5841 20.4681H8.46938C8.73184 20.4681 8.98356 20.3627 9.16915 20.175C9.35474 19.9873 9.459 19.7328 9.459 19.4674C9.459 19.2021 9.35474 18.9475 9.16915 18.7599C8.98356 18.5722 8.73184 18.4668 8.46938 18.4668H7.5841C7.32164 18.4668 7.06993 18.5722 6.88434 18.7599C6.69875 18.9475 6.59448 19.2021 6.59448 19.4674C6.59448 19.7328 6.69875 19.9873 6.88434 20.175C7.06993 20.3627 7.32164 20.4681 7.5841 20.4681Z" fill="#0D72B9"/>
<path d="M15.8976 17.1732C16.1489 17.1739 16.3947 17.0991 16.6039 16.9584C16.8131 16.8176 16.9763 16.6173 17.0727 16.3827C17.1692 16.1481 17.1946 15.8898 17.1457 15.6406C17.0969 15.3914 16.976 15.1624 16.7983 14.9828C16.6206 14.8031 16.3942 14.6808 16.1477 14.6314C15.9012 14.582 15.6458 14.6077 15.4138 14.7053C15.1818 14.8028 14.9836 14.9678 14.8444 15.1793C14.7052 15.3909 14.6313 15.6394 14.632 15.8935C14.6329 16.2326 14.7665 16.5576 15.0036 16.7974C15.2408 17.0372 15.5622 17.1723 15.8976 17.1732Z" fill="#0D72B9"/>
<path d="M62.299 22.163C62.998 22.163 63.5646 21.59 63.5646 20.8832C63.5646 20.1765 62.998 19.6035 62.299 19.6035C61.6 19.6035 61.0333 20.1765 61.0333 20.8832C61.0333 21.59 61.6 22.163 62.299 22.163Z" fill="#0D72B9"/>
</svg>
