<svg width="146" height="100" viewBox="0 0 146 100" fill="none" xmlns="http://www.w3.org/2000/svg">
<path d="M135.733 60.2187L144.092 49.7113L145.768 47.606H131.535V49.7113V62.5895L118.442 69.5412L114.23 71.7771H145.768L144.006 69.5412L135.733 60.2187Z" fill="url(#paint0_linear_32_765)"/>
<path d="M126.922 62.5889H114.23V69.3266V71.7765L131.535 62.5889H126.922Z" fill="#025189"/>
<path d="M0.231934 71.7771H31.7689L27.5584 69.5412L14.4637 62.5895V49.7113V47.606H0.231934L1.9062 49.7113L10.2664 60.2187L1.9925 69.5412L0.231934 71.7771Z" fill="url(#paint1_linear_32_765)"/>
<path d="M14.4639 62.5889L31.769 71.7765V69.3266V62.5889H19.0785H14.4639Z" fill="#025189"/>
<path d="M118.679 58.9432L116.566 59.8573C116.164 60.0309 115.805 60.3001 115.518 60.6439C115.231 60.9877 115.023 61.3967 114.911 61.8391C114.799 62.2814 114.785 62.7452 114.87 63.1942C114.956 63.6432 115.139 64.0653 115.404 64.4276L115.998 65.2399L116.8 66.3317C117.104 66.7463 117.299 67.2382 117.365 67.7575C117.43 68.2769 117.365 68.8053 117.175 69.2894C116.984 69.7735 116.676 70.1961 116.281 70.5144C115.887 70.8326 115.419 71.0354 114.926 71.1021L112.661 71.4072C112.23 71.4655 111.817 71.6279 111.456 71.8817C111.094 72.1356 110.793 72.4741 110.576 72.8708C110.358 73.2676 110.231 73.7118 110.203 74.169C110.176 74.6262 110.248 75.0839 110.416 75.5065L111.297 77.7274C111.489 78.2106 111.557 78.7387 111.493 79.2582C111.429 79.7777 111.236 80.2701 110.934 80.6858C110.631 81.1014 110.23 81.4254 109.771 81.625C109.311 81.8246 108.81 81.8928 108.317 81.8225L106.054 81.5014C105.624 81.4404 105.186 81.4848 104.775 81.6313C104.363 81.7778 103.989 82.0224 103.682 82.346C103.375 82.6696 103.143 83.0636 103.004 83.4972C102.865 83.9309 102.823 84.3925 102.88 84.8462L103.185 87.2319C103.252 87.751 103.187 88.2795 102.998 88.7638C102.808 89.2481 102.501 89.6711 102.107 89.9899C101.712 90.3088 101.245 90.5122 100.752 90.5795C100.26 90.6468 99.7586 90.5757 99.3003 90.3733L97.1945 89.4443C96.7936 89.2676 96.3594 89.1908 95.9257 89.2199C95.492 89.2491 95.0706 89.3835 94.6943 89.6125C94.3179 89.8415 93.9968 90.159 93.756 90.5403C93.5152 90.9216 93.3611 91.3564 93.3058 91.8108L93.0164 94.1987C92.9531 94.7184 92.7608 95.2113 92.4589 95.6275C92.1569 96.0436 91.7561 96.3684 91.2969 96.5689C90.8377 96.7694 90.3364 96.8385 89.8437 96.7693C89.351 96.7 88.8845 96.4949 88.4911 96.1745L86.6849 94.7028C86.3412 94.4226 85.9408 94.2299 85.5149 94.1397C85.089 94.0495 84.649 94.0643 84.2294 94.1828C83.8098 94.3013 83.4218 94.5204 83.0957 94.823C82.7696 95.1256 82.5142 95.5035 82.3494 95.9273L81.4824 98.1546C81.2938 98.6392 80.9871 99.0626 80.5935 99.3822C80.1999 99.7018 79.7331 99.9061 79.2406 99.9745C78.748 100.043 78.247 99.973 77.7883 99.7719C77.3295 99.5707 76.9293 99.2454 76.6281 98.8289L75.2432 96.913C74.9799 96.5488 74.6404 96.2535 74.2511 96.0502C73.8618 95.847 73.4332 95.7412 72.9988 95.7412C72.5644 95.7412 72.1358 95.847 71.7465 96.0502C71.3572 96.2535 71.0177 96.5488 70.7544 96.913L69.3746 98.8289C69.0734 99.2454 68.6732 99.5707 68.2145 99.7719C67.7557 99.973 67.2547 100.043 66.7621 99.9745C66.2696 99.9061 65.8029 99.7018 65.4092 99.3822C65.0156 99.0626 64.709 98.6392 64.5204 98.1546L63.6533 95.9273C63.4886 95.5028 63.233 95.1242 62.9065 94.8211C62.58 94.518 62.1914 94.2986 61.7711 94.1801C61.3509 94.0615 60.9103 94.047 60.4838 94.1377C60.0574 94.2284 59.6566 94.4218 59.3128 94.7028L57.5065 96.1745C57.1133 96.4949 56.6467 96.7001 56.1541 96.7694C55.6615 96.8387 55.1602 96.7696 54.7011 96.5691C54.2419 96.3686 53.8412 96.0437 53.5393 95.6275C53.2375 95.2113 53.0453 94.7184 52.9822 94.1987L52.6918 91.8108C52.6367 91.3565 52.4828 90.9217 52.242 90.5404C52.0013 90.1591 51.6803 89.8415 51.304 89.6125C50.9277 89.3834 50.5064 89.2491 50.0728 89.2199C49.6392 89.1907 49.205 89.2675 48.8042 89.4443L46.6974 90.3733C46.239 90.5757 45.7381 90.6468 45.2453 90.5795C44.7525 90.5122 44.2853 90.3088 43.8911 89.9899C43.4968 89.6711 43.1894 89.2481 43.0001 88.7638C42.8107 88.2795 42.7461 87.751 42.8127 87.2319L43.1173 84.8462C43.1755 84.3922 43.1334 83.9303 42.9944 83.4962C42.8554 83.0622 42.6233 82.6679 42.316 82.344C42.0087 82.0201 41.6347 81.7754 41.223 81.6288C40.8113 81.4823 40.373 81.438 39.9424 81.4993L37.6793 81.8204C37.1872 81.89 36.6865 81.8215 36.2276 81.6218C35.7688 81.4221 35.368 81.0983 35.0659 80.683C34.7638 80.2678 34.571 79.7758 34.507 79.2569C34.4429 78.7379 34.51 78.2103 34.7013 77.7274L35.5816 75.5065C35.7493 75.084 35.8221 74.6263 35.7945 74.1692C35.7669 73.7121 35.6395 73.2679 35.4224 72.8712C35.2053 72.4745 34.9042 72.136 34.5426 71.8821C34.181 71.6281 33.7687 71.4656 33.3377 71.4072L31.0726 71.1021C30.5796 71.0354 30.112 70.8326 29.7172 70.5144C29.3224 70.1961 29.0143 69.7735 28.8241 69.2894C28.6339 68.8053 28.5684 68.2769 28.6341 67.7575C28.6998 67.2382 28.8944 66.7463 29.1983 66.3317L29.9994 65.2399L30.5943 64.4276C30.8599 64.0652 31.0425 63.6431 31.128 63.1942C31.2135 62.7452 31.1994 62.2815 31.087 61.8392C30.9746 61.3969 30.7669 60.988 30.4799 60.6442C30.193 60.3004 29.8347 60.0311 29.4328 59.8573L27.3199 58.9432C26.86 58.7447 26.4581 58.4215 26.1547 58.0066C25.8514 57.5916 25.6575 57.0995 25.5925 56.5801C25.5276 56.0607 25.594 55.5325 25.785 55.0488C25.976 54.5652 26.2849 54.1433 26.6803 53.826L28.4967 52.366C28.8424 52.0886 29.1227 51.7308 29.3156 51.3204C29.5085 50.91 29.6089 50.4581 29.6089 50.0001C29.6089 49.5421 29.5085 49.0902 29.3156 48.6798C29.1227 48.2694 28.8424 47.9115 28.4967 47.6341L26.6803 46.1753C26.2849 45.8579 25.976 45.4361 25.785 44.9524C25.594 44.4688 25.5276 43.9405 25.5925 43.4211C25.6575 42.9017 25.8514 42.4097 26.1547 41.9947C26.4581 41.5797 26.86 41.2566 27.3199 41.058L29.4328 40.144C29.6945 40.0306 29.9388 39.8769 30.1578 39.688C30.7231 39.196 31.0847 38.4915 31.1662 37.7235C31.2477 36.9555 31.0426 36.1841 30.5943 35.5726L29.1983 33.6685C28.8947 33.2539 28.7002 32.7621 28.6347 32.2429C28.5691 31.7237 28.6348 31.1954 28.8249 30.7115C29.0151 30.2276 29.3231 29.8052 29.7177 29.487C30.1124 29.1687 30.5797 28.966 31.0726 28.8991L33.3377 28.593C33.7686 28.5347 34.1809 28.3724 34.5425 28.1185C34.9041 27.8647 35.2052 27.5263 35.4224 27.1297C35.6396 26.733 35.7669 26.2889 35.7945 25.8318C35.8222 25.3748 35.7493 24.9172 35.5816 24.4947L34.7013 22.2738C34.5094 21.7906 34.4419 21.2626 34.5058 20.7431C34.5696 20.2236 34.7626 19.7311 35.065 19.3155C35.3675 18.8999 35.7687 18.5758 36.2281 18.3762C36.6876 18.1766 37.1889 18.1085 37.6813 18.1787L39.9445 18.4998C40.375 18.5609 40.8132 18.5164 41.2248 18.3698C41.6364 18.2232 42.0104 17.9785 42.3176 17.6546C42.6248 17.3308 42.857 16.9365 42.996 16.5026C43.1351 16.0687 43.1773 15.6068 43.1194 15.1529L42.8148 12.7672C42.7497 12.2489 42.8155 11.7217 43.0053 11.2388C43.1952 10.7559 43.5025 10.3342 43.8962 10.0164C44.29 9.69861 44.7562 9.49585 45.248 9.42858C45.7398 9.3613 46.2397 9.43191 46.6974 9.63326L48.8042 10.5612C49.2049 10.738 49.639 10.8148 50.0725 10.7857C50.5061 10.7566 50.9274 10.6223 51.3037 10.3934C51.6799 10.1645 52.0009 9.84706 52.2417 9.46588C52.4825 9.08469 52.6366 8.65005 52.6918 8.19581L52.9822 5.80791C53.0453 5.28823 53.2375 4.79534 53.5393 4.3791C53.8412 3.96286 54.2419 3.63805 54.7011 3.43753C55.1602 3.23701 55.6615 3.1679 56.1541 3.23718C56.6467 3.30647 57.1133 3.51169 57.5065 3.83209L59.3128 5.29844C59.6565 5.57861 60.057 5.77131 60.483 5.86151C60.909 5.95172 61.349 5.93699 61.7687 5.81848C62.1884 5.69997 62.5765 5.48088 62.9027 5.17829C63.2288 4.87569 63.4843 4.49777 63.6492 4.07398L64.5163 1.84663C64.7048 1.36126 65.0118 0.937098 65.4061 0.61718C65.8003 0.297262 66.2679 0.0929748 66.7612 0.0250449C67.2545 -0.0428849 67.7562 0.0279604 68.2151 0.230393C68.6741 0.432825 69.0742 0.759641 69.3746 1.17768L70.7585 3.09249C71.0217 3.45696 71.3611 3.7524 71.7505 3.95578C72.1398 4.15917 72.5684 4.26498 73.0029 4.26498C73.4374 4.26498 73.866 4.15917 74.2553 3.95578C74.6446 3.7524 74.9841 3.45696 75.2473 3.09249L76.6281 1.17768C76.9291 0.760865 77.3293 0.435299 77.7881 0.23394C78.2469 0.0325818 78.748 -0.0374202 79.2407 0.0310209C79.7334 0.099462 80.2002 0.303917 80.5938 0.623686C80.9875 0.943456 81.294 1.36719 81.4824 1.85199L82.3494 4.07934C82.5144 4.50295 82.7698 4.88071 83.0959 5.18318C83.422 5.48565 83.81 5.70466 84.2296 5.82316C84.6491 5.94166 85.089 5.95644 85.5149 5.86636C85.9407 5.77627 86.3411 5.58375 86.6849 5.30379L88.4911 3.83209C88.8845 3.51175 89.351 3.30658 89.8437 3.23733C90.3364 3.16808 90.8377 3.23719 91.2969 3.43769C91.7561 3.63819 92.1569 3.96295 92.4589 4.37915C92.7608 4.79535 92.9531 5.28822 93.0164 5.80791L93.3058 8.19581C93.3619 8.64962 93.5166 9.08366 93.7578 9.46418C93.999 9.8447 94.3202 10.1614 94.6964 10.3898C95.0726 10.6181 95.4938 10.7519 95.927 10.7807C96.3603 10.8095 96.794 10.7326 97.1945 10.5559L99.3013 9.63326C99.7591 9.43151 100.259 9.36068 100.752 9.42792C101.244 9.49515 101.71 9.69807 102.104 10.0162C102.498 10.3343 102.806 10.7564 102.995 11.2398C103.185 11.7232 103.25 12.2508 103.185 12.7693L102.88 15.1551C102.822 15.609 102.864 16.071 103.003 16.505C103.142 16.939 103.374 17.3333 103.682 17.6572C103.989 17.9811 104.363 18.2259 104.775 18.3724C105.186 18.5189 105.625 18.5633 106.055 18.502L108.318 18.1809C108.811 18.1106 109.312 18.1787 109.772 18.3784C110.231 18.578 110.632 18.902 110.935 19.3176C111.237 19.7332 111.43 20.2257 111.494 20.7452C111.558 21.2647 111.49 21.7928 111.298 22.276L110.417 24.4969C110.249 24.9194 110.177 25.3771 110.204 25.8342C110.232 26.2913 110.359 26.7355 110.577 27.1322C110.794 27.5288 111.095 27.8672 111.457 28.121C111.819 28.3748 112.231 28.537 112.662 28.5952L114.927 28.9013C115.42 28.9681 115.887 29.1709 116.282 29.4891C116.677 29.8073 116.985 30.2297 117.175 30.7137C117.365 31.1976 117.431 31.7258 117.365 32.245C117.299 32.7643 117.105 33.256 116.801 33.6707L115.405 35.5748C115.139 35.9369 114.956 36.3591 114.87 36.8083C114.784 37.2575 114.798 37.7216 114.91 38.1643C115.023 38.6069 115.231 39.0162 115.518 39.36C115.805 39.7038 116.164 39.9728 116.567 40.1461L118.68 41.0602C119.139 41.259 119.541 41.5822 119.844 41.9972C120.147 42.4122 120.341 42.9042 120.406 43.4234C120.471 43.9427 120.405 44.4708 120.214 44.9544C120.023 45.438 119.715 45.8599 119.319 46.1774L117.501 47.6299C117.155 47.9074 116.875 48.2653 116.683 48.6757C116.49 49.0861 116.389 49.5378 116.389 49.9958C116.389 50.4538 116.49 50.9055 116.683 51.3159C116.875 51.7263 117.155 52.0842 117.501 52.3618L119.318 53.8217C119.715 54.139 120.024 54.5611 120.215 55.0452C120.407 55.5293 120.474 56.0582 120.409 56.5782C120.344 57.0981 120.149 57.5908 119.846 58.0061C119.542 58.4215 119.139 58.7448 118.679 58.9432Z" fill="#0D72B9"/>
<path d="M113.199 50.0001C113.206 55.2104 112.298 60.3771 110.522 65.2394C104.716 81.1145 90.1058 92.3775 72.9996 92.3775C55.8934 92.3775 41.2829 81.1145 35.4773 65.2394C32.5104 57.0835 31.9943 48.1631 33.999 39.6875C38.3649 21.2672 54.1714 7.62158 72.9996 7.62158C91.8277 7.62158 107.632 21.2672 112 39.6875C112.799 43.0602 113.202 46.5238 113.199 50.0001Z" fill="#F0F9FF"/>
<path d="M100.419 21.0963C95.5877 16.0095 89.5683 12.3569 82.9691 10.5076C76.3698 8.65828 69.4244 8.67767 62.8346 10.5638C56.2447 12.45 50.2438 16.1361 45.4379 21.2498C40.632 26.3635 37.1915 32.7237 35.4639 39.6878H36.1878C38.3505 31.1367 43.1318 23.578 49.7888 18.1862C56.4459 12.7944 64.6059 9.8714 73.0009 9.8714C81.3959 9.8714 89.5559 12.7944 96.213 18.1862C102.87 23.578 107.651 31.1367 109.814 39.6878H110.539C108.804 32.6478 105.31 26.2273 100.419 21.0963ZM99.9237 78.3823C95.484 83.0516 90.02 86.494 84.0162 88.4045C78.0123 90.315 71.6541 90.6344 65.5051 89.3346C59.3561 88.0347 53.6064 85.1556 48.7655 80.9527C43.9246 76.7497 40.1421 71.3526 37.7534 65.2398H36.998C39.8925 72.807 44.8667 79.2894 51.2819 83.8544C57.6971 88.4193 65.2604 90.8584 73.0004 90.8584C80.7404 90.8584 88.3036 88.4193 94.7188 83.8544C101.134 79.2894 106.108 72.807 109.003 65.2398H108.246C106.326 70.1591 103.497 74.6267 99.9237 78.3823Z" fill="#0D72B9"/>
<path d="M47.412 29.0261L47.9603 28.2126L49.7107 29.5238C49.7554 30.2837 49.4894 31.0993 49.0477 31.7543C48.0801 33.1896 46.419 33.5386 45.1072 32.556C43.7954 31.5734 43.5619 29.8053 44.5387 28.3571C45.0595 27.5833 45.7418 27.1177 46.5064 27.0342L46.6434 27.9525C46.3695 27.9949 46.107 28.0968 45.8725 28.2517C45.6379 28.4067 45.4364 28.6113 45.2809 28.8527C44.6158 29.8384 44.7813 31.0083 45.6921 31.6901C46.5825 32.3569 47.7034 32.1514 48.3634 31.1721C48.5945 30.844 48.7383 30.4567 48.7797 30.0504L47.412 29.0261Z" fill="#0D72B9"/>
<path d="M48.918 27.08C47.8356 25.847 47.9392 24.0542 49.1647 22.8576C50.3902 21.661 52.0888 21.6802 53.1762 22.9218C54.2636 24.1634 54.156 25.9476 52.9305 27.1442C51.705 28.3409 50.0013 28.3077 48.918 27.08ZM52.4371 23.6443C51.6888 22.788 50.5567 22.7591 49.7607 23.5372C48.9647 24.3154 48.9098 25.5066 49.6591 26.3586C50.4084 27.2106 51.5385 27.2438 52.3355 26.4657C53.1326 25.6875 53.1843 24.492 52.4371 23.64V23.6443Z" fill="#0D72B9"/>
<path d="M54.1284 22.1674C53.3162 20.7203 53.7842 18.9917 55.2229 18.1001C56.6617 17.2085 58.3177 17.611 59.1299 19.0634C59.9422 20.5159 59.4751 22.2391 58.0354 23.1307C56.5957 24.0222 54.9376 23.6155 54.1284 22.1674ZM58.2618 19.5986C57.7024 18.5978 56.6038 18.3142 55.6687 18.8911C54.7336 19.468 54.4391 20.624 54.9975 21.6236C55.556 22.6233 56.6556 22.908 57.5907 22.3311C58.5258 21.7542 58.8202 20.6026 58.2618 19.6029V19.5986Z" fill="#0D72B9"/>
<path d="M59.749 15.7255L61.9827 14.9528C63.6428 14.3791 65.113 15.0662 65.6166 16.6856C66.1202 18.305 65.3221 19.7767 63.6611 20.3504L61.4274 21.1232L59.749 15.7255ZM63.3575 19.5166C64.5018 19.1228 65.0094 18.1348 64.6622 17.0185C64.3149 15.9021 63.3423 15.4237 62.2071 15.8176L60.9634 16.2457L62.1137 19.9469L63.3575 19.5166Z" fill="#0D72B9"/>
<path d="M75.4515 19.2661C75.2843 19.4865 75.0724 19.6645 74.8313 19.7872C74.5902 19.9098 74.3261 19.9738 74.0585 19.9746C73.3274 19.9939 72.7741 19.7071 71.9608 18.8508C70.45 18.7513 69.3372 17.5867 69.3017 16.0123C69.2631 14.333 70.4663 13.0603 72.1354 13.0154C73.8046 12.9704 75.0657 14.1745 75.1043 15.8624C75.1288 16.4995 74.9497 17.1267 74.5957 17.6436C74.2416 18.1604 73.7331 18.537 73.1518 18.7127C73.4676 19.0531 73.7478 19.1762 74.0656 19.1676C74.2416 19.1624 74.4144 19.117 74.5721 19.0346C74.7299 18.9522 74.8688 18.8347 74.9794 18.6902L75.4515 19.2661ZM72.2481 17.9357C73.3335 17.9078 74.1224 17.0526 74.096 15.8924C74.0696 14.7322 73.2422 13.9166 72.1568 13.9444C71.0714 13.9723 70.2825 14.8285 70.3099 15.9877C70.3373 17.1468 71.1628 17.9635 72.2481 17.9357Z" fill="#0D72B9"/>
<path d="M76.5623 16.4098L77.1177 13.2588L78.1016 13.4514L77.5533 16.5629C77.3502 17.7113 77.7563 18.3022 78.6102 18.4702C79.4641 18.6382 80.0317 18.2379 80.2348 17.0895L80.783 13.978L81.7516 14.1675L81.1963 17.3185C80.914 18.9454 79.8875 19.6615 78.4427 19.3736C76.9979 19.0856 76.279 18.0367 76.5623 16.4098Z" fill="#0D72B9"/>
<path d="M85.6798 20.2827L83.178 19.2305L82.2226 20.2431L81.2642 19.8406L85.5194 15.5122L86.4332 15.8975L86.6941 22.1236L85.7224 21.7148L85.6798 20.2827ZM85.6636 19.3846L85.5935 16.6821L83.7832 18.5937L85.6636 19.3846Z" fill="#0D72B9"/>
<path d="M90.1019 17.7422L90.9517 18.2988L88.5556 22.366L90.9497 23.933L90.5029 24.6907L87.2539 22.5672L90.1019 17.7422Z" fill="#0D72B9"/>
<path d="M94.5656 20.915L95.3454 21.5776L91.9634 26.0002L91.1836 25.3376L94.5656 20.915Z" fill="#0D72B9"/>
<path d="M97.1953 24.5615L95.9525 23.2097L96.5617 22.5889L99.7438 26.0503L99.1346 26.6711L97.8918 25.3193L94.6306 28.6512L93.9341 27.8934L97.1953 24.5615Z" fill="#0D72B9"/>
<path d="M99.1864 31.4764L97.6258 32.6217L97.0542 31.7558L98.6016 30.6201L100.267 26.6792L100.876 27.605L99.623 30.5506L102.687 30.3483L103.251 31.2045L99.1864 31.4764Z" fill="#0D72B9"/>
<path d="M48.3066 70.4591L48.8579 71.2704L47.1116 72.588C46.4151 72.3857 45.7703 71.8537 45.3266 71.1966C44.354 69.7645 44.5824 67.9952 45.8902 67.0084C47.1979 66.0215 48.861 66.3662 49.8418 67.8079C50.3667 68.5796 50.5617 69.4134 50.388 70.2012L49.5199 70.0374C49.5696 69.7518 49.5629 69.4585 49.5002 69.1759C49.4375 68.8932 49.3201 68.6271 49.1554 68.3944C48.4873 67.4119 47.3847 67.1957 46.477 67.8807C45.5886 68.5518 45.4079 69.7366 46.0709 70.7128C46.2898 71.0499 46.5902 71.3193 46.941 71.493L48.3066 70.4591Z" fill="#0D72B9"/>
<path d="M49.5999 72.3338C50.6782 71.0976 52.3819 71.0622 53.6115 72.2535C54.841 73.4448 54.9568 75.2312 53.8724 76.4738C52.788 77.7164 51.0904 77.7464 49.8609 76.5551C48.6313 75.3639 48.5216 73.57 49.5999 72.3338ZM53.1302 75.7588C53.8754 74.9026 53.8166 73.7134 53.0175 72.9385C52.2184 72.1636 51.0884 72.2032 50.3421 73.0573C49.5959 73.9114 49.6558 75.1038 50.4548 75.8776C51.2539 76.6515 52.386 76.6097 53.1322 75.7545L53.1302 75.7588Z" fill="#0D72B9"/>
<path d="M54.6751 77.1025C55.4782 75.6512 57.1352 75.2337 58.578 76.121C60.0208 77.0083 60.4939 78.7284 59.6878 80.1883C58.8816 81.6482 57.2276 82.056 55.7849 81.1687C54.3421 80.2814 53.872 78.5528 54.6751 77.1025ZM58.8156 79.6499C59.37 78.6481 59.0715 77.4964 58.1343 76.9195C57.1972 76.3426 56.1037 76.6359 55.5442 77.6377C54.9848 78.6395 55.2884 79.7912 56.2255 80.3681C57.1626 80.945 58.2622 80.6517 58.8156 79.6499Z" fill="#0D72B9"/>
<path d="M61.8016 78.0352L64.0424 78.7994C65.7055 79.3666 66.5087 80.833 66.0101 82.4567C65.5116 84.0804 64.0455 84.7697 62.3834 84.2034L60.1426 83.4392L61.8016 78.0352ZM62.5997 83.3397C63.7419 83.7293 64.7075 83.2487 65.0506 82.1292C65.3938 81.0096 64.8801 80.0238 63.7378 79.6342L62.493 79.2061L61.3539 82.9148L62.5997 83.3397Z" fill="#0D72B9"/>
<path d="M75.4463 86.6059C75.2697 86.8179 75.0504 86.9856 74.8045 87.0967C74.5586 87.2078 74.2922 87.2595 74.0248 87.2481C73.2938 87.2321 72.7536 86.9206 71.9779 86.0269C70.4712 85.8567 69.4091 84.6355 69.4396 83.0674C69.4721 81.3881 70.7281 80.1776 72.3983 80.2086C74.0685 80.2396 75.2757 81.5048 75.2412 83.1916C75.2388 83.8289 75.0336 84.4469 74.6584 84.9466C74.2832 85.4463 73.7598 85.7988 73.1719 85.9477C73.4765 86.303 73.7476 86.439 74.0634 86.4454C74.2393 86.4482 74.4137 86.4108 74.5746 86.3358C74.7355 86.2608 74.8791 86.1499 74.9955 86.0108L75.4463 86.6059ZM72.2988 85.1267C73.3841 85.1492 74.2086 84.3315 74.2279 83.1713C74.2472 82.011 73.4583 81.158 72.3729 81.1376C71.2875 81.1173 70.4631 81.9329 70.4438 83.0931C70.4245 84.2534 71.2174 85.1032 72.3028 85.1267H72.2988Z" fill="#0D72B9"/>
<path d="M76.6486 83.3791L76.082 80.2292L77.0649 80.0333L77.6243 83.1372C77.8274 84.2846 78.4112 84.6806 79.2661 84.5094C80.121 84.3381 80.516 83.7473 80.3088 82.5999L79.7494 79.496L80.717 79.3022L81.2845 82.4512C81.577 84.078 80.8673 85.1366 79.4224 85.4256C77.9776 85.7146 76.941 85.0049 76.6486 83.3791Z" fill="#0D72B9"/>
<path d="M86.5401 81.631L84.0414 82.6939L84.016 84.1281L83.0596 84.5348L83.2911 78.3109L84.2049 77.9224L88.4773 82.2294L87.5067 82.6425L86.5401 81.631ZM85.939 80.9942L84.1114 79.0922L84.0576 81.7927L85.939 80.9942Z" fill="#0D72B9"/>
<path d="M86.8896 76.5837L87.7374 76.0239L90.1488 80.0826L92.5369 78.506L92.9867 79.2627L89.7498 81.4034L86.8896 76.5837Z" fill="#0D72B9"/>
<path d="M90.7153 73.8659L91.4921 73.2002L94.8903 77.6089L94.1136 78.2735L90.7153 73.8659Z" fill="#0D72B9"/>
<path d="M93.9821 71.9961L92.7444 73.3533L92.1353 72.7346L95.3041 69.2593L95.9133 69.8779L94.6756 71.2362L97.95 74.5542L97.2565 75.3152L93.9821 71.9961Z" fill="#0D72B9"/>
<path d="M99.8275 68.8395L101.392 69.9783L100.824 70.8463L99.2722 69.7161L95.1875 69.4549L95.7967 68.5269L98.8528 68.7303L97.6019 65.7762L98.1624 64.9199L99.8275 68.8395Z" fill="#0D72B9"/>
<path d="M91.4088 30.5956C88.3671 27.3966 84.6223 25.0401 80.5077 23.7359C76.3932 22.4316 72.0365 22.2201 67.8256 23.12C63.6148 24.02 59.6803 26.0036 56.3725 28.8942C53.0648 31.7849 50.4863 35.4928 48.8667 39.688H49.6251C51.5603 34.8355 54.8111 30.6931 58.9703 27.7802C63.1294 24.8672 68.0116 23.3134 73.005 23.3134C77.9984 23.3134 82.8806 24.8672 87.0398 27.7802C91.1989 30.6931 94.4498 34.8355 96.3849 39.688H97.1423C95.8288 36.2826 93.879 33.1904 91.4088 30.5956ZM90.9123 68.8812C88.5602 71.3607 85.7679 73.3276 82.6948 74.6695C79.6216 76.0115 76.3278 76.7022 73.0015 76.7022C69.6751 76.7022 66.3813 76.0115 63.3082 74.6695C60.235 73.3276 57.4427 71.3607 55.0906 68.8812C54.0257 67.76 53.0564 66.5423 52.1939 65.242H51.3441C52.2967 66.7379 53.3848 68.1326 54.5931 69.4067C59.4752 74.5528 66.0964 77.4438 73.0004 77.4438C79.9044 77.4438 86.5257 74.5528 91.4077 69.4067C92.6167 68.1332 93.7048 66.7383 94.6568 65.242H93.808C92.9458 66.5425 91.9764 67.7603 90.9113 68.8812H90.9123Z" fill="#0D72B9"/>
<path d="M118.68 58.9427L116.567 59.8567C116.165 60.0304 115.807 60.2996 115.52 60.6434C115.233 60.9871 115.025 61.3962 114.912 61.8385C114.8 62.2809 114.786 62.7447 114.871 63.1937C114.957 63.6427 115.14 64.0648 115.406 64.427L116 65.2394H110.523C113.488 57.0832 114.005 48.1632 112.001 39.6875H115.842C116.061 39.8767 116.305 40.0304 116.567 40.1435L118.68 41.0575C119.14 41.2563 119.541 41.5796 119.845 41.9945C120.148 42.4095 120.342 42.9015 120.406 43.4208C120.471 43.94 120.405 44.4681 120.214 44.9517C120.023 45.4353 119.715 45.8572 119.32 46.1748L117.502 47.6293C117.157 47.9069 116.877 48.2648 116.684 48.6752C116.491 49.0855 116.391 49.5373 116.391 49.9953C116.391 50.4532 116.491 50.905 116.684 51.3154C116.877 51.7258 117.157 52.0837 117.502 52.3612L119.32 53.8212C119.716 54.1385 120.025 54.5606 120.217 55.0447C120.408 55.5288 120.475 56.0576 120.41 56.5776C120.345 57.0976 120.151 57.5903 119.847 58.0056C119.543 58.421 119.141 58.7442 118.68 58.9427Z" fill="#025189"/>
<path d="M37.7533 65.2394H36.9979C33.9287 57.1092 33.3915 48.1608 35.4637 39.6875H36.1877C34.0757 48.1594 34.6254 57.1246 37.7543 65.2394H37.7533Z" fill="#025189"/>
<path d="M30.5943 64.427C30.8599 64.0647 31.0425 63.6426 31.128 63.1936C31.2135 62.7447 31.1994 62.281 31.087 61.8387C30.9746 61.3964 30.7669 60.9874 30.4799 60.6437C30.193 60.2999 29.8347 60.0306 29.4328 59.8567L27.3199 58.9427C26.86 58.7441 26.4581 58.421 26.1547 58.006C25.8514 57.5911 25.6575 57.099 25.5925 56.5796C25.5276 56.0602 25.594 55.5319 25.785 55.0483C25.976 54.5647 26.2849 54.1428 26.6803 53.8254L28.4967 52.3655C28.8424 52.0881 29.1227 51.7302 29.3156 51.3198C29.5085 50.9094 29.6089 50.4576 29.6089 49.9996C29.6089 49.5415 29.5085 49.0897 29.3156 48.6793C29.1227 48.2689 28.8424 47.911 28.4967 47.6336L26.6803 46.1748C26.2849 45.8574 25.976 45.4355 25.785 44.9519C25.594 44.4683 25.5276 43.94 25.5925 43.4206C25.6575 42.9012 25.8514 42.4091 26.1547 41.9942C26.4581 41.5792 26.86 41.2561 27.3199 41.0575L29.4328 40.1435C29.6945 40.0301 29.9388 39.8764 30.1578 39.6875H33.9987C31.994 48.1631 32.5101 57.0835 35.477 65.2394H29.9994L30.5943 64.427Z" fill="#025189"/>
<path d="M36.9984 65.2394H35.4754C32.5095 57.0832 31.9945 48.1627 34.0002 39.6875H35.4643C33.3923 48.1609 33.9299 57.1093 36.9994 65.2394H36.9984Z" fill="#D1D3D4"/>
<path d="M111.776 50.0001C111.785 55.2201 110.843 60.3934 109.003 65.2394H108.246C111.375 57.1246 111.925 48.1594 109.813 39.6875H110.538C111.363 43.0559 111.779 46.5212 111.776 50.0001Z" fill="#025189"/>
<path d="M99.0319 50.0001C99.0454 55.4256 97.5224 60.7319 94.6579 65.2394H93.8091C96.2337 61.5483 97.74 57.2744 98.1899 52.8099C98.6398 48.3453 98.0188 43.8332 96.3839 39.6875H97.1414C98.3969 42.9642 99.0389 46.4662 99.0319 50.0001Z" fill="#025189"/>
<path d="M52.1916 65.2394H51.3417C48.9916 61.5125 47.538 57.2383 47.1066 52.7862C46.6751 48.3342 47.2787 43.8384 48.8654 39.6875H49.6238C47.9885 43.8329 47.367 48.3449 47.8163 52.8094C48.2657 57.274 49.7715 61.548 52.1956 65.2394H52.1916Z" fill="#025189"/>
<path d="M46.9686 50.0001C46.9548 55.4255 48.4775 60.7318 51.3416 65.2394H37.7525C34.6236 57.1246 34.0739 48.1594 36.1859 39.6875H48.8653C47.608 42.9639 46.964 46.4658 46.9686 50.0001Z" fill="#D1D3D4"/>
<path d="M98.3294 50.0001C98.3437 55.449 96.765 60.7701 93.8082 65.2394H52.1921C49.768 61.548 48.2622 57.274 47.8129 52.8095C47.3635 48.3449 47.985 43.8329 49.6203 39.6875H96.3831C97.6749 42.9547 98.3365 46.4604 98.3294 50.0001Z" fill="#D1D3D4"/>
<path d="M111.074 50.0001C111.082 55.2257 110.121 60.4026 108.245 65.2394H94.6558C97.0072 61.5132 98.4619 57.239 98.8941 52.7869C99.3263 48.3347 98.7229 43.8386 97.1362 39.6875H109.811C110.653 43.0532 111.077 46.5195 111.074 50.0001Z" fill="#D1D3D4"/>
<path d="M113.2 50.0001C113.207 55.2104 112.299 60.3771 110.523 65.2394H109C112.07 57.1093 112.607 48.1609 110.535 39.6875H111.998C112.798 43.0601 113.202 46.5236 113.2 50.0001Z" fill="#D1D3D4"/>
<path d="M14.4639 37.2256V39.8104V59.9871V62.7764H53.2452H97.3701H131.536V59.9871V39.8104V37.2256H97.3701H53.2452H14.4639Z" fill="url(#paint2_linear_32_765)"/>
<path d="M23.4312 57.2238V42.7583H27.2092C28.0218 42.7426 28.8322 42.8508 29.6155 43.0794C30.2515 43.2641 30.8097 43.67 31.1994 44.2311C31.5771 44.7855 31.7663 45.5687 31.767 46.5805C31.7722 47.1137 31.7267 47.6462 31.6309 48.1699C31.5521 48.606 31.3814 49.0179 31.1314 49.3751C30.8543 49.7424 30.4969 50.0333 30.0896 50.2228L31.97 57.2238H28.8357L27.328 50.7408H26.4639V57.2238H23.4312ZM26.4639 48.902H27.3107C27.7405 48.902 28.0739 48.8214 28.3108 48.6601C28.5492 48.4968 28.7259 48.2506 28.8103 47.9644C28.9132 47.6087 28.9619 47.238 28.9545 46.8662C28.9545 46.2462 28.8472 45.7638 28.6327 45.4192C28.4181 45.0745 28.0214 44.9018 27.4427 44.9011H26.4599L26.4639 48.902Z" fill="#F0F9FF"/>
<path d="M34.3735 57.2247V42.7593H40.5386V44.9385H37.4063V48.5273H39.7943V50.7418H37.4063V55.0638H40.5741V57.2247H34.3735Z" fill="#F0F9FF"/>
<path d="M46.7227 57.439C45.6837 57.439 44.8623 57.2395 44.2585 56.8407C43.6606 56.4532 43.2075 55.8606 42.9752 55.1624C42.7261 54.4417 42.6019 53.5933 42.6025 52.6171V47.4025C42.6025 46.4035 42.7268 45.5434 42.9752 44.822C43.2052 44.126 43.6574 43.5358 44.2545 43.1523C44.8583 42.7591 45.6797 42.5625 46.7187 42.5625C47.734 42.5625 48.5276 42.7384 49.0996 43.0902C49.6517 43.42 50.0794 43.94 50.3109 44.5629C50.5586 45.2592 50.6791 45.9986 50.6662 46.7421V47.9923H47.7015V46.5452C47.7021 46.2709 47.6878 45.9968 47.6589 45.7242C47.6403 45.4862 47.5551 45.2594 47.4142 45.0724C47.2788 44.8997 47.047 44.8134 46.7187 44.8134C46.4026 44.8134 46.1684 44.9026 46.0161 45.081C45.8592 45.2693 45.7589 45.5025 45.7277 45.751C45.6874 46.0315 45.6677 46.315 45.6688 46.5987V53.4028C45.6666 53.6994 45.6921 53.9955 45.745 54.2869C45.7831 54.5283 45.8892 54.752 46.0496 54.9291C46.2029 55.0896 46.4252 55.1699 46.7187 55.1699C47.0354 55.1699 47.2608 55.0843 47.3969 54.9109C47.5403 54.718 47.6284 54.4858 47.6507 54.2419C47.6852 53.9633 47.7021 53.6826 47.7015 53.4017V51.885H50.6662V53.1352C50.6784 53.8849 50.5622 54.6307 50.3231 55.3368C50.0979 55.9773 49.6739 56.5185 49.1199 56.8728C48.5506 57.2502 47.7516 57.439 46.7227 57.439Z" fill="#F0F9FF"/>
<path d="M57.1108 57.439C56.0833 57.439 55.271 57.2484 54.674 56.8674C54.0788 56.4935 53.6236 55.9153 53.3845 55.2298C53.1232 54.5163 52.9933 53.665 52.9946 52.676V47.2955C52.9946 46.2965 53.1246 45.4452 53.3845 44.7417C53.6247 44.063 54.0793 43.4922 54.6719 43.1255C55.2696 42.7509 56.0819 42.5632 57.1087 42.5625C58.1471 42.5625 58.9688 42.7502 59.5739 43.1255C60.1704 43.4898 60.6289 44.0604 60.8715 44.7406C61.1314 45.4427 61.2614 46.294 61.2614 47.2944V52.6696C61.2614 53.6586 61.1314 54.5098 60.8715 55.2234C60.6323 55.9121 60.1746 56.4925 59.576 56.8663C58.9715 57.2481 58.1498 57.439 57.1108 57.439ZM57.1108 55.1709C57.4265 55.1709 57.659 55.0885 57.8052 54.9216C57.9582 54.7414 58.0584 54.5183 58.0936 54.2794C58.1389 54.0141 58.1616 53.7451 58.1616 53.4755V46.5099C58.1624 46.2375 58.1396 45.9655 58.0936 45.6975C58.0566 45.4604 57.9554 45.2396 57.8022 45.0617C57.656 44.8958 57.4235 44.8123 57.1077 44.8123C56.8139 44.8123 56.594 44.8955 56.4477 45.0617C56.2955 45.2395 56.1953 45.4599 56.1594 45.6964C56.1129 45.9644 56.0901 46.2364 56.0914 46.5088V53.4745C56.0912 53.7437 56.1112 54.0124 56.1513 54.2783C56.1802 54.5157 56.2744 54.739 56.4224 54.9205C56.5665 55.0885 56.795 55.1709 57.1108 55.1709Z" fill="#F0F9FF"/>
<path d="M63.9028 57.2247L64.1404 42.7593H67.3895L68.8972 51.171L70.5217 42.7593H73.656L73.8926 57.2247H71.7462L71.4924 47.5993L69.9003 57.2247H67.9855L66.2919 47.5233L66.0888 57.2205L63.9028 57.2247Z" fill="#F0F9FF"/>
<path d="M76.5249 57.2243V42.7588H82.692V44.938H79.5577V48.5268H81.9467V50.7413H79.5577V55.0633H82.7255V57.2243H76.5249Z" fill="#F0F9FF"/>
<path d="M84.9438 57.2247V42.7593H87.076L89.8885 49.7239V42.7593H92.3953V57.2247H90.3474L87.536 49.7239V57.2247H84.9438Z" fill="#F0F9FF"/>
<path d="M95.2944 57.2247V42.7593H98.7668C99.9636 42.7593 100.895 42.917 101.562 43.2324C102.196 43.5144 102.701 44.0463 102.968 44.7148C103.239 45.3884 103.374 46.2603 103.374 47.3306V52.5817C103.374 53.6648 103.239 54.5489 102.968 55.2339C102.705 55.909 102.204 56.4501 101.57 56.7431C100.91 57.0642 99.9869 57.2247 98.8003 57.2247H95.2944ZM98.3262 55.0156H98.8003C99.2633 55.0156 99.5974 54.9439 99.8004 54.8015C99.9025 54.728 99.989 54.633 100.055 54.5224C100.12 54.4119 100.163 54.2883 100.181 54.1593C100.237 53.8057 100.262 53.4475 100.257 53.089V46.7741C100.265 46.4261 100.234 46.0784 100.165 45.738C100.141 45.6183 100.093 45.5055 100.024 45.407C99.955 45.3084 99.8671 45.2264 99.7659 45.1664C99.5629 45.0476 99.2349 44.9888 98.7841 44.9888H98.3262V55.0156Z" fill="#F0F9FF"/>
<path d="M106.069 57.2243V42.7588H112.236V44.938H109.102V48.5268H111.491V50.7413H109.102V55.0633H112.269V57.2243H106.069Z" fill="#F0F9FF"/>
<path d="M114.49 57.2247V42.7593H117.962C119.159 42.7593 120.091 42.917 120.757 43.2324C121.391 43.5144 121.896 44.0463 122.164 44.7148C122.434 45.3884 122.57 46.2603 122.57 47.3306V52.5817C122.57 53.6648 122.434 54.5489 122.164 55.2339C121.901 55.9087 121.4 56.4498 120.766 56.7431C120.105 57.0642 119.182 57.2247 117.996 57.2247H114.49ZM117.522 55.0156H117.996C118.459 55.0156 118.793 54.9439 118.996 54.8015C119.098 54.728 119.184 54.633 119.25 54.5224C119.315 54.4119 119.359 54.2883 119.376 54.1593C119.432 53.8057 119.458 53.4475 119.453 53.089V46.7741C119.46 46.4261 119.429 46.0783 119.36 45.738C119.336 45.6185 119.288 45.5057 119.219 45.4072C119.151 45.3087 119.063 45.2266 118.962 45.1664C118.759 45.0476 118.431 44.9888 117.979 44.9888H117.522V55.0156Z" fill="#F0F9FF"/>
<defs>
<linearGradient id="paint0_linear_32_765" x1="130.503" y1="25.0649" x2="129.942" y2="71.8482" gradientUnits="userSpaceOnUse">
<stop stop-color="#2995E1"/>
<stop offset="1" stop-color="#157BC4"/>
</linearGradient>
<linearGradient id="paint1_linear_32_765" x1="16.504" y1="25.0649" x2="15.9432" y2="71.8482" gradientUnits="userSpaceOnUse">
<stop stop-color="#2995E1"/>
<stop offset="1" stop-color="#157BC4"/>
</linearGradient>
<linearGradient id="paint2_linear_32_765" x1="73.1232" y1="24.0809" x2="72.8738" y2="71.295" gradientUnits="userSpaceOnUse">
<stop stop-color="#35A4F1"/>
<stop offset="1" stop-color="#0D72B9"/>
</linearGradient>
</defs>
</svg>
