<svg width="141" height="53" viewBox="0 0 141 53" fill="none" xmlns="http://www.w3.org/2000/svg">
<path d="M9.668 47.4L19.82 33.144L19.388 32.712C18.284 33.192 17.036 33.432 15.644 33.432C13.148 33.432 10.748 32.76 8.444 31.416C6.188 30.024 4.34 28.104 2.9 25.656C1.508 23.208 0.812 20.472 0.812 17.448C0.812 14.28 1.604 11.4 3.188 8.808C4.82 6.216 6.956 4.2 9.596 2.76C12.284 1.32 15.14 0.599997 18.164 0.599997C21.62 0.599997 24.692 1.392 27.38 2.976C30.068 4.512 32.156 6.6 33.644 9.24C35.132 11.88 35.876 14.736 35.876 17.808C35.876 20.88 35.276 23.76 34.076 26.448C32.924 29.136 31.196 32.112 28.892 35.376L17.012 52.44L9.668 47.4ZM18.38 25.584C20.588 25.584 22.508 24.816 24.14 23.28C25.82 21.696 26.66 19.728 26.66 17.376C26.66 15.024 25.82 13.08 24.14 11.544C22.508 10.008 20.588 9.24 18.38 9.24C16.124 9.24 14.156 10.008 12.476 11.544C10.844 13.08 10.028 15.024 10.028 17.376C10.028 19.728 10.844 21.696 12.476 23.28C14.156 24.816 16.124 25.584 18.38 25.584ZM60.3633 52.152C56.9073 52.152 53.8113 51.504 51.0753 50.208C48.3873 48.912 46.2753 47.136 44.7393 44.88C43.2513 42.624 42.5073 40.104 42.5073 37.32C42.5073 34.632 43.2033 32.256 44.5953 30.192C46.0353 28.08 47.8353 26.448 49.9953 25.296V24.72C48.3153 23.568 46.9233 22.104 45.8193 20.328C44.7153 18.552 44.1633 16.608 44.1633 14.496C44.1633 11.904 44.8593 9.552 46.2513 7.44C47.6433 5.28 49.5633 3.6 52.0113 2.4C54.5073 1.2 57.2913 0.599997 60.3633 0.599997C63.4353 0.599997 66.1953 1.2 68.6433 2.4C71.0913 3.6 73.0113 5.28 74.4033 7.44C75.8433 9.552 76.5633 11.904 76.5633 14.496C76.5633 16.656 76.0113 18.624 74.9073 20.4C73.8033 22.128 72.3873 23.568 70.6593 24.72V25.296C72.8193 26.448 74.6193 28.08 76.0593 30.192C77.4993 32.256 78.2193 34.632 78.2193 37.32C78.2193 40.104 77.4513 42.624 75.9153 44.88C74.4273 47.136 72.3153 48.912 69.5793 50.208C66.8913 51.504 63.8193 52.152 60.3633 52.152ZM60.3633 21.192C62.3793 21.192 64.0593 20.64 65.4033 19.536C66.7473 18.384 67.4193 16.896 67.4193 15.072C67.4193 13.248 66.7473 11.784 65.4033 10.68C64.0593 9.576 62.3793 9.024 60.3633 9.024C58.2993 9.024 56.5953 9.576 55.2513 10.68C53.9073 11.784 53.2353 13.248 53.2353 15.072C53.2353 16.896 53.9073 18.384 55.2513 19.536C56.5953 20.64 58.2993 21.192 60.3633 21.192ZM60.3633 43.44C62.8113 43.44 64.8033 42.792 66.3393 41.496C67.9233 40.2 68.7153 38.496 68.7153 36.384C68.7153 34.368 67.9233 32.712 66.3393 31.416C64.7553 30.12 62.7633 29.472 60.3633 29.472C57.9633 29.472 55.9473 30.12 54.3153 31.416C52.7313 32.712 51.9393 34.368 51.9393 36.384C51.9393 38.496 52.7313 40.2 54.3153 41.496C55.8993 42.792 57.9153 43.44 60.3633 43.44ZM97.0771 25.224C94.6771 25.224 92.4931 24.672 90.5251 23.568C88.6051 22.464 87.0931 20.976 85.9891 19.104C84.8851 17.232 84.3331 15.168 84.3331 12.912C84.3331 10.656 84.8851 8.592 85.9891 6.72C87.0931 4.848 88.6051 3.36 90.5251 2.256C92.4931 1.152 94.6771 0.599997 97.0771 0.599997C99.4291 0.599997 101.565 1.152 103.485 2.256C105.453 3.36 106.989 4.848 108.093 6.72C109.197 8.592 109.749 10.656 109.749 12.912C109.749 15.168 109.197 17.232 108.093 19.104C106.989 20.976 105.453 22.464 103.485 23.568C101.565 24.672 99.4291 25.224 97.0771 25.224ZM93.4771 48.336L125.445 0.599997L131.133 4.416L99.1651 52.152L93.4771 48.336ZM97.0771 18.168C98.5171 18.168 99.6931 17.688 100.605 16.728C101.565 15.768 102.045 14.496 102.045 12.912C102.045 11.328 101.565 10.056 100.605 9.096C99.6931 8.136 98.5171 7.656 97.0771 7.656C95.6851 7.656 94.5091 8.16 93.5491 9.168C92.5891 10.128 92.1091 11.376 92.1091 12.912C92.1091 14.448 92.5891 15.72 93.5491 16.728C94.5091 17.688 95.6851 18.168 97.0771 18.168ZM127.605 52.152C125.205 52.152 123.021 51.6 121.053 50.496C119.133 49.392 117.621 47.904 116.517 46.032C115.413 44.16 114.861 42.096 114.861 39.84C114.861 37.584 115.413 35.52 116.517 33.648C117.621 31.776 119.133 30.288 121.053 29.184C123.021 28.08 125.205 27.528 127.605 27.528C129.957 27.528 132.093 28.08 134.013 29.184C135.981 30.288 137.517 31.776 138.621 33.648C139.725 35.52 140.277 37.584 140.277 39.84C140.277 42.096 139.725 44.16 138.621 46.032C137.517 47.904 135.981 49.392 134.013 50.496C132.093 51.6 129.957 52.152 127.605 52.152ZM127.605 45.096C129.045 45.096 130.221 44.616 131.133 43.656C132.093 42.696 132.573 41.424 132.573 39.84C132.573 38.256 132.093 36.984 131.133 36.024C130.221 35.064 129.045 34.584 127.605 34.584C126.213 34.584 125.037 35.088 124.077 36.096C123.117 37.056 122.637 38.304 122.637 39.84C122.637 41.376 123.117 42.648 124.077 43.656C125.037 44.616 126.213 45.096 127.605 45.096Z" fill="#0D72B9"/>
</svg>
