<svg width="501" height="202" viewBox="0 0 501 202" fill="none" xmlns="http://www.w3.org/2000/svg">
<g clip-path="url(#clip0_48_945)">
<path d="M499.94 201.08C498.49 201.16 497.04 201.3 495.59 201.3H4.42031C2.97031 201.3 1.52031 201.16 0.0703125 201.08V199.83C1.59038 199.478 3.15888 199.383 4.71031 199.55C73.9503 199.55 143.194 199.55 212.44 199.55C217.71 199.55 216.97 199.87 216.98 195.07C216.98 181.13 216.98 167.19 216.98 153.3C215.74 152.77 215.34 153.73 214.8 154.23C209.45 159.17 204.14 164.16 198.8 169.09C194.901 172.788 189.714 174.822 184.34 174.76C173.4 174.76 162.47 174.76 151.54 174.76C150.02 174.76 148.42 175.06 147.93 172.76C147.59 171.24 146 171.82 144.93 171.87C142.93 171.98 141.45 171.68 141.17 169C140.047 170.255 138.632 171.214 137.05 171.793C135.468 172.372 133.768 172.553 132.1 172.32C130.34 172.15 129.44 173.01 128.7 174.42C127.46 176.76 125.76 178.11 122.86 177.1C121.2 176.52 119.86 177.53 118.78 178.67C115.25 182.21 111.78 185.76 108.17 189.27C105.17 192.27 102.96 192.27 99.9203 189.21C86.8203 176.124 73.7236 163.02 60.6303 149.9C57.4203 146.69 57.4003 144.66 60.6303 141.44C69.6703 132.36 78.727 123.304 87.8003 114.27C91.1103 110.98 93.1303 111.02 96.5203 114.36L125 142.36C125.13 143.85 124.13 143.92 123.06 143.93C121.45 143.83 120.46 142.7 119.46 141.65C111.79 133.57 103.31 126.33 95.4603 118.39C92.3703 115.24 91.4603 115.27 88.3003 118.39C80.4803 126.184 72.677 133.987 64.8903 141.8C61.7203 144.98 61.7103 145.87 64.7903 148.97C76.6836 160.93 88.607 172.857 100.56 184.75C103.7 187.89 104.45 187.84 107.7 184.65C109.63 182.75 111.53 180.82 113.58 178.84C112.84 178.29 111.91 178.11 111.24 177.53C108.08 175.15 107.64 173.59 109.92 170.53C113.13 166.26 116.1 161.81 119.44 157.65C120 156.65 122.07 157.45 121.97 155.59C121.54 153.68 122.16 152.59 124.26 152.59C125.68 152.59 127.16 152.52 128.26 151.42C128.26 149.32 125.48 148.29 126.15 145.96C126.64 145.14 127.27 144.83 128.15 145.39C130.37 147.59 132.64 149.73 134.79 151.98C136.62 153.89 139 153.57 140.93 152.98C144.58 151.89 148.28 151.83 151.93 151.73C159.62 151.51 167.33 151.66 175 151.66C175.54 150.52 174.65 150.02 174.19 149.45C165.693 139.182 157.848 128.39 150.7 117.14C147.51 111.98 144.16 107 140.54 102.14C140.16 101.459 139.629 100.873 138.988 100.427C138.346 99.9821 137.612 99.6889 136.84 99.5703C134.97 99.2803 132.91 96.8603 131.95 94.8903C130.65 92.2103 128.73 90.0903 126.95 87.8003C121.49 80.5736 115.947 73.4136 110.32 66.3203C109 64.6603 109.17 63.9103 110.82 62.6903C115.92 58.9103 120.94 55.0236 125.88 51.0303C127.38 49.8203 128.2 49.8703 129.32 51.4403C131.32 54.2103 133.44 56.8403 135.75 59.8203C136.478 57.6667 136.899 55.4213 137 53.1503C137.17 51.5103 137.82 50.7603 139.63 51.0103C146.12 51.9203 152.63 52.7403 159.14 53.5103C160.85 53.7203 161.14 54.5103 160.88 56.0403C159.63 65.5303 158.5 75.0403 157.24 84.5203C156.7 88.6003 157.06 92.3203 160.04 95.5203C161.93 97.4709 163.272 99.8854 163.93 102.52C164.31 104.12 166.52 104.3 167.53 105.87C172.68 113.94 178.11 121.87 183.45 129.78C184.07 130.71 184.74 131.61 185.79 133.07C187.87 126.74 189.79 120.99 191.66 115.22C193.66 109.08 195.66 102.95 197.44 96.7603C199.55 89.5503 204.16 85.5903 211.69 84.7603C218.1 84.0903 224.46 83.0703 230.87 82.3603C231.898 82.3349 232.899 82.0337 233.77 81.4883C234.641 80.9429 235.349 80.1734 235.82 79.2603C236.82 77.5103 237.58 75.5903 239.48 74.3403C240.54 73.6303 240.19 72.0603 239.21 71.0203C236.57 68.2203 233.68 65.5803 233.7 61.2703C233.7 60.6103 233.12 60.5103 232.59 60.4203C229.74 59.9103 228.81 57.8003 228.34 55.3003C227.96 53.3003 227.59 51.2103 227.16 49.1703C226.87 48.1612 226.872 47.0902 227.168 46.0825C227.464 45.0749 228.04 44.1723 228.83 43.4803C229.374 43.0342 229.775 42.4381 229.983 41.766C230.191 41.094 230.197 40.3757 230 39.7003C229.46 36.7003 229 33.7003 228.59 30.7603C227.07 20.3503 232.33 13.1603 242.76 12.5603C252.31 12.0203 261.91 12.3003 271.49 12.4003C274.97 12.4003 276.91 14.9603 276.72 19.1803C276.43 25.9403 275.89 32.6803 275.37 39.4203C275.23 41.1503 275.14 42.6203 276.76 43.8403C277.309 44.3382 277.725 44.964 277.973 45.6619C278.221 46.3598 278.292 47.1082 278.18 47.8403C277.878 51.0468 277.303 54.2217 276.46 57.3303C276.385 57.9097 276.148 58.4562 275.777 58.9072C275.405 59.3582 274.915 59.6954 274.36 59.8803C271.84 60.3803 271.43 62.0903 270.98 64.2303C270.53 66.3703 268.83 68.2303 267.17 69.8303C265.3 71.6503 264.34 73.4603 267.17 75.3303C267.656 75.7353 268.005 76.28 268.17 76.8903C269.9 81.8403 273.87 83.0203 278.51 83.0403C284.16 83.0403 289.66 84.3103 295.21 85.0403C301.67 85.9403 305.68 90.0403 307.66 96.0403C310.66 105.11 313.33 114.31 316.14 123.45C316.29 123.95 316.46 124.45 316.57 124.95C317.08 127.23 317.87 126.78 319.03 125.32C323.32 119.95 327.66 114.63 332.03 109.32C334.68 109.21 334.93 109.68 333.65 112.32C329.39 118.32 324.6 123.99 319.93 129.7C317.3 132.91 315.3 132.47 314.05 128.46C311.26 119.5 308.63 110.5 306 101.5C305.454 99.6057 304.786 97.7485 304 95.9403C303.207 93.8835 301.857 92.088 300.102 90.7546C298.346 89.4213 296.254 88.6026 294.06 88.3903C291.38 88.0603 288.69 87.7103 286.06 87.2403C284.838 86.9597 283.558 87.0693 282.401 87.5536C281.244 88.0379 280.268 88.8726 279.61 89.9403C272.37 99.7303 265.44 109.73 258.12 119.46C257.425 120.502 256.552 121.412 255.54 122.15C253.13 123.7 250.84 123.24 248.77 120.56C242.77 112.74 237.15 104.56 231.28 96.6203C229.55 94.2703 227.88 91.8803 226.18 89.5203C225.58 88.5962 224.719 87.8716 223.705 87.4389C222.692 87.0061 221.573 86.8848 220.49 87.0903C216.89 87.6203 213.27 88.0203 209.71 88.8103C207.959 89.1277 206.32 89.8972 204.957 91.0426C203.595 92.1879 202.555 93.6694 201.94 95.3403C200.13 99.8903 198.78 104.6 197.37 109.27C194.77 117.84 191.67 126.27 189.08 134.81C188.69 136.1 188.35 137.53 186.72 137.81C184.93 138.1 184.15 136.72 183.34 135.52C177.94 127.61 172.73 119.58 167.22 111.75C164.73 108.22 163.95 108.02 160.42 110.29C153.42 114.83 153.36 115.06 158.19 121.93C164.83 131.38 171.67 140.68 178.98 149.63C179.906 150.855 180.915 152.015 182 153.1C187.68 158.37 192.83 158.31 198.3 152.79C203.77 147.27 208.15 140.97 212.9 134.91C214.26 133.17 215.13 129.97 218.17 130.91C221.39 131.91 220.17 135.14 220.17 137.43C220.27 155.75 220.17 174.06 220.23 192.38C220.23 197.7 220.79 198.24 226.18 198.25C244.08 198.25 261.984 198.25 279.89 198.25C285.35 198.25 285.89 197.71 285.89 192.09C285.89 176.37 286.02 160.66 285.83 144.95C285.76 139.19 286.98 133.48 286.25 127.72C286.155 127.213 286.245 126.689 286.504 126.243C286.762 125.797 287.173 125.459 287.66 125.29C288.131 125.057 288.662 124.976 289.182 125.056C289.701 125.137 290.182 125.376 290.56 125.74C291.825 126.98 292.945 128.359 293.9 129.85C297.51 134.94 301.19 139.98 304.9 145.02C306.35 146.93 308 148.68 309.82 150.24C313.23 153.24 316.13 153.48 320.02 150.94C324.63 147.94 327.9 143.56 331.43 139.47C334.805 135.509 337.959 131.367 340.88 127.06C342.8 124.26 342.59 123.32 340.34 120.77C339.08 119.34 337.08 118.37 337.1 116.04C337.128 115.69 337.232 115.35 337.405 115.045C337.577 114.739 337.815 114.475 338.1 114.27C341.16 113.5 342.66 115.98 344.66 117.41C345.21 118.1 345.66 118.8 344.96 119.66C348.81 122.9 346.28 125.55 344.28 128.39C338.024 137.507 330.872 145.976 322.93 153.67H330.61C335.61 153.67 340.61 153.67 345.61 153.67C347.44 153.67 349.02 153.46 350.18 155.83C351.07 157.66 353.9 156.83 355.65 156.55C359.5 155.99 363.34 156.21 367.17 156C370.094 155.882 372.935 154.999 375.41 153.44C377.23 152.27 379.41 151.32 380.92 153.63C382.43 155.94 381.45 158.03 379.49 159.71C377.53 161.39 374.82 162.28 372.4 163.71C375.28 165.27 377.49 165.28 378.83 162.09C378.959 161.802 379.151 161.546 379.39 161.34C382.68 158.42 386.96 157.15 390.55 154.69C391.155 154.346 391.861 154.222 392.547 154.34C393.233 154.459 393.856 154.813 394.31 155.34C394.708 155.792 395.191 156.159 395.731 156.422C396.272 156.685 396.86 156.837 397.46 156.87C400.26 157.37 400.97 159.35 399.21 161.61C395.68 166.085 391.277 169.797 386.27 172.52C378.45 176.94 370.9 178.21 362.55 174.92C361.355 174.561 360.135 174.29 358.9 174.11C357.63 173.81 356.28 173.11 355.9 175.29C355.77 176.06 354.78 176.06 354.04 176.11C339.7 177.11 325.35 176.64 311.04 176.5C306.61 176.5 302.98 173.93 299.97 170.71C296.65 167.14 293.37 163.52 290.08 159.93C288.89 160.69 289.33 161.73 289.33 162.57C289.33 173.71 289.39 184.84 289.25 195.98C289.25 198.67 289.87 199.55 292.68 199.52C306 199.37 319.33 199.45 332.68 199.45C386.907 199.45 441.137 199.45 495.37 199.45C496.922 199.283 498.49 199.378 500.01 199.73L499.94 201.08Z" fill="#0D72B9"/>
<path d="M414.17 2.09961C422.17 2.09961 430.17 2.17961 438.22 2.09961C440.69 2.09961 441.66 2.90961 441.33 5.32961C441.23 6.04961 441.38 6.78961 441.33 7.50961C441.09 9.61961 441.58 10.5996 444.11 10.6896C446.686 10.8345 449.113 11.9437 450.909 13.7966C452.704 15.6495 453.736 18.1103 453.8 20.6896C453.94 25.9896 453.92 31.2996 453.8 36.6096C453.776 39.2999 452.73 41.8803 450.872 43.8268C449.015 45.7732 446.486 46.9398 443.8 47.0896C441.126 47.3252 438.46 46.5487 436.331 44.9137C434.202 43.2786 432.763 40.9041 432.3 38.2596C432.093 37.1374 431.976 36.0005 431.95 34.8596C431.84 30.8596 431.86 30.8596 427.77 30.8596H390.91C386.74 30.8596 386.74 30.8596 386.74 26.5496V6.26961C386.74 2.10961 386.74 2.10961 391.05 2.09961H414.17Z" fill="#0D72B9"/>
<path d="M339 114.79L338.15 116.16C335.54 116.45 333.99 115.16 332.52 111.58C333.64 110.58 334.07 109.69 332.1 109.26C333.54 108.72 333.84 107.41 334.28 106.14C335.72 101.97 336.18 97.3504 339.88 94.2104C341.12 93.1504 339.64 92.5804 339.12 92.0404C335.41 88.2504 331.7 84.4504 327.85 80.8004C326.27 79.2904 326.3 78.3204 327.85 76.8004C343.416 61.3338 358.943 45.8138 374.43 30.2404C375.84 28.8204 376.74 28.7104 378.21 30.2404C390.516 42.6471 402.873 55.0071 415.28 67.3204C416.64 68.6704 416.63 69.5504 415.28 70.8804C399.566 86.5204 383.9 102.187 368.28 117.88C367.07 119.09 366.2 119.26 364.97 117.93C363.2 116.03 361.54 113.3 359.36 112.71C357 112.09 355.52 115.6 353.19 116.71C350.532 117.896 347.796 118.895 345 119.7C344.851 119.418 344.649 119.167 344.403 118.963C344.158 118.758 343.875 118.605 343.57 118.51C343.26 116.66 344.65 116.27 345.92 115.76C348.24 114.85 350.74 114.35 352.71 112.68C353.71 111.87 354.78 110.94 354.12 109.54C353.759 108.675 353.227 107.891 352.557 107.235C351.887 106.578 351.092 106.063 350.22 105.72C349.33 105.4 349.07 106.38 348.82 107.05C348.691 107.565 348.371 108.01 347.925 108.296C347.479 108.583 346.941 108.688 346.42 108.59C345.845 108.515 345.315 108.236 344.927 107.806C344.538 107.375 344.316 106.82 344.3 106.24C344.25 105.72 344.17 105.202 344.06 104.69C342.85 99.8904 343.45 99.0604 348.53 98.4304C350.31 98.2104 352.24 98.5804 353.73 96.9204C350.07 96.4404 346.44 96.0104 342.79 96.9204C342.29 97.0842 341.834 97.3615 341.46 97.7304C338.65 100.19 336.92 108.85 338.62 112.16C339 113.05 339.64 113.82 339 114.79Z" fill="#0D72B9"/>
<path d="M432.19 189.21C425.12 189.21 418.04 189.21 410.97 189.21C407.1 189.21 405.92 188.06 405.91 184.21C405.91 174.95 405.91 165.7 405.85 156.44C405.85 154.07 406.6 153.3 408.85 153.49C410.91 153.67 413.01 153.49 415.09 153.55C418.84 153.72 421.71 153.55 424.25 149.46C428.08 143.31 437.67 144.36 441.17 150.86C441.548 151.792 442.233 152.568 443.11 153.06C443.988 153.553 445.007 153.733 446 153.57C449.22 153.41 452.45 153.63 455.67 153.5C457.75 153.41 458.62 153.97 458.6 156.25C458.49 165.61 458.6 174.97 458.54 184.33C458.54 188 457.31 189.22 453.68 189.23C446.55 189.24 439.37 189.21 432.19 189.21Z" fill="#010101"/>
<path d="M102 28.3601C102 33.2501 102 38.1401 102 43.0201C102 46.7901 100.48 48.3201 96.6704 48.3401C86.6704 48.3867 76.6904 48.3867 66.7304 48.3401C62.9604 48.3401 61.4204 46.7501 61.4004 43.0101C61.4004 33.0101 61.4004 23.0334 61.4004 13.0801C61.4004 9.35008 62.9604 7.77008 66.7404 7.75008C76.7404 7.69008 86.7204 7.69008 96.6804 7.75008C100.49 7.75008 101.96 9.31008 102 13.0901C102.06 18.1801 102 23.2701 102 28.3601Z" fill="#030303"/>
<path d="M59.7695 120.67C58.3995 120.54 56.5195 120.49 54.6895 120.15C42.9095 117.91 37.8795 109.75 41.0995 98.1504C42.5587 92.5797 45.7657 87.6237 50.2495 84.0104C52.5495 82.1604 52.6895 79.7004 50.6795 77.4704C49.4895 76.1604 48.2895 74.8604 47.1395 73.5304C46.823 73.2535 46.6078 72.8789 46.5281 72.4659C46.4484 72.0529 46.5087 71.6252 46.6995 71.2504C46.8944 70.8811 47.1964 70.5794 47.5658 70.3849C47.9352 70.1904 48.3548 70.1121 48.7695 70.1604C56.5195 70.1604 64.2695 70.1604 72.0195 70.1604C74.0195 70.1604 74.7895 71.7004 73.6195 73.3804C72.5446 74.7853 71.3823 76.1213 70.1395 77.3804C67.9095 79.8604 68.1395 82.1204 70.7395 84.3004C73.7373 86.7397 76.1645 89.806 77.8507 93.2836C79.5368 96.7613 80.4409 100.566 80.4995 104.43C80.7795 113.24 74.3195 119.43 64.3195 120.43C62.9995 120.57 61.6195 120.58 59.7695 120.67Z" fill="#040404"/>
<path d="M303.4 78.1203C301.25 78.1058 299.124 77.6681 297.144 76.8321C295.163 75.9961 293.367 74.7781 291.857 73.2478C288.808 70.1572 287.111 65.9818 287.14 61.6403C287.169 57.2987 288.922 53.1465 292.012 50.0971C295.103 47.0478 299.278 45.3511 303.62 45.3803C307.962 45.4094 312.114 47.1621 315.163 50.2527C318.212 53.3433 319.909 57.5187 319.88 61.8603C319.851 66.2018 318.098 70.354 315.008 73.4034C311.917 76.4527 307.742 78.1494 303.4 78.1203Z" fill="#010101"/>
<path d="M340.31 46.7996H333.15C332.045 46.8719 330.95 46.5439 330.067 45.8755C329.184 45.2071 328.571 44.243 328.34 43.1596C327.95 42.1246 327.945 40.9842 328.325 39.9456C328.705 38.907 329.445 38.0391 330.41 37.4996C331.877 36.5542 333.141 35.3271 334.13 33.8896C337.58 29.3496 345.3 30.2596 347.63 35.4796C348.33 37.0296 348.94 38.3696 350.55 39.2696C351.282 39.6943 351.844 40.361 352.138 41.1549C352.431 41.9489 352.439 42.8204 352.16 43.6196C352.016 44.5051 351.557 45.3089 350.869 45.8838C350.18 46.4587 349.307 46.7661 348.41 46.7496C345.71 46.8296 343.01 46.7496 340.31 46.7496V46.7996Z" fill="#C9E2F2"/>
<path d="M206.34 43.8213C206.34 48.7013 206.25 53.5913 206.34 58.4713C206.4 61.1013 205.42 62.3313 202.75 62.3113C195.99 62.2713 189.233 62.2713 182.48 62.3113C180.16 62.3113 179 61.3113 179 58.9513C179 48.8713 179 38.7946 179 28.7213C179 26.3313 180.12 25.4613 182.49 25.5013C189.35 25.588 196.207 25.588 203.06 25.5013C205.53 25.5013 206.38 26.5013 206.34 28.8613C206.28 33.8513 206.34 38.8313 206.34 43.8213Z" fill="#060606"/>
<path d="M365 3.49994C363.29 2.49994 361.89 2.99994 360.6 2.71994C360.1 2.61994 359.5 2.50994 359.55 1.83994C359.6 1.16994 360.24 1.15994 360.73 1.14994C362.81 1.14994 364.89 1.14994 366.97 1.14994C367.205 1.12136 367.443 1.14731 367.666 1.22578C367.889 1.30425 368.092 1.43312 368.257 1.60239C368.422 1.77166 368.547 1.97677 368.62 2.20181C368.693 2.42684 368.714 2.66573 368.68 2.89994C368.68 4.97994 368.68 7.05994 368.68 9.13994C368.68 9.66994 368.55 10.2899 367.93 10.3299C367.1 10.3799 367 9.64994 366.98 9.02994C366.98 7.71994 366.98 6.40994 366.98 4.12994C362.72 8.57994 359.15 12.2999 355.6 16.0299C353.73 17.9799 351.8 19.8799 350.07 21.9599C348.71 23.5899 347.63 23.4299 346.23 22.0599C344.23 20.0599 341.93 18.4199 340.06 16.3399C338.19 14.2599 337.16 15.0399 335.66 16.6499C328.72 24.1099 321.66 31.4299 314.76 38.9599C312.97 40.9599 311.94 40.7299 310.37 38.8899C307.88 35.9599 305.14 33.2499 302.65 30.3199C301.34 28.7899 300.42 28.6899 298.94 30.1399C295.22 33.7699 291.36 37.2499 287.53 40.7699C287.04 41.2199 286.53 42.1399 285.75 41.3999C284.97 40.6599 285.75 40.0399 286.28 39.5599C290.7 35.4599 295.15 31.3899 299.56 27.2699C300.88 26.0299 301.67 26.7099 302.62 27.7599C305.39 30.8599 308.27 33.8699 311.02 36.9899C312.17 38.2899 312.88 38.3999 314.17 36.9899C321.23 29.3599 328.47 21.8899 335.51 14.2299C337.3 12.2799 338.51 12.2299 340.23 14.1299C341.71 15.7299 343.46 17.0699 345.07 18.5499C348.16 21.3699 348.17 21.3799 350.94 18.4499C355.57 13.4999 360.18 8.61994 365 3.49994Z" fill="#333333"/>
<path d="M382.23 115.4C383.06 115.4 383.9 115.4 384.72 115.4C387.01 115.25 387.95 116.63 387.38 118.49C386.65 120.82 387.92 121.38 389.52 122.28C392.62 124.025 394.999 126.816 396.232 130.153C397.465 133.491 397.471 137.158 396.25 140.5C395.038 143.887 392.658 146.732 389.538 148.523C386.418 150.314 382.761 150.935 379.225 150.274C375.689 149.613 372.503 147.713 370.241 144.916C367.979 142.118 366.787 138.606 366.88 135.01C366.89 132.294 367.655 129.635 369.089 127.329C370.522 125.023 372.569 123.16 375 121.95C376.48 121.15 377.35 120.69 376.93 118.6C376.38 115.68 377.07 115.39 382.23 115.4Z" fill="#0D72B9"/>
<path d="M449.05 87.4201C450.796 89.2284 451.974 91.5087 452.438 93.9791C452.901 96.4495 452.631 99.0017 451.66 101.32C451.412 101.827 451.348 102.404 451.482 102.952C451.615 103.501 451.937 103.985 452.39 104.32C453.97 105.82 455.49 107.4 457.02 108.95C458.55 110.5 459.07 112.27 457.43 113.89C455.79 115.51 454.01 114.77 452.51 113.31C451.89 112.758 451.305 112.167 450.76 111.54C448.52 108.77 446.37 107.41 442.2 108.54C435.49 110.3 430.11 106.05 427.99 98.6901C427.99 96.8601 426.99 95.2801 426.74 93.4901C426.81 92.6001 427.47 91.9401 427.74 91.1101C428.26 89.3801 429.92 88.2901 430.38 86.5201C432.206 84.8573 434.443 83.7143 436.86 83.2101L437.86 83.1301C440.22 82.8301 442.6 82.3501 444.86 83.7001C445.62 84.0101 446.36 84.3601 447.12 84.7001C448.34 85.1101 449.46 85.7201 449.05 87.4201Z" fill="#0D72B9"/>
<path d="M97.9996 88.11C102.9 90.28 104.4 93.53 104 97.83C103.93 98.49 103.73 99.32 104.52 99.83C105.16 100.22 106.41 100.23 105.85 101.42C105.51 102.15 104.54 101.88 103.85 101.88C98.7496 101.88 93.6529 101.88 88.5596 101.88C87.8896 101.88 86.9796 102.15 86.6696 101.23C86.3596 100.31 87.1496 100.23 87.6696 99.94C88.3796 99.59 88.3296 98.94 88.2996 98.32C88.0396 93.92 89.3996 90.32 94.2996 88.16C89.5496 85.94 88.0296 82.44 88.2996 78.01C88.3324 77.6964 88.2983 77.3795 88.1996 77.08C87.1096 74.41 87.0996 74.41 90.3696 74.41C94.8396 74.41 99.3696 74.41 103.79 74.41C104.59 74.41 105.66 74.17 105.96 75.17C106.26 76.17 105.14 76.17 104.57 76.47C103.78 76.93 103.91 77.75 103.97 78.47C104.29 82.65 102.91 85.96 97.9996 88.11Z" fill="#0D72B9"/>
<path d="M303.17 20.4998C303.17 19.4098 303.27 18.3498 304.83 18.4998C305.83 18.5998 306.83 18.4398 306.92 17.1998C307.01 15.9598 306.09 15.5798 305.04 15.7098C303.6 15.8698 303.17 15.1398 303.17 13.8998C303.17 12.6598 303.24 11.4098 304.76 11.2998C306.5 11.1698 307.82 10.8998 307.68 8.69984C307.68 8.03984 308.28 7.61984 308.97 7.58984C309.83 7.58984 310.54 8.02984 310.47 8.82984C310.17 12.0198 313.09 10.6998 314.34 11.6798C315.59 12.6598 313.9 15.8998 317.13 15.6798C317.316 15.661 317.503 15.6823 317.68 15.7424C317.856 15.8025 318.018 15.8998 318.154 16.0279C318.289 16.156 318.396 16.3117 318.466 16.4846C318.536 16.6575 318.568 16.8435 318.56 17.0298C318.61 18.0298 317.98 18.5198 317.03 18.6198C316.08 18.7198 315.09 18.5498 315.12 19.6998C315.17 22.2498 313.98 23.1998 311.54 23.2198C310.42 23.2198 310.65 24.4098 310.54 25.2198C310.543 25.5897 310.401 25.946 310.145 26.2131C309.889 26.4801 309.54 26.6368 309.17 26.6498C308.32 26.6998 307.62 26.2498 307.65 25.4398C307.74 23.4398 306.65 23.0198 304.96 22.9798C303.45 22.9198 303.17 21.7598 303.17 20.4998Z" fill="#F2994A"/>
<path d="M128.17 145.5C127.25 145.5 126.86 146.01 126.79 146.87C126.49 149.77 127.06 151.97 130.65 152.08C131.36 152.176 132.016 152.511 132.51 153.03C130.43 154.19 128.19 153.25 126.05 153.57C125.05 153.72 123.78 153.12 123.11 154.07C122.66 156.07 125.92 153.65 124.99 156.07C122.84 155.87 121.63 157.12 120.7 158.82C117.04 162.26 114.47 166.57 111.34 170.43C109.34 172.89 109.42 174.86 111.97 176.72C112.2 179.72 110.25 181.65 108.36 183.5C107.966 183.921 107.441 184.195 106.87 184.278C106.3 184.362 105.719 184.25 105.22 183.96C104.673 183.659 104.24 183.187 103.985 182.617C103.731 182.047 103.669 181.409 103.81 180.8C104.147 179.299 104.564 177.817 105.06 176.36C105.3 175.36 106.31 174.94 106.57 173.99C106.96 172.74 108.47 171.99 108.28 170.5C109.51 169.2 110.74 167.91 110.42 165.87C110.1 163.83 112.94 164.18 112.81 162.38C113.67 160.22 115.81 158.67 115.71 156.06C115.62 155.32 115.42 154.6 115.4 153.85C117.12 150.75 118.88 147.68 120.47 144.51C120.649 144.085 120.941 143.717 121.315 143.448C121.689 143.178 122.13 143.016 122.59 142.98C123.44 143.03 124.32 143.24 124.98 142.45C126.61 141.45 128.08 140.64 127.76 143.78C127.805 144.372 127.943 144.952 128.17 145.5Z" fill="#333333"/>
<path d="M425.72 131.34C424.34 131.22 423.61 130.1 422.81 129.21C421.36 127.61 420.2 127.36 418.96 129.42C417.85 131.28 416.86 130.81 416.28 129.01C414.99 125.06 413.75 121.1 412.5 117.14C411.9 115.24 412.7 114.87 414.36 115.42C418.3 116.74 422.25 118.03 426.18 119.42C427.34 119.82 428.24 120.65 426.79 121.56C423.61 123.56 425.23 125.1 427.07 126.77C427.82 127.45 428.76 128.21 428.07 129.42C427.825 129.88 427.492 130.286 427.088 130.616C426.685 130.945 426.22 131.192 425.72 131.34Z" fill="#C9E2F2"/>
<path d="M446.69 85.6901L445.04 84.7801C443.53 82.2601 444.1 79.3901 443.66 76.7001C443.627 75.8013 443.493 74.909 443.26 74.0401C441.59 71.4101 440.77 68.0401 437.26 66.9901C436.713 66.9167 436.162 66.8833 435.61 66.8901C431.87 68.1801 430.56 71.4201 429.31 74.7101C429.079 75.4441 428.971 76.211 428.99 76.9801C429.05 80.3701 428.91 83.7701 429.26 87.1501C429.407 88.5431 429.254 89.9515 428.81 91.2801L428.12 93.0301C425.21 92.9401 425.23 91.3501 426.2 89.2801L425.51 87.2801C424.254 86.095 423.503 84.4711 423.413 82.7464C423.324 81.0216 423.903 79.3288 425.03 78.0201C425.54 76.8122 425.72 75.4903 425.55 74.1901C424.17 70.0001 427.3 65.3901 432.36 64.1901C433.547 63.5188 434.887 63.166 436.25 63.166C437.613 63.166 438.953 63.5188 440.14 64.1901C443.93 65.0301 447.21 68.4701 447.66 72.0001C447.737 72.4032 447.71 72.8191 447.582 73.2091C447.454 73.599 447.23 73.9503 446.93 74.2301C447.11 74.8701 447.28 75.5101 447.45 76.1601C449.83 78.7601 449.04 81.7501 448.45 84.6801C448.337 85.0383 448.093 85.3409 447.767 85.5279C447.441 85.7149 447.057 85.7728 446.69 85.6901Z" fill="#F3F3F3"/>
<path d="M446.69 85.6899C448.32 82.6099 447.2 79.3199 447.44 76.1299C454.24 76.1299 454.75 76.9199 453.87 83.6999C453.45 86.9399 451.75 87.5999 449.05 87.4199L446.69 85.6899Z" fill="#0D72B9"/>
<path d="M425 78.0597C424.814 81.1546 424.975 84.2606 425.48 87.3197C418.79 87.4697 418.31 86.9197 418.68 79.4197C418.74 78.0797 418.58 76.4197 420.42 76.2797C422.26 76.1397 424.35 75.3097 425 78.0597Z" fill="#0D72B9"/>
<path d="M133.93 113.69C133.74 114.05 133.5 114.62 133.17 115.14C131.003 118.533 128.82 121.92 126.62 125.3C126.216 126.158 125.501 126.83 124.62 127.18C124.337 127.312 124.024 127.366 123.713 127.338C123.402 127.31 123.104 127.2 122.85 127.02C122.25 126.46 122.7 125.87 123.02 125.36C125.44 121.51 127.86 117.67 130.32 113.85C130.586 113.339 131.018 112.933 131.544 112.699C132.071 112.464 132.661 112.415 133.22 112.56C133.71 112.67 133.92 113 133.93 113.69Z" fill="#219653"/>
<path d="M432.35 64.2004C428.44 66.4404 427.07 70.3904 425.54 74.2004C425.337 74.2154 425.133 74.2154 424.93 74.2004C423.47 73.9804 421.33 75.0004 420.7 73.4204C420.07 71.8404 421.75 70.2304 422.99 69.0504C425.63 66.5904 428.06 63.5804 432.35 64.2004Z" fill="#0D72B9"/>
<path d="M446.92 74.2004C445.59 70.2004 444.06 66.3804 440.13 64.2004C443.98 63.9204 450.75 68.6404 451.91 72.3704C452.31 73.6404 451.76 74.1404 450.64 74.2104C449.52 74.2804 448.16 74.1904 446.92 74.2004Z" fill="#0D72B9"/>
<path d="M130.64 123.21C130.64 120.46 132.08 118.92 134.52 118.98C135.625 119.027 136.667 119.51 137.417 120.324C138.166 121.137 138.563 122.215 138.52 123.32C138.563 123.87 138.486 124.422 138.293 124.938C138.1 125.454 137.797 125.922 137.405 126.309C137.012 126.696 136.54 126.992 136.021 127.177C135.502 127.362 134.948 127.431 134.4 127.38C131.7 127.37 130.6 126.17 130.64 123.21Z" fill="#219653"/>
<path d="M126.29 116.81C126.18 118.75 125.44 120.51 122.66 120.48C119.88 120.45 118.66 118.9 118.77 115.96C118.85 113.44 120.15 112.05 122.61 111.96C124.9 111.87 126.37 113.76 126.29 116.81Z" fill="#219653"/>
<path d="M426.19 89.2803C426.78 90.5603 427.11 91.9703 428.11 93.0303L427.99 98.6403C427.24 95.9703 424.78 94.7303 423.16 92.7903C422.41 91.8903 420.84 91.1503 421.51 89.7903C422.06 88.6803 423.57 89.3303 424.65 89.2303C425.164 89.212 425.679 89.2287 426.19 89.2803Z" fill="#0D72B9"/>
<path d="M332.47 111.58C334.77 112.58 335.99 114.92 338.1 116.16C339.87 117.91 341.58 119.74 343.45 121.38C344.88 122.63 345.16 123.67 344.03 125.38C338.235 134.16 331.575 142.338 324.15 149.79C322.787 151.077 321.285 152.208 319.67 153.16C318.2 154.185 316.423 154.676 314.636 154.552C312.848 154.428 311.156 153.697 309.84 152.48C307.552 150.668 305.514 148.559 303.78 146.21C299.52 140.277 295.26 134.374 291 128.5C290.32 127.58 289.91 125.85 288.31 126.5C287 127 287.48 128.5 287.48 129.58C287.48 151.34 287.48 173.094 287.48 194.84C287.48 199.64 287.48 199.64 282.72 199.65H223C218.88 199.65 218.87 199.65 218.86 195.48V136.78C218.86 136.05 218.91 135.32 218.86 134.6C218.78 133.71 219.25 132.49 218.21 132.06C216.91 131.52 216.47 132.9 215.89 133.66C210.79 140.36 205.83 147.2 200.11 153.4C193.51 160.56 186.68 160.62 180.11 153.4C169.86 142 161.35 129.25 152.42 116.83C151.32 115.3 151.77 114.45 153.1 113.56C156.22 111.48 159.36 109.43 162.39 107.23C164.25 105.89 165.3 106.14 166.59 108.1C172.34 116.9 178.25 125.6 184.13 134.31C184.74 135.21 185.13 136.41 186.63 136.91C188.8 130.29 190.99 123.72 193.11 117.13C195.23 110.54 197.38 104.07 199.29 97.4803C201.2 90.8903 205.24 87.4803 211.95 86.8303C215.266 86.5248 218.564 86.0475 221.83 85.4003C222.668 85.1548 223.564 85.2035 224.37 85.5383C225.176 85.8731 225.843 86.4737 226.26 87.2403C233.7 97.6603 241.194 108.037 248.74 118.37C251.94 122.79 253.81 122.8 256.98 118.44C264.44 108.17 271.93 97.9103 279.3 87.5703C280.61 85.7303 281.87 84.9503 284.2 85.4603C287.258 86.0873 290.35 86.5347 293.46 86.8003C299.34 87.3703 303.28 90.4403 305.53 95.8003C307.92 101.47 309.27 107.48 311.12 113.33C312.69 118.33 314.12 123.33 315.61 128.27C315.87 129.12 315.8 130.37 316.85 130.55C317.7 130.7 318.14 129.63 318.64 129C323.267 123.18 327.877 117.374 332.47 111.58Z" fill="#D4EDFF"/>
<path d="M122.59 142.92C120.85 146.92 119.59 151.1 116.25 154.15C115.83 155.82 114.25 156.05 113.03 156.66C104.03 161.23 103.83 161.66 106.17 171.29C106.575 173.075 106.826 174.892 106.92 176.72C106.12 178.66 103.86 181.37 105.83 182.53C107.99 183.79 108.83 180.28 110.16 178.76C110.77 178.07 111.37 177.36 111.97 176.66C113.97 177.57 115.77 176.44 117.64 176.04C118.01 177.29 117.08 177.67 116.56 178.19C113.26 181.5 109.86 184.72 106.56 188.07C104.82 189.86 103.32 189.95 101.56 188.16C88.2604 174.826 74.927 161.513 61.5604 148.22C59.8004 146.47 59.7404 144.98 61.5604 143.22C70.9404 133.886 80.2737 124.553 89.5604 115.22C91.1904 113.6 92.5604 113.4 94.3404 115.13C103.747 124.403 113.164 133.666 122.59 142.92Z" fill="#F0F9FF"/>
<path d="M268.63 40.1803C267.99 46.2603 270.31 52.8003 269.78 59.5503C269.544 62.5241 268.457 65.3673 266.65 67.7403C261.93 74.4003 255.55 75.8603 248.05 74.7403C246.481 74.6054 245.007 73.9386 243.87 72.8503C241.696 70.6169 239.52 68.3903 237.34 66.1703C236.529 65.364 236.051 64.2826 236 63.1403C235.92 58.0503 234.84 53.0403 236.55 47.8603C237.55 44.7603 236.81 41.0603 236.82 37.6303C236.82 30.9303 239.09 28.6303 245.77 28.6303C246.705 28.6853 247.644 28.6853 248.58 28.6303C250.35 28.4303 251.03 29.2103 250.99 30.9203C250.9 33.9203 252.36 34.2103 254.77 33.1503C258.01 31.7403 261.28 30.4303 264.57 29.1503C267.3 28.0803 268.5 28.8103 268.65 31.7303C268.73 34.3403 268.63 36.9403 268.63 40.1803Z" fill="#FEFEFE"/>
<path d="M347.45 174.73C335.69 174.73 323.92 174.87 312.16 174.79C307.75 174.79 304.16 172.55 301.25 169.41C297.69 165.61 294.25 161.68 290.73 157.86C290.252 157.387 289.876 156.82 289.625 156.196C289.374 155.572 289.253 154.903 289.27 154.23C289.34 148.23 289.35 142.16 289.38 136.12C291.21 135.21 292.05 136.56 292.91 137.72C296.61 142.72 300.2 147.82 303.91 152.82C305.317 154.879 307.042 156.702 309.02 158.22C311.65 160.1 314.47 160.62 317.17 158.83C321.4 156.03 325.99 155.58 330.86 155.75C335.73 155.92 340.62 155.75 345.5 155.81C346.44 155.81 347.82 155.37 347.77 157.07C347.62 162.96 348.2 168.86 347.45 174.73Z" fill="#D4EDFF"/>
<path d="M216.86 141.75C217.86 147.16 216.17 151.18 211.71 154.64C206.97 158.32 202.77 162.7 198.4 166.85C196.406 168.833 194.032 170.392 191.419 171.434C188.807 172.475 186.011 172.977 183.2 172.91C173.44 172.8 163.67 172.91 153.9 172.91H150C150.724 172.355 151.289 171.619 151.64 170.777C151.991 169.935 152.115 169.015 152 168.11C152 164.26 152.06 160.42 152 156.58C151.95 154.52 152.52 153.58 154.8 153.58C160.93 153.73 167.06 153.69 173.19 153.73C175.532 154.867 177.564 156.555 179.11 158.65C185.95 167.15 195.98 165.65 200.63 159.05C204.55 153.46 209.2 148.35 213.56 143.05C214.39 142 215.21 140.79 216.86 141.75Z" fill="#D4EDFF"/>
<path d="M270.53 45.93C270.53 41.28 270.53 37.06 270.53 32.83C270.53 27.07 268.18 25.58 262.8 27.83C260.3 28.83 257.8 29.83 255.3 30.92C253.93 31.5 252.93 31.66 252.77 29.69C252.59 27.5 251.24 26.69 249.12 26.82C247.36 26.92 245.58 26.82 243.81 26.82C238.5 26.94 235.11 30.31 234.94 35.66C234.83 38.88 234.83 42.1 234.75 45.32C234.75 45.47 234.5 45.61 234.33 45.79C232.9 45.34 232.69 44.11 232.49 42.89C231.83 38.78 231.15 34.68 230.54 30.56C229.17 21.4 233.37 15.24 242.63 14.56C252.16 13.86 261.77 14.29 271.34 14.31C273.84 14.31 274.92 16.21 274.8 18.31C274.37 26.51 273.73 34.7 273.08 42.88C273 43.99 272.37 45.04 270.53 45.93Z" fill="#F2C94C"/>
<path d="M356.23 165.21C356.23 157.98 356.23 157.93 363.62 158C368.26 158 372.76 157.7 376.74 154.92C377.45 154.43 378.46 153.72 379.23 154.75C379.565 155.228 379.698 155.819 379.598 156.394C379.499 156.969 379.176 157.482 378.7 157.82C376.62 159.82 373.99 160.82 371.38 161.82C370.51 162.16 369.65 162.54 368.78 162.82C368.26 163.01 367.78 163.28 367.78 163.82C367.78 164.36 368.21 164.68 368.72 164.88C375.29 167.53 385.56 167.82 390.17 162.61C391.578 160.913 393.431 159.643 395.52 158.94C396.34 158.69 397.21 158.34 397.85 159.08C398.66 160.02 397.56 160.52 397.13 161.08C393.86 165.68 389.27 168.42 384.4 171.2C377.54 175.12 370.92 175.93 363.68 173.2C363.284 173.071 362.88 172.967 362.47 172.89C356.23 171.6 356.23 171.6 356.23 165.21Z" fill="white"/>
<path d="M136.34 76.1201C136.283 74.2476 136.506 72.3771 137 70.5701C138.535 66.7234 139.545 62.6869 140 58.5701C140.35 55.4501 141.55 54.7901 144.72 55.1801C147.72 55.5401 150.67 55.8901 153.63 56.3501C156.13 56.7301 157.34 58.1801 156.98 60.6801C156.43 64.6201 155.91 68.5401 156.79 72.4901C156.947 75.0248 156.551 77.5635 155.63 79.9301C154.58 81.2001 155.28 83.9301 152.51 83.7701C149.02 81.4001 147.51 81.7701 145.51 85.5001C144.889 86.0463 144.486 86.7984 144.376 87.6179C144.266 88.4374 144.455 89.2692 144.91 89.9601V91.1301C142.91 93.3301 140.81 93.7101 138.01 92.4601C135.73 91.4601 135.95 89.4601 136.24 87.6701C136.832 83.8452 136.865 79.9546 136.34 76.1201Z" fill="#FEFEFE"/>
<path d="M339 114.79C335.26 111.95 335.17 108.64 336.69 104.32C339.91 95.1505 339.89 94.8805 349.59 94.8905C351.255 94.7997 352.925 94.7997 354.59 94.8905C355.59 95.0005 357.2 94.1905 357.36 95.8905C357.431 96.2804 357.42 96.6809 357.327 97.0663C357.234 97.4516 357.061 97.8132 356.82 98.1278C356.579 98.4424 356.275 98.703 355.927 98.8929C355.579 99.0828 355.195 99.1978 354.8 99.2305C352.12 99.5805 349.44 99.9105 346.75 100.13C344.69 100.3 343.75 100.83 345.24 102.91C345.542 103.342 345.753 103.831 345.859 104.347C345.966 104.862 345.966 105.395 345.86 105.91C345.7 106.81 345.66 107.77 346.78 107.79C347.9 107.81 347.46 106.53 347.78 105.87C347.86 105.69 347.78 105.46 347.83 105.25C348.03 104.25 346.7 102.77 348.04 102.15C349.63 101.42 350.27 103.26 351.21 104.15C352.76 105.53 354.06 107.15 355.67 108.5C357.67 110.1 357.11 111.1 355.48 112.6C352.48 115.32 348.88 116.44 345.26 117.73C344.697 117.972 344.146 118.243 343.61 118.54L339 114.79Z" fill="#FEFEFE"/>
<path d="M156.13 94.2498C156.423 94.3576 156.702 94.5021 156.96 94.6798C163.96 102.41 163.77 103.89 155.1 109.74C151 112.5 151 112.5 147.93 108.5C145.71 105.61 143.47 102.74 141.28 99.8298C140.83 99.2298 139.87 98.6898 140.46 97.7198C140.82 97.1198 141.53 97.1998 142.16 97.2398C143.01 97.2998 143.9 97.3098 143.72 98.5798C143.62 99.2798 143.77 99.8798 144.63 99.8398C145.49 99.7998 145.53 99.1198 145.63 98.4898C146.25 94.5898 146.89 90.6898 147.52 86.7898C147.7 85.6698 147.72 84.2598 149.24 84.2598C151.03 84.2598 151.34 85.7198 151.35 87.1498C151.499 89.7463 151.452 92.3503 151.21 94.9398C150.72 98.2698 153.01 100.05 154.61 102.26C154.9 102.66 155.31 103.06 155.91 102.61C156.51 102.16 156.68 101.76 156.23 101.32C153.77 98.9398 156.25 96.7198 156.13 94.2498Z" fill="#FDFDFD"/>
<path d="M216.86 141.75C212.32 146.32 208.86 151.75 204.55 156.54C203.1 158.15 201.82 159.93 200.41 161.54C195.31 167.48 186.52 167.76 180.13 161.97C177.428 159.54 175.073 156.75 173.13 153.68C176.13 153.09 178.33 154.13 180.55 156.33C186.46 162.17 194.69 161.9 200.41 155.85C205.47 150.5 209.83 144.55 214.36 138.76C214.93 138.04 215.36 137.13 216.51 136.64C217.32 138.36 216.87 140.08 216.86 141.75Z" fill="#01518A"/>
<path d="M141.32 161.58C140.74 161.73 139.83 161.71 139.62 162.07C137.45 165.99 133.69 166.07 130.09 165.7C125.62 165.24 122.32 166.49 119.77 170.25C118.657 172.014 117.164 173.507 115.4 174.62C114.938 174.976 114.356 175.139 113.777 175.076C113.197 175.012 112.665 174.727 112.29 174.28C111.42 173.28 112.19 172.57 112.73 171.83C114.95 168.83 117 165.68 119.44 162.83C125.24 156.16 132.68 154.04 141.28 155.59C141.77 157.555 141.784 159.609 141.32 161.58Z" fill="#F2F2F2"/>
<path d="M256.73 101.26C258.53 103.41 259.73 102.26 260.73 100.49C263.43 95.9503 266.29 91.4903 268.73 86.8103C270.01 84.3703 271.49 83.5503 274.07 84.2503C275.43 84.6303 276.86 84.7803 278.65 85.1003C272.89 93.1003 267.33 100.78 261.72 108.46C260.14 110.62 258.84 113.01 256.72 114.78C253.2 113.27 254.08 109.84 253.57 107.14C253.17 105.04 253.31 102.74 255.47 101.31C255.66 101.199 255.874 101.137 256.094 101.128C256.314 101.119 256.532 101.165 256.73 101.26Z" fill="#FDFDFD"/>
<path d="M248.82 114.81L227.19 85.3101C229.47 84.1201 231.79 84.3701 233.92 83.8401C235.12 83.5501 235.43 84.6901 235.92 85.4701C238.92 90.4701 241.92 95.4701 244.8 100.47C245.8 102.12 246.8 103.24 248.65 101.63C250.39 101.22 251.18 102.39 251.58 103.68C252.74 107.41 251.85 110.95 250.19 114.34C250.055 114.568 249.843 114.74 249.592 114.826C249.341 114.912 249.067 114.907 248.82 114.81Z" fill="#FDFDFD"/>
<path d="M347.45 174.73C347.45 169.64 347.4 164.55 347.45 159.46C347.5 157.11 346.65 156.05 344.19 156.09C338.27 156.18 332.35 156.16 326.43 156.09C324.552 156.172 322.759 156.896 321.35 158.14C314.12 163.47 309.35 162.78 303.92 155.49C299.7 149.82 295.62 144.06 291.45 138.37C290.797 137.572 290.092 136.817 289.34 136.11V130.82C290.7 130.82 290.98 131.88 291.49 132.56C295.183 137.594 298.85 142.647 302.49 147.72C304.262 150.166 306.393 152.33 308.81 154.14C309.934 155.005 311.225 155.629 312.602 155.973C313.978 156.317 315.411 156.374 316.81 156.14C326.34 154.8 335.91 155.77 345.47 155.49C346.8 155.49 348.06 155.62 348.05 157.39C348.05 162.904 348.013 168.414 347.94 173.92C347.92 174.21 347.62 174.5 347.45 174.73Z" fill="#01518A"/>
<path d="M247 100.39C243.4 94.3104 240.08 88.7304 236.81 83.1104C236.3 82.2504 238.65 77.4704 239.57 77.3504C240.28 77.2504 240.64 77.8804 241.02 78.3504C244.28 82.1204 247.49 85.9304 250.78 89.6804C251.101 90.0108 251.299 90.442 251.339 90.9012C251.379 91.3604 251.259 91.8194 251 92.2004C249.75 94.6704 248.55 97.1904 247 100.39Z" fill="#FDFDFD"/>
<path d="M265.71 76.9805C269.64 81.7305 269.64 81.7305 266.71 86.6705L258.58 100.36C257.04 97.2105 255.75 94.5605 254.44 91.9105C254.233 91.5577 254.154 91.1444 254.216 90.7401C254.278 90.3358 254.477 89.9651 254.78 89.6905C258.44 85.5005 262.05 81.2405 265.71 76.9805Z" fill="#FDFDFD"/>
<path d="M241.93 74.5602C249.35 77.7302 256.45 77.9602 263.58 74.2402C263.794 74.7409 263.854 75.2945 263.751 75.8294C263.647 76.3643 263.386 76.8558 263 77.2402C260 80.6602 257 84.1402 254 87.6202C253.24 88.5102 252.68 89.0802 251.62 87.8102C248.62 84.2002 245.56 80.6902 242.49 77.1602C242.165 76.821 241.941 76.3984 241.842 75.9394C241.743 75.4804 241.774 75.003 241.93 74.5602Z" fill="#FDFDFD"/>
<path d="M123.72 80.1997C120.08 75.5497 116.47 70.8697 112.78 66.2597C111.84 65.0797 111.95 64.4097 113.14 63.5197C117.53 60.2197 121.86 56.8297 126.2 53.5197C126.91 52.9697 127.53 52.4597 128.28 53.4397C130.68 56.5697 133.13 59.6497 135.45 62.8297C135.8 63.2997 135.55 64.2197 135.57 64.9297C135.512 65.1619 135.401 65.3777 135.247 65.5607C135.093 65.7437 134.899 65.889 134.68 65.9855C134.461 66.082 134.222 66.1271 133.983 66.1174C133.744 66.1078 133.51 66.0435 133.3 65.9297C131.86 64.1897 129.99 62.8697 128.64 61.0397C127.64 59.6497 126.26 59.5597 124.77 60.2797C122.771 61.3732 121.039 62.8965 119.7 64.7397C118.84 65.7397 119.29 66.9297 119.99 67.8897C121.34 69.7097 122.26 71.8097 123.85 73.4597C124.11 74.7597 124.31 76.0697 124.6 77.3597C124.85 78.4097 125 79.4997 123.72 80.1997Z" fill="#219653"/>
<path d="M248.82 114.81C249.722 112.051 250.316 109.2 250.59 106.31C250.651 105.423 250.502 104.534 250.155 103.716C249.807 102.897 249.271 102.172 248.59 101.6L252.59 93.1904C254.218 95.7428 255.597 98.4451 256.71 101.26C253.38 105.78 255.82 110.26 256.77 114.78C256.77 114.88 256.77 115.01 256.77 115.08C253.5 121.01 252.62 120.97 248.82 114.81Z" fill="#5AC4B0"/>
<path d="M156.81 72.5003C154.57 69.1303 154.61 65.5003 155.5 61.7303C156.1 59.1703 155.26 57.8103 152.5 57.6303C149.899 57.4835 147.313 57.1493 144.76 56.6303C142.3 56.1203 141.44 57.2303 141.44 59.3503C141.49 61.4227 141.123 63.4839 140.36 65.4114C139.597 67.3389 138.454 69.0933 137 70.5703C137.6 65.3203 138.23 60.0803 138.79 54.8203C138.95 53.3103 139.79 52.9103 141.11 53.0803C146.36 53.7503 151.61 54.4303 156.86 55.0803C158.93 55.3403 158.93 56.7303 158.73 58.2803L156.81 72.5003Z" fill="#219653"/>
<path d="M150.13 162.08C150.13 163.32 150.13 164.57 150.13 165.81C150.13 169.97 148.93 170.81 144.74 169.96C143.37 169.68 143.47 168.82 143.47 167.91C143.47 163.97 143.47 160.03 143.47 156.09C143.47 152.9 145.9 154.39 147.33 154.17C148.76 153.95 150.33 153.79 150.16 156.17C150 158.13 150.13 160.11 150.13 162.08Z" fill="#EFEFEF"/>
<path d="M136.34 76.1201C138.172 79.221 138.795 82.8884 138.09 86.4201C137.23 91.0801 138.09 91.8601 142.95 91.7501C143.675 91.779 144.385 91.5446 144.95 91.0901C144.08 95.5101 144.08 95.5101 139.55 94.9601C133.88 94.2601 133.77 94.2501 134.48 88.6701C135 84.5001 135.23 80.2301 136.34 76.1201Z" fill="#219653"/>
<path d="M354.35 166.29C354.35 168.06 354.35 169.83 354.35 171.6C354.35 173.1 354.55 174.36 352.24 174.4C349.93 174.44 349.82 173.25 349.85 171.52C349.91 167.88 349.97 164.24 349.85 160.6C349.78 158.6 350.79 158.51 352.33 158.46C354.06 158.41 354.47 159.13 354.39 160.68C354.27 162.55 354.35 164.42 354.35 166.29Z" fill="#F2F2F2"/>
<path d="M233.18 52.8498C233.33 54.4998 233.46 55.6298 233.53 56.7598C233.53 57.4298 233.97 58.3298 232.9 58.5198C232.536 58.5802 232.161 58.5139 231.839 58.332C231.517 58.1501 231.267 57.8635 231.13 57.5198C229.771 54.0694 229.091 50.3884 229.13 46.6798C229.132 46.3091 229.245 45.9475 229.456 45.6423C229.667 45.3372 229.964 45.1028 230.31 44.9698C231.25 44.7298 231.31 45.8498 231.75 46.3098C233.83 48.3098 232.8 50.9898 233.18 52.8498Z" fill="#F7F7F7"/>
<path d="M271.86 54.6201C272.72 51.8601 271.52 48.5701 273.79 45.8601C275.11 44.2801 275.9 45.0701 276.08 46.2901C276.66 50.2901 275.56 54.0801 274.03 57.7301C273.887 58.0157 273.654 58.246 273.366 58.3852C273.079 58.5245 272.753 58.5648 272.44 58.5001C271.54 58.3201 271.91 57.5001 271.87 56.9901C271.83 56.2601 271.86 55.5001 271.86 54.6201Z" fill="#F9F9F9"/>
<path d="M141.32 161.58V155.58C142.06 158.84 141.58 162.15 141.59 165.44C141.59 167 137.18 170.09 134.82 170.35C133.798 170.405 132.773 170.405 131.75 170.35C131.38 168.02 132.66 167.61 134.52 167.35C138.78 166.89 140.67 165.15 141.32 161.58Z" fill="#E9E9E9"/>
<path d="M132.51 152.98C130.24 152.98 127.97 152.91 125.71 152.98C123.95 152.98 123.38 152.44 124.41 150.81C125.23 149.51 126 148.18 126.79 146.81C128.61 148.95 131 150.5 132.51 152.98Z" fill="#F0F9FF"/>
<path d="M124.42 81.1299C127.21 82.4199 129.6 84.8299 133.06 84.2999C132.83 86.2999 132.59 88.3599 132.24 91.3899L124.42 81.1299Z" fill="#219653"/>
<path d="M152.53 83.7297C153.17 82.1197 154.53 81.0696 155.65 79.8896C155.65 85.2696 154.41 90.4796 153.65 95.7796C152.58 91.7996 154 87.6297 152.53 83.7297Z" fill="#219653"/>
<path d="M123.88 175.12C125.17 173.12 126.88 171.28 126.25 168.38C125.99 167.11 127.88 167.76 128.8 167.66C129.43 167.6 130.27 167.92 129.8 168.71C128.54 171.06 127.44 173.57 125.36 175.38C125 175.72 124.41 175.58 123.88 175.12Z" fill="#DDDDDD"/>
<path d="M393 157.14C391 159.76 388.35 161.63 385.43 163.95C386.82 158.33 389.69 155.88 393 157.14Z" fill="white"/>
<path d="M123.35 169.23C124.35 169.23 124.58 169.79 124.44 170.29C124.31 170.997 124 171.659 123.54 172.21C122.42 173.27 121.94 175.33 119.77 174.9C119.33 174.81 118.99 174.33 119.28 173.98C120.64 172.31 122.07 170.7 123.35 169.23Z" fill="#E5E5E5"/>
<path d="M145 89.92C142.47 87.56 142.61 86.53 145.6 85.46C145.681 86.9711 145.478 88.4841 145 89.92Z" fill="#219653"/>
<path d="M384.15 160.74C383.59 163.07 381.78 163.91 379.93 165.03C380.78 162.14 381.31 161.6 384.15 160.74Z" fill="white"/>
<path d="M120.7 158.76C121.12 156.27 122.13 154.7 124.99 156.01L120.7 158.76Z" fill="white"/>
<path d="M431.74 25.5005C432.6 28.0405 431.83 29.0105 429.02 28.9805C416.754 28.8738 404.487 28.8738 392.22 28.9805C389.6 28.9805 388.49 28.3305 388.57 25.4905C388.76 19.4905 388.74 13.4305 388.57 7.40045C388.51 4.76045 389.5 4.03045 392.02 4.04045C406.47 4.13045 420.92 4.04045 435.37 4.12045C436.82 4.12045 439.14 3.20045 439.29 5.82045C439.42 8.11045 440.52 10.9805 437.11 12.1405C436.82 12.2405 436.54 12.3805 436.25 12.5005C432.15 8.27045 426.88 9.74045 421.95 9.62045C420.39 9.37045 419.55 7.95045 418.15 7.38045C414.75 5.99045 411.69 6.74045 408.74 8.50045C408.08 8.89045 407.56 9.50045 406.74 9.50045C403.55 9.38045 400.37 9.60045 397.2 9.73045C396.406 9.71706 395.64 10.019 395.068 10.5701C394.496 11.1212 394.166 11.8765 394.15 12.6705C393.925 15.3557 393.925 18.0552 394.15 20.7405C394.145 21.1608 394.225 21.5778 394.386 21.9662C394.546 22.3545 394.785 22.7059 395.086 22.9989C395.388 23.2919 395.746 23.5203 396.139 23.6702C396.531 23.82 396.95 23.8882 397.37 23.8705C400.46 23.9405 403.54 24.3305 406.63 24.1105C409.06 24.7105 410.95 26.6805 413.72 26.6005C415.906 26.6637 418.065 26.1203 419.96 25.0305C420.69 24.5505 421.34 23.8805 422.35 24.1605C424.35 24.5305 426.23 23.8105 428.18 24.0305C429.51 24.1805 430.84 24.2505 431.74 25.5005Z" fill="#219653"/>
<path d="M451.93 21.4997C451.92 22.6944 451.672 23.8752 451.2 24.9731C450.729 26.071 450.044 27.064 449.185 27.8943C448.325 28.7246 447.309 29.3756 446.196 29.8091C445.083 30.2427 443.894 30.4503 442.7 30.4197C440.348 30.2946 438.129 29.2873 436.487 27.5987C434.845 25.9101 433.899 23.6644 433.84 21.3097C433.931 18.9011 434.96 16.6235 436.706 14.9626C438.453 13.3018 440.78 12.3893 443.19 12.4197C445.545 12.4877 447.78 13.4768 449.414 15.1745C451.049 16.8723 451.952 19.1433 451.93 21.4997Z" fill="#F2C94C"/>
<path d="M431.74 25.5C428.46 25.08 425.11 25.92 421.86 24.96C421.27 23.96 421.98 23.41 422.51 22.67C423.78 21.052 424.489 19.0649 424.531 17.0085C424.572 14.9521 423.944 12.938 422.74 11.27C422.407 10.9161 422.16 10.4903 422.018 10.0256C421.876 9.56087 421.843 9.06971 421.92 8.59003C426.07 7.67003 430.29 8.07003 434.46 8.29003C437.1 8.43003 435.74 11.04 436.26 12.5L433.15 16.25C429.09 16.71 431.77 19.03 431.94 20.65L431.74 25.5Z" fill="white"/>
<path d="M451 34.3C449.49 38.4 446.41 40.52 442.78 40.44C439.15 40.36 436 38.04 434.27 33.5C439.89 37.95 445.34 38.5 451 34.3Z" fill="#F2C94C"/>
<path d="M434.69 39.3102C440.11 43.1802 445.45 43.4802 450.88 39.1602C450.567 40.6991 449.774 42.099 448.615 43.159C447.456 44.2191 445.991 44.8846 444.43 45.0602C440.33 45.7602 437.14 44.0002 434.69 39.3102Z" fill="#F2C94C"/>
<path d="M451 29.2501C449.87 32.8901 447.31 34.9801 443.74 35.2501C439.43 35.5101 436.44 33.4801 434.29 29.0801C437.29 30.7101 439.77 32.4101 442.9 32.4001C446.03 32.3901 448.38 30.9201 451 29.2501Z" fill="#F2C94C"/>
<path d="M431.94 20.63C431.383 20.3848 430.804 20.1939 430.21 20.06C429.634 20.0661 429.072 19.8824 428.612 19.5371C428.151 19.1918 427.816 18.7043 427.66 18.15C427.503 17.6468 427.516 17.1059 427.696 16.6106C427.877 16.1154 428.216 15.6934 428.66 15.41C429.131 15.0808 429.691 14.9043 430.265 14.9043C430.839 14.9043 431.4 15.0808 431.87 15.41C432.31 15.68 432.73 15.99 433.16 16.27L431.94 20.63Z" fill="#219653"/>
<path d="M355 93.13C352.196 92.9702 349.384 92.9702 346.58 93.13C343.78 93.41 341.94 92.35 340.12 90.38C336.94 86.95 333.56 83.7 330.2 80.38C329.2 79.38 328.69 78.74 329.98 77.45C345.053 62.47 360.077 47.47 375.05 32.45C376.05 31.45 376.68 31.34 377.77 32.45C389.503 44.2633 401.283 56.0367 413.11 67.77C414.28 68.93 413.93 69.52 412.98 70.47C397.947 85.47 382.927 100.47 367.92 115.47C367.1 116.3 366.53 116.75 365.46 115.65C361.04 111.11 356.53 106.65 351.61 101.75C356.24 101.27 359.86 100.17 359.2 94.88C360.55 93.8 360.58 93.76 361.84 94.88C363.92 96.81 365.84 98.88 367.92 100.88C359.86 93.15 352.22 85 344.13 77.3C341.79 75.06 341.77 74.14 344.04 71.95C352.6 63.74 360.81 55.17 368.04 48.07C360.58 55.44 352.04 64.17 343.33 72.67C341.77 74.17 342.12 75.41 343.46 76.67C347.98 80.93 352.32 85.37 356.67 89.81C357.45 90.61 358.9 91.32 358.29 92.6C357.68 93.88 356.16 93.24 355 93.13Z" fill="#FEFEFE"/>
<path d="M355 93.1302H358C357.59 91.5002 356.38 90.8002 355.49 89.9102C351.03 85.3902 346.57 80.9102 342 76.4502C340.53 75.0302 340.58 74.1202 342 72.7002C351.55 63.2602 361 53.7002 370.53 44.2602C371.18 43.6102 371.95 42.1302 372.98 43.2602C374.01 44.3902 372.52 45.0702 371.84 45.7502C362.95 54.6702 354.1 63.6502 345.08 72.4302C343.14 74.3202 343.37 75.2102 345.16 76.9502C353.36 84.9502 361.4 93.1002 369.5 101.2C370.02 101.71 370.5 102.2 371.04 102.75C371.58 103.3 372.23 103.87 371.45 104.57C370.67 105.27 370.12 104.51 369.62 104.01C366.81 101.23 364.06 98.3802 361.18 95.6802C360.74 95.2602 360.44 93.5402 359.18 94.8702C358.16 93.3802 356.32 93.8702 355 93.1302Z" fill="#050505"/>
<path d="M432 155.38C439.17 155.38 446.35 155.48 453.52 155.38C456.2 155.32 456.52 156.15 455.61 158.38C454.578 161.211 453.132 163.873 451.32 166.28C449.59 168.48 447.92 170.57 444.46 169.61C442.55 169.08 440.6 169.61 440.65 172.33C440.65 173.75 439.72 173.99 438.65 174.22C434.784 175.09 430.775 175.111 426.9 174.28C425.14 173.9 423.51 173.7 423.5 171.17C423.5 169.62 421.81 169.27 420.6 169.59C417.1 170.49 415.23 168.28 413.31 166.08C411.312 163.681 409.736 160.958 408.65 158.03C407.87 156.03 408.12 155.3 410.47 155.34C417.69 155.5 424.86 155.38 432 155.38Z" fill="#F2994A"/>
<path d="M456.7 162.59C456.7 170.12 456.76 177.66 456.7 185.2C456.7 187.37 454.87 187.34 453.25 187.34H419.25C416.44 187.34 413.63 187.34 410.82 187.34C409.11 187.34 407.91 186.81 407.91 184.92C407.91 177.54 407.91 170.16 408.24 162.58C410.525 165.989 413.29 169.051 416.45 171.67C417.51 172.54 416.86 174.04 416.9 175.24C416.95 176.68 417.06 178.19 418.77 178.35C420.48 178.51 422.88 179.35 423.63 176.92C424.14 175.26 424.81 175.74 425.83 175.98C429.996 176.964 434.324 177.036 438.52 176.19C439.52 175.99 440.42 175.78 441.08 177.12C442.18 179.32 444.37 178.56 446.08 178.31C447.79 178.06 447.57 176.36 447.65 175.02C447.7 174.02 447.23 172.87 448.25 172.11C451.62 169.5 454.17 166.21 456.7 162.59Z" fill="#FEFEFE"/>
<path d="M432.11 153.5C430.04 153.5 427.96 153.5 425.88 153.5C424.32 153.5 423.99 152.93 424.8 151.65C425.562 150.338 426.66 149.252 427.98 148.503C429.3 147.754 430.795 147.369 432.312 147.387C433.83 147.406 435.315 147.827 436.617 148.607C437.918 149.388 438.989 150.5 439.72 151.83C440.42 153 440.02 153.53 438.66 153.5C436.48 153.5 434.3 153.5 432.11 153.5Z" fill="#F9F9F9"/>
<path d="M445.74 173.91C445.66 175.32 446.07 176.79 444.01 176.64C441.95 176.49 442.62 174.97 442.54 173.87C442.45 172.62 442.34 171.29 444.29 171.37C446.44 171.5 445.38 173.16 445.74 173.91Z" fill="#E4E4E4"/>
<path d="M421.83 174.01C421.56 174.86 422.57 176.47 420.44 176.62C418.31 176.77 418.64 175.38 418.73 174.19C418.82 173 418.04 171.57 420.12 171.42C422.2 171.27 421.85 172.63 421.83 174.01Z" fill="#F8F8F8"/>
<path d="M81.9199 17.9501C87.2299 17.9501 92.5399 18.0101 97.8399 17.9501C99.5699 17.9501 100.22 18.4101 100.18 20.2201C100.07 24.6901 100.06 29.2201 100.18 33.6401C100.18 35.4901 99.4699 36.0601 97.7999 35.8801C97.3838 35.8501 96.966 35.8501 96.5499 35.8801C91.1099 35.8801 89.2799 37.5801 89.4799 42.8801C89.5899 45.6901 88.8499 46.6301 85.9299 46.5201C79.6899 46.3001 73.4399 46.4001 67.1999 46.5201C64.4499 46.5201 63.1999 45.4301 63.2599 42.6201C63.3399 35.2401 63.3699 27.8501 63.2599 20.4701C63.2599 18.2301 64.1599 17.9201 66.0299 17.9501C71.3099 18.0101 76.6199 17.9501 81.9199 17.9501Z" fill="#FEFEFE"/>
<path d="M81.6301 16.0695H66.0001C64.6101 16.0695 63.2001 16.1695 63.2401 14.0695C63.2401 12.2795 63.1301 10.4295 65.4101 9.80951C65.8116 9.70498 66.2253 9.65454 66.6401 9.65951C76.6401 9.65951 86.6134 9.65951 96.5601 9.65951C98.2501 9.65951 99.6201 10.1195 100.02 12.0595C100.65 15.0595 99.9601 16.0595 96.8601 16.0595C91.8101 16.0895 86.7201 16.0695 81.6301 16.0695Z" fill="#0D72B9"/>
<path d="M99.6395 39.8301C101.05 45.5201 99.4795 47.1801 93.5195 46.1501C95.2524 43.7663 97.3127 41.6387 99.6395 39.8301Z" fill="#919191"/>
<path d="M98.4896 37.8705L91.4896 44.1405C91.1096 42.6405 90.7797 40.6405 92.2597 38.9605C93.7397 37.2805 95.9996 37.7105 98.4896 37.8705Z" fill="#F2F2F2"/>
<path d="M61.0005 118.72C57.2358 118.89 53.48 118.227 50.0005 116.78C47.3824 115.688 45.1933 113.77 43.767 111.319C42.3407 108.867 41.7554 106.016 42.1005 103.2C42.6643 97.2365 45.2425 91.6427 49.4105 87.3402C51.6505 84.9802 54.2205 83.4302 57.6905 83.9302C58.9299 84.1202 60.191 84.1202 61.4305 83.9302C66.9605 83.0102 70.4905 85.9302 73.4905 89.9302C76.5888 94.0236 78.3864 98.9532 78.6505 104.08C79.0605 111.89 73.3805 117.44 64.0905 118.49C62.8505 118.69 61.5905 118.69 61.0005 118.72Z" fill="white"/>
<path d="M71.62 72.5897C66.45 81.6897 54.09 81.5297 49.29 72.9497C52.07 71.2797 64.14 72.2197 71.62 72.5897Z" fill="white"/>
<path d="M60.3601 81.8396C64.9109 81.8396 68.6001 81.665 68.6001 81.4496C68.6001 81.2342 64.9109 81.0596 60.3601 81.0596C55.8093 81.0596 52.1201 81.2342 52.1201 81.4496C52.1201 81.665 55.8093 81.8396 60.3601 81.8396Z" fill="black"/>
<path d="M288.89 61.6501C288.969 58.8365 289.837 56.1019 291.397 53.7588C292.957 51.4157 295.144 49.5587 297.71 48.4001C299.49 47.6601 300.51 47.8601 300.6 49.9801C300.6 50.2901 300.67 50.6001 300.72 50.9101C302.49 62.1501 302.44 62.1201 295.62 71.0501C294.31 72.7801 293.57 72.5301 292.37 71.1101C290.234 68.4068 289.015 65.0932 288.89 61.6501Z" fill="#F2C94C"/>
<path d="M318.11 61.6203C318.11 65.1503 317.84 65.3603 314.49 64.3303C303.9 61.0703 303.99 61.0603 302.49 50.2603C302.1 47.5203 303.05 47.0803 305.42 47.3203C312.29 48.0103 318.08 54.5003 318.11 61.6203Z" fill="#2D9CDB"/>
<path d="M303.3 63.6602C305.13 67.1802 306.71 70.3001 308.38 73.3801C309.13 74.7701 308.83 75.3802 307.3 75.7602C304.062 76.6295 300.623 76.3613 297.56 75.0002C296.47 74.5102 295.76 74.0002 296.74 72.7402C298.91 69.8502 301 66.8902 303.3 63.6602Z" fill="#EB5757"/>
<path d="M305.46 63.5C309.3 64.73 312.53 65.75 315.74 66.81C316.118 66.9286 316.434 67.1907 316.62 67.54C317.04 68.83 312.32 74.13 311.11 73.72C310.71 73.58 310.38 73.03 310.11 72.59C308.67 69.78 307.23 66.95 305.46 63.5Z" fill="#F2994A"/>
<path d="M204.45 43.9917C204.45 48.5617 204.37 53.1417 204.45 57.7117C204.5 59.7117 203.98 60.4917 201.85 60.4517C195.71 60.3317 189.58 60.3517 183.44 60.4517C181.56 60.4517 180.87 59.8317 180.88 57.9317C180.94 48.5984 180.94 39.2417 180.88 29.8617C180.88 27.9617 181.5 27.3617 183.4 27.3917C189.54 27.4984 195.677 27.4984 201.81 27.3917C203.81 27.3917 204.54 27.8617 204.47 29.9617C204.34 34.6117 204.45 39.3117 204.45 43.9917Z" fill="#FEFEFE"/>
<path d="M395.21 135.44C395.17 138.967 393.732 142.333 391.212 144.801C388.693 147.268 385.296 148.635 381.77 148.6C380.011 148.605 378.268 148.258 376.645 147.58C375.022 146.903 373.55 145.908 372.316 144.655C371.082 143.401 370.11 141.914 369.458 140.28C368.806 138.646 368.487 136.899 368.519 135.14C368.551 133.381 368.933 131.647 369.644 130.038C370.355 128.429 371.38 126.978 372.659 125.77C373.938 124.562 375.444 123.621 377.091 123.003C378.738 122.385 380.492 122.102 382.25 122.17C385.723 122.228 389.032 123.654 391.459 126.139C393.886 128.624 395.234 131.967 395.21 135.44Z" fill="#F2C94C"/>
<path d="M382 117.22C382.533 117.183 383.068 117.183 383.6 117.22C384.31 117.34 385.49 116.87 385.42 118.22C385.42 119.17 384.42 118.98 383.71 119.05C383.303 119.115 382.888 119.115 382.48 119.05C381.24 118.76 378.99 119.83 378.98 118.05C379 116.5 381.27 117.7 382 117.22Z" fill="#F2C94C"/>
<path d="M450.68 96.4295C450.686 97.7966 450.423 99.1514 449.905 100.417C449.388 101.682 448.626 102.833 447.663 103.804C446.701 104.775 445.557 105.546 444.296 106.075C443.035 106.604 441.683 106.879 440.315 106.885C438.948 106.89 437.594 106.627 436.328 106.109C435.063 105.592 433.912 104.83 432.941 103.867C431.97 102.905 431.199 101.761 430.67 100.5C430.141 99.2391 429.866 97.8866 429.86 96.5195C429.855 95.1525 430.118 93.7976 430.636 92.5324C431.153 91.2671 431.915 90.1162 432.878 89.1454C433.84 88.1745 434.984 87.4028 436.245 86.8742C437.506 86.3456 438.858 86.0705 440.225 86.0646C441.593 86.0586 442.947 86.3221 444.213 86.8397C445.478 87.3574 446.629 88.1193 447.6 89.0817C448.57 90.0442 449.342 91.1885 449.871 92.4492C450.399 93.71 450.675 95.0625 450.68 96.4295Z" fill="#FDFDFD"/>
<path d="M428.15 87.3396C426.77 83.6896 427.41 79.9396 427.53 76.2096C429.83 74.4596 432.43 75.2996 434.9 75.4696C436.12 75.5596 436.31 76.6996 436.4 77.9996C436.55 80.1096 436.33 82.2696 436.95 84.3396C435.009 85.1334 433.178 86.1718 431.5 87.4296C430.37 87.8696 429.23 88.4996 428.15 87.3396Z" fill="#0D72B9"/>
<path d="M444.94 76.1604C445.53 79.0304 445.94 81.9004 445.04 84.7804C442.552 84.1982 439.988 84.0025 437.44 84.2004C435.77 81.8804 436.74 79.3104 436.78 76.8304C436.798 76.4585 436.952 76.1061 437.211 75.8392C437.471 75.5723 437.819 75.4091 438.19 75.3804C440.45 75.4404 442.86 74.5004 444.94 76.1604Z" fill="#0D72B9"/>
<path d="M444.94 76.1605C435.94 76.0605 437.69 75.5705 437.44 84.1605C437.292 84.2487 437.123 84.2969 436.95 84.3005C435.03 83.3005 435.54 81.4105 435.63 79.8605C435.79 77.0605 434.75 75.7805 431.88 76.0705C430.44 76.2105 428.98 76.1405 427.53 76.1705C427.74 75.5005 427.95 74.8305 428.17 74.1705C430.995 72.3283 433.227 69.7102 434.6 66.6305C434.872 66.1974 435.209 65.8094 435.6 65.4805H437.5C438.157 65.9959 438.59 66.7442 438.71 67.5705C438.56 71.5705 441.13 72.8405 444.36 73.5705C444.81 74.3556 445.012 75.2584 444.94 76.1605Z" fill="white"/>
<path d="M449.76 104.85C450.145 105.052 450.509 105.29 450.85 105.56C452.47 107.153 454.074 108.753 455.66 110.36C456.2 110.91 456.61 111.62 456.06 112.28C455.27 113.22 454.56 112.45 453.99 111.9C452.43 110.4 450.92 108.9 449.4 107.32C448.98 106.89 448.48 106.4 448.87 105.72C449.129 105.393 449.428 105.101 449.76 104.85Z" fill="#0D72B9"/>
<path d="M428.15 87.3398L431.5 87.4298L428.8 91.2798L428.15 87.3398Z" fill="white"/>
<path d="M90.6298 94.2202C91.1098 92.3502 92.5198 91.4002 94.0498 90.4102C96.2298 89.0102 96.1798 87.1902 94.0498 85.7502C93.0314 85.2401 92.1319 84.5211 91.4098 83.6402C90.7316 82.7079 90.2869 81.6266 90.1129 80.4869C89.9389 79.3472 90.0407 78.1824 90.4098 77.0902C91.1098 75.3202 93.3598 76.5202 94.9098 76.2702C95.622 76.1202 96.3577 76.1202 97.0698 76.2702C98.6998 76.7002 101.26 74.9802 101.87 77.4602C102.54 80.1602 102.27 83.0502 99.5998 85.0402C95.7698 87.8802 95.7698 88.4102 99.5098 91.0402C102.51 93.1702 102.11 96.2102 101.95 99.2302C100.87 99.8802 100.09 99.0102 99.1798 98.7002C97.4031 97.9868 95.424 97.9618 93.6298 98.6302C90.3798 99.8902 90.3298 99.7902 90.3798 96.2602C90.3798 95.6102 90.1598 94.8702 90.6298 94.2202Z" fill="#F1F1F1"/>
<path d="M90.6304 94.2197C90.6304 94.5297 90.6304 94.8397 90.6804 95.1497C90.6804 96.2597 90.1004 97.8197 91.0504 98.3797C92.3604 99.1497 93.2304 97.5597 94.0504 96.7797C95.4804 95.4497 96.6604 95.5197 98.1204 96.6997C99.3104 97.6997 100.3 98.9597 101.93 99.2797C98.3404 100.6 94.6304 99.6997 90.9304 99.7497C89.5804 99.7497 90.0204 98.3597 89.9304 97.5097C89.7537 96.3644 90.0028 95.1939 90.6304 94.2197Z" fill="#F2C94C"/>
<path d="M116.79 155.99C117.79 158.99 114.99 160.65 114.39 163.08C109.45 163.64 110.67 167.99 109.57 170.92C109.333 172.181 108.669 173.321 107.69 174.15C105.2 170.94 105 167.1 104.91 163.29C104.91 162.08 105.91 161.1 106.91 160.29C109.405 158.396 112.156 156.864 115.08 155.74C115.359 155.612 115.669 155.568 115.972 155.612C116.275 155.657 116.56 155.788 116.79 155.99Z" fill="#F0F0F0"/>
<path d="M116.79 155.99C113.81 157.217 110.939 158.695 108.21 160.41C107.216 160.894 106.43 161.722 105.998 162.74C105.566 163.759 105.517 164.899 105.86 165.95C106.49 168.68 107.08 171.42 107.69 174.15L106.92 176.72C104.99 172.79 104.35 168.53 103.83 164.28C103.54 161.89 104.97 160.11 106.91 158.93C109.85 157.019 112.98 155.417 116.25 154.15C117.05 154.58 116.67 155.36 116.79 155.99Z" fill="#0D72B9"/>
<path d="M109.57 170.92C109.51 170 109.44 169.08 109.4 168.16C109.2 163.61 109.79 163.02 114.4 163.08C111.3 164.78 111.7 168.62 109.57 170.92Z" fill="#0D72B9"/>
<path d="M435.59 65.5V67.05C435.46 74.71 436.79 74.32 428.17 74.19C429.24 70.11 430.82 66.5 435.59 65.5Z" fill="#0D72B9"/>
<path d="M444.35 73.6298C443.703 73.8831 443.033 74.074 442.35 74.1998C438.06 74.6198 437.52 74.1198 437.5 69.8598C437.5 68.4198 437.5 66.9898 437.5 65.5498C441.68 66.6298 443.11 70.0498 444.35 73.6298Z" fill="#0D72B9"/>
<path d="M136 123.17C136 124.17 135.67 125.17 134.52 125.23C133.37 125.29 132.88 124.45 132.83 123.43C132.78 122.41 133.15 121.5 134.28 121.43C135.41 121.36 135.85 122.19 136 123.17Z" fill="white"/>
<path d="M120.92 116.29C121.13 115.29 121.28 114.1 122.64 114.17C123.74 114.22 124.07 115.28 124.11 116.24C124.17 117.36 123.78 118.39 122.43 118.34C121.29 118.3 121 117.33 120.92 116.29Z" fill="white"/>
<path d="M285.68 131.66C285.68 135.14 283.56 137.54 280.3 137.66C279.572 137.682 278.847 137.556 278.168 137.29C277.49 137.023 276.872 136.623 276.353 136.112C275.833 135.601 275.422 134.99 275.145 134.316C274.868 133.642 274.73 132.919 274.74 132.19C274.666 131.413 274.756 130.629 275.004 129.89C275.253 129.15 275.654 128.471 276.182 127.896C276.71 127.322 277.354 126.865 278.07 126.555C278.786 126.246 279.56 126.091 280.34 126.1C283.53 126.08 285.64 128.29 285.68 131.66Z" fill="#0D72B9"/>
<path d="M261.85 126.04C262.66 126.25 264.13 125.66 264.23 127.15C264.33 128.64 262.91 128.03 262.11 128.15C259.92 128.36 258.68 129.47 258.6 131.71C258.52 134.12 259.74 135.32 262.12 135.53C262.92 135.6 264.33 135.13 264.12 136.65C263.96 137.81 262.68 137.65 261.8 137.65C261.022 137.732 260.236 137.649 259.493 137.407C258.749 137.165 258.065 136.769 257.484 136.246C256.904 135.723 256.439 135.084 256.122 134.369C255.804 133.655 255.639 132.882 255.64 132.1C255.619 131.286 255.767 130.477 256.074 129.722C256.381 128.968 256.84 128.285 257.423 127.716C258.006 127.147 258.7 126.705 259.462 126.417C260.223 126.128 261.036 126 261.85 126.04Z" fill="#0D72B9"/>
<path d="M266.24 131.68V130.44C266.24 126.27 267.9 125.03 271.91 126.17C272.43 126.32 272.91 126.44 272.99 127.07C273.08 127.85 272.57 128.12 271.92 128.32C270.92 128.63 269.23 127.94 269.18 129.57C269.13 131.02 270.73 130.57 271.63 130.79C272.27 130.97 272.85 131.19 272.82 131.97C272.79 132.75 272.15 132.97 271.52 132.97C269.52 132.8 268.7 133.73 268.8 135.69C268.8 136.57 268.55 137.39 267.4 137.28C266.25 137.17 266.3 136.28 266.27 135.42C266.27 134.18 266.27 132.94 266.27 131.7L266.24 131.68Z" fill="#0D72B9"/>
<path d="M108.82 137.57C108.75 138.48 108.12 138.91 107.62 139.41C100.127 146.904 92.637 154.39 85.1504 161.87C84.5304 162.48 83.7904 163.7 82.9004 162.87C81.8204 161.87 83.1503 161.05 83.8203 160.38C91.2203 152.947 98.6337 145.534 106.06 138.14C106.69 137.51 107.23 136.57 108.37 136.93C108.59 136.97 108.7 137.38 108.82 137.57Z" fill="#333333"/>
<path d="M97.4503 126.32C96.9703 126.9 96.5503 127.48 96.0503 127.98C88.5637 135.48 81.0637 142.987 73.5503 150.5C72.9603 151.09 72.3203 152.35 71.3103 151.39C70.3003 150.43 71.5903 149.75 72.1503 149.18C79.6903 141.593 87.257 134.023 94.8503 126.47C95.4103 125.91 95.9003 125.04 96.9103 125.55C97.1403 125.62 97.2303 125.97 97.4503 126.32Z" fill="#333333"/>
<path d="M77.9399 157.34C76.9399 157.34 76.5299 156.91 76.8799 156.18C77.239 155.547 77.7021 154.979 78.2499 154.5C85.5832 147.167 92.9166 139.833 100.25 132.5C100.659 132.036 101.126 131.626 101.64 131.28C101.816 131.193 102.009 131.148 102.205 131.148C102.401 131.148 102.594 131.193 102.77 131.28C103.34 131.65 103.08 132.18 102.77 132.6C102.46 133.02 102.07 133.36 101.7 133.73L79.4399 155.99C78.9399 156.5 78.3899 156.94 77.9399 157.34Z" fill="#333333"/>
<path d="M108.8 149.03C108.8 149.96 108.16 150.38 107.66 150.88C102.1 156.46 96.5304 162.027 90.9504 167.58C90.2604 168.26 89.4304 169.58 88.4404 168.43C87.6104 167.5 88.9604 166.84 89.5504 166.24C95.1037 160.654 100.67 155.087 106.25 149.54C106.81 148.98 107.25 148.12 108.25 148.42C108.51 148.5 108.66 148.85 108.8 149.03Z" fill="#333333"/>
<path d="M151.35 76.3899C149.61 75.7999 148.35 74.9499 146.86 77.1299C145.21 79.5799 141.86 79.0499 140.47 76.4399C140.04 75.6499 140.08 74.5899 138.98 74.2199C138.6 74.0999 138.3 73.3199 138.59 73.2199C140.59 72.7999 140.82 70.2199 142.74 69.8299C143.52 69.6499 144.54 69.2099 144.93 70.2399C145.4 71.5199 144.06 71.3099 143.43 71.6699C143.198 71.7458 143.003 71.9035 142.879 72.1133C142.756 72.3232 142.713 72.5709 142.76 72.8099C144.37 73.2099 145.7 73.5599 147.07 71.6499C148.6 69.5099 151.69 69.9799 153.13 72.2199C153.29 72.4799 153.54 72.7899 153.52 73.0599C153.4 74.4399 155.94 75.0599 155.19 75.5599C153.8 76.5599 153.11 78.0899 151.68 78.8699C150.77 79.3599 149.44 79.8699 148.92 78.7699C148.3 77.4299 149.92 77.6199 150.63 77.1999C150.87 77.0899 151 76.7899 151.35 76.3899Z" fill="#333333"/>
<path d="M151.16 61.5701C151.18 61.8577 151.142 62.1464 151.048 62.4189C150.954 62.6915 150.806 62.9422 150.612 63.1561C150.419 63.37 150.185 63.5426 149.923 63.6635C149.661 63.7845 149.378 63.8514 149.09 63.8601C148.806 63.9151 148.514 63.9082 148.233 63.8396C147.953 63.7711 147.691 63.6426 147.464 63.463C147.238 63.2834 147.054 63.057 146.923 62.7993C146.793 62.5416 146.72 62.2587 146.71 61.9701C146.633 61.6601 146.632 61.3362 146.706 61.0257C146.781 60.7151 146.928 60.4269 147.137 60.1851C147.345 59.9433 147.609 59.7549 147.905 59.6357C148.201 59.5166 148.522 59.47 148.84 59.5001C149.42 59.4726 149.989 59.6741 150.422 60.0611C150.856 60.4482 151.121 60.99 151.16 61.5701Z" fill="#219653"/>
<path d="M133.78 64.8903C128.04 64.8903 124.26 67.5303 122.59 73.0803C120.21 71.5003 119 68.8603 117.2 66.7003C116.2 65.5003 116.83 64.5603 117.81 63.7903C120.33 61.7903 122.93 59.9003 125.43 57.8803C126.89 56.7103 127.88 57.2903 128.83 58.5003L133.78 64.8903Z" fill="#F2F2F2"/>
<path d="M406.87 24.8896C402.76 25.8896 398.6 25.2596 394.46 25.2896C392.99 25.2896 392.56 24.2896 392.56 22.9496C392.56 18.7896 392.56 14.6296 392.56 10.4696C392.56 9.36959 392.75 8.20959 394.14 8.22959C398.37 8.22959 402.63 7.54959 406.83 8.65959C407.012 8.91754 407.1 9.2307 407.078 9.546C407.056 9.86129 406.926 10.1593 406.71 10.3896C403.58 14.6596 404.1 18.9396 406.65 23.1996C406.828 23.4388 406.942 23.7198 406.981 24.0158C407.019 24.3118 406.981 24.6127 406.87 24.8896Z" fill="white"/>
<path d="M406.87 24.8897C402.29 18.9897 402.28 14.3797 406.87 8.65973C412.38 4.70973 416.47 4.65973 421.96 8.56973C426.74 14.1097 426.72 19.3797 421.9 24.9397C416.5 28.6297 412.56 28.6197 406.87 24.8897Z" fill="#040404"/>
<path d="M444.3 18.5905C443.73 19.9505 444.36 20.5905 445.5 21.3205C448.01 22.9505 447.72 24.7305 445.5 26.7805C443.59 28.5805 442.28 28.5405 440.5 26.7805C439.61 25.9105 437.97 25.1505 438.74 23.9605C439.67 22.5205 440.5 24.6005 441.74 24.8605C442.42 23.3105 442.22 22.3905 440.59 21.4605C438.07 20.0205 438.07 17.9505 440.33 16.2805C443.15 14.1905 443.15 14.1905 445.81 16.4905C446.54 17.1305 447.46 17.9605 446.94 18.8305C446.17 20.1105 445.22 18.6305 444.3 18.5905Z" fill="#333333"/>
<path d="M387.84 85.4196C387.799 85.8032 387.678 86.1738 387.483 86.5066C387.288 86.8394 387.025 87.1268 386.71 87.3496C382.97 91.0996 379.16 94.7796 375.5 98.6096C373.5 100.69 372.5 99.0296 371.22 97.8496C369.94 96.6696 368.88 95.5696 370.73 93.8496C374.5 90.2796 378.09 86.5196 381.79 82.8496C382.47 82.1796 383.14 80.8496 384.33 81.7196C385.787 82.6444 386.993 83.9155 387.84 85.4196Z" fill="#EB5757"/>
<path d="M385.11 64.3199L399.65 70.3199C394.8 72.3199 390.47 74.2099 386.1 75.9599C384.72 76.5099 384.77 75.2599 384.9 74.5299C385.46 71.3999 383.82 70.9199 381.22 71.1099C378.62 71.2999 376.22 71.1099 373.73 71.1699C372.02 71.2399 371.35 70.6599 371.28 68.8699C371.18 66.5499 372.48 63.4499 370.62 62.1099C369.09 61.0199 366.19 61.9599 363.92 61.7299C362.44 61.5799 359.83 62.7999 359.74 60.7299C359.68 59.1599 362.36 60.0299 363.8 59.9299C366.18 59.7699 368.59 59.9299 370.98 59.8699C372.52 59.8099 373.39 60.2599 373.21 61.9599C373.19 62.2696 373.19 62.5802 373.21 62.8899C373.29 69.2599 373.29 69.2599 379.81 69.2599C380.223 69.2298 380.637 69.2298 381.05 69.2599C383.82 69.6899 385.5 68.9799 384.89 65.7299C384.896 65.2518 384.971 64.7771 385.11 64.3199Z" fill="#333333"/>
<path d="M377.46 82.0905C377.039 82.7316 376.578 83.3461 376.08 83.9305C373.52 86.5205 370.87 89.0205 368.38 91.6805C366.54 93.6805 365.54 92.1505 364.38 90.9805C363.22 89.8105 361.78 88.7405 363.71 86.9805C366.22 84.6405 368.56 82.1305 371.02 79.7305C371.71 79.0605 372.39 77.7305 373.57 78.6005C374.932 79.6888 376.231 80.854 377.46 82.0905Z" fill="#27AE60"/>
<path d="M357.35 65.1504C358.954 65.9887 360.309 67.2336 361.28 68.7604C362.12 69.9504 360.82 70.6104 360.16 71.3004C358.16 73.3904 356.01 75.3804 354.01 77.4904C352.01 79.6004 351.13 77.6904 350.01 76.6104C348.89 75.5304 347.45 74.6104 349.28 72.8304C351.54 70.6904 353.69 68.4304 355.91 66.2404C356.362 65.842 356.844 65.4776 357.35 65.1504Z" fill="#27AE60"/>
<path d="M366.05 79.17C365.18 81.05 363.34 82.05 362.18 83.61C360.31 86.13 358.79 85.79 356.83 83.61C355.45 82.05 355.04 81.02 356.83 79.61C357.96 78.69 358.83 77.54 359.95 76.61C360.67 75.95 361.35 74.67 362.52 75.43C364.014 76.3337 365.235 77.6264 366.05 79.17Z" fill="#EB5757"/>
<path d="M76.9999 34.0396C78.1099 35.0896 80.3999 33.8896 80.2499 35.5296C80.0999 37.1696 78.0299 36.2396 76.8299 36.5296C76.3114 36.5846 75.7884 36.5846 75.2699 36.5296C74.5499 36.5296 73.6699 36.6396 73.2699 35.8996C72.8699 35.1596 73.7099 34.6196 74.1599 34.0896C75.2266 32.8162 76.3032 31.5529 77.3899 30.2996C78.2899 29.2496 78.6999 28.0896 77.7999 26.9096C76.8999 25.7296 75.7999 25.9096 74.6799 26.4296C73.9599 26.7496 73.1099 27.6096 72.6799 26.4296C72.2499 25.2496 73.4399 24.8096 74.2299 24.4896C75.0228 24.0788 75.9286 23.9395 76.8083 24.093C77.688 24.2465 78.493 24.6845 79.0999 25.3396C79.7977 25.9875 80.2415 26.8631 80.3515 27.8089C80.4615 28.7548 80.2304 29.7088 79.6999 30.4996C78.869 31.7307 77.9675 32.9127 76.9999 34.0396Z" fill="#333333"/>
<path d="M89.1199 26.0803C87.0699 26.0803 85.6199 26.0803 84.1799 26.0803C83.3299 26.0803 81.9999 26.4303 82.0399 25.0303C82.0399 23.8603 83.2999 24.2603 84.0399 24.2203C85.3899 24.1503 86.7499 24.2203 88.0999 24.2203C90.8599 24.2203 91.7699 25.7603 90.2299 28.1503C88.8098 30.2017 87.7605 32.4863 87.1299 34.9003C86.9999 35.5003 86.9999 36.5003 85.9199 36.2703C84.8399 36.0403 85.1499 34.9803 85.2999 34.2003C85.8299 31.4203 87.2699 29.0203 89.1199 26.0803Z" fill="#333333"/>
<path d="M58.7796 105.37C59.0396 103.26 58.5496 102.2 56.8396 101.55C54.6896 100.73 53.7696 98.8597 53.8396 96.5497C53.9096 94.2397 54.8896 92.4397 57.1096 91.7797C58.4796 91.3697 59.3496 89.0197 60.7896 90.1597C62.5696 91.5497 65.2596 91.5797 66.3296 93.9297C66.6296 94.5797 67.0896 95.3097 66.3296 95.9297C66.0636 96.0957 65.7487 96.1653 65.4375 96.1271C65.1263 96.0889 64.8376 95.9451 64.6196 95.7197C63.7096 95.0297 62.6896 92.8197 61.6896 95.0397C61.0096 96.5297 60.4996 99.0397 63.3796 99.8597C64.4142 100.06 65.3429 100.623 65.9978 101.449C66.6526 102.274 66.9903 103.307 66.9496 104.36C67.0096 106.89 66.0596 108.98 63.5996 109.74C62.1796 110.19 61.1796 112.35 59.9496 111.56C58.3996 110.56 56.5596 110.05 55.2096 108.77C54.4496 108.05 53.5596 107.02 54.2596 106.07C55.1396 104.87 56.0396 105.83 56.7696 106.63C57.1896 107.1 57.7696 107.63 58.3796 107.21C59.1996 106.65 58.6696 105.66 58.7796 105.37Z" fill="#219653"/>
<path d="M192.2 36.1616C190.13 36.1616 188.05 36.0716 185.99 36.1616C183.49 36.3016 182.42 35.3516 182.45 32.7516C182.48 30.1516 182.95 28.6116 186.02 28.6116C190.47 28.7416 194.93 28.7316 199.38 28.6116C202.21 28.5416 202.53 30.1516 202.53 32.4016C202.53 34.6516 202.15 36.2816 199.35 36.1516C196.95 36.0716 194.58 36.1616 192.2 36.1616Z" fill="#C9E2F2"/>
<path d="M196.65 58.6109C195.2 58.6109 193.76 58.6109 192.31 58.6109C191.38 58.6109 190.68 58.2109 190.69 57.1609C190.681 56.9769 190.711 56.7932 190.778 56.6216C190.845 56.4501 190.948 56.2946 191.079 56.1653C191.21 56.0361 191.367 55.9359 191.54 55.8714C191.712 55.8068 191.896 55.7794 192.08 55.7909C195.18 55.7909 198.28 55.7909 201.38 55.7909C201.59 55.7733 201.802 55.8046 201.998 55.8824C202.195 55.9601 202.37 56.0821 202.512 56.239C202.653 56.3958 202.756 56.5832 202.813 56.7864C202.87 56.9897 202.879 57.2034 202.84 57.4109C202.75 58.3209 202.08 58.5809 201.3 58.6009C199.75 58.6109 198.2 58.6109 196.65 58.6109Z" fill="#2D9CDB"/>
<path d="M192.64 44.4014C193.87 44.5114 195.23 44.4014 195.25 46.0114C195.27 47.6214 194.05 47.4914 193.01 47.4714C191.97 47.4514 190.48 47.7914 190.35 46.1214C190.22 44.4514 191.62 44.5314 192.64 44.4014Z" fill="#2D9CDB"/>
<path d="M192.88 53.121C191.83 53.001 190.36 53.351 190.34 51.651C190.32 49.951 191.7 50.061 192.83 50.061C193.96 50.061 195.31 50.061 195.25 51.731C195.19 53.221 193.95 53.031 192.88 53.121Z" fill="#2D9CDB"/>
<path d="M192.82 42.2811C191.52 42.1711 190.17 42.1711 190.36 40.5111C190.55 38.8511 191.99 39.2511 193.07 39.2211C194.15 39.1911 195.33 39.2211 195.26 40.7311C195.18 42.3711 193.78 42.1411 192.82 42.2811Z" fill="#2D9CDB"/>
<path d="M185.031 58.6612C183.981 58.5812 182.691 58.7312 182.741 57.2212C182.791 55.7112 184.181 55.7012 185.301 55.7012C186.421 55.7012 187.511 55.8312 187.381 57.3312C187.251 58.8312 185.951 58.5412 185.031 58.6612Z" fill="#2D9CDB"/>
<path d="M184.95 53.1009C183.84 53.0309 182.61 53.0409 182.73 51.5509C182.85 50.0609 184.25 50.0909 185.38 50.0909C186.38 50.0909 187.38 50.2309 187.38 51.5109C187.39 53.2309 186.02 53.0009 184.95 53.1009Z" fill="#2D9CDB"/>
<path d="M184.841 47.4817C183.691 47.4017 182.541 47.2817 182.761 45.7917C182.981 44.3017 184.191 44.4717 185.211 44.4717C186.231 44.4717 187.471 44.4717 187.381 46.0217C187.281 47.7217 185.851 47.3517 184.841 47.4817Z" fill="#2D9CDB"/>
<path d="M185.13 42.2616C184.03 42.1416 182.65 42.2616 182.75 40.5616C182.83 39.0716 184.12 39.2316 185.13 39.2316C186.14 39.2316 187.38 39.2316 187.39 40.7116C187.4 42.1916 186.21 42.1716 185.13 42.2616Z" fill="#2D9CDB"/>
<path d="M200.47 47.4815C199.47 47.3915 198.16 47.4815 198.23 45.9915C198.3 44.5015 199.67 44.4715 200.79 44.4815C201.91 44.4915 202.98 44.7315 202.79 46.1715C202.6 47.6115 201.44 47.3815 200.47 47.4815Z" fill="#2D9CDB"/>
<path d="M200.62 53.1116C199.44 53.0016 198.16 53.1116 198.23 51.6116C198.3 50.1116 199.67 50.1016 200.79 50.1016C201.91 50.1016 202.97 50.3416 202.85 51.7816C202.73 53.2216 201.42 52.9516 200.62 53.1116Z" fill="#2D9CDB"/>
<path d="M200.46 42.2409C199.46 42.1209 198.19 42.1009 198.23 40.6609C198.28 38.9609 199.72 39.2609 200.79 39.2309C201.86 39.2009 203.01 39.3609 202.79 40.8609C202.57 42.3609 201.47 42.1509 200.46 42.2409Z" fill="#2D9CDB"/>
<path d="M393.07 135.5C393.095 136.981 392.82 138.45 392.264 139.822C391.707 141.193 390.879 142.438 389.829 143.482C388.78 144.526 387.53 145.347 386.156 145.897C384.781 146.446 383.31 146.713 381.83 146.68C378.831 146.62 375.978 145.376 373.893 143.22C371.808 141.063 370.66 138.17 370.7 135.17C370.736 133.69 371.066 132.231 371.672 130.88C372.277 129.528 373.145 128.311 374.226 127.298C375.306 126.285 376.578 125.498 377.966 124.982C379.354 124.465 380.831 124.23 382.31 124.29C388.64 124.35 393.13 129.03 393.07 135.5Z" fill="#FEFEFE"/>
<path d="M440.2 104.84C439.079 104.863 437.965 104.656 436.927 104.229C435.89 103.803 434.952 103.167 434.171 102.362C433.39 101.557 432.784 100.6 432.39 99.5498C431.996 98.4999 431.822 97.3799 431.88 96.2599C431.972 94.0825 432.907 92.0262 434.487 90.5251C436.067 89.024 438.168 88.1957 440.348 88.2152C442.527 88.2346 444.613 89.1003 446.166 90.6294C447.719 92.1585 448.617 94.2312 448.67 96.41C448.707 97.5302 448.512 98.6461 448.099 99.688C447.685 100.73 447.062 101.676 446.268 102.466C445.473 103.257 444.525 103.876 443.481 104.284C442.437 104.693 441.32 104.882 440.2 104.84Z" fill="#DCDCDC"/>
<path d="M283.001 131.85C282.761 133.57 282.45 135.39 280.33 135.43C278.02 135.43 277.501 133.66 277.531 131.77C277.561 129.88 278.01 128.22 280.09 128.16C282.41 128.11 282.731 130.08 283.001 131.85Z" fill="#D4EDFF"/>
<path d="M142 75.0002C143.37 75.0002 144.5 74.6302 145.33 75.6602C145.4 75.7402 145.02 76.4002 144.74 76.5202C143.52 77.0602 142.65 76.6102 142 75.0002Z" fill="white"/>
<path d="M124.88 61.8799C125.165 61.862 125.45 61.9053 125.717 62.0068C125.983 62.1083 126.225 62.2657 126.426 62.4684C126.627 62.6711 126.782 62.9144 126.881 63.182C126.98 63.4496 127.02 63.7353 127 64.0199C127.023 64.3067 126.982 64.595 126.879 64.864C126.777 65.1329 126.616 65.3757 126.408 65.5749C126.201 65.774 125.951 65.9244 125.678 66.0152C125.405 66.106 125.115 66.1349 124.83 66.0999C123.49 66.0999 122.63 65.4199 122.68 64.0999C122.672 63.8078 122.723 63.5172 122.83 63.2454C122.938 62.9737 123.099 62.7266 123.305 62.5191C123.51 62.3116 123.756 62.1479 124.027 62.038C124.297 61.9282 124.588 61.8744 124.88 61.8799Z" fill="#219653"/>
<path d="M398.53 14.5898C400.46 14.8698 401.3 15.8698 401.19 17.5898C401.196 17.9325 401.126 18.2722 400.984 18.5841C400.842 18.896 400.632 19.1719 400.369 19.3917C400.106 19.6115 399.797 19.7694 399.465 19.8539C399.133 19.9384 398.786 19.9473 398.45 19.8798C398.108 19.8942 397.767 19.8371 397.449 19.7122C397.13 19.5874 396.841 19.3975 396.6 19.1547C396.36 18.9119 396.172 18.6216 396.05 18.3022C395.927 17.9828 395.873 17.6414 395.89 17.2998C395.86 15.5598 397.13 14.8498 398.53 14.5898Z" fill="#219653"/>
<path d="M415.29 25.9098C414.347 26.1495 413.351 26.0685 412.46 25.6798C412.39 24.6198 411.46 24.2298 410.78 23.7798C408.85 22.5398 407.86 21.0598 409.53 18.9898C410.17 18.2098 409.77 17.7598 409.47 17.0998C407.39 12.3498 410.38 8.09976 415.7 8.29976C416.476 8.88813 417.302 9.40682 418.17 9.84976C419.67 10.8498 420.609 12.3098 419.829 14.0298C419.552 14.5999 419.421 15.2301 419.447 15.8637C419.473 16.4972 419.656 17.1144 419.98 17.6598C421.08 20.0598 420.39 21.9798 418.21 23.5898C417.21 24.3298 415.92 24.7098 415.29 25.9098Z" fill="#333333"/>
<path d="M415.51 8.83971C414.318 9.02709 413.198 9.52766 412.263 10.2902C411.328 11.0528 410.613 12.0499 410.19 13.1797C410.033 13.5972 409.962 14.0422 409.982 14.4879C410.002 14.9335 410.112 15.3704 410.306 15.7723C410.499 16.1742 410.772 16.5328 411.108 16.8262C411.444 17.1197 411.836 17.342 412.26 17.4797C414.37 18.3897 413.35 19.9897 413.59 21.5497C413.03 21.3597 412.74 21.2897 412.48 21.1697C411.67 20.7797 412.18 19.1697 410.79 19.3097C410.58 19.3274 410.385 19.424 410.244 19.5799C410.103 19.7358 410.027 19.9395 410.03 20.1497C410.012 20.6692 410.123 21.1852 410.353 21.6512C410.584 22.1172 410.926 22.5187 411.35 22.8197C411.82 23.1897 412.51 23.3097 412.96 23.7097C413.96 24.6097 414.17 25.4097 412.46 25.7097C407.14 23.4997 405.05 20.4597 405.51 15.5897C405.761 13.6155 406.654 11.7783 408.05 10.3602C409.447 8.94213 411.27 8.02152 413.24 7.73971C414.245 7.45375 415.321 7.57219 416.24 8.06971C416.217 8.25941 416.134 8.43671 416.002 8.57538C415.871 8.71405 415.698 8.80673 415.51 8.83971Z" fill="white"/>
<path d="M415.51 8.84004L416.25 8.04004C418.199 8.38681 419.978 9.37164 421.307 10.8397C422.635 12.3078 423.438 14.1758 423.59 16.15C423.658 18.0307 423.154 19.8879 422.146 21.4768C421.137 23.0656 419.671 24.3114 417.94 25.05C417.08 25.4 416.17 25.62 415.29 25.91C415.239 25.3588 415.357 24.8053 415.626 24.3218C415.895 23.8383 416.304 23.4473 416.8 23.2C419.8 21.27 419.8 18.01 416.72 16.4C414.56 15.29 415.8 13.96 415.66 12.58C415.936 12.61 416.208 12.6738 416.47 12.77C417.19 13.27 416.93 14.72 418.21 14.62C418.45 14.62 418.82 14.06 418.85 13.74C418.896 13.222 418.807 12.7007 418.592 12.2273C418.376 11.754 418.041 11.3448 417.62 11.04C416.83 10.4 415.2 10.5 415.51 8.84004Z" fill="white"/>
<path d="M394.6 70.3601C392.47 71.2501 391 71.7301 389.67 72.4501C387.13 73.8401 386.74 72.8701 386.67 70.3601C386.57 67.2901 387.61 67.1101 389.94 68.3601C391.18 69.0201 392.55 69.5001 394.6 70.3601Z" fill="#333333"/>
<path d="M61.3096 105.12C61.5096 104.02 61.0796 102.64 62.5996 102.57C63.8496 102.51 64.3996 103.5 64.3796 104.66C64.3596 105.82 63.8396 107.05 62.4996 107.1C61.1596 107.15 61.5996 105.77 61.3096 105.12Z" fill="#F3F3F3"/>
<path d="M58.8998 96.4103C58.6298 97.2803 59.3498 98.7903 57.8998 98.8603C56.6998 98.9203 56.3998 97.6403 56.3898 96.5603C56.3798 95.4803 56.7498 94.5603 57.7798 94.4303C59.2498 94.2503 58.6798 95.6103 58.8998 96.4103Z" fill="#FAFAFA"/>
<path d="M381.7 129.5C383.35 131.18 382.35 133.55 384.41 134.35C385.92 134.93 387.75 133.88 389.55 135.77C386.972 135.946 384.443 136.558 382.07 137.58C380.59 138.25 378.99 135.97 380.02 134.58C381.05 133.19 381.24 131.57 381.7 129.5Z" fill="#333333"/>
<path d="M439.92 90.8099C437.529 91.9891 435.677 94.0343 434.74 96.5299C434 92.9199 436.08 90.6699 439.92 90.8099Z" fill="#F9F9F9"/>
<path d="M133.78 64.8903C134.04 65.0797 134.353 65.1817 134.675 65.1817C134.997 65.1817 135.31 65.0797 135.57 64.8903C135.57 67.0103 135.06 68.5603 132.57 69.1703C130.88 69.5903 130.35 71.2703 130.62 72.9903C130.89 74.7103 130.07 75.4703 128.62 75.8503C127.5 75.1003 129.86 73.1803 127.86 73.1603C126.16 73.1603 126.12 74.9203 126.25 76.3203C126.57 79.7303 128.88 80.9103 133.34 79.8103C133.77 81.3603 133.05 82.8103 133.03 84.3103C131.49 86.1403 129.93 85.7903 128.18 84.5203C126.8 83.5203 126.22 81.76 124.7 80.93C124.501 80.8674 124.326 80.7441 124.201 80.5773C124.075 80.4106 124.005 80.2087 124 80C123.65 77.62 122.25 75.5703 122.56 73.0903C121.46 70.5603 122.48 68.7303 124.56 67.2503C125.48 66.5803 126.46 65.9803 127.34 65.2503C129.42 63.5703 131.53 63.3203 133.78 64.8903Z" fill="white"/>
<path d="M135.57 64.8896C135.57 65.1221 135.564 65.3476 135.549 65.5658C135.495 66.9764 135.338 69.3114 135 71C134.6 73 133.727 77.7064 133.34 79.8096C128.88 80.9096 126.57 79.7296 126.25 76.3196C126.12 74.9196 126.16 73.1597 127.86 73.1597C129.86 73.1797 127.5 75.0996 128.62 75.8496C130.07 75.4696 130.89 74.7096 130.62 72.9896C130.35 71.2696 130.88 69.5896 132.57 69.1696C134.787 68.6265 135.434 67.3382 135.549 65.5658C135.56 65.3057 135.566 65.077 135.57 64.8896Z" fill="#333333"/>
</g>
<defs>
<clipPath id="clip0_48_945">
<rect width="501" height="201" fill="white" transform="translate(0 0.5)"/>
</clipPath>
</defs>
</svg>
