<svg width="438" height="376" viewBox="0 0 438 376" fill="none" xmlns="http://www.w3.org/2000/svg">
<rect x="1.91821" y="39.2905" width="230" height="188" rx="28.5" transform="rotate(-9.40018 1.91821 39.2905)" stroke="#0D72B9" stroke-width="3"/>
<rect width="25" height="100" transform="matrix(-0.986572 0.163329 0.163329 0.986572 198.938 50.7656)" fill="#219653"/>
<rect width="25" height="53" transform="matrix(-0.986572 0.163329 0.163329 0.986572 164.191 104.158)" fill="#219653"/>
<rect width="25" height="25" transform="matrix(-0.986572 0.163329 0.163329 0.986572 126.342 138.805)" fill="#219653"/>
<rect width="25" height="10" transform="matrix(-0.986572 0.163329 0.163329 0.986572 86.3691 160.626)" fill="#219653"/>
<rect x="301.658" y="104.649" width="142" height="188" rx="28.5" transform="rotate(18.7814 301.658 104.649)" stroke="#0D72B9" stroke-width="3"/>
<path d="M386.585 232.288C389.054 225.027 389.82 217.295 388.823 209.691C387.826 202.087 385.094 194.814 380.836 188.434C376.579 182.055 370.911 176.741 364.271 172.902C357.632 169.064 350.198 166.805 342.545 166.299C334.892 165.793 327.226 167.054 320.139 169.986C313.052 172.917 306.734 177.439 301.674 183.202C296.614 188.965 292.947 195.816 290.958 203.223C288.969 210.63 288.711 218.395 290.203 225.918L339.248 216.19L386.585 232.288Z" fill="#219653"/>
<path d="M290.203 225.918C291.91 234.527 295.854 242.535 301.637 249.137C307.421 255.739 314.84 260.702 323.15 263.528L339.248 216.19L290.203 225.918Z" fill="#0D72B9"/>
<path d="M348.975 265.235C357.584 263.527 365.592 259.583 372.194 253.8C378.796 248.017 383.759 240.597 386.585 232.288L339.248 216.19L348.975 265.235Z" fill="#5AC4B0"/>
<path d="M323.15 263.528C331.459 266.353 340.366 266.942 348.975 265.235L339.248 216.19L323.15 263.528Z" fill="#0D72B9"/>
<rect x="68.7266" y="254.246" width="142" height="120" rx="28.5" stroke="#0D72B9" stroke-width="3"/>
<path d="M98.0234 279.449C98.7214 279.449 99.3411 279.582 99.8828 279.847C100.43 280.113 100.859 280.503 101.172 281.019C101.484 281.535 101.641 282.17 101.641 282.925C101.641 283.748 101.469 284.459 101.125 285.058C100.786 285.652 100.279 286.108 99.6016 286.425C98.9297 286.743 98.0911 286.902 97.0859 286.902C96.487 286.902 95.9219 286.85 95.3906 286.746C94.8646 286.647 94.4036 286.493 94.0078 286.285V284.199C94.4036 284.407 94.8776 284.584 95.4297 284.73C95.987 284.871 96.5104 284.941 97 284.941C97.4792 284.941 97.8828 284.878 98.2109 284.753C98.5391 284.623 98.7865 284.425 98.9531 284.16C99.125 283.889 99.2109 283.545 99.2109 283.128C99.2109 282.571 99.0234 282.144 98.6484 281.847C98.2734 281.55 97.6979 281.402 96.9219 281.402C96.625 281.402 96.3151 281.431 95.9922 281.488C95.6745 281.545 95.4089 281.602 95.1953 281.66L94.2344 281.144L94.6641 275.324H100.859V277.371H96.7812L96.5703 279.613C96.7474 279.576 96.9401 279.54 97.1484 279.503C97.3568 279.467 97.6484 279.449 98.0234 279.449ZM105.57 275.16C106.466 275.16 107.146 275.472 107.609 276.097C108.073 276.722 108.305 277.6 108.305 278.73C108.305 279.86 108.086 280.743 107.648 281.378C107.211 282.014 106.518 282.332 105.57 282.332C104.69 282.332 104.021 282.014 103.562 281.378C103.104 280.743 102.875 279.86 102.875 278.73C102.875 277.6 103.089 276.722 103.516 276.097C103.948 275.472 104.633 275.16 105.57 275.16ZM105.586 276.792C105.331 276.792 105.143 276.954 105.023 277.277C104.904 277.6 104.844 278.089 104.844 278.746C104.844 279.402 104.904 279.894 105.023 280.222C105.143 280.55 105.331 280.714 105.586 280.714C105.841 280.714 106.029 280.553 106.148 280.23C106.273 279.902 106.336 279.407 106.336 278.746C106.336 278.089 106.273 277.6 106.148 277.277C106.029 276.954 105.841 276.792 105.586 276.792ZM113.68 275.324L107.344 286.746H105.469L111.805 275.324H113.68ZM113.57 279.722C114.466 279.722 115.146 280.035 115.609 280.66C116.073 281.285 116.305 282.162 116.305 283.292C116.305 284.417 116.086 285.298 115.648 285.933C115.211 286.569 114.518 286.886 113.57 286.886C112.69 286.886 112.021 286.569 111.562 285.933C111.104 285.298 110.875 284.417 110.875 283.292C110.875 282.162 111.089 281.285 111.516 280.66C111.948 280.035 112.633 279.722 113.57 279.722ZM113.586 281.355C113.331 281.355 113.143 281.516 113.023 281.839C112.904 282.162 112.844 282.652 112.844 283.308C112.844 283.964 112.904 284.457 113.023 284.785C113.143 285.113 113.331 285.277 113.586 285.277C113.841 285.277 114.029 285.115 114.148 284.792C114.273 284.464 114.336 283.97 114.336 283.308C114.336 282.652 114.273 282.162 114.148 281.839C114.029 281.516 113.841 281.355 113.586 281.355Z" fill="#219653"/>
<path d="M163.406 340.878C163.406 341.404 163.297 341.86 163.078 342.246C162.859 342.631 162.562 342.946 162.188 343.191C161.818 343.436 161.401 343.615 160.938 343.73V343.777C161.854 343.891 162.549 344.173 163.023 344.621C163.503 345.069 163.742 345.667 163.742 346.417C163.742 347.084 163.578 347.681 163.25 348.207C162.927 348.733 162.427 349.147 161.75 349.449C161.073 349.751 160.201 349.902 159.133 349.902C158.503 349.902 157.914 349.85 157.367 349.746C156.826 349.647 156.315 349.493 155.836 349.285V347.23C156.326 347.48 156.839 347.67 157.375 347.8C157.911 347.925 158.411 347.988 158.875 347.988C159.74 347.988 160.344 347.839 160.688 347.542C161.036 347.24 161.211 346.819 161.211 346.277C161.211 345.959 161.13 345.691 160.969 345.472C160.807 345.253 160.526 345.087 160.125 344.972C159.729 344.858 159.174 344.8 158.461 344.8H157.594V342.949H158.477C159.18 342.949 159.714 342.884 160.078 342.753C160.448 342.618 160.698 342.436 160.828 342.207C160.964 341.972 161.031 341.707 161.031 341.41C161.031 341.003 160.906 340.686 160.656 340.457C160.406 340.227 159.99 340.113 159.406 340.113C159.042 340.113 158.708 340.16 158.406 340.253C158.109 340.342 157.841 340.451 157.602 340.582C157.362 340.707 157.151 340.829 156.969 340.949L155.852 339.285C156.299 338.962 156.823 338.694 157.422 338.48C158.026 338.266 158.745 338.16 159.578 338.16C160.755 338.16 161.688 338.397 162.375 338.871C163.062 339.345 163.406 340.014 163.406 340.878ZM167.57 338.16C168.466 338.16 169.146 338.472 169.609 339.097C170.073 339.722 170.305 340.6 170.305 341.73C170.305 342.86 170.086 343.743 169.648 344.378C169.211 345.014 168.518 345.332 167.57 345.332C166.69 345.332 166.021 345.014 165.562 344.378C165.104 343.743 164.875 342.86 164.875 341.73C164.875 340.6 165.089 339.722 165.516 339.097C165.948 338.472 166.633 338.16 167.57 338.16ZM167.586 339.792C167.331 339.792 167.143 339.954 167.023 340.277C166.904 340.6 166.844 341.089 166.844 341.746C166.844 342.402 166.904 342.894 167.023 343.222C167.143 343.55 167.331 343.714 167.586 343.714C167.841 343.714 168.029 343.553 168.148 343.23C168.273 342.902 168.336 342.407 168.336 341.746C168.336 341.089 168.273 340.6 168.148 340.277C168.029 339.954 167.841 339.792 167.586 339.792ZM175.68 338.324L169.344 349.746H167.469L173.805 338.324H175.68ZM175.57 342.722C176.466 342.722 177.146 343.035 177.609 343.66C178.073 344.285 178.305 345.162 178.305 346.292C178.305 347.417 178.086 348.298 177.648 348.933C177.211 349.569 176.518 349.886 175.57 349.886C174.69 349.886 174.021 349.569 173.562 348.933C173.104 348.298 172.875 347.417 172.875 346.292C172.875 345.162 173.089 344.285 173.516 343.66C173.948 343.035 174.633 342.722 175.57 342.722ZM175.586 344.355C175.331 344.355 175.143 344.516 175.023 344.839C174.904 345.162 174.844 345.652 174.844 346.308C174.844 346.964 174.904 347.457 175.023 347.785C175.143 348.113 175.331 348.277 175.586 348.277C175.841 348.277 176.029 348.115 176.148 347.792C176.273 347.464 176.336 346.97 176.336 346.308C176.336 345.652 176.273 345.162 176.148 344.839C176.029 344.516 175.841 344.355 175.586 344.355Z" fill="#0D72B9"/>
<path d="M83.052 353.813C82.5367 354.461 82.6449 355.405 83.2936 355.92C83.9423 356.435 84.8858 356.327 85.4011 355.679L83.052 353.813ZM112.822 318.746L113.997 317.813C113.712 317.454 113.28 317.246 112.822 317.246C112.365 317.246 111.932 317.454 111.648 317.813L112.822 318.746ZM125.134 334.246L123.96 335.179C124.244 335.537 124.677 335.746 125.134 335.746C125.592 335.746 126.024 335.537 126.309 335.179L125.134 334.246ZM154.127 297.746L155.302 296.813C155.017 296.454 154.585 296.246 154.127 296.246C153.67 296.246 153.237 296.454 152.953 296.813L154.127 297.746ZM165.248 311.746L164.073 312.679C164.358 313.037 164.79 313.246 165.248 313.246C165.705 313.246 166.138 313.037 166.422 312.679L165.248 311.746ZM196.227 272.746L180.116 279.105L193.678 289.878L196.227 272.746ZM85.4011 355.679L113.997 319.679L111.648 317.813L83.052 353.813L85.4011 355.679ZM111.648 319.679L123.96 335.179L126.309 333.313L113.997 317.813L111.648 319.679ZM126.309 335.179L155.302 298.679L152.953 296.813L123.96 333.313L126.309 335.179ZM152.953 298.679L164.073 312.679L166.422 310.813L155.302 296.813L152.953 298.679ZM166.422 312.679L189.004 284.25L186.655 282.384L164.073 310.813L166.422 312.679Z" fill="#219653"/>
</svg>
