<svg width="397" height="268" viewBox="0 0 397 268" fill="none" xmlns="http://www.w3.org/2000/svg">
<path d="M304.8 214L288.634 220.217L302.101 231.109L304.8 214ZM96.1264 213.09C95.6241 212.432 94.6828 212.305 94.0241 212.807C93.3653 213.31 93.2385 214.251 93.7408 214.91L96.1264 213.09ZM98.5638 220.873C99.103 221.502 100.05 221.575 100.679 221.036C101.308 220.496 101.381 219.549 100.842 218.92L98.5638 220.873ZM111.231 229.726C110.624 229.162 109.675 229.198 109.112 229.805C108.548 230.413 108.584 231.362 109.191 231.925L111.231 229.726ZM121.01 241.693C121.677 242.184 122.616 242.04 123.106 241.372C123.597 240.705 123.453 239.766 122.785 239.275L121.01 241.693ZM135.355 247.44C134.636 247.03 133.72 247.28 133.309 248C132.898 248.719 133.149 249.635 133.868 250.046L135.355 247.44ZM147.602 256.866C148.364 257.191 149.245 256.837 149.57 256.075C149.895 255.313 149.541 254.432 148.779 254.107L147.602 256.866ZM162.882 259.178C162.087 258.943 161.253 259.397 161.018 260.192C160.784 260.986 161.238 261.82 162.032 262.055L162.882 259.178ZM176.965 265.54C177.782 265.682 178.558 265.134 178.699 264.318C178.841 263.502 178.293 262.726 177.477 262.584L176.965 265.54ZM192.37 264.288C191.543 264.241 190.834 264.874 190.787 265.701C190.741 266.528 191.373 267.236 192.2 267.283L192.37 264.288ZM207.534 267.283C208.361 267.236 208.993 266.528 208.947 265.701C208.9 264.874 208.191 264.241 207.364 264.288L207.534 267.283ZM222.257 262.584C221.44 262.726 220.893 263.502 221.035 264.318C221.176 265.134 221.952 265.682 222.769 265.54L222.257 262.584ZM237.702 262.055C238.496 261.82 238.95 260.986 238.715 260.192C238.481 259.397 237.646 258.943 236.852 259.178L237.702 262.055ZM250.955 254.107C250.193 254.432 249.839 255.313 250.164 256.075C250.489 256.837 251.37 257.191 252.132 256.866L250.955 254.107ZM265.866 250.046C266.585 249.635 266.836 248.719 266.425 248C266.014 247.28 265.098 247.03 264.379 247.44L265.866 250.046ZM276.949 239.275C276.281 239.766 276.137 240.705 276.627 241.372C277.118 242.04 278.057 242.184 278.724 241.693L276.949 239.275ZM290.543 231.925C291.15 231.362 291.186 230.413 290.622 229.805C290.059 229.198 289.11 229.162 288.503 229.726L290.543 231.925ZM298.892 218.92C298.353 219.549 298.426 220.496 299.055 221.036C299.684 221.575 300.631 221.502 301.17 220.873L298.892 218.92ZM93.7408 214.91C95.2922 216.944 96.9007 218.933 98.5638 220.873L100.842 218.92C99.2155 217.024 97.643 215.079 96.1264 213.09L93.7408 214.91ZM109.191 231.925C112.937 235.4 116.883 238.663 121.01 241.693L122.785 239.275C118.751 236.313 114.894 233.123 111.231 229.726L109.191 231.925ZM133.868 250.046C138.294 252.572 142.878 254.851 147.602 256.866L148.779 254.107C144.162 252.137 139.681 249.909 135.355 247.44L133.868 250.046ZM162.032 262.055C166.9 263.493 171.883 264.66 176.965 265.54L177.477 262.584C172.51 261.724 167.639 260.583 162.882 259.178L162.032 262.055ZM192.2 267.283C194.738 267.427 197.294 267.5 199.867 267.5V264.5C197.351 264.5 194.851 264.429 192.37 264.288L192.2 267.283ZM199.867 267.5C202.44 267.5 204.996 267.427 207.534 267.283L207.364 264.288C204.883 264.429 202.383 264.5 199.867 264.5V267.5ZM222.769 265.54C227.85 264.66 232.834 263.493 237.702 262.055L236.852 259.178C232.095 260.583 227.224 261.724 222.257 262.584L222.769 265.54ZM252.132 256.866C256.856 254.851 261.44 252.572 265.866 250.046L264.379 247.44C260.053 249.909 255.572 252.137 250.955 254.107L252.132 256.866ZM278.724 241.693C282.851 238.663 286.797 235.4 290.543 231.925L288.503 229.726C284.84 233.123 280.983 236.313 276.949 239.275L278.724 241.693Z" fill="#0D72B9"/>
<path d="M86.7832 66L102.149 58.0059L87.5428 48.6962L86.7832 66ZM303.608 54.9095C304.11 55.5683 305.051 55.6951 305.71 55.1928C306.369 54.6905 306.496 53.7492 305.993 53.0905L303.608 54.9095ZM91.6784 61.1098C92.1415 60.4229 91.96 59.4907 91.2731 59.0276C90.5862 58.5645 89.654 58.7459 89.1909 59.4328L91.6784 61.1098ZM97.4422 48.4532C96.9112 49.0891 96.9963 50.0351 97.6322 50.566C98.2681 51.097 99.214 51.0119 99.745 50.376L97.4422 48.4532ZM108.867 40.5229C109.46 39.9445 109.472 38.9949 108.894 38.4017C108.316 37.8085 107.366 37.7965 106.773 38.3748L108.867 40.5229ZM117.085 29.3026C116.435 29.8172 116.326 30.7607 116.841 31.4099C117.356 32.059 118.299 32.1681 118.948 31.6534L117.085 29.3026ZM129.884 23.8627C130.582 23.4173 130.787 22.49 130.342 21.7915C129.897 21.0929 128.969 20.8878 128.271 21.3331L129.884 23.8627ZM140.218 14.5547C139.477 14.9258 139.178 15.8271 139.549 16.5677C139.92 17.3084 140.821 17.608 141.562 17.2369L140.218 14.5547ZM153.86 11.8523C154.635 11.5599 155.027 10.6944 154.734 9.91935C154.442 9.14427 153.576 8.75304 152.801 9.04552L153.86 11.8523ZM165.886 4.86961C165.085 5.08017 164.606 5.90038 164.817 6.7016C165.028 7.50282 165.848 7.98165 166.649 7.77109L165.886 4.86961ZM179.792 5.03647C180.611 4.9099 181.172 4.14361 181.045 3.3249C180.919 2.5062 180.152 1.94512 179.334 2.07169L179.792 5.03647ZM192.997 0.674015C192.169 0.716022 191.533 1.42079 191.575 2.24815C191.617 3.07551 192.321 3.71216 193.149 3.67016L192.997 0.674015ZM207.364 3.71199C208.191 3.75889 208.9 3.12642 208.947 2.29932C208.994 1.47222 208.361 0.763704 207.534 0.716803L207.364 3.71199ZM222.769 2.45969C221.953 2.31837 221.176 2.86553 221.035 3.68181C220.894 4.4981 221.441 5.27439 222.257 5.41571L222.769 2.45969ZM236.852 8.82209C237.647 9.05678 238.481 8.60297 238.716 7.80848C238.95 7.01399 238.497 6.17968 237.702 5.94499L236.852 8.82209ZM252.132 11.1339C251.37 10.8089 250.489 11.1632 250.164 11.9252C249.839 12.6873 250.193 13.5685 250.955 13.8935L252.132 11.1339ZM264.379 20.5595C265.099 20.9701 266.015 20.7197 266.425 20.0002C266.836 19.2807 266.586 18.3646 265.866 17.954L264.379 20.5595ZM278.725 26.3066C278.057 25.8163 277.118 25.96 276.628 26.6277C276.137 27.2954 276.281 28.2342 276.949 28.7246L278.725 26.3066ZM288.503 38.2742C289.11 38.8376 290.059 38.802 290.623 38.1946C291.186 37.5873 291.15 36.6382 290.543 36.0748L288.503 38.2742ZM301.17 47.1271C300.631 46.4981 299.684 46.4253 299.055 46.9645C298.426 47.5036 298.354 48.4506 298.893 49.0796L301.17 47.1271ZM99.745 50.376C102.617 46.937 105.662 43.6481 108.867 40.5229L106.773 38.3748C103.494 41.5715 100.379 44.9355 97.4422 48.4532L99.745 50.376ZM118.948 31.6534C122.452 28.8756 126.102 26.2743 129.884 23.8627L128.271 21.3331C124.402 23.8002 120.668 26.4612 117.085 29.3026L118.948 31.6534ZM141.562 17.2369C145.549 15.2392 149.653 13.44 153.86 11.8523L152.801 9.04552C148.496 10.67 144.297 12.5109 140.218 14.5547L141.562 17.2369ZM166.649 7.77109C170.947 6.64151 175.332 5.72594 179.792 5.03647L179.334 2.07169C174.771 2.77707 170.284 3.71382 165.886 4.86961L166.649 7.77109ZM193.149 3.67016C195.374 3.55718 197.614 3.5 199.867 3.5V0.5C197.563 0.5 195.272 0.558468 192.997 0.674015L193.149 3.67016ZM199.867 3.5C202.384 3.5 204.883 3.57131 207.364 3.71199L207.534 0.716803C204.997 0.572912 202.44 0.5 199.867 0.5V3.5ZM222.257 5.41571C227.224 6.27567 232.095 7.41679 236.852 8.82209L237.702 5.94499C232.834 4.50707 227.851 3.33952 222.769 2.45969L222.257 5.41571ZM250.955 13.8935C255.573 15.8626 260.053 18.0907 264.379 20.5595L265.866 17.954C261.44 15.4283 256.856 13.1487 252.132 11.1339L250.955 13.8935ZM276.949 28.7246C280.983 31.6874 284.841 34.8768 288.503 38.2742L290.543 36.0748C286.797 32.5998 282.851 29.3374 278.725 26.3066L276.949 28.7246ZM298.893 49.0796C300.519 50.9764 302.091 52.9205 303.608 54.9095L305.993 53.0905C304.442 51.0559 302.834 49.0674 301.17 47.1271L298.893 49.0796Z" fill="#0D72B9"/>
<path d="M45.9603 146.288C45.0794 147.815 45.6026 149.767 47.1289 150.649L96.8468 179.373C98.3731 180.255 100.325 179.732 101.205 178.205L135.653 118.501L117.976 108.288C116.449 107.406 115.926 105.454 116.807 103.927L127.013 86.2368L94.9726 67.7256C93.4463 66.8438 91.4949 67.3666 90.6139 68.8935L45.9603 146.288Z" fill="white"/>
<path d="M116.807 103.927C115.926 105.454 116.449 107.406 117.976 108.288L135.653 118.501L127.013 86.2368L116.807 103.927Z" fill="white"/>
<path d="M135.653 118.501L117.976 108.288C116.449 107.406 115.926 105.454 116.807 103.927L127.013 86.2368M135.653 118.501L101.205 178.205C100.325 179.732 98.3731 180.255 96.8468 179.373L47.1289 150.649C45.6026 149.767 45.0794 147.815 45.9603 146.288L90.6139 68.8935C91.4949 67.3666 93.4463 66.8438 94.9726 67.7256L127.013 86.2368M135.653 118.501L127.013 86.2368" stroke="#0D72B9" stroke-width="2.60998"/>
<path d="M64.5182 65.6093C65.3992 64.0825 67.3506 63.5596 68.8769 64.4414L100.918 82.9526L90.7113 100.643C89.8304 102.169 90.3536 104.122 91.8799 105.004L109.557 115.216L75.1098 174.921C74.2289 176.448 72.2774 176.971 70.7511 176.089L21.0332 147.365C19.5069 146.483 18.9837 144.531 19.8646 143.004L64.5182 65.6093Z" fill="white"/>
<path d="M90.7113 100.643C89.8304 102.169 90.3536 104.122 91.8799 105.004L109.557 115.216L100.918 82.9526L90.7113 100.643Z" fill="white"/>
<path d="M109.557 115.216L91.8799 105.004C90.3536 104.122 89.8304 102.169 90.7113 100.643L100.918 82.9526M109.557 115.216L75.1098 174.921C74.2289 176.448 72.2774 176.971 70.7511 176.089L21.0332 147.365C19.5069 146.483 18.9837 144.531 19.8646 143.004L64.5182 65.6093C65.3992 64.0825 67.3506 63.5596 68.8769 64.4414L100.918 82.9526M109.557 115.216L100.918 82.9526" stroke="#0D72B9" stroke-width="2.60998"/>
<rect width="40.8335" height="2.55295" rx="1.27648" transform="matrix(0.86588 0.500252 -0.499748 0.866171 59.4707 97.3369)" fill="#0D72B9"/>
<rect width="16.5886" height="5.5314" rx="2.7657" transform="matrix(0.86588 0.500252 -0.499748 0.866171 66.1523 78.0996)" fill="#0D72B9"/>
<rect width="16.5942" height="5.52954" rx="2.76477" transform="matrix(-0.499748 0.866171 -0.86588 -0.500252 78.4922 78.8408)" fill="#0D72B9"/>
<rect width="40.8335" height="2.55295" rx="1.27648" transform="matrix(0.86588 0.500252 -0.499748 0.866171 55.0059 105.076)" fill="#0D72B9"/>
<rect width="40.8335" height="2.55295" rx="1.27648" transform="matrix(0.86588 0.500252 -0.499748 0.866171 50.541 112.815)" fill="#0D72B9"/>
<rect width="40.8335" height="2.55295" rx="1.27648" transform="matrix(0.86588 0.500252 -0.499748 0.866171 46.0742 120.556)" fill="#0D72B9"/>
<rect width="40.8335" height="2.55295" rx="1.27648" transform="matrix(0.86588 0.500252 -0.499748 0.866171 41.6094 128.295)" fill="#0D72B9"/>
<rect width="40.8335" height="2.55295" rx="1.27648" transform="matrix(0.86588 0.500252 -0.499748 0.866171 37.1445 136.033)" fill="#0D72B9"/>
<path d="M81.8939 90.39C78.723 95.8858 71.7005 97.7686 66.2089 94.5958C60.7172 91.4231 58.8353 84.3959 62.0062 78.9001C65.1771 73.4043 72.1996 71.5216 77.6912 74.6943C83.1829 77.8671 85.0648 84.8942 81.8939 90.39Z" stroke="#0D72B9" stroke-width="1.27669"/>
<path d="M74.9557 113.853C75.8367 112.327 77.7881 111.804 79.3144 112.686L111.355 131.197L101.149 148.887C100.268 150.413 100.791 152.366 102.317 153.248L119.994 163.461L85.5473 223.165C84.6664 224.692 82.7149 225.215 81.1886 224.333L31.4707 195.609C29.9444 194.727 29.4212 192.775 30.3021 191.248L74.9557 113.853Z" fill="white"/>
<path d="M101.149 148.887C100.268 150.413 100.791 152.366 102.317 153.248L119.994 163.461L111.355 131.197L101.149 148.887Z" fill="white"/>
<path d="M119.994 163.461L102.317 153.248C100.791 152.366 100.268 150.413 101.149 148.887L111.355 131.197M119.994 163.461L85.5473 223.165C84.6664 224.692 82.7149 225.215 81.1886 224.333L31.4707 195.609C29.9444 194.727 29.4212 192.775 30.3021 191.248L74.9557 113.853C75.8367 112.327 77.7881 111.804 79.3144 112.686L111.355 131.197M119.994 163.461L111.355 131.197" stroke="#0D72B9" stroke-width="2.60998"/>
<rect width="40.8335" height="2.55295" rx="1.27648" transform="matrix(0.86588 0.500252 -0.499748 0.866171 69.9102 145.581)" fill="#0D72B9"/>
<rect width="40.8335" height="2.55295" rx="1.27648" transform="matrix(0.86588 0.500252 -0.499748 0.866171 65.4434 153.32)" fill="#0D72B9"/>
<rect width="40.8335" height="2.55295" rx="1.27648" transform="matrix(0.86588 0.500252 -0.499748 0.866171 60.9785 161.06)" fill="#0D72B9"/>
<rect width="40.8335" height="2.55295" rx="1.27648" transform="matrix(0.86588 0.500252 -0.499748 0.866171 56.5137 168.8)" fill="#0D72B9"/>
<rect width="40.8335" height="2.55295" rx="1.27648" transform="matrix(0.86588 0.500252 -0.499748 0.866171 52.0488 176.539)" fill="#0D72B9"/>
<rect width="40.8335" height="2.55295" rx="1.27648" transform="matrix(0.86588 0.500252 -0.499748 0.866171 47.582 184.277)" fill="#0D72B9"/>
<path d="M92.3334 138.634C89.1625 144.13 82.14 146.013 76.6483 142.84C71.1566 139.667 69.2748 132.64 72.4457 127.144C75.6165 121.648 82.639 119.766 88.1307 122.938C93.6224 126.111 95.5042 133.138 92.3334 138.634Z" stroke="#0D72B9" stroke-width="1.27669"/>
<path d="M78.5111 139.592C78.2771 139.457 78.1969 139.158 78.332 138.924L78.8425 138.039C78.9753 137.808 78.8995 137.515 78.6763 137.37C78.0992 136.996 77.596 136.617 77.1666 136.232C76.7364 135.838 76.3587 135.435 76.0335 135.023C75.9135 134.871 75.9032 134.661 76 134.493L76.7569 133.182C76.9372 132.869 77.3852 132.851 77.6106 133.132C77.873 133.46 78.1743 133.801 78.5142 134.154C78.9422 134.592 79.3767 134.976 79.8178 135.308C80.0438 135.478 80.3633 135.403 80.5046 135.158L81.61 133.242C81.7105 133.068 81.6937 132.85 81.5702 132.691C80.9745 131.925 80.5187 131.252 80.203 130.673C79.8608 130.025 79.6868 129.43 79.681 128.885C79.6843 128.339 79.8507 127.78 80.1804 127.208C80.5167 126.625 80.961 126.212 81.5133 125.967C82.0746 125.72 82.7064 125.628 83.4086 125.691C83.9836 125.742 84.5784 125.892 85.193 126.14C85.4283 126.235 85.7016 126.15 85.8284 125.931L86.1164 125.431C86.2514 125.197 86.5505 125.117 86.7844 125.252L87.1107 125.441C87.3447 125.576 87.4248 125.875 87.2898 126.109L87.0336 126.553C86.9019 126.782 86.9754 127.073 87.1938 127.22C87.6821 127.55 88.1222 127.898 88.5141 128.263C88.9043 128.618 89.267 129.006 89.6021 129.425C89.7666 129.63 89.7244 129.929 89.5173 130.092L88.3153 131.035C88.1012 131.203 87.7918 131.163 87.6164 130.955C87.3501 130.639 87.0696 130.344 86.775 130.07C86.5144 129.826 86.2556 129.604 85.9985 129.403C85.7731 129.227 85.4486 129.301 85.3056 129.548L84.2825 131.322C84.1802 131.499 84.1995 131.721 84.3283 131.881C84.7433 132.394 85.127 132.908 85.4794 133.424C85.8922 134.028 86.1564 134.646 86.2722 135.276C86.388 135.907 86.2481 136.565 85.8525 137.251C85.3612 138.102 84.6379 138.637 83.6825 138.854C82.8324 139.052 81.833 138.916 80.6844 138.447C80.4502 138.351 80.1779 138.436 80.0515 138.655L79.5054 139.601C79.3704 139.836 79.0713 139.916 78.8374 139.78L78.5111 139.592ZM81.7416 135.726C81.5901 135.988 81.7109 136.333 82.01 136.383C82.2081 136.416 82.3836 136.417 82.5367 136.386C82.824 136.324 83.0452 136.158 83.2001 135.89C83.2924 135.73 83.332 135.562 83.3189 135.387C83.3058 135.212 83.242 135.019 83.1276 134.808C83.1148 134.782 83.1012 134.756 83.0871 134.729C82.9217 134.416 82.4837 134.439 82.3068 134.746L81.7416 135.726ZM82.8095 129.826C82.9763 130.138 83.415 130.114 83.5919 129.807L84.0949 128.935C84.2441 128.677 84.1295 128.336 83.835 128.288C83.7819 128.28 83.73 128.274 83.6793 128.27C83.4709 128.248 83.2892 128.273 83.1343 128.343C82.9794 128.414 82.8542 128.532 82.7586 128.698C82.663 128.864 82.616 129.031 82.6177 129.199C82.6251 129.371 82.6775 129.558 82.7747 129.759C82.7858 129.781 82.7974 129.803 82.8095 129.826Z" fill="#0D72B9"/>
<path d="M287.796 140.288C286.915 141.815 287.439 143.767 288.965 144.649L338.683 173.373C340.209 174.255 342.161 173.732 343.041 172.205L377.489 112.501L359.812 102.288C358.285 101.406 357.762 99.4535 358.643 97.9267L368.849 80.2368L336.809 61.7256C335.282 60.8438 333.331 61.3666 332.45 62.8935L287.796 140.288Z" fill="white"/>
<path d="M358.643 97.9267C357.762 99.4535 358.285 101.406 359.812 102.288L377.489 112.501L368.849 80.2368L358.643 97.9267Z" fill="white"/>
<path d="M377.489 112.501L359.812 102.288C358.285 101.406 357.762 99.4535 358.643 97.9267L368.849 80.2368M377.489 112.501L343.041 172.205C342.161 173.732 340.209 174.255 338.683 173.373L288.965 144.649C287.439 143.767 286.915 141.815 287.796 140.288L332.45 62.8935C333.331 61.3666 335.282 60.8438 336.809 61.7256L368.849 80.2368M377.489 112.501L368.849 80.2368" stroke="#0D72B9" stroke-width="2.60998"/>
<path d="M306.354 59.6093C307.235 58.0825 309.187 57.5596 310.713 58.4414L342.754 76.9526L332.547 94.6425C331.666 96.1693 332.19 98.1219 333.716 99.0038L351.393 109.216L316.946 168.921C316.065 170.448 314.113 170.971 312.587 170.089L262.869 141.365C261.343 140.483 260.82 138.531 261.701 137.004L306.354 59.6093Z" fill="white"/>
<path d="M332.547 94.6425C331.666 96.1693 332.19 98.1219 333.716 99.0038L351.393 109.216L342.754 76.9526L332.547 94.6425Z" fill="white"/>
<path d="M351.393 109.216L333.716 99.0038C332.19 98.1219 331.666 96.1693 332.547 94.6425L342.754 76.9526M351.393 109.216L316.946 168.921C316.065 170.448 314.113 170.971 312.587 170.089L262.869 141.365C261.343 140.483 260.82 138.531 261.701 137.004L306.354 59.6093C307.235 58.0825 309.187 57.5596 310.713 58.4414L342.754 76.9526M351.393 109.216L342.754 76.9526" stroke="#0D72B9" stroke-width="2.60998"/>
<rect width="40.8335" height="2.55295" rx="1.27648" transform="matrix(0.86588 0.500252 -0.499748 0.866171 301.307 91.3369)" fill="#0D72B9"/>
<rect width="16.5886" height="5.5314" rx="2.7657" transform="matrix(0.86588 0.500252 -0.499748 0.866171 307.986 72.0996)" fill="#0D72B9"/>
<rect width="16.5942" height="5.52954" rx="2.76477" transform="matrix(-0.499748 0.866171 -0.86588 -0.500252 320.326 72.8408)" fill="#0D72B9"/>
<rect width="40.8335" height="2.55295" rx="1.27648" transform="matrix(0.86588 0.500252 -0.499748 0.866171 296.842 99.0762)" fill="#0D72B9"/>
<rect width="40.8335" height="2.55295" rx="1.27648" transform="matrix(0.86588 0.500252 -0.499748 0.866171 292.377 106.815)" fill="#0D72B9"/>
<rect width="40.8335" height="2.55295" rx="1.27648" transform="matrix(0.86588 0.500252 -0.499748 0.866171 287.91 114.556)" fill="#0D72B9"/>
<rect width="40.8335" height="2.55295" rx="1.27648" transform="matrix(0.86588 0.500252 -0.499748 0.866171 283.445 122.295)" fill="#0D72B9"/>
<rect width="40.8335" height="2.55295" rx="1.27648" transform="matrix(0.86588 0.500252 -0.499748 0.866171 278.98 130.033)" fill="#0D72B9"/>
<path d="M323.73 84.39C320.559 89.8858 313.536 91.7686 308.045 88.5958C302.553 85.4231 300.671 78.3959 303.842 72.9001C307.013 67.4043 314.036 65.5216 319.527 68.6943C325.019 71.8671 326.901 78.8942 323.73 84.39Z" stroke="#0D72B9" stroke-width="1.27669"/>
<path d="M316.79 107.853C317.671 106.327 319.622 105.804 321.148 106.686L353.189 125.197L342.983 142.887C342.102 144.413 342.625 146.366 344.151 147.248L361.828 157.461L327.381 217.165C326.5 218.692 324.549 219.215 323.023 218.333L273.305 189.609C271.778 188.727 271.255 186.775 272.136 185.248L316.79 107.853Z" fill="white"/>
<path d="M342.983 142.887C342.102 144.413 342.625 146.366 344.151 147.248L361.828 157.461L353.189 125.197L342.983 142.887Z" fill="white"/>
<path d="M361.828 157.461L344.151 147.248C342.625 146.366 342.102 144.413 342.983 142.887L353.189 125.197M361.828 157.461L327.381 217.165C326.5 218.692 324.549 219.215 323.023 218.333L273.305 189.609C271.778 188.727 271.255 186.775 272.136 185.248L316.79 107.853C317.671 106.327 319.622 105.804 321.148 106.686L353.189 125.197M361.828 157.461L353.189 125.197" stroke="#0D72B9" stroke-width="2.60998"/>
<rect width="40.8335" height="2.55295" rx="1.27648" transform="matrix(0.86588 0.500252 -0.499748 0.866171 311.744 139.581)" fill="#0D72B9"/>
<rect width="40.8335" height="2.55295" rx="1.27648" transform="matrix(0.86588 0.500252 -0.499748 0.866171 307.277 147.32)" fill="#0D72B9"/>
<rect width="40.8335" height="2.55295" rx="1.27648" transform="matrix(0.86588 0.500252 -0.499748 0.866171 302.812 155.06)" fill="#0D72B9"/>
<rect width="40.8335" height="2.55295" rx="1.27648" transform="matrix(0.86588 0.500252 -0.499748 0.866171 298.346 162.8)" fill="#0D72B9"/>
<rect width="40.8335" height="2.55295" rx="1.27648" transform="matrix(0.86588 0.500252 -0.499748 0.866171 293.881 170.539)" fill="#0D72B9"/>
<rect width="40.8335" height="2.55295" rx="1.27648" transform="matrix(0.86588 0.500252 -0.499748 0.866171 289.416 178.277)" fill="#0D72B9"/>
<path d="M334.167 132.634C330.996 138.13 323.974 140.013 318.482 136.84C312.991 133.667 311.109 126.64 314.28 121.144C317.451 115.648 324.473 113.766 329.965 116.938C335.456 120.111 337.338 127.138 334.167 132.634Z" stroke="#0D72B9" stroke-width="1.27669"/>
<path d="M320.345 133.592C320.111 133.457 320.031 133.158 320.166 132.924L320.676 132.039C320.809 131.808 320.733 131.515 320.51 131.37C319.933 130.996 319.43 130.617 319.001 130.232C318.57 129.838 318.193 129.435 317.868 129.023C317.748 128.871 317.737 128.661 317.834 128.493L318.591 127.182C318.771 126.869 319.219 126.851 319.445 127.132C319.707 127.46 320.008 127.801 320.348 128.154C320.776 128.592 321.211 128.976 321.652 129.308C321.878 129.478 322.197 129.403 322.339 129.158L323.444 127.242C323.544 127.068 323.528 126.85 323.404 126.691C322.808 125.925 322.353 125.252 322.037 124.673C321.695 124.025 321.521 123.43 321.515 122.885C321.518 122.339 321.685 121.78 322.014 121.208C322.351 120.625 322.795 120.212 323.347 119.967C323.909 119.72 324.54 119.628 325.243 119.691C325.818 119.742 326.412 119.892 327.027 120.14C327.262 120.235 327.536 120.15 327.662 119.931L327.95 119.431C328.085 119.197 328.384 119.117 328.618 119.252L328.945 119.441C329.179 119.576 329.259 119.875 329.124 120.109L328.868 120.553C328.736 120.782 328.809 121.073 329.028 121.22C329.516 121.55 329.956 121.898 330.348 122.263C330.738 122.618 331.101 123.006 331.436 123.425C331.601 123.63 331.558 123.929 331.351 124.092L330.149 125.035C329.935 125.203 329.626 125.163 329.45 124.955C329.184 124.639 328.904 124.344 328.609 124.07C328.348 123.826 328.09 123.604 327.833 123.403C327.607 123.227 327.283 123.301 327.14 123.548L326.116 125.322C326.014 125.499 326.033 125.721 326.162 125.881C326.577 126.394 326.961 126.908 327.313 127.424C327.726 128.028 327.99 128.646 328.106 129.276C328.222 129.907 328.082 130.565 327.686 131.251C327.195 132.102 326.472 132.637 325.517 132.854C324.666 133.052 323.667 132.916 322.518 132.447C322.284 132.351 322.012 132.436 321.885 132.655L321.339 133.601C321.204 133.836 320.905 133.916 320.671 133.78L320.345 133.592ZM323.576 129.726C323.424 129.988 323.545 130.333 323.844 130.383C324.042 130.416 324.218 130.417 324.371 130.386C324.658 130.324 324.879 130.158 325.034 129.89C325.126 129.73 325.166 129.562 325.153 129.387C325.14 129.212 325.076 129.019 324.962 128.808C324.949 128.782 324.935 128.756 324.921 128.729C324.756 128.416 324.318 128.439 324.141 128.746L323.576 129.726ZM324.643 123.826C324.81 124.138 325.249 124.114 325.426 123.807L325.929 122.935C326.078 122.677 325.963 122.336 325.669 122.288C325.616 122.28 325.564 122.274 325.513 122.27C325.305 122.248 325.123 122.273 324.968 122.343C324.813 122.414 324.688 122.532 324.593 122.698C324.497 122.864 324.45 123.031 324.452 123.199C324.459 123.371 324.511 123.558 324.609 123.759C324.62 123.781 324.631 123.803 324.643 123.826Z" fill="#0D72B9"/>
</svg>
