<svg width="400" height="81" viewBox="0 0 400 81" fill="none" xmlns="http://www.w3.org/2000/svg">
<rect width="400" height="80" transform="translate(0 0.40625)" fill="#0D72B9"/>
<path d="M40.2479 16.0323L28.9212 35.9962H27.6364L16.5544 15.9716V49.3796H10V3.42725H17.5486L28.4317 23.2193L39.3072 3.45757H46.8023V49.4099H40.2479V16.0323Z" fill="white"/>
<path d="M78.893 49.3191H52.8896V3.3667H78.893V11.7667H59.3752V22.34H78.197V30.4267H59.3752V40.8079H78.893V49.3191Z" fill="white"/>
<path d="M114.564 25.9487C114.709 37.5631 109.348 49.3191 97.1799 49.3191H83.5205V3.3667H97.1799C109.096 3.3667 114.411 14.5869 114.564 25.9487ZM90.0213 40.9797H97.1799C105.073 40.9797 108.201 33.3682 108.055 25.8779C107.902 18.7212 104.728 11.5747 97.1799 11.5747H90.0213V40.9797Z" fill="white"/>
<path d="M128.919 49.319V3.42725H153.905V11.7666H135.473V24.311H152.911V32.3168H135.473V49.319H128.919Z" fill="white"/>
<path d="M158.969 49.3191V3.3667H165.477V49.3191H158.969Z" fill="white"/>
<path d="M194.486 3.2959H201.04V49.319H196.941V49.3797L178.662 18.3371V49.319H172.107V3.36663H177.415L194.455 31.8519L194.486 3.2959Z" fill="white"/>
<path d="M231.739 40.6563H213.56L210.585 49.3191H203.479L219.074 3.3667H226.225L241.819 49.3191H234.668L231.739 40.6563ZM222.653 13.0202L216.191 32.5797H229.108L222.653 13.0202Z" fill="white"/>
<path d="M267.654 3.2959H274.186V49.319H270.117V49.3797L251.838 18.3371V49.319H245.276V3.36663H250.592L267.632 31.8519L267.654 3.2959Z" fill="white"/>
<path d="M310.897 43.537C309.15 45.7812 307.082 47.5416 304.814 48.7151C302.546 49.8885 300.123 50.4512 297.688 50.3702C284.778 50.3702 279.333 38.6142 279.264 26.6662C279.195 14.7182 285.123 2.40626 297.688 2.40626C300.062 2.4032 302.412 3.02255 304.603 4.22846C306.794 5.43437 308.783 7.20286 310.453 9.43152L306.078 15.0113C303.812 12.1658 300.791 10.6088 297.665 10.6749C289.253 10.6749 285.643 18.9536 285.696 26.6258C285.75 34.298 289.069 42.1926 297.665 42.1926C300.923 42.1623 304.049 40.4923 306.407 37.5225L310.897 43.537Z" fill="white"/>
<path d="M314.644 49.3191V3.3667H321.152V49.3191H314.644Z" fill="white"/>
<path d="M351.997 40.6563H333.841L330.866 49.3191H323.761L339.355 3.3667H346.506L362.108 49.3191H354.949L351.997 40.6563ZM342.911 13.0202L336.449 32.5797H349.366L342.911 13.0202Z" fill="white"/>
<path d="M372.119 3.3667V41.3133H390V49.3191H365.564V3.3667H372.119Z" fill="white"/>
<path d="M118.931 71.2336L120.927 71.0011C120.986 71.924 121.212 72.8148 121.585 73.599C121.987 74.3361 122.542 74.9046 123.183 75.2365C123.958 75.6652 124.791 75.8785 125.63 75.8632C126.358 75.8788 127.081 75.7177 127.764 75.3881C128.309 75.1395 128.787 74.6864 129.141 74.0842C129.433 73.5636 129.591 72.933 129.592 72.2849C129.601 71.6565 129.447 71.0429 129.156 70.5463C128.767 69.974 128.271 69.5455 127.718 69.3029C127.29 69.0907 126.349 68.747 124.881 68.2921C123.828 68.0008 122.803 67.5603 121.822 66.978C121.132 66.536 120.543 65.8591 120.116 65.017C119.745 64.2285 119.552 63.3171 119.558 62.3889C119.559 61.3267 119.798 60.2887 120.246 59.4069C120.732 58.4511 121.429 57.7168 122.242 57.3044C123.174 56.8137 124.169 56.5698 125.171 56.5867C126.239 56.5613 127.299 56.8155 128.292 57.3347C129.141 57.7814 129.869 58.5565 130.38 59.5585C130.86 60.5537 131.125 61.704 131.145 62.8842L129.125 63.0762C129.103 62.4987 128.993 61.933 128.802 61.4122C128.612 60.8915 128.345 60.4263 128.017 60.0437C127.206 59.2956 126.226 58.9387 125.24 59.0329C124.258 58.9287 123.277 59.2556 122.449 59.9629C122.18 60.218 121.962 60.5533 121.81 60.9416C121.659 61.3298 121.579 61.7599 121.577 62.1968C121.57 62.5495 121.622 62.8998 121.729 63.223C121.836 63.5461 121.996 63.8342 122.196 64.0668C122.602 64.552 123.665 65.0777 125.378 65.5629C126.581 65.8746 127.76 66.3245 128.904 66.9073C129.726 67.3623 130.437 68.1071 130.961 69.0603C131.416 69.9552 131.648 71.0152 131.626 72.0928C131.616 73.2246 131.349 74.3264 130.862 75.2567C130.354 76.2846 129.628 77.0902 128.774 77.5715C127.812 78.1385 126.768 78.4214 125.714 78.4004C124.476 78.4503 123.243 78.1684 122.089 77.5715C121.151 77.0592 120.352 76.1857 119.795 75.0647C119.236 73.9228 118.936 72.5935 118.931 71.2336Z" fill="#CCCCCC"/>
<path d="M138.311 67.6954C138.311 64.2047 139.019 61.4687 140.437 59.4875C141.143 58.5057 142 57.7332 142.949 57.2209C143.898 56.7086 144.919 56.4682 145.943 56.5156C147.34 56.4917 148.716 56.9742 149.92 57.9106C151.091 58.8266 152.031 60.1808 152.62 61.8023C153.258 63.5649 153.577 65.4992 153.553 67.4528C153.578 69.4425 153.242 71.4111 152.574 73.1943C151.969 74.8156 150.999 76.1501 149.798 77.0153C148.614 77.8812 147.281 78.3303 145.928 78.3193C144.512 78.3502 143.117 77.8527 141.905 76.8839C140.742 75.947 139.81 74.5847 139.221 72.9618C138.618 71.3206 138.307 69.5195 138.311 67.6954ZM140.483 67.6954C140.384 69.8803 140.932 72.0303 142.012 73.6896C142.516 74.3856 143.122 74.9395 143.792 75.3178C144.462 75.6962 145.184 75.8913 145.913 75.8913C146.642 75.8913 147.363 75.6962 148.033 75.3178C148.704 74.9395 149.309 74.3856 149.813 73.6896C150.912 71.933 151.46 69.6864 151.343 67.4124C151.368 65.8715 151.144 64.3412 150.685 62.9243C150.286 61.6822 149.614 60.6262 148.758 59.8918C147.902 59.2026 146.915 58.8519 145.913 58.881C144.486 58.8606 143.111 59.5875 142.089 60.9026C141.013 62.3178 140.478 64.6124 140.483 67.7864V67.6954Z" fill="#CCCCCC"/>
<path d="M160.636 78.0065V56.9307H162.747V75.5198H170.601V78.0065H160.636Z" fill="#CCCCCC"/>
<path d="M188.024 56.9307H190.135V69.0606C190.18 70.7745 189.997 72.4856 189.592 74.1148C189.209 75.3858 188.518 76.4526 187.626 77.1473C186.492 77.9897 185.201 78.3958 183.901 78.3199C182.636 78.3891 181.377 78.0417 180.238 77.309C179.318 76.6721 178.598 75.6269 178.204 74.3574C177.75 72.6655 177.545 70.8745 177.599 69.0808V56.9509H179.703V69.0808C179.653 70.4484 179.785 71.817 180.093 73.1242C180.338 73.9848 180.807 74.7016 181.416 75.1458C182.122 75.6355 182.913 75.8757 183.71 75.8433C185.24 75.8433 186.364 75.3783 187.03 74.4484C187.695 73.5184 188.016 71.7393 188.016 69.091L188.024 56.9307Z" fill="#CCCCCC"/>
<path d="M202.149 78.0065V59.4173H196.94V56.9307H209.575V59.4173H204.298V78.0065H202.149Z" fill="#CCCCCC"/>
<path d="M216.512 78.0065V56.9307H218.623V78.0065H216.512Z" fill="#CCCCCC"/>
<path d="M226.148 67.6957C226.148 64.205 226.86 61.469 228.282 59.4878C228.988 58.5068 229.843 57.7347 230.791 57.2224C231.738 56.7101 232.758 56.4693 233.781 56.5159C235.181 56.4902 236.559 56.9727 237.766 57.9109C238.937 58.8269 239.877 60.1811 240.466 61.8026C241.104 63.5652 241.423 65.4995 241.399 67.4531C241.424 69.4428 241.088 71.4114 240.42 73.1946C239.812 74.814 238.843 76.1478 237.643 77.0156C236.459 77.8815 235.127 78.3306 233.774 78.3196C232.357 78.3516 230.963 77.854 229.751 76.8842C228.584 75.9533 227.651 74.5893 227.066 72.9621C226.458 71.3233 226.144 69.5211 226.148 67.6957ZM228.328 67.6957C228.229 69.8806 228.778 72.0306 229.858 73.6899C230.363 74.3862 230.969 74.9402 231.64 75.3187C232.311 75.6972 233.033 75.8923 233.762 75.8923C234.492 75.8923 235.214 75.6972 235.885 75.3187C236.556 74.9402 237.162 74.3862 237.666 73.6899C238.763 71.9313 239.31 69.6862 239.196 67.4127C239.225 65.8714 239.001 64.34 238.538 62.9246C238.145 61.6809 237.475 60.6238 236.619 59.8921C235.762 59.2055 234.775 58.855 233.774 58.8813C232.347 58.8609 230.972 59.5878 229.95 60.9029C228.848 62.3181 228.298 64.6127 228.298 67.7867L228.328 67.6957Z" fill="#CCCCCC"/>
<path d="M248.542 78.0065V56.9307H250.706L259.081 73.478V56.9307H261.1V78.0065H258.943L250.569 61.4491V78.0065H248.542Z" fill="#CCCCCC"/>
<path d="M268.381 71.2336L270.377 71.0011C270.436 71.924 270.662 72.8148 271.035 73.599C271.436 74.3386 271.991 74.9076 272.633 75.2365C273.408 75.6652 274.241 75.8785 275.081 75.8632C275.808 75.8788 276.531 75.7177 277.214 75.3881C277.759 75.1395 278.238 74.6864 278.591 74.0842C278.883 73.5635 279.041 72.933 279.042 72.2849C279.052 71.6565 278.898 71.0429 278.606 70.5463C278.217 69.974 277.721 69.5455 277.168 69.3029C276.74 69.0907 275.792 68.747 274.331 68.2921C273.278 68.0024 272.252 67.5618 271.272 66.978C270.582 66.536 269.993 65.8591 269.566 65.017C269.193 64.2303 268.999 63.3177 269.008 62.3889C269.009 61.3267 269.248 60.2887 269.696 59.4069C270.18 58.4488 270.878 57.7139 271.692 57.3044C272.624 56.8137 273.619 56.5698 274.622 56.5867C275.689 56.5613 276.749 56.8155 277.742 57.3347C278.591 57.7814 279.319 58.5565 279.83 59.5585C280.31 60.5537 280.575 61.704 280.595 62.8842L278.576 63.0762C278.553 62.4987 278.443 61.933 278.252 61.4122C278.062 60.8915 277.795 60.4263 277.467 60.0437C276.657 59.2956 275.676 58.9387 274.69 59.0329C273.708 58.9287 272.727 59.2556 271.899 59.9629C271.631 60.218 271.412 60.5533 271.26 60.9416C271.109 61.3298 271.029 61.7599 271.027 62.1968C271.02 62.5495 271.072 62.8998 271.179 63.223C271.286 63.5461 271.446 63.8342 271.647 64.0668C272.052 64.552 273.115 65.0777 274.828 65.5629C276.031 65.8746 277.21 66.3245 278.354 66.9073C279.176 67.3623 279.888 68.1071 280.411 69.0603C280.866 69.9552 281.099 71.0152 281.077 72.0928C281.066 73.2246 280.8 74.3264 280.312 75.2567C279.803 76.2821 279.076 77.0871 278.224 77.5715C277.262 78.1385 276.218 78.4214 275.165 78.4004C273.926 78.4503 272.693 78.1684 271.539 77.5715C270.602 77.0592 269.802 76.1857 269.245 75.0647C268.686 73.9228 268.386 72.5935 268.381 71.2336Z" fill="#CCCCCC"/>
<path d="M114.564 66.6348H10V68.2925H114.564V66.6348Z" fill="#CCCCCC"/>
<path d="M389.999 66.6348H285.436V68.2925H389.999V66.6348Z" fill="#CCCCCC"/>
</svg>
