<svg width="317" height="317" viewBox="0 0 317 317" fill="none" xmlns="http://www.w3.org/2000/svg">
<path d="M295.756 88.1604H287.234C284.93 88.1629 282.677 87.4799 280.76 86.1978C278.844 84.9157 277.35 83.0922 276.468 80.9583C275.586 78.8243 275.356 76.476 275.806 74.2106C276.256 71.9452 277.367 69.8647 278.997 68.2327L284.944 62.1746C286.982 60.2122 288.61 57.8617 289.731 55.2608C290.852 52.6599 291.444 49.8609 291.473 47.0277C291.502 44.1944 290.966 41.3839 289.898 38.7608C288.83 36.1376 287.25 33.7545 285.252 31.751C283.254 29.7475 280.877 28.1638 278.26 27.0929C275.644 26.0219 272.841 25.485 270.015 25.5138C267.189 25.5425 264.397 26.1363 261.803 27.2603C259.209 28.3844 256.864 30.016 254.907 32.0598L248.881 38.1019C247.251 39.7396 245.174 40.8558 242.912 41.309C240.65 41.7623 238.304 41.5322 236.172 40.6479C234.04 39.7636 232.218 38.2649 230.937 36.3415C229.655 34.4182 228.971 32.1569 228.973 29.8438V21.2988C228.973 15.65 226.735 10.2326 222.751 6.23827C218.767 2.24397 213.363 0 207.729 0C202.095 0 196.692 2.24397 192.708 6.23827C188.724 10.2326 186.486 15.65 186.486 21.2988V29.8438C186.488 32.1537 185.807 34.4124 184.528 36.3338C183.249 38.2552 181.43 39.7529 179.302 40.6372C177.174 41.5215 174.831 41.7526 172.572 41.3013C170.312 40.85 168.237 39.7365 166.609 38.1019L160.599 32.0598C156.616 28.0642 151.213 25.8187 145.578 25.8172C139.944 25.8157 134.539 28.0583 130.554 32.0518C126.569 36.0453 124.329 41.4624 124.328 47.1116C124.326 52.7607 126.563 58.179 130.546 62.1746L136.573 68.2327C138.203 69.8647 139.314 71.9452 139.764 74.2106C140.214 76.476 139.983 78.8243 139.101 80.9583C138.219 83.0922 136.726 84.9157 134.809 86.1978C132.893 87.4799 130.64 88.1629 128.336 88.1604H119.813C115.258 88.1621 110.825 89.6315 107.166 92.3518C103.508 95.0722 100.818 98.8993 99.4946 103.269C98.1708 107.638 98.2828 112.319 99.814 116.619C101.345 120.92 104.215 124.614 107.999 127.155C109.053 127.865 110.346 128.127 111.592 127.882C112.839 127.636 113.937 126.905 114.645 125.848C115.354 124.791 115.615 123.495 115.37 122.245C115.125 120.995 114.396 119.894 113.341 119.184C111.266 117.79 109.692 115.765 108.852 113.406C108.011 111.047 107.949 108.48 108.674 106.084C109.399 103.687 110.873 101.587 112.879 100.094C114.884 98.6005 117.315 97.7927 119.813 97.7895H128.336C130.547 97.7981 132.746 97.4647 134.855 96.8011C132.776 108.505 133.547 120.539 137.101 131.88C140.656 143.221 146.89 153.533 155.272 161.941L155.368 162.037C161.311 167.993 166.027 175.065 169.244 182.848C172.461 190.632 174.117 198.975 174.117 207.4C174.117 215.826 172.461 224.169 169.244 231.952C166.027 239.736 161.311 246.808 155.368 252.764C130.165 278.032 89.3153 278.351 64.3191 253.449C58.3317 247.488 53.5768 240.4 50.3273 232.593C47.0778 224.785 45.3974 216.411 45.3827 207.951C45.3679 199.491 47.019 191.112 50.2412 183.293C53.4635 175.474 58.1935 168.37 64.1601 162.387L64.4145 162.132C70.9175 155.613 78.7437 150.573 87.3615 147.355C95.9792 144.136 105.187 142.815 114.359 143.48C114.986 143.526 115.615 143.448 116.211 143.25C116.808 143.052 117.359 142.739 117.835 142.327C118.31 141.916 118.7 141.414 118.982 140.852C119.264 140.289 119.433 139.676 119.479 139.048C119.525 138.42 119.447 137.789 119.25 137.191C119.053 136.593 118.74 136.04 118.329 135.563C117.919 135.087 117.419 134.696 116.858 134.413C116.296 134.13 115.685 133.961 115.059 133.915C102.484 133.033 89.8943 135.393 78.4868 140.77H78.3596C76.485 140.909 74.6024 140.644 72.8387 139.992C71.075 139.341 69.4711 138.317 68.1353 136.991L62.0134 130.886C58.0282 126.892 52.6239 124.649 46.9894 124.651C41.355 124.652 35.9518 126.898 31.9687 130.894C27.9856 134.889 25.7487 140.307 25.7502 145.957C25.7517 151.606 27.9914 157.023 31.9767 161.016L38.0031 167.058C39.6335 168.691 40.7441 170.771 41.1942 173.036C41.6444 175.302 41.4139 177.65 40.5319 179.784C39.6498 181.918 38.156 183.741 36.2396 185.024C34.3232 186.306 32.0704 186.989 29.7665 186.986H21.2436C15.6094 186.986 10.206 189.23 6.2221 193.224C2.23816 197.219 0 202.636 0 208.285C0 213.934 2.23816 219.351 6.2221 223.346C10.206 227.34 15.6094 229.584 21.2436 229.584H29.7665C32.0702 229.586 34.3218 230.272 36.2367 231.556C38.1516 232.84 39.644 234.665 40.5253 236.799C41.4067 238.933 41.6375 241.281 41.1886 243.546C40.7396 245.812 39.6312 247.893 38.0031 249.527L31.9767 255.57C28.1262 259.59 26.0011 264.964 26.0575 270.537C26.1139 276.111 28.3474 281.44 32.2785 285.382C36.2096 289.323 41.5252 291.562 47.0844 291.619C52.6435 291.676 58.0033 289.545 62.0134 285.684L68.0558 279.642C69.6836 278.008 71.7587 276.894 74.0182 276.443C76.2777 275.992 78.62 276.223 80.7484 277.107C82.8768 277.991 84.6955 279.489 85.9743 281.41C87.2531 283.332 87.9344 285.59 87.9319 287.9V296.525C88.1443 302.027 90.4738 307.233 94.4315 311.05C98.3892 314.868 103.668 317 109.16 317C114.651 317 119.93 314.868 123.888 311.05C127.845 307.233 130.175 302.027 130.387 296.525V287.98C130.385 285.67 131.066 283.412 132.345 281.49C133.624 279.569 135.442 278.071 137.571 277.187C139.699 276.302 142.041 276.071 144.301 276.523C146.56 276.974 148.635 278.087 150.263 279.722L156.306 285.764C160.316 289.625 165.676 291.755 171.235 291.699C176.794 291.642 182.109 289.403 186.041 285.462C189.972 281.52 192.205 276.191 192.262 270.617C192.318 265.044 190.193 259.67 186.342 255.649L180.316 249.607C178.653 247.976 177.514 245.884 177.047 243.599C176.58 241.314 176.806 238.941 177.695 236.786C178.585 234.631 180.097 232.791 182.037 231.505C183.978 230.219 186.258 229.544 188.584 229.568H197.171C202.805 229.568 208.208 227.324 212.192 223.33C216.176 219.335 218.415 213.918 218.415 208.269C218.415 202.62 216.176 197.203 212.192 193.209C208.208 189.214 202.805 186.97 197.171 186.97C195.906 186.97 194.692 187.474 193.798 188.371C192.903 189.268 192.401 190.484 192.401 191.753C192.401 193.021 192.903 194.238 193.798 195.135C194.692 196.032 195.906 196.536 197.171 196.536C200.275 196.536 203.251 197.772 205.446 199.972C207.641 202.173 208.874 205.157 208.874 208.269C208.874 211.381 207.641 214.365 205.446 216.566C203.251 218.766 200.275 220.003 197.171 220.003H188.584C186.519 220 184.463 220.29 182.479 220.863C183.288 216.424 183.698 211.921 183.703 207.408C183.736 197.714 181.851 188.11 178.158 179.151C174.466 170.192 169.038 162.056 162.189 155.213L162.094 155.118C150.08 143.064 143.332 126.722 143.332 109.682C143.332 92.6428 150.08 76.3004 162.094 64.2471C173.986 52.2889 190.046 45.4296 206.886 45.1165C219.64 44.8849 232.173 48.4807 242.873 55.4422C253.574 62.4037 261.956 72.4131 266.941 84.1852C271.926 95.9573 273.289 108.955 270.853 121.509C268.416 134.063 262.293 145.6 253.269 154.639L252.554 155.357C246.258 161.656 238.727 166.577 230.436 169.807C222.145 173.037 213.276 174.506 204.39 174.121C203.125 174.064 201.889 174.513 200.954 175.369C200.019 176.226 199.462 177.42 199.405 178.688C199.348 179.957 199.796 181.196 200.65 182.133C201.505 183.07 202.695 183.629 203.961 183.686C213.577 184.095 223.181 182.617 232.232 179.334C232.596 179.289 232.953 179.203 233.298 179.079C238.322 177.261 244.11 176.034 248.881 180.817L254.907 186.859C258.917 190.719 264.277 192.85 269.836 192.793C275.395 192.737 280.711 190.497 284.642 186.556C288.573 182.615 290.807 177.285 290.863 171.712C290.919 166.138 288.794 160.764 284.944 156.744L278.917 150.686C277.276 149.055 276.156 146.972 275.699 144.701C275.243 142.431 275.471 140.075 276.354 137.934C277.237 135.794 278.736 133.965 280.659 132.682C282.583 131.398 284.844 130.717 287.154 130.726H295.756C301.391 130.726 306.794 128.482 310.778 124.488C314.762 120.494 317 115.076 317 109.427C317 103.779 314.762 98.3611 310.778 94.3668C306.794 90.3725 301.391 88.1285 295.756 88.1285V88.1604ZM38.7663 154.209C36.7049 151.994 35.5819 149.063 35.6341 146.035C35.6863 143.006 36.9096 140.115 39.0461 137.973C41.1826 135.831 44.0653 134.605 47.0864 134.552C50.1074 134.5 53.0306 135.626 55.2397 137.693L61.2661 143.735C62.85 145.295 64.6558 146.612 66.6247 147.641C63.4235 149.949 60.4137 152.514 57.6248 155.309L57.3704 155.564C54.2254 158.714 51.3677 162.139 48.8316 165.799C47.7925 163.729 46.4289 161.84 44.7928 160.203L38.7663 154.209ZM21.2436 220.003C19.6778 220.061 18.1165 219.801 16.6528 219.241C15.1892 218.68 13.8534 217.829 12.7252 216.739C11.597 215.649 10.6996 214.342 10.0867 212.896C9.47372 211.451 9.15781 209.896 9.15781 208.325C9.15781 206.754 9.47372 205.199 10.0867 203.753C10.6996 202.308 11.597 201.001 12.7252 199.911C13.8534 198.821 15.1892 197.97 16.6528 197.409C18.1165 196.848 19.6778 196.589 21.2436 196.647H29.7665C32.1689 196.651 34.5551 196.252 36.8264 195.467C35.3917 204 35.4509 212.718 37.0014 221.23C34.6765 220.413 32.23 219.998 29.7665 220.003H21.2436ZM61.2661 272.867L55.2397 278.909C53.0573 281.099 50.0965 282.33 47.0086 282.332C43.9208 282.333 40.9588 281.105 38.7743 278.917C36.5898 276.729 35.3617 273.76 35.3602 270.665C35.3587 267.569 36.584 264.599 38.7663 262.409L44.7928 256.351C46.5774 254.574 48.0361 252.497 49.1019 250.213C51.6194 253.82 54.4502 257.197 57.5612 260.304C60.6099 263.328 63.9196 266.076 67.4515 268.515C65.1553 269.584 63.0622 271.046 61.2661 272.835V272.867ZM120.847 296.525C120.905 298.095 120.646 299.66 120.087 301.128C119.528 302.595 118.679 303.935 117.592 305.066C116.504 306.197 115.201 307.096 113.759 307.711C112.317 308.326 110.766 308.642 109.199 308.642C107.632 308.642 106.082 308.326 104.64 307.711C103.198 307.096 101.894 306.197 100.807 305.066C99.7197 303.935 98.871 302.595 98.3118 301.128C97.7525 299.66 97.494 298.095 97.5519 296.525V287.98C97.555 285.401 97.0973 282.841 96.2003 280.423C104.786 281.976 113.58 281.976 122.166 280.423C121.288 282.834 120.841 285.382 120.847 287.948V296.525ZM173.574 256.399L179.6 262.457C181.783 264.647 183.008 267.616 183.007 270.712C183.005 273.808 181.777 276.777 179.593 278.965C177.408 281.153 174.446 282.381 171.358 282.38C168.27 282.378 165.31 281.147 163.127 278.957L157.101 272.915C155.382 271.191 153.388 269.769 151.201 268.706C155.133 266.032 158.806 262.995 162.173 259.635C164.865 256.926 167.347 254.017 169.599 250.93C170.625 252.926 171.962 254.745 173.558 256.319L173.574 256.399ZM155.272 57.392C152.364 60.3156 149.704 63.4778 147.322 66.8457C146.293 64.8374 144.957 63.0031 143.362 61.4094L137.336 55.3673C136.253 54.2834 135.394 52.9962 134.808 51.5792C134.222 50.1622 133.92 48.6432 133.92 47.1092C133.92 45.5752 134.222 44.0563 134.808 42.6393C135.394 41.2223 136.253 39.935 137.336 38.8512C138.417 37.7656 139.701 36.9044 141.114 36.3169C142.528 35.7293 144.043 35.4268 145.573 35.4268C147.103 35.4268 148.618 35.7293 150.031 36.3169C151.444 36.9044 152.728 37.7656 153.809 38.8512L159.836 44.8933C161.458 46.5248 163.325 47.8911 165.369 48.9426C161.762 51.4561 158.384 54.2835 155.272 57.392ZM206.711 35.4395C202.813 35.5225 198.927 35.9062 195.088 36.5874C195.793 34.4093 196.152 32.1337 196.153 29.8438V21.2988C196.095 19.729 196.354 18.1635 196.913 16.6961C197.472 15.2287 198.321 13.8894 199.408 12.7583C200.496 11.6271 201.799 10.7274 203.241 10.1129C204.683 9.49834 206.234 9.18161 207.801 9.18161C209.368 9.18161 210.918 9.49834 212.36 10.1129C213.802 10.7274 215.106 11.6271 216.193 12.7583C217.28 13.8894 218.129 15.2287 218.688 16.6961C219.248 18.1635 219.506 19.729 219.448 21.2988V29.8438C219.445 32.0769 219.783 34.2974 220.45 36.428C215.911 35.6737 211.312 35.3428 206.711 35.4395ZM258.707 55.5267C256.143 53.0781 253.4 50.8241 250.502 48.7832C252.417 47.7563 254.169 46.4508 255.702 44.9092L261.744 38.8671C263.929 36.679 266.891 35.4506 269.979 35.4521C273.067 35.4536 276.027 36.6849 278.21 38.8751C280.392 41.0653 281.617 44.0349 281.616 47.1308C281.614 50.2267 280.386 53.1952 278.202 55.3832L272.175 61.4253C270.637 62.9679 269.335 64.73 268.311 66.6544C265.464 62.6385 262.231 58.9116 258.66 55.5267H258.707ZM278.202 163.535C279.284 164.619 280.142 165.905 280.727 167.321C281.313 168.737 281.615 170.255 281.616 171.788C281.617 173.321 281.316 174.839 280.732 176.255C280.147 177.672 279.29 178.959 278.21 180.043C277.129 181.128 275.846 181.988 274.434 182.576C273.022 183.163 271.508 183.466 269.979 183.466C268.45 183.467 266.936 183.166 265.523 182.58C264.11 181.994 262.826 181.135 261.744 180.051L255.702 174.009C254.076 172.361 252.191 170.993 250.121 169.96C253.418 167.602 256.519 164.979 259.391 162.116L260.091 161.399C263.03 158.442 265.716 155.242 268.121 151.834C269.165 153.914 270.534 155.814 272.175 157.461L278.202 163.535ZM295.756 121.161H287.234C284.972 121.152 282.724 121.502 280.571 122.197C281.393 117.578 281.777 112.891 281.716 108.2C281.667 104.38 281.327 100.569 280.698 96.8011C282.812 97.4713 285.017 97.81 287.234 97.8055H295.756C297.322 97.7475 298.884 98.0066 300.347 98.5673C301.811 99.128 303.147 99.9789 304.275 101.069C305.403 102.159 306.3 103.466 306.913 104.912C307.526 106.357 307.842 107.912 307.842 109.483C307.842 111.054 307.526 112.609 306.913 114.055C306.3 115.5 305.403 116.807 304.275 117.897C303.147 118.987 301.811 119.838 300.347 120.399C298.884 120.96 297.322 121.219 295.756 121.161Z" fill="#0D72B9"/>
<path d="M87.1027 184.419C81.8286 189.739 78.5567 196.726 77.8443 204.193C77.1319 211.659 79.0231 219.142 83.1957 225.367C87.3683 231.592 93.5643 236.175 100.728 238.334C107.893 240.493 115.582 240.096 122.486 237.21C129.391 234.323 135.084 229.126 138.596 222.504C142.108 215.881 143.222 208.243 141.748 200.89C140.273 193.537 136.302 186.923 130.511 182.176C124.719 177.429 117.465 174.841 109.984 174.854C105.728 174.85 101.514 175.693 97.5863 177.335C93.6584 178.978 90.0949 181.385 87.1027 184.419ZM132.722 207.344C132.721 212.622 130.895 217.737 127.555 221.816C124.215 225.895 119.567 228.687 114.404 229.716C109.24 230.745 103.881 229.947 99.2387 227.458C94.5964 224.969 90.9585 220.944 88.9447 216.067C86.9309 211.191 86.6659 205.765 88.1947 200.715C89.7236 195.664 92.9518 191.301 97.3293 188.37C101.707 185.438 106.963 184.119 112.202 184.637C117.44 185.155 122.338 187.478 126.06 191.211C128.181 193.323 129.863 195.837 131.006 198.607C132.15 201.377 132.733 204.347 132.722 207.344Z" fill="#0D72B9"/>
<path d="M230.564 132.322C235.846 126.998 239.124 120.004 239.84 112.529C240.555 105.055 238.664 97.5629 234.488 91.3298C230.312 85.0966 224.109 80.5079 216.937 78.3454C209.765 76.1829 202.067 76.5804 195.155 79.4701C188.242 82.3598 182.543 87.563 179.027 94.1933C175.512 100.824 174.398 108.471 175.876 115.832C177.353 123.193 181.33 129.813 187.13 134.564C192.93 139.315 200.193 141.903 207.682 141.887C211.938 141.888 216.151 141.044 220.079 139.402C224.006 137.76 227.57 135.353 230.564 132.322ZM184.912 109.413C184.913 104.135 186.74 99.0203 190.08 94.941C193.42 90.8617 198.068 88.0698 203.231 87.041C208.394 86.0122 213.754 86.8102 218.396 89.2989C223.038 91.7877 226.676 95.8132 228.69 100.69C230.704 105.566 230.969 110.992 229.44 116.042C227.911 121.093 224.683 125.455 220.305 128.387C215.928 131.319 210.672 132.638 205.433 132.12C200.194 131.602 195.297 129.279 191.575 125.546C189.454 123.433 187.773 120.919 186.63 118.149C185.486 115.38 184.902 112.41 184.912 109.413Z" fill="#0D72B9"/>
</svg>
