<svg width="30" height="30" viewBox="0 0 30 30" fill="none" xmlns="http://www.w3.org/2000/svg">
<rect width="30" height="30" rx="15" fill="white"/>
<g clip-path="url(#clip0_305_783)">
<path d="M5.8102 11.5953H9.62647V23.8667H5.8102V11.5953ZM7.71159 5.50004C8.149 5.50004 8.57658 5.62975 8.94027 5.87276C9.30395 6.11576 9.58741 6.46116 9.7548 6.86527C9.92219 7.26937 9.96598 7.71404 9.88065 8.14305C9.79532 8.57205 9.58469 8.96611 9.2754 9.2754C8.96611 9.58469 8.57205 9.79532 8.14305 9.88065C7.71404 9.96598 7.26937 9.92219 6.86527 9.7548C6.46116 9.58741 6.11576 9.30395 5.87276 8.94027C5.62975 8.57658 5.50004 8.149 5.50004 7.71159C5.49825 7.42067 5.55423 7.13228 5.66474 6.86316C5.77525 6.59403 5.93808 6.34952 6.1438 6.1438C6.34952 5.93808 6.59403 5.77525 6.86316 5.66474C7.13228 5.55423 7.42067 5.49825 7.71159 5.50004Z" fill="#0D72B9"/>
<path d="M12.0137 11.5952H15.6681V13.2674C16.0437 12.6376 16.5834 12.1218 17.2294 11.775C17.8755 11.4282 18.6036 11.2635 19.3361 11.2986C23.1928 11.2986 23.9075 13.8338 23.9075 17.1376V23.8802H20.0912V17.8927C20.0912 16.5443 20.0912 14.6429 18.1089 14.6429C16.1266 14.6429 15.8299 16.1936 15.8299 17.7984V23.8667H12.0137V11.5952Z" fill="#0D72B9"/>
</g>
<defs>
<clipPath id="clip0_305_783">
<rect width="19" height="19" fill="white" transform="translate(5.5 5.5)"/>
</clipPath>
</defs>
</svg>
