<svg width="20" height="30" viewBox="0 0 20 30" fill="none" xmlns="http://www.w3.org/2000/svg">
<g clip-path="url(#clip0_301_817)">
<path d="M10.0003 0.90625C8.21989 0.907413 6.47206 1.39281 4.93708 2.31236C3.40211 3.23191 2.13556 4.55231 1.26811 6.13736C0.400663 7.72241 -0.0362807 9.5147 0.00235736 11.3294C0.0409954 13.144 0.553816 14.9152 1.48792 16.4605L9.42654 29.5049C9.50034 29.6285 9.60428 29.7304 9.72821 29.8006C9.85215 29.871 9.99185 29.9074 10.1337 29.9062C10.2796 29.9037 10.4224 29.8623 10.5476 29.7859C10.6729 29.7094 10.7763 29.6008 10.8475 29.4709L18.586 16.304C19.4842 14.7568 19.9654 12.9951 19.9809 11.1972C19.9963 9.39936 19.5454 7.6293 18.6739 6.06629C17.8024 4.50328 16.5411 3.20284 15.018 2.29669C13.4948 1.39054 11.7638 0.910866 10.0003 0.90625ZM17.1517 15.4538L10.1203 27.4307L2.90219 15.5695C2.12326 14.2867 1.6932 12.8156 1.65618 11.3075C1.61915 9.79918 1.97649 8.30807 2.69151 6.98715C3.40653 5.66623 4.45347 4.56309 5.72486 3.79098C6.99624 3.01886 8.44627 2.60559 9.9261 2.59358C11.4059 2.58157 12.8622 2.97127 14.1455 3.72265C15.4288 4.47404 16.4928 5.56005 17.2284 6.8692C17.9639 8.17835 18.3445 9.66347 18.331 11.1721C18.3175 12.6807 17.9105 14.1586 17.1517 15.4538Z" fill="white"/>
<path d="M10.0002 6.00782C9.01039 6.00647 8.0424 6.30449 7.21872 6.86416C6.39505 7.42383 5.75272 8.22 5.37301 9.15194C4.9933 10.0839 4.89326 11.1096 5.08556 12.0996C5.27786 13.0895 5.75386 13.999 6.45332 14.713C7.15278 15.4271 8.04428 15.9136 9.01501 16.1109C9.98575 16.3083 10.9921 16.2077 11.9067 15.8218C12.8214 15.436 13.6032 14.7822 14.1532 13.9432C14.7033 13.1042 14.9969 12.1178 14.9969 11.1086C14.9969 9.75701 14.4707 8.46062 13.5338 7.50422C12.597 6.54782 11.3261 6.00962 10.0002 6.00782ZM10.0002 14.5092C9.34053 14.5092 8.69564 14.3097 8.14711 13.9361C7.59858 13.5624 7.17105 13.0313 6.91859 12.41C6.66613 11.7886 6.60007 11.1048 6.72878 10.4452C6.85748 9.7856 7.17516 9.17968 7.64165 8.7041C8.10813 8.22852 8.70247 7.90465 9.34951 7.77344C9.99654 7.64223 10.6672 7.70957 11.2767 7.96695C11.8862 8.22433 12.4071 8.66019 12.7737 9.21941C13.1402 9.77863 13.3358 10.4361 13.3358 11.1086C13.3358 12.0105 12.9844 12.8754 12.3588 13.5132C11.7333 14.1509 10.8849 14.5092 10.0002 14.5092Z" fill="white"/>
</g>
<defs>
<clipPath id="clip0_301_817">
<rect width="20" height="29" fill="white" transform="translate(0 0.90625)"/>
</clipPath>
</defs>
</svg>
