<svg width="255" height="50" viewBox="0 0 255 50" fill="none" xmlns="http://www.w3.org/2000/svg">
<path d="M20.298 8.96468L12.6971 22.0988H11.8349L4.39832 8.92476V30.9037H0V0.671875H5.06551L12.3687 13.693L19.6667 0.691825H24.6963V30.9236H20.298V8.96468Z" fill="#0D72B9"/>
<path d="M46.2311 30.8637H28.7815V0.631836H46.2311V6.15817H33.1336V13.1143H45.7641V18.4344H33.1336V25.2642H46.2311V30.8637Z" fill="#0D72B9"/>
<path d="M70.1679 15.4884C70.2654 23.1295 66.6677 30.8637 58.5023 30.8637H49.3362V0.631836H58.5023C66.4984 0.631836 70.0653 8.01358 70.1679 15.4884ZM53.6986 25.3773H58.5023C63.7988 25.3773 65.8979 20.3697 65.8004 15.4419C65.6977 10.7335 63.5679 6.03182 58.5023 6.03182H53.6986V25.3773Z" fill="#0D72B9"/>
<path d="M79.801 30.8638V0.671875H96.568V6.15829H84.1994V14.4112H95.9008V19.6781H84.1994V30.8638H79.801Z" fill="#0D72B9"/>
<path d="M99.9656 30.8637V0.631836H104.333V30.8637H99.9656Z" fill="#0D72B9"/>
<path d="M123.8 0.584961H128.198V30.8633H125.447V30.9032L113.181 10.4805V30.8633H108.783V0.631497H112.344L123.779 19.3718L123.8 0.584961Z" fill="#0D72B9"/>
<path d="M148.799 25.1644H136.599L134.603 30.8637H129.835L140.3 0.631836H145.098L155.563 30.8637H150.764L148.799 25.1644ZM142.702 6.98279L138.365 19.8509H147.033L142.702 6.98279Z" fill="#0D72B9"/>
<path d="M172.9 0.584961H177.283V30.8633H174.552V30.9032L162.286 10.4805V30.8633H157.883V0.631497H161.45L172.884 19.3718L172.9 0.584961Z" fill="#0D72B9"/>
<path d="M201.917 27.0597C200.745 28.5361 199.358 29.6943 197.836 30.4663C196.314 31.2383 194.688 31.6085 193.054 31.5552C184.391 31.5552 180.737 23.821 180.69 15.9605C180.644 8.09996 184.622 7.44044e-06 193.054 7.44044e-06C194.647 -0.00200803 196.224 0.405458 197.694 1.19882C199.164 1.99219 200.499 3.15567 201.62 4.62189L198.684 8.29281C197.163 6.42077 195.136 5.39644 193.038 5.43987C187.393 5.43987 184.971 10.8864 185.007 15.9339C185.042 20.9814 187.27 26.1752 193.038 26.1752C195.224 26.1553 197.322 25.0566 198.905 23.1028L201.917 27.0597Z" fill="#0D72B9"/>
<path d="M204.432 30.8637V0.631836H208.8V30.8637H204.432Z" fill="#0D72B9"/>
<path d="M229.498 25.1644H217.314L215.318 30.8637H210.55L221.014 0.631836H225.813L236.283 30.8637H231.479L229.498 25.1644ZM223.401 6.98279L219.064 19.8509H227.733L223.401 6.98279Z" fill="#0D72B9"/>
<path d="M243.001 0.631836V25.5967H255V30.8637H238.603V0.631836H243.001Z" fill="#0D72B9"/>
<path d="M73.0984 45.2808L74.4379 45.1279C74.4776 45.7351 74.629 46.3211 74.8793 46.837C75.1497 47.322 75.522 47.6959 75.9519 47.9143C76.4717 48.1963 77.0308 48.3367 77.5942 48.3266C78.0823 48.3369 78.5676 48.2309 79.0261 48.0141C79.3918 47.8505 79.7128 47.5524 79.9499 47.1562C80.1459 46.8137 80.252 46.3988 80.2527 45.9725C80.259 45.5591 80.1557 45.1554 79.9602 44.8286C79.6988 44.4521 79.3662 44.1702 78.9953 44.0106C78.7079 43.871 78.0767 43.6449 77.0913 43.3456C76.385 43.154 75.6967 42.8641 75.0384 42.4811C74.5753 42.1903 74.1803 41.745 73.8939 41.191C73.6452 40.6722 73.5153 40.0726 73.5192 39.4619C73.5197 38.7631 73.6805 38.0802 73.9811 37.5001C74.307 36.8713 74.7749 36.3882 75.3206 36.1169C75.9456 35.794 76.6135 35.6336 77.2863 35.6447C78.0025 35.628 78.7142 35.7952 79.3802 36.1368C79.9502 36.4307 80.4385 36.9406 80.7813 37.5999C81.1037 38.2546 81.2812 39.0113 81.2946 39.7878L79.9396 39.9141C79.9243 39.5341 79.8506 39.162 79.7228 38.8194C79.595 38.4768 79.4157 38.1707 79.1955 37.9191C78.6518 37.4269 77.994 37.1921 77.3325 37.254C76.6731 37.1855 76.0147 37.4005 75.4592 37.8659C75.2792 38.0337 75.1323 38.2543 75.0306 38.5098C74.9289 38.7652 74.8753 39.0481 74.8741 39.3355C74.8696 39.5676 74.9045 39.798 74.9763 40.0107C75.0481 40.2233 75.1552 40.4128 75.2898 40.5658C75.5619 40.8851 76.2752 41.2309 77.4249 41.5501C78.2319 41.7552 79.0235 42.0511 79.7908 42.4345C80.3425 42.7339 80.82 43.2239 81.1714 43.851C81.4767 44.4398 81.6327 45.1371 81.6179 45.8461C81.6107 46.5907 81.432 47.3155 81.1047 47.9276C80.7643 48.6038 80.2767 49.1338 79.7036 49.4505C79.058 49.8235 78.3574 50.0096 77.6507 49.9958C76.8197 50.0287 75.9922 49.8432 75.218 49.4505C74.5887 49.1135 74.0522 48.5388 73.6783 47.8013C73.3034 47.05 73.1022 46.1755 73.0984 45.2808Z" fill="#808080"/>
<path d="M86.1034 42.9537C86.1034 40.6572 86.579 38.8572 87.5302 37.5537C88.0044 36.9078 88.579 36.3996 89.2159 36.0626C89.8529 35.7255 90.5378 35.5674 91.2254 35.5986C92.163 35.5829 93.0859 35.9003 93.8941 36.5163C94.6801 37.1189 95.3105 38.0099 95.7058 39.0766C96.1339 40.2363 96.3482 41.5088 96.3319 42.7941C96.3486 44.1031 96.1234 45.3982 95.675 46.5714C95.2687 47.6381 94.6181 48.516 93.812 49.0852C93.0174 49.6549 92.1232 49.9503 91.2151 49.9431C90.2646 49.9635 89.329 49.6361 88.5156 48.9987C87.7352 48.3824 87.1095 47.4861 86.7141 46.4185C86.31 45.3387 86.1011 44.1538 86.1034 42.9537ZM87.561 42.9537C87.4945 44.3911 87.8627 45.8056 88.5874 46.8973C88.9257 47.3551 89.3319 47.7195 89.7818 47.9685C90.2316 48.2174 90.7157 48.3457 91.2049 48.3457C91.694 48.3457 92.1781 48.2174 92.6279 47.9685C93.0778 47.7195 93.484 47.3551 93.8223 46.8973C94.5597 45.7416 94.9271 44.2636 94.8487 42.7675C94.8658 41.7537 94.7153 40.747 94.4074 39.8148C94.1393 38.9977 93.6889 38.3029 93.114 37.8198C92.5397 37.3664 91.8772 37.1356 91.2049 37.1547C90.2475 37.1413 89.3249 37.6195 88.6387 38.4848C87.9168 39.4158 87.5575 40.9254 87.561 43.0136V42.9537Z" fill="#808080"/>
<path d="M101.084 49.7368V35.8711H102.501V48.1008H107.772V49.7368H101.084Z" fill="#808080"/>
<path d="M119.463 35.8711H120.879V43.8513C120.91 44.9789 120.787 46.1046 120.515 47.1764C120.258 48.0126 119.794 48.7145 119.196 49.1715C118.435 49.7257 117.569 49.9929 116.697 49.9429C115.847 49.9885 115.003 49.76 114.238 49.2779C113.621 48.8589 113.138 48.1713 112.873 47.336C112.569 46.2229 112.431 45.0447 112.468 43.8646V35.8844H113.879V43.8646C113.846 44.7643 113.934 45.6647 114.141 46.5247C114.305 47.0909 114.62 47.5625 115.029 47.8548C115.503 48.1769 116.033 48.3349 116.568 48.3136C117.595 48.3136 118.349 48.0077 118.796 47.3959C119.242 46.7841 119.458 45.6136 119.458 43.8713L119.463 35.8711Z" fill="#808080"/>
<path d="M128.942 49.7368V37.507H125.447V35.8711H133.925V37.507H130.384V49.7368H128.942Z" fill="#808080"/>
<path d="M138.581 49.7368V35.8711H139.997V49.7368H138.581Z" fill="#808080"/>
<path d="M145.047 42.9536C145.047 40.657 145.524 38.8571 146.479 37.5536C146.952 36.9082 147.526 36.4003 148.162 36.0632C148.798 35.7262 149.482 35.5678 150.169 35.5985C151.108 35.5815 152.033 35.899 152.843 36.5162C153.629 37.1188 154.259 38.0098 154.655 39.0765C155.083 40.2361 155.297 41.5087 155.281 42.794C155.298 44.103 155.072 45.3981 154.624 46.5713C154.216 47.6367 153.566 48.5141 152.761 49.0851C151.966 49.6548 151.072 49.9502 150.164 49.943C149.213 49.9641 148.278 49.6367 147.464 48.9986C146.682 48.3862 146.055 47.4888 145.663 46.4183C145.255 45.3402 145.044 44.1545 145.047 42.9536ZM146.51 42.9536C146.443 44.391 146.812 45.8055 147.536 46.8972C147.875 47.3552 148.282 47.7197 148.732 47.9687C149.182 48.2177 149.667 48.3461 150.156 48.3461C150.646 48.3461 151.13 48.2177 151.581 47.9687C152.031 47.7197 152.438 47.3552 152.776 46.8972C153.512 45.7402 153.879 44.2631 153.803 42.7674C153.822 41.7533 153.672 40.7459 153.361 39.8147C153.097 38.9965 152.648 38.301 152.073 37.8196C151.498 37.3679 150.836 37.1373 150.164 37.1546C149.207 37.1412 148.284 37.6194 147.598 38.4846C146.859 39.4157 146.489 40.9253 146.489 43.0134L146.51 42.9536Z" fill="#808080"/>
<path d="M160.074 49.7368V35.8711H161.527L167.146 46.7575V35.8711H168.501V49.7368H167.054L161.434 38.8437V49.7368H160.074Z" fill="#808080"/>
<path d="M173.387 45.2808L174.727 45.1279C174.766 45.7351 174.918 46.3211 175.168 46.837C175.437 47.3236 175.81 47.6979 176.241 47.9143C176.761 48.1963 177.32 48.3367 177.883 48.3266C178.371 48.3369 178.856 48.2309 179.315 48.0141C179.681 47.8505 180.002 47.5524 180.239 47.1562C180.435 46.8137 180.541 46.3988 180.542 45.9725C180.548 45.5591 180.445 45.1554 180.249 44.8286C179.988 44.4521 179.655 44.1702 179.284 44.0106C178.997 43.871 178.36 43.6449 177.38 43.3456C176.674 43.1551 175.985 42.8652 175.327 42.4811C174.864 42.1903 174.469 41.745 174.183 41.191C173.932 40.6734 173.802 40.073 173.808 39.4619C173.809 38.7631 173.969 38.0802 174.27 37.5001C174.595 36.8698 175.063 36.3863 175.609 36.1169C176.234 35.794 176.902 35.6336 177.575 35.6447C178.291 35.628 179.003 35.7952 179.669 36.1368C180.239 36.4307 180.727 36.9406 181.07 37.5999C181.393 38.2546 181.57 39.0113 181.583 39.7878L180.228 39.9141C180.213 39.5341 180.139 39.162 180.012 38.8194C179.884 38.4768 179.705 38.1707 179.484 37.9191C178.941 37.4269 178.283 37.1921 177.621 37.254C176.962 37.1855 176.304 37.4005 175.748 37.8659C175.568 38.0337 175.421 38.2543 175.319 38.5098C175.218 38.7652 175.164 39.0481 175.163 39.3355C175.158 39.5676 175.193 39.798 175.265 40.0107C175.337 40.2233 175.444 40.4128 175.579 40.5658C175.851 40.8851 176.564 41.2309 177.714 41.5501C178.521 41.7552 179.312 42.0511 180.08 42.4345C180.631 42.7339 181.109 43.2239 181.46 43.851C181.765 44.4398 181.922 45.1371 181.907 45.8461C181.899 46.5907 181.721 47.3155 181.393 47.9276C181.052 48.6022 180.565 49.1318 179.992 49.4505C179.347 49.8235 178.646 50.0096 177.939 49.9958C177.109 50.0287 176.281 49.8432 175.507 49.4505C174.877 49.1135 174.341 48.5388 173.967 47.8013C173.592 47.05 173.391 46.1755 173.387 45.2808Z" fill="#808080"/>
<path d="M70.1679 42.2559H0V43.3465H70.1679V42.2559Z" fill="#808080"/>
<path d="M255 42.2559H184.832V43.3465H255V42.2559Z" fill="#808080"/>
</svg>
