<svg width="26" height="31" viewBox="0 0 26 31" fill="none" xmlns="http://www.w3.org/2000/svg">
<g clip-path="url(#clip0_301_827)">
<path d="M25.6685 11.6428C25.6669 11.4164 25.5763 11.1995 25.4162 11.0391L22.244 7.86677V1.26238C22.244 1.03794 22.1559 0.822467 21.9987 0.662345C21.8414 0.502223 21.6275 0.410258 21.4031 0.40625H4.28063C4.05357 0.40625 3.83581 0.496449 3.67526 0.657003C3.5147 0.817558 3.4245 1.03532 3.4245 1.26238V7.86677L0.252251 11.0391C0.0922155 11.1995 0.00162207 11.4164 0 11.6428V27.0455C0.00202337 27.7253 0.273512 28.3766 0.754957 28.8566C1.2364 29.3368 1.88852 29.6063 2.56838 29.6063H23.1001C23.78 29.6063 24.4321 29.3368 24.9135 28.8566C25.395 28.3766 25.6665 27.7253 25.6685 27.0455V11.6428ZM23.6046 11.6428L22.244 12.9958V10.2823L23.6046 11.6428ZM20.547 2.1185V8.23368V14.7234L15.8995 19.3403H9.78429L5.13675 14.7081V8.2184V2.10321L20.547 2.1185ZM3.4245 12.9958L2.06387 11.6428L3.4245 10.2823V12.9958ZM1.71225 26.6863V13.6915L8.20199 20.1812L1.71225 26.6863ZM2.92 27.9245L9.79958 21.045H15.9148L22.7943 27.9245H2.92ZM23.9562 26.7092L17.4665 20.2194L23.9562 13.7297V26.7092Z" fill="white"/>
</g>
<defs>
<clipPath id="clip0_301_827">
<rect width="26" height="30" fill="white" transform="translate(0 0.40625)"/>
</clipPath>
</defs>
</svg>
