<svg width="96" height="70" viewBox="0 0 96 70" fill="none" xmlns="http://www.w3.org/2000/svg">
<g clip-path="url(#clip0_41_750)">
<path d="M51.4488 62.2054H5.46691C5.1417 62.2054 4.82982 62.0775 4.59986 61.8497C4.36991 61.6218 4.24072 61.3129 4.24072 60.9907V51.7282C4.26169 47.5448 5.39115 43.4402 7.51611 39.8251C9.64108 36.2099 12.687 33.2109 16.3493 31.1281C16.4868 31.0195 16.6462 30.9415 16.8168 30.8994C16.9874 30.8572 17.1652 30.8519 17.3381 30.8838C17.5109 30.9157 17.6748 30.9841 17.8187 31.0842C17.9625 31.1844 18.0829 31.314 18.1717 31.4644C18.2606 31.6147 18.3157 31.7822 18.3335 31.9555C18.3512 32.1288 18.3311 32.3038 18.2745 32.4688C18.218 32.6337 18.1263 32.7846 18.0057 32.9114C17.8851 33.0381 17.7383 33.1377 17.5755 33.2033C14.3267 35.1084 11.634 37.818 9.76192 41.0659C7.88981 44.3137 6.90267 47.9881 6.89745 51.7282V59.7759H50.1715V51.7282C50.1663 47.9881 49.1792 44.3137 47.3071 41.0659C45.435 37.818 42.7423 35.1084 39.4935 33.2033C39.356 33.1135 39.2376 32.9979 39.1452 32.8628C39.0528 32.7278 38.9881 32.576 38.9549 32.4162C38.9217 32.2564 38.9206 32.0917 38.9517 31.9315C38.9827 31.7712 39.0453 31.6186 39.1359 31.4824C39.2265 31.3461 39.3432 31.2289 39.4795 31.1373C39.6159 31.0458 39.7691 30.9817 39.9304 30.9488C40.0917 30.9159 40.2579 30.9148 40.4197 30.9456C40.5814 30.9763 40.7354 31.0383 40.873 31.1281C44.4972 33.2364 47.5023 36.2464 49.5904 39.8598C51.6785 43.4733 52.777 47.5646 52.7772 51.7282V60.9907C52.7778 61.1591 52.743 61.3258 52.6751 61.4802C52.6072 61.6346 52.5076 61.7733 52.3827 61.8875C52.2578 62.0018 52.1103 62.089 51.9495 62.1437C51.7887 62.1985 51.6182 62.2195 51.4488 62.2054Z" fill="#0D72B9"/>
<path d="M28.5598 25.3075C26.0191 25.3074 23.5357 24.5597 21.4247 23.1592C19.3137 21.7587 17.6702 19.7685 16.7026 17.4412C15.7351 15.1139 15.4872 12.5544 15.9903 10.0873C16.4935 7.62014 17.725 5.35669 19.5287 3.58406C21.3324 1.81144 23.6269 0.609529 26.1212 0.130824C28.6155 -0.347882 31.1971 -0.0818072 33.5385 0.89529C35.8799 1.87239 37.8755 3.51647 39.2723 5.61895C40.669 7.72143 41.4039 10.1875 41.3836 12.7044C41.3567 16.0562 39.9937 19.2617 37.5917 21.6223C35.1896 23.983 31.9432 25.3076 28.5598 25.3075ZM28.5598 2.32843C26.5388 2.32843 24.5632 2.92213 22.8828 4.03445C21.2025 5.14677 19.8928 6.72776 19.1194 8.57748C18.346 10.4272 18.1436 12.4626 18.5379 14.4262C18.9322 16.3899 19.9054 18.1936 21.3344 19.6093C22.7635 21.0251 24.5842 21.9892 26.5663 22.3798C28.5484 22.7704 30.603 22.5699 32.4701 21.8037C34.3372 21.0375 35.9331 19.7401 37.0559 18.0753C38.1787 16.4106 38.778 14.4535 38.778 12.4514C38.751 9.78417 37.6626 7.2353 35.7492 5.35872C33.8359 3.48214 31.2522 2.42953 28.5598 2.42966V2.32843Z" fill="#0D72B9"/>
<path d="M94.7227 62.2055H1.22618C0.90098 62.2055 0.589095 62.0775 0.359141 61.8497C0.129187 61.6219 0 61.3129 0 60.9907C0 60.6685 0.129187 60.3596 0.359141 60.1317C0.589095 59.9039 0.90098 59.776 1.22618 59.776H94.7227C94.888 59.7691 95.0529 59.7955 95.2077 59.8535C95.3624 59.9115 95.5037 59.9999 95.623 60.1133C95.7423 60.2268 95.8372 60.3631 95.902 60.5138C95.9668 60.6646 96.0001 60.8268 96 60.9907C95.9868 61.3175 95.8464 61.6264 95.6083 61.8529C95.3702 62.0794 95.0528 62.2057 94.7227 62.2055Z" fill="#0D72B9"/>
<path d="M94.7227 69.9998H1.22618C0.90098 69.9998 0.589095 69.8718 0.359141 69.644C0.129187 69.4162 0 69.1072 0 68.7851C0 68.4629 0.129187 68.1539 0.359141 67.9261C0.589095 67.6983 0.90098 67.5703 1.22618 67.5703H94.7227C95.0479 67.5703 95.3598 67.6983 95.5898 67.9261C95.8197 68.1539 95.9489 68.4629 95.9489 68.7851C95.9489 69.1072 95.8197 69.4162 95.5898 69.644C95.3598 69.8718 95.0479 69.9998 94.7227 69.9998Z" fill="#0D72B9"/>
<path d="M88.796 62.2053H67.5933C66.0757 62.2053 64.6202 61.6081 63.5471 60.545C62.474 59.4819 61.8711 58.04 61.8711 56.5365C61.8711 55.033 62.474 53.5912 63.5471 52.528C64.6202 51.4649 66.0757 50.8677 67.5933 50.8677H88.796C89.1213 50.8677 89.4331 50.9957 89.6631 51.2235C89.8931 51.4513 90.0222 51.7603 90.0222 52.0824C90.0222 52.4046 89.8931 52.7136 89.6631 52.9414C89.4331 53.1692 89.1213 53.2972 88.796 53.2972H67.5933C66.7261 53.2972 65.8944 53.6385 65.2812 54.246C64.668 54.8535 64.3235 55.6774 64.3235 56.5365C64.3235 57.3956 64.668 58.2196 65.2812 58.8271C65.8944 59.4346 66.7261 59.7758 67.5933 59.7758H88.796C88.9571 59.7758 89.1165 59.8073 89.2653 59.8683C89.4141 59.9294 89.5492 60.0188 89.6631 60.1316C89.777 60.2444 89.8673 60.3783 89.9289 60.5257C89.9905 60.6731 90.0222 60.8311 90.0222 60.9906C90.0222 61.3128 89.8931 61.6217 89.6631 61.8496C89.4331 62.0774 89.1213 62.2053 88.796 62.2053Z" fill="#0D72B9"/>
<path d="M90.1244 44.4397H68.9727C67.4551 44.4397 65.9996 43.8425 64.9265 42.7794C63.8534 41.7162 63.2505 40.2744 63.2505 38.7709C63.2505 37.2674 63.8534 35.8255 64.9265 34.7624C65.9996 33.6993 67.4551 33.1021 68.9727 33.1021H90.1244C90.4496 33.1021 90.7614 33.23 90.9914 33.4578C91.2214 33.6857 91.3505 33.9946 91.3505 34.3168C91.3578 34.4782 91.331 34.6394 91.272 34.79C91.2129 34.9407 91.1229 35.0775 91.0075 35.1917C90.8922 35.306 90.7541 35.3952 90.602 35.4537C90.45 35.5122 90.2873 35.5387 90.1244 35.5316H68.9727C68.1055 35.5316 67.2738 35.8728 66.6606 36.4803C66.0474 37.0878 65.7029 37.9118 65.7029 38.7709C65.7029 39.63 66.0474 40.4539 66.6606 41.0614C67.2738 41.6689 68.1055 42.0102 68.9727 42.0102H90.1244C90.2873 42.003 90.45 42.0295 90.602 42.088C90.7541 42.1465 90.8922 42.2358 91.0075 42.35C91.1229 42.4643 91.2129 42.6011 91.272 42.7517C91.331 42.9024 91.3578 43.0635 91.3505 43.225C91.3505 43.5471 91.2214 43.8561 90.9914 44.0839C90.7614 44.3117 90.4496 44.4397 90.1244 44.4397Z" fill="#0D72B9"/>
<path d="M82.3076 53.2973H61.3092C60.984 53.2973 60.6721 53.1693 60.4421 52.9415C60.2122 52.7137 60.083 52.4047 60.083 52.0826C60.083 51.7604 60.2122 51.4514 60.4421 51.2236C60.6721 50.9958 60.984 50.8678 61.3092 50.8678H82.512C83.3656 50.8678 84.1843 50.5319 84.7879 49.9339C85.3916 49.3359 85.7307 48.5248 85.7307 47.6791C85.7308 46.8287 85.3933 46.0123 84.7911 45.4062C84.1889 44.8002 83.3703 44.453 82.512 44.4398H61.3092C61.1482 44.4398 60.9887 44.4083 60.84 44.3473C60.6912 44.2862 60.556 44.1968 60.4421 44.084C60.3283 43.9712 60.238 43.8372 60.1763 43.6899C60.1147 43.5425 60.083 43.3845 60.083 43.225C60.083 42.9028 60.2122 42.5939 60.4421 42.366C60.6721 42.1382 60.984 42.0103 61.3092 42.0103H82.512C83.9297 42.1434 85.2464 42.7955 86.2047 43.8392C87.163 44.8828 87.6941 46.2429 87.6941 47.6538C87.6941 49.0646 87.163 50.4248 86.2047 51.4684C85.2464 52.512 83.9297 53.1641 82.512 53.2973H82.3076Z" fill="#0D72B9"/>
<path d="M75.9725 48.8936H63.1486C62.9631 48.9309 62.7716 48.9269 62.5878 48.8819C62.4041 48.8369 62.2327 48.752 62.0861 48.6333C61.9396 48.5146 61.8215 48.3651 61.7404 48.1957C61.6593 48.0263 61.6172 47.8411 61.6172 47.6535C61.6172 47.466 61.6593 47.2808 61.7404 47.1114C61.8215 46.942 61.9396 46.7925 62.0861 46.6738C62.2327 46.5551 62.4041 46.4702 62.5878 46.4252C62.7716 46.3802 62.9631 46.3762 63.1486 46.4135H75.9725C76.2612 46.4716 76.5208 46.6268 76.7073 46.8528C76.8937 47.0788 76.9956 47.3617 76.9956 47.6535C76.9956 47.9454 76.8937 48.2283 76.7073 48.4543C76.5208 48.6803 76.2612 48.8355 75.9725 48.8936Z" fill="#0D72B9"/>
<path d="M87.8767 39.9857H78.2716C77.9464 39.9857 77.6345 39.8577 77.4046 39.6299C77.1746 39.4021 77.0454 39.0931 77.0454 38.7709C77.0454 38.4487 77.1746 38.1398 77.4046 37.9119C77.6345 37.6841 77.9464 37.5562 78.2716 37.5562H87.8767C88.2019 37.5562 88.5138 37.6841 88.7437 37.9119C88.9737 38.1398 89.1029 38.4487 89.1029 38.7709C89.1029 39.0931 88.9737 39.4021 88.7437 39.6299C88.5138 39.8577 88.2019 39.9857 87.8767 39.9857Z" fill="#0D72B9"/>
<path d="M85.5774 57.7513H75.9723C75.6471 57.7513 75.3352 57.6233 75.1052 57.3955C74.8753 57.1677 74.7461 56.8587 74.7461 56.5365C74.7461 56.2144 74.8753 55.9054 75.1052 55.6776C75.3352 55.4498 75.6471 55.3218 75.9723 55.3218H85.5774C85.9026 55.3218 86.2145 55.4498 86.4444 55.6776C86.6744 55.9054 86.8036 56.2144 86.8036 56.5365C86.8036 56.8587 86.6744 57.1677 86.4444 57.3955C86.2145 57.6233 85.9026 57.7513 85.5774 57.7513Z" fill="#0D72B9"/>
<path d="M51.704 23.789C51.4995 23.7923 51.2977 23.7427 51.1185 23.645C50.9393 23.5474 50.7889 23.4051 50.6822 23.2322C50.5248 23.0289 50.4395 22.7799 50.4395 22.5236C50.4395 22.2674 50.5248 22.0183 50.6822 21.815L54.3097 17.1079C53.3699 16.4476 52.5924 15.586 52.0352 14.587C51.4779 13.588 51.1551 12.4774 51.0909 11.3378C51.0909 5.92204 58.1926 1.67041 67.0313 1.67041C75.8701 1.67041 82.8185 5.92204 82.8185 11.3378C82.8185 16.7536 75.8701 21.0052 67.0313 21.0052C65.576 21.015 64.1227 20.8964 62.6886 20.6509L52.0617 23.7384L51.704 23.789ZM67.0313 4.09991C59.8275 4.09991 53.7477 7.38986 53.7477 11.3378C53.8379 12.2892 54.1653 13.2035 54.7003 13.9986C55.2354 14.7937 55.9614 15.4447 56.8131 15.8931C56.9513 15.9846 57.0682 16.1041 57.1563 16.2437C57.2443 16.3833 57.3015 16.5399 57.3241 16.7029C57.3451 16.864 57.3334 17.0276 57.2895 17.1841C57.2456 17.3406 57.1705 17.4868 57.0686 17.614L54.9739 20.246L62.2799 18.1708H62.8419C64.2228 18.4332 65.6252 18.5688 67.0313 18.5757C74.2352 18.5757 80.315 15.2351 80.315 11.3378C80.315 7.44048 74.2352 4.09991 67.0313 4.09991Z" fill="#0D72B9"/>
<path d="M73.0093 10.1227H60.9518C60.6631 10.0646 60.4035 9.90942 60.217 9.68342C60.0306 9.45743 59.9287 9.17452 59.9287 8.88264C59.9287 8.59075 60.0306 8.30784 60.217 8.08185C60.4035 7.85585 60.6631 7.70066 60.9518 7.64258H73.0093C73.298 7.70066 73.5576 7.85585 73.7441 8.08185C73.9305 8.30784 74.0324 8.59075 74.0324 8.88264C74.0324 9.17452 73.9305 9.45743 73.7441 9.68342C73.5576 9.90942 73.298 10.0646 73.0093 10.1227Z" fill="#0D72B9"/>
<path d="M72.6513 15.1844H60.5939C60.2687 15.1844 59.9568 15.0564 59.7268 14.8286C59.4969 14.6008 59.3677 14.2918 59.3677 13.9696C59.3677 13.6475 59.4969 13.3385 59.7268 13.1107C59.9568 12.8829 60.2687 12.7549 60.5939 12.7549H72.6513C72.9765 12.7549 73.2884 12.8829 73.5184 13.1107C73.7483 13.3385 73.8775 13.6475 73.8775 13.9696C73.8775 14.2918 73.7483 14.6008 73.5184 14.8286C73.2884 15.0564 72.9765 15.1844 72.6513 15.1844Z" fill="#0D72B9"/>
</g>
<defs>
<clipPath id="clip0_41_750">
<rect width="96" height="70" fill="white"/>
</clipPath>
</defs>
</svg>
