<svg width="52" height="70" viewBox="0 0 52 70" fill="none" xmlns="http://www.w3.org/2000/svg">
<g clip-path="url(#clip0_41_746)">
<path d="M51.795 38.2921C51.3309 37.2766 50.3017 35.7533 49.2154 34.1217C47.823 32.0365 46.0909 29.4402 45.7915 28.2622C45.6234 27.6021 45.6536 26.397 45.6906 25.0023C45.7646 22.1013 45.8655 18.1272 44.4428 13.9704C43.1682 10.2468 40.5078 6.92264 36.751 4.32967C33.516 2.10521 29.833 0.626873 25.9649 0.000155041C25.6857 -0.0411428 25.4016 0.0308795 25.1752 0.200378C24.9487 0.369876 24.7985 0.622966 24.7574 0.903971C24.7164 1.18498 24.788 1.47088 24.9564 1.69878C25.1248 1.92668 25.3762 2.07792 25.6554 2.11921C29.2048 2.69236 32.584 4.04955 35.5503 6.09329C38.9136 8.42223 41.3116 11.3876 42.435 14.6643C43.7332 18.4556 43.6357 22.2063 43.565 24.9448C43.5247 26.5629 43.491 27.8424 43.7332 28.7902C44.1233 30.3271 45.8151 32.8523 47.453 35.3133C48.3101 36.5342 49.1027 37.7997 49.8275 39.1046C49.4474 39.4058 48.2736 39.7037 46.3397 39.9915C45.931 40.0362 45.5263 40.112 45.129 40.2183C44.8948 40.2986 44.6821 40.4319 44.5072 40.608C44.3323 40.784 44.1998 40.9981 44.12 41.2338C43.6121 42.5878 44.2108 45.1029 45.0886 46.6025C45.1265 46.6634 45.1581 46.728 45.1828 46.7955C44.907 47.0223 43.9047 47.2321 43.0572 47.2355C42.8044 47.2349 42.5597 47.325 42.367 47.4897C42.1743 47.6543 42.0462 47.8827 42.0057 48.1338C41.9652 48.3849 42.0149 48.6423 42.146 48.8599C42.2771 49.0774 42.4809 49.2408 42.7208 49.3207C43.4742 49.5746 44.2713 50.1298 44.2108 50.3667C44.0863 50.8575 43.9283 50.9185 43.3363 51.1487C42.4047 51.5143 40.982 52.0626 40.6255 54.8181C40.2892 57.2621 39.1961 59.5572 37.8878 60.5727C37.6861 60.745 37.4521 60.8749 37.1996 60.9545C36.9471 61.0342 36.6814 61.0621 36.418 61.0365C35.5671 60.9112 34.3832 60.4509 33.1287 59.9668C30.7038 59.0257 27.9559 57.9594 25.7698 58.5755C20.5331 60.048 20.1026 62.8746 20.3885 68.9711C20.4023 69.2447 20.5199 69.5026 20.717 69.6915C20.9141 69.8805 21.1757 69.9861 21.448 69.9866H21.4984C21.7792 69.9726 22.043 69.8472 22.2321 69.6378C22.4212 69.4284 22.5202 69.1522 22.5074 68.8695C22.3796 66.0091 22.4099 64.1304 22.9446 62.9084C23.3482 62.0046 24.0781 61.2734 26.3483 60.6336C27.855 60.2105 30.2531 61.138 32.3686 61.9606C33.7375 62.4921 35.0323 62.993 36.1187 63.1521C36.6599 63.2219 37.2096 63.1805 37.7345 63.0304C38.2594 62.8803 38.7486 62.6246 39.1726 62.2788C40.9316 60.9451 42.3341 58.1321 42.741 55.1126C42.9428 53.6096 43.3834 53.4201 44.1132 53.1526C44.8431 52.8852 45.8823 52.4587 46.2792 50.9016C46.3704 50.5507 46.3761 50.1828 46.2959 49.8292C46.2157 49.4757 46.0519 49.1468 45.8184 48.8705C46.3333 48.6658 46.7694 48.3004 47.0629 47.8279C47.2882 47.4352 47.564 46.6127 46.9216 45.5159C46.3488 44.5012 46.0529 43.352 46.064 42.185L46.6525 42.097C48.9564 41.7585 51.082 41.3387 51.7816 40.0321C51.9204 39.7638 51.9939 39.4662 51.9963 39.1637C51.9986 38.8613 51.9296 38.5626 51.795 38.2921Z" fill="#0D72B9"/>
<path d="M30.4917 54.7331C31.3485 54.9859 32.2507 55.0427 33.1321 54.8992C34.0135 54.7557 34.8519 54.4156 35.5858 53.9038C36.3197 53.392 36.9306 52.7215 37.3736 51.9413C37.8167 51.1611 38.0808 50.291 38.1466 49.3948L39.9022 25.3608C40.2811 20.8918 39.0569 16.4341 36.4515 12.7954C33.5658 8.85176 29.096 6.23848 23.5196 5.22634C17.5565 4.14312 13.3557 4.63734 10.3018 6.76994C7.47329 8.75359 5.49567 12.2064 3.91156 17.9576L0.376726 27.6254C-0.180067 29.16 -0.110949 30.854 0.568986 32.3374C1.24892 33.8209 2.48443 34.9733 4.00573 35.5431L4.10326 35.5736L5.71765 36.0136L8.74462 47.682L4.1369 56.2462V56.2631C4.10742 56.3173 4.08267 56.3739 4.0629 56.4324V56.473C4.05348 56.5042 4.04562 56.5358 4.03936 56.5678L2.04156 67.7386C1.99352 68.018 2.05701 68.3053 2.21823 68.5379C2.37945 68.7705 2.62538 68.9297 2.90257 68.9809C2.96525 68.9859 3.02823 68.9859 3.09091 68.9809C3.34024 68.9794 3.58124 68.8903 3.77223 68.729C3.96322 68.5677 4.09221 68.3443 4.1369 68.0974L5.91608 58.1215L14.5396 60.9075L13.5979 67.7622C13.5787 67.9014 13.5869 68.043 13.622 68.1789C13.6572 68.3149 13.7186 68.4425 13.8027 68.5546C13.8869 68.6666 13.9922 68.7609 14.1126 68.832C14.2329 68.9031 14.366 68.9497 14.5043 68.969C14.6425 68.9884 14.7832 68.9801 14.9183 68.9447C15.0533 68.9093 15.1802 68.8475 15.2915 68.7628C15.4028 68.6781 15.4965 68.5722 15.5672 68.451C15.6378 68.3299 15.6841 68.1959 15.7033 68.0568L16.7325 60.5927L22.2315 52.4008L30.4917 54.7331ZM15.4275 17.6936C15.303 17.6942 15.181 17.6577 15.0772 17.5885C14.9733 17.5194 14.8922 17.4208 14.844 17.3052C14.7959 17.1896 14.783 17.0622 14.8069 16.9392C14.8308 16.8161 14.8904 16.703 14.9782 16.6142C15.066 16.5253 15.1781 16.4647 15.3002 16.44C15.4223 16.4153 15.5489 16.4276 15.664 16.4754C15.7792 16.5232 15.8776 16.6044 15.9468 16.7085C16.0161 16.8127 16.0531 16.9352 16.0531 17.0606C16.0531 17.2279 15.9873 17.3884 15.8701 17.507C15.7528 17.6256 15.5937 17.6927 15.4275 17.6936ZM13.7055 26.5354L15.969 27.7032L15.6327 36.4604L11.0989 35.2418L13.7055 26.5354ZM23.8963 40.8949C24.3557 41.0753 24.7563 41.3808 25.0533 41.7771C25.3502 42.1734 25.5319 42.645 25.5779 43.1392L26.3212 51.3345L10.7626 46.9542L8.07196 36.65L23.8963 40.8949ZM11.516 8.53695C14.0788 6.74285 17.7717 6.36034 23.1429 7.33524C28.1879 8.24583 32.1835 10.5714 34.7396 14.0512C37.0376 17.2806 38.1114 21.2311 37.7665 25.1881L36.0109 49.2391C35.968 49.8164 35.7974 50.3767 35.5116 50.8791C35.2257 51.3815 34.8319 51.8131 34.3589 52.1425C33.8859 52.4719 33.3457 52.6907 32.7778 52.7828C32.21 52.8749 31.6288 52.8381 31.0769 52.675L28.5107 51.9539L27.6935 42.9429C27.6062 42.0415 27.2693 41.1829 26.7211 40.4648C26.1729 39.7466 25.4354 39.1978 24.5925 38.8808C24.5622 38.8676 24.5306 38.8574 24.4983 38.8503L17.7515 37.0393L18.1215 27.1109C18.1292 26.9068 18.0788 26.7047 17.9764 26.5284C17.8739 26.3521 17.7235 26.2089 17.543 26.1157L14.3277 24.4502L15.7067 19.8194C16.3417 19.7552 16.935 19.4716 17.3857 19.0169C17.8364 18.5621 18.1167 17.9642 18.1789 17.3249C18.241 16.6856 18.0813 16.0444 17.7267 15.5103C17.3722 14.9762 16.8448 14.5822 16.2342 14.3953C15.6236 14.2084 14.9675 14.2401 14.3776 14.4851C13.7876 14.7301 13.3002 15.1732 12.9982 15.7391C12.6962 16.305 12.5983 16.9587 12.7211 17.589C12.8439 18.2193 13.1799 18.7874 13.6719 19.1966L13.4532 19.904L10.507 18.55L8.94305 11.8476C8.91169 11.7264 8.85931 11.6118 8.78834 11.509C9.48947 10.3436 10.4172 9.33271 11.516 8.53695ZM2.37116 28.3633L5.90936 18.6651C5.91983 18.6385 5.92882 18.6114 5.93626 18.5839C6.32269 17.1529 6.7944 15.7467 7.34885 14.3728L8.563 19.5384C8.60004 19.6967 8.67267 19.8443 8.77529 19.9699C8.87791 20.0955 9.0078 20.1957 9.15494 20.2629L12.8546 21.9757L9.05404 34.69L6.87799 34.1078L6.15488 33.9115L7.98115 27.7574C8.61796 27.7408 9.22943 27.5028 9.71168 27.0839C10.1939 26.665 10.5172 26.091 10.6266 25.4593C10.736 24.8277 10.6248 24.1774 10.3119 23.619C9.99896 23.0605 9.50359 22.6283 8.90993 22.3958C8.31627 22.1633 7.66094 22.1448 7.05526 22.3434C6.44958 22.542 5.93089 22.9456 5.58731 23.4855C5.24374 24.0254 5.09646 24.6684 5.17049 25.3052C5.24452 25.942 5.5353 26.5334 5.99344 26.9788L4.13353 33.2446C3.3197 32.7661 2.69793 32.0161 2.37602 31.1245C2.05412 30.2329 2.0524 29.2561 2.37116 28.3633ZM7.90716 25.6282C7.78262 25.6282 7.66089 25.591 7.55739 25.5213C7.45389 25.4516 7.37328 25.3525 7.32578 25.2366C7.27828 25.1208 7.26602 24.9933 7.29056 24.8704C7.3151 24.7476 7.37534 24.6348 7.46363 24.5464C7.55193 24.458 7.66431 24.398 7.78653 24.3739C7.90876 24.3499 8.03532 24.3629 8.15018 24.4113C8.26504 24.4598 8.36304 24.5414 8.43174 24.646C8.50044 24.7505 8.53676 24.8732 8.53609 24.9986C8.53521 25.1659 8.46855 25.326 8.3507 25.444C8.23285 25.562 8.07338 25.6282 7.90716 25.6282ZM15.2795 58.9407L6.6291 56.148L10.4263 49.0834L20.0386 51.849L15.2795 58.9407Z" fill="#0D72B9"/>
<path d="M29.422 35.2456C30.4492 35.2463 31.4535 34.9403 32.308 34.3664C33.1624 33.7925 33.8285 32.9765 34.222 32.0215C34.6156 31.0665 34.7189 30.0155 34.5189 29.0015C34.3189 27.9874 33.8246 27.0558 33.0985 26.3245C32.3724 25.5932 31.4471 25.0951 30.4397 24.8932C29.4323 24.6912 28.388 24.7945 27.4389 25.19C26.4898 25.5855 25.6786 26.2554 25.1078 27.115C24.5371 27.9745 24.2324 28.9852 24.2324 30.019C24.2333 31.4043 24.7802 32.7327 25.7532 33.7126C26.7261 34.6925 28.0456 35.2438 29.422 35.2456ZM29.422 26.9352C30.028 26.9352 30.6204 27.1161 31.1242 27.4549C31.6281 27.7938 32.0208 28.2754 32.2527 28.8389C32.4846 29.4024 32.5453 30.0225 32.4271 30.6207C32.3089 31.2189 32.0171 31.7683 31.5885 32.1996C31.16 32.6309 30.6141 32.9246 30.0197 33.0436C29.4254 33.1626 28.8093 33.1015 28.2495 32.8681C27.6896 32.6347 27.2111 32.2394 26.8744 31.7323C26.5377 31.2252 26.358 30.629 26.358 30.019C26.3589 29.2014 26.682 28.4176 27.2564 27.8394C27.8308 27.2613 28.6097 26.9361 29.422 26.9352Z" fill="#0D72B9"/>
</g>
<defs>
<clipPath id="clip0_41_746">
<rect width="52" height="70" fill="white"/>
</clipPath>
</defs>
</svg>
