<svg width="54" height="70" viewBox="0 0 54 70" fill="none" xmlns="http://www.w3.org/2000/svg">
<path d="M39.1144 19.215L35.3772 15.4828C35.2616 15.3683 35.1242 15.2775 34.9729 15.2155C34.8217 15.1535 34.6596 15.1216 34.4959 15.1216C34.3322 15.1216 34.1701 15.1535 34.0189 15.2155C33.8676 15.2775 33.7303 15.3683 33.6146 15.4828L24.6953 24.2775L21.1762 20.804C20.9428 20.5746 20.627 20.4458 20.2979 20.4458C19.9688 20.4458 19.6531 20.5746 19.4197 20.804L15.639 24.5361C15.405 24.7661 15.2729 25.0784 15.2715 25.4045C15.2714 25.5671 15.3038 25.728 15.3668 25.8781C15.4299 26.0282 15.5224 26.1645 15.639 26.2791L23.8171 34.3655C24.0496 34.5968 24.3654 34.7274 24.6953 34.7288C24.8605 34.7273 25.0238 34.6934 25.1757 34.6289C25.3275 34.5644 25.4649 34.4706 25.5797 34.3531L39.1144 20.9395C39.231 20.8249 39.3234 20.6886 39.3865 20.5385C39.4496 20.3884 39.482 20.2275 39.4819 20.0649C39.4756 19.7452 39.3438 19.4404 39.1144 19.215ZM24.6953 31.748L18.2799 25.4107L20.2979 23.4029L23.8171 26.8826C23.9327 26.9971 24.0701 27.088 24.2214 27.15C24.3726 27.212 24.5347 27.2439 24.6984 27.2439C24.8621 27.2439 25.0242 27.212 25.1754 27.15C25.3267 27.088 25.464 26.9971 25.5797 26.8826L34.4803 18.0941L36.4922 20.0834L24.6953 31.748Z" fill="#0D72B9"/>
<path d="M44.3835 24.4195C44.3835 21.0198 43.364 17.6965 41.4538 14.8698C39.5436 12.0431 36.8286 9.8399 33.6521 8.53891C30.4757 7.23792 26.9803 6.89752 23.6082 7.56076C20.236 8.224 17.1385 9.86109 14.7074 12.265C12.2762 14.6689 10.6205 17.7317 9.94976 21.066C9.279 24.4004 9.62325 27.8565 10.939 30.9974C12.2547 34.1383 14.4829 36.8228 17.3416 38.7116C20.2004 40.6003 23.5614 41.6084 26.9996 41.6084C31.6086 41.6035 36.0274 39.791 39.2864 36.5685C42.5455 33.346 44.3786 28.9768 44.3835 24.4195ZM26.9996 39.1449C24.0542 39.1449 21.1749 38.2813 18.7258 36.6632C16.2768 35.0452 14.3679 32.7454 13.2408 30.0547C12.1136 27.3639 11.8187 24.4031 12.3933 21.5467C12.9679 18.6902 14.3863 16.0664 16.4691 14.007C18.5518 11.9476 21.2054 10.5451 24.0942 9.97691C26.9831 9.40872 29.9775 9.70034 32.6987 10.8149C35.42 11.9294 37.7458 13.8168 39.3822 16.2384C41.0187 18.66 41.8921 21.507 41.8921 24.4195C41.8871 28.3234 40.3165 32.066 37.5247 34.8265C34.7329 37.5871 30.9478 39.1401 26.9996 39.1449Z" fill="#0D72B9"/>
<path d="M53.3904 62.0306L44.0974 41.6453C44.9665 41.3193 45.6816 40.6847 46.103 39.8654C46.4028 39.2799 46.5297 38.6226 46.4692 37.9691C46.4086 37.3155 46.1629 36.692 45.7604 36.1702L45.6607 36.0347C45.527 35.8602 45.4483 35.6507 45.4342 35.4322C45.4202 35.2138 45.4715 34.9961 45.5817 34.8062C45.692 34.6164 45.8563 34.4629 46.0542 34.3649C46.2522 34.2668 46.4749 34.2285 46.6947 34.2548H46.8691C47.7006 34.3521 48.5406 34.1613 49.2458 33.7149C49.951 33.2685 50.4778 32.594 50.7364 31.8065C50.995 31.019 50.9694 30.1672 50.664 29.3963C50.3586 28.6254 49.7923 27.983 49.0615 27.5788L48.912 27.4925C48.7193 27.3861 48.5624 27.226 48.4608 27.0321C48.3593 26.8383 48.3175 26.6192 48.3407 26.4021C48.3639 26.185 48.4511 25.9795 48.5914 25.8109C48.7318 25.6424 48.919 25.5183 49.13 25.454L49.292 25.4047C50.0878 25.1553 50.7722 24.6418 51.2294 23.9511C51.6867 23.2604 51.8888 22.4349 51.8017 21.6139C51.7146 20.7929 51.3435 20.0268 50.7512 19.445C50.1589 18.8632 49.3817 18.5014 48.5508 18.4207H48.3764C48.157 18.4026 47.948 18.3203 47.776 18.1843C47.6041 18.0483 47.477 17.8648 47.411 17.6571C47.3401 17.4495 47.3331 17.2258 47.3907 17.0142C47.4484 16.8027 47.5681 16.6127 47.7348 16.4684L47.8656 16.3576C48.4243 15.8863 48.8204 15.2547 48.999 14.5504C49.1777 13.8462 49.1298 13.1044 48.8622 12.4283C48.6136 11.7451 48.159 11.1538 47.5598 10.7342C46.9606 10.3146 46.2455 10.0869 45.5112 10.0818C45.1065 10.0834 44.7047 10.15 44.3216 10.2789L44.1534 10.3344C43.9083 10.4177 43.6417 10.4155 43.398 10.3281C43.1543 10.2407 42.9483 10.0734 42.8143 9.85397C42.712 9.69803 42.6519 9.51869 42.6399 9.33318C42.6279 9.14767 42.6644 8.96223 42.7458 8.79467L42.8517 8.62223C43.1104 8.08364 43.2256 7.4886 43.1864 6.89361C43.1471 6.29861 42.9547 5.72341 42.6274 5.22262C42.2906 4.708 41.8296 4.28432 41.286 3.98974C40.7423 3.69515 40.1331 3.53893 39.5132 3.53513C38.6093 3.53795 37.7405 3.88156 37.084 4.49589L36.9594 4.6129C36.7402 4.80625 36.4548 4.91 36.161 4.90314C35.8673 4.89628 35.5872 4.77932 35.3774 4.57595C35.2741 4.47202 35.1928 4.34877 35.1383 4.21342C35.0838 4.07806 35.0571 3.93331 35.0597 3.78764V3.61519C35.0683 3.14546 34.9824 2.67873 34.8071 2.24209C34.6317 1.80546 34.3704 1.40761 34.0383 1.07164C33.336 0.382969 32.3864 -0.00238229 31.3974 2.53478e-05C30.6936 -0.00169848 30.0051 0.202688 29.4188 0.587404C28.8324 0.97212 28.3743 1.51993 28.1025 2.16173L28.0402 2.3157C27.9537 2.517 27.8086 2.68831 27.6234 2.80785C27.4382 2.92739 27.2212 2.98975 27 2.987C26.7795 2.99018 26.5632 2.92791 26.3788 2.80824C26.1945 2.68857 26.0507 2.517 25.9661 2.3157L25.8913 2.15558C25.6202 1.51493 25.1631 0.968173 24.5777 0.584477C23.9923 0.200781 23.305 -0.00261311 22.6026 2.53478e-05C21.6158 -0.000753351 20.6686 0.384475 19.968 1.07164C19.6358 1.40761 19.3745 1.80546 19.1992 2.24209C19.0238 2.67873 18.9379 3.14546 18.9465 3.61519V3.78764C18.9514 3.93306 18.9264 4.07795 18.8728 4.21348C18.8193 4.34901 18.7384 4.47234 18.6351 4.57595C18.4269 4.78105 18.1476 4.90024 17.8539 4.90939C17.5601 4.91854 17.2738 4.81696 17.053 4.62522L16.9284 4.50821C16.2719 3.89387 15.4032 3.55027 14.4993 3.54745C13.8794 3.55124 13.2701 3.70747 12.7265 4.00205C12.1828 4.29663 11.7218 4.72032 11.385 5.23493C11.0629 5.73591 10.875 6.3097 10.8391 6.90229C10.8031 7.49487 10.9202 8.08676 11.1795 8.62223L11.2542 8.7762C11.3391 8.94609 11.3774 9.13501 11.3654 9.32412C11.3534 9.51323 11.2914 9.69592 11.1857 9.85397C11.0523 10.0689 10.8487 10.2323 10.6087 10.3174C10.3686 10.4025 10.1064 10.4041 9.86526 10.322L9.70331 10.2666C9.31785 10.1384 8.91413 10.0718 8.50743 10.0695C7.77316 10.0746 7.05813 10.3023 6.45889 10.7219C5.85964 11.1415 5.40504 11.7328 5.15647 12.416C4.88886 13.0921 4.84103 13.8339 5.01965 14.5381C5.19826 15.2424 5.59443 15.874 6.15304 16.3453L6.28384 16.4623C6.44838 16.6051 6.56732 16.7921 6.62614 17.0006C6.68496 17.2091 6.6811 17.4301 6.61505 17.6364C6.549 17.8428 6.42361 18.0257 6.25419 18.1628C6.08477 18.2999 5.87865 18.3852 5.66099 18.4084H5.49282C4.65433 18.4782 3.86653 18.8343 3.26448 19.4156C2.66243 19.9969 2.28365 20.7671 2.19307 21.5943C2.10249 22.4215 2.30576 23.2541 2.76803 23.9493C3.2303 24.6445 3.92276 25.1591 4.7267 25.4047L4.88865 25.454C5.09965 25.5183 5.28694 25.6424 5.42725 25.8109C5.56757 25.9795 5.65475 26.185 5.67796 26.4021C5.70118 26.6192 5.65942 26.8383 5.55785 27.0321C5.45629 27.226 5.2994 27.3861 5.10665 27.4925L4.95716 27.5788C4.22641 27.983 3.66007 28.6254 3.35467 29.3963C3.04926 30.1672 3.02368 31.019 3.28229 31.8065C3.54091 32.594 4.06771 33.2685 4.77291 33.7149C5.47811 34.1613 6.31806 34.3521 7.14961 34.2548H7.32401C7.54236 34.2311 7.76296 34.2707 7.95899 34.3687C8.15502 34.4667 8.31803 34.6189 8.42822 34.8067C8.53841 34.9946 8.59101 35.2101 8.57964 35.427C8.56827 35.6439 8.49342 35.8529 8.36418 36.0285L8.25829 36.1702C7.8544 36.6914 7.60791 37.315 7.54729 37.9689C7.48667 38.6227 7.6144 39.2803 7.91572 39.8654C8.33589 40.687 9.05111 41.3239 9.92131 41.6514L0.609632 62.0306C0.512766 62.2436 0.479107 62.4793 0.512578 62.7105C0.54605 62.9416 0.645273 63.1586 0.798683 63.3361C0.952092 63.5136 1.15337 63.6443 1.37905 63.7131C1.60473 63.7818 1.84551 63.7857 2.07334 63.7243L10.6501 61.3963L14.5616 69.3102C14.6643 69.5175 14.8239 69.6921 15.0221 69.8141C15.2203 69.936 15.4493 70.0005 15.6827 70C15.9192 69.996 16.1496 69.9255 16.347 69.7968C16.5444 69.6681 16.7007 69.4865 16.7976 69.2733L26.1965 48.7401C26.7249 48.8633 27.2751 48.8633 27.8035 48.7401L37.1837 69.2733C37.2806 69.4865 37.4369 69.6681 37.6343 69.7968C37.8318 69.9255 38.0622 69.996 38.2986 70C38.5321 70.0005 38.761 69.936 38.9592 69.8141C39.1574 69.6921 39.317 69.5175 39.4197 69.3102L43.3499 61.3963L51.9267 63.7243C52.1545 63.7857 52.3953 63.7818 52.6209 63.7131C52.8466 63.6443 53.0479 63.5136 53.2013 63.3361C53.3547 63.1586 53.4539 62.9416 53.4874 62.7105C53.5209 62.4793 53.4872 62.2436 53.3904 62.0306ZM15.6391 65.8983L12.4314 59.4008C12.299 59.1495 12.0829 58.9509 11.8197 58.8387C11.5565 58.7266 11.2621 58.7076 10.9864 58.785L3.97305 60.6572L12.693 41.5159C12.7864 41.4667 12.8861 41.4235 12.9795 41.3681L13.1352 41.2819C13.3716 41.1441 13.6506 41.0962 13.92 41.1472C14.1895 41.1982 14.4309 41.3447 14.599 41.559C14.7084 41.6865 14.7858 41.8378 14.8247 42.0005C14.8637 42.1632 14.8632 42.3327 14.8232 42.4952L14.7858 42.6614C14.662 43.1796 14.6587 43.7188 14.7763 44.2383C14.8939 44.7579 15.1293 45.2442 15.4647 45.6607C15.8145 46.087 16.2559 46.4309 16.7569 46.6674C17.2579 46.9039 17.8058 47.0271 18.361 47.028C18.9345 47.027 19.4992 46.8887 20.0069 46.6249C20.5145 46.361 20.95 45.9795 21.276 45.5129L21.3756 45.3774C21.4772 45.2288 21.6147 45.1075 21.7757 45.0247C21.9367 44.9419 22.116 44.9002 22.2974 44.9032C22.5609 44.897 22.8181 44.9833 23.0233 45.1468C23.2286 45.3103 23.3686 45.5404 23.4186 45.7962L23.456 45.9687C23.5592 46.4793 23.7716 46.9622 24.0788 47.3852L15.6391 65.8983ZM25.8913 45.476L25.8539 45.3035C25.7136 44.6197 25.3741 43.9914 24.8773 43.4958C24.3804 43.0003 23.7479 42.6593 23.0576 42.5146C22.3672 42.37 21.6491 42.4281 20.9918 42.6818C20.3344 42.9355 19.7663 43.3737 19.3576 43.9425L19.2579 44.078C19.163 44.2249 19.0322 44.3458 18.8777 44.4298C18.7232 44.5137 18.5498 44.5579 18.3735 44.5583C18.191 44.557 18.0111 44.516 17.8464 44.4383C17.6817 44.3606 17.5363 44.2481 17.4205 44.1087C17.3186 43.9811 17.2486 43.8315 17.2161 43.672C17.1836 43.5126 17.1896 43.3478 17.2336 43.1911L17.271 43.0187C17.3863 42.5004 17.3829 41.9632 17.2611 41.4464C17.1393 40.9296 16.9022 40.4462 16.5672 40.0317C16.2251 39.6116 15.7928 39.272 15.3015 39.0377C14.8103 38.8033 14.2724 38.68 13.727 38.6768C13.0825 38.6789 12.4504 38.8511 11.8958 39.1756L11.7463 39.268C11.6099 39.348 11.4581 39.3988 11.3006 39.4172C11.1432 39.4356 10.9836 39.4211 10.8321 39.3746C10.6807 39.3282 10.5408 39.2509 10.4214 39.1476C10.3021 39.0444 10.206 38.9175 10.1393 38.7753C10.0434 38.595 10.0034 38.3906 10.0245 38.188C10.0456 37.9853 10.1267 37.7932 10.2577 37.6359L10.3635 37.5004C10.7616 36.9681 11.0028 36.3372 11.0603 35.6776C11.1179 35.0181 10.9896 34.3556 10.6896 33.7637C10.3897 33.1719 9.92984 32.6737 9.36106 32.3245C8.79228 31.9752 8.13678 31.7885 7.46727 31.7852C7.32415 31.7763 7.18061 31.7763 7.0375 31.7852H6.86932C6.59316 31.8264 6.31145 31.763 6.08051 31.6077C5.84956 31.4524 5.68639 31.2167 5.62361 30.9476C5.55723 30.712 5.57485 30.4609 5.67352 30.2366C5.7722 30.0123 5.94591 29.8284 6.1655 29.7158L6.31498 29.6358C6.92699 29.2926 7.42476 28.7807 7.74758 28.1625C8.0704 27.5444 8.20432 26.8467 8.133 26.1546C8.06169 25.4625 7.78822 24.8059 7.34595 24.2648C6.90368 23.7237 6.31173 23.3216 5.6423 23.1075L5.48036 23.0521C5.23372 22.9726 5.02211 22.8119 4.88087 22.5967C4.73962 22.3816 4.67728 22.125 4.70425 21.8699C4.73121 21.6148 4.84586 21.3765 5.02905 21.1949C5.21223 21.0133 5.45288 20.8993 5.71081 20.8719H5.88521C6.58645 20.8023 7.25204 20.5324 7.80082 20.0952C8.34959 19.6579 8.75782 19.0722 8.97573 18.4095C9.19364 17.7468 9.2118 17.0357 9.028 16.363C8.8442 15.6902 8.46639 15.0849 7.94064 14.6208L7.80984 14.51C7.62583 14.3689 7.49468 14.1711 7.43715 13.948C7.37961 13.7249 7.39898 13.4892 7.49218 13.2782C7.58985 13.0005 7.79455 12.7721 8.06171 12.6429C8.32886 12.5137 8.63683 12.4941 8.91852 12.5884L9.08046 12.6439C9.74986 12.8647 10.4699 12.8876 11.1522 12.7096C11.8346 12.5317 12.4496 12.1607 12.9217 11.6421C13.3939 11.1236 13.7028 10.4801 13.8104 9.79045C13.918 9.10085 13.8198 8.39518 13.5276 7.76001L13.4529 7.60604C13.368 7.44352 13.3279 7.26174 13.3366 7.07902C13.3454 6.89629 13.4027 6.71907 13.5027 6.56522C13.5909 6.42369 13.7095 6.30309 13.8501 6.21196C13.9907 6.12083 14.1499 6.0614 14.3163 6.03789C14.4828 6.01438 14.6524 6.02737 14.8132 6.07593C14.974 6.12448 15.122 6.20742 15.2467 6.31887L15.3775 6.43588C16.0358 7.04286 16.9004 7.38351 17.8004 7.39048C18.289 7.39229 18.773 7.29792 19.2242 7.11288C19.6755 6.92784 20.085 6.65583 20.4289 6.31271C20.7647 5.97879 21.0292 5.58158 21.2068 5.14465C21.3844 4.70773 21.4715 4.23998 21.4628 3.76916V3.59672C21.4562 3.45216 21.4793 3.30779 21.5307 3.17231C21.5821 3.03683 21.6607 2.91303 21.7618 2.8084C21.988 2.59266 22.2884 2.46947 22.6026 2.46351C22.8194 2.45971 23.032 2.52214 23.2114 2.64229C23.3909 2.76244 23.5285 2.93445 23.6054 3.13481L23.6802 3.29494C23.9622 3.93447 24.4268 4.47872 25.017 4.86096C25.6073 5.2432 26.2975 5.44681 27.0031 5.44681C27.7087 5.44681 28.3989 5.2432 28.9892 4.86096C29.5794 4.47872 30.0441 3.93447 30.326 3.29494L30.3946 3.14097C30.4712 2.93996 30.6086 2.76714 30.788 2.64595C30.9674 2.52476 31.1801 2.46107 31.3974 2.46351C31.7202 2.46318 32.0306 2.58684 32.2631 2.8084C32.3642 2.91303 32.4428 3.03683 32.4942 3.17231C32.5456 3.30779 32.5687 3.45216 32.5621 3.59672V3.76916C32.5563 4.24013 32.6453 4.70754 32.8239 5.1442C33.0025 5.58086 33.2671 5.97806 33.6023 6.31271C34.2893 6.99824 35.2235 7.38592 36.1996 7.39048C37.1014 7.38915 37.9693 7.0503 38.6287 6.44204L38.7595 6.33119C38.8842 6.21974 39.0323 6.1368 39.193 6.08824C39.3538 6.03969 39.5235 6.0267 39.6899 6.05021C39.8563 6.07372 40.0155 6.13315 40.1561 6.22428C40.2967 6.31541 40.4153 6.43601 40.5035 6.57753C40.6038 6.73147 40.6608 6.90911 40.6684 7.09208C40.6761 7.27506 40.6342 7.45674 40.5471 7.61836L40.4786 7.77233C40.2266 8.31728 40.1168 8.91601 40.1592 9.51376C40.2017 10.1115 40.395 10.6892 40.7215 11.194C41.048 11.6988 41.4973 12.1146 42.0283 12.4034C42.5593 12.6922 43.155 12.8447 43.761 12.8471C44.1553 12.8483 44.547 12.7838 44.9195 12.6562L45.0877 12.6008C45.3694 12.5065 45.6774 12.526 45.9445 12.6552C46.2117 12.7844 46.4164 13.0128 46.514 13.2905C46.6051 13.5019 46.6233 13.7369 46.5659 13.9595C46.5085 14.1821 46.3787 14.3799 46.1964 14.5223L46.0656 14.6331C45.5398 15.0972 45.162 15.7025 44.9782 16.3753C44.7944 17.048 44.8126 17.7591 45.0305 18.4218C45.2484 19.0845 45.6566 19.6702 46.2054 20.1075C46.7542 20.5447 47.4198 20.8146 48.121 20.8842H48.2954C48.5533 20.9116 48.794 21.0256 48.9772 21.2072C49.1604 21.3888 49.275 21.6271 49.302 21.8822C49.3289 22.1373 49.2666 22.3939 49.1254 22.609C48.9841 22.8242 48.7725 22.9849 48.5259 23.0644L48.3577 23.1198C47.6854 23.3308 47.09 23.7311 46.6445 24.2717C46.1989 24.8123 45.9224 25.4697 45.849 26.1633C45.7757 26.8569 45.9085 27.5566 46.2313 28.1767C46.5541 28.7968 47.0528 29.3103 47.6663 29.6542L47.8158 29.7343C48.0354 29.8469 48.2091 30.0308 48.3078 30.2551C48.4065 30.4794 48.4241 30.7304 48.3577 30.966C48.2936 31.2344 48.1301 31.4693 47.8995 31.6243C47.6689 31.7794 47.3879 31.8434 47.112 31.8036H46.9376C46.201 31.7131 45.4542 31.8519 44.8011 32.2007C44.148 32.5495 43.6211 33.091 43.2939 33.7498C42.9914 34.3422 42.8614 35.0062 42.9186 35.6675C42.9758 36.3287 43.2179 36.9612 43.6178 37.4943L43.7237 37.6298C43.8547 37.7871 43.9358 37.9791 43.9568 38.1818C43.9779 38.3845 43.9379 38.5888 43.842 38.7691C43.7486 38.9532 43.608 39.1098 43.4342 39.2233C43.2604 39.3368 43.0595 39.4032 42.8517 39.4158C42.7547 39.4135 42.6584 39.3991 42.5651 39.3727C42.4622 39.3426 42.3637 39.2991 42.2724 39.2434L42.1229 39.1571C41.5683 38.8326 40.9362 38.6604 40.2917 38.6583C39.7416 38.661 39.1991 38.7859 38.7043 39.0236C38.2095 39.2613 37.775 39.6058 37.4328 40.0317C37.0945 40.4493 36.8556 40.9368 36.7337 41.4582C36.6119 41.9795 36.6103 42.5213 36.729 43.0433L36.7664 43.2096C36.8103 43.3663 36.8164 43.531 36.7839 43.6905C36.7514 43.8499 36.6814 43.9996 36.5795 44.1272C36.4637 44.2666 36.3183 44.3791 36.1536 44.4568C35.9889 44.5345 35.809 44.5755 35.6265 44.5768C35.4513 44.5725 35.2799 44.5252 35.1277 44.4392C34.9755 44.3532 34.8473 44.2312 34.7545 44.0841L34.6549 43.9425C34.2447 43.3742 33.6756 42.9368 33.0175 42.684C32.3595 42.4311 31.641 42.3737 30.9504 42.5189C30.2598 42.6641 29.6272 43.0056 29.1301 43.5013C28.633 43.9971 28.2932 44.6256 28.1523 45.3097L28.1211 45.476C28.067 45.727 27.9274 45.9521 27.7256 46.1136C27.5238 46.2751 27.2721 46.3632 27.0125 46.3632C26.7529 46.3632 26.5011 46.2751 26.2993 46.1136C26.0975 45.9521 25.9579 45.727 25.9038 45.476H25.8913ZM43.0136 58.7542C42.7379 58.6768 42.4435 58.6958 42.1803 58.808C41.9171 58.9201 41.701 59.1187 41.5686 59.37L38.3609 65.8983L29.915 47.4221C30.222 46.9968 30.4343 46.5119 30.5378 45.9995V45.8332C30.5903 45.5774 30.7318 45.3479 30.9378 45.1847C31.1439 45.0215 31.4013 44.935 31.6652 44.9402C31.8429 44.9395 32.0181 44.9818 32.1755 45.0633C32.3329 45.1449 32.4678 45.2633 32.5683 45.4082L32.6742 45.5499C32.9995 46.0152 33.4341 46.3956 33.9407 46.6584C34.4473 46.9212 35.0108 47.0586 35.5829 47.0588C36.1381 47.0579 36.6861 46.9347 37.1871 46.6982C37.6881 46.4617 38.1295 46.1178 38.4792 45.6915C38.8146 45.275 39.05 44.7887 39.1676 44.2691C39.2852 43.7496 39.282 43.2104 39.1581 42.6922L39.1644 42.4952C39.1237 42.3346 39.1217 42.1668 39.1585 42.0053C39.1952 41.8438 39.2698 41.6931 39.3761 41.5652C39.5418 41.3463 39.7826 41.1948 40.0533 41.1392C40.3241 41.0836 40.606 41.1278 40.8461 41.2634L40.9893 41.3496L41.2821 41.4975L50.002 60.6387L43.0136 58.7542Z" fill="#0D72B9"/>
</svg>
