<svg width="64" height="70" viewBox="0 0 64 70" fill="none" xmlns="http://www.w3.org/2000/svg">
<path d="M31.5665 33.3213C31.0924 33.322 30.6229 33.2281 30.1848 33.045C29.7467 32.8618 29.3486 32.593 29.0135 32.2539L22.5022 25.6694C22.3795 25.5455 22.2822 25.3984 22.2158 25.2364C22.1494 25.0744 22.1152 24.9008 22.1152 24.7255C22.1152 24.5501 22.1494 24.3765 22.2158 24.2145C22.2822 24.0525 22.3795 23.9054 22.5022 23.7815L26.2625 19.9856C26.385 19.8615 26.5306 19.7631 26.6907 19.696C26.8509 19.6288 27.0226 19.5942 27.196 19.5942C27.3694 19.5942 27.5411 19.6288 27.7012 19.696C27.8614 19.7631 28.0069 19.8615 28.1295 19.9856L31.5665 23.4679L40.3604 14.5752C40.6127 14.3341 40.9467 14.1997 41.2938 14.1997C41.641 14.1997 41.975 14.3341 42.2273 14.5752L45.981 18.3711C46.1037 18.495 46.201 18.6422 46.2674 18.8042C46.3338 18.9661 46.368 19.1398 46.368 19.3151C46.368 19.4904 46.3338 19.6641 46.2674 19.826C46.201 19.988 46.1037 20.1352 45.981 20.2591L34.1064 32.2673C33.431 32.9445 32.5177 33.3235 31.5665 33.3213ZM25.2993 24.7021L30.8804 30.3393C31.0648 30.5186 31.3107 30.6188 31.5665 30.6188C31.8224 30.6188 32.0682 30.5186 32.2526 30.3393L43.1839 19.3118L41.2971 17.4038L32.5033 26.2965C32.38 26.4202 32.2338 26.518 32.073 26.5844C31.9123 26.6508 31.7402 26.6845 31.5665 26.6835C31.2181 26.6837 30.8837 26.5446 30.6363 26.2965L27.1927 22.8142L25.2993 24.7021Z" fill="#0D72B9"/>
<path d="M62.1771 70H1.82087C1.47094 70 1.13535 69.8594 0.88791 69.6092C0.640473 69.359 0.501465 69.0196 0.501465 68.6657V24.9627C0.501465 24.6088 0.640473 24.2694 0.88791 24.0192C1.13535 23.769 1.47094 23.6284 1.82087 23.6284C2.1708 23.6284 2.5064 23.769 2.75383 24.0192C3.00127 24.2694 3.14028 24.6088 3.14028 24.9627V67.3315H60.8577V24.9627C60.8577 24.6088 60.9967 24.2694 61.2441 24.0192C61.4916 23.769 61.8272 23.6284 62.1771 23.6284C62.527 23.6284 62.8626 23.769 63.1101 24.0192C63.3575 24.2694 63.4965 24.6088 63.4965 24.9627V68.6657C63.4965 69.0196 63.3575 69.359 63.1101 69.6092C62.8626 69.8594 62.527 70 62.1771 70Z" fill="#0D72B9"/>
<path d="M62.1701 70.0001C61.8755 69.9988 61.5899 69.8978 61.3586 69.7133L35.584 49.1926C35.1515 48.8374 34.6661 48.5537 34.1459 48.3521C33.9775 48.2936 33.8225 48.2012 33.6903 48.0806C33.5581 47.9599 33.4514 47.8135 33.3767 47.65C33.3019 47.4866 33.2607 47.3095 33.2555 47.1295C33.2502 46.9495 33.281 46.7703 33.3461 46.6026C33.4111 46.435 33.5091 46.2824 33.634 46.1541C33.7589 46.0258 33.9083 45.9243 34.073 45.8559C34.2377 45.7875 34.4144 45.7535 34.5925 45.756C34.7705 45.7585 34.9463 45.7974 35.1091 45.8704C35.8685 46.1712 36.5781 46.5874 37.2135 47.1045L62.9419 67.6185C63.1572 67.7903 63.3142 68.0256 63.391 68.2918C63.4679 68.5579 63.4609 68.8417 63.3709 69.1037C63.281 69.3656 63.1125 69.5927 62.889 69.7533C62.6655 69.914 62.3981 70.0003 62.1239 70.0001H62.1701Z" fill="#0D72B9"/>
<path d="M1.82007 70.0001C1.54587 70.0003 1.27843 69.914 1.05494 69.7534C0.83145 69.5927 0.663013 69.3656 0.573043 69.1037C0.483073 68.8417 0.476042 68.558 0.552925 68.2918C0.629809 68.0256 0.786788 67.7903 1.00204 67.6185L26.7634 47.0912C27.4014 46.5779 28.1105 46.1621 28.8679 45.8571C29.1942 45.7279 29.5579 45.7351 29.8789 45.8771C30.2 46.0191 30.4521 46.2843 30.5798 46.6142C30.7075 46.9442 30.7004 47.312 30.56 47.6366C30.4196 47.9613 30.1574 48.2163 29.8311 48.3454C29.3168 48.5512 28.8364 48.8346 28.4061 49.186L2.6381 69.7133C2.4051 69.8992 2.11689 70.0003 1.82007 70.0001Z" fill="#0D72B9"/>
<path d="M34.6473 48.4453C34.4732 48.445 34.3008 48.411 34.1393 48.3452C32.7634 47.7747 31.2206 47.7747 29.8447 48.3452C29.6276 48.4343 29.3909 48.4634 29.159 48.4294C28.9271 48.3954 28.7084 48.2996 28.5252 48.1517L0.995846 26.0367C0.844108 25.9116 0.721809 25.7539 0.637819 25.575C0.553829 25.3962 0.510254 25.2007 0.510254 25.0027C0.510254 24.8047 0.553829 24.6092 0.637819 24.4303C0.721809 24.2514 0.844108 24.0937 0.995846 23.9686L27.826 1.41995L27.8919 1.36658C29.0852 0.48102 30.5262 0.00240773 32.0063 9.06026e-06C33.4865 -0.00238961 34.9289 0.471549 36.125 1.35323L36.191 1.4066L63.0145 23.9353C63.1663 24.0604 63.2886 24.2181 63.3725 24.3969C63.4565 24.5758 63.5001 24.7713 63.5001 24.9693C63.5001 25.1673 63.4565 25.3628 63.3725 25.5417C63.2886 25.7205 63.1663 25.8782 63.0145 26.0033L35.4653 48.1584C35.2323 48.3444 34.9441 48.4454 34.6473 48.4453ZM32.0085 45.2431C32.8244 45.2412 33.636 45.3626 34.4164 45.6033L60.0986 24.9226L34.5088 3.50136C33.7708 2.97986 32.8923 2.70019 31.992 2.70019C31.0917 2.70019 30.2132 2.97986 29.4752 3.50136L3.91173 24.9359L29.6006 45.6167C30.3744 45.3755 31.1789 45.2496 31.9887 45.2431H32.0085Z" fill="#0D72B9"/>
<path d="M30.8474 39.2592C27.3481 39.2592 23.9921 37.8535 21.5178 35.3513C19.0434 32.8491 17.6533 29.4554 17.6533 25.9168C17.6533 22.3781 19.0434 18.9844 21.5178 16.4823C23.9921 13.9801 27.3481 12.5744 30.8474 12.5744C32.6631 12.5661 34.4606 12.941 36.125 13.6751C36.2955 13.7362 36.4518 13.8322 36.5841 13.957C36.7164 14.0818 36.8219 14.2328 36.8941 14.4006C36.9662 14.5685 37.0035 14.7495 37.0035 14.9324C37.0035 15.1154 36.9663 15.2964 36.8943 15.4643C36.8222 15.6321 36.7167 15.7831 36.5844 15.908C36.4522 16.0328 36.2959 16.1289 36.1254 16.1901C35.9549 16.2512 35.7737 16.2763 35.5932 16.2637C35.4127 16.2511 35.2367 16.2011 35.0761 16.1168C33.0513 15.2312 30.8031 15.0094 28.6473 15.4825C26.4915 15.9556 24.5364 17.0999 23.0568 18.7545C21.5772 20.4091 20.6475 22.491 20.3982 24.7075C20.1489 26.924 20.5927 29.1638 21.6671 31.1122C22.7415 33.0605 24.3926 34.6195 26.3883 35.5701C28.384 36.5206 30.6241 36.8149 32.7938 36.4117C34.9635 36.0085 36.9537 34.9279 38.4848 33.3219C40.0159 31.7159 41.0109 29.6652 41.3301 27.4578C41.379 27.1039 41.565 26.7843 41.8471 26.5691C41.9868 26.4625 42.1458 26.3848 42.3152 26.3404C42.4846 26.2961 42.6609 26.2858 42.8342 26.3104C43.0074 26.3349 43.1742 26.3937 43.325 26.4834C43.4758 26.5731 43.6077 26.692 43.713 26.8332C43.8184 26.9745 43.8952 27.1353 43.9391 27.3066C43.983 27.4779 43.9931 27.6562 43.9689 27.8314C43.5005 31.0109 41.9177 33.9143 39.509 36.0121C37.1003 38.1098 34.0262 39.2623 30.8474 39.2592Z" fill="#0D72B9"/>
</svg>
