<svg width="76" height="72" viewBox="0 0 76 72" fill="none" xmlns="http://www.w3.org/2000/svg">
<path d="M37.7737 27.8507H37.7915L37.8092 27.8482L38.0827 27.8089L38.1033 27.806L38.1231 27.7997L73.9588 16.3909L73.9626 16.3896C74.193 16.3121 74.3953 16.1678 74.5437 15.9751C74.6922 15.7824 74.7802 15.5499 74.7967 15.3071L74.7971 15.3071L74.7973 15.2939C74.8011 15.0447 74.7269 14.8005 74.5849 14.5957C74.4433 14.3915 74.2414 14.2368 74.0076 14.1534C74.0069 14.1532 74.0062 14.153 74.0056 14.1527L38.1735 0.824077L38.1735 0.824069L38.1716 0.823373C37.9019 0.725542 37.6065 0.725542 37.3367 0.823373L37.3367 0.823365L37.3347 0.824108L1.54184 14.1527C1.54118 14.153 1.54052 14.1532 1.53987 14.1534C1.30598 14.2368 1.10412 14.3915 0.962531 14.5957C0.820704 14.8003 0.746459 15.0442 0.75013 15.2931C0.752525 15.544 0.836571 15.7873 0.989615 15.986C1.14164 16.1834 1.35349 16.326 1.59336 16.3923L37.4241 27.8388L37.4612 27.8507H37.5001H37.7737ZM69.9092 15.1932L37.7737 25.3781L5.67649 15.1932L37.7737 3.28531L69.9092 15.1932Z" fill="#0D72B9" stroke="#0D72B9" stroke-width="0.5"/>
<path d="M31.2888 10.8755L31.304 10.8754L31.3191 10.8735L31.6317 10.8343L31.6604 10.8307L31.6875 10.8207L45.3262 5.76313L45.3279 5.76249C45.4741 5.70707 45.608 5.6233 45.7219 5.51602C45.8358 5.40874 45.9274 5.28006 45.9917 5.13733C46.0559 4.9946 46.0915 4.84061 46.0964 4.68413C46.1013 4.52766 46.0755 4.37173 46.0203 4.22524C45.9089 3.92941 45.6848 3.68983 45.3971 3.55947C45.2547 3.49492 45.1009 3.45915 44.9446 3.45421C44.7883 3.44927 44.6327 3.47524 44.4864 3.53063C44.4864 3.53065 44.4864 3.53067 44.4863 3.53069L30.8886 8.66593C30.6073 8.76801 30.3749 8.9727 30.2376 9.23892C30.1001 9.50571 30.0682 9.8147 30.1482 10.104L30.1529 10.121L30.1599 10.1371C30.2556 10.3571 30.4134 10.5443 30.614 10.6755C30.8146 10.8068 31.0492 10.8763 31.2888 10.8755Z" fill="#0D72B9" stroke="#0D72B9" stroke-width="0.5"/>
<path d="M15.084 38.7675L15.084 38.7676L15.0896 38.7699C22.2841 41.7558 29.9857 43.3199 37.7714 43.3761L37.7751 43.376C45.5608 43.3199 53.2624 41.7558 60.4569 38.7699L60.4569 38.77L60.4625 38.7675C61.1205 38.4755 61.6802 37.9988 62.074 37.3949C62.4679 36.7911 62.6791 36.0859 62.6823 35.3644V35.3633L62.6823 19.0929L62.6822 19.0878C62.6784 18.903 62.6317 18.7216 62.5459 18.5581C62.4601 18.3944 62.3374 18.2531 62.1876 18.1451L62.1725 18.1343L62.1559 18.1257C61.9936 18.0422 61.8137 17.9986 61.6311 17.9986C61.456 17.9986 61.2834 18.0387 61.1263 18.1157L37.7733 25.5348L14.4182 18.1151C14.2549 18.0381 14.0765 17.998 13.8958 17.998C13.7085 17.998 13.5238 18.041 13.3557 18.1237L13.3333 18.1346L13.3136 18.1498C13.1686 18.2612 13.0523 18.4057 12.9742 18.5711C12.8967 18.7352 12.8591 18.9153 12.8642 19.0967L12.8642 35.3633L12.8642 35.3644C12.8674 36.0859 13.0786 36.7911 13.4725 37.3949C13.8663 37.9988 14.426 38.4755 15.084 38.7675ZM15.24 35.3677H15.24V35.3633V20.7288L37.4238 27.7996L37.4608 27.8114H37.4997H38.0468H38.0857L38.1227 27.7996L60.3065 20.7288V35.3612C60.3019 35.6134 60.2254 35.859 60.0859 36.0689L60.2941 36.2072L60.0859 36.0689C59.9465 36.2787 59.7501 36.4438 59.5201 36.5449C52.6267 39.4267 45.241 40.9378 37.7733 40.9942C30.3048 40.9378 22.9184 39.4265 16.0244 36.5441L16.0244 36.544L16.0203 36.5424C15.7868 36.4496 15.5869 36.2875 15.4474 36.0776C15.308 35.8678 15.2356 35.6201 15.24 35.3677Z" fill="#0D72B9" stroke="#0D72B9" stroke-width="0.5"/>
<path d="M31.1293 34.6188L31.1596 34.3706C25.9665 33.7375 20.8783 32.4254 16.0245 30.4678C15.7901 30.3644 15.5907 30.1944 15.4512 29.9785C15.311 29.7617 15.2374 29.5083 15.2396 29.2497L15.2396 29.2497V29.2476C15.2396 28.932 15.1146 28.6292 14.8919 28.4057C14.6692 28.1823 14.367 28.0566 14.0517 28.0566C13.7364 28.0566 13.4341 28.1823 13.2114 28.4057C12.9887 28.6292 12.8638 28.932 12.8638 29.2476L12.8638 29.2487C12.867 29.9701 13.0782 30.6753 13.472 31.2792C13.8658 31.883 14.4255 32.3598 15.0836 32.6518L15.0835 32.6519L15.0917 32.6552C20.182 34.7015 25.5316 36.0267 30.9863 36.5925L30.9976 36.5937L31.0089 36.5938C31.2684 36.5971 31.5222 36.5178 31.7339 36.3674C31.9455 36.217 32.104 36.0033 32.1869 35.7571L32.1946 35.7341L32.1978 35.7102C32.2185 35.5537 32.208 35.3946 32.1669 35.2422C32.1258 35.0899 32.0548 34.9472 31.9582 34.8225L31.7606 34.9756L31.9582 34.8225C31.8615 34.6978 31.741 34.5936 31.6037 34.5159C31.4664 34.4383 31.3151 34.3889 31.1585 34.3705L31.1293 34.6188ZM31.1293 34.6188C25.9132 33.9829 20.8026 32.6648 15.9275 30.6982C15.6466 30.5752 15.408 30.3722 15.2412 30.1143C15.0745 29.8564 14.987 29.555 14.9896 29.2476C14.9896 28.998 14.8908 28.7587 14.7149 28.5822C14.539 28.4058 14.3004 28.3066 14.0517 28.3066C13.8029 28.3066 13.5644 28.4058 13.3885 28.5822C13.2126 28.7587 13.1138 28.998 13.1138 29.2476L31.1293 34.6188Z" fill="#0D72B9" stroke="#0D72B9" stroke-width="0.5"/>
<path d="M66.9448 41.4981C67.1675 41.7215 67.4698 41.8472 67.7851 41.8472C68.1004 41.8472 68.4026 41.7215 68.6253 41.4981C68.848 41.2747 68.973 40.9719 68.973 40.6563V17.1328C68.973 16.8172 68.848 16.5144 68.6253 16.291C68.4026 16.0676 68.1004 15.9419 67.7851 15.9419C67.4698 15.9419 67.1675 16.0676 66.9448 16.291C66.7221 16.5144 66.5972 16.8172 66.5972 17.1328V40.6563C66.5972 40.9719 66.7221 41.2747 66.9448 41.4981Z" fill="#0D72B9" stroke="#0D72B9" stroke-width="0.5"/>
<path d="M67.7846 52.9396C66.4505 52.9395 65.1465 52.542 64.0379 51.7976C62.9291 51.0531 62.0658 49.9951 61.5572 48.758C61.0486 47.5208 60.9176 46.16 61.1808 44.8482C61.444 43.5363 62.0895 42.3322 63.0357 41.3886C63.982 40.4451 65.1862 39.8045 66.4959 39.5483C67.8056 39.2921 69.1617 39.4318 70.3921 39.9496C71.6225 40.4675 72.6718 41.3402 73.4071 42.4569C74.1422 43.5733 74.5304 44.8835 74.5225 46.2214M67.7846 52.9396C68.6675 52.9449 69.5427 52.775 70.3598 52.4398C71.1772 52.1045 71.9204 51.6104 72.5467 50.9859C73.1729 50.3614 73.6699 49.6189 74.0089 48.8011C74.3479 47.9835 74.5225 47.1068 74.5225 46.2214M67.7846 52.9396C67.7844 52.9396 67.7841 52.9396 67.7839 52.9396L67.7854 52.6896L67.7854 52.9396C67.7851 52.9396 67.7849 52.9396 67.7846 52.9396ZM74.5225 46.2214C74.5225 46.2217 74.5225 46.2219 74.5225 46.2222L74.2725 46.2207L74.5225 46.2207C74.5225 46.2209 74.5225 46.2212 74.5225 46.2214ZM65.3505 42.5636C66.0726 42.0874 66.9193 41.8371 67.7833 41.8444C68.9333 41.8542 70.0331 42.3194 70.8431 43.1389C71.6531 43.9585 72.1077 45.0662 72.1077 46.2207C72.1076 47.088 71.8508 47.9357 71.3698 48.6561C70.8888 49.3766 70.2054 49.9374 69.4064 50.2674C68.6074 50.5974 67.7288 50.6818 66.8819 50.51C66.0351 50.3382 65.2581 49.9178 64.6496 49.3021C64.041 48.6864 63.6285 47.9031 63.4643 47.0516C63.3002 46.2001 63.3919 45.3189 63.7278 44.5198C64.0636 43.7208 64.6285 43.0399 65.3505 42.5636Z" fill="#0D72B9" stroke="#0D72B9" stroke-width="0.5"/>
<path d="M67.7846 52.9396C66.4505 52.9395 65.1465 52.542 64.0379 51.7976C62.9291 51.0531 62.0658 49.9951 61.5572 48.758C61.0486 47.5208 60.9176 46.16 61.1808 44.8482C61.444 43.5363 62.0895 42.3322 63.0357 41.3886C63.982 40.4451 65.1862 39.8045 66.4959 39.5483C67.8056 39.2921 69.1617 39.4318 70.3921 39.9496C71.6225 40.4675 72.6718 41.3402 73.4071 42.4569C74.1422 43.5733 74.5304 44.8835 74.5225 46.2214M67.7846 52.9396C68.6675 52.9449 69.5427 52.775 70.3598 52.4398C71.1772 52.1045 71.9204 51.6104 72.5467 50.9859C73.1729 50.3614 73.6699 49.6189 74.0089 48.8011C74.3479 47.9835 74.5225 47.1068 74.5225 46.2214M67.7846 52.9396C67.7844 52.9396 67.7841 52.9396 67.7839 52.9396L67.7854 52.6896L67.7854 52.9396C67.7851 52.9396 67.7849 52.9396 67.7846 52.9396ZM74.5225 46.2214C74.5225 46.2217 74.5225 46.2219 74.5225 46.2222L74.2725 46.2207L74.5225 46.2207C74.5225 46.2209 74.5225 46.2212 74.5225 46.2214ZM65.3505 42.5636C66.0726 42.0874 66.9193 41.8371 67.7833 41.8444C68.9333 41.8542 70.0331 42.3194 70.8431 43.1389C71.6531 43.9585 72.1077 45.0662 72.1077 46.2207C72.1076 47.088 71.8508 47.9357 71.3698 48.6561C70.8888 49.3766 70.2054 49.9374 69.4064 50.2674C68.6074 50.5974 67.7288 50.6818 66.8819 50.51C66.0351 50.3382 65.2581 49.9178 64.6496 49.3021C64.041 48.6864 63.6285 47.9031 63.4643 47.0516C63.3002 46.2001 63.3919 45.3189 63.7278 44.5198C64.0636 43.7208 64.6285 43.0399 65.3505 42.5636Z" fill="#0D72B9" stroke="#0D72B9" stroke-width="0.5"/>
<path d="M71.5763 71.25L71.5771 71.25C72.091 71.2483 72.5989 71.1389 73.0682 70.9288C73.5375 70.7188 73.9578 70.4127 74.3022 70.0303L74.3039 70.0284C74.6546 69.6308 74.9177 69.1637 75.0763 68.6574C75.2349 68.1512 75.2854 67.6171 75.2246 67.0899L75.2243 67.0878L73.0753 49.7616C73.0752 49.7611 73.0751 49.7606 73.0751 49.7601C73.0489 49.5309 72.9569 49.3141 72.81 49.1362C72.6629 48.9579 72.467 48.8264 72.2464 48.7579L72.1722 48.9967L72.2464 48.7579C72.0257 48.6894 71.7899 48.6869 71.5678 48.7506C71.3466 48.8142 71.1486 48.9407 70.9979 49.1148C70.5928 49.5663 70.0977 49.9273 69.5447 50.1746C68.991 50.4221 68.3917 50.55 67.7856 50.55C67.1795 50.55 66.5802 50.4221 66.0265 50.1746C65.4729 49.927 64.9773 49.5654 64.5719 49.1131L64.5719 49.1131L64.5706 49.1117C64.3928 48.9164 64.1552 48.7859 63.8951 48.7409C63.637 48.6963 63.3715 48.7384 63.1399 48.8607C62.9668 48.9439 62.8173 49.0692 62.705 49.2252C62.5916 49.3827 62.5198 49.5664 62.4963 49.7592C62.4962 49.7592 62.4962 49.7593 62.4962 49.7594L60.3472 67.0859C60.3471 67.0862 60.3471 67.0866 60.347 67.0869C60.278 67.6112 60.3206 68.1443 60.4721 68.6508C60.6237 69.1578 60.8808 69.6267 61.2266 70.0265L61.2264 70.0267L61.2332 70.0339C61.5877 70.4124 62.0148 70.7153 62.4888 70.9243C62.9629 71.1332 63.4742 71.244 63.9921 71.25L63.9921 71.25H63.9949L71.5763 71.25ZM62.7183 67.4678L62.7183 67.4678L62.719 67.4626L64.5885 52.1516C65.5664 52.6686 66.6568 52.9401 67.7661 52.9401C68.8756 52.9401 69.9664 52.6684 70.9445 52.1511L72.8521 67.4617C72.8522 67.4619 72.8522 67.4622 72.8522 67.4625C72.8746 67.6523 72.8568 67.8447 72.8 68.0271C72.7431 68.2096 72.6486 68.3779 72.5225 68.521C72.4033 68.6546 72.2575 68.7615 72.0945 68.8347C71.9313 68.9081 71.7546 68.9462 71.5759 68.9465H63.9974C63.6252 68.9388 63.2706 68.7858 63.009 68.52C62.8918 68.3757 62.8053 68.2088 62.755 68.0294C62.7038 67.8469 62.6913 67.6556 62.7183 67.4678Z" fill="#0D72B9" stroke="#0D72B9" stroke-width="0.5"/>
</svg>
