<svg width="300" height="300" viewBox="0 0 300 300" fill="none" xmlns="http://www.w3.org/2000/svg">
<g clip-path="url(#clip0_57_10325)">
<mask id="mask0_57_10325" style="mask-type:alpha" maskUnits="userSpaceOnUse" x="0" y="0" width="300" height="300">
<path d="M150 300C232.843 300 300 232.843 300 150C300 67.1573 232.843 0 150 0C67.1573 0 0 67.1573 0 150C0 232.843 67.1573 300 150 300Z" fill="#D9D9D9"/>
</mask>
<g mask="url(#mask0_57_10325)">
<path d="M-19.9856 -26.6043C-22.6562 -22.9323 -26.4024 -21.0963 -31.2242 -21.0963C-36.0089 -21.0963 -39.7736 -22.9323 -42.5184 -26.6043C-45.1889 -30.2763 -46.5242 -35.1723 -46.5242 -41.2923C-46.5242 -47.4123 -45.1889 -52.3083 -42.5184 -55.9803C-39.7736 -59.6523 -36.0089 -61.4883 -31.2242 -61.4883C-26.4024 -61.4883 -22.6562 -59.6523 -19.9856 -55.9803C-17.278 -52.3454 -15.9242 -47.4494 -15.9242 -41.2923C-15.9242 -35.1352 -17.278 -30.2392 -19.9856 -26.6043ZM-31.2242 -27.3275C-28.3311 -27.3275 -26.1242 -28.533 -24.6035 -30.9439C-23.0827 -33.3548 -22.3224 -36.8043 -22.3224 -41.2923C-22.3224 -45.7803 -23.0827 -49.2297 -24.6035 -51.6406C-26.1242 -54.0516 -28.3311 -55.257 -31.2242 -55.257C-34.0802 -55.257 -36.2871 -54.0516 -37.8449 -51.6406C-39.3656 -49.2297 -40.126 -45.7803 -40.126 -41.2923C-40.126 -36.8043 -39.3656 -33.3548 -37.8449 -30.9439C-36.2871 -28.533 -34.0802 -27.3275 -31.2242 -27.3275ZM15.0588 -26.6043C12.3882 -22.9323 8.64206 -21.0963 3.82022 -21.0963C-0.964516 -21.0963 -4.72924 -22.9323 -7.47394 -26.6043C-10.1445 -30.2763 -11.4798 -35.1723 -11.4798 -41.2923C-11.4798 -47.4123 -10.1445 -52.3083 -7.47394 -55.9803C-4.72924 -59.6523 -0.964516 -61.4883 3.82022 -61.4883C8.64206 -61.4883 12.3882 -59.6523 15.0588 -55.9803C17.7664 -52.3454 19.1202 -47.4494 19.1202 -41.2923C19.1202 -35.1352 17.7664 -30.2392 15.0588 -26.6043ZM3.82022 -27.3275C6.71333 -27.3275 8.92024 -28.533 10.441 -30.9439C11.9617 -33.3548 12.7221 -36.8043 12.7221 -41.2923C12.7221 -45.7803 11.9617 -49.2297 10.441 -51.6406C8.92024 -54.0516 6.71333 -55.257 3.82022 -55.257C0.964211 -55.257 -1.2427 -54.0516 -2.80052 -51.6406C-4.32125 -49.2297 -5.08161 -45.7803 -5.08161 -41.2923C-5.08161 -36.8043 -4.32125 -33.3548 -2.80052 -30.9439C-1.2427 -28.533 0.964211 -27.3275 3.82022 -27.3275ZM50.1031 -26.6043C47.4326 -22.9323 43.6864 -21.0963 38.8646 -21.0963C34.0799 -21.0963 30.3151 -22.9323 27.5704 -26.6043C24.8999 -30.2763 23.5646 -35.1723 23.5646 -41.2923C23.5646 -47.4123 24.8999 -52.3083 27.5704 -55.9803C30.3151 -59.6523 34.0799 -61.4883 38.8646 -61.4883C43.6864 -61.4883 47.4326 -59.6523 50.1031 -55.9803C52.8108 -52.3454 54.1646 -47.4494 54.1646 -41.2923C54.1646 -35.1352 52.8108 -30.2392 50.1031 -26.6043ZM38.8646 -27.3275C41.7577 -27.3275 43.9646 -28.533 45.4853 -30.9439C47.0061 -33.3548 47.7664 -36.8043 47.7664 -41.2923C47.7664 -45.7803 47.0061 -49.2297 45.4853 -51.6406C43.9646 -54.0516 41.7577 -55.257 38.8646 -55.257C36.0086 -55.257 33.8017 -54.0516 32.2439 -51.6406C30.7232 -49.2297 29.9628 -45.7803 29.9628 -41.2923C29.9628 -36.8043 30.7232 -33.3548 32.2439 -30.9439C33.8017 -28.533 36.0086 -27.3275 38.8646 -27.3275ZM56.0202 -57.1486L66.2573 -60.765H71.8209V-21.8195H65.4227V-53.9217L57.578 -51.6963L56.0202 -57.1486ZM104.761 -26.6043C102.091 -22.9323 98.3447 -21.0963 93.5229 -21.0963C88.7382 -21.0963 84.9735 -22.9323 82.2287 -26.6043C79.5582 -30.2763 78.2229 -35.1723 78.2229 -41.2923C78.2229 -47.4123 79.5582 -52.3083 82.2287 -55.9803C84.9735 -59.6523 88.7382 -61.4883 93.5229 -61.4883C98.3447 -61.4883 102.091 -59.6523 104.761 -55.9803C107.469 -52.3454 108.823 -47.4494 108.823 -41.2923C108.823 -35.1352 107.469 -30.2392 104.761 -26.6043ZM93.5229 -27.3275C96.416 -27.3275 98.6229 -28.533 100.144 -30.9439C101.664 -33.3548 102.425 -36.8043 102.425 -41.2923C102.425 -45.7803 101.664 -49.2297 100.144 -51.6406C98.6229 -54.0516 96.416 -55.257 93.5229 -55.257C90.6669 -55.257 88.46 -54.0516 86.9022 -51.6406C85.3815 -49.2297 84.6211 -45.7803 84.6211 -41.2923C84.6211 -36.8043 85.3815 -33.3548 86.9022 -30.9439C88.46 -28.533 90.6669 -27.3275 93.5229 -27.3275ZM110.679 -57.1486L120.916 -60.765H126.479V-21.8195H120.081V-53.9217L112.236 -51.6963L110.679 -57.1486ZM159.42 -26.6043C156.749 -22.9323 153.003 -21.0963 148.181 -21.0963C143.397 -21.0963 139.632 -22.9323 136.887 -26.6043C134.217 -30.2763 132.881 -35.1723 132.881 -41.2923C132.881 -47.4123 134.217 -52.3083 136.887 -55.9803C139.632 -59.6523 143.397 -61.4883 148.181 -61.4883C153.003 -61.4883 156.749 -59.6523 159.42 -55.9803C162.127 -52.3454 163.481 -47.4494 163.481 -41.2923C163.481 -35.1352 162.127 -30.2392 159.42 -26.6043ZM148.181 -27.3275C151.074 -27.3275 153.281 -28.533 154.802 -30.9439C156.323 -33.3548 157.083 -36.8043 157.083 -41.2923C157.083 -45.7803 156.323 -49.2297 154.802 -51.6406C153.281 -54.0516 151.074 -55.257 148.181 -55.257C145.325 -55.257 143.118 -54.0516 141.561 -51.6406C140.04 -49.2297 139.279 -45.7803 139.279 -41.2923C139.279 -36.8043 140.04 -33.3548 141.561 -30.9439C143.118 -28.533 145.325 -27.3275 148.181 -27.3275ZM165.337 -57.1486L175.574 -60.765H181.138V-21.8195H174.739V-53.9217L166.895 -51.6963L165.337 -57.1486ZM186.037 -57.1486L196.275 -60.765H201.838V-21.8195H195.44V-53.9217L187.595 -51.6963L186.037 -57.1486ZM234.779 -26.6043C232.108 -22.9323 228.362 -21.0963 223.54 -21.0963C218.755 -21.0963 214.991 -22.9323 212.246 -26.6043C209.576 -30.2763 208.24 -35.1723 208.24 -41.2923C208.24 -47.4123 209.576 -52.3083 212.246 -55.9803C214.991 -59.6523 218.755 -61.4883 223.54 -61.4883C228.362 -61.4883 232.108 -59.6523 234.779 -55.9803C237.486 -52.3454 238.84 -47.4494 238.84 -41.2923C238.84 -35.1352 237.486 -30.2392 234.779 -26.6043ZM223.54 -27.3275C226.433 -27.3275 228.64 -28.533 230.161 -30.9439C231.682 -33.3548 232.442 -36.8043 232.442 -41.2923C232.442 -45.7803 231.682 -49.2297 230.161 -51.6406C228.64 -54.0516 226.433 -55.257 223.54 -55.257C220.684 -55.257 218.477 -54.0516 216.919 -51.6406C215.399 -49.2297 214.638 -45.7803 214.638 -41.2923C214.638 -36.8043 215.399 -33.3548 216.919 -30.9439C218.477 -28.533 220.684 -27.3275 223.54 -27.3275ZM269.823 -26.6043C267.153 -22.9323 263.406 -21.0963 258.585 -21.0963C253.8 -21.0963 250.035 -22.9323 247.29 -26.6043C244.62 -30.2763 243.285 -35.1723 243.285 -41.2923C243.285 -47.4123 244.62 -52.3083 247.29 -55.9803C250.035 -59.6523 253.8 -61.4883 258.585 -61.4883C263.406 -61.4883 267.153 -59.6523 269.823 -55.9803C272.531 -52.3454 273.885 -47.4494 273.885 -41.2923C273.885 -35.1352 272.531 -30.2392 269.823 -26.6043ZM258.585 -27.3275C261.478 -27.3275 263.685 -28.533 265.205 -30.9439C266.726 -33.3548 267.486 -36.8043 267.486 -41.2923C267.486 -45.7803 266.726 -49.2297 265.205 -51.6406C263.685 -54.0516 261.478 -55.257 258.585 -55.257C255.729 -55.257 253.522 -54.0516 251.964 -51.6406C250.443 -49.2297 249.683 -45.7803 249.683 -41.2923C249.683 -36.8043 250.443 -33.3548 251.964 -30.9439C253.522 -28.533 255.729 -27.3275 258.585 -27.3275ZM275.74 -57.1486L285.977 -60.765H291.541V-21.8195H285.143V-53.9217L277.298 -51.6963L275.74 -57.1486ZM296.441 -57.1486L306.678 -60.765H312.241V-21.8195H305.843V-53.9217L297.999 -51.6963L296.441 -57.1486ZM317.142 -57.1486L327.379 -60.765H332.943V-21.8195H326.544V-53.9217L318.7 -51.6963L317.142 -57.1486ZM337.842 -57.1486L348.079 -60.765H353.643V-21.8195H347.245V-53.9217L339.4 -51.6963L337.842 -57.1486ZM-48.0264 -8.05773L-37.7893 -11.6741H-32.2256V27.2714H-38.6238V-4.83083L-46.4686 -2.60537L-48.0264 -8.05773ZM0.715008 22.4866C-1.95554 26.1586 -5.70171 27.9946 -10.5235 27.9946C-15.3083 27.9946 -19.073 26.1586 -21.8177 22.4866C-24.4883 18.8146 -25.8235 13.9186 -25.8235 7.79864C-25.8235 1.67863 -24.4883 -3.21737 -21.8177 -6.88937C-19.073 -10.5614 -15.3083 -12.3974 -10.5235 -12.3974C-5.70171 -12.3974 -1.95554 -10.5614 0.715008 -6.88937C3.42265 -3.25446 4.77646 1.64154 4.77646 7.79864C4.77646 13.9557 3.42265 18.8517 0.715008 22.4866ZM-10.5235 21.7634C-7.63044 21.7634 -5.42353 20.5579 -3.90281 18.147C-2.38208 15.7361 -1.62172 12.2866 -1.62172 7.79864C-1.62172 3.31063 -2.38208 -0.138824 -3.90281 -2.54974C-5.42353 -4.96064 -7.63044 -6.1661 -10.5235 -6.1661C-13.3795 -6.1661 -15.5864 -4.96064 -17.1443 -2.54974C-18.665 -0.138824 -19.4253 3.31063 -19.4253 7.79864C-19.4253 12.2866 -18.665 15.7361 -17.1443 18.147C-15.5864 20.5579 -13.3795 21.7634 -10.5235 21.7634ZM6.632 -8.05773L16.8691 -11.6741H22.4327V27.2714H16.0345V-4.83083L8.18982 -2.60537L6.632 -8.05773ZM55.3733 22.4866C52.7028 26.1586 48.9567 27.9946 44.1348 27.9946C39.3501 27.9946 35.5854 26.1586 32.8407 22.4866C30.1701 18.8146 28.8348 13.9186 28.8348 7.79864C28.8348 1.67863 30.1701 -3.21737 32.8407 -6.88937C35.5854 -10.5614 39.3501 -12.3974 44.1348 -12.3974C48.9567 -12.3974 52.7028 -10.5614 55.3733 -6.88937C58.0809 -3.25446 59.4347 1.64154 59.4347 7.79864C59.4347 13.9557 58.0809 18.8517 55.3733 22.4866ZM44.1348 21.7634C47.0279 21.7634 49.2348 20.5579 50.7556 18.147C52.2763 15.7361 53.0367 12.2866 53.0367 7.79864C53.0367 3.31063 52.2763 -0.138824 50.7556 -2.54974C49.2348 -4.96064 47.0279 -6.1661 44.1348 -6.1661C41.2788 -6.1661 39.0719 -4.96064 37.5141 -2.54974C35.9934 -0.138824 35.233 3.31063 35.233 7.79864C35.233 12.2866 35.9934 15.7361 37.5141 18.147C39.0719 20.5579 41.2788 21.7634 44.1348 21.7634ZM90.4176 22.4866C87.7471 26.1586 84.0009 27.9946 79.1791 27.9946C74.3944 27.9946 70.6296 26.1586 67.8849 22.4866C65.2144 18.8146 63.8791 13.9186 63.8791 7.79864C63.8791 1.67863 65.2144 -3.21737 67.8849 -6.88937C70.6296 -10.5614 74.3944 -12.3974 79.1791 -12.3974C84.0009 -12.3974 87.7471 -10.5614 90.4176 -6.88937C93.1253 -3.25446 94.4791 1.64154 94.4791 7.79864C94.4791 13.9557 93.1253 18.8517 90.4176 22.4866ZM79.1791 21.7634C82.0722 21.7634 84.2791 20.5579 85.7998 18.147C87.3206 15.7361 88.0809 12.2866 88.0809 7.79864C88.0809 3.31063 87.3206 -0.138824 85.7998 -2.54974C84.2791 -4.96064 82.0722 -6.1661 79.1791 -6.1661C76.3231 -6.1661 74.1162 -4.96064 72.5584 -2.54974C71.0377 -0.138824 70.2773 3.31063 70.2773 7.79864C70.2773 12.2866 71.0377 15.7361 72.5584 18.147C74.1162 20.5579 76.3231 21.7634 79.1791 21.7634ZM96.3347 -8.05773L106.572 -11.6741H112.135V27.2714H105.737V-4.83083L97.8926 -2.60537L96.3347 -8.05773ZM117.035 -8.05773L127.272 -11.6741H132.836V27.2714H126.438V-4.83083L118.593 -2.60537L117.035 -8.05773ZM137.736 -8.05773L147.973 -11.6741H153.537V27.2714H147.138V-4.83083L139.294 -2.60537L137.736 -8.05773ZM186.478 22.4866C183.807 26.1586 180.061 27.9946 175.239 27.9946C170.454 27.9946 166.69 26.1586 163.945 22.4866C161.274 18.8146 159.939 13.9186 159.939 7.79864C159.939 1.67863 161.274 -3.21737 163.945 -6.88937C166.69 -10.5614 170.454 -12.3974 175.239 -12.3974C180.061 -12.3974 183.807 -10.5614 186.478 -6.88937C189.185 -3.25446 190.539 1.64154 190.539 7.79864C190.539 13.9557 189.185 18.8517 186.478 22.4866ZM175.239 21.7634C178.132 21.7634 180.339 20.5579 181.86 18.147C183.381 15.7361 184.141 12.2866 184.141 7.79864C184.141 3.31063 183.381 -0.138824 181.86 -2.54974C180.339 -4.96064 178.132 -6.1661 175.239 -6.1661C172.383 -6.1661 170.176 -4.96064 168.618 -2.54974C167.098 -0.138824 166.337 3.31063 166.337 7.79864C166.337 12.2866 167.098 15.7361 168.618 18.147C170.176 20.5579 172.383 21.7634 175.239 21.7634ZM192.395 -8.05773L202.632 -11.6741H208.195V27.2714H201.797V-4.83083L193.953 -2.60537L192.395 -8.05773ZM241.136 22.4866C238.465 26.1586 234.719 27.9946 229.897 27.9946C225.113 27.9946 221.348 26.1586 218.603 22.4866C215.933 18.8146 214.597 13.9186 214.597 7.79864C214.597 1.67863 215.933 -3.21737 218.603 -6.88937C221.348 -10.5614 225.113 -12.3974 229.897 -12.3974C234.719 -12.3974 238.465 -10.5614 241.136 -6.88937C243.844 -3.25446 245.197 1.64154 245.197 7.79864C245.197 13.9557 243.844 18.8517 241.136 22.4866ZM229.897 21.7634C232.791 21.7634 234.997 20.5579 236.518 18.147C238.039 15.7361 238.799 12.2866 238.799 7.79864C238.799 3.31063 238.039 -0.138824 236.518 -2.54974C234.997 -4.96064 232.791 -6.1661 229.897 -6.1661C227.041 -6.1661 224.835 -4.96064 223.277 -2.54974C221.756 -0.138824 220.996 3.31063 220.996 7.79864C220.996 12.2866 221.756 15.7361 223.277 18.147C224.835 20.5579 227.041 21.7634 229.897 21.7634ZM247.053 -8.05773L257.29 -11.6741H262.854V27.2714H256.456V-4.83083L248.611 -2.60537L247.053 -8.05773ZM295.794 22.4866C293.124 26.1586 289.378 27.9946 284.556 27.9946C279.771 27.9946 276.006 26.1586 273.262 22.4866C270.591 18.8146 269.256 13.9186 269.256 7.79864C269.256 1.67863 270.591 -3.21737 273.262 -6.88937C276.006 -10.5614 279.771 -12.3974 284.556 -12.3974C289.378 -12.3974 293.124 -10.5614 295.794 -6.88937C298.502 -3.25446 299.856 1.64154 299.856 7.79864C299.856 13.9557 298.502 18.8517 295.794 22.4866ZM284.556 21.7634C287.449 21.7634 289.656 20.5579 291.177 18.147C292.697 15.7361 293.458 12.2866 293.458 7.79864C293.458 3.31063 292.697 -0.138824 291.177 -2.54974C289.656 -4.96064 287.449 -6.1661 284.556 -6.1661C281.7 -6.1661 279.493 -4.96064 277.935 -2.54974C276.414 -0.138824 275.654 3.31063 275.654 7.79864C275.654 12.2866 276.414 15.7361 277.935 18.147C279.493 20.5579 281.7 21.7634 284.556 21.7634ZM301.711 -8.05773L311.949 -11.6741H317.512V27.2714H311.114V-4.83083L303.269 -2.60537L301.711 -8.05773ZM350.453 22.4866C347.782 26.1586 344.036 27.9946 339.214 27.9946C334.43 27.9946 330.665 26.1586 327.92 22.4866C325.249 18.8146 323.914 13.9186 323.914 7.79864C323.914 1.67863 325.249 -3.21737 327.92 -6.88937C330.665 -10.5614 334.43 -12.3974 339.214 -12.3974C344.036 -12.3974 347.782 -10.5614 350.453 -6.88937C353.16 -3.25446 354.514 1.64154 354.514 7.79864C354.514 13.9557 353.16 18.8517 350.453 22.4866ZM339.214 21.7634C342.107 21.7634 344.314 20.5579 345.835 18.147C347.356 15.7361 348.116 12.2866 348.116 7.79864C348.116 3.31063 347.356 -0.138824 345.835 -2.54974C344.314 -4.96064 342.107 -6.1661 339.214 -6.1661C336.358 -6.1661 334.151 -4.96064 332.593 -2.54974C331.073 -0.138824 330.312 3.31063 330.312 7.79864C330.312 12.2866 331.073 15.7361 332.593 18.147C334.151 20.5579 336.358 21.7634 339.214 21.7634ZM-19.9856 71.5776C-22.6562 75.2496 -26.4024 77.0856 -31.2242 77.0856C-36.0089 77.0856 -39.7736 75.2496 -42.5184 71.5776C-45.1889 67.9055 -46.5242 63.0096 -46.5242 56.8895C-46.5242 50.7696 -45.1889 45.8736 -42.5184 42.2015C-39.7736 38.5295 -36.0089 36.6935 -31.2242 36.6935C-26.4024 36.6935 -22.6562 38.5295 -19.9856 42.2015C-17.278 45.8365 -15.9242 50.7325 -15.9242 56.8895C-15.9242 63.0466 -17.278 67.9426 -19.9856 71.5776ZM-31.2242 70.8543C-28.3311 70.8543 -26.1242 69.6488 -24.6035 67.2379C-23.0827 64.827 -22.3224 61.3775 -22.3224 56.8895C-22.3224 52.4016 -23.0827 48.9521 -24.6035 46.5412C-26.1242 44.1303 -28.3311 42.9248 -31.2242 42.9248C-34.0802 42.9248 -36.2871 44.1303 -37.8449 46.5412C-39.3656 48.9521 -40.126 52.4016 -40.126 56.8895C-40.126 61.3775 -39.3656 64.827 -37.8449 67.2379C-36.2871 69.6488 -34.0802 70.8543 -31.2242 70.8543ZM15.0588 71.5776C12.3882 75.2496 8.64206 77.0856 3.82022 77.0856C-0.964516 77.0856 -4.72924 75.2496 -7.47394 71.5776C-10.1445 67.9055 -11.4798 63.0096 -11.4798 56.8895C-11.4798 50.7696 -10.1445 45.8736 -7.47394 42.2015C-4.72924 38.5295 -0.964516 36.6935 3.82022 36.6935C8.64206 36.6935 12.3882 38.5295 15.0588 42.2015C17.7664 45.8365 19.1202 50.7325 19.1202 56.8895C19.1202 63.0466 17.7664 67.9426 15.0588 71.5776ZM3.82022 70.8543C6.71333 70.8543 8.92024 69.6488 10.441 67.2379C11.9617 64.827 12.7221 61.3775 12.7221 56.8895C12.7221 52.4016 11.9617 48.9521 10.441 46.5412C8.92024 44.1303 6.71333 42.9248 3.82022 42.9248C0.964211 42.9248 -1.2427 44.1303 -2.80052 46.5412C-4.32125 48.9521 -5.08161 52.4016 -5.08161 56.8895C-5.08161 61.3775 -4.32125 64.827 -2.80052 67.2379C-1.2427 69.6488 0.964211 70.8543 3.82022 70.8543ZM50.1031 71.5776C47.4326 75.2496 43.6864 77.0856 38.8646 77.0856C34.0799 77.0856 30.3151 75.2496 27.5704 71.5776C24.8999 67.9055 23.5646 63.0096 23.5646 56.8895C23.5646 50.7696 24.8999 45.8736 27.5704 42.2015C30.3151 38.5295 34.0799 36.6935 38.8646 36.6935C43.6864 36.6935 47.4326 38.5295 50.1031 42.2015C52.8108 45.8365 54.1646 50.7325 54.1646 56.8895C54.1646 63.0466 52.8108 67.9426 50.1031 71.5776ZM38.8646 70.8543C41.7577 70.8543 43.9646 69.6488 45.4853 67.2379C47.0061 64.827 47.7664 61.3775 47.7664 56.8895C47.7664 52.4016 47.0061 48.9521 45.4853 46.5412C43.9646 44.1303 41.7577 42.9248 38.8646 42.9248C36.0086 42.9248 33.8017 44.1303 32.2439 46.5412C30.7232 48.9521 29.9628 52.4016 29.9628 56.8895C29.9628 61.3775 30.7232 64.827 32.2439 67.2379C33.8017 69.6488 36.0086 70.8543 38.8646 70.8543ZM56.0202 41.0332L66.2573 37.4168H71.8209V76.3623H65.4227V44.2601L57.578 46.4855L56.0202 41.0332ZM76.7207 41.0332L86.9578 37.4168H92.5215V76.3623H86.1233V44.2601L78.2785 46.4855L76.7207 41.0332ZM125.462 71.5776C122.791 75.2496 119.045 77.0856 114.223 77.0856C109.439 77.0856 105.674 75.2496 102.929 71.5776C100.259 67.9055 98.9235 63.0096 98.9235 56.8895C98.9235 50.7696 100.259 45.8736 102.929 42.2015C105.674 38.5295 109.439 36.6935 114.223 36.6935C119.045 36.6935 122.791 38.5295 125.462 42.2015C128.17 45.8365 129.523 50.7325 129.523 56.8895C129.523 63.0466 128.17 67.9426 125.462 71.5776ZM114.223 70.8543C117.117 70.8543 119.323 69.6488 120.844 67.2379C122.365 64.827 123.125 61.3775 123.125 56.8895C123.125 52.4016 122.365 48.9521 120.844 46.5412C119.323 44.1303 117.117 42.9248 114.223 42.9248C111.367 42.9248 109.161 44.1303 107.603 46.5412C106.082 48.9521 105.322 52.4016 105.322 56.8895C105.322 61.3775 106.082 64.827 107.603 67.2379C109.161 69.6488 111.367 70.8543 114.223 70.8543ZM131.379 41.0332L141.616 37.4168H147.18V76.3623H140.782V44.2601L132.937 46.4855L131.379 41.0332ZM152.08 41.0332L162.317 37.4168H167.88V76.3623H161.482V44.2601L153.637 46.4855L152.08 41.0332ZM200.821 71.5776C198.151 75.2496 194.405 77.0856 189.583 77.0856C184.798 77.0856 181.033 75.2496 178.289 71.5776C175.618 67.9055 174.283 63.0096 174.283 56.8895C174.283 50.7696 175.618 45.8736 178.289 42.2015C181.033 38.5295 184.798 36.6935 189.583 36.6935C194.405 36.6935 198.151 38.5295 200.821 42.2015C203.529 45.8365 204.883 50.7325 204.883 56.8895C204.883 63.0466 203.529 67.9426 200.821 71.5776ZM189.583 70.8543C192.476 70.8543 194.683 69.6488 196.204 67.2379C197.724 64.827 198.485 61.3775 198.485 56.8895C198.485 52.4016 197.724 48.9521 196.204 46.5412C194.683 44.1303 192.476 42.9248 189.583 42.9248C186.727 42.9248 184.52 44.1303 182.962 46.5412C181.441 48.9521 180.681 52.4016 180.681 56.8895C180.681 61.3775 181.441 64.827 182.962 67.2379C184.52 69.6488 186.727 70.8543 189.583 70.8543ZM206.738 41.0332L216.975 37.4168H222.539V76.3623H216.141V44.2601L208.296 46.4855L206.738 41.0332ZM255.48 71.5776C252.809 75.2496 249.063 77.0856 244.241 77.0856C239.457 77.0856 235.692 75.2496 232.947 71.5776C230.277 67.9055 228.941 63.0096 228.941 56.8895C228.941 50.7696 230.277 45.8736 232.947 42.2015C235.692 38.5295 239.457 36.6935 244.241 36.6935C249.063 36.6935 252.809 38.5295 255.48 42.2015C258.187 45.8365 259.541 50.7325 259.541 56.8895C259.541 63.0466 258.187 67.9426 255.48 71.5776ZM244.241 70.8543C247.134 70.8543 249.341 69.6488 250.862 67.2379C252.383 64.827 253.143 61.3775 253.143 56.8895C253.143 52.4016 252.383 48.9521 250.862 46.5412C249.341 44.1303 247.134 42.9248 244.241 42.9248C241.385 42.9248 239.178 44.1303 237.621 46.5412C236.1 48.9521 235.339 52.4016 235.339 56.8895C235.339 61.3775 236.1 64.827 237.621 67.2379C239.178 69.6488 241.385 70.8543 244.241 70.8543ZM261.396 41.0332L271.633 37.4168H277.197V76.3623H270.799V44.2601L262.954 46.4855L261.396 41.0332ZM310.138 71.5776C307.468 75.2496 303.721 77.0856 298.9 77.0856C294.115 77.0856 290.35 75.2496 287.605 71.5776C284.935 67.9055 283.6 63.0096 283.6 56.8895C283.6 50.7696 284.935 45.8736 287.605 42.2015C290.35 38.5295 294.115 36.6935 298.9 36.6935C303.721 36.6935 307.468 38.5295 310.138 42.2015C312.846 45.8365 314.2 50.7325 314.2 56.8895C314.2 63.0466 312.846 67.9426 310.138 71.5776ZM298.9 70.8543C301.793 70.8543 304 69.6488 305.52 67.2379C307.041 64.827 307.801 61.3775 307.801 56.8895C307.801 52.4016 307.041 48.9521 305.52 46.5412C304 44.1303 301.793 42.9248 298.9 42.9248C296.044 42.9248 293.837 44.1303 292.279 46.5412C290.758 48.9521 289.998 52.4016 289.998 56.8895C289.998 61.3775 290.758 64.827 292.279 67.2379C293.837 69.6488 296.044 70.8543 298.9 70.8543ZM316.055 41.0332L326.292 37.4168H331.855V76.3623H325.457V44.2601L317.613 46.4855L316.055 41.0332ZM336.756 41.0332L346.993 37.4168H352.557V76.3623H346.158V44.2601L338.314 46.4855L336.756 41.0332ZM-48.0264 90.1241L-37.7893 86.5077H-32.2256V125.453H-38.6238V93.351L-46.4686 95.5765L-48.0264 90.1241ZM-27.3257 90.1241L-17.0886 86.5077H-11.525V125.453H-17.9232V93.351L-25.7679 95.5765L-27.3257 90.1241ZM21.4157 120.668C18.7451 124.34 14.9989 126.176 10.1771 126.176C5.39238 126.176 1.62764 124.34 -1.11708 120.668C-3.78763 116.996 -5.1229 112.1 -5.1229 105.98C-5.1229 99.8605 -3.78763 94.9645 -1.11708 91.2925C1.62764 87.6205 5.39238 85.7845 10.1771 85.7845C14.9989 85.7845 18.7451 87.6205 21.4157 91.2925C24.1233 94.9274 25.4771 99.8234 25.4771 105.98C25.4771 112.138 24.1233 117.034 21.4157 120.668ZM10.1771 119.945C13.0702 119.945 15.2771 118.74 16.7979 116.329C18.3186 113.918 19.0789 110.468 19.0789 105.98C19.0789 101.492 18.3186 98.043 16.7979 95.6321C15.2771 93.2212 13.0702 92.0157 10.1771 92.0157C7.32113 92.0157 5.11419 93.2212 3.55637 95.6321C2.03564 98.043 1.27528 101.492 1.27528 105.98C1.27528 110.468 2.03564 113.918 3.55637 116.329C5.11419 118.74 7.32113 119.945 10.1771 119.945ZM27.3327 90.1241L37.5697 86.5077H43.1334V125.453H36.7352V93.351L28.8905 95.5765L27.3327 90.1241ZM76.0738 120.668C73.4033 124.34 69.6571 126.176 64.8353 126.176C60.0506 126.176 56.2858 124.34 53.5413 120.668C50.8708 116.996 49.5355 112.1 49.5355 105.98C49.5355 99.8605 50.8708 94.9645 53.5413 91.2925C56.2858 87.6205 60.0506 85.7845 64.8353 85.7845C69.6571 85.7845 73.4033 87.6205 76.0738 91.2925C78.7815 94.9274 80.1353 99.8234 80.1353 105.98C80.1353 112.138 78.7815 117.034 76.0738 120.668ZM64.8353 119.945C67.7284 119.945 69.9353 118.74 71.456 116.329C72.9767 113.918 73.7371 110.468 73.7371 105.98C73.7371 101.492 72.9767 98.043 71.456 95.6321C69.9353 93.2212 67.7284 92.0157 64.8353 92.0157C61.9793 92.0157 59.7724 93.2212 58.2146 95.6321C56.6938 98.043 55.9335 101.492 55.9335 105.98C55.9335 110.468 56.6938 113.918 58.2146 116.329C59.7724 118.74 61.9793 119.945 64.8353 119.945ZM81.9909 90.1241L92.228 86.5077H97.7916V125.453H91.3935V93.351L83.5487 95.5765L81.9909 90.1241ZM130.732 120.668C128.062 124.34 124.315 126.176 119.494 126.176C114.709 126.176 110.944 124.34 108.199 120.668C105.529 116.996 104.194 112.1 104.194 105.98C104.194 99.8605 105.529 94.9645 108.199 91.2925C110.944 87.6205 114.709 85.7845 119.494 85.7845C124.315 85.7845 128.062 87.6205 130.732 91.2925C133.44 94.9274 134.794 99.8234 134.794 105.98C134.794 112.138 133.44 117.034 130.732 120.668ZM119.494 119.945C122.387 119.945 124.594 118.74 126.114 116.329C127.635 113.918 128.395 110.468 128.395 105.98C128.395 101.492 127.635 98.043 126.114 95.6321C124.594 93.2212 122.387 92.0157 119.494 92.0157C116.638 92.0157 114.431 93.2212 112.873 95.6321C111.352 98.043 110.592 101.492 110.592 105.98C110.592 110.468 111.352 113.918 112.873 116.329C114.431 118.74 116.638 119.945 119.494 119.945ZM136.649 90.1241L146.886 86.5077H152.45V125.453H146.052V93.351L138.207 95.5765L136.649 90.1241ZM185.391 120.668C182.72 124.34 178.974 126.176 174.152 126.176C169.367 126.176 165.603 124.34 162.858 120.668C160.187 116.996 158.852 112.1 158.852 105.98C158.852 99.8605 160.187 94.9645 162.858 91.2925C165.603 87.6205 169.367 85.7845 174.152 85.7845C178.974 85.7845 182.72 87.6205 185.391 91.2925C188.098 94.9274 189.452 99.8234 189.452 105.98C189.452 112.138 188.098 117.034 185.391 120.668ZM174.152 119.945C177.045 119.945 179.252 118.74 180.773 116.329C182.293 113.918 183.054 110.468 183.054 105.98C183.054 101.492 182.293 98.043 180.773 95.6321C179.252 93.2212 177.045 92.0157 174.152 92.0157C171.296 92.0157 169.089 93.2212 167.531 95.6321C166.011 98.043 165.25 101.492 165.25 105.98C165.25 110.468 166.011 113.918 167.531 116.329C169.089 118.74 171.296 119.945 174.152 119.945ZM191.308 90.1241L201.545 86.5077H207.108V125.453H200.71V93.351L192.865 95.5765L191.308 90.1241ZM240.049 120.668C237.379 124.34 233.633 126.176 228.811 126.176C224.026 126.176 220.261 124.34 217.517 120.668C214.846 116.996 213.51 112.1 213.51 105.98C213.51 99.8605 214.846 94.9645 217.517 91.2925C220.261 87.6205 224.026 85.7845 228.811 85.7845C233.633 85.7845 237.379 87.6205 240.049 91.2925C242.757 94.9274 244.111 99.8234 244.111 105.98C244.111 112.138 242.757 117.034 240.049 120.668ZM228.811 119.945C231.704 119.945 233.911 118.74 235.432 116.329C236.952 113.918 237.713 110.468 237.713 105.98C237.713 101.492 236.952 98.043 235.432 95.6321C233.911 93.2212 231.704 92.0157 228.811 92.0157C225.955 92.0157 223.748 93.2212 222.19 95.6321C220.669 98.043 219.909 101.492 219.909 105.98C219.909 110.468 220.669 113.918 222.19 116.329C223.748 118.74 225.955 119.945 228.811 119.945ZM245.966 90.1241L256.203 86.5077H261.767V125.453H255.369V93.351L247.524 95.5765L245.966 90.1241ZM266.667 90.1241L276.904 86.5077H282.468V125.453H276.07V93.351L268.225 95.5765L266.667 90.1241ZM287.368 90.1241L297.605 86.5077H303.168V125.453H296.77V93.351L288.926 95.5765L287.368 90.1241ZM308.068 90.1241L318.305 86.5077H323.869V125.453H317.471V93.351L309.626 95.5765L308.068 90.1241ZM356.81 120.668C354.139 124.34 350.393 126.176 345.571 126.176C340.786 126.176 337.021 124.34 334.277 120.668C331.606 116.996 330.271 112.1 330.271 105.98C330.271 99.8605 331.606 94.9645 334.277 91.2925C337.021 87.6205 340.786 85.7845 345.571 85.7845C350.393 85.7845 354.139 87.6205 356.81 91.2925C359.517 94.9274 360.871 99.8234 360.871 105.98C360.871 112.138 359.517 117.034 356.81 120.668ZM345.571 119.945C348.464 119.945 350.671 118.74 352.192 116.329C353.712 113.918 354.473 110.468 354.473 105.98C354.473 101.492 353.712 98.043 352.192 95.6321C350.671 93.2212 348.464 92.0157 345.571 92.0157C342.715 92.0157 340.508 93.2212 338.95 95.6321C337.43 98.043 336.669 101.492 336.669 105.98C336.669 110.468 337.43 113.918 338.95 116.329C340.508 118.74 342.715 119.945 345.571 119.945ZM-19.9856 169.759C-22.6562 173.431 -26.4024 175.267 -31.2242 175.267C-36.0089 175.267 -39.7736 173.431 -42.5184 169.759C-45.1889 166.087 -46.5242 161.191 -46.5242 155.071C-46.5242 148.951 -45.1889 144.055 -42.5184 140.383C-39.7736 136.711 -36.0089 134.875 -31.2242 134.875C-26.4024 134.875 -22.6562 136.711 -19.9856 140.383C-17.278 144.018 -15.9242 148.914 -15.9242 155.071C-15.9242 161.228 -17.278 166.124 -19.9856 169.759ZM-31.2242 169.036C-28.3311 169.036 -26.1242 167.831 -24.6035 165.42C-23.0827 163.009 -22.3224 159.559 -22.3224 155.071C-22.3224 150.583 -23.0827 147.134 -24.6035 144.723C-26.1242 142.312 -28.3311 141.107 -31.2242 141.107C-34.0802 141.107 -36.2871 142.312 -37.8449 144.723C-39.3656 147.134 -40.126 150.583 -40.126 155.071C-40.126 159.559 -39.3656 163.009 -37.8449 165.42C-36.2871 167.831 -34.0802 169.036 -31.2242 169.036ZM15.0588 169.759C12.3882 173.431 8.64206 175.267 3.82022 175.267C-0.964516 175.267 -4.72924 173.431 -7.47394 169.759C-10.1445 166.087 -11.4798 161.191 -11.4798 155.071C-11.4798 148.951 -10.1445 144.055 -7.47394 140.383C-4.72924 136.711 -0.964516 134.875 3.82022 134.875C8.64206 134.875 12.3882 136.711 15.0588 140.383C17.7664 144.018 19.1202 148.914 19.1202 155.071C19.1202 161.228 17.7664 166.124 15.0588 169.759ZM3.82022 169.036C6.71333 169.036 8.92024 167.831 10.441 165.42C11.9617 163.009 12.7221 159.559 12.7221 155.071C12.7221 150.583 11.9617 147.134 10.441 144.723C8.92024 142.312 6.71333 141.107 3.82022 141.107C0.964211 141.107 -1.2427 142.312 -2.80052 144.723C-4.32125 147.134 -5.08161 150.583 -5.08161 155.071C-5.08161 159.559 -4.32125 163.009 -2.80052 165.42C-1.2427 167.831 0.964211 169.036 3.82022 169.036ZM50.1031 169.759C47.4326 173.431 43.6864 175.267 38.8646 175.267C34.0799 175.267 30.3151 173.431 27.5704 169.759C24.8999 166.087 23.5646 161.191 23.5646 155.071C23.5646 148.951 24.8999 144.055 27.5704 140.383C30.3151 136.711 34.0799 134.875 38.8646 134.875C43.6864 134.875 47.4326 136.711 50.1031 140.383C52.8108 144.018 54.1646 148.914 54.1646 155.071C54.1646 161.228 52.8108 166.124 50.1031 169.759ZM38.8646 169.036C41.7577 169.036 43.9646 167.831 45.4853 165.42C47.0061 163.009 47.7664 159.559 47.7664 155.071C47.7664 150.583 47.0061 147.134 45.4853 144.723C43.9646 142.312 41.7577 141.107 38.8646 141.107C36.0086 141.107 33.8017 142.312 32.2439 144.723C30.7232 147.134 29.9628 150.583 29.9628 155.071C29.9628 159.559 30.7232 163.009 32.2439 165.42C33.8017 167.831 36.0086 169.036 38.8646 169.036ZM56.0202 139.215L66.2573 135.599H71.8209V174.544H65.4227V142.442L57.578 144.667L56.0202 139.215ZM104.761 169.759C102.091 173.431 98.3447 175.267 93.5229 175.267C88.7382 175.267 84.9735 173.431 82.2287 169.759C79.5582 166.087 78.2229 161.191 78.2229 155.071C78.2229 148.951 79.5582 144.055 82.2287 140.383C84.9735 136.711 88.7382 134.875 93.5229 134.875C98.3447 134.875 102.091 136.711 104.761 140.383C107.469 144.018 108.823 148.914 108.823 155.071C108.823 161.228 107.469 166.124 104.761 169.759ZM93.5229 169.036C96.416 169.036 98.6229 167.831 100.144 165.42C101.664 163.009 102.425 159.559 102.425 155.071C102.425 150.583 101.664 147.134 100.144 144.723C98.6229 142.312 96.416 141.107 93.5229 141.107C90.6669 141.107 88.46 142.312 86.9022 144.723C85.3815 147.134 84.6211 150.583 84.6211 155.071C84.6211 159.559 85.3815 163.009 86.9022 165.42C88.46 167.831 90.6669 169.036 93.5229 169.036ZM110.679 139.215L120.916 135.599H126.479V174.544H120.081V142.442L112.236 144.667L110.679 139.215ZM159.42 169.759C156.749 173.431 153.003 175.267 148.181 175.267C143.397 175.267 139.632 173.431 136.887 169.759C134.217 166.087 132.881 161.191 132.881 155.071C132.881 148.951 134.217 144.055 136.887 140.383C139.632 136.711 143.397 134.875 148.181 134.875C153.003 134.875 156.749 136.711 159.42 140.383C162.127 144.018 163.481 148.914 163.481 155.071C163.481 161.228 162.127 166.124 159.42 169.759ZM148.181 169.036C151.074 169.036 153.281 167.831 154.802 165.42C156.323 163.009 157.083 159.559 157.083 155.071C157.083 150.583 156.323 147.134 154.802 144.723C153.281 142.312 151.074 141.107 148.181 141.107C145.325 141.107 143.118 142.312 141.561 144.723C140.04 147.134 139.279 150.583 139.279 155.071C139.279 159.559 140.04 163.009 141.561 165.42C143.118 167.831 145.325 169.036 148.181 169.036ZM165.337 139.215L175.574 135.599H181.138V174.544H174.739V142.442L166.895 144.667L165.337 139.215ZM186.037 139.215L196.275 135.599H201.838V174.544H195.44V142.442L187.595 144.667L186.037 139.215ZM234.779 169.759C232.108 173.431 228.362 175.267 223.54 175.267C218.755 175.267 214.991 173.431 212.246 169.759C209.576 166.087 208.24 161.191 208.24 155.071C208.24 148.951 209.576 144.055 212.246 140.383C214.991 136.711 218.755 134.875 223.54 134.875C228.362 134.875 232.108 136.711 234.779 140.383C237.486 144.018 238.84 148.914 238.84 155.071C238.84 161.228 237.486 166.124 234.779 169.759ZM223.54 169.036C226.433 169.036 228.64 167.831 230.161 165.42C231.682 163.009 232.442 159.559 232.442 155.071C232.442 150.583 231.682 147.134 230.161 144.723C228.64 142.312 226.433 141.107 223.54 141.107C220.684 141.107 218.477 142.312 216.919 144.723C215.399 147.134 214.638 150.583 214.638 155.071C214.638 159.559 215.399 163.009 216.919 165.42C218.477 167.831 220.684 169.036 223.54 169.036ZM269.823 169.759C267.153 173.431 263.406 175.267 258.585 175.267C253.8 175.267 250.035 173.431 247.29 169.759C244.62 166.087 243.285 161.191 243.285 155.071C243.285 148.951 244.62 144.055 247.29 140.383C250.035 136.711 253.8 134.875 258.585 134.875C263.406 134.875 267.153 136.711 269.823 140.383C272.531 144.018 273.885 148.914 273.885 155.071C273.885 161.228 272.531 166.124 269.823 169.759ZM258.585 169.036C261.478 169.036 263.685 167.831 265.205 165.42C266.726 163.009 267.486 159.559 267.486 155.071C267.486 150.583 266.726 147.134 265.205 144.723C263.685 142.312 261.478 141.107 258.585 141.107C255.729 141.107 253.522 142.312 251.964 144.723C250.443 147.134 249.683 150.583 249.683 155.071C249.683 159.559 250.443 163.009 251.964 165.42C253.522 167.831 255.729 169.036 258.585 169.036ZM275.74 139.215L285.977 135.599H291.541V174.544H285.143V142.442L277.298 144.667L275.74 139.215ZM296.441 139.215L306.678 135.599H312.241V174.544H305.843V142.442L297.999 144.667L296.441 139.215ZM317.142 139.215L327.379 135.599H332.943V174.544H326.544V142.442L318.7 144.667L317.142 139.215ZM337.842 139.215L348.079 135.599H353.643V174.544H347.245V142.442L339.4 144.667L337.842 139.215ZM-48.0264 188.306L-37.7893 184.69H-32.2256V223.635H-38.6238V191.533L-46.4686 193.758L-48.0264 188.306ZM0.715008 218.85C-1.95554 222.522 -5.70171 224.358 -10.5235 224.358C-15.3083 224.358 -19.073 222.522 -21.8177 218.85C-24.4883 215.178 -25.8235 210.282 -25.8235 204.162C-25.8235 198.042 -24.4883 193.146 -21.8177 189.474C-19.073 185.802 -15.3083 183.966 -10.5235 183.966C-5.70171 183.966 -1.95554 185.802 0.715008 189.474C3.42265 193.109 4.77646 198.005 4.77646 204.162C4.77646 210.319 3.42265 215.215 0.715008 218.85ZM-10.5235 218.127C-7.63044 218.127 -5.42353 216.922 -3.90281 214.511C-2.38208 212.1 -1.62172 208.65 -1.62172 204.162C-1.62172 199.674 -2.38208 196.225 -3.90281 193.814C-5.42353 191.403 -7.63044 190.198 -10.5235 190.198C-13.3795 190.198 -15.5864 191.403 -17.1443 193.814C-18.665 196.225 -19.4253 199.674 -19.4253 204.162C-19.4253 208.65 -18.665 212.1 -17.1443 214.511C-15.5864 216.922 -13.3795 218.127 -10.5235 218.127ZM6.632 188.306L16.8691 184.69H22.4327V223.635H16.0345V191.533L8.18982 193.758L6.632 188.306ZM55.3733 218.85C52.7028 222.522 48.9567 224.358 44.1348 224.358C39.3501 224.358 35.5854 222.522 32.8407 218.85C30.1701 215.178 28.8348 210.282 28.8348 204.162C28.8348 198.042 30.1701 193.146 32.8407 189.474C35.5854 185.802 39.3501 183.966 44.1348 183.966C48.9567 183.966 52.7028 185.802 55.3733 189.474C58.0809 193.109 59.4347 198.005 59.4347 204.162C59.4347 210.319 58.0809 215.215 55.3733 218.85ZM44.1348 218.127C47.0279 218.127 49.2348 216.922 50.7556 214.511C52.2763 212.1 53.0367 208.65 53.0367 204.162C53.0367 199.674 52.2763 196.225 50.7556 193.814C49.2348 191.403 47.0279 190.198 44.1348 190.198C41.2788 190.198 39.0719 191.403 37.5141 193.814C35.9934 196.225 35.233 199.674 35.233 204.162C35.233 208.65 35.9934 212.1 37.5141 214.511C39.0719 216.922 41.2788 218.127 44.1348 218.127ZM90.4176 218.85C87.7471 222.522 84.0009 224.358 79.1791 224.358C74.3944 224.358 70.6296 222.522 67.8849 218.85C65.2144 215.178 63.8791 210.282 63.8791 204.162C63.8791 198.042 65.2144 193.146 67.8849 189.474C70.6296 185.802 74.3944 183.966 79.1791 183.966C84.0009 183.966 87.7471 185.802 90.4176 189.474C93.1253 193.109 94.4791 198.005 94.4791 204.162C94.4791 210.319 93.1253 215.215 90.4176 218.85ZM79.1791 218.127C82.0722 218.127 84.2791 216.922 85.7998 214.511C87.3206 212.1 88.0809 208.65 88.0809 204.162C88.0809 199.674 87.3206 196.225 85.7998 193.814C84.2791 191.403 82.0722 190.198 79.1791 190.198C76.3231 190.198 74.1162 191.403 72.5584 193.814C71.0377 196.225 70.2773 199.674 70.2773 204.162C70.2773 208.65 71.0377 212.1 72.5584 214.511C74.1162 216.922 76.3231 218.127 79.1791 218.127ZM96.3347 188.306L106.572 184.69H112.135V223.635H105.737V191.533L97.8926 193.758L96.3347 188.306ZM117.035 188.306L127.272 184.69H132.836V223.635H126.438V191.533L118.593 193.758L117.035 188.306ZM137.736 188.306L147.973 184.69H153.537V223.635H147.138V191.533L139.294 193.758L137.736 188.306ZM186.478 218.85C183.807 222.522 180.061 224.358 175.239 224.358C170.454 224.358 166.69 222.522 163.945 218.85C161.274 215.178 159.939 210.282 159.939 204.162C159.939 198.042 161.274 193.146 163.945 189.474C166.69 185.802 170.454 183.966 175.239 183.966C180.061 183.966 183.807 185.802 186.478 189.474C189.185 193.109 190.539 198.005 190.539 204.162C190.539 210.319 189.185 215.215 186.478 218.85ZM175.239 218.127C178.132 218.127 180.339 216.922 181.86 214.511C183.381 212.1 184.141 208.65 184.141 204.162C184.141 199.674 183.381 196.225 181.86 193.814C180.339 191.403 178.132 190.198 175.239 190.198C172.383 190.198 170.176 191.403 168.618 193.814C167.098 196.225 166.337 199.674 166.337 204.162C166.337 208.65 167.098 212.1 168.618 214.511C170.176 216.922 172.383 218.127 175.239 218.127ZM192.395 188.306L202.632 184.69H208.195V223.635H201.797V191.533L193.953 193.758L192.395 188.306ZM241.136 218.85C238.465 222.522 234.719 224.358 229.897 224.358C225.113 224.358 221.348 222.522 218.603 218.85C215.933 215.178 214.597 210.282 214.597 204.162C214.597 198.042 215.933 193.146 218.603 189.474C221.348 185.802 225.113 183.966 229.897 183.966C234.719 183.966 238.465 185.802 241.136 189.474C243.844 193.109 245.197 198.005 245.197 204.162C245.197 210.319 243.844 215.215 241.136 218.85ZM229.897 218.127C232.791 218.127 234.997 216.922 236.518 214.511C238.039 212.1 238.799 208.65 238.799 204.162C238.799 199.674 238.039 196.225 236.518 193.814C234.997 191.403 232.791 190.198 229.897 190.198C227.041 190.198 224.835 191.403 223.277 193.814C221.756 196.225 220.996 199.674 220.996 204.162C220.996 208.65 221.756 212.1 223.277 214.511C224.835 216.922 227.041 218.127 229.897 218.127ZM247.053 188.306L257.29 184.69H262.854V223.635H256.456V191.533L248.611 193.758L247.053 188.306ZM295.794 218.85C293.124 222.522 289.378 224.358 284.556 224.358C279.771 224.358 276.006 222.522 273.262 218.85C270.591 215.178 269.256 210.282 269.256 204.162C269.256 198.042 270.591 193.146 273.262 189.474C276.006 185.802 279.771 183.966 284.556 183.966C289.378 183.966 293.124 185.802 295.794 189.474C298.502 193.109 299.856 198.005 299.856 204.162C299.856 210.319 298.502 215.215 295.794 218.85ZM284.556 218.127C287.449 218.127 289.656 216.922 291.177 214.511C292.697 212.1 293.458 208.65 293.458 204.162C293.458 199.674 292.697 196.225 291.177 193.814C289.656 191.403 287.449 190.198 284.556 190.198C281.7 190.198 279.493 191.403 277.935 193.814C276.414 196.225 275.654 199.674 275.654 204.162C275.654 208.65 276.414 212.1 277.935 214.511C279.493 216.922 281.7 218.127 284.556 218.127ZM301.711 188.306L311.949 184.69H317.512V223.635H311.114V191.533L303.269 193.758L301.711 188.306ZM350.453 218.85C347.782 222.522 344.036 224.358 339.214 224.358C334.43 224.358 330.665 222.522 327.92 218.85C325.249 215.178 323.914 210.282 323.914 204.162C323.914 198.042 325.249 193.146 327.92 189.474C330.665 185.802 334.43 183.966 339.214 183.966C344.036 183.966 347.782 185.802 350.453 189.474C353.16 193.109 354.514 198.005 354.514 204.162C354.514 210.319 353.16 215.215 350.453 218.85ZM339.214 218.127C342.107 218.127 344.314 216.922 345.835 214.511C347.356 212.1 348.116 208.65 348.116 204.162C348.116 199.674 347.356 196.225 345.835 193.814C344.314 191.403 342.107 190.198 339.214 190.198C336.358 190.198 334.151 191.403 332.593 193.814C331.073 196.225 330.312 199.674 330.312 204.162C330.312 208.65 331.073 212.1 332.593 214.511C334.151 216.922 336.358 218.127 339.214 218.127ZM-19.9856 267.941C-22.6562 271.613 -26.4024 273.449 -31.2242 273.449C-36.0089 273.449 -39.7736 271.613 -42.5184 267.941C-45.1889 264.269 -46.5242 259.373 -46.5242 253.253C-46.5242 247.133 -45.1889 242.237 -42.5184 238.565C-39.7736 234.893 -36.0089 233.057 -31.2242 233.057C-26.4024 233.057 -22.6562 234.893 -19.9856 238.565C-17.278 242.2 -15.9242 247.096 -15.9242 253.253C-15.9242 259.41 -17.278 264.306 -19.9856 267.941ZM-31.2242 267.218C-28.3311 267.218 -26.1242 266.012 -24.6035 263.602C-23.0827 261.191 -22.3224 257.741 -22.3224 253.253C-22.3224 248.765 -23.0827 245.316 -24.6035 242.905C-26.1242 240.494 -28.3311 239.288 -31.2242 239.288C-34.0802 239.288 -36.2871 240.494 -37.8449 242.905C-39.3656 245.316 -40.126 248.765 -40.126 253.253C-40.126 257.741 -39.3656 261.191 -37.8449 263.602C-36.2871 266.012 -34.0802 267.218 -31.2242 267.218ZM15.0588 267.941C12.3882 271.613 8.64206 273.449 3.82022 273.449C-0.964516 273.449 -4.72924 271.613 -7.47394 267.941C-10.1445 264.269 -11.4798 259.373 -11.4798 253.253C-11.4798 247.133 -10.1445 242.237 -7.47394 238.565C-4.72924 234.893 -0.964516 233.057 3.82022 233.057C8.64206 233.057 12.3882 234.893 15.0588 238.565C17.7664 242.2 19.1202 247.096 19.1202 253.253C19.1202 259.41 17.7664 264.306 15.0588 267.941ZM3.82022 267.218C6.71333 267.218 8.92024 266.012 10.441 263.602C11.9617 261.191 12.7221 257.741 12.7221 253.253C12.7221 248.765 11.9617 245.316 10.441 242.905C8.92024 240.494 6.71333 239.288 3.82022 239.288C0.964211 239.288 -1.2427 240.494 -2.80052 242.905C-4.32125 245.316 -5.08161 248.765 -5.08161 253.253C-5.08161 257.741 -4.32125 261.191 -2.80052 263.602C-1.2427 266.012 0.964211 267.218 3.82022 267.218ZM50.1031 267.941C47.4326 271.613 43.6864 273.449 38.8646 273.449C34.0799 273.449 30.3151 271.613 27.5704 267.941C24.8999 264.269 23.5646 259.373 23.5646 253.253C23.5646 247.133 24.8999 242.237 27.5704 238.565C30.3151 234.893 34.0799 233.057 38.8646 233.057C43.6864 233.057 47.4326 234.893 50.1031 238.565C52.8108 242.2 54.1646 247.096 54.1646 253.253C54.1646 259.41 52.8108 264.306 50.1031 267.941ZM38.8646 267.218C41.7577 267.218 43.9646 266.012 45.4853 263.602C47.0061 261.191 47.7664 257.741 47.7664 253.253C47.7664 248.765 47.0061 245.316 45.4853 242.905C43.9646 240.494 41.7577 239.288 38.8646 239.288C36.0086 239.288 33.8017 240.494 32.2439 242.905C30.7232 245.316 29.9628 248.765 29.9628 253.253C29.9628 257.741 30.7232 261.191 32.2439 263.602C33.8017 266.012 36.0086 267.218 38.8646 267.218ZM56.0202 237.397L66.2573 233.78H71.8209V272.726H65.4227V240.624L57.578 242.849L56.0202 237.397ZM76.7207 237.397L86.9578 233.78H92.5215V272.726H86.1233V240.624L78.2785 242.849L76.7207 237.397ZM125.462 267.941C122.791 271.613 119.045 273.449 114.223 273.449C109.439 273.449 105.674 271.613 102.929 267.941C100.259 264.269 98.9235 259.373 98.9235 253.253C98.9235 247.133 100.259 242.237 102.929 238.565C105.674 234.893 109.439 233.057 114.223 233.057C119.045 233.057 122.791 234.893 125.462 238.565C128.17 242.2 129.523 247.096 129.523 253.253C129.523 259.41 128.17 264.306 125.462 267.941ZM114.223 267.218C117.117 267.218 119.323 266.012 120.844 263.602C122.365 261.191 123.125 257.741 123.125 253.253C123.125 248.765 122.365 245.316 120.844 242.905C119.323 240.494 117.117 239.288 114.223 239.288C111.367 239.288 109.161 240.494 107.603 242.905C106.082 245.316 105.322 248.765 105.322 253.253C105.322 257.741 106.082 261.191 107.603 263.602C109.161 266.012 111.367 267.218 114.223 267.218ZM131.379 237.397L141.616 233.78H147.18V272.726H140.782V240.624L132.937 242.849L131.379 237.397ZM152.08 237.397L162.317 233.78H167.88V272.726H161.482V240.624L153.637 242.849L152.08 237.397ZM200.821 267.941C198.151 271.613 194.405 273.449 189.583 273.449C184.798 273.449 181.033 271.613 178.289 267.941C175.618 264.269 174.283 259.373 174.283 253.253C174.283 247.133 175.618 242.237 178.289 238.565C181.033 234.893 184.798 233.057 189.583 233.057C194.405 233.057 198.151 234.893 200.821 238.565C203.529 242.2 204.883 247.096 204.883 253.253C204.883 259.41 203.529 264.306 200.821 267.941ZM189.583 267.218C192.476 267.218 194.683 266.012 196.204 263.602C197.724 261.191 198.485 257.741 198.485 253.253C198.485 248.765 197.724 245.316 196.204 242.905C194.683 240.494 192.476 239.288 189.583 239.288C186.727 239.288 184.52 240.494 182.962 242.905C181.441 245.316 180.681 248.765 180.681 253.253C180.681 257.741 181.441 261.191 182.962 263.602C184.52 266.012 186.727 267.218 189.583 267.218ZM206.738 237.397L216.975 233.78H222.539V272.726H216.141V240.624L208.296 242.849L206.738 237.397ZM255.48 267.941C252.809 271.613 249.063 273.449 244.241 273.449C239.457 273.449 235.692 271.613 232.947 267.941C230.277 264.269 228.941 259.373 228.941 253.253C228.941 247.133 230.277 242.237 232.947 238.565C235.692 234.893 239.457 233.057 244.241 233.057C249.063 233.057 252.809 234.893 255.48 238.565C258.187 242.2 259.541 247.096 259.541 253.253C259.541 259.41 258.187 264.306 255.48 267.941ZM244.241 267.218C247.134 267.218 249.341 266.012 250.862 263.602C252.383 261.191 253.143 257.741 253.143 253.253C253.143 248.765 252.383 245.316 250.862 242.905C249.341 240.494 247.134 239.288 244.241 239.288C241.385 239.288 239.178 240.494 237.621 242.905C236.1 245.316 235.339 248.765 235.339 253.253C235.339 257.741 236.1 261.191 237.621 263.602C239.178 266.012 241.385 267.218 244.241 267.218ZM261.396 237.397L271.633 233.78H277.197V272.726H270.799V240.624L262.954 242.849L261.396 237.397ZM310.138 267.941C307.468 271.613 303.721 273.449 298.9 273.449C294.115 273.449 290.35 271.613 287.605 267.941C284.935 264.269 283.6 259.373 283.6 253.253C283.6 247.133 284.935 242.237 287.605 238.565C290.35 234.893 294.115 233.057 298.9 233.057C303.721 233.057 307.468 234.893 310.138 238.565C312.846 242.2 314.2 247.096 314.2 253.253C314.2 259.41 312.846 264.306 310.138 267.941ZM298.9 267.218C301.793 267.218 304 266.012 305.52 263.602C307.041 261.191 307.801 257.741 307.801 253.253C307.801 248.765 307.041 245.316 305.52 242.905C304 240.494 301.793 239.288 298.9 239.288C296.044 239.288 293.837 240.494 292.279 242.905C290.758 245.316 289.998 248.765 289.998 253.253C289.998 257.741 290.758 261.191 292.279 263.602C293.837 266.012 296.044 267.218 298.9 267.218ZM316.055 237.397L326.292 233.78H331.855V272.726H325.457V240.624L317.613 242.849L316.055 237.397ZM336.756 237.397L346.993 233.78H352.557V272.726H346.158V240.624L338.314 242.849L336.756 237.397ZM-48.0264 286.488L-37.7893 282.871H-32.2256V321.817H-38.6238V289.715L-46.4686 291.94L-48.0264 286.488ZM-27.3257 286.488L-17.0886 282.871H-11.525V321.817H-17.9232V289.715L-25.7679 291.94L-27.3257 286.488ZM21.4157 317.032C18.7451 320.704 14.9989 322.54 10.1771 322.54C5.39238 322.54 1.62764 320.704 -1.11708 317.032C-3.78763 313.36 -5.1229 308.464 -5.1229 302.344C-5.1229 296.224 -3.78763 291.328 -1.11708 287.656C1.62764 283.984 5.39238 282.148 10.1771 282.148C14.9989 282.148 18.7451 283.984 21.4157 287.656C24.1233 291.291 25.4771 296.187 25.4771 302.344C25.4771 308.501 24.1233 313.397 21.4157 317.032ZM10.1771 316.309C13.0702 316.309 15.2771 315.103 16.7979 312.692C18.3186 310.282 19.0789 306.832 19.0789 302.344C19.0789 297.856 18.3186 294.407 16.7979 291.996C15.2771 289.585 13.0702 288.379 10.1771 288.379C7.32113 288.379 5.11419 289.585 3.55637 291.996C2.03564 294.407 1.27528 297.856 1.27528 302.344C1.27528 306.832 2.03564 310.282 3.55637 312.692C5.11419 315.103 7.32113 316.309 10.1771 316.309ZM27.3327 286.488L37.5697 282.871H43.1334V321.817H36.7352V289.715L28.8905 291.94L27.3327 286.488ZM76.0738 317.032C73.4033 320.704 69.6571 322.54 64.8353 322.54C60.0506 322.54 56.2858 320.704 53.5413 317.032C50.8708 313.36 49.5355 308.464 49.5355 302.344C49.5355 296.224 50.8708 291.328 53.5413 287.656C56.2858 283.984 60.0506 282.148 64.8353 282.148C69.6571 282.148 73.4033 283.984 76.0738 287.656C78.7815 291.291 80.1353 296.187 80.1353 302.344C80.1353 308.501 78.7815 313.397 76.0738 317.032ZM64.8353 316.309C67.7284 316.309 69.9353 315.103 71.456 312.692C72.9767 310.282 73.7371 306.832 73.7371 302.344C73.7371 297.856 72.9767 294.407 71.456 291.996C69.9353 289.585 67.7284 288.379 64.8353 288.379C61.9793 288.379 59.7724 289.585 58.2146 291.996C56.6938 294.407 55.9335 297.856 55.9335 302.344C55.9335 306.832 56.6938 310.282 58.2146 312.692C59.7724 315.103 61.9793 316.309 64.8353 316.309ZM81.9909 286.488L92.228 282.871H97.7916V321.817H91.3935V289.715L83.5487 291.94L81.9909 286.488ZM130.732 317.032C128.062 320.704 124.315 322.54 119.494 322.54C114.709 322.54 110.944 320.704 108.199 317.032C105.529 313.36 104.194 308.464 104.194 302.344C104.194 296.224 105.529 291.328 108.199 287.656C110.944 283.984 114.709 282.148 119.494 282.148C124.315 282.148 128.062 283.984 130.732 287.656C133.44 291.291 134.794 296.187 134.794 302.344C134.794 308.501 133.44 313.397 130.732 317.032ZM119.494 316.309C122.387 316.309 124.594 315.103 126.114 312.692C127.635 310.282 128.395 306.832 128.395 302.344C128.395 297.856 127.635 294.407 126.114 291.996C124.594 289.585 122.387 288.379 119.494 288.379C116.638 288.379 114.431 289.585 112.873 291.996C111.352 294.407 110.592 297.856 110.592 302.344C110.592 306.832 111.352 310.282 112.873 312.692C114.431 315.103 116.638 316.309 119.494 316.309ZM136.649 286.488L146.886 282.871H152.45V321.817H146.052V289.715L138.207 291.94L136.649 286.488ZM185.391 317.032C182.72 320.704 178.974 322.54 174.152 322.54C169.367 322.54 165.603 320.704 162.858 317.032C160.187 313.36 158.852 308.464 158.852 302.344C158.852 296.224 160.187 291.328 162.858 287.656C165.603 283.984 169.367 282.148 174.152 282.148C178.974 282.148 182.72 283.984 185.391 287.656C188.098 291.291 189.452 296.187 189.452 302.344C189.452 308.501 188.098 313.397 185.391 317.032ZM174.152 316.309C177.045 316.309 179.252 315.103 180.773 312.692C182.293 310.282 183.054 306.832 183.054 302.344C183.054 297.856 182.293 294.407 180.773 291.996C179.252 289.585 177.045 288.379 174.152 288.379C171.296 288.379 169.089 289.585 167.531 291.996C166.011 294.407 165.25 297.856 165.25 302.344C165.25 306.832 166.011 310.282 167.531 312.692C169.089 315.103 171.296 316.309 174.152 316.309ZM191.308 286.488L201.545 282.871H207.108V321.817H200.71V289.715L192.865 291.94L191.308 286.488ZM240.049 317.032C237.379 320.704 233.633 322.54 228.811 322.54C224.026 322.54 220.261 320.704 217.517 317.032C214.846 313.36 213.51 308.464 213.51 302.344C213.51 296.224 214.846 291.328 217.517 287.656C220.261 283.984 224.026 282.148 228.811 282.148C233.633 282.148 237.379 283.984 240.049 287.656C242.757 291.291 244.111 296.187 244.111 302.344C244.111 308.501 242.757 313.397 240.049 317.032ZM228.811 316.309C231.704 316.309 233.911 315.103 235.432 312.692C236.952 310.282 237.713 306.832 237.713 302.344C237.713 297.856 236.952 294.407 235.432 291.996C233.911 289.585 231.704 288.379 228.811 288.379C225.955 288.379 223.748 289.585 222.19 291.996C220.669 294.407 219.909 297.856 219.909 302.344C219.909 306.832 220.669 310.282 222.19 312.692C223.748 315.103 225.955 316.309 228.811 316.309ZM245.966 286.488L256.203 282.871H261.767V321.817H255.369V289.715L247.524 291.94L245.966 286.488ZM266.667 286.488L276.904 282.871H282.468V321.817H276.07V289.715L268.225 291.94L266.667 286.488ZM287.368 286.488L297.605 282.871H303.168V321.817H296.77V289.715L288.926 291.94L287.368 286.488ZM308.068 286.488L318.305 282.871H323.869V321.817H317.471V289.715L309.626 291.94L308.068 286.488ZM356.81 317.032C354.139 320.704 350.393 322.54 345.571 322.54C340.786 322.54 337.021 320.704 334.277 317.032C331.606 313.36 330.271 308.464 330.271 302.344C330.271 296.224 331.606 291.328 334.277 287.656C337.021 283.984 340.786 282.148 345.571 282.148C350.393 282.148 354.139 283.984 356.81 287.656C359.517 291.291 360.871 296.187 360.871 302.344C360.871 308.501 359.517 313.397 356.81 317.032ZM345.571 316.309C348.464 316.309 350.671 315.103 352.192 312.692C353.712 310.282 354.473 306.832 354.473 302.344C354.473 297.856 353.712 294.407 352.192 291.996C350.671 289.585 348.464 288.379 345.571 288.379C342.715 288.379 340.508 289.585 338.95 291.996C337.43 294.407 336.669 297.856 336.669 302.344C336.669 306.832 337.43 310.282 338.95 312.692C340.508 315.103 342.715 316.309 345.571 316.309Z" fill="#0D72B9"/>
</g>
</g>
<defs>
<clipPath id="clip0_57_10325">
<rect width="300" height="300" fill="white"/>
</clipPath>
</defs>
</svg>
