<svg width="430" height="430" viewBox="0 0 430 430" fill="none" xmlns="http://www.w3.org/2000/svg">
<path d="M312.759 227.145V222.494L309.337 222.196C309.337 217.053 309.126 211.876 309.424 206.716C309.6 203.451 313.145 201.117 317.164 201.1H361.551C368.571 201.1 375.434 201.1 382.384 201.1C387.755 201.1 390.773 203.873 390.826 208.892C390.826 213.28 390.826 217.668 390.826 222.143L387.316 222.424C386.438 227.005 386.561 227.093 390.668 228.514C396.114 230.167 401.458 232.136 406.675 234.411C415.924 238.852 420.487 246.083 420.452 256.175C420.312 307.652 420.452 359.129 420.452 410.624C420.452 420.013 414.292 425.876 404.428 425.876H295.155C285.801 425.876 279.57 419.943 279.57 411.062C279.57 359.585 279.728 308.108 279.465 256.613C279.465 244.977 285.169 237.658 295.717 233.165C301.175 230.849 306.95 229.164 312.759 227.145ZM385.157 418.697H404.2C410.343 418.697 412.975 416.152 412.975 410.325V335.225C412.975 308.5 412.975 281.764 412.975 255.016C412.975 250.541 411.764 246.241 407.868 243.784C403.497 241.135 398.912 238.857 394.161 236.974C390.773 235.517 387.14 234.71 383.63 233.464C382.336 233.105 381.211 232.296 380.458 231.184C379.706 230.071 379.374 228.726 379.523 227.391C379.523 225.636 379.523 224.039 379.523 222.459H320.359V226.25C320.359 231.235 319.622 232.393 314.672 234.148C310.758 235.535 306.651 236.5 302.755 237.939C288.469 243.205 286.819 248.61 286.854 258.825C287.012 307.634 286.854 356.444 286.854 405.253C286.854 407.236 286.854 409.237 286.854 411.22C287.029 415.152 289.364 418.364 292.909 418.504C300.087 418.785 307.283 418.504 314.497 418.504V408.096H296.314V383.525H314.655V372.994H307.511V348.388H314.532V338.05H300.122V313.479H326.203L323.781 311.478C312.847 302.474 307.827 291.013 309.512 277.482C313.022 249.716 345.071 233.92 371.555 249.102C377.053 252.106 381.703 256.451 385.071 261.734C388.439 267.018 390.416 273.067 390.819 279.319C391.222 285.572 390.037 291.824 387.375 297.496C384.713 303.168 380.659 308.074 375.592 311.759C371.45 314.848 369.8 317.761 370.326 322.447C370.503 325.323 370.503 328.207 370.326 331.082H384.999V355.882H377.979V366.149H384.999V390.826H366.922V401.269H385.157V418.697ZM349.581 313.391C367.325 313.9 382.788 299.877 383.349 282.782C383.911 265.687 369.309 250.787 351.354 250.313C332.381 249.804 317.147 263.336 316.691 281.536C316.252 298.578 330.784 313.128 349.581 313.461V313.391ZM359.006 401.146V390.791H303.896V401.146H359.006ZM377.645 408.412H322.5V418.627H377.645V408.412ZM377.645 373.398H322.5V383.542H377.628L377.645 373.398ZM307.599 330.872H362.815V320.657H307.582L307.599 330.872ZM370.221 355.935H314.953V366.009H370.204L370.221 355.935ZM377.663 338.243H322.482V348.353H377.645L377.663 338.243ZM316.743 208.366V215.018H383.174V208.366H316.743Z" fill="#0D72B9"/>
<path d="M4.0542 201.24H167.051C167.051 204.908 167.051 208.436 167.051 211.964C167.051 230.831 166.945 249.681 166.77 268.548C166.77 270.865 167.314 271.69 169.929 271.672C181.583 271.532 193.237 271.672 204.891 271.672C213.929 271.672 222.968 271.515 232.024 271.462C238.606 271.462 241.256 273.989 241.256 280.237V396.285C241.256 402.112 238.589 404.744 232.481 404.762H167.051V425.683H4.0542V201.24ZM11.4958 208.366V418.627H159.328V404.762C154.502 404.762 149.868 404.762 145.287 404.762C140.706 404.762 137.372 401.919 137.249 397.355C137.249 394.6 137.249 391.827 137.249 389.071C137.249 363.798 137.249 338.53 137.249 313.268C137.249 301.948 137.249 290.61 137.249 279.272C137.249 274.182 140.215 271.409 145.551 271.357C147.306 271.357 149.201 271.357 151.026 271.357H159.363V208.366H11.4958ZM144.884 397.601H233.428V278.535H144.848L144.884 397.601Z" fill="#0D72B9"/>
<path d="M135.722 181.337L128.386 180.776C128.596 177.792 128.772 174.808 129.018 171.842C130.246 157.801 131.44 143.585 132.756 129.456C133.476 121.804 138.285 116.451 144.515 112.116C150.517 108.008 157.46 105.484 164.699 104.78C173.193 103.779 181.618 102.182 190.06 100.743C190.78 100.62 191.552 99.7075 191.973 98.9879C193.939 95.6005 193.254 93.2311 190.113 90.2124C185.83 86.1405 182.847 80.8577 179.02 75.7152L173.229 75.9609C172.631 65.8764 173.868 55.7672 176.879 46.1242C179.377 37.823 184.208 30.4148 190.797 24.7822C191.26 24.2065 191.503 23.4847 191.482 22.7463C191.729 17.8171 193.647 13.1189 196.92 9.42486C200.192 5.73085 204.625 3.26113 209.489 2.42217C221.775 -0.122726 234.341 8.28421 235.816 19.9732C236.056 22.459 237.221 24.764 239.08 26.432C241.865 28.7474 244.147 31.6084 245.785 34.8389C247.95 40.0093 249.471 45.4264 250.313 50.9683C252.524 65.6585 248.873 78.9271 238.027 90.072C237.754 90.4191 237.428 90.7211 237.062 90.9671C233.797 92.7222 233.99 95.0213 235.149 97.9875C235.341 98.785 235.788 99.4985 236.421 100.021C237.054 100.543 237.839 100.846 238.659 100.883C249.189 102.463 259.72 103.885 270.163 106.149C278.24 107.891 285.472 112.359 290.645 118.803C294.647 123.612 295.103 129.334 295.594 134.95C296.858 149.587 298.128 164.213 299.403 178.827C299.403 179.336 299.403 179.845 299.403 180.583L292.049 181.232C291.4 173.931 290.785 166.893 290.171 159.837C289.258 149.5 288.521 139.145 287.363 128.825C286.801 123.559 282.887 120.242 278.587 117.434C273.244 113.955 267.086 111.929 260.72 111.554C255.841 111.203 251.032 110.063 245.837 109.238C246.223 109.905 246.451 110.378 246.732 110.817C249.638 115.193 251.155 120.343 251.085 125.595C251.085 131.826 251.085 138.056 251.085 144.287C251.01 144.917 251.14 145.555 251.456 146.105C251.773 146.655 252.258 147.089 252.84 147.341C254.948 148.379 256.622 150.128 257.566 152.279C258.51 154.43 258.664 156.846 258 159.1C257.256 161.383 255.805 163.37 253.857 164.774C251.909 166.178 249.565 166.927 247.164 166.911C244.762 166.895 242.428 166.117 240.499 164.687C238.569 163.258 237.144 161.252 236.43 158.96C235.796 156.703 235.977 154.296 236.939 152.159C237.902 150.022 239.585 148.292 241.695 147.271C242.288 147.027 242.782 146.593 243.1 146.036C243.418 145.48 243.541 144.834 243.45 144.199C243.38 137.881 243.38 131.563 243.45 125.244C243.45 117.785 239.712 112.309 234.008 108.097C228.9 112.678 223.898 117.065 219.072 121.611C218.225 122.532 217.745 123.73 217.72 124.981C217.72 142.532 217.72 160.276 217.72 177.932V180.846H210.086V165.734C210.086 152.15 210.086 138.565 210.086 124.981C209.984 123.652 209.404 122.405 208.453 121.471C203.855 117.153 199.099 113.011 194.237 108.641C189.218 112.151 185.356 116.644 184.426 122.963C184.323 123.273 184.287 123.601 184.322 123.926C184.357 124.251 184.461 124.565 184.627 124.846C184.793 125.127 185.018 125.369 185.286 125.556C185.555 125.743 185.86 125.87 186.181 125.929C192.219 128.333 195.483 132.703 195.483 139.022C195.483 150.535 195.483 162.049 195.483 173.545C195.383 174.791 194.885 175.973 194.062 176.914C192.307 178.915 190.376 180.705 188.428 182.671L183.162 177.23C187.726 174.229 188.428 170.034 188.235 165.05C187.849 156.678 188.235 148.271 188.112 139.882C188.189 138.857 188.049 137.828 187.701 136.861C187.353 135.894 186.805 135.012 186.093 134.271C185.381 133.531 184.52 132.949 183.568 132.564C182.615 132.179 181.592 131.999 180.565 132.036C178.764 131.991 177.014 132.64 175.678 133.848C174.341 135.057 173.521 136.734 173.387 138.53C173.387 149.43 173.387 160.329 173.387 171.245C173.463 172.164 173.868 173.024 174.527 173.667C175.773 174.931 177.23 175.984 178.757 177.178L172.579 182.443C170.684 180.495 168.42 178.283 166.331 175.932C165.886 175.213 165.688 174.368 165.769 173.527C165.769 162.189 165.769 150.851 165.769 139.513C165.769 133.23 168.964 128.754 174.896 125.911C175.405 125.671 175.856 125.324 176.22 124.894C176.583 124.464 176.85 123.961 177.002 123.419C177.437 118.22 179.438 113.276 182.741 109.238C175.054 110.431 167.525 111.291 160.171 112.836C153.671 114.166 147.806 117.639 143.515 122.699C141.289 125.531 140.056 129.015 140.005 132.616C138.706 148.388 137.372 164.184 136.003 180.003C135.915 180.267 135.845 180.6 135.722 181.337ZM187.375 74.0479C188.48 76.0487 189.34 77.7687 190.376 79.3132C191.387 80.8651 192.507 82.3431 193.728 83.736C204.698 96.0218 221.81 96.4605 233.271 84.4732C241.59 75.6977 244.345 65.2548 243.222 53.7414C242.792 50.7061 242.207 47.695 241.467 44.7201L235.096 46.4752C227.398 48.2575 220.44 52.3772 215.176 58.2695C213.674 59.899 212.029 61.3909 210.261 62.7275C203.503 68.0526 195.708 71.9083 187.375 74.0479ZM180.635 68.1858C191.938 65.8867 201.837 61.6744 209.349 53.636C215.944 46.5678 224.5 41.6298 233.92 39.4548C235.675 39.0336 237.272 38.4193 239.712 37.6997C236.202 34.1895 233.446 30.8022 229.936 28.3275C226.775 25.9455 223.104 24.3294 219.212 23.6063C214.89 22.9405 210.474 23.2456 206.285 24.4994C202.095 25.7531 198.238 27.9242 194.992 30.8548C183.742 40.894 181.618 54.1977 180.635 68.1858ZM214.122 116.995C218.44 112.73 222.547 108.729 226.601 104.71C227.556 103.973 228.183 102.89 228.348 101.695C228.512 100.5 228.2 99.2881 227.479 98.3209C222.652 99.0405 218.177 100.269 213.719 100.234C209.146 99.8872 204.605 99.2008 200.134 98.1805C199.169 100.199 198.572 102.621 200.959 104.832C205.242 108.676 209.454 112.607 214.122 116.995ZM200.082 18.9728C208.843 15.3242 218.652 15.0801 227.584 18.2883C226.458 15.5225 224.516 13.1651 222.018 11.5295C219.519 9.89389 216.582 9.05765 213.596 9.13195C210.611 9.20625 207.719 10.1876 205.305 11.9454C202.891 13.7033 201.069 16.1544 200.082 18.9728ZM250.98 156.38C250.96 155.914 250.847 155.457 250.648 155.035C250.449 154.613 250.169 154.235 249.822 153.923C249.476 153.611 249.071 153.371 248.631 153.217C248.191 153.064 247.724 152.999 247.259 153.027C246.328 153.053 245.44 153.428 244.773 154.079C244.106 154.729 243.709 155.607 243.661 156.538C243.768 157.473 244.205 158.34 244.893 158.984C245.581 159.627 246.476 160.004 247.417 160.048C248.334 159.948 249.185 159.523 249.816 158.851C250.447 158.178 250.816 157.301 250.857 156.38H250.98Z" fill="#0D72B9"/>
<path d="M256.302 78.4C254.522 77.397 253.941 75.11 255.027 73.379V73.379C256.043 71.7593 258.152 71.2236 259.817 72.1622L421.651 163.362C423.847 164.6 424.365 167.535 422.725 169.449L397.574 198.802C396.309 200.278 394.111 200.509 392.567 199.328V199.328C390.897 198.05 390.643 195.632 392.01 194.036L411.476 171.31C413.116 169.396 412.597 166.46 410.401 165.223L256.302 78.4Z" fill="#5AC4B0"/>
<path d="M163.736 74.5611C165.412 73.6169 167.535 74.1615 168.55 75.7961V75.7961C169.627 77.5321 169.041 79.816 167.261 80.8187L17.3597 165.247C15.1668 166.482 14.6458 169.411 16.2772 171.327C21.7672 177.777 27.2055 184.182 32.7307 190.666C34.0778 192.247 33.8294 194.633 32.1849 195.902V195.902C30.6528 197.084 28.4633 196.857 27.2052 195.387L5.00718 169.45C3.36859 167.535 3.88737 164.6 6.08309 163.364L163.736 74.5611Z" fill="#5AC4B0"/>
<path d="M151.027 139.214C151.237 139.039 151.307 138.951 151.378 138.933C158.012 138.231 158.135 138.266 158.223 145.217C158.345 156.8 158.345 168.401 158.38 179.985C158.367 180.294 158.32 180.6 158.24 180.898H151.027V139.214Z" fill="#0D72B9"/>
<path d="M269.092 139.303L276.551 138.583C278.026 152.624 279.482 166.524 280.974 180.705L273.533 181.53C272.041 167.384 270.584 153.536 269.092 139.303Z" fill="#0D72B9"/>
<path d="M246.675 370.465C245.016 369.187 244.765 366.78 246.125 365.187L268.733 338.692C269.997 337.211 272.199 336.979 273.743 338.164V338.164C275.404 339.439 275.659 341.845 274.302 343.438C266.755 352.298 259.256 361.079 251.696 369.94C250.43 371.425 248.221 371.656 246.675 370.465V370.465Z" fill="#5AC4B0"/>
<path d="M393.835 418.769C389.031 418.729 385.157 414.824 385.157 410.019V410.019C385.157 405.187 381.24 401.269 376.407 401.269H372.143C369.259 401.269 366.922 398.931 366.922 396.048V396.048C366.922 393.164 369.259 390.826 372.143 390.826H376.004C381.02 390.826 385.087 386.76 385.087 381.744V369.66C385.087 367.721 383.515 366.15 381.577 366.15V366.15C379.638 366.15 378.066 364.578 378.066 362.639V359.392C378.066 357.454 379.638 355.882 381.577 355.882V355.882C383.515 355.882 385.087 354.311 385.087 352.372V338.194C385.087 334.266 381.903 331.083 377.976 331.083V331.083C373.877 331.083 370.661 327.619 370.472 323.525C370.456 323.166 370.436 322.807 370.414 322.448C369.835 317.761 371.485 314.848 375.68 311.759C380.747 308.074 384.8 303.168 387.463 297.496C390.125 291.825 391.31 285.572 390.907 279.319C390.504 273.067 388.527 267.018 385.159 261.735C381.79 256.451 377.141 252.106 371.643 249.102C345.158 233.92 313.057 249.716 309.6 277.482C307.845 291.014 312.935 302.474 323.869 311.478V311.478C324.685 312.153 324.208 313.479 323.149 313.479H307.044C303.221 313.479 300.122 316.578 300.122 320.401V330.784C300.122 334.797 303.376 338.05 307.389 338.05H309.486C312.341 338.05 314.655 340.365 314.655 343.219V344.878C314.655 346.816 313.083 348.388 311.144 348.388V348.388C309.206 348.388 307.634 349.959 307.634 351.898V369.651C307.634 371.624 309.233 373.223 311.206 373.223V373.223C313.178 373.223 314.778 374.822 314.778 376.794V378.488C314.778 381.396 312.42 383.753 309.512 383.753H305.546C300.447 383.753 296.314 387.886 296.314 392.985V399.189C296.314 404.235 300.404 408.325 305.449 408.325H309.381C312.255 408.325 314.584 410.654 314.584 413.529V413.529C314.584 416.403 312.255 418.734 309.381 418.76C303.909 418.809 298.448 418.892 292.997 418.732C289.486 418.592 287.117 415.38 286.942 411.449C286.854 409.465 286.942 407.465 286.942 405.481C286.942 356.672 287.047 307.863 286.942 259.053C286.942 248.839 288.556 243.433 302.843 238.167C306.739 236.728 310.846 235.763 314.76 234.376C319.709 232.621 320.429 231.463 320.446 226.479V226.479C320.446 224.385 322.144 222.688 324.237 222.688H374.697C377.42 222.688 379.629 224.896 379.629 227.619V227.619C379.48 228.955 379.811 230.299 380.564 231.412C381.316 232.525 382.441 233.333 383.735 233.692C387.246 234.956 390.914 235.763 394.266 237.202C399.017 239.085 403.603 241.363 407.973 244.012C411.87 246.539 413.081 250.769 413.081 255.245C413.081 281.981 413.081 308.717 413.081 335.453V410.483C413.081 416.31 410.431 418.838 404.305 418.855L393.835 418.769Z" fill="white"/>
<path d="M349.581 313.46C330.784 313.127 316.234 298.577 316.691 281.605C317.147 263.405 332.381 249.873 351.354 250.382C369.273 250.856 383.929 265.739 383.349 282.851C382.77 299.964 367.325 313.969 349.581 313.46ZM346.071 260.948C347.054 263.896 345.123 264.686 342.929 265.687C340.934 266.55 339.284 268.054 338.241 269.962C337.198 271.87 336.822 274.071 337.173 276.217C337.462 278.575 338.553 280.761 340.262 282.41C341.972 284.059 344.196 285.07 346.562 285.273C348.318 285.519 350.196 285.414 352.021 285.572C354.917 285.818 356.567 288.415 354.934 290.539C353.917 291.583 352.546 292.209 351.091 292.294C346.457 292.504 341.824 292.382 337.26 292.382V299.718H346.036C346.159 300.911 346.247 301.824 346.352 302.789H353.671C353.671 301.543 353.829 300.455 353.899 299.279C354.338 299.139 354.689 299.051 355.022 298.928C360.691 296.927 363.956 292.066 362.955 287.116C361.832 281.57 357.339 278.341 350.95 278.341C350.038 278.341 349.195 278.341 348.212 278.341C345.86 278.148 344.176 276.586 344.386 274.831C344.555 273.827 345.098 272.925 345.905 272.306C346.713 271.687 347.726 271.397 348.739 271.496C353.46 271.496 358.164 271.496 362.92 271.496V264.353H353.829C353.688 263.107 353.583 262.106 353.46 260.965L346.071 260.948Z" fill="#F2C94C"/>
<path d="M359.006 401.147H303.896V390.792H359.006V401.147Z" fill="#F2C94C"/>
<path d="M377.645 408.413V418.627H322.5V408.413H377.645Z" fill="#F2C94C"/>
<path d="M377.628 373.398V383.542H322.5V373.398H377.628Z" fill="#F2C94C"/>
<path d="M307.582 330.872V320.657H362.797V330.872H307.582Z" fill="#F2C94C"/>
<path d="M370.204 355.935V366.009H314.953V355.935H370.204Z" fill="#F2C94C"/>
<path d="M377.645 338.244V348.353H322.482V338.244H377.645Z" fill="#F2C94C"/>
<path d="M316.726 208.383H383.156V215.035H316.726V208.383Z" fill="white"/>
<path d="M11.4958 208.366H159.363V271.357H150.939C149.184 271.357 147.288 271.357 145.463 271.357C140.197 271.357 137.179 274.183 137.161 279.272C137.161 290.61 137.161 301.948 137.161 313.269C137.161 338.542 137.161 363.81 137.161 389.071C137.161 391.827 137.161 394.6 137.161 397.356C137.284 401.971 140.215 404.692 145.129 404.745C150.044 404.797 154.414 404.745 159.17 404.745V418.61H11.4958V208.366ZM129.877 317.095H26.3265V411.607H129.877V317.095ZM53.671 218.809C53.4627 218.941 53.2458 219.058 53.0216 219.16C52.7583 219.248 52.4775 219.248 52.2318 219.336C50.1763 219.936 48.349 221.141 46.9874 222.793C45.6258 224.446 44.793 226.47 44.5971 228.603C44.3859 230.681 44.862 232.771 45.9526 234.552C47.0431 236.334 48.6878 237.709 50.6346 238.466C53.2807 239.324 56.0335 239.808 58.8134 239.905C60.8493 240.081 62.4114 240.643 62.973 242.591C63.6399 244.907 61.8322 246.803 58.9187 246.838C54.1975 246.838 49.4763 246.838 44.7375 246.838V254.016H53.6008L53.9167 257.334H61.2003C61.5163 254.28 61.5163 254.28 64.4824 252.84C65.9919 252.174 67.3186 251.153 68.3499 249.865C69.3813 248.577 70.087 247.06 70.4074 245.441C70.7277 243.822 70.6531 242.15 70.19 240.566C69.7268 238.983 68.8888 237.534 67.7469 236.343C64.7807 233.148 60.9371 232.692 56.7775 232.832C53.9167 232.832 52.2142 231.621 52.1089 229.55C52.0036 227.479 53.7061 226.04 56.7424 225.9C58.2869 225.9 59.8314 225.9 61.3934 225.9H70.5024V218.756H61.5163L61.253 215.474H53.8465L53.671 218.809ZM111.221 271.585H26.3265V278.377H111.221V271.585ZM26.3265 306.301H111.238V299.649H26.3265V306.301ZM144.726 243.468H89.3346V250.225H144.673L144.726 243.468ZM144.726 215.246H89.2644V222.144H144.691L144.726 215.246ZM144.726 229.287H107.693V236.132H144.708L144.726 229.287ZM89.1942 264.231H126.051V257.474H89.1942V264.231ZM26.2036 292.313H63.0608V285.626H26.2036V292.313ZM111.186 292.313V285.608H92.8624V292.313H111.186ZM70.8183 285.485V292.295H85.3506V285.485H70.8183ZM89.2469 229.322V236.097H100.216V229.322H89.2469Z" fill="#F0F9FF"/>
<path d="M144.849 397.601V278.535H233.429V397.601H144.849ZM226.268 316.867V289.031H152.273V316.902L226.268 316.867ZM211.595 355.567H226.268V348.546H211.595V355.567ZM211.595 337.928H226.268V331.083H211.595V337.928ZM211.595 373.03H226.268V366.202H211.595V373.03ZM226.285 383.876H211.578V390.423H226.285V383.876ZM196.835 348.546V355.567H203.855V348.546H196.835ZM166.998 355.567H174.124V348.546H167.051L166.998 355.567ZM159.398 348.546H152.203V355.567H159.398V348.546ZM167.033 366.097V372.942H174.194V366.097H167.033ZM181.881 366.097V372.942H188.902V366.097H181.881ZM196.677 372.942H203.697V366.132H196.677V372.942ZM152.378 337.84H159.398V331.1C150.412 330.679 152.167 329.872 152.167 337.419C152.167 337.594 152.255 337.665 152.431 337.945L152.378 337.84ZM167.068 331.03V337.875H174.194V331.03H167.068ZM181.864 331.03V337.84H188.884V331.03H181.864ZM152.203 373.03H159.363V366.36H152.203V373.03ZM181.864 348.651V355.672H188.989V348.651H181.864ZM203.785 337.998V331.118H196.765V337.998H203.785ZM152.22 390.651H159.416V383.947H152.22V390.651ZM174.264 390.651V383.911H167.068V390.651H174.264ZM196.694 383.876V390.598H203.855V383.841L196.694 383.876ZM189.042 390.598V383.964H181.864V390.598H189.042Z" fill="#F9FDFF"/>
<path d="M187.375 74.0476C195.684 71.8989 203.454 68.0436 210.191 62.7272C211.959 61.3907 213.603 59.8987 215.105 58.2692C220.365 52.412 227.303 48.3182 234.973 46.5451L241.344 44.79C242.084 47.7649 242.67 50.776 243.099 53.8113C244.222 65.3247 241.467 75.8202 233.148 84.5431C221.722 96.5304 204.575 96.1443 193.605 83.806C192.384 82.413 191.264 80.935 190.253 79.3831C189.34 77.7684 188.48 76.0484 187.375 74.0476Z" fill="white"/>
<path d="M180.635 68.1856C181.618 54.1447 183.742 40.8937 195.009 30.8194C198.255 27.8888 202.113 25.7178 206.302 24.464C210.492 23.2102 214.908 22.9051 219.23 23.5709C223.109 24.2992 226.767 25.9151 229.918 28.2921C233.428 30.7668 236.184 34.2243 239.694 37.6643C237.255 38.419 235.605 39.0333 233.902 39.4194C224.483 41.5944 215.927 46.5324 209.331 53.6007C201.837 61.6741 191.938 65.8864 180.635 68.1856Z" fill="white"/>
<path d="M214.122 116.995C209.401 112.607 205.189 108.676 200.959 104.709C198.572 102.498 199.204 100.076 200.134 98.0576C204.605 99.0779 209.146 99.7642 213.719 100.111C218.177 100.111 222.652 98.9176 227.479 98.198C228.2 99.1652 228.512 100.377 228.348 101.572C228.183 102.767 227.556 103.85 226.601 104.587C222.6 108.816 218.493 112.73 214.122 116.995Z" fill="white"/>
<path d="M200.082 18.9723C201.069 16.1539 202.891 13.7028 205.305 11.945C207.719 10.1871 210.611 9.20581 213.596 9.13151C216.582 9.05721 219.519 9.89345 222.018 11.529C224.516 13.1646 226.458 15.5221 227.584 18.2879C218.652 15.0797 208.843 15.3238 200.082 18.9723Z" fill="white"/>
<path d="M250.857 156.379C250.797 157.299 250.411 158.168 249.767 158.828C249.123 159.487 248.265 159.895 247.346 159.977C246.406 159.933 245.511 159.556 244.823 158.913C244.135 158.27 243.698 157.403 243.591 156.467C243.639 155.537 244.036 154.658 244.703 154.008C245.37 153.357 246.257 152.982 247.189 152.957C247.655 152.936 248.122 153.008 248.56 153.169C248.999 153.331 249.401 153.578 249.742 153.897C250.084 154.216 250.358 154.599 250.55 155.026C250.741 155.452 250.845 155.912 250.857 156.379Z" fill="white"/>
<path d="M346.036 260.949H353.425C353.548 262.09 353.653 263.09 353.794 264.336H362.885V271.479C358.129 271.479 353.425 271.479 348.704 271.479C347.691 271.381 346.678 271.67 345.87 272.289C345.063 272.908 344.52 273.81 344.351 274.814C344.14 276.569 345.825 278.201 348.177 278.324C349.09 278.324 349.932 278.324 350.915 278.324C357.304 278.324 361.797 281.641 362.92 287.1C363.92 292.049 360.656 296.911 354.987 298.912C354.653 299.034 354.302 299.122 353.864 299.263C353.864 300.351 353.723 301.439 353.636 302.773H346.317C346.211 301.808 346.124 300.895 346.001 299.701H337.225V292.365C341.789 292.365 346.422 292.488 351.056 292.277C352.511 292.192 353.882 291.566 354.899 290.522C356.531 288.399 354.899 285.801 351.986 285.555C350.231 285.397 348.335 285.555 346.527 285.257C344.161 285.053 341.937 284.042 340.227 282.393C338.518 280.744 337.427 278.558 337.138 276.201C336.787 274.055 337.163 271.853 338.206 269.946C339.249 268.038 340.899 266.533 342.894 265.67C345.088 264.687 347.019 263.897 346.036 260.949Z" fill="white"/>
<path d="M129.877 317.094V411.606H26.3264V317.094H129.877ZM122.19 404.569V389.194H107.851V404.569H122.19ZM107.833 337.875H122.26V324.22H107.833V337.875ZM44.4215 404.569V389.194H33.6803V404.569H44.4215ZM52.1791 404.569H62.9203V389.229H52.1791V404.569ZM81.4542 404.569V389.194H70.9236V404.569H81.4542ZM89.3697 389.159V404.516H100.041V389.159H89.3697ZM62.8676 337.927V324.325H52.337V337.927H62.8676ZM81.577 337.927V324.255H70.8709V337.927H81.577ZM89.4048 324.22V337.875H100.041V324.22H89.4048ZM33.7329 324.22V337.945H44.404V324.22H33.7329ZM122.225 345.281C117.767 345.281 113.573 345.281 109.395 345.281C109.024 345.35 108.677 345.511 108.385 345.751C108.093 345.99 107.867 346.299 107.728 346.65C107.553 348.949 107.728 351.249 107.728 353.671H122.295L122.225 345.281ZM122.225 361.288H107.798V367.694H122.225V361.288ZM107.763 381.664H122.208V375.206H107.763V381.664ZM62.9554 345.299H52.2668V353.548H62.9554V345.299ZM81.5419 345.299H70.8885V353.53H81.5419V345.299ZM44.4391 345.299H33.6627V353.495H44.4391V345.299ZM100.164 353.565V345.229H89.5101V353.565H100.164ZM89.3521 367.466H100.128V361.024H89.3521V367.466ZM44.404 367.606V361.024H33.6978V367.606H44.404ZM44.404 375.048H33.6803V381.559H44.4391L44.404 375.048ZM52.1791 381.612H62.9027V375.03H52.2142L52.1791 381.612ZM81.5595 375.048H70.8534V381.559H81.5946L81.5595 375.048ZM52.2668 361.007V367.589H62.9027V361.007H52.2668ZM70.8358 361.007V367.659H81.3664V361.024L70.8358 361.007ZM89.3697 375.135V381.647H100.093V375.135H89.3697Z" fill="#0D72B9"/>
<path d="M53.6709 218.72L53.8464 215.333H61.253L61.5162 218.615H70.5023V225.758H61.4285C59.8664 225.758 58.3219 225.758 56.7774 225.758C53.7411 225.846 52.0211 227.233 52.144 229.409C52.2668 231.585 53.8991 232.761 56.8125 232.691C60.9721 232.586 64.8158 233.042 67.7819 236.201C68.9239 237.392 69.7619 238.841 70.225 240.425C70.6881 242.009 70.7627 243.681 70.4424 245.3C70.1221 246.918 69.4164 248.436 68.385 249.724C67.3536 251.012 66.027 252.033 64.5174 252.699C61.5513 254.138 61.5513 254.138 61.2354 257.192H53.9166L53.6007 253.875H44.7374V246.697C49.4762 246.697 54.1974 246.697 58.9187 246.697C61.8321 246.697 63.6399 244.766 62.973 242.449C62.4113 240.501 60.8493 239.94 58.8134 239.764C56.0335 239.667 53.2807 239.182 50.6346 238.325C48.6878 237.568 47.0431 236.193 45.9525 234.411C44.862 232.629 44.3858 230.539 44.597 228.461C44.7929 226.329 45.6258 224.305 46.9874 222.652C48.349 220.999 50.1763 219.795 52.2317 219.194C52.4774 219.194 52.7583 219.194 53.0215 219.019C53.2443 218.934 53.4613 218.834 53.6709 218.72Z" fill="#0D72B9"/>
<path d="M111.221 271.497V278.289H26.3264V271.497H111.221Z" fill="#0D72B9"/>
<path d="M26.3264 306.3V299.648H111.238V306.3H26.3264Z" fill="#0D72B9"/>
<path d="M144.673 243.468V250.225H89.3347V243.468H144.673Z" fill="#0D72B9"/>
<path d="M144.691 215.246V222.144H89.2644V215.246H144.691Z" fill="#0D72B9"/>
<path d="M144.708 229.339V236.184H107.693V229.339H144.708Z" fill="#0D72B9"/>
<path d="M89.1943 264.231V257.474H126.051V264.231H89.1943Z" fill="#0D72B9"/>
<path d="M26.2036 292.295V285.608H63.0608V292.295H26.2036Z" fill="#0D72B9"/>
<path d="M111.186 292.312H92.8625V285.608H111.186V292.312Z" fill="#0D72B9"/>
<path d="M70.8359 285.485H85.3682V292.295H70.8359V285.485Z" fill="#0D72B9"/>
<path d="M89.2644 229.357H100.216V236.132H89.2644V229.357Z" fill="#0D72B9"/>
<path d="M226.268 316.901H152.273V289.03H226.268V316.901ZM218.738 296.209H159.714V309.811H218.721L218.738 296.209Z" fill="#0D72B9"/>
<path d="M211.595 355.601V348.581H226.268V355.601H211.595Z" fill="#0D72B9"/>
<path d="M211.578 337.963V331.118H226.25V337.963H211.578Z" fill="#0D72B9"/>
<path d="M211.595 373.099V366.272H226.268V373.099H211.595Z" fill="#0D72B9"/>
<path d="M226.285 383.946V390.492H211.578V383.946H226.285Z" fill="#0D72B9"/>
<path d="M196.835 348.616H203.855V355.636H196.835V348.616Z" fill="#0D72B9"/>
<path d="M167.051 355.601V348.581H174.176V355.601H167.051Z" fill="#0D72B9"/>
<path d="M159.451 348.651V355.671H152.255V348.651H159.451Z" fill="#0D72B9"/>
<path d="M167.086 366.255H174.247V373.1H167.086V366.255Z" fill="#0D72B9"/>
<path d="M181.934 366.237H188.954V373.082H181.934V366.237Z" fill="#0D72B9"/>
<path d="M196.729 373.082V366.272H203.75V373.082H196.729Z" fill="#0D72B9"/>
<path d="M152.431 337.945C152.255 337.664 152.167 337.594 152.167 337.524C152.167 329.977 150.412 330.784 159.398 331.205V337.945H152.431Z" fill="#0D72B9"/>
<path d="M167.121 331.135H174.247V337.98H167.121V331.135Z" fill="#0D72B9"/>
<path d="M181.916 331.118H188.937V337.927H181.916V331.118Z" fill="#0D72B9"/>
<path d="M152.202 373.03V366.36H159.363V373.03H152.202Z" fill="#0D72B9"/>
<path d="M181.864 348.651H188.989V355.671H181.864V348.651Z" fill="#0D72B9"/>
<path d="M203.785 337.998H196.764V331.118H203.785V337.998Z" fill="#0D72B9"/>
<path d="M152.22 390.598V383.894H159.416V390.598H152.22Z" fill="#0D72B9"/>
<path d="M174.264 390.616H167.068V383.876H174.264V390.616Z" fill="#0D72B9"/>
<path d="M196.694 383.841H203.855V390.563H196.694V383.841Z" fill="#0D72B9"/>
<path d="M189.042 390.563H181.864V383.929H189.042V390.563Z" fill="#0D72B9"/>
<path d="M122.19 404.569H107.851V389.194H122.19V404.569Z" fill="#F0F9FF"/>
<path d="M107.833 337.874V324.22H122.26V337.874H107.833Z" fill="#F0F9FF"/>
<path d="M44.4216 404.551H33.6804V389.177H44.4216V404.551Z" fill="#F0F9FF"/>
<path d="M52.1792 404.498V389.159H62.9204V404.498H52.1792Z" fill="#F0F9FF"/>
<path d="M81.4542 404.551H70.9236V389.177H81.4542V404.551Z" fill="#F0F9FF"/>
<path d="M89.3699 389.142H100.041V404.499H89.3699V389.142Z" fill="#F0F9FF"/>
<path d="M62.8678 337.91H52.3372V324.308H62.8678V337.91Z" fill="#F0F9FF"/>
<path d="M81.5772 337.91H70.8711V324.238H81.5772V337.91Z" fill="#F0F9FF"/>
<path d="M89.4048 324.203H100.041V337.857H89.4048V324.203Z" fill="#F0F9FF"/>
<path d="M33.7332 324.185H44.4042V337.91H33.7332V324.185Z" fill="#F0F9FF"/>
<path d="M122.225 345.176V353.6H107.658C107.658 351.213 107.553 348.914 107.658 346.58C107.797 346.229 108.023 345.92 108.315 345.68C108.607 345.441 108.954 345.279 109.325 345.211C113.573 345.123 117.767 345.176 122.225 345.176Z" fill="#F0F9FF"/>
<path d="M122.225 361.183V367.589H107.798V361.183H122.225Z" fill="#F0F9FF"/>
<path d="M107.763 381.664V375.206H122.208V381.664H107.763Z" fill="#F0F9FF"/>
<path d="M62.9554 345.299V353.548H52.2668V345.299H62.9554Z" fill="#F0F9FF"/>
<path d="M81.5421 345.333V353.565H70.8887V345.333H81.5421Z" fill="#F0F9FF"/>
<path d="M44.4392 345.404V353.6H33.6628V345.404H44.4392Z" fill="#F0F9FF"/>
<path d="M100.164 353.67H89.5103V345.333H100.251L100.164 353.67Z" fill="#F0F9FF"/>
<path d="M89.3523 367.571V361.129H100.129V367.571H89.3523Z" fill="#F0F9FF"/>
<path d="M44.4041 367.711H33.698V361.129H44.4041V367.711Z" fill="#F0F9FF"/>
<path d="M44.4392 375.153V381.665H33.6804V375.153H44.4392Z" fill="#F0F9FF"/>
<path d="M52.2144 381.717V375.136H62.938V381.717H52.2144Z" fill="#F0F9FF"/>
<path d="M81.5947 375.153V381.665H70.8535V375.153H81.5947Z" fill="#F0F9FF"/>
<path d="M52.302 361.095H62.9379V367.677H52.302V361.095Z" fill="#F0F9FF"/>
<path d="M70.8711 361.025H81.4017V367.677H70.8711V361.025Z" fill="#F0F9FF"/>
<path d="M89.4048 375.153H100.128V381.665H89.4048V375.153Z" fill="#F0F9FF"/>
<path d="M218.738 296.208V309.811H159.714V296.208H218.738Z" fill="white"/>
</svg>
