<svg width="29" height="30" viewBox="0 0 29 30" fill="none" xmlns="http://www.w3.org/2000/svg">
<g clip-path="url(#clip0_301_822)">
<path d="M28.2601 21.7955L24.6776 18.1838C24.1974 17.7097 23.5498 17.444 22.8751 17.444C22.2003 17.444 21.5527 17.7097 21.0726 18.1838L19.4422 19.8438C19.0783 20.2023 18.588 20.4032 18.0772 20.4032C17.5664 20.4032 17.0761 20.2023 16.7123 19.8438L9.60709 12.7324C9.42776 12.5532 9.2855 12.3405 9.18844 12.1062C9.09138 11.8721 9.04142 11.6212 9.04142 11.3677C9.04142 11.1142 9.09138 10.8632 9.18844 10.6291C9.2855 10.3948 9.42776 10.1821 9.60709 10.0029L11.2151 8.35032C11.6933 7.87091 11.9618 7.22147 11.9618 6.54441C11.9618 5.86734 11.6933 5.21791 11.2151 4.7385L7.60268 1.14912C7.1235 0.673292 6.47556 0.40625 5.80021 0.40625C5.12486 0.40625 4.47691 0.673292 3.99773 1.14912C3.2573 1.8969 2.98805 2.11376 2.68888 2.45027C0.967063 4.17474 0 6.51185 0 8.94855C0 11.3853 0.967063 13.7224 2.68888 15.4468L13.945 26.7085C14.7975 27.5637 15.8105 28.2421 16.9258 28.705C18.0411 29.1679 19.2368 29.4062 20.4444 29.4062C21.6519 29.4062 22.8477 29.1679 23.963 28.705C25.0783 28.2421 26.0912 27.5637 26.9437 26.7085L28.2601 25.3999C28.7342 24.9199 29 24.2724 29 23.5977C29 22.923 28.7342 22.2755 28.2601 21.7955ZM23.451 19.3876L27.0559 22.9921C27.2135 23.1528 27.3018 23.3689 27.3018 23.594C27.3018 23.819 27.2135 24.0351 27.0559 24.1959L26.4501 24.7941L21.6859 19.9933L22.2842 19.3876C22.4431 19.241 22.6514 19.1597 22.8676 19.1597C23.0838 19.1597 23.2921 19.241 23.451 19.3876ZM6.39854 2.35305L10.0035 5.94244C10.0833 6.02106 10.1467 6.11477 10.19 6.21811C10.2332 6.32146 10.2555 6.43237 10.2555 6.54441C10.2555 6.65644 10.2332 6.76736 10.19 6.8707C10.1467 6.97404 10.0833 7.06775 10.0035 7.14638L9.40515 7.74461L4.60354 2.94381L5.23179 2.34558C5.38995 2.19664 5.5994 2.11432 5.81666 2.11571C6.03392 2.11711 6.2423 2.2021 6.39854 2.35305ZM15.1417 25.5345L3.88555 14.2429C2.55713 12.9229 1.77243 11.1525 1.68657 9.28184C1.60071 7.4112 2.21994 5.57643 3.42184 4.14027L8.22345 8.95602C7.61444 9.64903 7.29181 10.5477 7.32098 11.4698C7.35015 12.3918 7.72892 13.2681 8.38051 13.9213L15.4857 21.0254C16.1372 21.68 17.0143 22.0611 17.9376 22.0903C18.8608 22.1194 19.7603 21.7947 20.4518 21.1824L25.246 25.9757C23.8086 27.1765 21.973 27.7943 20.1021 27.7071C18.2311 27.6198 16.461 26.8339 15.1417 25.5046V25.5345Z" fill="white"/>
</g>
<defs>
<clipPath id="clip0_301_822">
<rect width="29" height="29" fill="white" transform="translate(0 0.40625)"/>
</clipPath>
</defs>
</svg>
