<svg width="140" height="100" viewBox="0 0 140 100" fill="none" xmlns="http://www.w3.org/2000/svg">
<path d="M111.821 43.497C111.296 43.4963 110.79 43.3044 110.396 42.9573L104.728 37.9708C104.501 37.7881 104.313 37.5612 104.176 37.304C104.039 37.0467 103.956 36.7645 103.931 36.4741C103.906 36.1838 103.94 35.8914 104.031 35.6146C104.122 35.3378 104.269 35.0824 104.461 34.8636C104.654 34.6449 104.889 34.4673 105.152 34.3418C105.415 34.2162 105.7 34.1451 105.992 34.1329C106.283 34.1207 106.574 34.1676 106.846 34.2707C107.119 34.3738 107.368 34.531 107.578 34.7328L111.605 38.2731L120.048 28.2892C120.216 28.031 120.437 27.8116 120.697 27.646C120.957 27.4804 121.25 27.3723 121.555 27.329C121.86 27.2857 122.171 27.3083 122.466 27.3951C122.762 27.4819 123.036 27.631 123.269 27.8323C123.502 28.0337 123.69 28.2826 123.819 28.5624C123.948 28.8422 124.016 29.1464 124.017 29.4545C124.019 29.7626 123.955 30.0675 123.829 30.3487C123.703 30.6299 123.518 30.8808 123.287 31.0847L113.473 42.7307C113.287 42.9492 113.06 43.1286 112.804 43.2583C112.548 43.3881 112.269 43.4655 111.983 43.4862L111.821 43.497Z" fill="#0D72B9"/>
<path d="M32.5314 49.6485C31.9587 49.6485 31.4095 49.421 31.0045 49.0162C30.5996 48.6114 30.3721 48.0623 30.3721 47.4898V34.1709C30.3721 33.5984 30.5996 33.0493 31.0045 32.6445C31.4095 32.2396 31.9587 32.0122 32.5314 32.0122C33.1041 32.0122 33.6533 32.2396 34.0583 32.6445C34.4632 33.0493 34.6907 33.5984 34.6907 34.1709V47.4898C34.6907 48.0623 34.4632 48.6114 34.0583 49.0162C33.6533 49.421 33.1041 49.6485 32.5314 49.6485Z" fill="#0D72B9"/>
<path d="M41.1681 49.6488C40.5954 49.6488 40.0462 49.4214 39.6412 49.0166C39.2363 48.6117 39.0088 48.0627 39.0088 47.4901V26.1626C39.0088 25.5901 39.2363 25.041 39.6412 24.6362C40.0462 24.2313 40.5954 24.0039 41.1681 24.0039C41.7408 24.0039 42.29 24.2313 42.695 24.6362C43.0999 25.041 43.3274 25.5901 43.3274 26.1626V47.4901C43.3274 48.0627 43.0999 48.6117 42.695 49.0166C42.29 49.4214 41.7408 49.6488 41.1681 49.6488Z" fill="#0D72B9"/>
<path d="M49.7938 49.6487C49.2211 49.6487 48.6718 49.4212 48.2669 49.0164C47.8619 48.6116 47.6344 48.0625 47.6344 47.49L47.5049 31.4511C47.5049 30.8786 47.7324 30.3296 48.1373 29.9247C48.5423 29.5199 49.0915 29.2925 49.6642 29.2925C50.2369 29.2925 50.7861 29.5199 51.1911 29.9247C51.596 30.3296 51.8235 30.8786 51.8235 31.4511L51.9531 47.49C51.9531 48.0625 51.7256 48.6116 51.3206 49.0164C50.9157 49.4212 50.3664 49.6487 49.7938 49.6487Z" fill="#0D72B9"/>
<path d="M58.422 49.6485C57.8493 49.6485 57.3001 49.4211 56.8951 49.0162C56.4902 48.6114 56.2627 48.0623 56.2627 47.4898V35.5092C56.2627 34.9367 56.4902 34.3877 56.8951 33.9828C57.3001 33.578 57.8493 33.3506 58.422 33.3506C58.9947 33.3506 59.5439 33.578 59.9489 33.9828C60.3538 34.3877 60.5813 34.9367 60.5813 35.5092V47.4898C60.5813 48.0623 60.3538 48.6114 59.9489 49.0162C59.5439 49.4211 58.9947 49.6485 58.422 49.6485Z" fill="#0D72B9"/>
<path d="M67.0587 49.6481C66.486 49.6481 65.9368 49.4207 65.5319 49.0158C65.1269 48.611 64.8994 48.0619 64.8994 47.4894V30.9541C64.8994 30.3816 65.1269 29.8325 65.5319 29.4277C65.9368 29.0228 66.486 28.7954 67.0587 28.7954C67.6314 28.7954 68.1806 29.0228 68.5856 29.4277C68.9905 29.8325 69.218 30.3816 69.218 30.9541V47.4894C69.218 48.0619 68.9905 48.611 68.5856 49.0158C68.1806 49.4207 67.6314 49.6481 67.0587 49.6481Z" fill="#0D72B9"/>
<path d="M75.6876 49.6487C75.1149 49.6487 74.5657 49.4213 74.1608 49.0165C73.7558 48.6116 73.5283 48.0626 73.5283 47.49V32.5737C73.5283 32.0012 73.7558 31.4521 74.1608 31.0473C74.5657 30.6425 75.1149 30.415 75.6876 30.415C76.2603 30.415 76.8096 30.6425 77.2145 31.0473C77.6194 31.4521 77.8469 32.0012 77.8469 32.5737V47.49C77.8469 48.0626 77.6194 48.6116 77.2145 49.0165C76.8096 49.4213 76.2603 49.6487 75.6876 49.6487Z" fill="#0D72B9"/>
<path d="M84.3244 49.6493C83.7517 49.6493 83.2024 49.4219 82.7975 49.0171C82.3925 48.6122 82.165 48.0632 82.165 47.4906V18.7373C82.165 18.1648 82.3925 17.6157 82.7975 17.2109C83.2024 16.806 83.7517 16.5786 84.3244 16.5786C84.897 16.5786 85.4463 16.806 85.8512 17.2109C86.2562 17.6157 86.4837 18.1648 86.4837 18.7373V47.4906C86.4837 48.0632 86.2562 48.6122 85.8512 49.0171C85.4463 49.4219 84.897 49.6493 84.3244 49.6493Z" fill="#0D72B9"/>
<path d="M139.999 57.2033C140.001 57.6272 139.919 58.0472 139.755 58.4385C139.592 58.8297 139.352 59.1841 139.049 59.4807L136.231 62.2869C135.625 62.8868 134.806 63.2232 133.953 63.2232C133.1 63.2232 132.281 62.8868 131.675 62.2869L121.958 52.26C119.323 53.5168 116.445 54.18 113.526 54.2028C108.656 54.2442 103.951 52.4442 100.353 49.1635C96.7548 45.8828 94.5301 41.3639 94.1244 36.5125C94.0275 35.4822 94.0275 34.4451 94.1244 33.4149C94.611 28.6228 96.8608 24.1822 100.437 20.9548C104.014 17.7275 108.662 15.9434 113.481 15.9487C118.299 15.9541 122.943 17.7486 126.513 20.984C130.082 24.2193 132.322 28.6649 132.798 33.458C132.894 34.4775 132.894 35.5038 132.798 36.5233C132.517 39.6885 131.46 42.7356 129.721 45.3954V45.471L139.071 54.9259C139.37 55.2239 139.607 55.5791 139.766 55.9703C139.926 56.3616 140.005 56.7809 139.999 57.2033ZM133.953 59.8477L136.609 57.2033L125.294 45.7516L126.266 44.5859L126.471 44.3485C126.509 44.2487 126.56 44.1543 126.622 44.0679L126.806 43.798C128.321 41.5456 129.242 38.9466 129.483 36.2427C129.553 35.4131 129.553 34.579 129.483 33.7494C129.224 29.6718 127.421 25.846 124.44 23.0501C121.46 20.2541 117.527 18.6979 113.439 18.6979C109.352 18.6979 105.419 20.2541 102.438 23.0501C99.4582 25.846 97.6551 29.6718 97.3958 33.7494C97.3195 34.5932 97.3195 35.4421 97.3958 36.2859C97.7538 40.2897 99.6066 44.012 102.586 46.712C105.564 49.412 109.451 50.8918 113.472 50.8568C116.104 50.839 118.695 50.1953 121.029 48.9788L121.397 48.7845L122.476 48.0938L123.416 49.0328L133.953 59.8477Z" fill="#0D72B9"/>
<path d="M114.866 18.4237C115.438 18.4237 115.988 18.1963 116.392 17.7914C116.797 17.3866 117.025 16.8375 117.025 16.265V7.03675C117.025 5.17409 116.286 3.38741 114.971 2.06829C113.655 0.749168 111.87 0.00522539 110.007 -0.000488281H7.01874C5.15553 0.00522539 3.37059 0.749168 2.05512 2.06829C0.739648 3.38741 0.000967797 5.17409 0.000976563 7.03675L0.000976563 69.7351C0.000974366 71.5967 0.739999 73.3823 2.05578 74.6997C3.37155 76.0171 5.15652 76.7587 7.01874 76.7615H47.5706V87.3498H39.0737C37.7422 87.3498 36.4653 87.8785 35.5238 88.8198C34.5823 89.761 34.0533 91.0376 34.0533 92.3686V94.9806C34.0533 96.3117 34.5823 97.5883 35.5238 98.5295C36.4653 99.4707 37.7422 99.9995 39.0737 99.9995H77.9414C78.6007 99.9995 79.2535 99.8697 79.8626 99.6175C80.4717 99.3652 81.0252 98.9956 81.4913 98.5295C81.9575 98.0635 82.3273 97.5102 82.5796 96.9013C82.8319 96.2924 82.9618 95.6397 82.9618 94.9806V92.3686C82.9618 91.7096 82.8319 91.0569 82.5796 90.448C82.3273 89.8391 81.9575 89.2858 81.4913 88.8198C81.0252 88.3537 80.4717 87.984 79.8626 87.7318C79.2535 87.4796 78.6007 87.3498 77.9414 87.3498H69.4553V76.7615H110.007C111.869 76.7587 113.654 76.0171 114.97 74.6997C116.286 73.3823 117.025 71.5967 117.025 69.7351V53.1242C117.025 52.5517 116.797 52.0026 116.392 51.5978C115.988 51.1929 115.438 50.9655 114.866 50.9655C114.293 50.9655 113.744 51.1929 113.339 51.5978C112.934 52.0026 112.706 52.5517 112.706 53.1242V62.0826H4.3196V7.03675C4.31818 6.68098 4.38687 6.32842 4.52175 5.99919C4.65662 5.66996 4.85505 5.37051 5.10568 5.11794C5.35632 4.86538 5.65427 4.66463 5.98251 4.52718C6.31076 4.38972 6.66287 4.31825 7.01874 4.31683H110.007C110.363 4.31825 110.715 4.38972 111.043 4.52718C111.372 4.66463 111.67 4.86538 111.92 5.11794C112.171 5.37051 112.369 5.66996 112.504 5.99919C112.639 6.32842 112.708 6.68098 112.706 7.03675V16.265C112.706 16.8375 112.934 17.3866 113.339 17.7914C113.744 18.1963 114.293 18.4237 114.866 18.4237ZM77.9414 91.6671C78.1285 91.6671 78.3081 91.7406 78.4415 91.8719C78.5748 92.0032 78.6511 92.1816 78.6539 92.3686V94.9806C78.6512 95.1687 78.5752 95.3483 78.4422 95.4813C78.3091 95.6143 78.1295 95.6902 77.9414 95.693H39.0737C38.8866 95.6901 38.7081 95.6138 38.5768 95.4806C38.4455 95.3473 38.3719 95.1677 38.372 94.9806V92.3686C38.372 92.1826 38.4459 92.0041 38.5775 91.8726C38.7091 91.741 38.8876 91.6671 39.0737 91.6671H77.9414ZM65.0395 87.3498H51.9756V76.7615H65.0395V87.3498ZM112.706 66.3891V69.7351C112.706 70.4517 112.422 71.1392 111.916 71.6469C111.411 72.1547 110.724 72.4413 110.007 72.4442H7.01874C6.3019 72.4413 5.61538 72.1547 5.1095 71.6469C4.60362 71.1392 4.3196 70.4517 4.3196 69.7351V66.3891H112.706Z" fill="#0D72B9"/>
</svg>
