<svg width="72" height="100" viewBox="0 0 72 100" fill="none" xmlns="http://www.w3.org/2000/svg">
<path d="M69.6875 99.9995H2.31179C1.7989 99.9995 1.30701 99.7958 0.944345 99.4331C0.581675 99.0705 0.37793 98.5786 0.37793 98.0657V10.1813C0.37793 9.66843 0.581675 9.17655 0.944345 8.81388C1.30701 8.45121 1.7989 8.24746 2.31179 8.24746H20.055C20.5679 8.24746 21.0598 8.45121 21.4224 8.81388C21.7851 9.17655 21.9888 9.66843 21.9888 10.1813C21.9888 10.6942 21.7851 11.1861 21.4224 11.5488C21.0598 11.9114 20.5679 12.1152 20.055 12.1152H4.24565V96.1415H67.7537V12.1055H51.9347C51.4218 12.1055 50.9299 11.9018 50.5672 11.5391C50.2046 11.1764 50.0008 10.6845 50.0008 10.1717C50.0008 9.65876 50.2046 9.16688 50.5672 8.80421C50.9299 8.44154 51.4218 8.23779 51.9347 8.23779H69.6875C70.2004 8.23779 70.6923 8.44154 71.055 8.80421C71.4177 9.16688 71.6214 9.65876 71.6214 10.1717V98.056C71.6227 98.3108 71.5736 98.5633 71.477 98.799C71.3804 99.0348 71.2381 99.2491 71.0584 99.4297C70.8787 99.6103 70.6651 99.7536 70.4298 99.8514C70.1946 99.9492 69.9423 99.9995 69.6875 99.9995Z" fill="#0D72B9"/>
<path d="M51.9354 20.3056H20.0266C19.5137 20.3056 19.0219 20.1018 18.6592 19.7392C18.2965 19.3765 18.0928 18.8846 18.0928 18.3717V1.9339C18.0928 1.42101 18.2965 0.929121 18.6592 0.566451C19.0219 0.203782 19.5137 3.61838e-05 20.0266 3.61838e-05H22.0572C23.4258 0.002592 24.7377 0.547413 25.7055 1.51519C26.6732 2.48296 27.218 3.79481 27.2206 5.16345L27.3173 5.30849H44.6254L44.7221 5.16345C44.7233 4.48329 44.8587 3.81006 45.1205 3.18229C45.3822 2.55452 45.7652 1.98452 46.2475 1.50493C46.7298 1.02533 47.3019 0.645556 47.9311 0.387328C48.5603 0.1291 49.2343 -0.00250763 49.9145 3.61838e-05H51.9354C52.4482 3.61838e-05 52.9401 0.203782 53.3028 0.566451C53.6655 0.929121 53.8692 1.42101 53.8692 1.9339V18.3717C53.8692 18.8846 53.6655 19.3765 53.3028 19.7392C52.9401 20.1018 52.4482 20.3056 51.9354 20.3056ZM21.9605 16.4379H50.0015V3.86776H49.9145C49.5699 3.86775 49.2394 4.00395 48.9948 4.24667C48.7503 4.48938 48.6117 4.81892 48.6091 5.16345C48.6142 5.68695 48.5158 6.20631 48.3196 6.69168C48.1234 7.17705 47.8332 7.61886 47.4657 7.99174C47.0982 8.36462 46.6607 8.66121 46.1782 8.86448C45.6958 9.06775 45.1779 9.17369 44.6544 9.17621H27.3463C26.2974 9.17621 25.2915 8.75955 24.5499 8.01789C23.8082 7.27623 23.3916 6.27033 23.3916 5.22146C23.3967 5.04636 23.3668 4.87198 23.3037 4.70858C23.2405 4.54518 23.1453 4.39605 23.0237 4.26995C22.9021 4.14384 22.7565 4.04331 22.5955 3.97424C22.4346 3.90517 22.2614 3.86897 22.0862 3.86776H21.9798L21.9605 16.4379Z" fill="#0D72B9"/>
<path d="M55.9761 45.5518H30.0237C29.5108 45.5518 29.0189 45.3481 28.6563 44.9854C28.2936 44.6227 28.0898 44.1308 28.0898 43.6179C28.0898 43.1051 28.2936 42.6132 28.6563 42.2505C29.0189 41.8878 29.5108 41.6841 30.0237 41.6841H55.9761C56.489 41.6841 56.9809 41.8878 57.3436 42.2505C57.7063 42.6132 57.91 43.1051 57.91 43.6179C57.91 44.1308 57.7063 44.6227 57.3436 44.9854C56.9809 45.3481 56.489 45.5518 55.9761 45.5518Z" fill="#0D72B9"/>
<path d="M55.9761 53.9249H30.0237C29.5108 53.9249 29.0189 53.7211 28.6563 53.3584C28.2936 52.9958 28.0898 52.5039 28.0898 51.991C28.0898 51.4781 28.2936 50.9862 28.6563 50.6235C29.0189 50.2609 29.5108 50.0571 30.0237 50.0571H55.9761C56.489 50.0571 56.9809 50.2609 57.3436 50.6235C57.7063 50.9862 57.91 51.4781 57.91 51.991C57.91 52.5039 57.7063 52.9958 57.3436 53.3584C56.9809 53.7211 56.489 53.9249 55.9761 53.9249Z" fill="#0D72B9"/>
<path d="M55.9761 62.2989H30.0237C29.5108 62.2989 29.0189 62.0951 28.6563 61.7325C28.2936 61.3698 28.0898 60.8779 28.0898 60.365C28.0898 59.8521 28.2936 59.3602 28.6563 58.9976C29.0189 58.6349 29.5108 58.4312 30.0237 58.4312H55.9761C56.489 58.4312 56.9809 58.6349 57.3436 58.9976C57.7063 59.3602 57.91 59.8521 57.91 60.365C57.91 60.8779 57.7063 61.3698 57.3436 61.7325C56.9809 62.0951 56.489 62.2989 55.9761 62.2989Z" fill="#0D72B9"/>
<path d="M55.9761 70.6729H30.0237C29.5108 70.6729 29.0189 70.4692 28.6563 70.1065C28.2936 69.7438 28.0898 69.2519 28.0898 68.739C28.0898 68.2261 28.2936 67.7343 28.6563 67.3716C29.0189 67.0089 29.5108 66.8052 30.0237 66.8052H55.9761C56.489 66.8052 56.9809 67.0089 57.3436 67.3716C57.7063 67.7343 57.91 68.2261 57.91 68.739C57.91 69.2519 57.7063 69.7438 57.3436 70.1065C56.9809 70.4692 56.489 70.6729 55.9761 70.6729Z" fill="#0D72B9"/>
<path d="M17.5796 49.9123C17.1086 49.9171 16.6529 49.7446 16.3033 49.4289L13.0737 46.5957C12.7144 46.2506 12.5021 45.78 12.4812 45.2821C12.4603 44.7843 12.6324 44.2976 12.9616 43.9235C13.2908 43.5494 13.7516 43.3168 14.2481 43.2742C14.7446 43.2317 15.2384 43.3824 15.6264 43.695L17.3669 45.2324L21.6987 40.1173C21.8577 39.9088 22.0575 39.7348 22.2858 39.6059C22.5141 39.4769 22.7663 39.3958 23.0269 39.3674C23.2876 39.3389 23.5513 39.3638 23.8021 39.4405C24.0528 39.5171 24.2854 39.644 24.4856 39.8134C24.6858 39.9827 24.8494 40.191 24.9666 40.4256C25.0838 40.6601 25.1521 40.9161 25.1672 41.1778C25.1824 41.4396 25.1442 41.7017 25.0549 41.9483C24.9656 42.1948 24.8272 42.4206 24.6479 42.612L19.0494 49.2258C18.8839 49.4234 18.6806 49.5859 18.4515 49.7038C18.2223 49.8217 17.9719 49.8926 17.715 49.9123H17.5796Z" fill="#0D72B9"/>
<path d="M17.5796 61.3325C17.1108 61.3345 16.6572 61.1661 16.3033 60.8587L13.0737 58.0159C12.7144 57.6707 12.5021 57.2002 12.4812 56.7023C12.4603 56.2044 12.6324 55.7177 12.9616 55.3436C13.2908 54.9696 13.7516 54.737 14.2481 54.6944C14.7446 54.6518 15.2384 54.8025 15.6264 55.1151L17.3669 56.6525L21.6987 51.5375C22.0378 51.1756 22.5029 50.9577 22.998 50.929C23.4931 50.9003 23.9803 51.0629 24.359 51.3832C24.7376 51.7035 24.9787 52.157 25.0325 52.65C25.0863 53.143 24.9486 53.6378 24.6479 54.0322L19.0494 60.6556C18.883 60.8514 18.6794 61.0121 18.4503 61.1283C18.2212 61.2445 17.9712 61.3139 17.715 61.3325H17.5796Z" fill="#0D72B9"/>
<path d="M17.5796 72.5197C17.1108 72.5217 16.6572 72.3533 16.3033 72.0459L13.0737 69.2128C12.7144 68.8676 12.5021 68.397 12.4812 67.8992C12.4603 67.4013 12.6324 66.9146 12.9616 66.5405C13.2908 66.1664 13.7516 65.9339 14.2481 65.8913C14.7446 65.8487 15.2384 65.9994 15.6264 66.312L17.3669 67.8494L21.6987 62.7343C21.8631 62.5406 22.0641 62.3812 22.2901 62.2652C22.5161 62.1492 22.7628 62.0788 23.016 62.0582C23.2693 62.0375 23.5241 62.067 23.7659 62.1448C24.0078 62.2227 24.2319 62.3474 24.4255 62.512C24.8139 62.8437 25.0552 63.3156 25.0969 63.8246C25.1385 64.3337 24.9771 64.8386 24.6479 65.229L19.0494 71.8525C18.883 72.0483 18.6794 72.209 18.4503 72.3252C18.2212 72.4414 17.9712 72.5108 17.715 72.5294L17.5796 72.5197Z" fill="#0D72B9"/>
</svg>
