<svg width="106" height="100" viewBox="0 0 106 100" fill="none" xmlns="http://www.w3.org/2000/svg">
<path d="M95.5469 99.9995C94.7496 100.002 93.9597 99.8465 93.2229 99.5417C92.4861 99.2369 91.8171 98.7889 91.2547 98.2237L65.7245 72.6935C59.7255 77.2807 52.5628 80.0981 45.0463 80.8273C37.5298 81.5564 29.9591 80.1683 23.1903 76.8197C16.4214 73.4712 10.7243 68.2958 6.74303 61.8787C2.76174 55.4616 0.655056 48.0587 0.661146 40.5068C0.678674 33.6368 2.42335 26.8814 5.73471 20.862C9.24797 14.5442 14.3848 9.27934 20.6142 5.61162C26.8436 1.94391 33.9395 0.00644475 41.1685 -0.000488281C51.1695 0.00586487 60.815 3.70985 68.2497 10.399C75.6844 17.0882 80.3832 26.2901 81.4424 36.2349C81.5974 37.6536 81.6753 39.0797 81.6758 40.5068C81.6802 47.0754 80.0851 53.5462 77.0284 59.3602L103.573 85.9051C104.704 87.0454 105.339 88.5863 105.339 90.1923C105.339 91.7982 104.704 93.3391 103.573 94.4794L99.8087 98.2339C99.2511 98.7963 98.5871 99.2421 97.8554 99.5452C97.1237 99.8483 96.3389 100.003 95.5469 99.9995ZM65.9884 67.2242L94.1263 95.3825C94.5038 95.7423 95.0052 95.943 95.5266 95.943C96.0481 95.943 96.5495 95.7423 96.927 95.3825L100.712 91.6179C101.081 91.239 101.287 90.7312 101.287 90.2024C101.287 89.6737 101.081 89.1658 100.712 88.7869L71.9853 60.0502L72.7666 58.7108C75.1954 54.5375 76.7712 49.9233 77.4027 45.1362C78.0341 40.349 77.7086 35.4841 76.445 30.8237C75.1814 26.1633 73.0049 21.8003 70.0418 17.9877C67.0786 14.1752 63.3879 10.989 59.1836 8.61416C54.9794 6.23928 50.3454 4.72296 45.5504 4.15317C40.7555 3.58338 35.8952 3.97148 31.2515 5.29494C26.6078 6.6184 22.2731 8.85088 18.499 11.8628C14.7249 14.8748 11.5865 18.6062 9.26591 22.8407C6.88541 27.0971 5.40704 31.7982 4.92294 36.6509C4.78904 37.9319 4.7213 39.2189 4.72 40.5068C4.71021 47.4481 6.68434 54.2476 10.4098 60.1044C14.1353 65.9612 19.457 70.6313 25.7481 73.5646C32.0391 76.4979 39.0374 77.5723 45.9186 76.6611C52.7998 75.7499 59.2773 72.8912 64.5881 68.4216L65.9884 67.2242Z" fill="#0D72B9"/>
<path d="M16.6132 52.6528C16.1067 52.654 15.6181 52.4658 15.2433 52.1251C15.0457 51.9454 14.8855 51.7286 14.7719 51.4869C14.6583 51.2452 14.5935 50.9834 14.5812 50.7167C14.569 50.4499 14.6095 50.1833 14.7005 49.9322C14.7914 49.6811 14.9311 49.4505 15.1114 49.2535L21.9708 41.7141C22.3113 41.341 22.7786 41.1083 23.2815 41.0614C23.7844 41.0145 24.2867 41.1568 24.6903 41.4605L30.9206 46.1586L42.5898 31.4554C42.759 31.244 42.9688 31.0685 43.2068 30.9395C43.4449 30.8104 43.7064 30.7302 43.9759 30.7037C44.2454 30.6773 44.5174 30.705 44.7761 30.7853C45.0347 30.8656 45.2746 30.9968 45.4817 31.1713L54.0358 38.3453L63.2798 26.5036C63.6187 26.1039 64.0992 25.8507 64.6205 25.7972C65.1419 25.7437 65.6638 25.894 66.0768 26.2166C66.4899 26.5392 66.7621 27.009 66.8366 27.5278C66.911 28.0466 66.7818 28.5741 66.4761 28.9998L55.9333 42.5361C55.7656 42.7485 55.5572 42.9253 55.3202 43.056C55.0832 43.1867 54.8224 43.2687 54.5533 43.2971C54.2819 43.3273 54.0072 43.3024 53.7457 43.224C53.4841 43.1455 53.2411 43.0151 53.0312 42.8405L44.467 35.6563L32.8688 50.2377C32.5392 50.6517 32.0608 50.9206 31.5357 50.9869C31.0106 51.0533 30.4804 50.9119 30.0581 50.5929L23.7364 45.8136L18.1048 51.9932C17.9153 52.2003 17.6849 52.3659 17.4281 52.4794C17.1714 52.5929 16.8939 52.652 16.6132 52.6528Z" fill="#0D72B9"/>
</svg>
