<svg width="86" height="100" viewBox="0 0 86 100" fill="none" xmlns="http://www.w3.org/2000/svg">
<path d="M65.0824 21.3267L44.2694 0.504827C43.93 0.182101 43.48 0.00147278 43.0117 0L2.27132 0C1.80154 0 1.351 0.186621 1.01881 0.518808C0.686621 0.850996 0.5 1.30154 0.5 1.77132L0.5 82.2691C0.5 82.7388 0.686621 83.1894 1.01881 83.5216C1.351 83.8538 1.80154 84.0404 2.27132 84.0404H33.7211C32.9241 82.8625 32.1004 81.5251 31.5424 80.4977H4.04264V3.54264H41.2404V22.7349C41.2404 23.2047 41.427 23.6552 41.7592 23.9874C42.0914 24.3196 42.542 24.5062 43.0117 24.5062H62.2129V48.0294C63.4454 48.6947 64.6292 49.4464 65.7555 50.279V22.9741C65.7696 22.895 65.7696 22.814 65.7555 22.7349C65.7583 22.4644 65.6991 22.1968 65.5824 21.9527C65.4657 21.7086 65.2947 21.4944 65.0824 21.3267ZM44.7831 20.9725V6.04021L59.7153 20.9725H44.7831Z" fill="#0D72B9"/>
<path d="M79.9359 99.9997C79.4429 100.004 78.954 99.9095 78.4978 99.7224C78.0416 99.5354 77.6272 99.2593 77.2789 98.9103L65.3668 86.9893C61.3122 89.8515 56.3521 91.135 51.4181 90.5987C46.4841 90.0624 41.9156 87.7433 38.5706 84.0768C35.2256 80.4103 33.3343 75.6487 33.2518 70.6863C33.1694 65.7239 34.9014 60.9021 38.1227 57.1265C41.344 53.3509 45.8329 50.8811 50.7464 50.1812C55.6598 49.4812 60.6598 50.5992 64.8073 53.3251C68.9548 56.051 71.9644 60.1973 73.2709 64.9853C74.5775 69.7733 74.091 74.8736 71.903 79.3283L84.3908 91.8162C84.7421 92.1637 85.021 92.5775 85.2114 93.0336C85.4017 93.4897 85.4997 93.979 85.4997 94.4732C85.4997 94.9674 85.4017 95.4566 85.2114 95.9127C85.021 96.3688 84.7421 96.7826 84.3908 97.1301L82.5575 98.9457C82.2119 99.2861 81.8023 99.5545 81.3523 99.7354C80.9023 99.9163 80.4209 100.006 79.9359 99.9997ZM65.6236 82.2245L79.7942 96.395C79.8312 96.423 79.8763 96.4382 79.9226 96.4382C79.969 96.4382 80.0141 96.423 80.051 96.395L81.8932 94.5706C81.9295 94.5341 81.9498 94.4847 81.9498 94.4333C81.9498 94.3819 81.9295 94.3325 81.8932 94.296L67.5101 79.9395L68.192 78.7615C70.3546 75.0792 71.0581 70.72 70.1638 66.5444C69.2694 62.3688 66.8422 58.6801 63.3612 56.2066C59.8801 53.7331 55.5983 52.6544 51.3608 53.1836C47.1234 53.7127 43.2383 55.8112 40.4724 59.0648C37.7066 62.3184 36.2609 66.4906 36.4209 70.758C36.5808 75.0253 38.3347 79.0777 41.3364 82.1151C44.3381 85.1525 48.3694 86.9542 52.6345 87.1647C56.8997 87.3751 61.0887 85.979 64.3748 83.2518L65.6236 82.2245Z" fill="#0D72B9"/>
<path d="M12.7559 48.4541C12.3011 48.4546 11.8634 48.2802 11.5337 47.967C11.3649 47.8066 11.2293 47.6145 11.1348 47.4016C11.0403 47.1888 10.9887 46.9594 10.983 46.7266C10.9772 46.4938 11.0174 46.2622 11.1013 46.0449C11.1851 45.8277 11.311 45.6291 11.4717 45.4605L21.214 35.1692C21.5221 34.8442 21.9419 34.648 22.3889 34.6201C22.8358 34.5921 23.2768 34.7345 23.623 35.0186L27.7324 38.393L34.9771 31.1571C35.2806 30.8503 35.6856 30.6648 36.1161 30.6355C36.5466 30.6061 36.973 30.7349 37.3153 30.9977L46.1719 37.9501L51.6896 32.2111C52.0201 31.8971 52.4591 31.7227 52.915 31.7241C53.3709 31.7255 53.8087 31.9027 54.1373 32.2187C54.4659 32.5348 54.66 32.9654 54.6792 33.4209C54.6983 33.8764 54.5411 34.3218 54.2403 34.6643L47.6155 41.5725C47.3118 41.8878 46.9021 42.0795 46.4655 42.1105C46.0288 42.1416 45.5961 42.0099 45.2508 41.7408L36.3942 34.7618L29.1318 42.033C28.8208 42.343 28.4057 42.5264 27.9672 42.5477C27.5286 42.569 27.0977 42.4266 26.7582 42.1482L22.6399 38.8004L14.0401 47.8961C13.8752 48.0715 13.6763 48.2114 13.4555 48.3074C13.2347 48.4033 12.9966 48.4532 12.7559 48.4541Z" fill="#0D72B9"/>
<path d="M47.1112 78.9742C46.6414 78.9742 46.1908 78.7876 45.8587 78.4554C45.5265 78.1232 45.3398 77.6727 45.3398 77.2029V70.2327C45.3398 69.763 45.5265 69.3124 45.8587 68.9802C46.1908 68.648 46.6414 68.4614 47.1112 68.4614C47.5809 68.4614 48.0315 68.648 48.3637 68.9802C48.6959 69.3124 48.8825 69.763 48.8825 70.2327V77.2029C48.8825 77.6727 48.6959 78.1232 48.3637 78.4554C48.0315 78.7876 47.5809 78.9742 47.1112 78.9742Z" fill="#0D72B9"/>
<path d="M52.9754 78.9739C52.5056 78.9739 52.0551 78.7873 51.7229 78.4551C51.3907 78.1229 51.2041 77.6723 51.2041 77.2025V67.1414C51.2041 66.6717 51.3907 66.2211 51.7229 65.8889C52.0551 65.5567 52.5056 65.3701 52.9754 65.3701C53.4452 65.3701 53.8958 65.5567 54.2279 65.8889C54.5601 66.2211 54.7467 66.6717 54.7467 67.1414V77.2025C54.7467 77.6723 54.5601 78.1229 54.2279 78.4551C53.8958 78.7873 53.4452 78.9739 52.9754 78.9739Z" fill="#0D72B9"/>
<path d="M58.8397 78.9746C58.3699 78.9746 57.9194 78.788 57.5872 78.4558C57.255 78.1236 57.0684 77.6731 57.0684 77.2033V62.9442C57.0684 62.4744 57.255 62.0238 57.5872 61.6917C57.9194 61.3595 58.3699 61.1729 58.8397 61.1729C59.3095 61.1729 59.76 61.3595 60.0922 61.6917C60.4244 62.0238 60.611 62.4744 60.611 62.9442V77.2033C60.611 77.6731 60.4244 78.1236 60.0922 78.4558C59.76 78.788 59.3095 78.9746 58.8397 78.9746Z" fill="#0D72B9"/>
</svg>
