<svg width="51" height="51" viewBox="0 0 51 51" fill="none" xmlns="http://www.w3.org/2000/svg">
<g clip-path="url(#clip0_29_1477)">
<path d="M46.0786 45.5216C45.8748 45.5216 45.6795 45.4407 45.5354 45.2966C45.3913 45.1525 45.3104 44.9571 45.3104 44.7534V14.8445C45.3093 14.0523 44.994 13.2928 44.4337 12.7327C43.8734 12.1725 43.1138 11.8575 42.3216 11.8567H16.6123C16.4085 11.8567 16.2131 11.7758 16.0691 11.6317C15.925 11.4877 15.844 11.2923 15.844 11.0885C15.844 10.8848 15.925 10.6894 16.0691 10.5453C16.2131 10.4013 16.4085 10.3203 16.6123 10.3203H42.3216C43.5211 10.3217 44.6712 10.7987 45.5195 11.6468C46.3678 12.495 46.8452 13.645 46.8468 14.8445V44.7575C46.8457 44.9605 46.7643 45.1548 46.6203 45.298C46.4764 45.4412 46.2816 45.5216 46.0786 45.5216Z" fill="#0D72B9"/>
<path d="M45.9586 50.4062H22.4915C21.5247 50.4051 20.5978 50.0206 19.9142 49.337C19.2306 48.6534 18.8461 47.7266 18.8451 46.7599V14.0854C18.8451 13.493 18.6096 12.9247 18.1908 12.5058C17.7718 12.0869 17.2036 11.8515 16.6111 11.8515C16.0186 11.8515 15.4504 12.0869 15.0315 12.5058C14.6125 12.9247 14.3771 13.493 14.3771 14.0854V28.0053C14.376 28.9979 13.9813 29.9495 13.2794 30.6514C12.5776 31.3532 11.626 31.748 10.6334 31.7491C10.158 31.7519 9.6868 31.6603 9.24722 31.4793C8.80756 31.2983 8.40833 31.0318 8.07277 30.6951C7.72124 30.3395 7.44388 29.9176 7.2568 29.454C7.06971 28.9903 6.97661 28.494 6.98291 27.9941V8.42632H1.79598C1.59224 8.42632 1.39684 8.34542 1.25277 8.20132C1.10871 8.05722 1.02777 7.86188 1.02777 7.65812V4.17558C1.02913 3.17613 1.42683 2.21802 2.13364 1.5114C2.84046 0.804774 3.79868 0.407334 4.79813 0.40625C5.78581 0.407334 6.73272 0.800167 7.43111 1.49856C8.12951 2.19695 8.52235 3.14386 8.5234 4.13154V27.9972C8.51819 28.2953 8.57215 28.5915 8.68222 28.8685C8.79228 29.1456 8.95624 29.3981 9.16465 29.6114C9.35742 29.8039 9.58652 29.9562 9.83867 30.0594C10.0908 30.1626 10.361 30.2147 10.6334 30.2126C11.2187 30.2122 11.7798 29.9794 12.1936 29.5656C12.6075 29.1517 12.8402 28.5906 12.8408 28.0053V14.0885C12.8408 13.0885 13.238 12.1296 13.9451 11.4225C14.6521 10.7154 15.6111 10.3182 16.6111 10.3182C17.611 10.3182 18.5701 10.7154 19.2771 11.4225C19.9842 12.1296 20.3815 13.0885 20.3815 14.0885V46.7629C20.3753 47.0438 20.4253 47.3232 20.5285 47.5845C20.6317 47.8459 20.7861 48.084 20.9826 48.2849C21.1791 48.4858 21.4137 48.6453 21.6728 48.7543C21.9318 48.8633 22.2099 48.9194 22.491 48.9194C22.7719 48.9194 23.0501 48.8633 23.3092 48.7543C23.5682 48.6453 23.8028 48.4858 23.9993 48.2849C24.1958 48.084 24.3502 47.8459 24.4534 47.5845C24.5567 47.3232 24.6067 47.0438 24.6004 46.7629V44.7574C24.6004 44.5536 24.6814 44.3583 24.8255 44.2142C24.9695 44.0701 25.1649 43.9892 25.3687 43.9892H48.8369C49.0406 43.9892 49.236 44.0701 49.3801 44.2142C49.5241 44.3583 49.6051 44.5536 49.6051 44.7574V46.764C49.6029 47.73 49.2179 48.6558 48.5344 49.3385C47.8509 50.0212 46.9246 50.4051 45.9586 50.4062ZM25.4639 48.8699H45.9586C46.518 48.8693 47.0544 48.6468 47.4501 48.2512C47.8456 47.8556 48.0681 47.3192 48.0687 46.7599V45.5215H26.1369V46.7599C26.138 47.5161 25.9026 48.2538 25.4639 48.8699ZM2.56418 6.88991H6.98701V4.13154C6.98646 3.55118 6.75567 2.99474 6.3453 2.58437C5.93492 2.17399 5.37849 1.94321 4.79813 1.94266C4.20581 1.94321 3.63792 2.17874 3.21909 2.59757C2.80026 3.0164 2.56473 3.58429 2.56418 4.1766V6.88991Z" fill="#0D72B9"/>
<path d="M19.6133 31.7489H10.6336C10.4298 31.7489 10.2344 31.6679 10.0904 31.5239C9.94626 31.3798 9.86536 31.1843 9.86536 30.9807C9.86536 30.7769 9.94626 30.5815 10.0904 30.4374C10.2344 30.2934 10.4298 30.2124 10.6336 30.2124H19.6133C19.8171 30.2124 20.0125 30.2934 20.1565 30.4374C20.3006 30.5815 20.3816 30.7769 20.3816 30.9807C20.3816 31.1843 20.3006 31.3798 20.1565 31.5239C20.0125 31.6679 19.8171 31.7489 19.6133 31.7489Z" fill="#0D72B9"/>
<path d="M34.1119 11.8546C33.9083 11.8546 33.7128 11.7736 33.5688 11.6296C33.4247 11.4855 33.3438 11.2901 33.3438 11.0864V3.91644C33.3446 3.39395 33.1378 2.89253 32.7691 2.5224C32.4003 2.15228 31.8997 1.94375 31.3772 1.94266H4.79824C4.59449 1.94266 4.3991 1.86173 4.25504 1.71766C4.11097 1.5736 4.03003 1.37819 4.03003 1.17446C4.03003 0.970715 4.11097 0.775319 4.25504 0.631253C4.3991 0.487186 4.59449 0.40625 4.79824 0.40625H31.3772C32.3066 0.407335 33.1976 0.777107 33.8548 1.43442C34.5119 2.09174 34.8814 2.9829 34.8822 3.91235V11.0823C34.8828 11.1837 34.8633 11.2842 34.8247 11.378C34.7863 11.4718 34.7296 11.5571 34.658 11.6288C34.5863 11.7006 34.5013 11.7576 34.4075 11.7963C34.3138 11.8351 34.2134 11.8549 34.1119 11.8546Z" fill="#0D72B9"/>
<path d="M24.0853 40.5744C23.8816 40.5744 23.6862 40.4935 23.5421 40.3494C23.398 40.2054 23.3171 40.0099 23.3171 39.8062V38.319C23.3171 38.1152 23.398 37.9198 23.5421 37.7758C23.6862 37.6317 23.8816 37.5508 24.0853 37.5508C24.2891 37.5508 24.4845 37.6317 24.6285 37.7758C24.7726 37.9198 24.8535 38.1152 24.8535 38.319V39.8062C24.8535 40.0099 24.7726 40.2054 24.6285 40.3494C24.4845 40.4935 24.2891 40.5744 24.0853 40.5744Z" fill="#0D72B9"/>
<path d="M27.0598 40.5742C26.856 40.5742 26.6606 40.4933 26.5166 40.3492C26.3725 40.2052 26.2916 40.0097 26.2916 39.806V36.8356C26.2916 36.7347 26.3114 36.6348 26.35 36.5416C26.3886 36.4484 26.4452 36.3637 26.5166 36.2924C26.5879 36.2211 26.6726 36.1645 26.7658 36.1259C26.859 36.0872 26.9589 36.0674 27.0598 36.0674C27.1607 36.0674 27.2605 36.0872 27.3537 36.1259C27.4469 36.1645 27.5316 36.2211 27.603 36.2924C27.6743 36.3637 27.7309 36.4484 27.7695 36.5416C27.8081 36.6348 27.828 36.7347 27.828 36.8356V39.806C27.828 40.0097 27.747 40.2052 27.603 40.3492C27.4589 40.4933 27.2635 40.5742 27.0598 40.5742Z" fill="#0D72B9"/>
<path d="M30.0342 40.574C29.8304 40.574 29.635 40.4931 29.491 40.349C29.3469 40.205 29.266 40.0096 29.266 39.8058V35.8112C29.266 35.6074 29.3469 35.412 29.491 35.268C29.635 35.1239 29.8304 35.043 30.0342 35.043C30.2379 35.043 30.4334 35.1239 30.5774 35.268C30.7215 35.412 30.8024 35.6074 30.8024 35.8112V39.8058C30.8024 40.0096 30.7215 40.205 30.5774 40.349C30.4334 40.4931 30.2379 40.574 30.0342 40.574Z" fill="#0D72B9"/>
<path d="M33.0087 40.5743C32.8049 40.5743 32.6095 40.4934 32.4655 40.3493C32.3214 40.2052 32.2405 40.0098 32.2405 39.8061V33.8571C32.2405 33.6534 32.3214 33.458 32.4655 33.3139C32.6095 33.1698 32.8049 33.0889 33.0087 33.0889C33.2124 33.0889 33.4078 33.1698 33.5519 33.3139C33.696 33.458 33.7769 33.6534 33.7769 33.8571V39.8061C33.7769 40.0098 33.696 40.2052 33.5519 40.3493C33.4078 40.4934 33.2124 40.5743 33.0087 40.5743Z" fill="#0D72B9"/>
<path d="M35.9831 40.574C35.7794 40.574 35.584 40.4931 35.4399 40.349C35.2958 40.205 35.2149 40.0096 35.2149 39.8058V35.8112C35.2149 35.6074 35.2958 35.412 35.4399 35.268C35.584 35.1239 35.7794 35.043 35.9831 35.043C36.1869 35.043 36.3823 35.1239 36.5263 35.268C36.6704 35.412 36.7513 35.6074 36.7513 35.8112V39.8058C36.7513 40.0096 36.6704 40.205 36.5263 40.349C36.3823 40.4931 36.1869 40.574 35.9831 40.574Z" fill="#0D72B9"/>
<path d="M38.9579 40.5744C38.7541 40.5744 38.5587 40.4934 38.4147 40.3494C38.2706 40.2053 38.1897 40.01 38.1897 39.8062V32.6496C38.1897 32.4459 38.2706 32.2504 38.4147 32.1063C38.5587 31.9623 38.7541 31.8813 38.9579 31.8813C39.1616 31.8813 39.3571 31.9623 39.5011 32.1063C39.6452 32.2504 39.7261 32.4459 39.7261 32.6496V39.8062C39.7261 40.01 39.6452 40.2053 39.5011 40.3494C39.3571 40.4934 39.1616 40.5744 38.9579 40.5744Z" fill="#0D72B9"/>
<path d="M41.9323 40.5741C41.7286 40.5741 41.5332 40.4932 41.3891 40.3491C41.245 40.2051 41.1641 40.0097 41.1641 39.8059V29.4884C41.1641 29.2847 41.245 29.0892 41.3891 28.9452C41.5332 28.8011 41.7286 28.7202 41.9323 28.7202C42.1361 28.7202 42.3315 28.8011 42.4755 28.9452C42.6196 29.0892 42.7005 29.2847 42.7005 29.4884V39.8059C42.7007 39.9069 42.6809 40.0068 42.6423 40.1001C42.6038 40.1933 42.5472 40.2781 42.4759 40.3494C42.4045 40.4208 42.3197 40.4774 42.2265 40.5159C42.1332 40.5545 42.0332 40.5742 41.9323 40.5741Z" fill="#0D72B9"/>
<path d="M33.0088 25.5164H24.0853C23.8816 25.5164 23.6862 25.4355 23.5421 25.2914C23.398 25.1473 23.3171 24.9519 23.3171 24.7482C23.3171 24.5444 23.398 24.349 23.5421 24.205C23.6862 24.0609 23.8816 23.98 24.0853 23.98H33.0088C33.2126 23.98 33.408 24.0609 33.552 24.205C33.6961 24.349 33.777 24.5444 33.777 24.7482C33.777 24.9519 33.6961 25.1473 33.552 25.2914C33.408 25.4355 33.2126 25.5164 33.0088 25.5164Z" fill="#0D72B9"/>
<path d="M41.9323 21.3137H24.0853C23.8816 21.3137 23.6862 21.2328 23.5421 21.0887C23.398 20.9447 23.3171 20.7493 23.3171 20.5455C23.3171 20.3418 23.398 20.1464 23.5421 20.0023C23.6862 19.8582 23.8816 19.7773 24.0853 19.7773H41.9323C42.136 19.7773 42.3314 19.8582 42.4755 20.0023C42.6196 20.1464 42.7005 20.3418 42.7005 20.5455C42.7005 20.7493 42.6196 20.9447 42.4755 21.0887C42.3314 21.2328 42.136 21.3137 41.9323 21.3137Z" fill="#0D72B9"/>
<path d="M36.141 17.1121H24.0853C23.8816 17.1121 23.6862 17.0311 23.5421 16.8871C23.398 16.743 23.3171 16.5476 23.3171 16.3439C23.3171 16.1401 23.398 15.9447 23.5421 15.8007C23.6862 15.6566 23.8816 15.5757 24.0853 15.5757H36.141C36.3448 15.5757 36.5402 15.6566 36.6842 15.8007C36.8283 15.9447 36.9093 16.1401 36.9093 16.3439C36.9093 16.5476 36.8283 16.743 36.6842 16.8871C36.5402 17.0311 36.3448 17.1121 36.141 17.1121Z" fill="#0D72B9"/>
<path d="M41.9323 17.1121H39.3716C39.1678 17.1121 38.9724 17.0311 38.8284 16.8871C38.6843 16.743 38.6034 16.5476 38.6034 16.3439C38.6034 16.1401 38.6843 15.9447 38.8284 15.8007C38.9724 15.6566 39.1678 15.5757 39.3716 15.5757H41.9323C42.136 15.5757 42.3315 15.6566 42.4755 15.8007C42.6196 15.9447 42.7005 16.1401 42.7005 16.3439C42.7005 16.5476 42.6196 16.743 42.4755 16.8871C42.3315 17.0311 42.136 17.1121 41.9323 17.1121Z" fill="#0D72B9"/>
<path d="M29.6645 48.1272H17.7306C17.5269 48.1272 17.3315 48.0463 17.1874 47.9022C17.0434 47.7582 16.9624 47.5628 16.9624 47.359C16.9624 47.1553 17.0434 46.9599 17.1874 46.8158C17.3315 46.6717 17.5269 46.5908 17.7306 46.5908H29.6645C29.8682 46.5908 30.0636 46.6717 30.2077 46.8158C30.3517 46.9599 30.4327 47.1553 30.4327 47.359C30.4327 47.5628 30.3517 47.7582 30.2077 47.9022C30.0636 48.0463 29.8682 48.1272 29.6645 48.1272Z" fill="#0D72B9"/>
<path d="M14.2297 48.1272H11.8165C11.6128 48.1272 11.4174 48.0463 11.2733 47.9022C11.1292 47.7582 11.0483 47.5628 11.0483 47.359C11.0483 47.1553 11.1292 46.9599 11.2733 46.8158C11.4174 46.6717 11.6128 46.5908 11.8165 46.5908H14.2297C14.4335 46.5908 14.6288 46.6717 14.7729 46.8158C14.917 46.9599 14.9979 47.1553 14.9979 47.359C14.9979 47.5628 14.917 47.7582 14.7729 47.9022C14.6288 48.0463 14.4335 48.1272 14.2297 48.1272Z" fill="#0D72B9"/>
</g>
<defs>
<clipPath id="clip0_29_1477">
<rect width="50" height="50" fill="white" transform="translate(0.333313 0.40625)"/>
</clipPath>
</defs>
</svg>
