<svg width="51" height="51" viewBox="0 0 51 51" fill="none" xmlns="http://www.w3.org/2000/svg">
<g clip-path="url(#clip0_29_1533)">
<path d="M39.1183 50.406H7.73098C7.52046 50.406 7.31855 50.3224 7.16969 50.1735C7.02083 50.0246 6.93719 49.8227 6.93719 49.6122V4.56966C6.93719 4.35914 7.02083 4.15724 7.16969 4.00838C7.31855 3.85951 7.52046 3.77588 7.73098 3.77588H39.1183C39.3289 3.77588 39.5308 3.85951 39.6796 4.00838C39.8285 4.15724 39.9121 4.35914 39.9121 4.56966V49.6122C39.9121 49.8227 39.8285 50.0246 39.6796 50.1735C39.5308 50.3224 39.3289 50.406 39.1183 50.406ZM8.52477 48.8184H38.3245V5.36345H8.52477V48.8184Z" fill="#0D72B9"/>
<path d="M42.3645 47.0363C42.154 47.0363 41.9521 46.9528 41.8032 46.8039C41.6543 46.655 41.5707 46.4531 41.5707 46.2426V1.99383H10.9761C10.7656 1.99383 10.5637 1.91019 10.4148 1.76133C10.2659 1.61247 10.1823 1.41056 10.1823 1.20004C10.1823 0.98951 10.2659 0.787608 10.4148 0.638744C10.5637 0.489881 10.7656 0.40625 10.9761 0.40625H42.3645C42.575 0.40625 42.7769 0.489881 42.9258 0.638744C43.0746 0.787608 43.1583 0.98951 43.1583 1.20004V46.2426C43.1583 46.4531 43.0746 46.655 42.9258 46.8039C42.7769 46.9528 42.575 47.0363 42.3645 47.0363Z" fill="#0D72B9"/>
<path d="M23.1791 25.6781C21.531 25.6781 19.9199 25.1894 18.5495 24.274C17.1792 23.3584 16.1111 22.0571 15.4802 20.5345C14.8493 19.0121 14.684 17.3366 15.0052 15.7202C15.3264 14.1037 16.1197 12.6188 17.2848 11.4531C18.4498 10.2875 19.9343 9.49343 21.5507 9.17139C23.167 8.84936 24.8425 9.01379 26.3653 9.64389C27.8882 10.274 29.19 11.3415 30.1062 12.7114C31.0225 14.0813 31.5119 15.6922 31.5127 17.3402C31.5114 19.5504 30.633 21.6697 29.0706 23.2329C27.5081 24.7962 25.3893 25.6756 23.1791 25.6781ZM23.1791 10.5993C21.8446 10.5993 20.5401 10.9952 19.4306 11.7367C18.321 12.4782 17.4564 13.5321 16.946 14.7651C16.4356 15.9981 16.3023 17.3548 16.563 18.6635C16.8237 19.9723 17.4667 21.1743 18.4108 22.1176C19.3547 23.0609 20.5573 23.7029 21.8662 23.9626C23.1752 24.2224 24.5318 24.088 25.7643 23.5766C26.997 23.0652 28.0502 22.1996 28.7909 21.0896C29.5315 19.9795 29.9262 18.6747 29.9252 17.3402C29.9218 15.5526 29.2098 13.8392 27.9453 12.5756C26.6808 11.312 24.9668 10.6013 23.1791 10.5993Z" fill="#0D72B9"/>
<path d="M20.3954 20.9222C20.2385 20.922 20.0852 20.8754 19.9548 20.7881C19.8244 20.701 19.7227 20.577 19.6627 20.4321C19.6027 20.2871 19.587 20.1276 19.6176 19.9737C19.6481 19.8198 19.7236 19.6784 19.8344 19.5675L25.4016 14.0004C25.5513 13.8559 25.7519 13.776 25.96 13.7779C26.1681 13.7798 26.3672 13.8633 26.5144 14.0106C26.6614 14.1578 26.7448 14.3569 26.7465 14.565C26.7482 14.7732 26.6681 14.9737 26.5234 15.1233L20.9563 20.6904C20.8827 20.7641 20.7953 20.8225 20.6991 20.8623C20.6027 20.902 20.4996 20.9224 20.3954 20.9222Z" fill="#0D72B9"/>
<path d="M21.5426 15.089C21.5426 15.2394 21.498 15.3863 21.4144 15.5113C21.3309 15.6363 21.2122 15.7337 21.0733 15.7912C20.9343 15.8486 20.7815 15.8636 20.6341 15.8342C20.4866 15.8049 20.3512 15.7323 20.245 15.626C20.1388 15.5196 20.0664 15.3841 20.0373 15.2366C20.008 15.0891 20.0232 14.9363 20.0809 14.7975C20.1386 14.6586 20.2361 14.54 20.3613 14.4566C20.4864 14.3733 20.6334 14.3289 20.7838 14.3291C20.9851 14.3294 21.1781 14.4096 21.3204 14.552C21.4627 14.6945 21.5426 14.8877 21.5426 15.089Z" fill="#0D72B9"/>
<path d="M26.2165 19.7623C26.2165 19.9127 26.1719 20.0598 26.0883 20.1848C26.0047 20.3098 25.886 20.4072 25.7469 20.4646C25.6079 20.5221 25.455 20.5371 25.3076 20.5075C25.1601 20.478 25.0247 20.4055 24.9185 20.299C24.8124 20.1924 24.7401 20.0569 24.7111 19.9093C24.682 19.7618 24.6973 19.609 24.7552 19.4701C24.813 19.3313 24.9108 19.2127 25.036 19.1295C25.1612 19.0462 25.3083 19.0021 25.4588 19.0024C25.6599 19.003 25.8527 19.0833 25.9947 19.2257C26.1368 19.3682 26.2165 19.5612 26.2165 19.7623Z" fill="#0D72B9"/>
<path d="M33.5024 31.6203H13.3476C13.1371 31.6203 12.9352 31.5366 12.7863 31.3877C12.6375 31.2388 12.5538 31.037 12.5538 30.8265C12.5538 30.6159 12.6375 30.414 12.7863 30.2652C12.9352 30.1163 13.1371 30.0327 13.3476 30.0327H33.5024C33.7129 30.0327 33.9147 30.1163 34.0636 30.2652C34.2125 30.414 34.2962 30.6159 34.2962 30.8265C34.2962 31.037 34.2125 31.2388 34.0636 31.3877C33.9147 31.5366 33.7129 31.6203 33.5024 31.6203Z" fill="#0D72B9"/>
<path d="M33.5024 37.5617H13.3476C13.1371 37.5617 12.9352 37.478 12.7863 37.3291C12.6375 37.1803 12.5538 36.9784 12.5538 36.7679C12.5538 36.5573 12.6375 36.3554 12.7863 36.2066C12.9352 36.0577 13.1371 35.9741 13.3476 35.9741H33.5024C33.7129 35.9741 33.9147 36.0577 34.0636 36.2066C34.2125 36.3554 34.2962 36.5573 34.2962 36.7679C34.2962 36.9784 34.2125 37.1803 34.0636 37.3291C33.9147 37.478 33.7129 37.5617 33.5024 37.5617Z" fill="#0D72B9"/>
<path d="M23.1789 43.5036H13.3476C13.1371 43.5036 12.9352 43.42 12.7863 43.2711C12.6375 43.1222 12.5538 42.9204 12.5538 42.7098C12.5538 42.4993 12.6375 42.2973 12.7863 42.1486C12.9352 41.9997 13.1371 41.916 13.3476 41.916H23.1789C23.3895 41.916 23.5913 41.9997 23.7402 42.1486C23.8891 42.2973 23.9727 42.4993 23.9727 42.7098C23.9727 42.9204 23.8891 43.1222 23.7402 43.2711C23.5913 43.42 23.3895 43.5036 23.1789 43.5036Z" fill="#0D72B9"/>
</g>
<defs>
<clipPath id="clip0_29_1533">
<rect width="50" height="50" fill="white" transform="translate(0.333313 0.40625)"/>
</clipPath>
</defs>
</svg>
