<svg width="51" height="51" viewBox="0 0 51 51" fill="none" xmlns="http://www.w3.org/2000/svg">
<g clip-path="url(#clip0_29_1467)">
<mask id="mask0_29_1467" style="mask-type:alpha" maskUnits="userSpaceOnUse" x="0" y="0" width="51" height="51">
<path d="M25.6666 50.4062C39.4737 50.4062 50.6666 39.2134 50.6666 25.4062C50.6666 11.5991 39.4737 0.40625 25.6666 0.40625C11.8595 0.40625 0.666626 11.5991 0.666626 25.4062C0.666626 39.2134 11.8595 50.4062 25.6666 50.4062Z" fill="#D9D9D9"/>
</mask>
<g mask="url(#mask0_29_1467)">
<path d="M-2.66444 -4.0278C-3.10953 -3.4158 -3.73389 -3.1098 -4.53753 -3.1098C-5.33498 -3.1098 -5.96244 -3.4158 -6.41989 -4.0278C-6.86498 -4.6398 -7.08753 -5.4558 -7.08753 -6.4758C-7.08753 -7.4958 -6.86498 -8.3118 -6.41989 -8.9238C-5.96244 -9.5358 -5.33498 -9.8418 -4.53753 -9.8418C-3.73389 -9.8418 -3.10953 -9.5358 -2.66444 -8.9238C-2.21316 -8.31798 -1.98753 -7.50198 -1.98753 -6.4758C-1.98753 -5.44961 -2.21316 -4.63361 -2.66444 -4.0278ZM-4.53753 -4.14834C-4.05534 -4.14834 -3.68753 -4.34925 -3.43407 -4.75107C-3.18062 -5.15289 -3.05389 -5.7278 -3.05389 -6.4758C-3.05389 -7.2238 -3.18062 -7.79871 -3.43407 -8.20052C-3.68753 -8.60234 -4.05534 -8.80325 -4.53753 -8.80325C-5.01353 -8.80325 -5.38134 -8.60234 -5.64098 -8.20052C-5.89444 -7.79871 -6.02116 -7.2238 -6.02116 -6.4758C-6.02116 -5.7278 -5.89444 -5.15289 -5.64098 -4.75107C-5.38134 -4.34925 -5.01353 -4.14834 -4.53753 -4.14834ZM3.1763 -4.0278C2.73121 -3.4158 2.10685 -3.1098 1.30321 -3.1098C0.505751 -3.1098 -0.121703 -3.4158 -0.579153 -4.0278C-1.02424 -4.6398 -1.24679 -5.4558 -1.24679 -6.4758C-1.24679 -7.4958 -1.02424 -8.3118 -0.579153 -8.9238C-0.121703 -9.5358 0.505751 -9.8418 1.30321 -9.8418C2.10685 -9.8418 2.73121 -9.5358 3.1763 -8.9238C3.62757 -8.31798 3.85321 -7.50198 3.85321 -6.4758C3.85321 -5.44961 3.62757 -4.63361 3.1763 -4.0278ZM1.30321 -4.14834C1.78539 -4.14834 2.15321 -4.34925 2.40666 -4.75107C2.66012 -5.15289 2.78685 -5.7278 2.78685 -6.4758C2.78685 -7.2238 2.66012 -7.79871 2.40666 -8.20052C2.15321 -8.60234 1.78539 -8.80325 1.30321 -8.80325C0.827206 -8.80325 0.459387 -8.60234 0.199751 -8.20052C-0.0537038 -7.79871 -0.180431 -7.2238 -0.180431 -6.4758C-0.180431 -5.7278 -0.0537038 -5.15289 0.199751 -4.75107C0.459387 -4.34925 0.827206 -4.14834 1.30321 -4.14834ZM9.01703 -4.0278C8.57194 -3.4158 7.94757 -3.1098 7.14394 -3.1098C6.34648 -3.1098 5.71903 -3.4158 5.26157 -4.0278C4.81648 -4.6398 4.59394 -5.4558 4.59394 -6.4758C4.59394 -7.4958 4.81648 -8.3118 5.26157 -8.9238C5.71903 -9.5358 6.34648 -9.8418 7.14394 -9.8418C7.94757 -9.8418 8.57194 -9.5358 9.01703 -8.9238C9.4683 -8.31798 9.69394 -7.50198 9.69394 -6.4758C9.69394 -5.44961 9.4683 -4.63361 9.01703 -4.0278ZM7.14394 -4.14834C7.62612 -4.14834 7.99394 -4.34925 8.24739 -4.75107C8.50085 -5.15289 8.62757 -5.7278 8.62757 -6.4758C8.62757 -7.2238 8.50085 -7.79871 8.24739 -8.20052C7.99394 -8.60234 7.62612 -8.80325 7.14394 -8.80325C6.66794 -8.80325 6.30012 -8.60234 6.04048 -8.20052C5.78703 -7.79871 5.6603 -7.2238 5.6603 -6.4758C5.6603 -5.7278 5.78703 -5.15289 6.04048 -4.75107C6.30012 -4.34925 6.66794 -4.14834 7.14394 -4.14834ZM10.0032 -9.11852L11.7094 -9.72125H12.6367V-3.23034H11.5703V-8.58071L10.2628 -8.2098L10.0032 -9.11852ZM18.1267 -4.0278C17.6817 -3.4158 17.0573 -3.1098 16.2537 -3.1098C15.4562 -3.1098 14.8287 -3.4158 14.3713 -4.0278C13.9262 -4.6398 13.7037 -5.4558 13.7037 -6.4758C13.7037 -7.4958 13.9262 -8.3118 14.3713 -8.9238C14.8287 -9.5358 15.4562 -9.8418 16.2537 -9.8418C17.0573 -9.8418 17.6817 -9.5358 18.1267 -8.9238C18.578 -8.31798 18.8037 -7.50198 18.8037 -6.4758C18.8037 -5.44961 18.578 -4.63361 18.1267 -4.0278ZM16.2537 -4.14834C16.7358 -4.14834 17.1037 -4.34925 17.3571 -4.75107C17.6106 -5.15289 17.7373 -5.7278 17.7373 -6.4758C17.7373 -7.2238 17.6106 -7.79871 17.3571 -8.20052C17.1037 -8.60234 16.7358 -8.80325 16.2537 -8.80325C15.7777 -8.80325 15.4098 -8.60234 15.1502 -8.20052C14.8967 -7.79871 14.77 -7.2238 14.77 -6.4758C14.77 -5.7278 14.8967 -5.15289 15.1502 -4.75107C15.4098 -4.34925 15.7777 -4.14834 16.2537 -4.14834ZM19.1129 -9.11852L20.8191 -9.72125H21.7464V-3.23034H20.68V-8.58071L19.3726 -8.2098L19.1129 -9.11852ZM27.2365 -4.0278C26.7914 -3.4158 26.167 -3.1098 25.3634 -3.1098C24.5659 -3.1098 23.9385 -3.4158 23.481 -4.0278C23.0359 -4.6398 22.8134 -5.4558 22.8134 -6.4758C22.8134 -7.4958 23.0359 -8.3118 23.481 -8.9238C23.9385 -9.5358 24.5659 -9.8418 25.3634 -9.8418C26.167 -9.8418 26.7914 -9.5358 27.2365 -8.9238C27.6877 -8.31798 27.9134 -7.50198 27.9134 -6.4758C27.9134 -5.44961 27.6877 -4.63361 27.2365 -4.0278ZM25.3634 -4.14834C25.8456 -4.14834 26.2134 -4.34925 26.4668 -4.75107C26.7203 -5.15289 26.847 -5.7278 26.847 -6.4758C26.847 -7.2238 26.7203 -7.79871 26.4668 -8.20052C26.2134 -8.60234 25.8456 -8.80325 25.3634 -8.80325C24.8874 -8.80325 24.5196 -8.60234 24.2599 -8.20052C24.0065 -7.79871 23.8797 -7.2238 23.8797 -6.4758C23.8797 -5.7278 24.0065 -5.15289 24.2599 -4.75107C24.5196 -4.34925 24.8874 -4.14834 25.3634 -4.14834ZM28.2227 -9.11852L29.9288 -9.72125H30.8561V-3.23034H29.7897V-8.58071L28.4823 -8.2098L28.2227 -9.11852ZM31.6728 -9.11852L33.3789 -9.72125H34.3062V-3.23034H33.2398V-8.58071L31.9324 -8.2098L31.6728 -9.11852ZM39.7963 -4.0278C39.3512 -3.4158 38.7268 -3.1098 37.9232 -3.1098C37.1258 -3.1098 36.4983 -3.4158 36.0408 -4.0278C35.5958 -4.6398 35.3732 -5.4558 35.3732 -6.4758C35.3732 -7.4958 35.5958 -8.3118 36.0408 -8.9238C36.4983 -9.5358 37.1258 -9.8418 37.9232 -9.8418C38.7268 -9.8418 39.3512 -9.5358 39.7963 -8.9238C40.2476 -8.31798 40.4732 -7.50198 40.4732 -6.4758C40.4732 -5.44961 40.2476 -4.63361 39.7963 -4.0278ZM37.9232 -4.14834C38.4054 -4.14834 38.7732 -4.34925 39.0267 -4.75107C39.2801 -5.15289 39.4068 -5.7278 39.4068 -6.4758C39.4068 -7.2238 39.2801 -7.79871 39.0267 -8.20052C38.7732 -8.60234 38.4054 -8.80325 37.9232 -8.80325C37.4472 -8.80325 37.0794 -8.60234 36.8198 -8.20052C36.5663 -7.79871 36.4396 -7.2238 36.4396 -6.4758C36.4396 -5.7278 36.5663 -5.15289 36.8198 -4.75107C37.0794 -4.34925 37.4472 -4.14834 37.9232 -4.14834ZM45.637 -4.0278C45.1919 -3.4158 44.5676 -3.1098 43.7639 -3.1098C42.9665 -3.1098 42.339 -3.4158 41.8816 -4.0278C41.4365 -4.6398 41.2139 -5.4558 41.2139 -6.4758C41.2139 -7.4958 41.4365 -8.3118 41.8816 -8.9238C42.339 -9.5358 42.9665 -9.8418 43.7639 -9.8418C44.5676 -9.8418 45.1919 -9.5358 45.637 -8.9238C46.0883 -8.31798 46.3139 -7.50198 46.3139 -6.4758C46.3139 -5.44961 46.0883 -4.63361 45.637 -4.0278ZM43.7639 -4.14834C44.2461 -4.14834 44.6139 -4.34925 44.8674 -4.75107C45.1208 -5.15289 45.2476 -5.7278 45.2476 -6.4758C45.2476 -7.2238 45.1208 -7.79871 44.8674 -8.20052C44.6139 -8.60234 44.2461 -8.80325 43.7639 -8.80325C43.2879 -8.80325 42.9201 -8.60234 42.6605 -8.20052C42.407 -7.79871 42.2803 -7.2238 42.2803 -6.4758C42.2803 -5.7278 42.407 -5.15289 42.6605 -4.75107C42.9201 -4.34925 43.2879 -4.14834 43.7639 -4.14834ZM46.6232 -9.11852L48.3294 -9.72125H49.2567V-3.23034H48.1903V-8.58071L46.8828 -8.2098L46.6232 -9.11852ZM50.0733 -9.11852L51.7795 -9.72125H52.7068V-3.23034H51.6404V-8.58071L50.3329 -8.2098L50.0733 -9.11852ZM53.5235 -9.11852L55.2297 -9.72125H56.1569V-3.23034H55.0906V-8.58071L53.7831 -8.2098L53.5235 -9.11852ZM56.9736 -9.11852L58.6797 -9.72125H59.607V-3.23034H58.5407V-8.58071L57.2332 -8.2098L56.9736 -9.11852ZM-7.33789 -0.936706L-5.63171 -1.53943H-4.70444V4.95148H-5.7708V-0.398888L-7.07825 -0.027977L-7.33789 -0.936706ZM0.785672 4.15402C0.340581 4.76602 -0.283781 5.07202 -1.08742 5.07202C-1.88487 5.07202 -2.51233 4.76602 -2.96978 4.15402C-3.41487 3.54202 -3.63742 2.72602 -3.63742 1.70602C-3.63742 0.686022 -3.41487 -0.129979 -2.96978 -0.741978C-2.51233 -1.35398 -1.88487 -1.65998 -1.08742 -1.65998C-0.283781 -1.65998 0.340581 -1.35398 0.785672 -0.741978C1.23694 -0.136161 1.46258 0.67984 1.46258 1.70602C1.46258 2.7322 1.23694 3.5482 0.785672 4.15402ZM-1.08742 4.03348C-0.605235 4.03348 -0.237419 3.83257 0.0160356 3.43075C0.26949 3.02893 0.396217 2.45402 0.396217 1.70602C0.396217 0.958022 0.26949 0.383113 0.0160356 -0.0187063C-0.237419 -0.420525 -0.605235 -0.621432 -1.08742 -0.621432C-1.56342 -0.621432 -1.93124 -0.420525 -2.19087 -0.0187063C-2.44433 0.383113 -2.57105 0.958022 -2.57105 1.70602C-2.57105 2.45402 -2.44433 3.02893 -2.19087 3.43075C-1.93124 3.83257 -1.56342 4.03348 -1.08742 4.03348ZM1.77184 -0.936706L3.47802 -1.53943H4.40529V4.95148H3.33893V-0.398888L2.03147 -0.027977L1.77184 -0.936706ZM9.89538 4.15402C9.45031 4.76602 8.82595 5.07202 8.02231 5.07202C7.22486 5.07202 6.5974 4.76602 6.13995 4.15402C5.69486 3.54202 5.47231 2.72602 5.47231 1.70602C5.47231 0.686022 5.69486 -0.129979 6.13995 -0.741978C6.5974 -1.35398 7.22486 -1.65998 8.02231 -1.65998C8.82595 -1.65998 9.45031 -1.35398 9.89538 -0.741978C10.3467 -0.136161 10.5723 0.67984 10.5723 1.70602C10.5723 2.7322 10.3467 3.5482 9.89538 4.15402ZM8.02231 4.03348C8.50449 4.03348 8.87231 3.83257 9.12576 3.43075C9.37922 3.02893 9.50595 2.45402 9.50595 1.70602C9.50595 0.958022 9.37922 0.383113 9.12576 -0.0187063C8.87231 -0.420525 8.50449 -0.621432 8.02231 -0.621432C7.54631 -0.621432 7.17849 -0.420525 6.91886 -0.0187063C6.6654 0.383113 6.53867 0.958022 6.53867 1.70602C6.53867 2.45402 6.6654 3.02893 6.91886 3.43075C7.17849 3.83257 7.54631 4.03348 8.02231 4.03348ZM15.7361 4.15402C15.291 4.76602 14.6667 5.07202 13.863 5.07202C13.0656 5.07202 12.4381 4.76602 11.9807 4.15402C11.5356 3.54202 11.313 2.72602 11.313 1.70602C11.313 0.686022 11.5356 -0.129979 11.9807 -0.741978C12.4381 -1.35398 13.0656 -1.65998 13.863 -1.65998C14.6667 -1.65998 15.291 -1.35398 15.7361 -0.741978C16.1874 -0.136161 16.413 0.67984 16.413 1.70602C16.413 2.7322 16.1874 3.5482 15.7361 4.15402ZM13.863 4.03348C14.3452 4.03348 14.713 3.83257 14.9665 3.43075C15.2199 3.02893 15.3467 2.45402 15.3467 1.70602C15.3467 0.958022 15.2199 0.383113 14.9665 -0.0187063C14.713 -0.420525 14.3452 -0.621432 13.863 -0.621432C13.387 -0.621432 13.0192 -0.420525 12.7596 -0.0187063C12.5061 0.383113 12.3794 0.958022 12.3794 1.70602C12.3794 2.45402 12.5061 3.02893 12.7596 3.43075C13.0192 3.83257 13.387 4.03348 13.863 4.03348ZM16.7223 -0.936706L18.4285 -1.53943H19.3557V4.95148H18.2894V-0.398888L16.9819 -0.027977L16.7223 -0.936706ZM20.1724 -0.936706L21.8786 -1.53943H22.8058V4.95148H21.7395V-0.398888L20.432 -0.027977L20.1724 -0.936706ZM23.6225 -0.936706L25.3287 -1.53943H26.2559V4.95148H25.1896V-0.398888L23.8821 -0.027977L23.6225 -0.936706ZM31.7461 4.15402C31.301 4.76602 30.6767 5.07202 29.873 5.07202C29.0756 5.07202 28.4481 4.76602 27.9907 4.15402C27.5456 3.54202 27.323 2.72602 27.323 1.70602C27.323 0.686022 27.5456 -0.129979 27.9907 -0.741978C28.4481 -1.35398 29.0756 -1.65998 29.873 -1.65998C30.6767 -1.65998 31.301 -1.35398 31.7461 -0.741978C32.1974 -0.136161 32.423 0.67984 32.423 1.70602C32.423 2.7322 32.1974 3.5482 31.7461 4.15402ZM29.873 4.03348C30.3552 4.03348 30.723 3.83257 30.9765 3.43075C31.2299 3.02893 31.3567 2.45402 31.3567 1.70602C31.3567 0.958022 31.2299 0.383113 30.9765 -0.0187063C30.723 -0.420525 30.3552 -0.621432 29.873 -0.621432C29.397 -0.621432 29.0292 -0.420525 28.7696 -0.0187063C28.5161 0.383113 28.3894 0.958022 28.3894 1.70602C28.3894 2.45402 28.5161 3.02893 28.7696 3.43075C29.0292 3.83257 29.397 4.03348 29.873 4.03348ZM32.7323 -0.936706L34.4385 -1.53943H35.3658V4.95148H34.2994V-0.398888L32.9919 -0.027977L32.7323 -0.936706ZM40.8558 4.15402C40.4108 4.76602 39.7864 5.07202 38.9827 5.07202C38.1853 5.07202 37.5578 4.76602 37.1004 4.15402C36.6553 3.54202 36.4328 2.72602 36.4328 1.70602C36.4328 0.686022 36.6553 -0.129979 37.1004 -0.741978C37.5578 -1.35398 38.1853 -1.65998 38.9827 -1.65998C39.7864 -1.65998 40.4108 -1.35398 40.8558 -0.741978C41.3071 -0.136161 41.5328 0.67984 41.5328 1.70602C41.5328 2.7322 41.3071 3.5482 40.8558 4.15402ZM38.9827 4.03348C39.4649 4.03348 39.8327 3.83257 40.0862 3.43075C40.3397 3.02893 40.4664 2.45402 40.4664 1.70602C40.4664 0.958022 40.3397 0.383113 40.0862 -0.0187063C39.8327 -0.420525 39.4649 -0.621432 38.9827 -0.621432C38.5068 -0.621432 38.1389 -0.420525 37.8793 -0.0187063C37.6258 0.383113 37.4991 0.958022 37.4991 1.70602C37.4991 2.45402 37.6258 3.02893 37.8793 3.43075C38.1389 3.83257 38.5068 4.03348 38.9827 4.03348ZM41.842 -0.936706L43.5482 -1.53943H44.4755V4.95148H43.4091V-0.398888L42.1017 -0.027977L41.842 -0.936706ZM49.9656 4.15402C49.5205 4.76602 48.8961 5.07202 48.0925 5.07202C47.295 5.07202 46.6676 4.76602 46.2101 4.15402C45.765 3.54202 45.5425 2.72602 45.5425 1.70602C45.5425 0.686022 45.765 -0.129979 46.2101 -0.741978C46.6676 -1.35398 47.295 -1.65998 48.0925 -1.65998C48.8961 -1.65998 49.5205 -1.35398 49.9656 -0.741978C50.4168 -0.136161 50.6425 0.67984 50.6425 1.70602C50.6425 2.7322 50.4168 3.5482 49.9656 4.15402ZM48.0925 4.03348C48.5747 4.03348 48.9425 3.83257 49.1959 3.43075C49.4494 3.02893 49.5761 2.45402 49.5761 1.70602C49.5761 0.958022 49.4494 0.383113 49.1959 -0.0187063C48.9425 -0.420525 48.5747 -0.621432 48.0925 -0.621432C47.6165 -0.621432 47.2487 -0.420525 46.989 -0.0187063C46.7356 0.383113 46.6088 0.958022 46.6088 1.70602C46.6088 2.45402 46.7356 3.02893 46.989 3.43075C47.2487 3.83257 47.6165 4.03348 48.0925 4.03348ZM50.9518 -0.936706L52.6579 -1.53943H53.5852V4.95148H52.5188V-0.398888L51.2114 -0.027977L50.9518 -0.936706ZM59.0753 4.15402C58.6302 4.76602 58.0058 5.07202 57.2022 5.07202C56.4048 5.07202 55.7773 4.76602 55.3198 4.15402C54.8748 3.54202 54.6522 2.72602 54.6522 1.70602C54.6522 0.686022 54.8748 -0.129979 55.3198 -0.741978C55.7773 -1.35398 56.4048 -1.65998 57.2022 -1.65998C58.0058 -1.65998 58.6302 -1.35398 59.0753 -0.741978C59.5266 -0.136161 59.7522 0.67984 59.7522 1.70602C59.7522 2.7322 59.5266 3.5482 59.0753 4.15402ZM57.2022 4.03348C57.6844 4.03348 58.0522 3.83257 58.3057 3.43075C58.5591 3.02893 58.6858 2.45402 58.6858 1.70602C58.6858 0.958022 58.5591 0.383113 58.3057 -0.0187063C58.0522 -0.420525 57.6844 -0.621432 57.2022 -0.621432C56.7262 -0.621432 56.3584 -0.420525 56.0987 -0.0187063C55.8453 0.383113 55.7186 0.958022 55.7186 1.70602C55.7186 2.45402 55.8453 3.02893 56.0987 3.43075C56.3584 3.83257 56.7262 4.03348 57.2022 4.03348ZM-2.66444 12.3358C-3.10953 12.9478 -3.73389 13.2538 -4.53753 13.2538C-5.33498 13.2538 -5.96244 12.9478 -6.41989 12.3358C-6.86498 11.7238 -7.08753 10.9078 -7.08753 9.88784C-7.08753 8.86784 -6.86498 8.05184 -6.41989 7.43984C-5.96244 6.82784 -5.33498 6.52184 -4.53753 6.52184C-3.73389 6.52184 -3.10953 6.82784 -2.66444 7.43984C-2.21316 8.04566 -1.98753 8.86166 -1.98753 9.88784C-1.98753 10.914 -2.21316 11.73 -2.66444 12.3358ZM-4.53753 12.2153C-4.05534 12.2153 -3.68753 12.0144 -3.43407 11.6126C-3.18062 11.2108 -3.05389 10.6358 -3.05389 9.88784C-3.05389 9.13984 -3.18062 8.56493 -3.43407 8.16311C-3.68753 7.7613 -4.05534 7.56039 -4.53753 7.56039C-5.01353 7.56039 -5.38134 7.7613 -5.64098 8.16311C-5.89444 8.56493 -6.02116 9.13984 -6.02116 9.88784C-6.02116 10.6358 -5.89444 11.2108 -5.64098 11.6126C-5.38134 12.0144 -5.01353 12.2153 -4.53753 12.2153ZM3.1763 12.3358C2.73121 12.9478 2.10685 13.2538 1.30321 13.2538C0.505751 13.2538 -0.121703 12.9478 -0.579153 12.3358C-1.02424 11.7238 -1.24679 10.9078 -1.24679 9.88784C-1.24679 8.86784 -1.02424 8.05184 -0.579153 7.43984C-0.121703 6.82784 0.505751 6.52184 1.30321 6.52184C2.10685 6.52184 2.73121 6.82784 3.1763 7.43984C3.62757 8.04566 3.85321 8.86166 3.85321 9.88784C3.85321 10.914 3.62757 11.73 3.1763 12.3358ZM1.30321 12.2153C1.78539 12.2153 2.15321 12.0144 2.40666 11.6126C2.66012 11.2108 2.78685 10.6358 2.78685 9.88784C2.78685 9.13984 2.66012 8.56493 2.40666 8.16311C2.15321 7.7613 1.78539 7.56039 1.30321 7.56039C0.827206 7.56039 0.459387 7.7613 0.199751 8.16311C-0.0537038 8.56493 -0.180431 9.13984 -0.180431 9.88784C-0.180431 10.6358 -0.0537038 11.2108 0.199751 11.6126C0.459387 12.0144 0.827206 12.2153 1.30321 12.2153ZM9.01703 12.3358C8.57194 12.9478 7.94757 13.2538 7.14394 13.2538C6.34648 13.2538 5.71903 12.9478 5.26157 12.3358C4.81648 11.7238 4.59394 10.9078 4.59394 9.88784C4.59394 8.86784 4.81648 8.05184 5.26157 7.43984C5.71903 6.82784 6.34648 6.52184 7.14394 6.52184C7.94757 6.52184 8.57194 6.82784 9.01703 7.43984C9.4683 8.04566 9.69394 8.86166 9.69394 9.88784C9.69394 10.914 9.4683 11.73 9.01703 12.3358ZM7.14394 12.2153C7.62612 12.2153 7.99394 12.0144 8.24739 11.6126C8.50085 11.2108 8.62757 10.6358 8.62757 9.88784C8.62757 9.13984 8.50085 8.56493 8.24739 8.16311C7.99394 7.7613 7.62612 7.56039 7.14394 7.56039C6.66794 7.56039 6.30012 7.7613 6.04048 8.16311C5.78703 8.56493 5.6603 9.13984 5.6603 9.88784C5.6603 10.6358 5.78703 11.2108 6.04048 11.6126C6.30012 12.0144 6.66794 12.2153 7.14394 12.2153ZM10.0032 7.24512L11.7094 6.64239H12.6367V13.1333H11.5703V7.78293L10.2628 8.15384L10.0032 7.24512ZM13.4533 7.24512L15.1595 6.64239H16.0868V13.1333H15.0204V7.78293L13.7129 8.15384L13.4533 7.24512ZM21.5768 12.3358C21.1318 12.9478 20.5074 13.2538 19.7037 13.2538C18.9063 13.2538 18.2788 12.9478 17.8214 12.3358C17.3763 11.7238 17.1537 10.9078 17.1537 9.88784C17.1537 8.86784 17.3763 8.05184 17.8214 7.43984C18.2788 6.82784 18.9063 6.52184 19.7037 6.52184C20.5074 6.52184 21.1318 6.82784 21.5768 7.43984C22.0281 8.04566 22.2537 8.86166 22.2537 9.88784C22.2537 10.914 22.0281 11.73 21.5768 12.3358ZM19.7037 12.2153C20.1859 12.2153 20.5537 12.0144 20.8072 11.6126C21.0607 11.2108 21.1874 10.6358 21.1874 9.88784C21.1874 9.13984 21.0607 8.56493 20.8072 8.16311C20.5537 7.7613 20.1859 7.56039 19.7037 7.56039C19.2277 7.56039 18.8599 7.7613 18.6003 8.16311C18.3468 8.56493 18.2201 9.13984 18.2201 9.88784C18.2201 10.6358 18.3468 11.2108 18.6003 11.6126C18.8599 12.0144 19.2277 12.2153 19.7037 12.2153ZM22.563 7.24512L24.2692 6.64239H25.1965V13.1333H24.1301V7.78293L22.8227 8.15384L22.563 7.24512ZM26.0131 7.24512L27.7193 6.64239H28.6466V13.1333H27.5802V7.78293L26.2727 8.15384L26.0131 7.24512ZM34.1367 12.3358C33.6917 12.9478 33.0673 13.2538 32.2637 13.2538C31.4662 13.2538 30.8387 12.9478 30.3813 12.3358C29.9362 11.7238 29.7137 10.9078 29.7137 9.88784C29.7137 8.86784 29.9362 8.05184 30.3813 7.43984C30.8387 6.82784 31.4662 6.52184 32.2637 6.52184C33.0673 6.52184 33.6917 6.82784 34.1367 7.43984C34.588 8.04566 34.8137 8.86166 34.8137 9.88784C34.8137 10.914 34.588 11.73 34.1367 12.3358ZM32.2637 12.2153C32.7458 12.2153 33.1137 12.0144 33.3671 11.6126C33.6206 11.2108 33.7473 10.6358 33.7473 9.88784C33.7473 9.13984 33.6206 8.56493 33.3671 8.16311C33.1137 7.7613 32.7458 7.56039 32.2637 7.56039C31.7877 7.56039 31.4198 7.7613 31.1602 8.16311C30.9067 8.56493 30.78 9.13984 30.78 9.88784C30.78 10.6358 30.9067 11.2108 31.1602 11.6126C31.4198 12.0144 31.7877 12.2153 32.2637 12.2153ZM35.1228 7.24512L36.829 6.64239H37.7563V13.1333H36.6899V7.78293L35.3825 8.15384L35.1228 7.24512ZM43.2465 12.3358C42.8014 12.9478 42.177 13.2538 41.3734 13.2538C40.5759 13.2538 39.9485 12.9478 39.491 12.3358C39.0459 11.7238 38.8234 10.9078 38.8234 9.88784C38.8234 8.86784 39.0459 8.05184 39.491 7.43984C39.9485 6.82784 40.5759 6.52184 41.3734 6.52184C42.177 6.52184 42.8014 6.82784 43.2465 7.43984C43.6978 8.04566 43.9234 8.86166 43.9234 9.88784C43.9234 10.914 43.6978 11.73 43.2465 12.3358ZM41.3734 12.2153C41.8556 12.2153 42.2234 12.0144 42.4768 11.6126C42.7303 11.2108 42.857 10.6358 42.857 9.88784C42.857 9.13984 42.7303 8.56493 42.4768 8.16311C42.2234 7.7613 41.8556 7.56039 41.3734 7.56039C40.8974 7.56039 40.5296 7.7613 40.2699 8.16311C40.0165 8.56493 39.8898 9.13984 39.8898 9.88784C39.8898 10.6358 40.0165 11.2108 40.2699 11.6126C40.5296 12.0144 40.8974 12.2153 41.3734 12.2153ZM44.2326 7.24512L45.9388 6.64239H46.866V13.1333H45.7997V7.78293L44.4922 8.15384L44.2326 7.24512ZM52.3562 12.3358C51.9111 12.9478 51.2868 13.2538 50.4831 13.2538C49.6857 13.2538 49.0582 12.9478 48.6008 12.3358C48.1557 11.7238 47.9331 10.9078 47.9331 9.88784C47.9331 8.86784 48.1557 8.05184 48.6008 7.43984C49.0582 6.82784 49.6857 6.52184 50.4831 6.52184C51.2868 6.52184 51.9111 6.82784 52.3562 7.43984C52.8075 8.04566 53.0331 8.86166 53.0331 9.88784C53.0331 10.914 52.8075 11.73 52.3562 12.3358ZM50.4831 12.2153C50.9653 12.2153 51.3331 12.0144 51.5866 11.6126C51.84 11.2108 51.9668 10.6358 51.9668 9.88784C51.9668 9.13984 51.84 8.56493 51.5866 8.16311C51.3331 7.7613 50.9653 7.56039 50.4831 7.56039C50.0071 7.56039 49.6393 7.7613 49.3797 8.16311C49.1262 8.56493 48.9995 9.13984 48.9995 9.88784C48.9995 10.6358 49.1262 11.2108 49.3797 11.6126C49.6393 12.0144 50.0071 12.2153 50.4831 12.2153ZM53.3423 7.24512L55.0485 6.64239H55.9757V13.1333H54.9094V7.78293L53.6019 8.15384L53.3423 7.24512ZM56.7925 7.24512L58.4987 6.64239H59.4259V13.1333H58.3596V7.78293L57.0521 8.15384L56.7925 7.24512ZM-7.33789 15.4269L-5.63171 14.8242H-4.70444V21.3151H-5.7708V15.9648L-7.07825 16.3357L-7.33789 15.4269ZM-3.88778 15.4269L-2.1816 14.8242H-1.25433V21.3151H-2.32069V15.9648L-3.62814 16.3357L-3.88778 15.4269ZM4.23578 20.5177C3.79069 21.1297 3.16633 21.4357 2.36269 21.4357C1.56523 21.4357 0.937778 21.1297 0.480323 20.5177C0.0352325 19.9057 -0.187313 19.0897 -0.187313 18.0697C-0.187313 17.0497 0.0352325 16.2337 0.480323 15.6217C0.937778 15.0097 1.56523 14.7037 2.36269 14.7037C3.16633 14.7037 3.79069 15.0097 4.23578 15.6217C4.68706 16.2275 4.91269 17.0435 4.91269 18.0697C4.91269 19.0958 4.68706 19.9118 4.23578 20.5177ZM2.36269 20.3971C2.84487 20.3971 3.21269 20.1962 3.46615 19.7944C3.7196 19.3926 3.84633 18.8177 3.84633 18.0697C3.84633 17.3217 3.7196 16.7468 3.46615 16.3449C3.21269 15.9431 2.84487 15.7422 2.36269 15.7422C1.88669 15.7422 1.51887 15.9431 1.25923 16.3449C1.00578 16.7468 0.879051 17.3217 0.879051 18.0697C0.879051 18.8177 1.00578 19.3926 1.25923 19.7944C1.51887 20.1962 1.88669 20.3971 2.36269 20.3971ZM5.22195 15.4269L6.92813 14.8242H7.8554V21.3151H6.78904V15.9648L5.48158 16.3357L5.22195 15.4269ZM13.3455 20.5177C12.9004 21.1297 12.276 21.4357 11.4724 21.4357C10.6749 21.4357 10.0475 21.1297 9.59006 20.5177C9.14496 19.9057 8.92242 19.0897 8.92242 18.0697C8.92242 17.0497 9.14496 16.2337 9.59006 15.6217C10.0475 15.0097 10.6749 14.7037 11.4724 14.7037C12.276 14.7037 12.9004 15.0097 13.3455 15.6217C13.7967 16.2275 14.0224 17.0435 14.0224 18.0697C14.0224 19.0958 13.7967 19.9118 13.3455 20.5177ZM11.4724 20.3971C11.9546 20.3971 12.3224 20.1962 12.5758 19.7944C12.8293 19.3926 12.956 18.8177 12.956 18.0697C12.956 17.3217 12.8293 16.7468 12.5758 16.3449C12.3224 15.9431 11.9546 15.7422 11.4724 15.7422C10.9964 15.7422 10.6286 15.9431 10.3689 16.3449C10.1155 16.7468 9.98875 17.3217 9.98875 18.0697C9.98875 18.8177 10.1155 19.3926 10.3689 19.7944C10.6286 20.1962 10.9964 20.3971 11.4724 20.3971ZM14.3317 15.4269L16.0378 14.8242H16.9651V21.3151H15.8987V15.9648L14.5913 16.3357L14.3317 15.4269ZM22.4552 20.5177C22.0101 21.1297 21.3857 21.4357 20.5821 21.4357C19.7847 21.4357 19.1572 21.1297 18.6997 20.5177C18.2547 19.9057 18.0321 19.0897 18.0321 18.0697C18.0321 17.0497 18.2547 16.2337 18.6997 15.6217C19.1572 15.0097 19.7847 14.7037 20.5821 14.7037C21.3857 14.7037 22.0101 15.0097 22.4552 15.6217C22.9065 16.2275 23.1321 17.0435 23.1321 18.0697C23.1321 19.0958 22.9065 19.9118 22.4552 20.5177ZM20.5821 20.3971C21.0643 20.3971 21.4321 20.1962 21.6856 19.7944C21.939 19.3926 22.0658 18.8177 22.0658 18.0697C22.0658 17.3217 21.939 16.7468 21.6856 16.3449C21.4321 15.9431 21.0643 15.7422 20.5821 15.7422C20.1061 15.7422 19.7383 15.9431 19.4787 16.3449C19.2252 16.7468 19.0985 17.3217 19.0985 18.0697C19.0985 18.8177 19.2252 19.3926 19.4787 19.7944C19.7383 20.1962 20.1061 20.3971 20.5821 20.3971ZM23.4414 15.4269L25.1476 14.8242H26.0748V21.3151H25.0085V15.9648L23.701 16.3357L23.4414 15.4269ZM31.5649 20.5177C31.1198 21.1297 30.4955 21.4357 29.6918 21.4357C28.8944 21.4357 28.2669 21.1297 27.8095 20.5177C27.3644 19.9057 27.1418 19.0897 27.1418 18.0697C27.1418 17.0497 27.3644 16.2337 27.8095 15.6217C28.2669 15.0097 28.8944 14.7037 29.6918 14.7037C30.4955 14.7037 31.1198 15.0097 31.5649 15.6217C32.0162 16.2275 32.2418 17.0435 32.2418 18.0697C32.2418 19.0958 32.0162 19.9118 31.5649 20.5177ZM29.6918 20.3971C30.174 20.3971 30.5418 20.1962 30.7953 19.7944C31.0488 19.3926 31.1755 18.8177 31.1755 18.0697C31.1755 17.3217 31.0488 16.7468 30.7953 16.3449C30.5418 15.9431 30.174 15.7422 29.6918 15.7422C29.2158 15.7422 28.848 15.9431 28.5884 16.3449C28.3349 16.7468 28.2082 17.3217 28.2082 18.0697C28.2082 18.8177 28.3349 19.3926 28.5884 19.7944C28.848 20.1962 29.2158 20.3971 29.6918 20.3971ZM32.5511 15.4269L34.2573 14.8242H35.1846V21.3151H34.1182V15.9648L32.8108 16.3357L32.5511 15.4269ZM40.6748 20.5177C40.2297 21.1297 39.6053 21.4357 38.8017 21.4357C38.0042 21.4357 37.3768 21.1297 36.9193 20.5177C36.4742 19.9057 36.2516 19.0897 36.2516 18.0697C36.2516 17.0497 36.4742 16.2337 36.9193 15.6217C37.3768 15.0097 38.0042 14.7037 38.8017 14.7037C39.6053 14.7037 40.2297 15.0097 40.6748 15.6217C41.126 16.2275 41.3517 17.0435 41.3517 18.0697C41.3517 19.0958 41.126 19.9118 40.6748 20.5177ZM38.8017 20.3971C39.2838 20.3971 39.6517 20.1962 39.9051 19.7944C40.1586 19.3926 40.2853 18.8177 40.2853 18.0697C40.2853 17.3217 40.1586 16.7468 39.9051 16.3449C39.6517 15.9431 39.2838 15.7422 38.8017 15.7422C38.3257 15.7422 37.9578 15.9431 37.6982 16.3449C37.4447 16.7468 37.318 17.3217 37.318 18.0697C37.318 18.8177 37.4447 19.3926 37.6982 19.7944C37.9578 20.1962 38.3257 20.3971 38.8017 20.3971ZM41.6608 15.4269L43.367 14.8242H44.2943V21.3151H43.2279V15.9648L41.9205 16.3357L41.6608 15.4269ZM45.111 15.4269L46.8172 14.8242H47.7445V21.3151H46.6781V15.9648L45.3707 16.3357L45.111 15.4269ZM48.5611 15.4269L50.2673 14.8242H51.1946V21.3151H50.1282V15.9648L48.8208 16.3357L48.5611 15.4269ZM52.0112 15.4269L53.7174 14.8242H54.6447V21.3151H53.5783V15.9648L52.2708 16.3357L52.0112 15.4269ZM60.1348 20.5177C59.6897 21.1297 59.0653 21.4357 58.2617 21.4357C57.4642 21.4357 56.8367 21.1297 56.3793 20.5177C55.9342 19.9057 55.7117 19.0897 55.7117 18.0697C55.7117 17.0497 55.9342 16.2337 56.3793 15.6217C56.8367 15.0097 57.4642 14.7037 58.2617 14.7037C59.0653 14.7037 59.6897 15.0097 60.1348 15.6217C60.586 16.2275 60.8117 17.0435 60.8117 18.0697C60.8117 19.0958 60.586 19.9118 60.1348 20.5177ZM58.2617 20.3971C58.7438 20.3971 59.1117 20.1962 59.3651 19.7944C59.6186 19.3926 59.7453 18.8177 59.7453 18.0697C59.7453 17.3217 59.6186 16.7468 59.3651 16.3449C59.1117 15.9431 58.7438 15.7422 58.2617 15.7422C57.7857 15.7422 57.4178 15.9431 57.1582 16.3449C56.9048 16.7468 56.778 17.3217 56.778 18.0697C56.778 18.8177 56.9048 19.3926 57.1582 19.7944C57.4178 20.1962 57.7857 20.3971 58.2617 20.3971ZM-2.66444 28.6995C-3.10953 29.3115 -3.73389 29.6175 -4.53753 29.6175C-5.33498 29.6175 -5.96244 29.3115 -6.41989 28.6995C-6.86498 28.0875 -7.08753 27.2715 -7.08753 26.2515C-7.08753 25.2315 -6.86498 24.4155 -6.41989 23.8035C-5.96244 23.1915 -5.33498 22.8855 -4.53753 22.8855C-3.73389 22.8855 -3.10953 23.1915 -2.66444 23.8035C-2.21316 24.4093 -1.98753 25.2253 -1.98753 26.2515C-1.98753 27.2777 -2.21316 28.0937 -2.66444 28.6995ZM-4.53753 28.5789C-4.05534 28.5789 -3.68753 28.378 -3.43407 27.9762C-3.18062 27.5744 -3.05389 26.9995 -3.05389 26.2515C-3.05389 25.5035 -3.18062 24.9286 -3.43407 24.5268C-3.68753 24.1249 -4.05534 23.924 -4.53753 23.924C-5.01353 23.924 -5.38134 24.1249 -5.64098 24.5268C-5.89444 24.9286 -6.02116 25.5035 -6.02116 26.2515C-6.02116 26.9995 -5.89444 27.5744 -5.64098 27.9762C-5.38134 28.378 -5.01353 28.5789 -4.53753 28.5789ZM3.1763 28.6995C2.73121 29.3115 2.10685 29.6175 1.30321 29.6175C0.505751 29.6175 -0.121703 29.3115 -0.579153 28.6995C-1.02424 28.0875 -1.24679 27.2715 -1.24679 26.2515C-1.24679 25.2315 -1.02424 24.4155 -0.579153 23.8035C-0.121703 23.1915 0.505751 22.8855 1.30321 22.8855C2.10685 22.8855 2.73121 23.1915 3.1763 23.8035C3.62757 24.4093 3.85321 25.2253 3.85321 26.2515C3.85321 27.2777 3.62757 28.0937 3.1763 28.6995ZM1.30321 28.5789C1.78539 28.5789 2.15321 28.378 2.40666 27.9762C2.66012 27.5744 2.78685 26.9995 2.78685 26.2515C2.78685 25.5035 2.66012 24.9286 2.40666 24.5268C2.15321 24.1249 1.78539 23.924 1.30321 23.924C0.827206 23.924 0.459387 24.1249 0.199751 24.5268C-0.0537038 24.9286 -0.180431 25.5035 -0.180431 26.2515C-0.180431 26.9995 -0.0537038 27.5744 0.199751 27.9762C0.459387 28.378 0.827206 28.5789 1.30321 28.5789ZM9.01703 28.6995C8.57194 29.3115 7.94757 29.6175 7.14394 29.6175C6.34648 29.6175 5.71903 29.3115 5.26157 28.6995C4.81648 28.0875 4.59394 27.2715 4.59394 26.2515C4.59394 25.2315 4.81648 24.4155 5.26157 23.8035C5.71903 23.1915 6.34648 22.8855 7.14394 22.8855C7.94757 22.8855 8.57194 23.1915 9.01703 23.8035C9.4683 24.4093 9.69394 25.2253 9.69394 26.2515C9.69394 27.2777 9.4683 28.0937 9.01703 28.6995ZM7.14394 28.5789C7.62612 28.5789 7.99394 28.378 8.24739 27.9762C8.50085 27.5744 8.62757 26.9995 8.62757 26.2515C8.62757 25.5035 8.50085 24.9286 8.24739 24.5268C7.99394 24.1249 7.62612 23.924 7.14394 23.924C6.66794 23.924 6.30012 24.1249 6.04048 24.5268C5.78703 24.9286 5.6603 25.5035 5.6603 26.2515C5.6603 26.9995 5.78703 27.5744 6.04048 27.9762C6.30012 28.378 6.66794 28.5789 7.14394 28.5789ZM10.0032 23.6088L11.7094 23.006H12.6367V29.4969H11.5703V24.1466L10.2628 24.5175L10.0032 23.6088ZM18.1267 28.6995C17.6817 29.3115 17.0573 29.6175 16.2537 29.6175C15.4562 29.6175 14.8287 29.3115 14.3713 28.6995C13.9262 28.0875 13.7037 27.2715 13.7037 26.2515C13.7037 25.2315 13.9262 24.4155 14.3713 23.8035C14.8287 23.1915 15.4562 22.8855 16.2537 22.8855C17.0573 22.8855 17.6817 23.1915 18.1267 23.8035C18.578 24.4093 18.8037 25.2253 18.8037 26.2515C18.8037 27.2777 18.578 28.0937 18.1267 28.6995ZM16.2537 28.5789C16.7358 28.5789 17.1037 28.378 17.3571 27.9762C17.6106 27.5744 17.7373 26.9995 17.7373 26.2515C17.7373 25.5035 17.6106 24.9286 17.3571 24.5268C17.1037 24.1249 16.7358 23.924 16.2537 23.924C15.7777 23.924 15.4098 24.1249 15.1502 24.5268C14.8967 24.9286 14.77 25.5035 14.77 26.2515C14.77 26.9995 14.8967 27.5744 15.1502 27.9762C15.4098 28.378 15.7777 28.5789 16.2537 28.5789ZM19.1129 23.6088L20.8191 23.006H21.7464V29.4969H20.68V24.1466L19.3726 24.5175L19.1129 23.6088ZM27.2365 28.6995C26.7914 29.3115 26.167 29.6175 25.3634 29.6175C24.5659 29.6175 23.9385 29.3115 23.481 28.6995C23.0359 28.0875 22.8134 27.2715 22.8134 26.2515C22.8134 25.2315 23.0359 24.4155 23.481 23.8035C23.9385 23.1915 24.5659 22.8855 25.3634 22.8855C26.167 22.8855 26.7914 23.1915 27.2365 23.8035C27.6877 24.4093 27.9134 25.2253 27.9134 26.2515C27.9134 27.2777 27.6877 28.0937 27.2365 28.6995ZM25.3634 28.5789C25.8456 28.5789 26.2134 28.378 26.4668 27.9762C26.7203 27.5744 26.847 26.9995 26.847 26.2515C26.847 25.5035 26.7203 24.9286 26.4668 24.5268C26.2134 24.1249 25.8456 23.924 25.3634 23.924C24.8874 23.924 24.5196 24.1249 24.2599 24.5268C24.0065 24.9286 23.8797 25.5035 23.8797 26.2515C23.8797 26.9995 24.0065 27.5744 24.2599 27.9762C24.5196 28.378 24.8874 28.5789 25.3634 28.5789ZM28.2227 23.6088L29.9288 23.006H30.8561V29.4969H29.7897V24.1466L28.4823 24.5175L28.2227 23.6088ZM31.6728 23.6088L33.3789 23.006H34.3062V29.4969H33.2398V24.1466L31.9324 24.5175L31.6728 23.6088ZM39.7963 28.6995C39.3512 29.3115 38.7268 29.6175 37.9232 29.6175C37.1258 29.6175 36.4983 29.3115 36.0408 28.6995C35.5958 28.0875 35.3732 27.2715 35.3732 26.2515C35.3732 25.2315 35.5958 24.4155 36.0408 23.8035C36.4983 23.1915 37.1258 22.8855 37.9232 22.8855C38.7268 22.8855 39.3512 23.1915 39.7963 23.8035C40.2476 24.4093 40.4732 25.2253 40.4732 26.2515C40.4732 27.2777 40.2476 28.0937 39.7963 28.6995ZM37.9232 28.5789C38.4054 28.5789 38.7732 28.378 39.0267 27.9762C39.2801 27.5744 39.4068 26.9995 39.4068 26.2515C39.4068 25.5035 39.2801 24.9286 39.0267 24.5268C38.7732 24.1249 38.4054 23.924 37.9232 23.924C37.4472 23.924 37.0794 24.1249 36.8198 24.5268C36.5663 24.9286 36.4396 25.5035 36.4396 26.2515C36.4396 26.9995 36.5663 27.5744 36.8198 27.9762C37.0794 28.378 37.4472 28.5789 37.9232 28.5789ZM45.637 28.6995C45.1919 29.3115 44.5676 29.6175 43.7639 29.6175C42.9665 29.6175 42.339 29.3115 41.8816 28.6995C41.4365 28.0875 41.2139 27.2715 41.2139 26.2515C41.2139 25.2315 41.4365 24.4155 41.8816 23.8035C42.339 23.1915 42.9665 22.8855 43.7639 22.8855C44.5676 22.8855 45.1919 23.1915 45.637 23.8035C46.0883 24.4093 46.3139 25.2253 46.3139 26.2515C46.3139 27.2777 46.0883 28.0937 45.637 28.6995ZM43.7639 28.5789C44.2461 28.5789 44.6139 28.378 44.8674 27.9762C45.1208 27.5744 45.2476 26.9995 45.2476 26.2515C45.2476 25.5035 45.1208 24.9286 44.8674 24.5268C44.6139 24.1249 44.2461 23.924 43.7639 23.924C43.2879 23.924 42.9201 24.1249 42.6605 24.5268C42.407 24.9286 42.2803 25.5035 42.2803 26.2515C42.2803 26.9995 42.407 27.5744 42.6605 27.9762C42.9201 28.378 43.2879 28.5789 43.7639 28.5789ZM46.6232 23.6088L48.3294 23.006H49.2567V29.4969H48.1903V24.1466L46.8828 24.5175L46.6232 23.6088ZM50.0733 23.6088L51.7795 23.006H52.7068V29.4969H51.6404V24.1466L50.3329 24.5175L50.0733 23.6088ZM53.5235 23.6088L55.2297 23.006H56.1569V29.4969H55.0906V24.1466L53.7831 24.5175L53.5235 23.6088ZM56.9736 23.6088L58.6797 23.006H59.607V29.4969H58.5407V24.1466L57.2332 24.5175L56.9736 23.6088ZM-7.33789 31.7906L-5.63171 31.1878H-4.70444V37.6788H-5.7708V32.3284L-7.07825 32.6993L-7.33789 31.7906ZM0.785672 36.8813C0.340581 37.4933 -0.283781 37.7993 -1.08742 37.7993C-1.88487 37.7993 -2.51233 37.4933 -2.96978 36.8813C-3.41487 36.2693 -3.63742 35.4533 -3.63742 34.4333C-3.63742 33.4133 -3.41487 32.5973 -2.96978 31.9853C-2.51233 31.3733 -1.88487 31.0673 -1.08742 31.0673C-0.283781 31.0673 0.340581 31.3733 0.785672 31.9853C1.23694 32.5911 1.46258 33.4071 1.46258 34.4333C1.46258 35.4595 1.23694 36.2755 0.785672 36.8813ZM-1.08742 36.7608C-0.605235 36.7608 -0.237419 36.5598 0.0160356 36.158C0.26949 35.7562 0.396217 35.1813 0.396217 34.4333C0.396217 33.6853 0.26949 33.1104 0.0160356 32.7086C-0.237419 32.3068 -0.605235 32.1058 -1.08742 32.1058C-1.56342 32.1058 -1.93124 32.3068 -2.19087 32.7086C-2.44433 33.1104 -2.57105 33.6853 -2.57105 34.4333C-2.57105 35.1813 -2.44433 35.7562 -2.19087 36.158C-1.93124 36.5598 -1.56342 36.7608 -1.08742 36.7608ZM1.77184 31.7906L3.47802 31.1878H4.40529V37.6788H3.33893V32.3284L2.03147 32.6993L1.77184 31.7906ZM9.89538 36.8813C9.45031 37.4933 8.82595 37.7993 8.02231 37.7993C7.22486 37.7993 6.5974 37.4933 6.13995 36.8813C5.69486 36.2693 5.47231 35.4533 5.47231 34.4333C5.47231 33.4133 5.69486 32.5973 6.13995 31.9853C6.5974 31.3733 7.22486 31.0673 8.02231 31.0673C8.82595 31.0673 9.45031 31.3733 9.89538 31.9853C10.3467 32.5911 10.5723 33.4071 10.5723 34.4333C10.5723 35.4595 10.3467 36.2755 9.89538 36.8813ZM8.02231 36.7608C8.50449 36.7608 8.87231 36.5598 9.12576 36.158C9.37922 35.7562 9.50595 35.1813 9.50595 34.4333C9.50595 33.6853 9.37922 33.1104 9.12576 32.7086C8.87231 32.3068 8.50449 32.1058 8.02231 32.1058C7.54631 32.1058 7.17849 32.3068 6.91886 32.7086C6.6654 33.1104 6.53867 33.6853 6.53867 34.4333C6.53867 35.1813 6.6654 35.7562 6.91886 36.158C7.17849 36.5598 7.54631 36.7608 8.02231 36.7608ZM15.7361 36.8813C15.291 37.4933 14.6667 37.7993 13.863 37.7993C13.0656 37.7993 12.4381 37.4933 11.9807 36.8813C11.5356 36.2693 11.313 35.4533 11.313 34.4333C11.313 33.4133 11.5356 32.5973 11.9807 31.9853C12.4381 31.3733 13.0656 31.0673 13.863 31.0673C14.6667 31.0673 15.291 31.3733 15.7361 31.9853C16.1874 32.5911 16.413 33.4071 16.413 34.4333C16.413 35.4595 16.1874 36.2755 15.7361 36.8813ZM13.863 36.7608C14.3452 36.7608 14.713 36.5598 14.9665 36.158C15.2199 35.7562 15.3467 35.1813 15.3467 34.4333C15.3467 33.6853 15.2199 33.1104 14.9665 32.7086C14.713 32.3068 14.3452 32.1058 13.863 32.1058C13.387 32.1058 13.0192 32.3068 12.7596 32.7086C12.5061 33.1104 12.3794 33.6853 12.3794 34.4333C12.3794 35.1813 12.5061 35.7562 12.7596 36.158C13.0192 36.5598 13.387 36.7608 13.863 36.7608ZM16.7223 31.7906L18.4285 31.1878H19.3557V37.6788H18.2894V32.3284L16.9819 32.6993L16.7223 31.7906ZM20.1724 31.7906L21.8786 31.1878H22.8058V37.6788H21.7395V32.3284L20.432 32.6993L20.1724 31.7906ZM23.6225 31.7906L25.3287 31.1878H26.2559V37.6788H25.1896V32.3284L23.8821 32.6993L23.6225 31.7906ZM31.7461 36.8813C31.301 37.4933 30.6767 37.7993 29.873 37.7993C29.0756 37.7993 28.4481 37.4933 27.9907 36.8813C27.5456 36.2693 27.323 35.4533 27.323 34.4333C27.323 33.4133 27.5456 32.5973 27.9907 31.9853C28.4481 31.3733 29.0756 31.0673 29.873 31.0673C30.6767 31.0673 31.301 31.3733 31.7461 31.9853C32.1974 32.5911 32.423 33.4071 32.423 34.4333C32.423 35.4595 32.1974 36.2755 31.7461 36.8813ZM29.873 36.7608C30.3552 36.7608 30.723 36.5598 30.9765 36.158C31.2299 35.7562 31.3567 35.1813 31.3567 34.4333C31.3567 33.6853 31.2299 33.1104 30.9765 32.7086C30.723 32.3068 30.3552 32.1058 29.873 32.1058C29.397 32.1058 29.0292 32.3068 28.7696 32.7086C28.5161 33.1104 28.3894 33.6853 28.3894 34.4333C28.3894 35.1813 28.5161 35.7562 28.7696 36.158C29.0292 36.5598 29.397 36.7608 29.873 36.7608ZM32.7323 31.7906L34.4385 31.1878H35.3658V37.6788H34.2994V32.3284L32.9919 32.6993L32.7323 31.7906ZM40.8558 36.8813C40.4108 37.4933 39.7864 37.7993 38.9827 37.7993C38.1853 37.7993 37.5578 37.4933 37.1004 36.8813C36.6553 36.2693 36.4328 35.4533 36.4328 34.4333C36.4328 33.4133 36.6553 32.5973 37.1004 31.9853C37.5578 31.3733 38.1853 31.0673 38.9827 31.0673C39.7864 31.0673 40.4108 31.3733 40.8558 31.9853C41.3071 32.5911 41.5328 33.4071 41.5328 34.4333C41.5328 35.4595 41.3071 36.2755 40.8558 36.8813ZM38.9827 36.7608C39.4649 36.7608 39.8327 36.5598 40.0862 36.158C40.3397 35.7562 40.4664 35.1813 40.4664 34.4333C40.4664 33.6853 40.3397 33.1104 40.0862 32.7086C39.8327 32.3068 39.4649 32.1058 38.9827 32.1058C38.5068 32.1058 38.1389 32.3068 37.8793 32.7086C37.6258 33.1104 37.4991 33.6853 37.4991 34.4333C37.4991 35.1813 37.6258 35.7562 37.8793 36.158C38.1389 36.5598 38.5068 36.7608 38.9827 36.7608ZM41.842 31.7906L43.5482 31.1878H44.4755V37.6788H43.4091V32.3284L42.1017 32.6993L41.842 31.7906ZM49.9656 36.8813C49.5205 37.4933 48.8961 37.7993 48.0925 37.7993C47.295 37.7993 46.6676 37.4933 46.2101 36.8813C45.765 36.2693 45.5425 35.4533 45.5425 34.4333C45.5425 33.4133 45.765 32.5973 46.2101 31.9853C46.6676 31.3733 47.295 31.0673 48.0925 31.0673C48.8961 31.0673 49.5205 31.3733 49.9656 31.9853C50.4168 32.5911 50.6425 33.4071 50.6425 34.4333C50.6425 35.4595 50.4168 36.2755 49.9656 36.8813ZM48.0925 36.7608C48.5747 36.7608 48.9425 36.5598 49.1959 36.158C49.4494 35.7562 49.5761 35.1813 49.5761 34.4333C49.5761 33.6853 49.4494 33.1104 49.1959 32.7086C48.9425 32.3068 48.5747 32.1058 48.0925 32.1058C47.6165 32.1058 47.2487 32.3068 46.989 32.7086C46.7356 33.1104 46.6088 33.6853 46.6088 34.4333C46.6088 35.1813 46.7356 35.7562 46.989 36.158C47.2487 36.5598 47.6165 36.7608 48.0925 36.7608ZM50.9518 31.7906L52.6579 31.1878H53.5852V37.6788H52.5188V32.3284L51.2114 32.6993L50.9518 31.7906ZM59.0753 36.8813C58.6302 37.4933 58.0058 37.7993 57.2022 37.7993C56.4048 37.7993 55.7773 37.4933 55.3198 36.8813C54.8748 36.2693 54.6522 35.4533 54.6522 34.4333C54.6522 33.4133 54.8748 32.5973 55.3198 31.9853C55.7773 31.3733 56.4048 31.0673 57.2022 31.0673C58.0058 31.0673 58.6302 31.3733 59.0753 31.9853C59.5266 32.5911 59.7522 33.4071 59.7522 34.4333C59.7522 35.4595 59.5266 36.2755 59.0753 36.8813ZM57.2022 36.7608C57.6844 36.7608 58.0522 36.5598 58.3057 36.158C58.5591 35.7562 58.6858 35.1813 58.6858 34.4333C58.6858 33.6853 58.5591 33.1104 58.3057 32.7086C58.0522 32.3068 57.6844 32.1058 57.2022 32.1058C56.7262 32.1058 56.3584 32.3068 56.0987 32.7086C55.8453 33.1104 55.7186 33.6853 55.7186 34.4333C55.7186 35.1813 55.8453 35.7562 56.0987 36.158C56.3584 36.5598 56.7262 36.7608 57.2022 36.7608ZM-2.66444 45.0631C-3.10953 45.6751 -3.73389 45.9811 -4.53753 45.9811C-5.33498 45.9811 -5.96244 45.6751 -6.41989 45.0631C-6.86498 44.4511 -7.08753 43.6351 -7.08753 42.6151C-7.08753 41.5951 -6.86498 40.7791 -6.41989 40.1671C-5.96244 39.5551 -5.33498 39.2491 -4.53753 39.2491C-3.73389 39.2491 -3.10953 39.5551 -2.66444 40.1671C-2.21316 40.7729 -1.98753 41.5889 -1.98753 42.6151C-1.98753 43.6413 -2.21316 44.4573 -2.66444 45.0631ZM-4.53753 44.9426C-4.05534 44.9426 -3.68753 44.7417 -3.43407 44.3398C-3.18062 43.938 -3.05389 43.3631 -3.05389 42.6151C-3.05389 41.8671 -3.18062 41.2922 -3.43407 40.8904C-3.68753 40.4886 -4.05534 40.2877 -4.53753 40.2877C-5.01353 40.2877 -5.38134 40.4886 -5.64098 40.8904C-5.89444 41.2922 -6.02116 41.8671 -6.02116 42.6151C-6.02116 43.3631 -5.89444 43.938 -5.64098 44.3398C-5.38134 44.7417 -5.01353 44.9426 -4.53753 44.9426ZM3.1763 45.0631C2.73121 45.6751 2.10685 45.9811 1.30321 45.9811C0.505751 45.9811 -0.121703 45.6751 -0.579153 45.0631C-1.02424 44.4511 -1.24679 43.6351 -1.24679 42.6151C-1.24679 41.5951 -1.02424 40.7791 -0.579153 40.1671C-0.121703 39.5551 0.505751 39.2491 1.30321 39.2491C2.10685 39.2491 2.73121 39.5551 3.1763 40.1671C3.62757 40.7729 3.85321 41.5889 3.85321 42.6151C3.85321 43.6413 3.62757 44.4573 3.1763 45.0631ZM1.30321 44.9426C1.78539 44.9426 2.15321 44.7417 2.40666 44.3398C2.66012 43.938 2.78685 43.3631 2.78685 42.6151C2.78685 41.8671 2.66012 41.2922 2.40666 40.8904C2.15321 40.4886 1.78539 40.2877 1.30321 40.2877C0.827206 40.2877 0.459387 40.4886 0.199751 40.8904C-0.0537038 41.2922 -0.180431 41.8671 -0.180431 42.6151C-0.180431 43.3631 -0.0537038 43.938 0.199751 44.3398C0.459387 44.7417 0.827206 44.9426 1.30321 44.9426ZM9.01703 45.0631C8.57194 45.6751 7.94757 45.9811 7.14394 45.9811C6.34648 45.9811 5.71903 45.6751 5.26157 45.0631C4.81648 44.4511 4.59394 43.6351 4.59394 42.6151C4.59394 41.5951 4.81648 40.7791 5.26157 40.1671C5.71903 39.5551 6.34648 39.2491 7.14394 39.2491C7.94757 39.2491 8.57194 39.5551 9.01703 40.1671C9.4683 40.7729 9.69394 41.5889 9.69394 42.6151C9.69394 43.6413 9.4683 44.4573 9.01703 45.0631ZM7.14394 44.9426C7.62612 44.9426 7.99394 44.7417 8.24739 44.3398C8.50085 43.938 8.62757 43.3631 8.62757 42.6151C8.62757 41.8671 8.50085 41.2922 8.24739 40.8904C7.99394 40.4886 7.62612 40.2877 7.14394 40.2877C6.66794 40.2877 6.30012 40.4886 6.04048 40.8904C5.78703 41.2922 5.6603 41.8671 5.6603 42.6151C5.6603 43.3631 5.78703 43.938 6.04048 44.3398C6.30012 44.7417 6.66794 44.9426 7.14394 44.9426ZM10.0032 39.9724L11.7094 39.3697H12.6367V45.8606H11.5703V40.5102L10.2628 40.8811L10.0032 39.9724ZM13.4533 39.9724L15.1595 39.3697H16.0868V45.8606H15.0204V40.5102L13.7129 40.8811L13.4533 39.9724ZM21.5768 45.0631C21.1318 45.6751 20.5074 45.9811 19.7037 45.9811C18.9063 45.9811 18.2788 45.6751 17.8214 45.0631C17.3763 44.4511 17.1537 43.6351 17.1537 42.6151C17.1537 41.5951 17.3763 40.7791 17.8214 40.1671C18.2788 39.5551 18.9063 39.2491 19.7037 39.2491C20.5074 39.2491 21.1318 39.5551 21.5768 40.1671C22.0281 40.7729 22.2537 41.5889 22.2537 42.6151C22.2537 43.6413 22.0281 44.4573 21.5768 45.0631ZM19.7037 44.9426C20.1859 44.9426 20.5537 44.7417 20.8072 44.3398C21.0607 43.938 21.1874 43.3631 21.1874 42.6151C21.1874 41.8671 21.0607 41.2922 20.8072 40.8904C20.5537 40.4886 20.1859 40.2877 19.7037 40.2877C19.2277 40.2877 18.8599 40.4886 18.6003 40.8904C18.3468 41.2922 18.2201 41.8671 18.2201 42.6151C18.2201 43.3631 18.3468 43.938 18.6003 44.3398C18.8599 44.7417 19.2277 44.9426 19.7037 44.9426ZM22.563 39.9724L24.2692 39.3697H25.1965V45.8606H24.1301V40.5102L22.8227 40.8811L22.563 39.9724ZM26.0131 39.9724L27.7193 39.3697H28.6466V45.8606H27.5802V40.5102L26.2727 40.8811L26.0131 39.9724ZM34.1367 45.0631C33.6917 45.6751 33.0673 45.9811 32.2637 45.9811C31.4662 45.9811 30.8387 45.6751 30.3813 45.0631C29.9362 44.4511 29.7137 43.6351 29.7137 42.6151C29.7137 41.5951 29.9362 40.7791 30.3813 40.1671C30.8387 39.5551 31.4662 39.2491 32.2637 39.2491C33.0673 39.2491 33.6917 39.5551 34.1367 40.1671C34.588 40.7729 34.8137 41.5889 34.8137 42.6151C34.8137 43.6413 34.588 44.4573 34.1367 45.0631ZM32.2637 44.9426C32.7458 44.9426 33.1137 44.7417 33.3671 44.3398C33.6206 43.938 33.7473 43.3631 33.7473 42.6151C33.7473 41.8671 33.6206 41.2922 33.3671 40.8904C33.1137 40.4886 32.7458 40.2877 32.2637 40.2877C31.7877 40.2877 31.4198 40.4886 31.1602 40.8904C30.9067 41.2922 30.78 41.8671 30.78 42.6151C30.78 43.3631 30.9067 43.938 31.1602 44.3398C31.4198 44.7417 31.7877 44.9426 32.2637 44.9426ZM35.1228 39.9724L36.829 39.3697H37.7563V45.8606H36.6899V40.5102L35.3825 40.8811L35.1228 39.9724ZM43.2465 45.0631C42.8014 45.6751 42.177 45.9811 41.3734 45.9811C40.5759 45.9811 39.9485 45.6751 39.491 45.0631C39.0459 44.4511 38.8234 43.6351 38.8234 42.6151C38.8234 41.5951 39.0459 40.7791 39.491 40.1671C39.9485 39.5551 40.5759 39.2491 41.3734 39.2491C42.177 39.2491 42.8014 39.5551 43.2465 40.1671C43.6978 40.7729 43.9234 41.5889 43.9234 42.6151C43.9234 43.6413 43.6978 44.4573 43.2465 45.0631ZM41.3734 44.9426C41.8556 44.9426 42.2234 44.7417 42.4768 44.3398C42.7303 43.938 42.857 43.3631 42.857 42.6151C42.857 41.8671 42.7303 41.2922 42.4768 40.8904C42.2234 40.4886 41.8556 40.2877 41.3734 40.2877C40.8974 40.2877 40.5296 40.4886 40.2699 40.8904C40.0165 41.2922 39.8898 41.8671 39.8898 42.6151C39.8898 43.3631 40.0165 43.938 40.2699 44.3398C40.5296 44.7417 40.8974 44.9426 41.3734 44.9426ZM44.2326 39.9724L45.9388 39.3697H46.866V45.8606H45.7997V40.5102L44.4922 40.8811L44.2326 39.9724ZM52.3562 45.0631C51.9111 45.6751 51.2868 45.9811 50.4831 45.9811C49.6857 45.9811 49.0582 45.6751 48.6008 45.0631C48.1557 44.4511 47.9331 43.6351 47.9331 42.6151C47.9331 41.5951 48.1557 40.7791 48.6008 40.1671C49.0582 39.5551 49.6857 39.2491 50.4831 39.2491C51.2868 39.2491 51.9111 39.5551 52.3562 40.1671C52.8075 40.7729 53.0331 41.5889 53.0331 42.6151C53.0331 43.6413 52.8075 44.4573 52.3562 45.0631ZM50.4831 44.9426C50.9653 44.9426 51.3331 44.7417 51.5866 44.3398C51.84 43.938 51.9668 43.3631 51.9668 42.6151C51.9668 41.8671 51.84 41.2922 51.5866 40.8904C51.3331 40.4886 50.9653 40.2877 50.4831 40.2877C50.0071 40.2877 49.6393 40.4886 49.3797 40.8904C49.1262 41.2922 48.9995 41.8671 48.9995 42.6151C48.9995 43.3631 49.1262 43.938 49.3797 44.3398C49.6393 44.7417 50.0071 44.9426 50.4831 44.9426ZM53.3423 39.9724L55.0485 39.3697H55.9757V45.8606H54.9094V40.5102L53.6019 40.8811L53.3423 39.9724ZM56.7925 39.9724L58.4987 39.3697H59.4259V45.8606H58.3596V40.5102L57.0521 40.8811L56.7925 39.9724ZM-7.33789 48.1542L-5.63171 47.5515H-4.70444V54.0424H-5.7708V48.692L-7.07825 49.0629L-7.33789 48.1542ZM-3.88778 48.1542L-2.1816 47.5515H-1.25433V54.0424H-2.32069V48.692L-3.62814 49.0629L-3.88778 48.1542ZM4.23578 53.2449C3.79069 53.8569 3.16633 54.1629 2.36269 54.1629C1.56523 54.1629 0.937778 53.8569 0.480323 53.2449C0.0352325 52.6329 -0.187313 51.8169 -0.187313 50.7969C-0.187313 49.7769 0.0352325 48.9609 0.480323 48.3489C0.937778 47.7369 1.56523 47.4309 2.36269 47.4309C3.16633 47.4309 3.79069 47.7369 4.23578 48.3489C4.68706 48.9548 4.91269 49.7708 4.91269 50.7969C4.91269 51.8231 4.68706 52.6391 4.23578 53.2449ZM2.36269 53.1244C2.84487 53.1244 3.21269 52.9235 3.46615 52.5217C3.7196 52.1198 3.84633 51.5449 3.84633 50.7969C3.84633 50.0489 3.7196 49.474 3.46615 49.0722C3.21269 48.6704 2.84487 48.4695 2.36269 48.4695C1.88669 48.4695 1.51887 48.6704 1.25923 49.0722C1.00578 49.474 0.879051 50.0489 0.879051 50.7969C0.879051 51.5449 1.00578 52.1198 1.25923 52.5217C1.51887 52.9235 1.88669 53.1244 2.36269 53.1244ZM5.22195 48.1542L6.92813 47.5515H7.8554V54.0424H6.78904V48.692L5.48158 49.0629L5.22195 48.1542ZM13.3455 53.2449C12.9004 53.8569 12.276 54.1629 11.4724 54.1629C10.6749 54.1629 10.0475 53.8569 9.59006 53.2449C9.14496 52.6329 8.92242 51.8169 8.92242 50.7969C8.92242 49.7769 9.14496 48.9609 9.59006 48.3489C10.0475 47.7369 10.6749 47.4309 11.4724 47.4309C12.276 47.4309 12.9004 47.7369 13.3455 48.3489C13.7967 48.9548 14.0224 49.7708 14.0224 50.7969C14.0224 51.8231 13.7967 52.6391 13.3455 53.2449ZM11.4724 53.1244C11.9546 53.1244 12.3224 52.9235 12.5758 52.5217C12.8293 52.1198 12.956 51.5449 12.956 50.7969C12.956 50.0489 12.8293 49.474 12.5758 49.0722C12.3224 48.6704 11.9546 48.4695 11.4724 48.4695C10.9964 48.4695 10.6286 48.6704 10.3689 49.0722C10.1155 49.474 9.98875 50.0489 9.98875 50.7969C9.98875 51.5449 10.1155 52.1198 10.3689 52.5217C10.6286 52.9235 10.9964 53.1244 11.4724 53.1244ZM14.3317 48.1542L16.0378 47.5515H16.9651V54.0424H15.8987V48.692L14.5913 49.0629L14.3317 48.1542ZM22.4552 53.2449C22.0101 53.8569 21.3857 54.1629 20.5821 54.1629C19.7847 54.1629 19.1572 53.8569 18.6997 53.2449C18.2547 52.6329 18.0321 51.8169 18.0321 50.7969C18.0321 49.7769 18.2547 48.9609 18.6997 48.3489C19.1572 47.7369 19.7847 47.4309 20.5821 47.4309C21.3857 47.4309 22.0101 47.7369 22.4552 48.3489C22.9065 48.9548 23.1321 49.7708 23.1321 50.7969C23.1321 51.8231 22.9065 52.6391 22.4552 53.2449ZM20.5821 53.1244C21.0643 53.1244 21.4321 52.9235 21.6856 52.5217C21.939 52.1198 22.0658 51.5449 22.0658 50.7969C22.0658 50.0489 21.939 49.474 21.6856 49.0722C21.4321 48.6704 21.0643 48.4695 20.5821 48.4695C20.1061 48.4695 19.7383 48.6704 19.4787 49.0722C19.2252 49.474 19.0985 50.0489 19.0985 50.7969C19.0985 51.5449 19.2252 52.1198 19.4787 52.5217C19.7383 52.9235 20.1061 53.1244 20.5821 53.1244ZM23.4414 48.1542L25.1476 47.5515H26.0748V54.0424H25.0085V48.692L23.701 49.0629L23.4414 48.1542ZM31.5649 53.2449C31.1198 53.8569 30.4955 54.1629 29.6918 54.1629C28.8944 54.1629 28.2669 53.8569 27.8095 53.2449C27.3644 52.6329 27.1418 51.8169 27.1418 50.7969C27.1418 49.7769 27.3644 48.9609 27.8095 48.3489C28.2669 47.7369 28.8944 47.4309 29.6918 47.4309C30.4955 47.4309 31.1198 47.7369 31.5649 48.3489C32.0162 48.9548 32.2418 49.7708 32.2418 50.7969C32.2418 51.8231 32.0162 52.6391 31.5649 53.2449ZM29.6918 53.1244C30.174 53.1244 30.5418 52.9235 30.7953 52.5217C31.0488 52.1198 31.1755 51.5449 31.1755 50.7969C31.1755 50.0489 31.0488 49.474 30.7953 49.0722C30.5418 48.6704 30.174 48.4695 29.6918 48.4695C29.2158 48.4695 28.848 48.6704 28.5884 49.0722C28.3349 49.474 28.2082 50.0489 28.2082 50.7969C28.2082 51.5449 28.3349 52.1198 28.5884 52.5217C28.848 52.9235 29.2158 53.1244 29.6918 53.1244ZM32.5511 48.1542L34.2573 47.5515H35.1846V54.0424H34.1182V48.692L32.8108 49.0629L32.5511 48.1542ZM40.6748 53.2449C40.2297 53.8569 39.6053 54.1629 38.8017 54.1629C38.0042 54.1629 37.3768 53.8569 36.9193 53.2449C36.4742 52.6329 36.2516 51.8169 36.2516 50.7969C36.2516 49.7769 36.4742 48.9609 36.9193 48.3489C37.3768 47.7369 38.0042 47.4309 38.8017 47.4309C39.6053 47.4309 40.2297 47.7369 40.6748 48.3489C41.126 48.9548 41.3517 49.7708 41.3517 50.7969C41.3517 51.8231 41.126 52.6391 40.6748 53.2449ZM38.8017 53.1244C39.2838 53.1244 39.6517 52.9235 39.9051 52.5217C40.1586 52.1198 40.2853 51.5449 40.2853 50.7969C40.2853 50.0489 40.1586 49.474 39.9051 49.0722C39.6517 48.6704 39.2838 48.4695 38.8017 48.4695C38.3257 48.4695 37.9578 48.6704 37.6982 49.0722C37.4447 49.474 37.318 50.0489 37.318 50.7969C37.318 51.5449 37.4447 52.1198 37.6982 52.5217C37.9578 52.9235 38.3257 53.1244 38.8017 53.1244ZM41.6608 48.1542L43.367 47.5515H44.2943V54.0424H43.2279V48.692L41.9205 49.0629L41.6608 48.1542ZM45.111 48.1542L46.8172 47.5515H47.7445V54.0424H46.6781V48.692L45.3707 49.0629L45.111 48.1542ZM48.5611 48.1542L50.2673 47.5515H51.1946V54.0424H50.1282V48.692L48.8208 49.0629L48.5611 48.1542ZM52.0112 48.1542L53.7174 47.5515H54.6447V54.0424H53.5783V48.692L52.2708 49.0629L52.0112 48.1542ZM60.1348 53.2449C59.6897 53.8569 59.0653 54.1629 58.2617 54.1629C57.4642 54.1629 56.8367 53.8569 56.3793 53.2449C55.9342 52.6329 55.7117 51.8169 55.7117 50.7969C55.7117 49.7769 55.9342 48.9609 56.3793 48.3489C56.8367 47.7369 57.4642 47.4309 58.2617 47.4309C59.0653 47.4309 59.6897 47.7369 60.1348 48.3489C60.586 48.9548 60.8117 49.7708 60.8117 50.7969C60.8117 51.8231 60.586 52.6391 60.1348 53.2449ZM58.2617 53.1244C58.7438 53.1244 59.1117 52.9235 59.3651 52.5217C59.6186 52.1198 59.7453 51.5449 59.7453 50.7969C59.7453 50.0489 59.6186 49.474 59.3651 49.0722C59.1117 48.6704 58.7438 48.4695 58.2617 48.4695C57.7857 48.4695 57.4178 48.6704 57.1582 49.0722C56.9048 49.474 56.778 50.0489 56.778 50.7969C56.778 51.5449 56.9048 52.1198 57.1582 52.5217C57.4178 52.9235 57.7857 53.1244 58.2617 53.1244Z" fill="#0D72B9"/>
</g>
</g>
<defs>
<clipPath id="clip0_29_1467">
<rect width="50" height="50" fill="white" transform="translate(0.666626 0.40625)"/>
</clipPath>
</defs>
</svg>
