<svg width="80" height="80" viewBox="0 0 80 80" fill="none" xmlns="http://www.w3.org/2000/svg">
<path d="M18.0217 31.0456C17.898 31.0793 17.7676 31.0793 17.644 31.0456C17.534 30.9974 17.4352 30.9269 17.3538 30.8385C17.2724 30.7502 17.2102 30.6459 17.1712 30.5324C17.1322 30.4188 17.1171 30.2983 17.127 30.1786C17.1368 30.0589 17.1714 29.9426 17.2285 29.8369C19.7897 24.3028 24.2339 19.8586 29.7681 17.2974C29.9894 17.2054 30.2375 17.2011 30.4619 17.2852C30.6864 17.3694 30.8704 17.5358 30.9767 17.7506C31.0653 17.9611 31.0674 18.1981 30.9825 18.4101C30.8977 18.6222 30.7328 18.7923 30.5234 18.8837C25.4086 21.2873 21.2939 25.4019 18.8904 30.5168C18.815 30.6817 18.692 30.8202 18.5371 30.9145C18.3823 31.0087 18.2027 31.0544 18.0217 31.0456Z" fill="#0D72B9"/>
<path d="M40.5679 66.6245C33.7193 66.6145 27.1539 63.8894 22.3112 59.0467C17.4684 54.2039 14.7434 47.6386 14.7334 40.7899C14.7387 39.3842 14.865 37.9815 15.1111 36.5975C15.1512 36.3571 15.2851 36.1424 15.4834 36.0008C15.6818 35.8591 15.9282 35.802 16.1686 35.8421C16.4091 35.8822 16.6237 36.0161 16.7654 36.2144C16.907 36.4128 16.9641 36.6592 16.924 36.8997C16.6971 38.1458 16.5833 39.41 16.5841 40.6766C16.604 47.0414 19.1413 53.1398 23.6419 57.6404C28.1425 62.1411 34.2409 64.6783 40.6057 64.6982C41.8721 64.6926 43.1357 64.5789 44.3827 64.3583C44.5019 64.3367 44.6242 64.3393 44.7425 64.3658C44.8607 64.3923 44.9724 64.4422 45.071 64.5126C45.1696 64.5831 45.253 64.6725 45.3165 64.7758C45.3799 64.879 45.422 64.9939 45.4402 65.1137C45.4737 65.3532 45.414 65.5963 45.2734 65.7931C45.1329 65.9898 44.9222 66.1252 44.6848 66.1712C43.3269 66.4324 41.9502 66.584 40.5679 66.6245Z" fill="#0D72B9"/>
<path d="M51.2157 64.2101C51.042 64.207 50.8724 64.1559 50.7258 64.0626C50.5792 63.9693 50.4612 63.8374 50.3848 63.6813C50.2928 63.46 50.2885 63.2119 50.3726 62.9875C50.4568 62.763 50.6232 62.579 50.838 62.4727C55.941 60.0412 60.0306 55.8982 62.3956 50.7641C62.4438 50.6541 62.5143 50.5553 62.6026 50.4739C62.691 50.3925 62.7952 50.3304 62.9088 50.2913C63.0224 50.2523 63.1428 50.2372 63.2625 50.2471C63.3822 50.2569 63.4985 50.2915 63.6042 50.3486C63.819 50.4549 63.9854 50.6389 64.0696 50.8634C64.1538 51.0878 64.1494 51.3359 64.0574 51.5572C61.5353 57.1071 57.1346 61.5881 51.6312 64.2101C51.4947 64.2437 51.3522 64.2437 51.2157 64.2101Z" fill="#0D72B9"/>
<path d="M65.1906 45.3239C65.0614 45.3249 64.9335 45.2983 64.8154 45.2458C64.6973 45.1934 64.5918 45.1162 64.506 45.0197C64.4201 44.9231 64.3559 44.8093 64.3177 44.6859C64.2794 44.5625 64.268 44.4323 64.2841 44.3041C64.8079 40.8904 64.5859 37.4037 63.6334 34.084C62.6808 30.7643 61.0204 27.6904 58.7663 25.0738C56.5122 22.4572 53.7179 20.3599 50.5758 18.9265C47.4337 17.493 44.0183 16.7573 40.5647 16.7699C39.3014 16.7781 38.0398 16.8664 36.7877 17.0343C36.6707 17.0558 36.5505 17.053 36.4346 17.0261C36.3187 16.9992 36.2095 16.9488 36.1139 16.8779C36.0183 16.8071 35.9382 16.7174 35.8787 16.6144C35.8192 16.5113 35.7815 16.3971 35.7679 16.2789C35.7266 16.1433 35.7176 15.9999 35.7418 15.8601C35.7659 15.7204 35.8225 15.5883 35.907 15.4744C35.9915 15.3605 36.1015 15.2681 36.2282 15.2045C36.355 15.1408 36.4948 15.1078 36.6366 15.1081C37.885 14.9021 39.1484 14.801 40.4136 14.8059C43.8303 14.7909 47.2161 15.4528 50.3756 16.7534C53.5351 18.054 56.4057 19.9675 58.8217 22.3835C61.2376 24.7995 63.1511 27.6701 64.4517 30.8295C65.7523 33.989 66.4142 37.3748 66.3992 40.7915C66.3868 42.056 66.2858 43.3181 66.0971 44.5685C66.061 44.7819 65.9498 44.9753 65.7836 45.1139C65.6173 45.2524 65.407 45.3269 65.1906 45.3239Z" fill="#0D72B9"/>
<path d="M40.5701 54.1235C37.034 54.1235 33.6428 52.7188 31.1424 50.2184C28.642 47.7181 27.2373 44.3268 27.2373 40.7908C27.2337 39.2205 27.502 37.6615 28.0305 36.1828C28.0702 36.0688 28.1319 35.9636 28.2123 35.8734C28.2926 35.7832 28.3899 35.7097 28.4986 35.6571C28.6073 35.6045 28.7254 35.5738 28.8459 35.5668C28.9665 35.5598 29.0873 35.5766 29.2014 35.6163C29.3155 35.656 29.4206 35.7177 29.5108 35.7981C29.601 35.8784 29.6745 35.9757 29.7271 36.0844C29.7797 36.1931 29.8104 36.3111 29.8174 36.4317C29.8244 36.5523 29.8076 36.6731 29.7679 36.7872C29.2834 38.0659 29.0401 39.4233 29.0503 40.7908C29.0503 43.0692 29.7259 45.2964 30.9917 47.1908C32.2575 49.0852 34.0567 50.5617 36.1616 51.4336C38.2666 52.3056 40.5829 52.5337 42.8175 52.0892C45.0521 51.6447 47.1047 50.5475 48.7158 48.9365C50.3269 47.3254 51.424 45.2728 51.8685 43.0382C52.313 40.8035 52.0849 38.4873 51.213 36.3823C50.3411 34.2774 48.8645 32.4782 46.9701 31.2124C45.0757 29.9466 42.8485 29.271 40.5701 29.271C39.2855 29.2509 38.0073 29.4554 36.7931 29.8753C36.679 29.915 36.5582 29.9318 36.4377 29.9248C36.3171 29.9178 36.1991 29.8871 36.0903 29.8345C35.9816 29.7819 35.8843 29.7084 35.804 29.6182C35.7237 29.528 35.6619 29.4228 35.6222 29.3087C35.5826 29.1947 35.5657 29.0739 35.5727 28.9533C35.5797 28.8327 35.6104 28.7147 35.663 28.606C35.7156 28.4972 35.7891 28.4 35.8793 28.3196C35.9696 28.2393 36.0747 28.1776 36.1888 28.1379C37.5773 27.6734 39.0304 27.4312 40.4945 27.4203C42.3076 27.3238 44.1214 27.5976 45.8252 28.225C47.529 28.8524 49.0872 29.8203 50.4047 31.0696C51.7222 32.3189 52.7715 33.8234 53.4886 35.4915C54.2056 37.1596 54.5754 38.9562 54.5754 40.7719C54.5754 42.5875 54.2056 44.3842 53.4886 46.0522C52.7715 47.7203 51.7222 49.2249 50.4047 50.4741C49.0872 51.7234 47.529 52.6913 45.8252 53.3187C44.1214 53.9461 42.3076 54.22 40.4945 54.1235H40.5701Z" fill="#0D72B9"/>
<path d="M22.3976 38.75H21.6422L12.162 36.9748C11.4035 36.8516 10.7007 36.4999 10.1473 35.9668C9.59392 35.4336 9.21632 34.7444 9.06489 33.991L5.81669 16.7302C5.78325 16.4907 5.84296 16.2476 5.9835 16.0508C6.12404 15.854 6.33471 15.7187 6.57209 15.6727C6.79409 15.6574 7.01436 15.721 7.19403 15.8523C7.3737 15.9836 7.50122 16.1741 7.5541 16.3903L10.7645 33.6888C10.8648 34.0684 11.0706 34.4118 11.3581 34.6791C11.6455 34.9465 12.0028 35.127 12.3886 35.1996L21.9066 36.8615C22.2378 36.9342 22.5815 36.9276 22.9097 36.8422C23.2379 36.7569 23.5412 36.5953 23.7951 36.3705C24.1296 36.0932 24.3804 35.7283 24.5194 35.3167C24.6584 34.905 24.6801 34.4628 24.5822 34.0395C24.4842 33.6161 24.2703 33.2284 23.9646 32.9197C23.6588 32.611 23.2732 32.3934 22.8509 32.2914L15.7124 30.4784C15.5607 30.4284 15.4249 30.3392 15.3188 30.2198C15.2126 30.1004 15.14 29.9551 15.1081 29.7986L13.7106 23.2644C13.6743 23.0599 13.7065 22.8492 13.8021 22.6648C13.8976 22.4805 14.0513 22.3328 14.2394 22.2446C17.7543 20.5821 20.584 17.7523 22.2465 14.2374C22.3347 14.0494 22.4824 13.8957 22.6668 13.8001C22.8511 13.7045 23.0619 13.6724 23.2663 13.7086L29.8005 15.1061C29.9662 15.1443 30.1178 15.2283 30.238 15.3485C30.3582 15.4687 30.4422 15.6203 30.4804 15.786L32.2933 23C32.3954 23.4223 32.6129 23.808 32.9217 24.1137C33.2304 24.4195 33.6181 24.6333 34.0414 24.7313C34.4647 24.8293 34.9069 24.8076 35.3186 24.6686C35.7303 24.5296 36.0952 24.2788 36.3724 23.9442C36.5972 23.6904 36.7589 23.387 36.8442 23.0588C36.9295 22.7306 36.9361 22.387 36.8635 22.0557L35.2016 12.4622C35.1261 12.0717 34.94 11.711 34.6655 11.4231C34.391 11.1352 34.0396 10.9321 33.653 10.8381L16.3922 7.55215C16.1761 7.49927 15.9855 7.37174 15.8542 7.19208C15.723 7.01241 15.6593 6.79214 15.6746 6.57014C15.7206 6.33276 15.856 6.12209 16.0527 5.98155C16.2495 5.84101 16.4927 5.7813 16.7322 5.81474L33.993 9.06294C34.7463 9.21436 35.4356 9.59197 35.9687 10.1454C36.5018 10.6987 36.8535 11.4016 36.9768 12.1601L38.6764 21.6403C38.7837 22.2446 38.7582 22.8651 38.6017 23.4586C38.4452 24.0522 38.1613 24.6045 37.7699 25.0773C37.2702 25.6618 36.6194 26.0976 35.8886 26.337C35.1579 26.5764 34.3754 26.6102 33.6267 26.4347C32.878 26.2592 32.192 25.8812 31.6438 25.3421C31.0955 24.8029 30.7061 24.1233 30.5181 23.3777L28.8563 16.6924L23.5685 15.6349C21.8211 19.0446 19.0466 21.8192 15.6368 23.5665L16.6944 28.8543L23.3796 30.5162C24.264 30.7579 25.0436 31.2853 25.597 32.0163C26.1504 32.7473 26.4464 33.6408 26.439 34.5575C26.4293 35.6599 25.9897 36.715 25.2137 37.4981C24.4376 38.2812 23.3866 38.7303 22.2843 38.75H22.3976Z" fill="#0D72B9"/>
<path d="M72.0104 79.9989C69.9528 79.9815 67.985 79.1537 66.5338 77.695C65.4268 76.5922 64.6719 75.1857 64.3649 73.6536C64.0578 72.1215 64.2123 70.5328 64.8089 69.0886C65.4055 67.6444 66.4173 66.4097 67.7161 65.541C69.0149 64.6722 70.5423 64.2085 72.1048 64.2085C73.6674 64.2085 75.1948 64.6722 76.4936 65.541C77.7924 66.4097 78.8042 67.6444 79.4007 69.0886C79.9973 70.5328 80.1519 72.1215 79.8448 73.6536C79.5377 75.1857 78.7829 76.5922 77.6759 77.695C76.9348 78.44 76.0512 79.028 75.0778 79.4239C74.1043 79.8198 73.0611 80.0153 72.0104 79.9989ZM72.0104 66.0619C70.6037 66.0646 69.2414 66.5549 68.1557 67.4494C67.07 68.3438 66.3279 69.587 66.056 70.9672C65.784 72.3473 65.999 73.7791 66.6642 75.0186C67.3295 76.258 68.4039 77.2285 69.7044 77.7647C71.0049 78.3008 72.4511 78.3696 73.7966 77.9591C75.142 77.5486 76.3036 76.6844 77.0834 75.5135C77.8631 74.3427 78.2129 72.9378 78.073 71.538C77.9331 70.1383 77.3122 68.8304 76.3162 67.837C75.1687 66.7043 73.6227 66.0669 72.0104 66.0619Z" fill="#0D72B9"/>
<path d="M8.39659 16.9954C6.18198 16.9767 4.06402 16.0857 2.50205 14.5156C1.31055 13.3287 0.498104 11.8149 0.167616 10.1659C-0.162872 8.51685 0.00346783 6.80686 0.645565 5.25246C1.28766 3.69806 2.37663 2.36919 3.77454 1.43416C5.17246 0.499126 6.81642 0 8.49822 0C10.18 0 11.824 0.499126 13.2219 1.43416C14.6198 2.36919 15.7088 3.69806 16.3509 5.25246C16.993 6.80686 17.1593 8.51685 16.8288 10.1659C16.4983 11.8149 15.6859 13.3287 14.4944 14.5156C13.6968 15.3175 12.7457 15.9504 11.698 16.3765C10.6503 16.8026 9.52748 17.013 8.39659 16.9954ZM8.39659 1.9948C6.88254 1.99773 5.41633 2.52549 4.24775 3.48817C3.07916 4.45085 2.28048 5.78891 1.98777 7.2744C1.69505 8.75989 1.92641 10.3009 2.64243 11.635C3.35844 12.969 4.51483 14.0135 5.91458 14.5906C7.31434 15.1677 8.87088 15.2417 10.319 14.7999C11.7672 14.3581 13.0174 13.4279 13.8567 12.1677C14.6959 10.9076 15.0723 9.39541 14.9218 7.88886C14.7712 6.38232 14.103 4.97457 13.0309 3.90544C11.7959 2.68628 10.132 2.00026 8.39659 1.9948Z" fill="#0D72B9"/>
<path d="M64.7759 75.5379L47.3263 72.2897C46.5729 72.1382 45.8837 71.7606 45.3505 71.2073C44.8174 70.6539 44.4657 69.951 44.3425 69.1925L42.6806 59.7123C42.5693 59.1103 42.5924 58.4911 42.7483 57.899C42.9041 57.3069 43.189 56.7566 43.5823 56.2874C43.9757 55.8183 44.4679 55.4418 45.0237 55.1851C45.5796 54.9283 46.1853 54.7976 46.7975 54.8023C47.7311 54.7945 48.6395 55.1043 49.3739 55.6808C50.1082 56.2573 50.6248 57.0662 50.8389 57.9749L52.5007 64.6602L57.7885 65.7177C59.5359 62.308 62.3104 59.5334 65.7202 57.7861L64.6626 52.4983L57.9774 50.8364C57.0687 50.6223 56.2597 50.1057 55.6832 49.3714C55.1067 48.6371 54.797 47.7286 54.8047 46.7951C54.8001 46.1828 54.9308 45.5771 55.1875 45.0213C55.4443 44.4655 55.8207 43.9733 56.2899 43.5799C56.759 43.1865 57.3093 42.9017 57.9014 42.7458C58.4935 42.5899 59.1127 42.5668 59.7148 42.6782L69.195 44.3778C69.9434 44.496 70.6389 44.8365 71.1912 45.3552C71.7436 45.8738 72.1271 46.5466 72.2921 47.2861L75.5403 64.6224C75.5737 64.8619 75.514 65.1051 75.3735 65.3018C75.233 65.4986 75.0223 65.6339 74.7849 65.68C74.6657 65.7015 74.5434 65.699 74.4251 65.6725C74.3069 65.646 74.1952 65.596 74.0966 65.5256C73.998 65.4552 73.9145 65.3657 73.8511 65.2625C73.7877 65.1592 73.7456 65.0443 73.7274 64.9246L70.5169 47.6638C70.4166 47.2842 70.2108 46.9408 69.9234 46.6735C69.636 46.4061 69.2786 46.2256 68.8928 46.153L59.3748 44.4911C59.0376 44.4212 58.6888 44.429 58.355 44.5141C58.0212 44.5992 57.7112 44.7593 57.4486 44.9821C57.1029 45.2597 56.8432 45.6297 56.6995 46.0491C56.5559 46.4685 56.5342 46.92 56.6371 47.3513C56.7399 47.7825 56.9631 48.1756 57.2806 48.485C57.5981 48.7944 57.9969 49.0073 58.4306 49.099L65.6446 50.912C65.8103 50.9501 65.9619 51.0341 66.0821 51.1543C66.2023 51.2746 66.2863 51.4262 66.3245 51.5918L67.6464 58.126C67.6827 58.3305 67.6505 58.5412 67.5549 58.7255C67.4594 58.9099 67.3057 59.0576 67.1177 59.1458C63.6027 60.8083 60.773 63.6381 59.1105 67.153C59.0223 67.341 58.8746 67.4947 58.6902 67.5903C58.5059 67.6859 58.2951 67.718 58.0907 67.6818L51.5565 66.3598C51.3908 66.3216 51.2392 66.2377 51.119 66.1174C50.9988 65.9972 50.9148 65.8456 50.8766 65.68L49.1015 58.4282C49.0045 58.0029 48.7907 57.6132 48.4841 57.3029C48.1776 56.9927 47.7905 56.7742 47.3664 56.6721C46.9424 56.57 46.4983 56.5884 46.0841 56.7252C45.6699 56.8619 45.3022 57.1116 45.0223 57.4461C44.7995 57.7088 44.6394 58.0188 44.5543 58.3526C44.4693 58.6863 44.4614 59.0351 44.5313 59.3724L46.1932 68.8904C46.2687 69.281 46.4548 69.6416 46.7293 69.9295C47.0038 70.2174 47.3552 70.4205 47.7418 70.5145L64.9648 73.7249C65.2052 73.7249 65.4357 73.8204 65.6057 73.9904C65.7757 74.1604 65.8712 74.391 65.8712 74.6314C65.8712 74.8718 65.7757 75.1024 65.6057 75.2724C65.4357 75.4424 65.2052 75.5379 64.9648 75.5379H64.7759Z" fill="#0D72B9"/>
<path d="M32.7108 41.2055C32.5913 41.208 32.4727 41.1858 32.3622 41.1403C32.2517 41.0948 32.1518 41.027 32.0687 40.9411L24.1748 33.0472C24.0845 32.9625 24.0125 32.8601 23.9633 32.7464C23.9141 32.6327 23.8887 32.5102 23.8887 32.3863C23.8887 32.2624 23.9141 32.1398 23.9633 32.0261C24.0125 31.9125 24.0845 31.8101 24.1748 31.7253L27.9518 27.9483L31.7288 24.1713C31.9034 24.0094 32.1327 23.9194 32.3709 23.9194C32.609 23.9194 32.8383 24.0094 33.0129 24.1713L40.9068 32.0652C40.9913 32.1494 41.0584 32.2495 41.1041 32.3597C41.1499 32.4699 41.1734 32.588 41.1734 32.7073C41.1734 32.8266 41.1499 32.9448 41.1041 33.0549C41.0584 33.1651 40.9913 33.2652 40.9068 33.3494L37.1298 37.1264L33.3529 40.9034C33.2731 40.9961 33.1747 41.0709 33.0641 41.123C32.9534 41.1751 32.833 41.2032 32.7108 41.2055ZM26.1011 32.3674L32.7108 39.0149L35.8834 35.9178L38.9806 32.7451L32.3709 26.0976L26.1011 32.3674Z" fill="#0D72B9"/>
<path d="M35.0862 36.0317C34.9664 36.0366 34.847 36.0154 34.7362 35.9698C34.6254 35.9242 34.5257 35.8551 34.4441 35.7673L27.9099 29.2709C27.8017 29.1898 27.7122 29.0863 27.6474 28.9675C27.5827 28.8487 27.5442 28.7174 27.5346 28.5825C27.525 28.4475 27.5445 28.3121 27.5918 28.1854C27.6391 28.0586 27.7131 27.9435 27.8088 27.8479C27.9044 27.7522 28.0195 27.6782 28.1463 27.6309C28.273 27.5836 28.4085 27.5641 28.5434 27.5737C28.6784 27.5833 28.8097 27.6217 28.9284 27.6865C29.0472 27.7512 29.1507 27.8408 29.2319 27.949L35.7283 34.4832C35.8902 34.6578 35.9802 34.8871 35.9802 35.1252C35.9802 35.3634 35.8902 35.5927 35.7283 35.7673C35.6452 35.8532 35.5453 35.921 35.4348 35.9665C35.3243 36.012 35.2056 36.0342 35.0862 36.0317Z" fill="#0D72B9"/>
</svg>
