<svg width="50" height="51" viewBox="0 0 50 51" fill="none" xmlns="http://www.w3.org/2000/svg">
<path d="M42.5377 50.4066H11.1321C10.9151 50.4066 10.707 50.3205 10.5535 50.1669C10.4001 50.0135 10.3138 49.8054 10.3138 49.5884V5.37235C10.3138 5.15533 10.4001 4.94719 10.5535 4.79373C10.707 4.64027 10.9151 4.55405 11.1321 4.55405H33.0567C33.1639 4.55071 33.2705 4.57185 33.3682 4.61585C33.466 4.65985 33.5525 4.72557 33.6211 4.80801L43.0456 14.2607C43.1257 14.3371 43.1897 14.429 43.2333 14.5309C43.277 14.6327 43.2995 14.7425 43.2995 14.8533V49.5884C43.3 49.7959 43.2216 49.9959 43.0801 50.1479C42.9387 50.2998 42.7447 50.3923 42.5377 50.4066ZM12.0069 48.77H41.7194V15.1918L32.7181 6.19065H12.0069V48.77Z" fill="#0D72B9"/>
<path d="M7.18194 46.2588C6.98312 46.2607 6.79042 46.1902 6.63983 46.0603C6.48924 45.9305 6.39106 45.7503 6.36365 45.5534V1.22454C6.36365 1.00752 6.44986 0.799382 6.60332 0.645922C6.75678 0.492463 6.96491 0.40625 7.18194 0.40625H29.1066C29.3236 0.40625 29.5316 0.492463 29.6851 0.645922C29.8386 0.799382 29.9248 1.00752 29.9248 1.22454C29.9248 1.44157 29.8386 1.6497 29.6851 1.80316C29.5316 1.95662 29.3236 2.04283 29.1066 2.04283H8.00023V45.5534C7.97282 45.7503 7.87464 45.9305 7.72405 46.0603C7.57346 46.1902 7.38076 46.2607 7.18194 46.2588Z" fill="#0D72B9"/>
<path d="M42.5376 15.6716H33.0567C32.8397 15.6716 32.6315 15.5853 32.4781 15.4318C32.3246 15.2784 32.2384 15.0703 32.2384 14.8533V5.37234C32.2374 5.20919 32.2853 5.04948 32.3758 4.91372C32.4663 4.77797 32.5953 4.67237 32.7463 4.61048C32.895 4.55087 33.0581 4.53784 33.2144 4.57311C33.3706 4.60839 33.5124 4.69031 33.6211 4.808L43.0455 14.2606C43.1609 14.377 43.2386 14.5252 43.2688 14.6862C43.299 14.8471 43.2801 15.0135 43.2148 15.1636C43.1617 15.3038 43.0699 15.426 42.95 15.5159C42.8301 15.6058 42.6871 15.6598 42.5376 15.6716ZM33.875 14.0349H40.5624L33.875 7.34752V14.0349Z" fill="#0D72B9"/>
<path d="M28.7109 13.6684H15.5901C15.4718 13.6906 15.3502 13.6865 15.2338 13.6564C15.1173 13.6262 15.009 13.5709 14.9164 13.494C14.8238 13.4172 14.7493 13.321 14.6981 13.2121C14.647 13.1033 14.6205 12.9845 14.6205 12.8642C14.6205 12.7439 14.647 12.6251 14.6981 12.5162C14.7493 12.4074 14.8238 12.3111 14.9164 12.2343C15.009 12.1576 15.1173 12.1021 15.2338 12.072C15.3502 12.0418 15.4718 12.0378 15.5901 12.06H28.7109C28.8292 12.0378 28.9508 12.0418 29.0673 12.072C29.1837 12.1021 29.2921 12.1576 29.3846 12.2343C29.4772 12.3111 29.5517 12.4074 29.6029 12.5162C29.654 12.6251 29.6806 12.7439 29.6806 12.8642C29.6806 12.9845 29.654 13.1033 29.6029 13.2121C29.5517 13.321 29.4772 13.4172 29.3846 13.494C29.2921 13.5709 29.1837 13.6262 29.0673 13.6564C28.9508 13.6865 28.8292 13.6906 28.7109 13.6684Z" fill="#0D72B9"/>
<path d="M28.7113 18.2671H15.5905C15.3859 18.2598 15.1921 18.1733 15.05 18.0259C14.9078 17.8785 14.8285 17.6817 14.8286 17.477C14.8286 17.26 14.9148 17.0518 15.0683 16.8983C15.2218 16.7449 15.4299 16.6587 15.6469 16.6587H28.7113C28.9284 16.6587 29.1365 16.7449 29.29 16.8983C29.4434 17.0518 29.5297 17.26 29.5297 17.477C29.5297 17.5831 29.5084 17.6882 29.467 17.786C29.4255 17.8838 29.3648 17.9721 29.2883 18.0459C29.212 18.1196 29.1215 18.1772 29.0224 18.2152C28.9232 18.2532 28.8175 18.2709 28.7113 18.2671Z" fill="#0D72B9"/>
<path d="M38.0514 22.9798H15.4778C15.2608 22.9798 15.0527 22.8936 14.8992 22.7402C14.7458 22.5867 14.6595 22.3785 14.6595 22.1615C14.6595 21.9445 14.7458 21.7364 14.8992 21.5829C15.0527 21.4294 15.2608 21.3433 15.4778 21.3433H38.0514C38.2685 21.3433 38.4766 21.4294 38.63 21.5829C38.7835 21.7364 38.8697 21.9445 38.8697 22.1615C38.8697 22.3785 38.7835 22.5867 38.63 22.7402C38.4766 22.8936 38.2685 22.9798 38.0514 22.9798Z" fill="#0D72B9"/>
<path d="M38.0514 27.4926H15.4778C15.2608 27.4926 15.0527 27.4063 14.8992 27.2529C14.7458 27.0994 14.6595 26.8913 14.6595 26.6743C14.6595 26.4572 14.7458 26.2491 14.8992 26.0957C15.0527 25.9422 15.2608 25.856 15.4778 25.856H38.0514C38.2685 25.856 38.4766 25.9422 38.63 26.0957C38.7835 26.2491 38.8697 26.4572 38.8697 26.6743C38.8697 26.8913 38.7835 27.0994 38.63 27.2529C38.4766 27.4063 38.2685 27.4926 38.0514 27.4926Z" fill="#0D72B9"/>
<path d="M26.3973 32.0955H15.5901C15.3731 32.0955 15.165 32.0093 15.0115 31.8559C14.8581 31.7024 14.7719 31.4943 14.7719 31.2773C14.7719 31.0603 14.8581 30.8521 15.0115 30.6986C15.165 30.5452 15.3731 30.459 15.5901 30.459H26.3973C26.6143 30.459 26.8224 30.5452 26.9758 30.6986C27.1293 30.8521 27.2156 31.0603 27.2156 31.2773C27.2156 31.4943 27.1293 31.7024 26.9758 31.8559C26.8224 32.0093 26.6143 32.0955 26.3973 32.0955Z" fill="#0D72B9"/>
<path d="M26.3979 36.6942H15.5908C15.3737 36.6942 15.1656 36.608 15.0121 36.4545C14.8587 36.3011 14.7725 36.0929 14.7725 35.8759C14.7725 35.6589 14.8587 35.4507 15.0121 35.2973C15.1656 35.1438 15.3737 35.0576 15.5908 35.0576H26.3979C26.6149 35.0576 26.823 35.1438 26.9765 35.2973C27.13 35.4507 27.2161 35.6589 27.2161 35.8759C27.2161 36.0929 27.13 36.3011 26.9765 36.4545C26.823 36.608 26.6149 36.6942 26.3979 36.6942Z" fill="#0D72B9"/>
<path d="M26.3979 41.2928H15.5908C15.3737 41.2928 15.1656 41.2066 15.0121 41.0532C14.8587 40.8997 14.7725 40.6915 14.7725 40.4745C14.7725 40.2575 14.8587 40.0493 15.0121 39.8959C15.1656 39.7424 15.3737 39.6562 15.5908 39.6562H26.3979C26.6149 39.6562 26.823 39.7424 26.9765 39.8959C27.13 40.0493 27.2161 40.2575 27.2161 40.4745C27.2161 40.6915 27.13 40.8997 26.9765 41.0532C26.823 41.2066 26.6149 41.2928 26.3979 41.2928Z" fill="#0D72B9"/>
<path d="M37.4019 44.7066H31.7586C31.3193 44.6994 30.9 44.5216 30.5894 44.211C30.2788 43.9003 30.101 43.4811 30.0938 43.0418V41.6874C30.0938 41.4704 30.1799 41.2622 30.3334 41.1087C30.4869 40.9553 30.695 40.8691 30.912 40.8691C31.129 40.8691 31.3372 40.9553 31.4907 41.1087C31.6441 41.2622 31.7303 41.4704 31.7303 41.6874V43.0418H37.3738V38.8939H34.552H31.7586C31.5229 38.9027 31.2879 38.8615 31.0694 38.7726C30.8509 38.6838 30.6537 38.5496 30.4909 38.3789C30.3282 38.2082 30.2036 38.0047 30.1254 37.7822C30.0472 37.5596 30.0172 37.323 30.0373 37.088V33.0248C30.0662 32.5907 30.2612 32.1844 30.5817 31.8902C30.9021 31.596 31.3236 31.4365 31.7586 31.4446H37.4019C37.8412 31.4519 38.2605 31.6296 38.5711 31.9403C38.8818 32.2509 39.0595 32.6702 39.0668 33.1095V34.4921C39.0668 34.7091 38.9806 34.9172 38.8271 35.0706C38.6737 35.2242 38.4655 35.3104 38.2485 35.3104C38.0314 35.3104 37.8233 35.2242 37.6699 35.0706C37.5164 34.9172 37.4302 34.7091 37.4302 34.4921V33.1095H31.7586V37.088H34.5802H37.4019C37.8435 37.088 38.2669 37.2635 38.5791 37.5756C38.8914 37.8878 39.0668 38.3113 39.0668 38.7528V42.9007C39.0821 43.13 39.0506 43.36 38.9742 43.5767C38.8978 43.7935 38.778 43.9924 38.6223 44.1613C38.4666 44.3303 38.278 44.4657 38.0682 44.5595C37.8584 44.6532 37.6318 44.7033 37.4019 44.7066Z" fill="#0D72B9"/>
<path d="M34.5807 45.8925C34.3636 45.8925 34.1555 45.8063 34.0021 45.6528C33.8486 45.4994 33.7623 45.2912 33.7623 45.0742V30.9657C33.7623 30.7487 33.8486 30.5406 34.0021 30.3871C34.1555 30.2336 34.3636 30.1475 34.5807 30.1475C34.7977 30.1475 35.0058 30.2336 35.1593 30.3871C35.3128 30.5406 35.399 30.7487 35.399 30.9657V45.0742C35.399 45.2912 35.3128 45.4994 35.1593 45.6528C35.0058 45.8063 34.7977 45.8925 34.5807 45.8925Z" fill="#0D72B9"/>
</svg>
