<svg width="51" height="51" viewBox="0 0 51 51" fill="none" xmlns="http://www.w3.org/2000/svg">
<g clip-path="url(#clip0_29_1524)">
<path d="M38.0028 0.40625H12.7235C11.5757 0.407728 10.4753 0.864357 9.66367 1.676C8.85203 2.48763 8.3954 3.58803 8.39392 4.73586V46.0766C8.3954 47.2244 8.85203 48.3249 9.66367 49.1365C10.4753 49.9482 11.5757 50.4048 12.7235 50.4062H38.0028C39.1507 50.4048 40.2511 49.9482 41.0627 49.1365C41.8744 48.3249 42.331 47.2244 42.3325 46.0766V4.73586C42.331 3.58803 41.8744 2.48763 41.0627 1.676C40.2511 0.864357 39.1507 0.407728 38.0028 0.40625ZM40.3213 46.0822C40.3213 46.6972 40.077 47.2868 39.6423 47.7216C39.2075 48.1564 38.6177 48.4007 38.0028 48.4007H12.7235C12.1086 48.4007 11.5189 48.1564 11.0841 47.7216C10.6494 47.2868 10.4051 46.6972 10.4051 46.0822V4.74145C10.4044 4.43651 10.4638 4.13443 10.58 3.8525C10.6961 3.57057 10.8668 3.31433 11.0822 3.09845C11.2975 2.88257 11.5534 2.7113 11.835 2.59444C12.1167 2.47758 12.4186 2.41742 12.7235 2.41742H38.0028C38.6177 2.41742 39.2075 2.66169 39.6423 3.09648C40.077 3.53127 40.3213 4.12097 40.3213 4.73586V46.0822Z" fill="#0D72B9"/>
<path d="M25.3661 42.5518C24.8058 42.5518 24.2583 42.7179 23.7925 43.0291C23.3267 43.3404 22.9637 43.7828 22.7493 44.3003C22.5349 44.8178 22.4788 45.3873 22.5881 45.9368C22.6974 46.4862 22.9671 46.9908 23.3633 47.387C23.7594 47.7831 24.264 48.0528 24.8135 48.1621C25.3629 48.2715 25.9325 48.2154 26.45 48.0009C26.9676 47.7866 27.4099 47.4236 27.7211 46.9578C28.0324 46.492 28.1985 45.9444 28.1985 45.3842C28.197 44.6334 27.8981 43.9138 27.3673 43.383C26.8364 42.8521 26.1168 42.5532 25.3661 42.5518ZM25.3661 47.211C25.0047 47.211 24.6516 47.1038 24.3511 46.9031C24.0507 46.7024 23.8166 46.4171 23.6783 46.0833C23.54 45.7495 23.5038 45.3821 23.5744 45.0278C23.6448 44.6734 23.8188 44.3479 24.0743 44.0924C24.3298 43.8369 24.6553 43.6629 25.0097 43.5925C25.364 43.5219 25.7314 43.5581 26.0652 43.6964C26.3989 43.8347 26.6843 44.0688 26.885 44.3692C27.0857 44.6697 27.1929 45.0228 27.1929 45.3842C27.1914 45.8682 26.9985 46.332 26.6562 46.6743C26.3139 47.0166 25.8501 47.2095 25.3661 47.211Z" fill="#0D72B9"/>
<path d="M37.2262 6.33887H13.5056C13.3723 6.33887 13.2444 6.39184 13.1501 6.48613C13.0558 6.58043 13.0028 6.70831 13.0028 6.84167V41.9813C13.0028 42.1147 13.0558 42.2426 13.1501 42.3369C13.2444 42.4311 13.3723 42.4841 13.5056 42.4841H37.2262C37.3596 42.4841 37.4875 42.4311 37.5818 42.3369C37.6761 42.2426 37.7291 42.1147 37.7291 41.9813V6.84167C37.7291 6.70831 37.6761 6.58043 37.5818 6.48613C37.4875 6.39184 37.3596 6.33887 37.2262 6.33887ZM36.7235 41.4786H14.0084V7.34446H36.7235V41.4786Z" fill="#0D72B9"/>
</g>
<defs>
<clipPath id="clip0_29_1524">
<rect width="50" height="50" fill="white" transform="translate(0.666626 0.40625)"/>
</clipPath>
</defs>
</svg>
