<svg width="50" height="51" viewBox="0 0 50 51" fill="none" xmlns="http://www.w3.org/2000/svg">
<g clip-path="url(#clip0_29_1547)">
<path fill-rule="evenodd" clip-rule="evenodd" d="M36.6441 28.4342L36.6434 28.4387C36.6422 28.4478 36.6409 28.4568 36.6395 28.466C36.6411 28.4555 36.6426 28.4447 36.6441 28.4342ZM21.6693 9.71024L21.6681 9.71192C21.665 9.71599 21.6619 9.72005 21.6588 9.72412C21.6623 9.71957 21.6658 9.71479 21.6693 9.71024ZM31.6228 20.1281C31.416 19.9081 31.3 19.6157 31.3005 19.3105V15.1984C31.3005 15.042 31.3311 14.8874 31.3904 14.7434C31.4497 14.5993 31.5365 14.4688 31.6455 14.359C31.7545 14.2494 31.8836 14.1627 32.0253 14.1036C32.1669 14.0447 32.3185 14.0143 32.4715 14.0143H36.5741C36.7271 14.0143 36.8786 14.0447 37.0203 14.1036C37.162 14.1627 37.2911 14.2494 37.4 14.359C37.509 14.4688 37.5959 14.5993 37.6552 14.7434C37.7145 14.8874 37.7451 15.042 37.7451 15.1984V19.2427C37.7453 19.5508 37.6269 19.8459 37.4163 20.0664C37.3163 20.171 37.1992 20.255 37.0717 20.3155C36.9308 20.3823 36.7771 20.4206 36.6192 20.4268L35.6771 20.4637V27.9904L35.6804 28.0304C35.6963 28.2228 35.6666 28.416 35.5941 28.5943C35.5272 28.759 35.4255 28.9062 35.2968 29.0261L27.0184 34.8227C26.9256 34.883 26.827 34.934 26.7242 34.9747L26.1042 35.2198V40.6407L26.7164 40.8889C27.3411 41.1421 27.9096 41.5182 28.3889 41.9952C28.8364 42.4548 29.1893 42.9991 29.4271 43.5969C29.6656 44.197 29.7833 44.839 29.7733 45.4852V45.4972C29.7704 46.3876 29.5279 47.26 29.0722 48.0221C28.6164 48.7842 27.9645 49.4072 27.1864 49.8259C26.4083 50.2443 25.5326 50.4427 24.652 50.4009C23.7715 50.3589 22.9181 50.0777 22.1827 49.587C21.4471 49.0962 20.8566 48.4137 20.4744 47.6114C20.0922 46.8091 19.933 45.9172 20.0137 45.0307C20.0945 44.1441 20.4123 43.2965 20.9327 42.5778C21.4531 41.8593 22.1567 41.2965 22.9681 40.9485L24.5919 40.2522L14.8045 33.4383C14.6504 33.3306 14.524 33.1863 14.437 33.0175C14.35 32.8488 14.3049 32.6609 14.3062 32.4702V23.5245L13.3717 23.4808C13.0725 23.4668 12.789 23.3373 12.5804 23.1174C12.3718 22.8972 12.2546 22.6032 12.2549 22.2966V18.1851C12.2549 17.8691 12.3797 17.5672 12.6 17.3457C12.82 17.1242 13.1172 17.001 13.4259 17.001H17.4452C17.7567 17.001 18.0568 17.1247 18.2797 17.3473C18.502 17.5692 18.6296 17.8717 18.6328 18.1893V22.2849C18.6251 22.5806 18.5098 22.862 18.3102 23.0764C18.1089 23.2926 17.8362 23.425 17.5453 23.4499L16.6482 23.5263V31.8141L23.6288 36.737V5.29728L20.9919 8.95843L20.9685 8.99864C20.8871 9.13747 20.7779 9.25738 20.6483 9.35049C20.5418 9.42708 20.4233 9.48429 20.2982 9.51996H20.0701C19.9228 9.51756 19.7777 9.48932 19.6414 9.43665C19.5495 9.401 19.4616 9.35456 19.3795 9.29783C19.1244 9.11306 18.9496 8.8342 18.8946 8.51946C18.836 8.187 18.9102 7.84687 19.0996 7.57161L23.826 0.874501C23.937 0.72658 24.0806 0.607622 24.2448 0.526481C24.4118 0.444143 24.5956 0.403214 24.7809 0.406804L24.8022 0.407043L24.8233 0.406565C25.0037 0.402256 25.1829 0.442228 25.3452 0.52313C25.5066 0.603553 25.647 0.722273 25.7538 0.869714L25.7557 0.872347L30.485 7.54026C30.6657 7.80092 30.7385 8.12356 30.6866 8.43879C30.6352 8.75019 30.4667 9.02784 30.2184 9.21501C29.9623 9.38711 29.651 9.45317 29.3485 9.401C29.0415 9.34761 28.7649 9.17528 28.5796 8.91917L25.9709 5.29728V32.5707L33.3351 27.4028V20.5453L32.4082 20.4946C32.1107 20.4783 31.8293 20.3478 31.6228 20.1281ZM26.5119 47.2464C26.9827 46.8191 27.2781 46.2325 27.3429 45.6004C27.3795 45.2427 27.3411 44.8814 27.2301 44.5395C27.119 44.1975 26.9379 43.8825 26.6977 43.6147C26.4577 43.347 26.1639 43.1326 25.8355 42.9857C25.5071 42.8387 25.1514 42.7628 24.7916 42.7628C24.4317 42.7628 24.076 42.8387 23.7476 42.9857C23.4191 43.1326 23.1255 43.347 22.8854 43.6147C22.6452 43.8825 22.464 44.1975 22.353 44.5395C22.242 44.8814 22.2036 45.2427 22.2403 45.6004C22.3049 46.2325 22.6004 46.8191 23.0713 47.2464C23.5422 47.6741 24.1551 47.9115 24.7916 47.9115C25.4281 47.9115 26.0409 47.6741 26.5119 47.2464Z" fill="#0D72B9"/>
</g>
<defs>
<clipPath id="clip0_29_1547">
<rect width="50" height="50" fill="white" transform="translate(0 0.40625)"/>
</clipPath>
</defs>
</svg>
