<svg width="95" height="80" viewBox="0 0 95 80" fill="none" xmlns="http://www.w3.org/2000/svg">
<path d="M84.4223 65.3691L59.6483 57.411L58.8225 47.7709C60.4524 45.7976 62.7037 42.3119 63.0428 39.6606L63.2775 37.8178C63.4577 36.4017 63.9234 35.037 64.6465 33.8062C65.8486 31.7407 66.4829 29.394 66.485 27.0042V17.1554C66.4958 16.9596 66.4665 16.7636 66.399 16.5794C66.3314 16.3952 66.227 16.2268 66.0922 16.0843C65.9573 15.9419 65.7949 15.8284 65.6147 15.7508C65.4345 15.6733 65.2404 15.6333 65.0442 15.6333C64.8481 15.6333 64.654 15.6733 64.4738 15.7508C64.2936 15.8284 64.1311 15.9419 63.9963 16.0843C63.8614 16.2268 63.757 16.3952 63.6895 16.5794C63.622 16.7636 63.5927 16.9596 63.6034 17.1554V26.9868C63.6032 28.8669 63.1037 30.7133 62.1561 32.3371C61.2393 33.9022 60.648 35.6362 60.4176 37.4353L60.1829 39.2782C59.9482 41.134 57.988 44.3503 56.306 46.2627C56.1509 46.4377 56.0412 46.6482 55.9866 46.8755C55.9321 47.1029 55.9343 47.3402 55.993 47.5666C55.9582 47.7087 55.9451 47.8552 55.9539 48.0012L56.8623 58.5932C56.8877 58.8758 56.9955 59.1446 57.1725 59.3664C57.3495 59.5882 57.5877 59.7531 57.8576 59.8406L83.5356 68.0985C85.7415 68.7903 87.6683 70.1695 89.0345 72.0345C90.4006 73.8996 91.1344 76.1527 91.1286 78.4645C91.1286 78.846 91.2802 79.212 91.55 79.4818C91.8198 79.7516 92.1857 79.9031 92.5672 79.9031C92.9488 79.9031 93.3147 79.7516 93.5845 79.4818C93.8543 79.212 94.0059 78.846 94.0059 78.4645C94.012 75.5454 93.0856 72.7007 91.3617 70.3451C89.6377 67.9895 87.2065 66.2461 84.4223 65.3691Z" fill="#0D72B9"/>
<path d="M87.509 48.9576L87.183 45.1937C87.935 44.2288 88.9737 42.5859 89.1519 41.2212L89.2606 40.3519C89.3319 39.7842 89.5182 39.237 89.8082 38.7438C90.4441 37.6509 90.78 36.4095 90.7818 35.1451V30.9509C90.7818 28.4806 89.8005 26.1115 88.0537 24.3648C86.307 22.618 83.9379 21.6367 81.4676 21.6367C78.9974 21.6367 76.6283 22.618 74.8816 24.3648C73.1348 26.1115 72.1535 28.4806 72.1535 30.9509V35.3406C72.155 36.4478 72.4123 37.5396 72.9054 38.5308L73.0358 38.796C73.2575 39.2227 73.4045 39.6843 73.4704 40.1607L73.6052 41.2212C73.7834 42.6164 74.8395 44.2071 75.4306 45.0025L75.0916 48.9576L63.8651 52.5651C63.6756 52.6138 63.4981 52.7007 63.3434 52.8205C63.1887 52.9402 63.06 53.0902 62.9652 53.2614C62.8705 53.4325 62.8116 53.6212 62.7922 53.8158C62.7729 54.0105 62.7934 54.2071 62.8526 54.3936C62.9118 54.58 63.0084 54.7524 63.1365 54.9003C63.2646 55.0482 63.4215 55.1683 63.5976 55.2535C63.7738 55.3386 63.9654 55.387 64.1609 55.3955C64.3563 55.4041 64.5515 55.3727 64.7344 55.3032L76.8693 51.3916C77.14 51.3056 77.3792 51.1411 77.5564 50.9191C77.7336 50.697 77.8409 50.4273 77.8646 50.1442L78.2992 45.1372C78.3035 45.0735 78.3035 45.0097 78.2992 44.946C78.3632 44.7228 78.3717 44.4873 78.324 44.2601C78.2763 44.0328 78.1737 43.8207 78.0254 43.6421C77.3343 42.8032 76.5389 41.4689 76.4564 40.8387L76.3216 39.7826C76.2218 38.9837 75.9866 38.2076 75.6262 37.4877L75.4958 37.2269C75.2055 36.6346 75.0567 35.9829 75.0612 35.3232V30.9509C75.0389 30.0918 75.1888 29.2369 75.5021 28.4367C75.8155 27.6365 76.2859 26.9071 76.8856 26.2916C77.4853 25.676 78.2022 25.1869 78.994 24.8528C79.7858 24.5188 80.6365 24.3467 81.4959 24.3467C82.3553 24.3467 83.206 24.5188 83.9978 24.8528C84.7896 25.1869 85.5065 25.676 86.1062 26.2916C86.7059 26.9071 87.1763 27.6365 87.4897 28.4367C87.803 29.2369 87.9529 30.0918 87.9306 30.9509V35.1451C87.9302 35.8991 87.7308 36.6398 87.3525 37.2921C86.8673 38.1189 86.5552 39.0357 86.4355 39.9868L86.3225 40.8561C86.2355 41.5602 85.3837 42.9467 84.6752 43.7551C84.544 43.9032 84.4452 44.0772 84.3854 44.2659C84.3255 44.4545 84.3058 44.6536 84.3275 44.8504C84.3165 44.95 84.3165 45.0506 84.3275 45.1503L84.7621 50.1572C84.7875 50.4398 84.8954 50.7087 85.0723 50.9305C85.2493 51.1522 85.4876 51.3171 85.7575 51.4046L91.6119 53.2866C91.7523 53.3324 91.8989 53.3559 92.0466 53.3561C92.3911 53.3576 92.7248 53.2355 92.987 53.0118C93.2491 52.7881 93.4222 52.4778 93.4748 52.1372C93.5275 51.7967 93.4561 51.4486 93.2738 51.1562C93.0914 50.8638 92.8102 50.6466 92.4812 50.544L87.509 48.9576Z" fill="#0D72B9"/>
<path d="M2.89882 53.5386L9.53564 51.4046C9.80562 51.3179 10.0439 51.1532 10.2202 50.9311C10.3966 50.7091 10.5032 50.4398 10.5266 50.1572L10.9612 45.1503C10.9656 45.088 10.9656 45.0256 10.9612 44.9634C11.0239 44.7397 11.0313 44.5043 10.9829 44.2771C10.9344 44.05 10.8315 43.8381 10.6831 43.6595C9.992 42.8206 9.19663 41.4863 9.11405 40.8561L8.97931 39.8C8.87951 39.0011 8.64434 38.225 8.2839 37.5051L8.15351 37.2443C7.86317 36.652 7.71439 36.0003 7.71888 35.3406V30.9509C7.69655 30.0918 7.84648 29.2369 8.15981 28.4367C8.47315 27.6365 8.94355 26.9071 9.54328 26.2916C10.143 25.676 10.8599 25.1869 11.6517 24.8528C12.4435 24.5188 13.2942 24.3467 14.1536 24.3467C15.013 24.3467 15.8637 24.5188 16.6555 24.8528C17.4473 25.1869 18.1642 25.676 18.7639 26.2916C19.3636 26.9071 19.834 27.6365 20.1474 28.4367C20.4607 29.2369 20.6106 30.0918 20.5883 30.9509V35.1451C20.5798 35.8982 20.3729 36.6357 19.9885 37.2834C19.5032 38.1102 19.1912 39.027 19.0714 39.9781L18.9628 40.8474C18.8715 41.5515 18.0196 42.938 17.3112 43.7464C17.1809 43.8951 17.0827 44.0692 17.0229 44.2577C16.963 44.4462 16.9428 44.645 16.9635 44.8417C16.9525 44.9413 16.9525 45.0419 16.9635 45.1416L17.3981 50.1485C17.4208 50.4342 17.5286 50.7066 17.7075 50.9305C17.8865 51.1544 18.1284 51.3195 18.4021 51.4046L30.5414 55.3163C30.6816 55.3625 30.8283 55.386 30.976 55.3858C31.3182 55.3841 31.6485 55.2605 31.9078 55.0372C32.167 54.8139 32.3382 54.5054 32.3905 54.1673C32.4428 53.8291 32.3729 53.4834 32.1934 53.1922C32.0138 52.9009 31.7363 52.6832 31.4106 52.5781L20.1884 48.9707L19.8625 45.2068C20.6144 44.2419 21.6532 42.599 21.8314 41.2342L21.94 40.365C22.0113 39.7973 22.1976 39.2501 22.4876 38.7568C23.123 37.6637 23.4588 36.4224 23.4612 35.1581V30.9509C23.4612 28.4806 22.4799 26.1115 20.7332 24.3648C18.9864 22.618 16.6173 21.6367 14.1471 21.6367C11.6768 21.6367 9.30772 22.618 7.56098 24.3648C5.81424 26.1115 4.83293 28.4806 4.83293 30.9509V35.3406C4.83504 36.4477 5.09234 37.5394 5.58484 38.5308L5.71523 38.796C5.93697 39.2227 6.08397 39.6843 6.14986 40.1607L6.2846 41.2212C6.4628 42.6164 7.51895 44.2071 8.11005 45.0025L7.77104 48.9576L2.01652 50.7961C1.83407 50.8512 1.66437 50.942 1.5173 51.0632C1.37022 51.1844 1.2487 51.3336 1.15979 51.5022C1.07088 51.6708 1.01635 51.8554 0.999372 52.0452C0.982394 52.235 1.00331 52.4264 1.06089 52.608C1.11848 52.7897 1.21159 52.9581 1.33482 53.1035C1.45805 53.2489 1.60894 53.3684 1.77872 53.455C1.94851 53.5416 2.13381 53.5935 2.32386 53.6079C2.51391 53.6223 2.70491 53.5987 2.88579 53.5386H2.89882Z" fill="#0D72B9"/>
<path d="M56.1217 1.74063C59.8164 3.48984 62.81 6.43837 64.6152 10.1061C64.9395 10.7337 64.8834 11.4345 64.0142 11.8692C63.6821 12.0352 62.3239 11.9989 62.1552 11.6403C60.6832 8.51166 58.1894 5.9778 55.0845 4.45628C51.9797 2.93475 48.4492 2.51634 45.0747 3.26999C41.7002 4.02364 38.6832 5.90439 36.5207 8.60231C34.3582 11.3002 33.1793 14.6543 33.1784 18.112V27.4C33.1802 29.0489 33.564 30.6749 34.2997 32.1505L34.5779 32.7069C35.2564 34.071 35.6973 35.5408 35.8818 37.0532L36.1686 39.2959C36.3946 41.0648 38.2288 44.0899 39.8413 46.0413C40.0151 46.2537 40.1249 46.5111 40.158 46.7835C40.1911 47.0559 40.1461 47.3321 40.0281 47.5799C40.0633 47.722 40.0765 47.8685 40.0673 48.0146L39.1545 58.6065C39.1312 58.8891 39.0245 59.1584 38.8482 59.3805C38.6718 59.6025 38.4336 59.7672 38.1636 59.8539L12.4899 68.1119C10.2832 68.8029 8.35541 70.1818 6.98846 72.0469C5.6215 73.912 4.88708 76.1655 4.89257 78.4779C4.90333 78.6737 4.87404 78.8697 4.8065 79.0539C4.73895 79.2381 4.63456 79.4065 4.49972 79.549C4.36487 79.6914 4.20239 79.8049 4.02221 79.8825C3.84203 79.96 3.64793 80 3.45176 80C3.2556 80 3.0615 79.96 2.88132 79.8825C2.70114 79.8049 2.53866 79.6914 2.40381 79.549C2.26896 79.4065 2.16458 79.2381 2.09703 79.0539C2.02949 78.8697 2.0002 78.6737 2.01096 78.4779C2.00215 75.5578 2.92629 72.7113 4.64865 70.3533C6.37101 67.9954 8.80154 66.2492 11.5859 65.3694L36.3599 57.4113L37.19 47.7712C37.2001 47.6537 37.2264 47.5381 37.2682 47.4278C35.8079 45.5676 33.6304 42.2514 33.3044 39.6436L33.0175 37.4009C32.8671 36.2143 32.5159 35.062 31.9788 33.9934L31.705 33.437C30.7688 31.5622 30.2808 29.4956 30.2794 27.4V18.112C30.2762 14.0241 31.6571 10.0556 34.1971 6.85264C36.7372 3.64971 40.2867 1.40103 44.2678 0.472781C48.2489 -0.455464 52.427 -0.00859251 56.1217 1.74063Z" fill="#0D72B9"/>
</svg>
