<svg width="62" height="80" viewBox="0 0 62 80" fill="none" xmlns="http://www.w3.org/2000/svg">
<path d="M27.8152 56.4397C27.4566 56.4328 27.1112 56.3029 26.8368 56.0718L14.9317 46.1391C14.4896 45.7688 14.1257 45.3142 13.8611 44.8018C13.5965 44.2894 13.4366 43.7294 13.3907 43.1546C13.3448 42.5798 13.4138 42.0015 13.5937 41.4536C13.7736 40.9058 14.0608 40.3992 14.4386 39.9634L16.1136 38.0223C16.8595 37.1526 17.9188 36.6129 19.0608 36.5205C20.2027 36.4281 21.335 36.7907 22.211 37.5292L27.737 42.2255L42.1625 28.1365C42.7956 27.5336 43.6364 27.1973 44.5106 27.1973C45.3849 27.1973 46.2257 27.5336 46.8588 28.1365L50.1462 31.2674C50.4823 31.5849 50.7501 31.9677 50.9331 32.3923C51.1162 32.817 51.2106 33.2745 51.2106 33.7369C51.2106 34.1993 51.1162 34.6568 50.9331 35.0814C50.7501 35.5061 50.4823 35.8889 50.1462 36.2064L28.8797 56.017C28.591 56.2873 28.2107 56.4383 27.8152 56.4397ZM19.4088 39.6269C19.2335 39.6264 19.0601 39.6639 18.9007 39.7369C18.7412 39.8098 18.5995 39.9165 18.4852 40.0495L16.8102 41.9907C16.7037 42.1121 16.6226 42.2536 16.5715 42.4068C16.5204 42.56 16.5004 42.7219 16.5128 42.883C16.5402 43.208 16.6949 43.509 16.9433 43.7205L27.7604 52.7844L47.9703 33.8973C47.9975 33.8743 48.0194 33.8455 48.0343 33.813C48.0492 33.7806 48.0567 33.7452 48.0564 33.7095C48.0562 33.6739 48.0484 33.6387 48.0336 33.6063C48.0187 33.5739 47.9971 33.545 47.9703 33.5216L44.6907 30.3908C44.6695 30.3632 44.6422 30.3408 44.611 30.3254C44.5798 30.31 44.5454 30.302 44.5106 30.302C44.4758 30.302 44.4415 30.31 44.4103 30.3254C44.3791 30.3408 44.3518 30.3632 44.3306 30.3908L28.9032 45.419C28.6254 45.6895 28.257 45.8473 27.8694 45.8618C27.4819 45.8763 27.1028 45.7464 26.8055 45.4972L20.1915 39.9165C19.9731 39.7304 19.6958 39.6278 19.4088 39.6269Z" fill="#0D72B9"/>
<path d="M61.7767 16.8737C61.7761 16.6431 61.7246 16.4155 61.6258 16.2071C61.527 15.9987 61.3834 15.8147 61.2053 15.6683L46.6311 0.444401C46.5325 0.345152 46.4221 0.258402 46.3023 0.186103L46.2084 0.13914C46.0999 0.0800342 45.9841 0.0353045 45.864 0.00607767H45.817C45.7102 -0.00202589 45.6029 -0.00202589 45.4961 0.00607767H1.78907C1.3819 0.0058944 0.990681 0.164362 0.698418 0.447857C0.406155 0.731353 0.235848 1.11757 0.223633 1.52455L0.223633 78.4346C0.223633 78.8497 0.388563 79.2479 0.682139 79.5415C0.975716 79.8351 1.37389 80 1.78907 80H60.1956C60.6108 80 61.0089 79.8351 61.3025 79.5415C61.5961 79.2479 61.761 78.8497 61.761 78.4346V17.0302C61.7701 16.9785 61.7753 16.9262 61.7767 16.8737ZM47.0616 5.43815L49.034 7.4967L56.5246 15.3239H47.0616V5.43815ZM3.35451 76.8691V3.08999H43.9307V16.8737C43.9307 17.2889 44.0956 17.687 44.3892 17.9806C44.6828 18.2742 45.0809 18.4391 45.4961 18.4391H58.6302V76.8691H3.35451Z" fill="#0D72B9"/>
</svg>
