<svg width="50" height="51" viewBox="0 0 50 51" fill="none" xmlns="http://www.w3.org/2000/svg">
<g clip-path="url(#clip0_29_1499)">
<path d="M42.3942 47.1919H7.20154C7.06817 47.2121 6.93183 47.1949 6.8076 47.1423C6.68338 47.0898 6.57611 47.0039 6.49769 46.8941C6.44082 46.7904 6.41101 46.674 6.41101 46.5557C6.41101 46.4375 6.44082 46.321 6.49769 46.2174C7.08692 44.3316 8.26396 42.6837 9.85666 41.5148C11.4494 40.3458 13.3743 39.717 15.35 39.7202H34.4352C36.4109 39.717 38.3358 40.3458 39.9286 41.5148C41.5213 42.6837 42.6983 44.3316 43.2875 46.2174C43.34 46.3225 43.3672 46.4382 43.3672 46.5557C43.3672 46.6732 43.34 46.789 43.2875 46.8941C43.1909 47.0336 43.0515 47.1382 42.8905 47.1918C42.7294 47.2455 42.5552 47.2455 42.3942 47.1919ZM8.2573 45.6488H41.2572C40.6291 44.3361 39.6426 43.2278 38.4116 42.4518C37.1806 41.6758 35.7551 41.2638 34.2998 41.2633H15.35C13.8718 41.2379 12.4175 41.6378 11.1602 42.4153C9.90269 43.1928 8.89515 44.3151 8.2573 45.6488Z" fill="#0D72B9"/>
<path d="M34.0011 41.2628H15.5385C15.4121 41.265 15.2869 41.2366 15.1738 41.1801C15.0607 41.1235 14.9629 41.0404 14.8888 40.9379C14.836 40.8282 14.8086 40.7078 14.8086 40.586C14.8086 40.4642 14.836 40.3439 14.8888 40.2341L16.7838 34.6032C16.8388 34.4534 16.9383 34.3238 17.0689 34.2319C17.1995 34.14 17.355 34.0901 17.5147 34.0889H32.2144C32.374 34.0901 32.5296 34.14 32.6601 34.2319C32.7908 34.3238 32.8902 34.4534 32.9453 34.6032L34.8403 40.2341C34.8931 40.3439 34.9205 40.4642 34.9205 40.586C34.9205 40.7078 34.8931 40.8282 34.8403 40.9379C34.7567 41.0779 34.6286 41.1859 34.4766 41.2448C34.3245 41.3037 34.1571 41.31 34.0011 41.2628ZM16.6213 39.6927H32.8641L31.5105 35.632H17.9749L16.6213 39.6927Z" fill="#0D72B9"/>
<path d="M46.2377 35.6334H3.27562C2.40687 35.6334 1.57371 35.2883 0.959405 34.674C0.345109 34.0597 0 33.2265 0 32.3578V6.85667C0 5.98793 0.345109 5.15476 0.959405 4.54046C1.57371 3.92616 2.40687 3.58105 3.27562 3.58105H46.2377C46.6679 3.58105 47.0938 3.66578 47.4912 3.8304C47.8887 3.99501 48.2498 4.23629 48.5539 4.54046C48.8581 4.84463 49.0994 5.20574 49.264 5.60315C49.4286 6.00057 49.5133 6.42652 49.5133 6.85667V32.3578C49.5133 32.788 49.4286 33.2139 49.264 33.6113C49.0994 34.0088 48.8581 34.3699 48.5539 34.674C48.2498 34.9782 47.8887 35.2195 47.4912 35.3841C47.0938 35.5487 46.6679 35.6334 46.2377 35.6334ZM3.27562 5.15119C2.8233 5.15119 2.3895 5.33087 2.06966 5.65071C1.74982 5.97055 1.57013 6.40436 1.57013 6.85667V32.3578C1.57008 32.8126 1.7489 33.2493 2.06798 33.5734C2.38706 33.8976 2.82083 34.0833 3.27562 34.0903H46.2377C46.6925 34.0833 47.1263 33.8976 47.4453 33.5734C47.7644 33.2493 47.9433 32.8126 47.9432 32.3578V6.85667C47.9432 6.40436 47.7635 5.97055 47.4436 5.65071C47.1238 5.33087 46.69 5.15119 46.2377 5.15119H3.27562Z" fill="#0D72B9"/>
<path d="M43.856 31.0576H5.68552C5.47731 31.0576 5.27762 30.9749 5.1304 30.8277C4.98317 30.6805 4.90045 30.4808 4.90045 30.2725V8.99454C4.90045 8.78633 4.98317 8.58665 5.1304 8.43942C5.27762 8.29219 5.47731 8.20947 5.68552 8.20947H43.856C44.0595 8.2165 44.2523 8.3023 44.3937 8.44877C44.5351 8.59525 44.6141 8.79093 44.614 8.99454V30.2725C44.6141 30.4762 44.5351 30.6718 44.3937 30.8183C44.2523 30.9648 44.0595 31.0506 43.856 31.0576ZM6.44352 29.4875H43.071V9.72546H6.44352V29.4875Z" fill="#0D72B9"/>
<path d="M13.888 23.3957C13.3151 23.3957 12.7551 23.2259 12.2787 22.9076C11.8024 22.5893 11.4311 22.1369 11.2118 21.6076C10.9926 21.0784 10.9352 20.496 11.0471 19.9341C11.1588 19.3722 11.4347 18.8561 11.8398 18.4509C12.2448 18.0458 12.761 17.7699 13.3229 17.6582C13.8848 17.5465 14.4672 17.6038 14.9965 17.823C15.5258 18.0422 15.9782 18.4135 16.2964 18.8899C16.6148 19.3662 16.7846 19.9262 16.7846 20.4991C16.7846 21.2674 16.4794 22.0042 15.9362 22.5474C15.393 23.0906 14.6562 23.3957 13.888 23.3957ZM13.888 19.1726C13.6256 19.1726 13.3692 19.2504 13.151 19.3962C12.9329 19.542 12.7629 19.7492 12.6625 19.9915C12.5621 20.2339 12.5358 20.5007 12.587 20.758C12.6382 21.0153 12.7645 21.2516 12.95 21.4371C13.1356 21.6226 13.3719 21.749 13.6292 21.8002C13.8865 21.8514 14.1533 21.8251 14.3956 21.7247C14.638 21.6242 14.8452 21.4542 14.9909 21.2361C15.1367 21.018 15.2144 20.7615 15.2144 20.4991C15.2144 20.1473 15.0748 19.8099 14.8259 19.5612C14.5772 19.3124 14.2398 19.1726 13.888 19.1726Z" fill="#0D72B9"/>
<path d="M35.7887 24.6967C35.658 24.6785 35.5343 24.6264 35.4298 24.5457C35.3254 24.465 35.2438 24.3584 35.1932 24.2364L31.4032 15.9526L27.6133 23.0453C27.5557 23.1801 27.4559 23.2925 27.329 23.3657C27.2021 23.439 27.0548 23.469 26.9094 23.4513C26.7659 23.4568 26.6241 23.4183 26.5031 23.3409C26.3821 23.2635 26.2878 23.1509 26.2326 23.0182L23.7962 17.7935L21.9012 20.9067C21.8272 21.0197 21.7271 21.1131 21.6092 21.179C21.4914 21.2451 21.3594 21.2816 21.2244 21.2857H15.9997C15.7914 21.2857 15.5917 21.2029 15.4445 21.0557C15.2973 20.9085 15.2146 20.7088 15.2146 20.5006C15.2146 20.2924 15.2973 20.0927 15.4445 19.9455C15.5917 19.7982 15.7914 19.7155 15.9997 19.7155H20.7913L23.2277 15.709C23.2967 15.5869 23.4005 15.4882 23.5259 15.4255C23.6513 15.3628 23.7925 15.339 23.9316 15.357C24.069 15.3635 24.202 15.4072 24.3165 15.4836C24.4309 15.5598 24.5225 15.6659 24.5813 15.7902L27.0718 20.9337L30.8618 13.814C30.9362 13.6851 31.0425 13.5775 31.1705 13.5017C31.2986 13.4258 31.444 13.3842 31.5927 13.3809C31.7408 13.387 31.8839 13.4365 32.0041 13.5231C32.1244 13.6097 32.2167 13.7297 32.2695 13.8682L35.9783 22.179L37.6025 19.2282C37.6671 19.1049 37.7645 19.0018 37.8839 18.9302C38.0033 18.8586 38.1401 18.8212 38.2793 18.8222H43.9643C44.1725 18.8222 44.3722 18.9049 44.5194 19.0521C44.6667 19.1994 44.7494 19.399 44.7494 19.6073C44.7494 19.8155 44.6667 20.0151 44.5194 20.1624C44.3722 20.3096 44.1725 20.3923 43.9643 20.3923H38.6313L36.4656 24.2905C36.3986 24.412 36.3008 24.5136 36.1819 24.5848C36.063 24.6562 35.9274 24.6947 35.7887 24.6967Z" fill="#0D72B9"/>
<path d="M48.3492 47.1929H1.1911C0.982888 47.1929 0.783206 47.1102 0.635977 46.963C0.488748 46.8158 0.406037 46.6161 0.406037 46.4078C0.405971 46.306 0.426437 46.2051 0.466212 46.1114C0.505987 46.0176 0.564253 45.9328 0.637532 45.862C0.710811 45.7913 0.797602 45.7361 0.892714 45.6996C0.987825 45.6632 1.08931 45.6463 1.1911 45.6499H48.3492C48.5502 45.6499 48.743 45.7297 48.8852 45.8719C49.0274 46.014 49.1072 46.2068 49.1072 46.4078C49.1073 46.6115 49.0283 46.8072 48.8869 46.9536C48.7455 47.1001 48.5527 47.1859 48.3492 47.1929Z" fill="#0D72B9"/>
</g>
<defs>
<clipPath id="clip0_29_1499">
<rect width="50" height="50" fill="white" transform="translate(0 0.40625)"/>
</clipPath>
</defs>
</svg>
