<svg width="50" height="51" viewBox="0 0 50 51" fill="none" xmlns="http://www.w3.org/2000/svg">
<g clip-path="url(#clip0_29_1512)">
<path d="M40.8334 16.6294L48.2612 18.7537C48.7652 18.8979 49.0119 19.4667 48.7793 19.9366C44.6612 28.2555 43.2045 34.6312 40.8334 47.1126V16.6294Z" stroke="#0D72B9" stroke-width="1.66667"/>
<path d="M11.0144 23.8838H7.2275C6.76727 23.8838 6.39417 24.2569 6.39417 24.7171V40.419C6.39417 40.8793 6.76727 41.2524 7.2275 41.2524H11.0144C11.4746 41.2524 11.8477 40.8793 11.8477 40.419V24.7171C11.8477 24.2569 11.4746 23.8838 11.0144 23.8838Z" stroke="#0D72B9" stroke-width="0.833333"/>
<path d="M18.2857 13.2354H14.4989C14.0386 13.2354 13.6655 13.6084 13.6655 14.0687V40.4222C13.6655 40.8824 14.0386 41.2555 14.4989 41.2555H18.2857C18.7459 41.2555 19.119 40.8824 19.119 40.4222V14.0687C19.119 13.6084 18.7459 13.2354 18.2857 13.2354Z" stroke="#0D72B9" stroke-width="0.833333"/>
<path d="M25.5638 19.9858H21.7736C21.3134 19.9858 20.9403 20.3589 20.9403 20.8192V40.4188C20.9403 40.879 21.3134 41.2521 21.7736 41.2521H25.5638C26.0241 41.2521 26.3971 40.879 26.3971 40.4188V20.8192C26.3971 20.3589 26.0241 19.9858 25.5638 19.9858Z" stroke="#0D72B9" stroke-width="0.833333"/>
<path d="M32.835 10.6348H29.0449C28.5846 10.6348 28.2115 11.0079 28.2115 11.4681V40.419C28.2115 40.8792 28.5846 41.2523 29.0449 41.2523H32.835C33.2953 41.2523 33.6684 40.8792 33.6684 40.419V11.4681C33.6684 11.0079 33.2953 10.6348 32.835 10.6348Z" stroke="#0D72B9" stroke-width="0.833333"/>
<path d="M40.8334 10.3193L46.8047 11.7976C47.2938 11.9187 47.564 12.443 47.3842 12.9137C44.0367 21.6776 42.7417 29.0942 40.8334 42.16V10.3193Z" fill="white" stroke="#0D72B9" stroke-width="1.66667"/>
<path d="M39.3333 1.40625H2.66667C1.74619 1.40625 1 2.15244 1 3.07292V43.9062C1 44.8267 1.74619 45.5729 2.66667 45.5729H39.3333C40.2538 45.5729 41 44.8267 41 43.9062V3.07292C41 2.15244 40.2538 1.40625 39.3333 1.40625Z" stroke="#0D72B9" stroke-width="1.66667"/>
</g>
<defs>
<clipPath id="clip0_29_1512">
<rect width="50" height="50" fill="white" transform="translate(0 0.40625)"/>
</clipPath>
</defs>
</svg>
