<svg width="75" height="80" viewBox="0 0 75 80" fill="none" xmlns="http://www.w3.org/2000/svg">
<path d="M73.0874 67.9058C73.076 65.4172 72.2847 62.9963 70.8269 60.9905C69.3692 58.9847 67.32 57.4972 64.9735 56.7415L47.727 50.5923L46.3747 50.1368L45.7166 42.1655C46.9652 40.6214 48.9261 37.688 49.2281 35.2875L49.4219 33.7343C49.5753 32.5698 49.9585 31.4484 50.5489 30.4364C51.573 28.6643 52.1128 26.6491 52.113 24.5969V17.1131C52.113 16.735 51.9644 16.3723 51.6998 16.105C51.4352 15.8376 51.0763 15.6874 50.7021 15.6874C50.3279 15.6874 49.9691 15.8376 49.7045 16.105C49.4399 16.3723 49.2912 16.735 49.2912 17.1131V24.5969C49.2912 26.1444 48.8852 27.6643 48.1147 29.0016C47.3376 30.346 46.8363 31.8347 46.6407 33.379L46.4468 34.9322C46.253 36.4581 44.6438 39.1183 43.2599 40.708L43.1968 40.7854C42.6243 41.5552 40.6229 43.819 39.0272 44.1515C38.6876 44.2253 38.3869 44.423 38.1826 44.7068C37.9783 44.9906 37.8848 45.3406 37.92 45.6898C37.9551 46.0389 38.1165 46.3627 38.3732 46.5991C38.6299 46.8355 38.9639 46.968 39.3111 46.9711C39.4079 46.9708 39.5045 46.9616 39.5996 46.9437C40.9212 46.5867 42.1362 45.908 43.1382 44.9669L43.6566 51.2755C43.6799 51.5492 43.7808 51.8102 43.947 52.0275C44.1133 52.2448 44.338 52.4091 44.5942 52.5008L44.7384 52.5509L35.8808 62.1528L32.1394 57.4703C30.7555 55.7394 29.6466 54.3593 28.8488 53.3708L28.1906 52.5646L28.4115 52.478C28.6587 52.3825 28.8743 52.2187 29.0337 52.0052C29.1931 51.7918 29.2899 51.5374 29.3131 51.271L29.8585 44.894C30.9256 45.8254 32.174 46.5206 33.5233 46.9346C33.6541 46.9704 33.7889 46.9887 33.9244 46.9893C34.2633 46.989 34.5907 46.8655 34.8469 46.6413C35.1031 46.4171 35.2708 46.1073 35.3195 45.7684C35.3682 45.4295 35.2946 45.0843 35.1121 44.7958C34.9296 44.5072 34.6504 44.2947 34.3256 44.1971C32.5235 43.5947 30.9875 42.3729 29.9847 40.7444C29.9435 40.6671 29.8952 40.5939 29.8405 40.5257C28.4881 38.886 26.9961 36.3488 26.8203 34.9504L26.5634 33.0556C26.4008 31.7603 26.0228 30.5021 25.4454 29.3341L25.2156 28.8786C24.7436 27.9252 24.4487 26.8923 24.3456 25.8313L25.1029 25.4396V26.0682C25.11 27.0847 25.5143 28.0572 26.2277 28.7738C26.9412 29.4905 27.9059 29.8932 28.9119 29.8944H32.4504C33.3937 29.8936 34.3032 29.5391 35.0027 28.8996C35.7022 28.2601 36.142 27.381 36.2369 26.4326H37.1384C37.2332 27.3802 37.6724 28.2586 38.3709 28.8981C39.0695 29.5375 39.9779 29.8925 40.9204 29.8944H44.4635C44.9656 29.8974 45.4633 29.8001 45.928 29.608C46.3928 29.4159 46.8153 29.1329 47.1714 28.7751C47.5275 28.4174 47.8101 27.9921 48.0029 27.5236C48.1958 27.0552 48.295 26.5528 48.295 26.0454V23.9456C48.2938 23.1571 47.9833 22.4012 47.4316 21.8437C46.8798 21.2861 46.1318 20.9724 45.3515 20.9712H40.073C39.3523 20.9728 38.6572 21.2411 38.119 21.7253C37.5808 22.2096 37.2368 22.8763 37.152 23.5994H36.2504C36.1656 22.8763 35.8215 22.2096 35.2834 21.7253C34.7452 21.2411 34.0501 20.9728 33.3294 20.9712H32.8787C36.3586 18.8121 39.5861 16.6439 41.7183 15.1818L41.3441 18.4022C41.3167 18.6529 41.3559 18.9064 41.4575 19.1368C41.5591 19.3671 41.7196 19.566 41.9224 19.713C42.1252 19.86 42.3631 19.9498 42.6116 19.9732C42.8601 19.9966 43.1103 19.9527 43.3365 19.8461C52.0905 15.3822 52.0905 11.7245 52.0905 9.75679V9.72946C52.0905 6.74594 50.328 4.08583 47.132 2.24106C44.732 0.864275 42.0378 0.0953377 39.2796 0H33.8703C30.5797 0 25.7565 1.56236 22.0647 5.94882C19.1482 9.41517 16.0424 15.8331 17.8049 26.7241C17.8584 27.0584 18.028 27.3626 18.2832 27.5821C18.5384 27.8016 18.8626 27.9221 19.1978 27.9221C19.3512 27.9208 19.5033 27.8947 19.6485 27.8447C20.2706 27.6351 20.9377 27.3892 21.6409 27.0658C21.8375 28.13 22.1788 29.1616 22.6552 30.1313L22.8851 30.5868C23.322 31.4668 23.607 32.4157 23.728 33.3926L23.9669 35.283C24.2464 37.4693 26.0224 40.2616 27.253 41.8649C27.2333 41.9382 27.2182 42.0128 27.208 42.0881L26.5273 50.1413L10.0336 56.7643C7.69005 57.5176 5.64271 59.0013 4.1851 61.0028C2.72749 63.0043 1.93447 65.4208 1.91973 67.9058L0.513325 78.3276C0.487919 78.5128 0.498917 78.7012 0.545687 78.8821C0.592456 79.0629 0.67408 79.2327 0.785882 79.3816C0.897683 79.5306 1.03747 79.6558 1.19722 79.75C1.35698 79.8443 1.53357 79.9058 1.71688 79.931H1.91071C2.25172 79.9298 2.58085 79.8043 2.83759 79.5775C3.09433 79.3507 3.26141 79.0379 3.3081 78.6966L4.72352 68.1836C4.72352 68.1199 4.72352 68.0561 4.72352 67.9923C4.72506 66.0889 5.3286 64.2357 6.44606 62.7034C7.56352 61.1711 9.13641 60.0397 10.9351 59.4745L11.0253 59.4426L25.45 53.676C26.5543 54.997 31.5669 61.2692 34.7223 65.232C34.8483 65.3914 35.0071 65.5212 35.1877 65.6125C35.3683 65.7037 35.5663 65.7542 35.7681 65.7604H35.8177C36.0116 65.7607 36.2034 65.7204 36.3811 65.642C36.5588 65.5636 36.7184 65.4488 36.8499 65.3049L47.6684 53.5895L64.0404 59.4745H64.0855C65.8829 60.0457 67.4525 61.1825 68.5651 62.719C69.6777 64.2555 70.2751 66.1112 70.2701 68.0151C70.2657 68.0788 70.2657 68.1427 70.2701 68.2064L71.6855 78.7193C71.7047 78.9095 71.7616 79.0938 71.8528 79.2613C71.944 79.4288 72.0675 79.5761 72.2161 79.6943C72.3648 79.8126 72.5354 79.8995 72.7179 79.9498C72.9004 80.0001 73.091 80.0128 73.2785 79.9871C73.466 79.9614 73.6464 79.8979 73.8091 79.8004C73.9718 79.7028 74.1134 79.5732 74.2255 79.4192C74.3376 79.2653 74.4179 79.0901 74.4617 78.9041C74.5055 78.7182 74.5118 78.5252 74.4803 78.3367L73.0874 67.9058ZM39.9512 23.9456C39.9512 23.913 39.9641 23.8817 39.9869 23.8586C40.0097 23.8356 40.0407 23.8226 40.073 23.8226H45.338C45.3707 23.8226 45.4021 23.8354 45.4256 23.8583C45.4492 23.8813 45.463 23.9126 45.4642 23.9456V26.0637C45.4642 26.3282 45.3602 26.5819 45.175 26.769C44.9899 26.9561 44.7388 27.0612 44.477 27.0612H40.9339C40.6729 27.06 40.423 26.9544 40.2388 26.7674C40.0546 26.5805 39.9512 26.3274 39.9512 26.0637V23.9456ZM33.3159 23.8226C33.345 23.827 33.3715 23.8419 33.3905 23.8645C33.4096 23.8871 33.4199 23.9159 33.4196 23.9456V26.0637C33.4196 26.3282 33.3156 26.5819 33.1304 26.769C32.9453 26.9561 32.6942 27.0612 32.4324 27.0612H28.9119C28.6501 27.0612 28.399 26.9561 28.2138 26.769C28.0287 26.5819 27.9247 26.3282 27.9247 26.0637V23.9456C27.9259 23.9218 27.9355 23.8991 27.9517 23.8818L28.0599 23.8226H33.3159ZM20.3833 24.5241C19.7838 19.304 20.1399 12.6811 24.2464 7.79814C27.3161 4.15415 31.3686 2.85142 33.9064 2.85142H39.2796C41.5378 2.93507 43.744 3.55954 45.7166 4.67342C47.3304 5.60719 49.2597 7.23332 49.2597 9.68391V9.71124C49.2597 10.9775 49.2597 12.9954 44.4184 15.947L44.8421 12.344C44.8731 12.0703 44.8253 11.7934 44.7043 11.5465C44.5833 11.2996 44.3944 11.0933 44.1601 10.9524C43.9259 10.8114 43.6563 10.7418 43.3839 10.7519C43.1114 10.762 42.8477 10.8514 42.6243 11.0094C42.5116 11.0914 34.3527 16.8899 26.8834 21.167C26.6892 21.2511 26.5048 21.3565 26.3335 21.4813C24.4057 22.6031 22.4194 23.6188 20.3833 24.5241Z" fill="#0D72B9"/>
</svg>
