<svg width="57" height="56" viewBox="0 0 57 56" fill="none" xmlns="http://www.w3.org/2000/svg">
<path d="M3.69531 47.2471H52.6953" stroke="#435167" stroke-width="3" stroke-linecap="round" stroke-linejoin="round"/>
<path d="M49.1934 47.2471V22.7471C49.1934 22.2829 49.009 21.8378 48.6808 21.5096C48.3526 21.1814 47.9075 20.9971 47.4434 20.9971H31.6934M31.6934 47.2471V8.74707C31.6934 8.28294 31.509 7.83782 31.1808 7.50963C30.8526 7.18144 30.4075 6.99707 29.9434 6.99707H8.94336C8.47923 6.99707 8.03411 7.18144 7.70592 7.50963C7.37773 7.83782 7.19336 8.28294 7.19336 8.74707V47.2471H31.6934Z" stroke="#435167" stroke-width="3" stroke-linecap="round" stroke-linejoin="round"/>
<path d="M14.1934 15.7471H21.1934" stroke="#435167" stroke-width="3" stroke-linecap="round" stroke-linejoin="round"/>
<path d="M17.6934 29.7471H24.6934" stroke="#435167" stroke-width="3" stroke-linecap="round" stroke-linejoin="round"/>
<path d="M14.1934 38.4971H21.1934" stroke="#435167" stroke-width="3" stroke-linecap="round" stroke-linejoin="round"/>
<path d="M38.6934 38.4971H42.1934" stroke="#435167" stroke-width="3" stroke-linecap="round" stroke-linejoin="round"/>
<path d="M38.6934 29.7471H42.1934" stroke="#435167" stroke-width="3" stroke-linecap="round" stroke-linejoin="round"/>
</svg>
