<svg width="21" height="21" viewBox="0 0 21 21" fill="none" xmlns="http://www.w3.org/2000/svg">
<path d="M10.1947 6.50326V4.83659C10.1947 3.91992 9.44466 3.16992 8.52799 3.16992H3.52799C2.61133 3.16992 1.86133 3.91992 1.86133 4.83659V16.5033C1.86133 17.4199 2.61133 18.1699 3.52799 18.1699H16.8613C17.778 18.1699 18.528 17.4199 18.528 16.5033V8.16992C18.528 7.25325 17.778 6.50326 16.8613 6.50326H10.1947ZM5.19466 16.5033H3.52799V14.8366H5.19466V16.5033ZM5.19466 13.1699H3.52799V11.5033H5.19466V13.1699ZM5.19466 9.83659H3.52799V8.16992H5.19466V9.83659ZM5.19466 6.50326H3.52799V4.83659H5.19466V6.50326ZM8.52799 16.5033H6.86133V14.8366H8.52799V16.5033ZM8.52799 13.1699H6.86133V11.5033H8.52799V13.1699ZM8.52799 9.83659H6.86133V8.16992H8.52799V9.83659ZM8.52799 6.50326H6.86133V4.83659H8.52799V6.50326ZM16.028 16.5033H10.1947V14.8366H11.8613V13.1699H10.1947V11.5033H11.8613V9.83659H10.1947V8.16992H16.028C16.4863 8.16992 16.8613 8.54492 16.8613 9.00325V15.6699C16.8613 16.1283 16.4863 16.5033 16.028 16.5033ZM15.1947 9.83659H13.528V11.5033H15.1947V9.83659ZM15.1947 13.1699H13.528V14.8366H15.1947V13.1699Z" fill="#171719"/>
</svg>
