<svg width="33" height="33" viewBox="0 0 33 33" fill="none" xmlns="http://www.w3.org/2000/svg">
<path d="M16.1934 3.90527V6.90527" stroke="#6B7688" stroke-width="2.5" stroke-linecap="round" stroke-linejoin="round"/>
<path d="M16.1934 26.9053V29.9053" stroke="#6B7688" stroke-width="2.5" stroke-linecap="round" stroke-linejoin="round"/>
<path d="M23.1934 11.9053C23.1934 11.2487 23.064 10.5985 22.8128 9.99186C22.5615 9.38523 22.1932 8.83403 21.7289 8.36974C21.2646 7.90545 20.7134 7.53715 20.1068 7.28588C19.5001 7.0346 18.85 6.90527 18.1934 6.90527H13.6934C12.3673 6.90527 11.0955 7.43206 10.1578 8.36974C9.22014 9.30742 8.69336 10.5792 8.69336 11.9053C8.69336 13.2314 9.22014 14.5031 10.1578 15.4408C11.0955 16.3785 12.3673 16.9053 13.6934 16.9053H19.1934C20.5194 16.9053 21.7912 17.4321 22.7289 18.3697C23.6666 19.3074 24.1934 20.5792 24.1934 21.9053C24.1934 23.2314 23.6666 24.5031 22.7289 25.4408C21.7912 26.3785 20.5194 26.9053 19.1934 26.9053H13.1934C11.8673 26.9053 10.5955 26.3785 9.65783 25.4408C8.72014 24.5031 8.19336 23.2314 8.19336 21.9053" stroke="#6B7688" stroke-width="2.5" stroke-linecap="round" stroke-linejoin="round"/>
</svg>
