<svg width="57" height="57" viewBox="0 0 57 57" fill="none" xmlns="http://www.w3.org/2000/svg">
<path d="M28.1953 16.042V19.542" stroke="#435167" stroke-width="3" stroke-linecap="round" stroke-linejoin="round"/>
<path d="M28.1953 37.042V40.542" stroke="#435167" stroke-width="3" stroke-linecap="round" stroke-linejoin="round"/>
<path d="M28.1953 49.292C39.7933 49.292 49.1953 39.89 49.1953 28.292C49.1953 16.694 39.7933 7.29199 28.1953 7.29199C16.5973 7.29199 7.19531 16.694 7.19531 28.292C7.19531 39.89 16.5973 49.292 28.1953 49.292Z" stroke="#435167" stroke-width="3" stroke-linecap="round" stroke-linejoin="round"/>
<path d="M22.9453 37.042H30.8203C31.9806 37.042 33.0934 36.5811 33.9139 35.7606C34.7344 34.9401 35.1953 33.8273 35.1953 32.667C35.1953 31.5067 34.7344 30.3939 33.9139 29.5734C33.0934 28.7529 31.9806 28.292 30.8203 28.292H25.5703C24.41 28.292 23.2972 27.8311 22.4767 27.0106C21.6562 26.1901 21.1953 25.0773 21.1953 23.917C21.1953 22.7567 21.6562 21.6439 22.4767 20.8234C23.2972 20.0029 24.41 19.542 25.5703 19.542H33.4453" stroke="#435167" stroke-width="3" stroke-linecap="round" stroke-linejoin="round"/>
</svg>
