<svg width="65" height="65" viewBox="0 0 65 65" fill="none" xmlns="http://www.w3.org/2000/svg">
<g clip-path="url(#clip0_673_4703)">
<path d="M64.1934 32.9004C64.1934 15.2273 49.8665 0.900391 32.1934 0.900391C14.5202 0.900391 0.193359 15.2273 0.193359 32.9004C0.193359 50.5735 14.5202 64.9004 32.1934 64.9004C49.8665 64.9004 64.1934 50.5735 64.1934 32.9004Z" fill="#7289DA"/>
<path d="M48.2416 21.9401C45.3059 19.5914 41.783 18.4172 38.0643 18.2214L37.4771 18.8086C40.8043 19.5914 43.7402 21.1572 46.4802 23.3101C43.153 21.5486 39.4343 20.3744 35.5199 19.9829C34.3456 19.7872 33.367 19.7872 32.1927 19.7872C31.0184 19.7872 30.0398 19.7872 28.8655 19.9829C24.9511 20.3744 21.2324 21.5486 17.9052 23.3101C20.6452 21.1572 23.5811 19.5914 26.9083 18.8086L26.3211 18.2214C22.6024 18.4172 19.0795 19.5914 16.1438 21.9401C12.8166 28.2032 11.0551 35.249 10.8594 42.4905C13.7951 45.6221 17.9052 47.5793 22.2111 47.5793C22.2111 47.5793 23.5811 46.0136 24.5596 44.6434C22.0154 44.0564 19.6667 42.6862 18.101 40.5334C19.471 41.3162 20.841 42.0992 22.2111 42.6862C23.9726 43.4692 25.734 43.8606 27.4955 44.2521C29.0612 44.4477 30.627 44.6434 32.1927 44.6434C33.7584 44.6434 35.3242 44.4477 36.8899 44.2521C38.6514 43.8606 40.4128 43.4692 42.1743 42.6862C43.5444 42.0992 44.9144 41.3162 46.2844 40.5334C44.7187 42.6862 42.37 44.0564 39.8258 44.6434C40.8043 46.0136 42.1743 47.5793 42.1743 47.5793C46.4802 47.5793 50.5903 45.6221 53.526 42.4905C53.3303 35.249 51.5688 28.2032 48.2416 21.9401ZM25.734 38.9676C23.7768 38.9676 22.0154 37.2061 22.0154 35.0533C22.0154 32.9004 23.7768 31.1389 25.734 31.1389C27.6912 31.1389 29.4527 32.9004 29.4527 35.0533C29.4527 37.2061 27.6912 38.9676 25.734 38.9676ZM38.6514 38.9676C36.6942 38.9676 34.9327 37.2061 34.9327 35.0533C34.9327 32.9004 36.6942 31.1389 38.6514 31.1389C40.6086 31.1389 42.37 32.9004 42.37 35.0533C42.37 37.2061 40.6086 38.9676 38.6514 38.9676Z" fill="white"/>
</g>
<defs>
<clipPath id="clip0_673_4703">
<rect width="64" height="64" fill="white" transform="translate(0.193359 0.900391)"/>
</clipPath>
</defs>
</svg>
