<svg width="33" height="33" viewBox="0 0 33 33" fill="none" xmlns="http://www.w3.org/2000/svg">
<path d="M16.1933 22.9003C19.507 22.9003 22.1933 20.2141 22.1933 16.9004C22.1933 13.5867 19.507 10.9004 16.1933 10.9004C12.8796 10.9004 10.1934 13.5867 10.1934 16.9004C10.1934 20.2141 12.8796 22.9003 16.1933 22.9003Z" stroke="#6B7688" stroke-width="2.5" stroke-linecap="round" stroke-linejoin="round"/>
<path d="M6.72979 12.3465C6.95799 11.8733 7.22142 11.4178 7.51787 10.984V10.984L7.46326 7.74005C7.46078 7.59113 7.49149 7.44353 7.55315 7.30795C7.61481 7.17238 7.70589 7.05223 7.81976 6.95623C8.99065 5.96841 10.3271 5.19556 11.7673 4.67342C11.907 4.6231 12.0562 4.60453 12.204 4.61905C12.3518 4.63357 12.4945 4.68083 12.6217 4.75738L15.4083 6.42937L15.4054 6.42764C15.9294 6.38864 16.4555 6.38905 16.9794 6.42889V6.42889L19.7615 4.75961C19.8892 4.683 20.0324 4.63579 20.1806 4.62141C20.3289 4.60702 20.4785 4.62582 20.6185 4.67644C22.0595 5.19656 23.397 5.96752 24.5693 6.95368C24.6827 7.04953 24.7734 7.16943 24.8347 7.30468C24.896 7.43993 24.9265 7.58714 24.9238 7.73562L24.8691 10.9849L24.8691 10.9815C25.1649 11.4158 25.4276 11.8716 25.6551 12.3452H25.6551L28.4917 13.9199C28.6219 13.9923 28.7344 14.0927 28.821 14.2138C28.9076 14.335 28.9661 14.474 28.9923 14.6206C29.2621 16.1271 29.2634 17.6694 28.9963 19.1763C28.9702 19.3233 28.9117 19.4626 28.8251 19.5841C28.7385 19.7056 28.6258 19.8062 28.4954 19.8787L25.6543 21.4559L25.6572 21.4543C25.4291 21.9275 25.1656 22.383 24.8692 22.8168V22.8168L24.9238 26.0607C24.9263 26.2097 24.8956 26.3573 24.8339 26.4929C24.7722 26.6284 24.6812 26.7486 24.5673 26.8446C23.3964 27.8324 22.0599 28.6052 20.6198 29.1274C20.48 29.1777 20.3309 29.1963 20.1831 29.1818C20.0353 29.1672 19.8926 29.12 19.7653 29.0434L16.9787 27.3714L16.9816 27.3732C16.4577 27.4122 15.9315 27.4118 15.4076 27.3719V27.3719L12.6256 29.0412C12.4978 29.1178 12.3546 29.165 12.2064 29.1794C12.0582 29.1938 11.9086 29.175 11.7685 29.1244C10.3276 28.6043 8.99004 27.8333 7.81776 26.8471C7.70432 26.7513 7.61365 26.6314 7.55234 26.4961C7.49102 26.3609 7.46059 26.2137 7.46326 26.0652L7.51795 22.816L7.5179 22.8193C7.22213 22.3851 6.95942 21.9292 6.73197 21.4556H6.73198L3.8953 19.8809C3.76509 19.8085 3.65262 19.7081 3.56604 19.587C3.47946 19.4658 3.42094 19.3268 3.39474 19.1802C3.12497 17.6737 3.12362 16.1314 3.39075 14.6245C3.41681 14.4775 3.47529 14.3382 3.56194 14.2167C3.64858 14.0952 3.76122 13.9946 3.89166 13.9221L6.73272 12.3449L6.72979 12.3465Z" stroke="#6B7688" stroke-width="2.5" stroke-linecap="round" stroke-linejoin="round"/>
</svg>
