<svg width="33" height="33" viewBox="0 0 33 33" fill="none" xmlns="http://www.w3.org/2000/svg">
<g clip-path="url(#clip0_673_4910)">
<path d="M2.19141 27.8982H30.1914" stroke="#6B7688" stroke-width="2.5" stroke-linecap="round" stroke-linejoin="round"/>
<path d="M28.1914 27.8982V13.8982C28.1914 13.633 28.0861 13.3786 27.8985 13.1911C27.711 13.0036 27.4566 12.8982 27.1914 12.8982H18.1914M18.1914 27.8982V5.89819C18.1914 5.63298 18.0861 5.37862 17.8985 5.19109C17.711 5.00355 17.4566 4.89819 17.1914 4.89819H5.19141C4.92619 4.89819 4.67184 5.00355 4.4843 5.19109C4.29676 5.37862 4.19141 5.63298 4.19141 5.89819V27.8982H18.1914Z" stroke="#6B7688" stroke-width="2.5" stroke-linecap="round" stroke-linejoin="round"/>
<path d="M8.19141 9.89819H12.1914" stroke="#6B7688" stroke-width="2.5" stroke-linecap="round" stroke-linejoin="round"/>
<path d="M10.1914 17.8982H14.1914" stroke="#6B7688" stroke-width="2.5" stroke-linecap="round" stroke-linejoin="round"/>
<path d="M8.19141 22.8982H12.1914" stroke="#6B7688" stroke-width="2.5" stroke-linecap="round" stroke-linejoin="round"/>
<path d="M22.1914 22.8982H24.1914" stroke="#6B7688" stroke-width="2.5" stroke-linecap="round" stroke-linejoin="round"/>
<path d="M22.1914 17.8982H24.1914" stroke="#6B7688" stroke-width="2.5" stroke-linecap="round" stroke-linejoin="round"/>
</g>
<defs>
<clipPath id="clip0_673_4910">
<rect width="32" height="32" fill="white" transform="translate(0.191406 0.900391)"/>
</clipPath>
</defs>
</svg>
