<svg width="25" height="25" viewBox="0 0 25 25" fill="none" xmlns="http://www.w3.org/2000/svg">
<g clip-path="url(#clip0_673_5219)">
<path fill-rule="evenodd" clip-rule="evenodd" d="M23.1773 6.99039C22.5263 5.83239 21.8198 5.61939 20.3813 5.53839C18.9443 5.44089 15.3308 5.40039 12.2003 5.40039C9.06377 5.40039 5.44877 5.44089 4.01327 5.53689C2.57777 5.61939 1.86977 5.83089 1.21277 6.99039C0.542266 8.14689 0.197266 10.1389 0.197266 13.6459V13.6579C0.197266 17.1499 0.542266 19.1569 1.21277 20.3014C1.86977 21.4594 2.57627 21.6694 4.01177 21.7669C5.44877 21.8509 9.06377 21.9004 12.2003 21.9004C15.3308 21.9004 18.9443 21.8509 20.3828 21.7684C21.8213 21.6709 22.5278 21.4609 23.1788 20.3029C23.8553 19.1584 24.1973 17.1514 24.1973 13.6594V13.6519V13.6474C24.1973 10.1389 23.8553 8.14689 23.1773 6.99039ZM9.19727 18.1504V9.15039L16.6973 13.6504L9.19727 18.1504Z" fill="#6B7688"/>
</g>
<defs>
<clipPath id="clip0_673_5219">
<rect width="24" height="24" fill="white" transform="translate(0.197266 0.900391)"/>
</clipPath>
</defs>
</svg>
