<svg width="171" height="57" viewBox="0 0 171 57" fill="none" xmlns="http://www.w3.org/2000/svg">
<g clip-path="url(#clip0_673_5152)">
<path d="M91.3541 47.9781C91.1888 47.9781 91.0303 47.9121 90.9134 47.7945C90.7965 47.677 90.7309 47.5176 90.7309 47.3513V30.2008C90.7277 30.1134 90.7424 30.0263 90.7739 29.9448C90.8054 29.8633 90.8531 29.7891 90.9141 29.7269C90.9718 29.6672 91.0411 29.6201 91.1176 29.5884C91.1941 29.5567 91.2763 29.5411 91.3591 29.5426H102.879C102.966 29.5381 103.054 29.552 103.135 29.5835C103.216 29.615 103.29 29.6633 103.352 29.7253C103.414 29.7874 103.462 29.8618 103.493 29.9437C103.524 30.0256 103.538 30.1131 103.534 30.2008V31.9396C103.535 32.0229 103.52 32.1055 103.488 32.1825C103.457 32.2595 103.41 32.3292 103.35 32.3872C103.289 32.4486 103.215 32.4966 103.134 32.5283C103.053 32.56 102.966 32.5747 102.879 32.5715H94.2656V37.2327H102.304C102.477 37.2261 102.646 37.2877 102.775 37.4045C102.836 37.4637 102.884 37.5354 102.916 37.6147C102.947 37.694 102.962 37.7792 102.958 37.8646V39.4944C102.962 39.5798 102.947 39.665 102.916 39.7443C102.884 39.8236 102.836 39.8953 102.775 39.9545C102.646 40.0713 102.477 40.1329 102.304 40.1263H94.2656V44.948H103.089C103.176 44.9435 103.263 44.9574 103.344 44.9889C103.426 45.0204 103.5 45.0687 103.561 45.1307C103.623 45.1928 103.671 45.2672 103.702 45.3491C103.734 45.4309 103.748 45.5185 103.743 45.6062V47.3438C103.745 47.427 103.729 47.5098 103.698 47.5868C103.666 47.6638 103.619 47.7334 103.56 47.7913C103.498 47.8531 103.425 47.9015 103.343 47.9334C103.262 47.9653 103.176 47.9801 103.089 47.9769L91.3541 47.9781Z" fill="#257CFF"/>
<path d="M111.861 48.2414C110.952 48.2607 110.047 48.1364 109.177 47.8728C108.523 47.6719 107.907 47.3598 107.357 46.9501C106.946 46.6461 106.591 46.2718 106.309 45.8443C106.082 45.4757 105.96 45.1686 105.943 44.9229C105.931 44.8377 105.94 44.7509 105.97 44.6703C105.999 44.5897 106.049 44.5179 106.113 44.4615C106.231 44.3527 106.385 44.292 106.545 44.291H108.614C108.676 44.2898 108.738 44.2987 108.797 44.3173C108.877 44.3548 108.948 44.4086 109.006 44.4753C109.233 44.6684 109.473 44.8702 109.727 45.0808C110 45.304 110.304 45.4856 110.629 45.6199C111.046 45.7822 111.492 45.8585 111.939 45.8443C112.62 45.8443 113.191 45.7081 113.654 45.4356C113.867 45.3253 114.045 45.1571 114.167 44.95C114.29 44.743 114.352 44.5055 114.347 44.2647C114.362 43.9386 114.255 43.6188 114.047 43.3683C113.846 43.1418 113.475 42.9357 112.934 42.7502C112.177 42.5092 111.408 42.3113 110.629 42.1572C109.783 41.9766 108.965 41.6845 108.195 41.2884C107.605 40.9891 107.108 40.534 106.755 39.972C106.423 39.3877 106.26 38.7212 106.285 38.0483C106.31 37.3754 106.523 36.7231 106.899 36.1658C107.308 35.5423 107.919 35.0287 108.731 34.625C109.543 34.2213 110.551 34.0195 111.756 34.0195C112.59 34.0035 113.421 34.1237 114.216 34.3755C114.841 34.5725 115.43 34.8688 115.961 35.2531C116.369 35.5487 116.727 35.9085 117.022 36.3187C117.266 36.679 117.397 36.9907 117.414 37.254C117.427 37.3379 117.419 37.4237 117.392 37.504C117.365 37.5843 117.318 37.6568 117.257 37.7154C117.145 37.8252 116.995 37.8864 116.839 37.8859H114.9C114.819 37.8871 114.738 37.8691 114.665 37.8332C114.592 37.7978 114.521 37.7558 114.455 37.7078C114.264 37.5323 114.056 37.348 113.832 37.155C113.582 36.9469 113.304 36.774 113.007 36.641C112.605 36.477 112.172 36.4009 111.738 36.4178C111.074 36.4178 110.567 36.5624 110.219 36.8516C110.054 36.9805 109.92 37.1464 109.829 37.3362C109.738 37.5259 109.693 37.7342 109.696 37.9448C109.69 38.2246 109.778 38.4982 109.945 38.7221C110.111 38.9419 110.447 39.1479 110.953 39.3402C111.705 39.6005 112.475 39.8034 113.256 39.9469C114.426 40.1576 115.355 40.4689 116.045 40.8809C116.734 41.293 117.223 41.7673 117.512 42.3039C117.802 42.8504 117.95 43.462 117.943 44.0816C117.95 44.8492 117.706 45.5978 117.25 46.2129C116.786 46.8448 116.105 47.3408 115.207 47.701C114.309 48.0613 113.193 48.2414 111.861 48.2414Z" fill="#257CFF"/>
<path d="M126.731 47.9776C125.684 47.9776 124.802 47.7929 124.087 47.4234C123.386 47.0709 122.823 46.491 122.489 45.7773C122.14 45.0502 121.966 44.1417 121.966 43.0518V37.0742H119.897C119.731 37.0742 119.573 37.0082 119.456 36.8906C119.339 36.7731 119.273 36.6136 119.273 36.4474V34.9179C119.273 34.7516 119.339 34.5922 119.456 34.4746C119.573 34.3571 119.731 34.291 119.897 34.291H121.964V29.9106C121.96 29.7445 122.021 29.5836 122.135 29.463C122.194 29.4011 122.265 29.3527 122.344 29.3209C122.423 29.2891 122.508 29.2747 122.593 29.2787H124.711C124.877 29.2787 125.035 29.3448 125.152 29.4623C125.269 29.5799 125.335 29.7393 125.335 29.9056V34.2772H128.621C128.787 34.2772 128.945 34.3433 129.062 34.4608C129.179 34.5784 129.244 34.7378 129.244 34.9041V36.4323C129.244 36.5986 129.179 36.758 129.062 36.8756C128.945 36.9931 128.787 37.0592 128.621 37.0592H125.343V42.7735C125.343 43.4948 125.468 44.0569 125.717 44.4597C125.967 44.8626 126.407 45.0644 127.038 45.0652H128.846C129.011 45.0652 129.169 45.1313 129.286 45.2488C129.403 45.3664 129.469 45.5258 129.469 45.6921V47.3219C129.469 47.4881 129.403 47.6476 129.286 47.7651C129.169 47.8827 129.011 47.9487 128.846 47.9487L126.731 47.9776Z" fill="#257CFF"/>
<path d="M135.763 48.2412C134.913 48.2536 134.071 48.0687 133.303 47.7008C132.608 47.3753 132.008 46.8769 131.558 46.2528C131.022 45.4778 130.81 44.5224 130.966 43.5916C131.123 42.6608 131.636 41.8289 132.396 41.2744C133.382 40.5456 134.686 40.0587 136.309 39.8138L139.896 39.286V38.7331C139.896 37.996 139.713 37.4255 139.347 37.0219C138.98 36.6182 138.355 36.4184 137.471 36.4226C136.843 36.4226 136.332 36.548 135.94 36.7987C135.558 37.0447 135.255 37.397 135.068 37.8129C135.008 37.9199 134.92 38.0083 134.814 38.0687C134.708 38.129 134.588 38.1589 134.466 38.1552H132.397C132.318 38.1613 132.239 38.1504 132.164 38.1232C132.09 38.0959 132.022 38.053 131.966 37.9972C131.865 37.8807 131.814 37.7299 131.821 37.576C131.864 37.2141 131.98 36.8648 132.161 36.5492C132.413 36.0956 132.752 35.6971 133.158 35.377C133.685 34.9588 134.278 34.6336 134.913 34.4154C135.629 34.1521 136.492 34.0205 137.504 34.0205C138.605 34.0205 139.534 34.1567 140.294 34.4292C140.973 34.6534 141.595 35.0268 142.114 35.5224C142.565 35.973 142.906 36.5228 143.111 37.1284C143.322 37.7558 143.428 38.4142 143.425 39.0767V47.351C143.425 47.5173 143.359 47.6767 143.242 47.7943C143.125 47.9118 142.967 47.9779 142.802 47.9779H140.683C140.598 47.982 140.513 47.9676 140.434 47.9355C140.355 47.9035 140.284 47.8547 140.225 47.7923C140.112 47.6718 140.05 47.5108 140.055 47.3448V46.318C139.802 46.678 139.493 46.994 139.138 47.2532C138.712 47.5643 138.239 47.8044 137.738 47.9641C137.099 48.1632 136.432 48.2567 135.763 48.2412ZM136.653 45.7338C137.231 45.7416 137.802 45.606 138.316 45.3389C138.825 45.0631 139.237 44.6351 139.494 44.114C139.783 43.5615 139.927 42.8636 139.926 42.0203V41.4674L137.309 41.8887C136.279 42.0467 135.511 42.3012 135.005 42.6522C134.499 43.0032 134.246 43.4337 134.246 43.9435C134.237 44.3051 134.363 44.6571 134.599 44.9301C134.843 45.208 135.154 45.4168 135.503 45.5357C135.872 45.6696 136.261 45.7384 136.653 45.7388V45.7338Z" fill="#257CFF"/>
<path d="M152.781 47.9776C151.734 47.9776 150.852 47.7929 150.137 47.4234C149.436 47.0709 148.873 46.491 148.539 45.7773C148.19 45.0502 148.016 44.1417 148.016 43.0518V37.0742H145.945C145.78 37.0742 145.622 37.0082 145.505 36.8906C145.388 36.7731 145.322 36.6136 145.322 36.4474V34.9179C145.322 34.7516 145.388 34.5922 145.505 34.4746C145.622 34.3571 145.78 34.291 145.945 34.291H148.013V29.9106C148.009 29.7445 148.07 29.5836 148.184 29.463C148.243 29.4011 148.314 29.3527 148.393 29.3209C148.472 29.2891 148.556 29.2747 148.641 29.2787H150.76C150.926 29.2787 151.084 29.3448 151.201 29.4623C151.318 29.5799 151.383 29.7393 151.383 29.9056V34.2772H154.67C154.835 34.2772 154.994 34.3433 155.111 34.4608C155.228 34.5784 155.293 34.7378 155.293 34.9041V36.4323C155.293 36.5986 155.228 36.758 155.111 36.8756C154.994 36.9931 154.835 37.0592 154.67 37.0592H151.397V42.7735C151.397 43.4948 151.522 44.0569 151.771 44.4597C152.02 44.8626 152.461 45.0644 153.092 45.0652H154.899C155.065 45.0652 155.223 45.1313 155.34 45.2488C155.457 45.3664 155.523 45.5258 155.523 45.6921V47.3219C155.523 47.4881 155.457 47.6476 155.34 47.7651C155.223 47.8827 155.065 47.9487 154.899 47.9487L152.781 47.9776Z" fill="#257CFF"/>
<path d="M163.726 48.2411C161.787 48.2411 160.25 47.679 159.114 46.5548C157.978 45.4307 157.37 43.8331 157.288 41.762C157.271 41.5864 157.262 41.3633 157.262 41.09C157.26 40.8749 157.268 40.6598 157.288 40.4456C157.358 39.1284 157.659 37.9871 158.192 37.0217C158.7 36.0792 159.468 35.3049 160.404 34.7927C161.347 34.2753 162.455 34.0162 163.73 34.0154C165.142 34.0154 166.329 34.3079 167.29 34.893C168.242 35.472 168.999 36.3255 169.463 37.3427C169.952 38.3874 170.196 39.5943 170.196 40.9634V41.5162C170.197 41.5995 170.182 41.6821 170.15 41.7591C170.119 41.8361 170.072 41.9057 170.013 41.9638C169.951 42.0252 169.877 42.0732 169.796 42.1049C169.715 42.1366 169.628 42.1513 169.541 42.1481H160.849V42.3587C160.86 42.9424 160.98 43.5187 161.203 44.0575C161.406 44.5567 161.741 44.9904 162.172 45.3112C162.617 45.633 163.155 45.7994 163.703 45.7851C164.453 45.8129 165.184 45.5488 165.745 45.0479C165.908 44.9048 166.057 44.7461 166.19 44.574C166.286 44.4209 166.413 44.2904 166.564 44.1916C166.702 44.1409 166.848 44.1187 166.995 44.1264H169.254C169.413 44.1209 169.568 44.1775 169.686 44.2844C169.741 44.3331 169.782 44.3947 169.807 44.4636C169.832 44.5326 169.84 44.6067 169.829 44.6793C169.812 44.9601 169.668 45.3024 169.398 45.7061C169.076 46.1619 168.683 46.5621 168.233 46.8908C167.656 47.313 167.015 47.6377 166.335 47.8524C165.491 48.1222 164.611 48.2535 163.726 48.2411ZM160.845 39.9454H166.636V39.8664C166.65 39.2517 166.534 38.6411 166.296 38.0748C166.084 37.5845 165.738 37.1646 165.299 36.8638C164.96 36.6293 164.574 36.4735 164.168 36.4079C163.762 36.3423 163.346 36.3684 162.951 36.4843C162.557 36.6003 162.192 36.8032 161.885 37.0783C161.578 37.3534 161.336 37.6938 161.176 38.0748C160.946 38.6431 160.834 39.2529 160.848 39.8664L160.845 39.9454Z" fill="#257CFF"/>
<path d="M52.172 27.0865C52.0067 27.0865 51.8482 27.0205 51.7314 26.9029C51.6145 26.7854 51.5488 26.6259 51.5488 26.4597V9.28407C51.5488 9.11782 51.6145 8.95838 51.7314 8.84083C51.8482 8.72327 52.0067 8.65723 52.172 8.65723H54.6074C54.7727 8.65723 54.9312 8.72327 55.0481 8.84083C55.165 8.95838 55.2306 9.11782 55.2306 9.28407V23.9523H63.5303C63.6174 23.9478 63.7045 23.9617 63.7859 23.9932C63.8673 24.0247 63.9412 24.073 64.0029 24.1351C64.0646 24.1971 64.1126 24.2715 64.1439 24.3534C64.1752 24.4353 64.1891 24.5229 64.1846 24.6105V26.4534C64.1861 26.5366 64.1706 26.6193 64.1391 26.6963C64.1076 26.7733 64.0607 26.8429 64.0014 26.901C63.9395 26.9624 63.8658 27.0104 63.7848 27.042C63.7037 27.0737 63.6171 27.0885 63.5303 27.0853L52.172 27.0865Z" fill="#257CFF"/>
<path d="M66.937 11.1268C66.8537 11.1323 66.7702 11.1199 66.6921 11.0904C66.614 11.0608 66.5431 11.0148 66.4841 10.9555C66.4251 10.8961 66.3794 10.8248 66.35 10.7462C66.3206 10.6676 66.3083 10.5837 66.3138 10.4999V8.59933C66.3095 8.43327 66.3709 8.2723 66.4845 8.15176C66.5432 8.08987 66.6144 8.04138 66.6933 8.00958C66.7722 7.97779 66.857 7.96342 66.942 7.96746H69.325C69.4113 7.9648 69.4972 7.97976 69.5775 8.01144C69.6578 8.04312 69.731 8.09085 69.7924 8.15176C69.8517 8.20981 69.8986 8.27948 69.9301 8.35645C69.9616 8.43343 69.9771 8.51609 69.9756 8.59933V10.4949C69.9798 10.5805 69.9655 10.666 69.9339 10.7456C69.9023 10.8252 69.8541 10.8971 69.7924 10.9563C69.6635 11.0727 69.4944 11.1339 69.3213 11.1268H66.937ZM67.0417 27.0863C66.8764 27.0863 66.7179 27.0203 66.601 26.9027C66.4841 26.7851 66.4185 26.6257 66.4185 26.4595V14.0241C66.4185 13.8578 66.4841 13.6984 66.601 13.5808C66.7179 13.4633 66.8764 13.3972 67.0417 13.3972H69.2154C69.3003 13.3932 69.3851 13.4075 69.464 13.4393C69.5429 13.4711 69.6141 13.5196 69.6728 13.5815C69.7857 13.7025 69.847 13.8632 69.8435 14.0291V26.4595C69.847 26.6254 69.7857 26.786 69.6728 26.907C69.6141 26.9689 69.5429 27.0174 69.464 27.0492C69.3851 27.081 69.3003 27.0954 69.2154 27.0913L67.0417 27.0863Z" fill="#257CFF"/>
<path d="M83.0393 32.0899C82.874 32.0899 82.7155 32.0239 82.5987 31.9063C82.4818 31.7888 82.4161 31.6293 82.4161 31.4631V25.4804C81.9865 26.0515 81.4322 26.5156 80.7958 26.8369C80.1311 27.1796 79.3284 27.3505 78.3878 27.3497C77.5738 27.3649 76.766 27.2033 76.0197 26.8758C75.3489 26.5795 74.7539 26.1337 74.2798 25.572C73.8055 24.997 73.4458 24.3355 73.2203 23.6237C72.9675 22.8356 72.8265 22.0155 72.8016 21.1878C72.7829 20.8719 72.7754 20.5609 72.7754 20.24C72.7754 19.919 72.7829 19.6131 72.8016 19.3173C72.8419 18.4688 72.9867 17.6287 73.2328 16.8162C73.449 16.1003 73.8049 15.435 74.2798 14.8591C74.7476 14.3019 75.34 13.8641 76.0085 13.5816C76.7592 13.2714 77.5652 13.1191 78.3766 13.1341C79.3887 13.1341 80.2395 13.3184 80.9292 13.6869C81.5747 14.0184 82.1349 14.496 82.5657 15.0823V14.0292C82.5657 13.8629 82.6314 13.7035 82.7482 13.5859C82.8651 13.4684 83.0236 13.4023 83.1889 13.4023H85.2828C85.4481 13.4023 85.6066 13.4684 85.7235 13.5859C85.8403 13.7035 85.906 13.8629 85.906 14.0292V31.458C85.906 31.6243 85.8403 31.7837 85.7235 31.9013C85.6066 32.0189 85.4481 32.0849 85.2828 32.0849L83.0393 32.0899ZM79.3737 24.5326C80.0717 24.5326 80.6388 24.3747 81.075 24.0587C81.502 23.7536 81.8409 23.34 82.0572 22.8602C82.2739 22.384 82.3943 21.8692 82.4111 21.3458C82.4464 21.0046 82.4639 20.6619 82.4635 20.319C82.4644 19.9839 82.447 19.6491 82.4111 19.316C82.3931 18.7691 82.2778 18.2299 82.0709 17.7238C81.8695 17.217 81.5342 16.7752 81.1012 16.4463C80.665 16.112 80.0891 15.9448 79.3737 15.9448C78.6409 15.9448 78.0563 16.107 77.6201 16.4313C77.1872 16.7511 76.8626 17.1971 76.6903 17.7088C76.5003 18.2696 76.3899 18.8546 76.3625 19.4464C76.3276 19.9728 76.3276 20.5009 76.3625 21.0273C76.3899 21.6191 76.5003 22.2041 76.6903 22.7649C76.8626 23.2766 77.1872 23.7227 77.6201 24.0424C78.0563 24.3692 78.6409 24.5326 79.3737 24.5326Z" fill="#257CFF"/>
<path d="M94.4553 27.3496C93.3901 27.3496 92.469 27.1085 91.6921 26.6262C90.907 26.1329 90.2833 25.4183 89.8986 24.5714C89.4831 23.6846 89.2754 22.6357 89.2754 21.4246V14.0278C89.2754 13.8616 89.341 13.7021 89.4579 13.5846C89.5748 13.467 89.7333 13.401 89.8986 13.401H92.2031C92.2882 13.3971 92.3732 13.4115 92.4523 13.4433C92.5314 13.4751 92.6028 13.5235 92.6618 13.5853C92.7744 13.7064 92.8353 13.8671 92.8313 14.0328V21.2754C92.8313 23.4485 93.7827 24.535 95.6855 24.535C96.5929 24.535 97.3129 24.245 97.8455 23.665C98.3781 23.0849 98.6444 22.2863 98.6444 21.2692V14.0241C98.6444 13.8578 98.7101 13.6984 98.8269 13.5808C98.9438 13.4633 99.1023 13.3972 99.2676 13.3972H101.576C101.741 13.3972 101.9 13.4633 102.017 13.5808C102.133 13.6984 102.199 13.8578 102.199 14.0241V26.4544C102.199 26.6207 102.133 26.7801 102.017 26.8977C101.9 27.0152 101.741 27.0813 101.576 27.0813H99.4571C99.3719 27.0854 99.2869 27.0711 99.2078 27.0393C99.1287 27.0075 99.0573 26.959 98.9984 26.897C98.8858 26.7759 98.8249 26.6152 98.8289 26.4494V25.37C98.3611 25.9807 97.7609 26.4759 97.074 26.818C96.3752 27.1724 95.5023 27.3496 94.4553 27.3496Z" fill="#257CFF"/>
<path d="M106.187 11.1266C106.104 11.1322 106.02 11.1198 105.942 11.0902C105.864 11.0607 105.793 11.0147 105.734 10.9553C105.675 10.896 105.629 10.8246 105.6 10.7461C105.571 10.6675 105.558 10.5835 105.564 10.4998V8.59918C105.559 8.43313 105.621 8.27215 105.735 8.15161C105.792 8.08963 105.862 8.04078 105.941 8.00835C106.019 7.97591 106.103 7.96064 106.187 7.96356H108.57C108.657 7.96038 108.744 7.97509 108.825 8.00678C108.906 8.03847 108.979 8.08648 109.041 8.14785C109.1 8.20591 109.147 8.27557 109.179 8.35255C109.21 8.42953 109.226 8.51219 109.224 8.59542V10.491C109.229 10.5766 109.214 10.6621 109.183 10.7417C109.151 10.8213 109.103 10.8932 109.041 10.9524C108.912 11.0688 108.743 11.13 108.57 11.1229L106.187 11.1266ZM106.292 27.0862C106.126 27.0862 105.968 27.0201 105.851 26.9026C105.734 26.785 105.668 26.6256 105.668 26.4593V14.0239C105.668 13.8577 105.734 13.6982 105.851 13.5807C105.968 13.4631 106.126 13.3971 106.292 13.3971H108.465C108.55 13.393 108.635 13.4074 108.714 13.4392C108.793 13.471 108.864 13.5195 108.923 13.5814C109.036 13.7023 109.097 13.863 109.094 14.0289V26.4593C109.097 26.6252 109.036 26.7859 108.923 26.9069C108.864 26.9688 108.793 27.0173 108.714 27.049C108.635 27.0808 108.55 27.0952 108.465 27.0912L106.292 27.0862Z" fill="#257CFF"/>
<path d="M117.625 27.3497C116.803 27.3671 115.987 27.2103 115.23 26.8896C114.562 26.5996 113.974 26.1524 113.515 25.5858C113.045 24.9949 112.689 24.3204 112.466 23.5974C112.213 22.7822 112.073 21.9361 112.048 21.0825C112.03 20.7666 112.021 20.4811 112.021 20.2262C112.021 19.9713 112.029 19.6867 112.045 19.3725C112.072 18.5418 112.209 17.7185 112.451 16.924C112.671 16.1999 113.026 15.5249 113.498 14.9356C113.964 14.3624 114.557 13.9068 115.23 13.6055C115.985 13.276 116.802 13.1144 117.625 13.1316C118.567 13.1316 119.366 13.2937 120.021 13.618C120.645 13.921 121.201 14.3474 121.657 14.8717V9.02071C121.653 8.85495 121.714 8.69425 121.827 8.57315C121.886 8.51122 121.957 8.46273 122.036 8.43094C122.115 8.39915 122.2 8.3848 122.285 8.38886H124.509C124.674 8.38886 124.833 8.4549 124.95 8.57245C125.066 8.69001 125.132 8.84945 125.132 9.0157V26.4546C125.132 26.6208 125.066 26.7803 124.95 26.8978C124.833 27.0154 124.674 27.0814 124.509 27.0814H122.441C122.356 27.0855 122.271 27.0711 122.192 27.0393C122.113 27.0075 122.041 26.9591 121.983 26.8971C121.87 26.776 121.809 26.6153 121.813 26.4496V25.4754C121.357 26.0367 120.789 26.4957 120.147 26.8232C119.482 27.1742 118.641 27.3497 117.625 27.3497ZM118.594 24.5327C119.327 24.5327 119.911 24.3655 120.347 24.0312C120.78 23.7023 121.116 23.2605 121.317 22.7537C121.524 22.2472 121.639 21.7075 121.657 21.1602C121.673 20.8443 121.683 20.5058 121.683 20.146C121.683 19.7862 121.673 19.4477 121.657 19.1318C121.64 18.607 121.515 18.0915 121.291 17.6173C121.066 17.139 120.722 16.7268 120.294 16.42C119.857 16.1041 119.29 15.9461 118.592 15.9461C117.86 15.9461 117.278 16.1083 116.847 16.4326C116.42 16.7578 116.097 17.202 115.918 17.7101C115.719 18.2691 115.605 18.8547 115.577 19.4477C115.56 19.9759 115.56 20.5029 115.577 21.0286C115.605 21.6216 115.719 22.2072 115.918 22.7662C116.096 23.2745 116.42 23.7188 116.847 24.0437C117.279 24.3697 117.861 24.5327 118.594 24.5327Z" fill="#257CFF"/>
<path d="M42.1842 35.312C42.153 33.8816 41.7891 32.1941 41.1522 30.3687C40.5153 28.5433 39.6191 26.575 38.5485 24.5603C35.5746 18.9764 31.2709 13.0351 27.6265 8.41026C24.8944 4.94254 22.5363 2.20824 21.3809 0.900635L20.5333 1.86849C19.5362 3.02565 18.1228 4.68177 16.5113 6.67389C13.2881 10.6544 9.24237 15.9725 5.99306 21.292C3.82311 24.8349 2.00464 28.3854 1.02125 31.487C0.45539 33.2585 0.161245 34.8795 0.196144 36.251C0.277646 39.8595 1.27673 43.3867 3.09814 46.4965C4.91955 49.6063 7.50256 52.195 10.6009 54.0156C13.6992 55.8363 17.2095 56.8283 20.7972 56.897C24.3848 56.9658 27.9301 56.109 31.0951 54.4083C34.518 52.5673 37.3667 49.8082 39.3248 46.4372C41.283 43.0662 42.274 39.2153 42.1879 35.312H42.1842ZM35.6282 44.0365C34.1067 46.6107 31.9324 48.732 29.328 50.1833C26.7235 51.6345 23.7825 52.3635 20.8059 52.2956C17.8293 52.2278 14.9241 51.3655 12.3876 49.7971C9.85123 48.2287 7.77473 46.0105 6.37071 43.3695C5.12333 41.0301 4.44584 38.4263 4.39395 35.7721C4.36778 34.6802 4.60085 33.3826 5.05827 31.9634C5.84848 29.4811 7.30176 26.6452 9.03173 23.8144C11.6317 19.5518 14.8685 15.3018 17.446 12.1174C18.7373 10.5265 19.8615 9.20134 20.6654 8.27361C20.9284 7.97398 21.164 7.71321 21.346 7.50133C22.2645 8.54817 24.1528 10.7346 26.339 13.509C29.2555 17.2099 32.6955 21.9639 35.0748 26.4221C35.8877 27.915 36.5848 29.4687 37.16 31.0695C37.6698 32.5313 37.9602 33.8791 37.9864 35.0274C38.0599 38.194 37.2424 41.3169 35.6282 44.0365Z" fill="#257CFF"/>
<path d="M28.1838 41.5967H26.4551V43.3356H28.1838V41.5967Z" fill="#257CFF"/>
<path d="M30.6545 41.5967H28.9258V43.3356H30.6545V41.5967Z" fill="#257CFF"/>
<path d="M28.1838 43.832H26.4551V45.5709H28.1838V43.832Z" fill="#257CFF"/>
<path d="M30.6545 43.832H28.9258V45.5709H30.6545V43.832Z" fill="#257CFF"/>
<path d="M9.4082 35.169L15.3372 31.8843V52.5289H9.4082V35.169Z" fill="#257CFF"/>
<path d="M16.5723 20.8567L22.5013 17.2009V52.5288H19.5362V30.9113H16.5723" fill="#257CFF"/>
<path d="M16.5723 20.8567L22.5013 17.2009V52.5288H19.5362V30.9113H16.5723" fill="#257CFF"/>
<path d="M23.9883 21.8547L24.4956 22.3387V37.818L23.9883 38.3609V21.8547Z" fill="#257CFF"/>
<path d="M25.1289 22.9453L25.6275 23.4217L25.6287 36.6043L25.1289 37.1396V22.9453Z" fill="#257CFF"/>
<path d="M26.2598 24.0249L26.7645 24.5063V35.3884L26.261 35.9275L26.2598 24.0249Z" fill="#257CFF"/>
<path d="M27.3926 25.1094L27.8936 25.5895L27.8974 34.1723L27.3926 34.7139V25.1094Z" fill="#257CFF"/>
<path d="M16.6172 46.5662L28.4777 35.1426L40.4442 46.5662H38.0936L28.5301 37.3992L19.181 46.5662H16.6172Z" fill="#257CFF"/>
</g>
<defs>
<clipPath id="clip0_673_5152">
<rect width="170" height="56" fill="white" transform="translate(0.193359 0.900391)"/>
</clipPath>
</defs>
</svg>
