<svg width="33" height="33" viewBox="0 0 33 33" fill="none" xmlns="http://www.w3.org/2000/svg">
<path d="M21.6818 13.2883C22.4178 12.5523 23.1485 10.8349 20.0818 12.9203C15.7245 15.9269 11.4298 18.7496 11.4298 18.7496C10.9878 18.9495 10.5098 19.058 10.0248 19.0685C9.53971 19.0791 9.05752 18.9914 8.60717 18.8109C6.76717 18.2589 4.61917 17.5229 4.61917 17.5229C4.61917 17.5229 3.1525 16.6016 5.66317 15.6203C5.66317 15.6203 16.2778 11.2643 19.9592 9.7296C21.3698 9.11627 26.1552 7.1536 26.1552 7.1536C26.1552 7.1536 28.3645 6.2936 28.1805 8.38027C28.1192 9.23894 27.6285 12.2469 27.1378 15.4976C26.4005 20.0989 25.6032 25.1309 25.6032 25.1309C25.6032 25.1309 25.4805 26.5416 24.4378 26.7869C23.3217 26.768 22.2433 26.3798 21.3712 25.6829C21.1258 25.4989 16.7698 22.7376 15.1738 21.3883C15.0115 21.2783 14.8796 21.129 14.7904 20.9544C14.7012 20.7797 14.6577 20.5854 14.6638 20.3894C14.6699 20.1934 14.7255 20.0021 14.8254 19.8334C14.9253 19.6646 15.0663 19.5239 15.2352 19.4243C17.4485 17.4003 20.0872 14.8843 21.6818 13.2883Z" fill="#6B7688"/>
</svg>
