<svg width="25" height="25" viewBox="0 0 25 25" fill="none" xmlns="http://www.w3.org/2000/svg">
<g clip-path="url(#clip0_673_5197)">
<path d="M20.7834 6.79494C17.9895 4.70454 15.313 4.7631 15.313 4.7631L15.0394 5.07558C18.3608 6.07206 19.9042 7.53726 19.9042 7.53726C15.1525 4.92102 9.09968 4.93974 4.15712 7.53726C4.15712 7.53726 5.75912 5.99382 9.27584 4.99734L9.08047 4.76286C9.08047 4.76286 6.42344 4.7043 3.61016 6.7947C3.61016 6.7947 0.796875 11.8549 0.796875 18.0872C0.796875 18.0872 2.438 20.9005 6.75584 21.0373C6.75584 21.0373 7.47872 20.1776 8.0648 19.4353C5.58344 18.6929 4.64576 17.1495 4.64576 17.1495C6.20456 18.1249 7.78088 18.7354 9.74504 19.1228C12.9409 19.7806 16.916 19.1043 19.8848 17.1495C19.8848 17.1495 18.908 18.7321 16.3486 19.4549C16.9347 20.1778 17.6382 21.0178 17.6382 21.0178C21.9555 20.8813 23.5966 18.068 23.5966 18.0874C23.5966 11.8551 20.7834 6.79494 20.7834 6.79494ZM8.55296 16.2706C7.4588 16.2706 6.56024 15.3133 6.56024 14.1214C6.64016 11.2673 10.4859 11.2762 10.5459 14.1214C10.5457 15.3133 9.66656 16.2706 8.55296 16.2706ZM15.6841 16.2706C14.5899 16.2706 13.6914 15.3133 13.6914 14.1214C13.7792 11.2729 17.577 11.2717 17.677 14.1214C17.6768 15.3133 16.7977 16.2706 15.6841 16.2706Z" fill="#6B7688"/>
</g>
<defs>
<clipPath id="clip0_673_5197">
<rect width="24" height="24" fill="white" transform="translate(0.197266 0.900391)"/>
</clipPath>
</defs>
</svg>
