<svg width="25" height="25" viewBox="0 0 25 25" fill="none" xmlns="http://www.w3.org/2000/svg">
<g clip-path="url(#clip0_673_5201)">
<path d="M9.19727 15.1504L8.44727 15.1489V15.1504H9.19727Z" fill="#6B7688"/>
<path d="M15.9473 15.1504H16.6973L15.9473 15.1489V15.1504Z" fill="#6B7688"/>
<path d="M24.3023 12.9005C24.3023 11.246 22.9568 9.90046 21.3023 9.90046C20.6408 9.90046 20.0123 10.1165 19.4993 10.508C17.8253 9.34546 15.6323 8.65246 13.2998 8.47696L14.5583 5.52496L18.2198 6.37996C18.3368 7.51246 19.2848 8.40046 20.4473 8.40046C21.6878 8.40046 22.6973 7.39096 22.6973 6.15046C22.6973 4.90996 21.6878 3.90046 20.4473 3.90046C19.6613 3.90046 18.9698 4.30696 18.5678 4.92046L14.2883 3.91996C14.1161 3.87933 13.9351 3.90085 13.7773 3.98072C13.6195 4.06059 13.495 4.19368 13.4258 4.35646L11.6858 8.43646C9.16727 8.52346 6.76727 9.23296 4.95527 10.469C4.5071 10.1462 3.97859 9.95325 3.42787 9.91139C2.87714 9.86953 2.32554 9.98036 1.83373 10.2317C1.34192 10.483 0.928949 10.8651 0.640234 11.336C0.351519 11.8068 0.198246 12.3481 0.197273 12.9005C0.196121 13.429 0.336062 13.9484 0.602649 14.4048C0.869236 14.8612 1.25281 15.2383 1.71377 15.497C1.70219 15.6311 1.69669 15.7658 1.69727 15.9005C1.69727 20.036 6.40727 23.4005 12.1973 23.4005C17.9858 23.4005 22.6973 20.036 22.6973 15.9005C22.6973 15.7835 22.6928 15.668 22.6853 15.5525C23.1733 15.3027 23.5827 14.9228 23.8681 14.4547C24.1535 13.9866 24.3038 13.4487 24.3023 12.9005V12.9005ZM20.4473 5.40046C20.6466 5.40086 20.8376 5.48042 20.9782 5.62163C21.1189 5.76285 21.1977 5.95415 21.1973 6.15346C21.1969 6.35277 21.1173 6.54376 20.9761 6.68441C20.8349 6.82506 20.6436 6.90386 20.4443 6.90346C20.3456 6.90326 20.2479 6.88363 20.1568 6.84568C20.0657 6.80773 19.983 6.75221 19.9133 6.68229C19.8437 6.61237 19.7885 6.52941 19.7509 6.43816C19.7133 6.34691 19.6941 6.24915 19.6943 6.15046C19.6945 6.05177 19.7141 5.95409 19.7521 5.86299C19.79 5.77189 19.8455 5.68915 19.9154 5.61951C19.9854 5.54986 20.0683 5.49468 20.1596 5.45709C20.2508 5.41951 20.3486 5.40026 20.4473 5.40046V5.40046ZM6.94727 15.1505C6.94727 14.324 7.62077 13.6505 8.44727 13.6505C9.27377 13.6505 9.94727 14.324 9.94727 15.1505C9.93 15.5367 9.76441 15.9014 9.485 16.1685C9.20559 16.4357 8.83388 16.5849 8.44727 16.5849C8.06067 16.5849 7.68896 16.4357 7.40955 16.1685C7.13013 15.9014 6.96455 15.5367 6.94727 15.1505ZM15.6608 20.126C14.6534 20.8557 13.4412 21.2486 12.1973 21.2486C10.9533 21.2486 9.74118 20.8557 8.73377 20.126C8.65153 20.0692 8.58145 19.9966 8.52766 19.9125C8.47386 19.8283 8.43742 19.7342 8.42048 19.6357C8.40355 19.5373 8.40646 19.4364 8.42904 19.3391C8.45162 19.2418 8.49342 19.1499 8.55198 19.069C8.61054 18.988 8.68468 18.9196 8.77006 18.8677C8.85543 18.8158 8.95031 18.7815 9.04913 18.7668C9.14795 18.7521 9.24871 18.7572 9.3455 18.782C9.44229 18.8067 9.53316 18.8506 9.61277 18.911C10.3641 19.4564 11.2688 19.7501 12.1973 19.7501C13.1257 19.7501 14.0304 19.4564 14.7818 18.911C14.8614 18.8506 14.9523 18.8067 15.049 18.782C15.1458 18.7572 15.2466 18.7521 15.3454 18.7668C15.4442 18.7815 15.5391 18.8158 15.6245 18.8677C15.7099 18.9196 15.784 18.988 15.8426 19.069C15.9011 19.1499 15.9429 19.2418 15.9655 19.3391C15.9881 19.4364 15.991 19.5373 15.9741 19.6357C15.9571 19.7342 15.9207 19.8283 15.8669 19.9125C15.8131 19.9966 15.743 20.0692 15.6608 20.126V20.126ZM15.9473 16.6505C15.5494 16.6505 15.1679 16.4924 14.8866 16.2111C14.6053 15.9298 14.4473 15.5483 14.4473 15.1505C14.4473 14.7526 14.6053 14.3711 14.8866 14.0898C15.1679 13.8085 15.5494 13.6505 15.9473 13.6505C16.3451 13.6505 16.7266 13.8085 17.0079 14.0898C17.2892 14.3711 17.4473 14.7526 17.4473 15.1505C17.4473 15.5483 17.2892 15.9298 17.0079 16.2111C16.7266 16.4924 16.3451 16.6505 15.9473 16.6505Z" fill="#6B7688"/>
</g>
<defs>
<clipPath id="clip0_673_5201">
<rect width="24" height="24" fill="white" transform="translate(0.197266 0.900391)"/>
</clipPath>
</defs>
</svg>
