<svg width="25" height="25" viewBox="0 0 25 25" fill="none" xmlns="http://www.w3.org/2000/svg">
<path d="M21.4063 7.31702H22.1973V4.98364H14.717L12.2312 14.1503H12.1632L9.69996 4.98364H2.19727V7.31696H2.96564C3.14326 7.34587 3.30807 7.42762 3.43857 7.55154C3.56907 7.67547 3.65922 7.83582 3.69727 8.01172V17.842C3.65686 18.0116 3.56475 18.1645 3.43368 18.2794C3.30261 18.3944 3.13905 18.4657 2.96564 18.4836H2.19727V20.817H8.19727V18.4836H6.69727V8.15033H6.78479L10.2424 20.817H12.9544L16.4572 8.15033H16.5307V18.4836H15.0306V20.817H22.1973V18.4836H21.4063C21.2369 18.4616 21.0782 18.3883 20.9515 18.2737C20.8248 18.159 20.7361 18.0084 20.6973 17.842V8.01178C20.734 7.83907 20.8209 7.68104 20.947 7.55746C21.0731 7.43388 21.2329 7.35025 21.4063 7.31702Z" fill="#6B7688"/>
</svg>
