<svg width="23" height="23" viewBox="0 0 23 23" fill="none" xmlns="http://www.w3.org/2000/svg">
<g clip-path="url(#clip0_673_5207)">
<path d="M20.1391 1.58789H2.25547C1.49922 1.58789 0.884766 2.20234 0.884766 2.95859V20.8379C0.884766 21.5941 1.49922 22.2086 2.25547 22.2086H20.1348C20.891 22.2086 21.5055 21.5941 21.5055 20.8379V2.95859C21.5098 2.20234 20.8953 1.58789 20.1391 1.58789ZM7.5793 19.2309H4.35664V10.1172H7.575V19.2309H7.5793ZM5.96797 7.67227C5.07852 7.67227 4.35664 6.95039 4.35664 6.06094C4.35664 5.17148 5.07852 4.44961 5.96797 4.44961C6.85742 4.44961 7.5793 5.17148 7.5793 6.06094C7.5793 6.95039 6.85742 7.67227 5.96797 7.67227ZM18.7297 19.3469H15.5113V15.5656C15.5113 14.9125 14.9828 14.3883 14.334 14.3883C13.6852 14.3883 13.1566 14.9168 13.1566 15.5656V19.2309H9.93828V10.1172H13.1566V11.9262C13.4961 11.7672 13.8441 11.634 14.2051 11.5395C14.8711 11.359 15.5629 11.316 16.2418 11.4191C16.6973 11.4879 17.1785 11.6039 17.5781 11.8359C18.2914 12.2527 18.7297 13.0863 18.7297 13.907C18.7297 13.9027 18.7297 19.3469 18.7297 19.3469Z" fill="#6B7688"/>
</g>
<defs>
<clipPath id="clip0_673_5207">
<rect width="22" height="22" fill="white" transform="translate(0.197266 0.900391)"/>
</clipPath>
</defs>
</svg>
