<svg width="25" height="25" viewBox="0 0 25 25" fill="none" xmlns="http://www.w3.org/2000/svg">
<g clip-path="url(#clip0_673_5189)">
<path d="M24.1973 6.20894C23.2945 6.60269 22.3397 6.86437 21.3623 6.98594C22.3923 6.37488 23.1624 5.40728 23.5268 4.26644C22.5623 4.83844 21.5071 5.24125 20.4068 5.45744C19.7321 4.7371 18.8565 4.23631 17.8935 4.02013C16.9305 3.80394 15.9248 3.88235 15.007 4.24517C14.0892 4.60799 13.3017 5.23845 12.7469 6.05464C12.1921 6.87083 11.8955 7.83502 11.8958 8.82194C11.8958 9.21194 11.9288 9.58694 12.0098 9.94394C10.0524 9.84797 8.1373 9.33996 6.38972 8.45311C4.64213 7.56627 3.10141 6.32056 1.86827 4.79744C1.23649 5.88022 1.04118 7.1631 1.32209 8.38484C1.603 9.60658 2.33902 10.6753 3.38027 11.3734C2.6014 11.3525 1.83898 11.1447 1.15727 10.7674V10.8214C1.15857 11.9576 1.55126 13.0586 2.26924 13.9391C2.98722 14.8197 3.98664 15.4259 5.09927 15.6559C4.67835 15.7669 4.24454 15.8213 3.80927 15.8179C3.49665 15.8235 3.18434 15.7953 2.87777 15.7339C3.19568 16.7105 3.8085 17.5644 4.63186 18.1783C5.45521 18.7921 6.44861 19.1356 7.47527 19.1614C5.73367 20.5235 3.58573 21.2624 1.37477 21.2599C0.971266 21.2599 0.584266 21.2419 0.197266 21.1924C2.44709 22.6422 5.06878 23.4092 7.74527 23.4004C16.7993 23.4004 21.7493 15.9004 21.7493 9.39944C21.7493 9.18194 21.7418 8.97194 21.7313 8.76344C22.7017 8.06892 23.5374 7.20326 24.1973 6.20894Z" fill="#6B7688"/>
</g>
<defs>
<clipPath id="clip0_673_5189">
<rect width="24" height="24" fill="white" transform="translate(0.197266 0.900391)"/>
</clipPath>
</defs>
</svg>
