<svg width="21" height="21" viewBox="0 0 21 21" fill="none" xmlns="http://www.w3.org/2000/svg">
<g clip-path="url(#clip0_673_5215)">
<path d="M6.86447 10.9004C6.86447 9.05952 8.35639 7.56679 10.1973 7.56679C12.0381 7.56679 13.5309 9.05952 13.5309 10.9004C13.5309 12.7413 12.0381 14.234 10.1973 14.234C8.35639 14.234 6.86447 12.7413 6.86447 10.9004ZM5.06237 10.9004C5.06237 13.7364 7.36124 16.0353 10.1973 16.0353C13.0333 16.0353 15.3322 13.7364 15.3322 10.9004C15.3322 8.06436 13.0333 5.7655 10.1973 5.7655C7.36124 5.7655 5.06237 8.06436 5.06237 10.9004ZM14.3354 5.56194C14.3354 6.2243 14.8725 6.76226 15.5357 6.76226C16.1981 6.76226 16.736 6.2243 16.736 5.56194C16.736 4.89958 16.1989 4.36243 15.5357 4.36243C14.8725 4.36243 14.3354 4.89958 14.3354 5.56194ZM6.15688 19.0401C5.18192 18.9957 4.65203 18.8333 4.29985 18.696C3.83297 18.5143 3.50017 18.2978 3.14961 17.948C2.79985 17.5983 2.58256 17.2655 2.40163 16.7986C2.26431 16.4464 2.10195 15.9165 2.05752 14.9416C2.00906 13.8875 1.99937 13.5708 1.99937 10.9004C1.99937 8.22995 2.00987 7.91412 2.05752 6.8592C2.10195 5.88424 2.26512 5.35516 2.40163 5.00217C2.58337 4.53529 2.79985 4.20249 3.14961 3.85193C3.49937 3.50217 3.83216 3.28488 4.29985 3.10394C4.65203 2.96663 5.18192 2.80427 6.15688 2.75984C7.211 2.71138 7.52764 2.70168 10.1973 2.70168C12.8677 2.70168 13.1835 2.71218 14.2385 2.75984C15.2134 2.80427 15.7425 2.96743 16.0955 3.10394C16.5624 3.28488 16.8952 3.50217 17.2457 3.85193C17.5955 4.20168 17.812 4.53529 17.9937 5.00217C18.131 5.35435 18.2934 5.88424 18.3378 6.8592C18.3863 7.91412 18.396 8.22995 18.396 10.9004C18.396 13.57 18.3863 13.8867 18.3378 14.9416C18.2934 15.9165 18.1302 16.4464 17.9937 16.7986C17.812 17.2655 17.5955 17.5983 17.2457 17.948C16.896 18.2978 16.5624 18.5143 16.0955 18.696C15.7433 18.8333 15.2134 18.9957 14.2385 19.0401C13.1843 19.0886 12.8677 19.0983 10.1973 19.0983C7.52764 19.0983 7.211 19.0886 6.15688 19.0401ZM6.07449 0.960972C5.00987 1.00944 4.28289 1.17826 3.64718 1.42543C2.98967 1.68068 2.43232 2.02317 1.87578 2.5789C1.32004 3.13464 0.977556 3.69199 0.722306 4.35031C0.475133 4.98601 0.306312 5.71299 0.257847 6.77761C0.208574 7.84385 0.197266 8.18472 0.197266 10.9004C0.197266 13.6161 0.208574 13.9569 0.257847 15.0232C0.306312 16.0878 0.475133 16.8148 0.722306 17.4505C0.977556 18.108 1.31924 18.6661 1.87578 19.2219C2.43151 19.7776 2.98886 20.1193 3.64718 20.3753C4.2837 20.6225 5.00987 20.7913 6.07449 20.8398C7.14153 20.8883 7.4816 20.9004 10.1973 20.9004C12.9137 20.9004 13.2538 20.8891 14.32 20.8398C15.3847 20.7913 16.1116 20.6225 16.7473 20.3753C17.4049 20.1193 17.9622 19.7776 18.5188 19.2219C19.0745 18.6661 19.4162 18.108 19.6722 17.4505C19.9194 16.8148 20.089 16.0878 20.1367 15.0232C20.1851 13.9561 20.1965 13.6161 20.1965 10.9004C20.1965 8.18472 20.1851 7.84385 20.1367 6.77761C20.0882 5.71299 19.9194 4.98601 19.6722 4.35031C19.4162 3.6928 19.0745 3.13545 18.5188 2.5789C17.963 2.02317 17.4049 1.68068 16.7482 1.42543C16.1116 1.17826 15.3847 1.00863 14.3209 0.960972C13.2546 0.912507 12.9137 0.900391 10.1981 0.900391C7.4816 0.900391 7.14153 0.911699 6.07449 0.960972Z" fill="#6B7688"/>
</g>
<defs>
<clipPath id="clip0_673_5215">
<rect width="20" height="20" fill="white" transform="translate(0.197266 0.900391)"/>
</clipPath>
</defs>
</svg>
