<svg width="57" height="57" viewBox="0 0 57 57" fill="none" xmlns="http://www.w3.org/2000/svg">
<path d="M28.1914 38.7919C33.9903 38.7919 38.6913 34.0909 38.6913 28.292C38.6913 22.493 33.9903 17.792 28.1914 17.792C22.3924 17.792 17.6914 22.493 17.6914 28.292C17.6914 34.0909 22.3924 38.7919 28.1914 38.7919Z" stroke="#435167" stroke-width="3" stroke-linecap="round" stroke-linejoin="round"/>
<path d="M11.6297 20.3225C12.029 19.4943 12.49 18.6973 13.0088 17.9381V17.9381L12.9132 12.2612C12.9089 12.0005 12.9626 11.7422 13.0705 11.505C13.1785 11.2677 13.3378 11.0575 13.5371 10.8895C15.5862 9.16078 17.925 7.8083 20.4453 6.89455C20.6898 6.80649 20.9508 6.77399 21.2095 6.7994C21.4681 6.82482 21.7179 6.90751 21.9405 7.04147L26.8171 9.96746L26.812 9.96444C27.7289 9.89618 28.6497 9.8969 29.5665 9.96662V9.96663L34.4351 7.04539C34.6587 6.91132 34.9092 6.82871 35.1687 6.80353C35.4281 6.77835 35.6899 6.81125 35.935 6.89984C38.4566 7.81004 40.7973 9.15922 42.8488 10.885C43.0473 11.0527 43.206 11.2626 43.3133 11.4993C43.4206 11.7359 43.4738 11.9936 43.4692 12.2534L43.3734 17.9396L43.3735 17.9337C43.8911 18.6936 44.3509 19.4914 44.7489 20.3203H44.7489L49.7131 23.076C49.9409 23.2025 50.1378 23.3782 50.2893 23.5903C50.4408 23.8024 50.5432 24.0455 50.5891 24.3021C51.0612 26.9384 51.0635 29.6375 50.596 32.2746C50.5504 32.5318 50.4481 32.7755 50.2965 32.9882C50.1448 33.2008 49.9477 33.377 49.7195 33.5039L44.7476 36.2639L44.7527 36.261C44.3534 37.0892 43.8924 37.8863 43.3736 38.6454V38.6454L43.4691 44.3224C43.4735 44.583 43.4198 44.8413 43.3118 45.0786C43.2039 45.3158 43.0446 45.5261 42.8453 45.6941C40.7962 47.4228 38.4574 48.7752 35.9371 49.689C35.6926 49.7771 35.4315 49.8096 35.1729 49.7841C34.9143 49.7587 34.6645 49.676 34.4418 49.5421L29.5653 46.6161L29.5704 46.6191C28.6534 46.6874 27.7327 46.6866 26.8159 46.6169V46.6169L21.9473 49.5382C21.7237 49.6722 21.4732 49.7548 21.2137 49.78C20.9543 49.8052 20.6925 49.7723 20.4474 49.6837C17.9258 48.7735 15.5851 47.4243 13.5336 45.6985C13.3351 45.5308 13.1764 45.321 13.0691 45.0843C12.9618 44.8476 12.9086 44.59 12.9132 44.3302L13.009 38.644L13.0089 38.6499C12.4913 37.8899 12.0315 37.0921 11.6335 36.2633H11.6335L6.66932 33.5076C6.44145 33.381 6.24462 33.2053 6.0931 32.9932C5.94159 32.7812 5.83919 32.538 5.79334 32.2814C5.32124 29.6451 5.31888 26.9461 5.78636 24.3089C5.83196 24.0518 5.9343 23.808 6.08593 23.5954C6.23756 23.3827 6.43467 23.2066 6.66294 23.0797L11.6348 20.3197L11.6297 20.3225Z" stroke="#435167" stroke-width="3" stroke-linecap="round" stroke-linejoin="round"/>
</svg>
