<svg width="57" height="56" viewBox="0 0 57 56" fill="none" xmlns="http://www.w3.org/2000/svg">
<path d="M47.4408 29.3445L43.9408 33.439L35.8914 41.4884C35.6777 41.7021 35.4123 41.8568 35.1211 41.9375C34.8299 42.0182 34.5227 42.022 34.2295 41.9487L21.5514 38.7792C21.3136 38.7198 21.091 38.611 20.8979 38.46L8.94077 29.11M52.8478 26.641L47.4408 29.3445L40.4408 15.939L45.9028 13.208C46.3132 13.0029 46.7877 12.967 47.2242 13.1083C47.6607 13.2495 48.0243 13.5566 48.2367 13.9633L53.6164 24.2657C53.7239 24.4717 53.7894 24.6971 53.8089 24.9287C53.8285 25.1603 53.8017 25.3934 53.7301 25.6145C53.6586 25.8356 53.5437 26.0403 53.3922 26.2165C53.2407 26.3928 53.0556 26.5371 52.8478 26.641V26.641ZM8.94077 29.11L3.53378 26.4065C3.32592 26.3026 3.14083 26.1583 2.98933 25.9821C2.83784 25.8058 2.72296 25.6012 2.65141 25.3801C2.57986 25.159 2.55307 24.9258 2.5726 24.6942C2.59213 24.4627 2.65759 24.2373 2.76516 24.0313L8.14486 13.7288C8.35723 13.3221 8.72081 13.0151 9.15733 12.8738C9.59384 12.7326 10.0684 12.7684 10.4787 12.9736L15.9408 15.7046L8.94077 29.11Z" stroke="#435167" stroke-width="3" stroke-linecap="round" stroke-linejoin="round"/>
<path d="M43.9413 33.439L34.3163 26.439L31.5163 28.539C30.3046 29.4477 28.8308 29.939 27.3163 29.939C25.8017 29.939 24.3279 29.4477 23.1163 28.539L21.9305 27.6496C21.7299 27.4992 21.564 27.3074 21.444 27.0873C21.324 26.8671 21.2526 26.6238 21.2349 26.3737C21.2171 26.1236 21.2533 25.8726 21.3409 25.6377C21.4286 25.4028 21.5657 25.1895 21.743 25.0122L30.3037 16.4515C30.4662 16.289 30.6591 16.1601 30.8714 16.0722C31.0838 15.9842 31.3113 15.939 31.5411 15.939H40.4413" stroke="#435167" stroke-width="3" stroke-linecap="round" stroke-linejoin="round"/>
<path d="M24.6914 46.564L18.0984 44.9158C17.8309 44.8489 17.5829 44.7197 17.3748 44.5388L12.4414 40.2506M16.067 15.7046L27.2933 12.4318C27.6943 12.3148 28.1239 12.3452 28.5045 12.5174L36.0664 15.939L16.067 15.7046Z" stroke="#435167" stroke-width="3" stroke-linecap="round" stroke-linejoin="round"/>
</svg>
