<svg>

    <symbol id="header-main" width="1440" height="718" viewBox="0 0 1441 718" fill="none" xmlns="http://www.w3.org/2000/svg">
    <path d="M264.602 692.17C114.254 708.975 25.6845 608.482 0.193359 556.135V37H1440.19V213.046C1440.19 293.067 1256.76 518.125 1047.83 498.62C838.902 479.115 915.875 811.201 697.451 692.17C479.027 573.139 452.536 671.165 264.602 692.17Z" fill="#CBE9FF"/>
    <path d="M264.602 672.17C114.254 688.975 25.6845 588.482 0.193359 536.135V17H1440.19V193.046C1440.19 273.067 1256.76 498.125 1047.83 478.62C838.902 459.115 915.875 791.201 697.451 672.17C479.027 553.139 452.536 651.165 264.602 672.17Z" fill="#98D4FF"/>
    <path d="M264.602 655.17C114.254 671.975 25.6845 571.482 0.193359 519.135V0H1440.19V176.046C1440.19 256.067 1256.76 481.125 1047.83 461.62C838.902 442.115 915.875 774.201 697.451 655.17C479.027 536.139 452.536 634.165 264.602 655.17Z" fill="url(#paint0_linear_45_51)"/>
    <mask id="mask0_45_51" style="mask-type:alpha" maskUnits="userSpaceOnUse" x="0" y="0" width="1441" height="681">
    <path d="M264.602 655.17C114.254 671.975 25.6845 571.482 0.193359 519.135V0H1440.19V176.046C1440.19 256.067 1256.76 481.125 1047.83 461.62C838.902 442.115 915.875 774.201 697.451 655.17C479.027 536.139 452.536 634.165 264.602 655.17Z" fill="url(#paint1_linear_45_51)"/>
    </mask>
    <g mask="url(#mask0_45_51)">
    <path d="M264.602 655.17C114.254 671.975 25.6845 571.482 0.193359 519.135V0H1440.19V176.046C1440.19 256.067 1256.76 481.125 1047.83 461.62C838.902 442.115 915.875 774.201 697.451 655.17C479.027 536.139 452.536 634.165 264.602 655.17Z" fill="url(#paint2_linear_45_51)" fill-opacity="0.56"/>
    </g>
    <defs>
    <linearGradient id="paint0_linear_45_51" x1="1440.19" y1="-4.5373e-05" x2="0.193376" y2="521.5" gradientUnits="userSpaceOnUse">
    <stop stop-color="#0193FD"/>
    <stop offset="1" stop-color="#3F51F4"/>
    </linearGradient>
    <linearGradient id="paint1_linear_45_51" x1="1440.19" y1="-4.5373e-05" x2="0.193376" y2="521.5" gradientUnits="userSpaceOnUse">
    <stop stop-color="#FD3801"/>
    <stop offset="1" stop-color="#F75452"/>
    </linearGradient>
    <linearGradient id="paint2_linear_45_51" x1="1440.19" y1="-4.5373e-05" x2="0.193376" y2="521.5" gradientUnits="userSpaceOnUse">
    <stop stop-color="#0360EA"/>
    <stop offset="1" stop-color="#257CFF"/>
    </linearGradient>
    </defs>
    </symbol>


    <symbol id="logo" width="150" height="49" viewBox="0 0 150 49" fill="none" xmlns="http://www.w3.org/2000/svg">
    <g clip-path="url(#clip0_673_2827)">
    <path d="M80.0935 41.1929C79.9486 41.1929 79.8097 41.1351 79.7072 41.0322C79.6048 40.9294 79.5472 40.7899 79.5472 40.6444V25.6377C79.5445 25.5612 79.5573 25.485 79.5849 25.4137C79.6125 25.3424 79.6543 25.2775 79.7078 25.223C79.7584 25.1708 79.8191 25.1296 79.8862 25.1018C79.9533 25.0741 80.0253 25.0605 80.0978 25.0618H90.195C90.2714 25.0578 90.3477 25.07 90.419 25.0976C90.4904 25.1251 90.5552 25.1674 90.6093 25.2217C90.6633 25.276 90.7054 25.341 90.7329 25.4127C90.7603 25.4844 90.7725 25.561 90.7685 25.6377V27.1592C90.7698 27.232 90.7563 27.3043 90.7286 27.3717C90.701 27.4391 90.6599 27.5 90.6079 27.5508C90.5537 27.6045 90.4891 27.6465 90.4181 27.6742C90.3471 27.702 90.2711 27.7149 90.195 27.7121H82.6453V31.7907H89.6903C89.8422 31.7848 89.9904 31.8387 90.1033 31.9409C90.157 31.9927 90.199 32.0554 90.2267 32.1249C90.2544 32.1943 90.2671 32.2688 90.2638 32.3435V33.7696C90.2671 33.8443 90.2544 33.9189 90.2267 33.9883C90.199 34.0577 90.157 34.1204 90.1033 34.1722C89.9904 34.2744 89.8422 34.3283 89.6903 34.3225H82.6453V38.5415H90.3785C90.4549 38.5375 90.5312 38.5497 90.6026 38.5773C90.6739 38.6048 90.7387 38.6471 90.7928 38.7014C90.8469 38.7557 90.889 38.8208 90.9164 38.8924C90.9438 38.9641 90.956 39.0407 90.9521 39.1174V40.6378C90.9536 40.7107 90.9401 40.7831 90.9124 40.8504C90.8848 40.9178 90.8436 40.9788 90.7915 41.0294C90.7374 41.0835 90.6729 41.1258 90.6018 41.1537C90.5308 41.1817 90.4548 41.1946 90.3785 41.1918L80.0935 41.1929Z" fill="white"/>
    <path d="M98.0664 41.4234C97.2704 41.4404 96.4767 41.3315 95.7144 41.1009C95.1408 40.9251 94.6013 40.6521 94.1195 40.2935C93.7591 40.0276 93.4482 39.7001 93.2007 39.326C93.0019 39.0035 92.8949 38.7347 92.8796 38.5197C92.8689 38.4452 92.877 38.3692 92.9031 38.2987C92.9293 38.2282 92.9726 38.1654 93.0292 38.116C93.1324 38.0209 93.2671 37.9677 93.4072 37.9668H95.2206C95.275 37.9658 95.3292 37.9736 95.3812 37.9899C95.4513 38.0227 95.5138 38.0697 95.5647 38.1281C95.7635 38.297 95.974 38.4736 96.1961 38.6579C96.4354 38.8532 96.7018 39.0121 96.9871 39.1296C97.3528 39.2716 97.7432 39.3384 98.1352 39.326C98.7316 39.326 99.2327 39.2068 99.6384 38.9684C99.825 38.8719 99.9809 38.7246 100.088 38.5435C100.196 38.3624 100.25 38.1546 100.246 37.9438C100.259 37.6585 100.165 37.3787 99.9825 37.1595C99.8069 36.9613 99.4818 36.781 99.0069 36.6186C98.3439 36.4078 97.6695 36.2346 96.9871 36.0998C96.2457 35.9418 95.5283 35.6862 94.8536 35.3396C94.3367 35.0777 93.9006 34.6795 93.5918 34.1877C93.3002 33.6764 93.1574 33.0932 93.1796 32.5044C93.2018 31.9157 93.3882 31.345 93.7174 30.8573C94.0765 30.3117 94.6118 29.8623 95.3233 29.5091C96.0348 29.1559 96.9186 28.9793 97.9746 28.9793C98.7055 28.9652 99.4337 29.0705 100.131 29.2908C100.678 29.4631 101.195 29.7224 101.66 30.0587C102.018 30.3173 102.332 30.6321 102.59 30.9911C102.804 31.3063 102.919 31.5791 102.934 31.8095C102.945 31.8829 102.938 31.9579 102.914 32.0282C102.89 32.0985 102.85 32.1619 102.797 32.2132C102.698 32.3093 102.567 32.3628 102.429 32.3624H100.731C100.659 32.3635 100.589 32.3477 100.524 32.3163C100.46 32.2853 100.399 32.2485 100.341 32.2066C100.173 32.053 99.9905 31.8918 99.7946 31.7228C99.5749 31.5407 99.3316 31.3894 99.0714 31.2731C98.7186 31.1296 98.3396 31.063 97.9593 31.0778C97.3767 31.0778 96.9328 31.2043 96.6276 31.4573C96.4826 31.5702 96.3656 31.7153 96.286 31.8814C96.2064 32.0474 96.1663 32.2297 96.1688 32.4139C96.164 32.6588 96.2409 32.8982 96.3873 33.094C96.533 33.2864 96.8276 33.4667 97.2711 33.6349C97.9297 33.8627 98.6046 34.0402 99.2899 34.1658C100.315 34.3501 101.129 34.6225 101.734 34.983C102.338 35.3436 102.767 35.7586 103.019 36.2281C103.274 36.7063 103.404 37.2414 103.397 37.7836C103.403 38.4552 103.19 39.1103 102.79 39.6485C102.384 40.2014 101.787 40.6354 100.999 40.9506C100.212 41.2658 99.2345 41.4234 98.0664 41.4234Z" fill="white"/>
    <path d="M111.1 41.1926C110.183 41.1926 109.41 41.031 108.783 40.7078C108.169 40.3993 107.675 39.8919 107.383 39.2674C107.077 38.6312 106.924 37.8362 106.924 36.8826V31.6522H105.111C104.966 31.6522 104.827 31.5944 104.724 31.4915C104.622 31.3887 104.564 31.2492 104.564 31.1037V29.7654C104.564 29.6199 104.622 29.4804 104.724 29.3775C104.827 29.2747 104.966 29.2169 105.111 29.2169H106.923V25.384C106.919 25.2387 106.973 25.0979 107.073 24.9924C107.124 24.9382 107.186 24.8958 107.256 24.868C107.325 24.8402 107.399 24.8276 107.474 24.8311H109.331C109.476 24.8311 109.614 24.8889 109.717 24.9918C109.819 25.0947 109.877 25.2342 109.877 25.3796V29.2048H112.758C112.902 29.2048 113.041 29.2626 113.144 29.3655C113.246 29.4683 113.304 29.6078 113.304 29.7533V31.0905C113.304 31.236 113.246 31.3755 113.144 31.4784C113.041 31.5812 112.902 31.639 112.758 31.639H109.885V36.6391C109.885 37.2702 109.994 37.762 110.212 38.1145C110.431 38.467 110.817 38.6436 111.37 38.6443H112.954C113.099 38.6443 113.238 38.7021 113.34 38.805C113.443 38.9079 113.5 39.0474 113.5 39.1928V40.6189C113.5 40.7644 113.443 40.9039 113.34 41.0068C113.238 41.1096 113.099 41.1674 112.954 41.1674L111.1 41.1926Z" fill="white"/>
    <path d="M119.016 41.4231C118.271 41.4339 117.533 41.2721 116.86 40.9503C116.251 40.6655 115.724 40.2294 115.33 39.6832C114.861 39.0051 114.674 38.1691 114.812 37.3547C114.949 36.5402 115.399 35.8123 116.064 35.3271C116.929 34.6894 118.072 34.2634 119.495 34.0491L122.638 33.5873V33.1035C122.638 32.4585 122.478 31.9594 122.157 31.6062C121.836 31.2529 121.288 31.0781 120.513 31.0818C119.962 31.0818 119.515 31.1915 119.171 31.4109C118.836 31.6262 118.57 31.9344 118.406 32.2984C118.354 32.3919 118.277 32.4693 118.184 32.5221C118.091 32.5749 117.986 32.6011 117.879 32.5978H116.065C115.996 32.6032 115.927 32.5937 115.862 32.5698C115.796 32.546 115.737 32.5084 115.687 32.4596C115.6 32.3577 115.554 32.2257 115.561 32.091C115.599 31.7744 115.7 31.4687 115.859 31.1926C116.079 30.7957 116.377 30.447 116.733 30.1669C117.194 29.801 117.715 29.5165 118.271 29.3255C118.898 29.0952 119.655 28.98 120.542 28.98C121.506 28.98 122.321 29.0992 122.987 29.3376C123.583 29.5338 124.127 29.8605 124.582 30.2942C124.977 30.6884 125.277 31.1694 125.456 31.6994C125.641 32.2483 125.734 32.8245 125.731 33.4041V40.6442C125.731 40.7897 125.674 40.9292 125.571 41.032C125.469 41.1349 125.33 41.1927 125.185 41.1927H123.328C123.253 41.1963 123.179 41.1837 123.11 41.1556C123.04 41.1276 122.978 41.0849 122.927 41.0303C122.827 40.9249 122.773 40.784 122.777 40.6387V39.7403C122.556 40.0553 122.285 40.3318 121.974 40.5586C121.601 40.8308 121.186 41.0409 120.746 41.1806C120.186 41.3548 119.602 41.4367 119.016 41.4231ZM119.796 39.2291C120.303 39.236 120.803 39.1173 121.253 38.8835C121.7 38.6423 122.06 38.2678 122.286 37.8118C122.539 37.3284 122.665 36.7177 122.665 35.9798V35.4961L120.371 35.8646C119.468 36.0029 118.795 36.2255 118.352 36.5327C117.908 36.8399 117.687 37.2165 117.687 37.6626C117.679 37.979 117.789 38.287 117.996 38.5259C118.209 38.769 118.482 38.9517 118.788 39.0558C119.111 39.173 119.452 39.2331 119.796 39.2335V39.2291Z" fill="white"/>
    <path d="M133.932 41.1926C133.014 41.1926 132.242 41.031 131.615 40.7078C131 40.3993 130.507 39.8919 130.214 39.2674C129.908 38.6312 129.755 37.8362 129.755 36.8826V31.6522H127.941C127.796 31.6522 127.657 31.5944 127.555 31.4915C127.452 31.3887 127.395 31.2492 127.395 31.1037V29.7654C127.395 29.6199 127.452 29.4804 127.555 29.3775C127.657 29.2747 127.796 29.2169 127.941 29.2169H129.753V25.384C129.749 25.2387 129.803 25.0979 129.903 24.9924C129.954 24.9382 130.017 24.8958 130.086 24.868C130.155 24.8402 130.229 24.8276 130.304 24.8311H132.161C132.306 24.8311 132.445 24.8889 132.547 24.9918C132.649 25.0947 132.707 25.2342 132.707 25.3796V29.2048H135.588C135.733 29.2048 135.871 29.2626 135.974 29.3655C136.076 29.4683 136.134 29.6078 136.134 29.7533V31.0905C136.134 31.236 136.076 31.3755 135.974 31.4784C135.871 31.5812 135.733 31.639 135.588 31.639H132.719V36.6391C132.719 37.2702 132.828 37.762 133.047 38.1145C133.265 38.467 133.651 38.6436 134.205 38.6443H135.789C135.934 38.6443 136.072 38.7021 136.175 38.805C136.277 38.9079 136.335 39.0474 136.335 39.1928V40.6189C136.335 40.7644 136.277 40.9039 136.175 41.0068C136.072 41.1096 135.934 41.1674 135.789 41.1674L133.932 41.1926Z" fill="white"/>
    <path d="M143.525 41.423C141.826 41.423 140.479 40.9312 139.483 39.9476C138.488 38.964 137.954 37.5661 137.883 35.7538C137.867 35.6003 137.86 35.405 137.86 35.1659C137.858 34.9776 137.865 34.7894 137.883 34.602C137.944 33.4495 138.208 32.4508 138.675 31.6062C139.12 30.7814 139.793 30.1039 140.614 29.6557C141.44 29.203 142.411 28.9763 143.528 28.9756C144.766 28.9756 145.807 29.2315 146.649 29.7435C147.484 30.2501 148.147 30.9969 148.553 31.887C148.982 32.8011 149.196 33.8572 149.196 35.0551V35.5388C149.197 35.6117 149.183 35.684 149.156 35.7513C149.128 35.8187 149.087 35.8797 149.035 35.9305C148.981 35.9842 148.916 36.0262 148.845 36.0539C148.774 36.0816 148.698 36.0945 148.622 36.0917H141.004V36.276C141.013 36.7867 141.118 37.291 141.314 37.7624C141.491 38.1993 141.785 38.5787 142.163 38.8594C142.553 39.141 143.025 39.2866 143.505 39.2741C144.162 39.2984 144.803 39.0674 145.295 38.629C145.438 38.5038 145.568 38.3649 145.685 38.2144C145.769 38.0804 145.88 37.9663 146.012 37.8798C146.133 37.8354 146.262 37.816 146.39 37.8228H148.37C148.509 37.8179 148.645 37.8674 148.749 37.961C148.797 38.0036 148.833 38.0575 148.855 38.1178C148.877 38.1781 148.884 38.243 148.875 38.3065C148.859 38.5522 148.733 38.8517 148.497 39.2049C148.214 39.6038 147.869 39.954 147.475 40.2416C146.97 40.611 146.408 40.8951 145.811 41.083C145.072 41.3191 144.3 41.4339 143.525 41.423ZM141 34.1643H146.076V34.0952C146.088 33.5574 145.986 33.0231 145.778 32.5276C145.592 32.0986 145.289 31.7312 144.904 31.4679C144.607 31.2627 144.268 31.1265 143.912 31.0691C143.556 31.0116 143.192 31.0345 142.846 31.1359C142.5 31.2374 142.181 31.4149 141.912 31.6556C141.643 31.8963 141.43 32.1942 141.29 32.5276C141.088 33.0249 140.99 33.5584 141.003 34.0952L141 34.1643Z" fill="white"/>
    <path d="M45.7493 22.9128C45.6045 22.9128 45.4655 22.855 45.3631 22.7521C45.2607 22.6492 45.2031 22.5097 45.2031 22.3643V7.3356C45.2031 7.19013 45.2607 7.05062 45.3631 6.94776C45.4655 6.8449 45.6045 6.78711 45.7493 6.78711H47.8839C48.0288 6.78711 48.1677 6.8449 48.2701 6.94776C48.3726 7.05062 48.4301 7.19013 48.4301 7.3356V20.1703H55.7045C55.7809 20.1664 55.8572 20.1786 55.9285 20.2061C55.9999 20.2337 56.0647 20.2759 56.1188 20.3302C56.1728 20.3845 56.2149 20.4496 56.2424 20.5212C56.2698 20.5929 56.282 20.6695 56.278 20.7462V22.3588C56.2793 22.4316 56.2657 22.5039 56.2381 22.5713C56.2105 22.6386 56.1694 22.6996 56.1174 22.7504C56.0632 22.8041 55.9986 22.8461 55.9276 22.8738C55.8565 22.9016 55.7807 22.9144 55.7045 22.9117L45.7493 22.9128Z" fill="white"/>
    <path d="M58.6919 8.94809C58.6189 8.95293 58.5457 8.94207 58.4773 8.91622C58.4088 8.89037 58.3466 8.85013 58.2949 8.7982C58.2432 8.74627 58.2031 8.68384 58.1774 8.61509C58.1516 8.54635 58.1408 8.47288 58.1457 8.39959V6.73657C58.1419 6.59127 58.1957 6.45042 58.2953 6.34495C58.3467 6.29079 58.4091 6.24837 58.4783 6.22054C58.5475 6.19272 58.6218 6.18015 58.6962 6.18369H60.7849C60.8605 6.18136 60.9358 6.19445 61.0062 6.22217C61.0766 6.24988 61.1407 6.29165 61.1946 6.34495C61.2466 6.39574 61.2877 6.4567 61.3153 6.52406C61.3429 6.59141 61.3565 6.66374 61.3552 6.73657V8.39521C61.3588 8.47012 61.3463 8.54494 61.3186 8.61459C61.2909 8.68424 61.2486 8.74709 61.1946 8.79889C61.0816 8.9008 60.9334 8.95434 60.7816 8.94809H58.6919ZM58.7836 22.9127C58.6388 22.9127 58.4998 22.8549 58.3974 22.752C58.295 22.6492 58.2374 22.5097 58.2374 22.3642V11.4832C58.2374 11.3377 58.295 11.1982 58.3974 11.0954C58.4998 10.9925 58.6388 10.9347 58.7836 10.9347H60.6888C60.7632 10.9312 60.8375 10.9438 60.9067 10.9716C60.9759 10.9994 61.0383 11.0418 61.0897 11.096C61.1887 11.2018 61.2424 11.3424 61.2394 11.4876V22.3642C61.2424 22.5094 61.1887 22.6499 61.0897 22.7558C61.0383 22.81 60.9759 22.8524 60.9067 22.8802C60.8375 22.908 60.7632 22.9206 60.6888 22.9171L58.7836 22.9127Z" fill="white"/>
    <path d="M72.8046 27.2909C72.6598 27.2909 72.5208 27.2331 72.4184 27.1302C72.316 27.0273 72.2584 26.8878 72.2584 26.7424V21.5076C71.8819 22.0073 71.396 22.4134 70.8383 22.6945C70.2557 22.9943 69.5522 23.1439 68.7277 23.1432C68.0142 23.1565 67.3062 23.0151 66.6522 22.7285C66.0642 22.4693 65.5427 22.0792 65.1271 21.5877C64.7115 21.0846 64.3962 20.5058 64.1986 19.8829C63.977 19.1933 63.8534 18.4758 63.8315 17.7515C63.8152 17.4751 63.8086 17.203 63.8086 16.9222C63.8086 16.6414 63.8152 16.3737 63.8315 16.1148C63.8669 15.3724 63.9938 14.6373 64.2095 13.9263C64.399 13.2999 64.7109 12.7178 65.1271 12.2139C65.5371 11.7263 66.0564 11.3433 66.6423 11.0961C67.3003 10.8247 68.0067 10.6914 68.7179 10.7045C69.6049 10.7045 70.3507 10.8657 70.9552 11.1883C71.521 11.4783 72.012 11.8962 72.3895 12.4092V11.4877C72.3895 11.3423 72.4471 11.2028 72.5495 11.0999C72.6519 10.997 72.7909 10.9392 72.9357 10.9392H74.771C74.9158 10.9392 75.0548 10.997 75.1572 11.0999C75.2596 11.2028 75.3172 11.3423 75.3172 11.4877V26.738C75.3172 26.8835 75.2596 27.023 75.1572 27.1258C75.0548 27.2287 74.9158 27.2865 74.771 27.2865L72.8046 27.2909ZM69.5918 20.6782C70.2036 20.6782 70.7006 20.54 71.083 20.2636C71.4572 19.9966 71.7542 19.6347 71.9438 19.2149C72.1338 18.7982 72.2392 18.3477 72.2541 17.8897C72.285 17.5913 72.3003 17.2914 72.2999 16.9913C72.3008 16.6981 72.2854 16.4052 72.2541 16.1137C72.2382 15.6352 72.1372 15.1633 71.9558 14.7205C71.7793 14.2771 71.4854 13.8905 71.1059 13.6027C70.7236 13.3102 70.2189 13.1639 69.5918 13.1639C68.9495 13.1639 68.4372 13.3058 68.0548 13.5896C67.6754 13.8694 67.3909 14.2596 67.2399 14.7074C67.0734 15.1981 66.9766 15.7099 66.9526 16.2278C66.922 16.6884 66.922 17.1505 66.9526 17.6111C66.9766 18.1289 67.0734 18.6408 67.2399 19.1315C67.3909 19.5793 67.6754 19.9695 68.0548 20.2493C68.4372 20.5353 68.9495 20.6782 69.5918 20.6782Z" fill="white"/>
    <path d="M82.8096 23.1429C81.876 23.1429 81.0687 22.9319 80.3877 22.5099C79.6996 22.0783 79.1529 21.4531 78.8157 20.712C78.4516 19.936 78.2695 19.0182 78.2695 17.9585V11.4864C78.2695 11.3409 78.3271 11.2014 78.4295 11.0985C78.5319 10.9956 78.6709 10.9379 78.8157 10.9379H80.8356C80.9102 10.9345 80.9846 10.9471 81.054 10.9749C81.1233 11.0027 81.1859 11.0451 81.2376 11.0991C81.3363 11.2051 81.3896 11.3457 81.3862 11.4907V17.828C81.3862 19.7294 82.2201 20.6802 83.8878 20.6802C84.6831 20.6802 85.3142 20.4264 85.781 19.9189C86.2478 19.4113 86.4812 18.7125 86.4812 17.8225V11.4831C86.4812 11.3376 86.5388 11.1981 86.6412 11.0952C86.7436 10.9924 86.8826 10.9346 87.0274 10.9346H89.0506C89.1954 10.9346 89.3344 10.9924 89.4368 11.0952C89.5392 11.1981 89.5968 11.3376 89.5968 11.4831V22.3596C89.5968 22.5051 89.5392 22.6446 89.4368 22.7475C89.3344 22.8503 89.1954 22.9081 89.0506 22.9081H87.1935C87.1189 22.9118 87.0444 22.8992 86.975 22.8714C86.9056 22.8436 86.843 22.8011 86.7915 22.7469C86.6928 22.6409 86.6394 22.5003 86.6429 22.3553V21.4108C86.2329 21.9451 85.7068 22.3785 85.1048 22.6778C84.4923 22.9879 83.7272 23.1429 82.8096 23.1429Z" fill="white"/>
    <path d="M93.0942 8.94823C93.0212 8.95308 92.9481 8.94222 92.8796 8.91637C92.8111 8.89052 92.749 8.85028 92.6973 8.79835C92.6455 8.74641 92.6055 8.68399 92.5797 8.61524C92.554 8.5465 92.5432 8.47303 92.548 8.39974V6.73672C92.5442 6.59142 92.5981 6.45057 92.6977 6.34509C92.7482 6.29086 92.8098 6.24812 92.8782 6.21974C92.9466 6.19135 93.0202 6.17799 93.0942 6.18055H95.1829C95.259 6.17777 95.3349 6.19064 95.4059 6.21837C95.477 6.2461 95.5416 6.2881 95.5958 6.3418C95.6478 6.3926 95.6889 6.45356 95.7165 6.52091C95.7441 6.58827 95.7577 6.6606 95.7564 6.73343V8.39206C95.76 8.46698 95.7476 8.5418 95.7199 8.61145C95.6921 8.6811 95.6499 8.74395 95.5958 8.79575C95.4828 8.89766 95.3347 8.9512 95.1829 8.94494L93.0942 8.94823ZM93.186 22.9128C93.0411 22.9128 92.9022 22.855 92.7997 22.7522C92.6973 22.6493 92.6398 22.5098 92.6398 22.3643V11.4834C92.6398 11.3379 92.6973 11.1984 92.7997 11.0955C92.9022 10.9927 93.0411 10.9349 93.186 10.9349H95.0911C95.1656 10.9313 95.2399 10.9439 95.3091 10.9717C95.3782 10.9995 95.4406 11.042 95.492 11.0961C95.591 11.202 95.6448 11.3426 95.6417 11.4877V22.3643C95.6448 22.5095 95.591 22.6501 95.492 22.7559C95.4406 22.8101 95.3782 22.8525 95.3091 22.8803C95.2399 22.9082 95.1656 22.9207 95.0911 22.9172L93.186 22.9128Z" fill="white"/>
    <path d="M103.119 23.1431C102.398 23.1583 101.683 23.0211 101.019 22.7405C100.434 22.4867 99.9185 22.0954 99.5157 21.5996C99.1037 21.0826 98.792 20.4924 98.597 19.8598C98.3753 19.1466 98.2518 18.4062 98.23 17.6593C98.2147 17.3828 98.207 17.1331 98.207 16.91C98.207 16.687 98.2139 16.438 98.2278 16.163C98.2517 15.4362 98.3714 14.7158 98.5839 14.0206C98.7761 13.387 99.0876 12.7964 99.5015 12.2808C99.9099 11.7792 100.43 11.3806 101.019 11.1169C101.681 10.8286 102.397 10.6872 103.119 10.7022C103.944 10.7022 104.644 10.8441 105.218 11.1279C105.765 11.3929 106.253 11.766 106.652 12.2248V7.10522C106.649 6.96018 106.702 6.81957 106.801 6.7136C106.853 6.65942 106.915 6.61699 106.985 6.58917C107.054 6.56135 107.128 6.5488 107.203 6.55235H109.152C109.297 6.55235 109.436 6.61013 109.538 6.71299C109.641 6.81586 109.698 6.95537 109.698 7.10084V22.3599C109.698 22.5053 109.641 22.6448 109.538 22.7477C109.436 22.8506 109.297 22.9083 109.152 22.9083H107.34C107.265 22.9119 107.191 22.8993 107.121 22.8715C107.052 22.8437 106.989 22.8013 106.938 22.7471C106.839 22.6411 106.786 22.5005 106.789 22.3555V21.5031C106.389 21.9942 105.892 22.3959 105.328 22.6824C104.746 22.9895 104.009 23.1431 103.119 23.1431ZM103.967 20.6782C104.61 20.6782 105.122 20.5319 105.504 20.2394C105.884 19.9516 106.178 19.565 106.354 19.1216C106.536 18.6784 106.637 18.2062 106.652 17.7273C106.667 17.4509 106.675 17.1547 106.675 16.8398C106.675 16.525 106.667 16.2288 106.652 15.9524C106.637 15.4932 106.528 15.0422 106.331 14.6272C106.134 14.2087 105.833 13.8481 105.457 13.5796C105.075 13.3032 104.578 13.165 103.966 13.165C103.324 13.165 102.814 13.3068 102.437 13.5906C102.062 13.8752 101.779 14.2638 101.622 14.7084C101.448 15.1976 101.348 15.71 101.324 16.2288C101.308 16.691 101.308 17.1521 101.324 17.6121C101.348 18.131 101.448 18.6434 101.622 19.1325C101.779 19.5773 102.062 19.9661 102.437 20.2504C102.815 20.5356 103.325 20.6782 103.967 20.6782Z" fill="white"/>
    <path d="M36.9971 30.11C36.9698 28.8583 36.6508 27.3818 36.0926 25.7846C35.5343 24.1874 34.7489 22.4651 33.8105 20.7022C31.204 15.8163 27.4319 10.6177 24.2377 6.57092C21.8431 3.53667 19.7763 1.14415 18.7636 0L18.0207 0.84687C17.1468 1.85938 15.908 3.3085 14.4955 5.0516C11.6705 8.53452 8.12455 13.1879 5.27662 17.8424C3.37473 20.9425 1.78089 24.0491 0.918978 26.7631C0.423022 28.3131 0.165212 29.7315 0.1958 30.9316C0.267234 34.089 1.1429 37.1753 2.73931 39.8964C4.33573 42.6175 6.59966 44.8825 9.31524 46.4756C12.0308 48.0687 15.1075 48.9367 18.252 48.9969C21.3965 49.057 24.5038 48.3073 27.2779 46.8192C30.2779 45.2083 32.7747 42.7941 34.4909 39.8445C36.2072 36.8949 37.0758 33.5253 37.0004 30.11H36.9971ZM31.251 37.7439C29.9174 39.9963 28.0117 41.8525 25.729 43.1223C23.4463 44.3921 20.8685 45.03 18.2596 44.9706C15.6507 44.9113 13.1044 44.1568 10.8813 42.7844C8.6582 41.412 6.83821 39.4711 5.60763 37.1603C4.51433 35.1133 3.92053 32.8349 3.87505 30.5126C3.85211 29.5571 4.0564 28.4217 4.45731 27.1799C5.1499 25.0079 6.42366 22.5265 7.93993 20.0495C10.2187 16.3198 13.0557 12.601 15.3148 9.8147C16.4466 8.42263 17.4319 7.26312 18.1365 6.45135C18.367 6.18917 18.5735 5.961 18.733 5.77561C19.5381 6.69159 21.1931 8.60473 23.1092 11.0324C25.6655 14.2706 28.6805 18.4304 30.766 22.3313C31.4784 23.6376 32.0894 24.9971 32.5936 26.3978C33.0404 27.6769 33.2949 28.8561 33.3178 29.861C33.3822 32.6316 32.6658 35.3642 31.251 37.7439Z" fill="white"/>
    <path d="M24.7261 35.6094H23.2109V37.1309H24.7261V35.6094Z" fill="white"/>
    <path d="M26.8902 35.6094H25.375V37.1309H26.8902V35.6094Z" fill="white"/>
    <path d="M24.7261 37.5654H23.2109V39.0869H24.7261V37.5654Z" fill="white"/>
    <path d="M26.8902 37.5654H25.375V39.0869H26.8902V37.5654Z" fill="white"/>
    <path d="M8.27148 29.9849L13.4681 27.1108V45.1748H8.27148V29.9849Z" fill="white"/>
    <path d="M14.5488 17.462L19.7455 14.2632V45.175H17.1466V26.2598H14.5488" fill="white"/>
    <path d="M14.5488 17.462L19.7455 14.2632V45.175H17.1466V26.2598H14.5488" fill="white"/>
    <path d="M21.0488 18.335L21.4934 18.7584V32.3028L21.0488 32.7778V18.335Z" fill="white"/>
    <path d="M22.0488 19.2896L22.4858 19.7064L22.4869 31.2412L22.0488 31.7096V19.2896Z" fill="white"/>
    <path d="M23.0391 20.2339L23.4815 20.6551V30.1769L23.0402 30.6486L23.0391 20.2339Z" fill="white"/>
    <path d="M24.0332 21.1831L24.4724 21.6032L24.4756 29.1132L24.0332 29.5871V21.1831Z" fill="white"/>
    <path d="M14.5879 39.9576L24.9833 29.9619L35.4716 39.9576H33.4113L25.0292 31.9365L16.835 39.9576H14.5879Z" fill="white"/>
    </g>
    <defs>
    <clipPath id="clip0_673_2827">
    <rect width="149" height="49" fill="white" transform="translate(0.193359)"/>
    </clipPath>
    </defs>
    </symbol>



    <symbol id="dollar" width="57" height="57" viewBox="0 0 57 57" fill="none" xmlns="http://www.w3.org/2000/svg">
    <path d="M28.1953 16.042V19.542" stroke="#435167" stroke-width="3" stroke-linecap="round" stroke-linejoin="round"/>
    <path d="M28.1953 37.042V40.542" stroke="#435167" stroke-width="3" stroke-linecap="round" stroke-linejoin="round"/>
    <path d="M28.1953 49.292C39.7933 49.292 49.1953 39.89 49.1953 28.292C49.1953 16.694 39.7933 7.29199 28.1953 7.29199C16.5973 7.29199 7.19531 16.694 7.19531 28.292C7.19531 39.89 16.5973 49.292 28.1953 49.292Z" stroke="#435167" stroke-width="3" stroke-linecap="round" stroke-linejoin="round"/>
    <path d="M22.9453 37.042H30.8203C31.9806 37.042 33.0934 36.5811 33.9139 35.7606C34.7344 34.9401 35.1953 33.8273 35.1953 32.667C35.1953 31.5067 34.7344 30.3939 33.9139 29.5734C33.0934 28.7529 31.9806 28.292 30.8203 28.292H25.5703C24.41 28.292 23.2972 27.8311 22.4767 27.0106C21.6562 26.1901 21.1953 25.0773 21.1953 23.917C21.1953 22.7567 21.6562 21.6439 22.4767 20.8234C23.2972 20.0029 24.41 19.542 25.5703 19.542H33.4453" stroke="#435167" stroke-width="3" stroke-linecap="round" stroke-linejoin="round"/>
    </symbol>

    <symbol id="building" width="57" height="56" viewBox="0 0 57 56" fill="none" xmlns="http://www.w3.org/2000/svg">
    <path d="M3.69531 47.2471H52.6953" stroke="#435167" stroke-width="3" stroke-linecap="round" stroke-linejoin="round"/>
    <path d="M49.1934 47.2471V22.7471C49.1934 22.2829 49.009 21.8378 48.6808 21.5096C48.3526 21.1814 47.9075 20.9971 47.4434 20.9971H31.6934M31.6934 47.2471V8.74707C31.6934 8.28294 31.509 7.83782 31.1808 7.50963C30.8526 7.18144 30.4075 6.99707 29.9434 6.99707H8.94336C8.47923 6.99707 8.03411 7.18144 7.70592 7.50963C7.37773 7.83782 7.19336 8.28294 7.19336 8.74707V47.2471H31.6934Z" stroke="#435167" stroke-width="3" stroke-linecap="round" stroke-linejoin="round"/>
    <path d="M14.1934 15.7471H21.1934" stroke="#435167" stroke-width="3" stroke-linecap="round" stroke-linejoin="round"/>
    <path d="M17.6934 29.7471H24.6934" stroke="#435167" stroke-width="3" stroke-linecap="round" stroke-linejoin="round"/>
    <path d="M14.1934 38.4971H21.1934" stroke="#435167" stroke-width="3" stroke-linecap="round" stroke-linejoin="round"/>
    <path d="M38.6934 38.4971H42.1934" stroke="#435167" stroke-width="3" stroke-linecap="round" stroke-linejoin="round"/>
    <path d="M38.6934 29.7471H42.1934" stroke="#435167" stroke-width="3" stroke-linecap="round" stroke-linejoin="round"/>
    </symbol>

    <symbol id="handshake" width="57" height="56" viewBox="0 0 57 56" fill="none" xmlns="http://www.w3.org/2000/svg">
    <path d="M47.4408 29.3445L43.9408 33.439L35.8914 41.4884C35.6777 41.7021 35.4123 41.8568 35.1211 41.9375C34.8299 42.0182 34.5227 42.022 34.2295 41.9487L21.5514 38.7792C21.3136 38.7198 21.091 38.611 20.8979 38.46L8.94077 29.11M52.8478 26.641L47.4408 29.3445L40.4408 15.939L45.9028 13.208C46.3132 13.0029 46.7877 12.967 47.2242 13.1083C47.6607 13.2495 48.0243 13.5566 48.2367 13.9633L53.6164 24.2657C53.7239 24.4717 53.7894 24.6971 53.8089 24.9287C53.8285 25.1603 53.8017 25.3934 53.7301 25.6145C53.6586 25.8356 53.5437 26.0403 53.3922 26.2165C53.2407 26.3928 53.0556 26.5371 52.8478 26.641V26.641ZM8.94077 29.11L3.53378 26.4065C3.32592 26.3026 3.14083 26.1583 2.98933 25.9821C2.83784 25.8058 2.72296 25.6012 2.65141 25.3801C2.57986 25.159 2.55307 24.9258 2.5726 24.6942C2.59213 24.4627 2.65759 24.2373 2.76516 24.0313L8.14486 13.7288C8.35723 13.3221 8.72081 13.0151 9.15733 12.8738C9.59384 12.7326 10.0684 12.7684 10.4787 12.9736L15.9408 15.7046L8.94077 29.11Z" stroke="#435167" stroke-width="3" stroke-linecap="round" stroke-linejoin="round"/>
    <path d="M43.9413 33.439L34.3163 26.439L31.5163 28.539C30.3046 29.4477 28.8308 29.939 27.3163 29.939C25.8017 29.939 24.3279 29.4477 23.1163 28.539L21.9305 27.6496C21.7299 27.4992 21.564 27.3074 21.444 27.0873C21.324 26.8671 21.2526 26.6238 21.2349 26.3737C21.2171 26.1236 21.2533 25.8726 21.3409 25.6377C21.4286 25.4028 21.5657 25.1895 21.743 25.0122L30.3037 16.4515C30.4662 16.289 30.6591 16.1601 30.8714 16.0722C31.0838 15.9842 31.3113 15.939 31.5411 15.939H40.4413" stroke="#435167" stroke-width="3" stroke-linecap="round" stroke-linejoin="round"/>
    <path d="M24.6914 46.564L18.0984 44.9158C17.8309 44.8489 17.5829 44.7197 17.3748 44.5388L12.4414 40.2506M16.067 15.7046L27.2933 12.4318C27.6943 12.3148 28.1239 12.3452 28.5045 12.5174L36.0664 15.939L16.067 15.7046Z" stroke="#435167" stroke-width="3" stroke-linecap="round" stroke-linejoin="round"/>
    </symbol>

    <symbol id="gear-six" width="57" height="57" viewBox="0 0 57 57" fill="none" xmlns="http://www.w3.org/2000/svg">
    <path d="M28.1914 38.7919C33.9903 38.7919 38.6913 34.0909 38.6913 28.292C38.6913 22.493 33.9903 17.792 28.1914 17.792C22.3924 17.792 17.6914 22.493 17.6914 28.292C17.6914 34.0909 22.3924 38.7919 28.1914 38.7919Z" stroke="#435167" stroke-width="3" stroke-linecap="round" stroke-linejoin="round"/>
    <path d="M11.6297 20.3225C12.029 19.4943 12.49 18.6973 13.0088 17.9381V17.9381L12.9132 12.2612C12.9089 12.0005 12.9626 11.7422 13.0705 11.505C13.1785 11.2677 13.3378 11.0575 13.5371 10.8895C15.5862 9.16078 17.925 7.8083 20.4453 6.89455C20.6898 6.80649 20.9508 6.77399 21.2095 6.7994C21.4681 6.82482 21.7179 6.90751 21.9405 7.04147L26.8171 9.96746L26.812 9.96444C27.7289 9.89618 28.6497 9.8969 29.5665 9.96662V9.96663L34.4351 7.04539C34.6587 6.91132 34.9092 6.82871 35.1687 6.80353C35.4281 6.77835 35.6899 6.81125 35.935 6.89984C38.4566 7.81004 40.7973 9.15922 42.8488 10.885C43.0473 11.0527 43.206 11.2626 43.3133 11.4993C43.4206 11.7359 43.4738 11.9936 43.4692 12.2534L43.3734 17.9396L43.3735 17.9337C43.8911 18.6936 44.3509 19.4914 44.7489 20.3203H44.7489L49.7131 23.076C49.9409 23.2025 50.1378 23.3782 50.2893 23.5903C50.4408 23.8024 50.5432 24.0455 50.5891 24.3021C51.0612 26.9384 51.0635 29.6375 50.596 32.2746C50.5504 32.5318 50.4481 32.7755 50.2965 32.9882C50.1448 33.2008 49.9477 33.377 49.7195 33.5039L44.7476 36.2639L44.7527 36.261C44.3534 37.0892 43.8924 37.8863 43.3736 38.6454V38.6454L43.4691 44.3224C43.4735 44.583 43.4198 44.8413 43.3118 45.0786C43.2039 45.3158 43.0446 45.5261 42.8453 45.6941C40.7962 47.4228 38.4574 48.7752 35.9371 49.689C35.6926 49.7771 35.4315 49.8096 35.1729 49.7841C34.9143 49.7587 34.6645 49.676 34.4418 49.5421L29.5653 46.6161L29.5704 46.6191C28.6534 46.6874 27.7327 46.6866 26.8159 46.6169V46.6169L21.9473 49.5382C21.7237 49.6722 21.4732 49.7548 21.2137 49.78C20.9543 49.8052 20.6925 49.7723 20.4474 49.6837C17.9258 48.7735 15.5851 47.4243 13.5336 45.6985C13.3351 45.5308 13.1764 45.321 13.0691 45.0843C12.9618 44.8476 12.9086 44.59 12.9132 44.3302L13.009 38.644L13.0089 38.6499C12.4913 37.8899 12.0315 37.0921 11.6335 36.2633H11.6335L6.66932 33.5076C6.44145 33.381 6.24462 33.2053 6.0931 32.9932C5.94159 32.7812 5.83919 32.538 5.79334 32.2814C5.32124 29.6451 5.31888 26.9461 5.78636 24.3089C5.83196 24.0518 5.9343 23.808 6.08593 23.5954C6.23756 23.3827 6.43467 23.2066 6.66294 23.0797L11.6348 20.3197L11.6297 20.3225Z" stroke="#435167" stroke-width="3" stroke-linecap="round" stroke-linejoin="round"/>
    </symbol>

    <symbol id="file" width="24" height="24" viewBox="0 0 25 25" fill="none" xmlns="http://www.w3.org/2000/svg">
    <path fill-rule="evenodd" clip-rule="evenodd" d="M4.19336 6.29965C4.19336 4.498 5.59759 2.89965 7.50675 2.89965H12.5359C13.5861 2.89965 14.65 3.29146 15.4537 4.09049L15.4634 4.10015L19.0799 7.7957C19.8817 8.59615 20.2889 9.76862 20.1743 10.8568V19.4997C20.1743 21.3013 18.7701 22.8997 16.8609 22.8997H7.50675C5.59759 22.8997 4.19336 21.3013 4.19336 19.4997V6.29965ZM7.50675 4.89965C6.80078 4.89965 6.19336 5.5013 6.19336 6.29965V19.4997C6.19336 20.298 6.80078 20.8997 7.50675 20.8997H16.8609C17.5669 20.8997 18.1743 20.298 18.1743 19.4997V10.7997C18.1743 10.7579 18.1769 10.7163 18.1821 10.6749C18.2438 10.1842 18.0497 9.59167 17.6646 9.20881L17.6549 9.19915L14.0393 5.50448C13.6364 5.10635 13.093 4.89965 12.5359 4.89965H7.50675Z" fill="#257CFF"/>
    <path fill-rule="evenodd" clip-rule="evenodd" d="M8.19336 14.8997C8.19336 14.3474 8.64107 13.8997 9.19336 13.8997H15.1934C15.7456 13.8997 16.1934 14.3474 16.1934 14.8997C16.1934 15.4519 15.7456 15.8997 15.1934 15.8997H9.19336C8.64107 15.8997 8.19336 15.4519 8.19336 14.8997Z" fill="#257CFF"/>
    <path fill-rule="evenodd" clip-rule="evenodd" d="M8.19336 17.8997C8.19336 17.3474 8.64107 16.8997 9.19336 16.8997H12.1934C12.7456 16.8997 13.1934 17.3474 13.1934 17.8997C13.1934 18.4519 12.7456 18.8997 12.1934 18.8997H9.19336C8.64107 18.8997 8.19336 18.4519 8.19336 17.8997Z" fill="#257CFF"/>
    </symbol>

    <symbol id="discord" width="65" height="65" viewBox="0 0 65 65" fill="none" xmlns="http://www.w3.org/2000/svg">
    <g clip-path="url(#clip0_673_4703)">
    <path d="M64.1934 32.9004C64.1934 15.2273 49.8665 0.900391 32.1934 0.900391C14.5202 0.900391 0.193359 15.2273 0.193359 32.9004C0.193359 50.5735 14.5202 64.9004 32.1934 64.9004C49.8665 64.9004 64.1934 50.5735 64.1934 32.9004Z" fill="#7289DA"/>
    <path d="M48.2416 21.9401C45.3059 19.5914 41.783 18.4172 38.0643 18.2214L37.4771 18.8086C40.8043 19.5914 43.7402 21.1572 46.4802 23.3101C43.153 21.5486 39.4343 20.3744 35.5199 19.9829C34.3456 19.7872 33.367 19.7872 32.1927 19.7872C31.0184 19.7872 30.0398 19.7872 28.8655 19.9829C24.9511 20.3744 21.2324 21.5486 17.9052 23.3101C20.6452 21.1572 23.5811 19.5914 26.9083 18.8086L26.3211 18.2214C22.6024 18.4172 19.0795 19.5914 16.1438 21.9401C12.8166 28.2032 11.0551 35.249 10.8594 42.4905C13.7951 45.6221 17.9052 47.5793 22.2111 47.5793C22.2111 47.5793 23.5811 46.0136 24.5596 44.6434C22.0154 44.0564 19.6667 42.6862 18.101 40.5334C19.471 41.3162 20.841 42.0992 22.2111 42.6862C23.9726 43.4692 25.734 43.8606 27.4955 44.2521C29.0612 44.4477 30.627 44.6434 32.1927 44.6434C33.7584 44.6434 35.3242 44.4477 36.8899 44.2521C38.6514 43.8606 40.4128 43.4692 42.1743 42.6862C43.5444 42.0992 44.9144 41.3162 46.2844 40.5334C44.7187 42.6862 42.37 44.0564 39.8258 44.6434C40.8043 46.0136 42.1743 47.5793 42.1743 47.5793C46.4802 47.5793 50.5903 45.6221 53.526 42.4905C53.3303 35.249 51.5688 28.2032 48.2416 21.9401ZM25.734 38.9676C23.7768 38.9676 22.0154 37.2061 22.0154 35.0533C22.0154 32.9004 23.7768 31.1389 25.734 31.1389C27.6912 31.1389 29.4527 32.9004 29.4527 35.0533C29.4527 37.2061 27.6912 38.9676 25.734 38.9676ZM38.6514 38.9676C36.6942 38.9676 34.9327 37.2061 34.9327 35.0533C34.9327 32.9004 36.6942 31.1389 38.6514 31.1389C40.6086 31.1389 42.37 32.9004 42.37 35.0533C42.37 37.2061 40.6086 38.9676 38.6514 38.9676Z" fill="white"/>
    </g>
    <defs>
    <clipPath id="clip0_673_4703">
    <rect width="64" height="64" fill="white" transform="translate(0.193359 0.900391)"/>
    </clipPath>
    </defs>
    </symbol>


    <symbol id="telegram" width="65" height="65" viewBox="0 0 65 65" fill="none" xmlns="http://www.w3.org/2000/svg">
    <g clip-path="url(#clip0_673_4716)">
    <path d="M64.1934 32.9004C64.1934 50.5804 49.8734 64.9004 32.1934 64.9004C14.5134 64.9004 0.193359 50.5804 0.193359 32.9004C0.193359 15.2204 14.5134 0.900391 32.1934 0.900391C49.8734 0.900391 64.1934 15.2204 64.1934 32.9004Z" fill="url(#paint0_linear_673_4716)"/>
    <path d="M26.3272 47.5671C25.2872 47.5671 25.4739 47.1671 25.1005 46.1804L22.0605 36.1537L40.9405 24.3671L43.1539 24.9537L41.3139 29.9671L26.3272 47.5671Z" fill="#C8DAEA"/>
    <path d="M26.3262 47.567C27.1262 47.567 27.4728 47.1937 27.9262 46.767C28.6195 46.1003 37.5262 37.4337 37.5262 37.4337L32.0595 36.1003L26.9928 39.3003L26.3262 47.3003V47.567Z" fill="#A9C9DD"/>
    <path d="M26.8599 39.4071L39.7665 48.9271C41.2332 49.7271 42.2999 49.3271 42.6732 47.5671L47.9265 22.8204C48.4599 20.6604 47.0999 19.7004 45.6865 20.3404L14.8599 32.2337C12.7532 33.0871 12.7799 34.2604 14.4865 34.7671L22.4065 37.2471L40.7265 25.7004C41.5799 25.1671 42.3799 25.4604 41.7399 26.0471L26.8599 39.4071Z" fill="url(#paint1_linear_673_4716)"/>
    </g>
    <defs>
    <linearGradient id="paint0_linear_673_4716" x1="41.572" y1="11.0151" x2="25.572" y2="48.3479" gradientUnits="userSpaceOnUse">
    <stop stop-color="#37AEE2"/>
    <stop offset="1" stop-color="#1E96C8"/>
    </linearGradient>
    <linearGradient id="paint1_linear_673_4716" x1="34.5908" y1="33.9017" x2="41.2575" y2="44.5684" gradientUnits="userSpaceOnUse">
    <stop stop-color="#EFF7FC"/>
    <stop offset="1" stop-color="white"/>
    </linearGradient>
    <clipPath id="clip0_673_4716">
    <rect width="64" height="64" fill="white" transform="translate(0.193359 0.900391)"/>
    </clipPath>
    </defs>
    </symbol>


    <symbol id="twitter" width="65" height="65" viewBox="0 0 65 65" fill="none" xmlns="http://www.w3.org/2000/svg">
    <g clip-path="url(#clip0_673_4736)">
    <path d="M32.1934 64.9005C49.8665 64.9005 64.1934 50.5736 64.1934 32.9005C64.1934 15.2273 49.8665 0.900452 32.1934 0.900452C14.5202 0.900452 0.193359 15.2273 0.193359 32.9005C0.193359 50.5736 14.5202 64.9005 32.1934 64.9005Z" fill="#2DAAE1"/>
    <path d="M50.2407 21.704C48.9131 22.2931 47.4871 22.6914 45.9879 22.8704C47.518 21.9541 48.6902 20.5022 49.2437 18.7741C47.7902 19.6374 46.1994 20.2452 44.5406 20.571C43.1906 19.132 41.2656 18.2336 39.1358 18.2336C35.0478 18.2336 31.7324 21.5477 31.7324 25.638C31.7324 26.2176 31.7977 26.783 31.9232 27.3259C25.7693 27.0166 20.3135 24.0688 16.6616 19.5896C16.0239 20.6836 15.6589 21.9555 15.6589 23.3125C15.6589 25.8811 16.9663 28.1473 18.9528 29.4748C17.7768 29.4384 16.6267 29.121 15.5984 28.5491V28.6427C15.5984 32.2305 18.1504 35.2222 21.5379 35.9026C20.9156 36.0731 20.2625 36.1622 19.5869 36.1622C19.1093 36.1622 18.6458 36.1169 18.1931 36.0318C19.1353 38.9725 21.8699 41.1131 25.1091 41.1736C22.5749 43.1601 19.3818 44.3442 15.9137 44.3442C15.3164 44.3442 14.726 44.3086 14.1465 44.2387C17.4238 46.3402 21.3151 47.567 25.4967 47.567C39.1156 47.567 46.5639 36.2843 46.5639 26.4998C46.5639 26.1786 46.5568 25.8598 46.5413 25.5421C47.9925 24.4924 49.2452 23.1928 50.2407 21.704Z" fill="white"/>
    </g>
    <defs>
    <clipPath id="clip0_673_4736">
    <rect width="64" height="64" fill="white" transform="translate(0.193359 0.900391)"/>
    </clipPath>
    </defs>
    </symbol>

    <symbol id="medium" width="67" height="67" viewBox="0 0 67 67" fill="none" xmlns="http://www.w3.org/2000/svg">
    <path d="M33.1937 2.2204C15.6971 2.2204 1.51367 16.4038 1.51367 33.9004C1.51367 51.397 15.6971 65.5804 33.1937 65.5804C50.6903 65.5804 64.8737 51.397 64.8737 33.9004C64.8737 16.4038 50.6903 2.2204 33.1937 2.2204ZM47.0537 26.2015H46.6676C46.6676 26.2015 45.5126 26.2015 45.5126 27.3565V40.4443C45.5126 40.4443 45.5126 41.5993 46.6676 41.5993H47.0537V44.6815H37.8137V41.5993H39.3548V27.2773H39.1997L34.4807 44.6815H30.3227L25.6466 27.2773H25.4948V41.5993H27.0326V44.6815H19.3337V41.5993H19.7198C19.7198 41.5993 20.8748 41.5993 20.8748 40.4443V27.3532C20.8748 27.3532 20.8748 26.1982 19.7198 26.1982H19.3337V23.1193H29.5505L33.1343 36.4546H33.2531L36.8666 23.1226H47.0537V26.2015Z" fill="black"/>
    </symbol>


    <symbol id="left-arrow" width="6" height="11" viewBox="0 0 6 11" fill="none" xmlns="http://www.w3.org/2000/svg">
    <path d="M1.19336 9.90039L4.48625 6.6075C4.87678 6.21697 4.87678 5.58381 4.48625 5.19328L1.19336 1.90039" stroke="black" stroke-width="2" stroke-linecap="round"/>
    </symbol>

    <symbol id="faq-user" width="33" height="33" viewBox="0 0 33 33" fill="none" xmlns="http://www.w3.org/2000/svg">
    <path d="M25.1973 7.90039V5.40039" stroke="#6B7688" stroke-width="2.5" stroke-linecap="round" stroke-linejoin="round"/>
    <path d="M25.1979 7.90043L22.8203 7.12793" stroke="#6B7688" stroke-width="2.5" stroke-linecap="round" stroke-linejoin="round"/>
    <path d="M25.198 7.90039L23.7285 9.92289" stroke="#6B7688" stroke-width="2.5" stroke-linecap="round" stroke-linejoin="round"/>
    <path d="M25.1973 7.90039L26.6668 9.92289" stroke="#6B7688" stroke-width="2.5" stroke-linecap="round" stroke-linejoin="round"/>
    <path d="M25.1973 7.90043L27.5749 7.12793" stroke="#6B7688" stroke-width="2.5" stroke-linecap="round" stroke-linejoin="round"/>
    <path d="M23.525 16.1141C22.9265 17.4761 21.9599 18.6442 20.7339 19.4869C19.508 20.3297 18.0712 20.8137 16.5851 20.8846C15.0991 20.9555 13.6228 20.6105 12.3221 19.8883C11.0214 19.1661 9.94803 18.0954 9.22256 16.7965C8.49709 15.4977 8.14833 14.0222 8.2155 12.536C8.28267 11.0498 8.7631 9.61182 9.60277 8.38371C10.4424 7.1556 11.6081 6.18608 12.9686 5.58415C14.3291 4.98222 15.8305 4.77176 17.3041 4.97643M4.07031 27.8992C5.29976 25.7712 7.06758 24.0041 9.19617 22.7756C11.3248 21.5471 13.7392 20.9004 16.1968 20.9004C18.6545 20.9004 21.0689 21.5472 23.1975 22.7758C25.326 24.0043 27.0938 25.7714 28.3232 27.8995L4.07031 27.8992Z" stroke="#6B7688" stroke-width="2.5" stroke-linecap="round" stroke-linejoin="round"/>
    </symbol>


    <symbol id="faq-dollar" width="33" height="33" viewBox="0 0 33 33" fill="none" xmlns="http://www.w3.org/2000/svg">
    <path d="M16.1934 3.90527V6.90527" stroke="#6B7688" stroke-width="2.5" stroke-linecap="round" stroke-linejoin="round"/>
    <path d="M16.1934 26.9053V29.9053" stroke="#6B7688" stroke-width="2.5" stroke-linecap="round" stroke-linejoin="round"/>
    <path d="M23.1934 11.9053C23.1934 11.2487 23.064 10.5985 22.8128 9.99186C22.5615 9.38523 22.1932 8.83403 21.7289 8.36974C21.2646 7.90545 20.7134 7.53715 20.1068 7.28588C19.5001 7.0346 18.85 6.90527 18.1934 6.90527H13.6934C12.3673 6.90527 11.0955 7.43206 10.1578 8.36974C9.22014 9.30742 8.69336 10.5792 8.69336 11.9053C8.69336 13.2314 9.22014 14.5031 10.1578 15.4408C11.0955 16.3785 12.3673 16.9053 13.6934 16.9053H19.1934C20.5194 16.9053 21.7912 17.4321 22.7289 18.3697C23.6666 19.3074 24.1934 20.5792 24.1934 21.9053C24.1934 23.2314 23.6666 24.5031 22.7289 25.4408C21.7912 26.3785 20.5194 26.9053 19.1934 26.9053H13.1934C11.8673 26.9053 10.5955 26.3785 9.65783 25.4408C8.72014 24.5031 8.19336 23.2314 8.19336 21.9053" stroke="#6B7688" stroke-width="2.5" stroke-linecap="round" stroke-linejoin="round"/>
    </symbol>


    <symbol id="faq-gear-six" width="33" height="33" viewBox="0 0 33 33" fill="none" xmlns="http://www.w3.org/2000/svg">
    <path d="M16.1933 22.9003C19.507 22.9003 22.1933 20.2141 22.1933 16.9004C22.1933 13.5867 19.507 10.9004 16.1933 10.9004C12.8796 10.9004 10.1934 13.5867 10.1934 16.9004C10.1934 20.2141 12.8796 22.9003 16.1933 22.9003Z" stroke="#6B7688" stroke-width="2.5" stroke-linecap="round" stroke-linejoin="round"/>
    <path d="M6.72979 12.3465C6.95799 11.8733 7.22142 11.4178 7.51787 10.984V10.984L7.46326 7.74005C7.46078 7.59113 7.49149 7.44353 7.55315 7.30795C7.61481 7.17238 7.70589 7.05223 7.81976 6.95623C8.99065 5.96841 10.3271 5.19556 11.7673 4.67342C11.907 4.6231 12.0562 4.60453 12.204 4.61905C12.3518 4.63357 12.4945 4.68083 12.6217 4.75738L15.4083 6.42937L15.4054 6.42764C15.9294 6.38864 16.4555 6.38905 16.9794 6.42889V6.42889L19.7615 4.75961C19.8892 4.683 20.0324 4.63579 20.1806 4.62141C20.3289 4.60702 20.4785 4.62582 20.6185 4.67644C22.0595 5.19656 23.397 5.96752 24.5693 6.95368C24.6827 7.04953 24.7734 7.16943 24.8347 7.30468C24.896 7.43993 24.9265 7.58714 24.9238 7.73562L24.8691 10.9849L24.8691 10.9815C25.1649 11.4158 25.4276 11.8716 25.6551 12.3452H25.6551L28.4917 13.9199C28.6219 13.9923 28.7344 14.0927 28.821 14.2138C28.9076 14.335 28.9661 14.474 28.9923 14.6206C29.2621 16.1271 29.2634 17.6694 28.9963 19.1763C28.9702 19.3233 28.9117 19.4626 28.8251 19.5841C28.7385 19.7056 28.6258 19.8062 28.4954 19.8787L25.6543 21.4559L25.6572 21.4543C25.4291 21.9275 25.1656 22.383 24.8692 22.8168V22.8168L24.9238 26.0607C24.9263 26.2097 24.8956 26.3573 24.8339 26.4929C24.7722 26.6284 24.6812 26.7486 24.5673 26.8446C23.3964 27.8324 22.0599 28.6052 20.6198 29.1274C20.48 29.1777 20.3309 29.1963 20.1831 29.1818C20.0353 29.1672 19.8926 29.12 19.7653 29.0434L16.9787 27.3714L16.9816 27.3732C16.4577 27.4122 15.9315 27.4118 15.4076 27.3719V27.3719L12.6256 29.0412C12.4978 29.1178 12.3546 29.165 12.2064 29.1794C12.0582 29.1938 11.9086 29.175 11.7685 29.1244C10.3276 28.6043 8.99004 27.8333 7.81776 26.8471C7.70432 26.7513 7.61365 26.6314 7.55234 26.4961C7.49102 26.3609 7.46059 26.2137 7.46326 26.0652L7.51795 22.816L7.5179 22.8193C7.22213 22.3851 6.95942 21.9292 6.73197 21.4556H6.73198L3.8953 19.8809C3.76509 19.8085 3.65262 19.7081 3.56604 19.587C3.47946 19.4658 3.42094 19.3268 3.39474 19.1802C3.12497 17.6737 3.12362 16.1314 3.39075 14.6245C3.41681 14.4775 3.47529 14.3382 3.56194 14.2167C3.64858 14.0952 3.76122 13.9946 3.89166 13.9221L6.73272 12.3449L6.72979 12.3465Z" stroke="#6B7688" stroke-width="2.5" stroke-linecap="round" stroke-linejoin="round"/>
    </symbol>

    <symbol id="faq-buildings" width="33" height="33" viewBox="0 0 33 33" fill="none" xmlns="http://www.w3.org/2000/svg">
    <g clip-path="url(#clip0_673_4910)">
    <path d="M2.19141 27.8982H30.1914" stroke="#6B7688" stroke-width="2.5" stroke-linecap="round" stroke-linejoin="round"/>
    <path d="M28.1914 27.8982V13.8982C28.1914 13.633 28.0861 13.3786 27.8985 13.1911C27.711 13.0036 27.4566 12.8982 27.1914 12.8982H18.1914M18.1914 27.8982V5.89819C18.1914 5.63298 18.0861 5.37862 17.8985 5.19109C17.711 5.00355 17.4566 4.89819 17.1914 4.89819H5.19141C4.92619 4.89819 4.67184 5.00355 4.4843 5.19109C4.29676 5.37862 4.19141 5.63298 4.19141 5.89819V27.8982H18.1914Z" stroke="#6B7688" stroke-width="2.5" stroke-linecap="round" stroke-linejoin="round"/>
    <path d="M8.19141 9.89819H12.1914" stroke="#6B7688" stroke-width="2.5" stroke-linecap="round" stroke-linejoin="round"/>
    <path d="M10.1914 17.8982H14.1914" stroke="#6B7688" stroke-width="2.5" stroke-linecap="round" stroke-linejoin="round"/>
    <path d="M8.19141 22.8982H12.1914" stroke="#6B7688" stroke-width="2.5" stroke-linecap="round" stroke-linejoin="round"/>
    <path d="M22.1914 22.8982H24.1914" stroke="#6B7688" stroke-width="2.5" stroke-linecap="round" stroke-linejoin="round"/>
    <path d="M22.1914 17.8982H24.1914" stroke="#6B7688" stroke-width="2.5" stroke-linecap="round" stroke-linejoin="round"/>
    </g>
    <defs>
    <clipPath id="clip0_673_4910">
    <rect width="32" height="32" fill="white" transform="translate(0.191406 0.900391)"/>
    </clipPath>
    </defs>
    </symbol>

    <symbol id="faq-house" width="33" height="33" viewBox="0 0 33 33" fill="none" xmlns="http://www.w3.org/2000/svg">
    <g clip-path="url(#clip0_673_5088)">
    <path d="M27.1895 27.9005V15.3429C27.1895 15.2035 27.1603 15.0657 27.104 14.9383C27.0476 14.8109 26.9652 14.6967 26.8621 14.6029L16.8615 5.51105C16.6774 5.3437 16.4375 5.25097 16.1887 5.25098C15.9399 5.25098 15.7001 5.34373 15.516 5.51109L5.51672 14.6029C5.41364 14.6967 5.33128 14.8109 5.27492 14.9383C5.21856 15.0657 5.18945 15.2035 5.18945 15.3428V27.9005" stroke="#257CFF" stroke-width="2.5" stroke-linecap="round" stroke-linejoin="round"/>
    <path d="M2.18945 27.9004H30.1895" stroke="#257CFF" stroke-width="2.5" stroke-linecap="round" stroke-linejoin="round"/>
    <path d="M19.1875 27.8994V20.8994C19.1875 20.6342 19.0821 20.3798 18.8946 20.1923C18.7071 20.0048 18.4527 19.8994 18.1875 19.8994H14.1875C13.9223 19.8994 13.6679 20.0048 13.4804 20.1923C13.2929 20.3798 13.1875 20.6342 13.1875 20.8994V27.8994" stroke="#257CFF" stroke-width="2.5" stroke-linecap="round" stroke-linejoin="round"/>
    </g>
    <defs>
    <clipPath id="clip0_673_5088">
    <rect width="32" height="32" fill="white" transform="translate(0.191406 0.900391)"/>
    </clipPath>
    </defs>
    </symbol>

    <symbol id="faq-coin" width="33" height="33" viewBox="0 0 33 33" fill="none" xmlns="http://www.w3.org/2000/svg">
    <path d="M16.1914 19.8984C23.3711 19.8984 29.1914 17.2121 29.1914 13.8984C29.1914 10.5847 23.3711 7.89844 16.1914 7.89844C9.0117 7.89844 3.19141 10.5847 3.19141 13.8984C3.19141 17.2121 9.0117 19.8984 16.1914 19.8984Z" stroke="#6B7688" stroke-width="2.5" stroke-linecap="round" stroke-linejoin="round"/>
    <path d="M16.1914 19.8984V25.8984" stroke="#6B7688" stroke-width="2.5" stroke-linecap="round" stroke-linejoin="round"/>
    <path d="M3.19141 13.8984V19.8984C3.19141 22.8984 8.19141 25.8984 16.1914 25.8984C24.1914 25.8984 29.1914 22.8984 29.1914 19.8984V13.8984" stroke="#6B7688" stroke-width="2.5" stroke-linecap="round" stroke-linejoin="round"/>
    <path d="M24.1914 18.6619V24.6619" stroke="#6B7688" stroke-width="2.5" stroke-linecap="round" stroke-linejoin="round"/>
    <path d="M8.19141 18.6619V24.6619" stroke="#6B7688" stroke-width="2.5" stroke-linecap="round" stroke-linejoin="round"/>
    </symbol>


    <symbol id="footer-telegram" width="33" height="33" viewBox="0 0 33 33" fill="none" xmlns="http://www.w3.org/2000/svg">
    <path d="M21.6818 13.2883C22.4178 12.5523 23.1485 10.8349 20.0818 12.9203C15.7245 15.9269 11.4298 18.7496 11.4298 18.7496C10.9878 18.9495 10.5098 19.058 10.0248 19.0685C9.53971 19.0791 9.05752 18.9914 8.60717 18.8109C6.76717 18.2589 4.61917 17.5229 4.61917 17.5229C4.61917 17.5229 3.1525 16.6016 5.66317 15.6203C5.66317 15.6203 16.2778 11.2643 19.9592 9.7296C21.3698 9.11627 26.1552 7.1536 26.1552 7.1536C26.1552 7.1536 28.3645 6.2936 28.1805 8.38027C28.1192 9.23894 27.6285 12.2469 27.1378 15.4976C26.4005 20.0989 25.6032 25.1309 25.6032 25.1309C25.6032 25.1309 25.4805 26.5416 24.4378 26.7869C23.3217 26.768 22.2433 26.3798 21.3712 25.6829C21.1258 25.4989 16.7698 22.7376 15.1738 21.3883C15.0115 21.2783 14.8796 21.129 14.7904 20.9544C14.7012 20.7797 14.6577 20.5854 14.6638 20.3894C14.6699 20.1934 14.7255 20.0021 14.8254 19.8334C14.9253 19.6646 15.0663 19.5239 15.2352 19.4243C17.4485 17.4003 20.0872 14.8843 21.6818 13.2883Z" fill="#6B7688"/>
    </symbol>


    <symbol id="footer-twitter" width="25" height="25" viewBox="0 0 25 25" fill="none" xmlns="http://www.w3.org/2000/svg">
    <g clip-path="url(#clip0_673_5189)">
    <path d="M24.1973 6.20894C23.2945 6.60269 22.3397 6.86437 21.3623 6.98594C22.3923 6.37488 23.1624 5.40728 23.5268 4.26644C22.5623 4.83844 21.5071 5.24125 20.4068 5.45744C19.7321 4.7371 18.8565 4.23631 17.8935 4.02013C16.9305 3.80394 15.9248 3.88235 15.007 4.24517C14.0892 4.60799 13.3017 5.23845 12.7469 6.05464C12.1921 6.87083 11.8955 7.83502 11.8958 8.82194C11.8958 9.21194 11.9288 9.58694 12.0098 9.94394C10.0524 9.84797 8.1373 9.33996 6.38972 8.45311C4.64213 7.56627 3.10141 6.32056 1.86827 4.79744C1.23649 5.88022 1.04118 7.1631 1.32209 8.38484C1.603 9.60658 2.33902 10.6753 3.38027 11.3734C2.6014 11.3525 1.83898 11.1447 1.15727 10.7674V10.8214C1.15857 11.9576 1.55126 13.0586 2.26924 13.9391C2.98722 14.8197 3.98664 15.4259 5.09927 15.6559C4.67835 15.7669 4.24454 15.8213 3.80927 15.8179C3.49665 15.8235 3.18434 15.7953 2.87777 15.7339C3.19568 16.7105 3.8085 17.5644 4.63186 18.1783C5.45521 18.7921 6.44861 19.1356 7.47527 19.1614C5.73367 20.5235 3.58573 21.2624 1.37477 21.2599C0.971266 21.2599 0.584266 21.2419 0.197266 21.1924C2.44709 22.6422 5.06878 23.4092 7.74527 23.4004C16.7993 23.4004 21.7493 15.9004 21.7493 9.39944C21.7493 9.18194 21.7418 8.97194 21.7313 8.76344C22.7017 8.06892 23.5374 7.20326 24.1973 6.20894Z" fill="#03A9F4"/>
    </g>
    <defs>
    <clipPath id="clip0_673_5189">
    <rect width="24" height="24" fill="white" transform="translate(0.197266 0.900391)"/>
    </clipPath>
    </defs>
    </symbol>

    <symbol id="footer-medium" width="25" height="25" viewBox="0 0 25 25" fill="none" xmlns="http://www.w3.org/2000/svg">
    <path d="M21.4063 7.31702H22.1973V4.98364H14.717L12.2312 14.1503H12.1632L9.69996 4.98364H2.19727V7.31696H2.96564C3.14326 7.34587 3.30807 7.42762 3.43857 7.55154C3.56907 7.67547 3.65922 7.83582 3.69727 8.01172V17.842C3.65686 18.0116 3.56475 18.1645 3.43368 18.2794C3.30261 18.3944 3.13905 18.4657 2.96564 18.4836H2.19727V20.817H8.19727V18.4836H6.69727V8.15033H6.78479L10.2424 20.817H12.9544L16.4572 8.15033H16.5307V18.4836H15.0306V20.817H22.1973V18.4836H21.4063C21.2369 18.4616 21.0782 18.3883 20.9515 18.2737C20.8248 18.159 20.7361 18.0084 20.6973 17.842V8.01178C20.734 7.83907 20.8209 7.68104 20.947 7.55746C21.0731 7.43388 21.2329 7.35025 21.4063 7.31702Z" fill="#6B7688"/>
    </symbol>


    <symbol id="footer-discord" width="25" height="25" viewBox="0 0 25 25" fill="none" xmlns="http://www.w3.org/2000/svg">
    <g clip-path="url(#clip0_673_5197)">
    <path d="M20.7834 6.79494C17.9895 4.70454 15.313 4.7631 15.313 4.7631L15.0394 5.07558C18.3608 6.07206 19.9042 7.53726 19.9042 7.53726C15.1525 4.92102 9.09968 4.93974 4.15712 7.53726C4.15712 7.53726 5.75912 5.99382 9.27584 4.99734L9.08047 4.76286C9.08047 4.76286 6.42344 4.7043 3.61016 6.7947C3.61016 6.7947 0.796875 11.8549 0.796875 18.0872C0.796875 18.0872 2.438 20.9005 6.75584 21.0373C6.75584 21.0373 7.47872 20.1776 8.0648 19.4353C5.58344 18.6929 4.64576 17.1495 4.64576 17.1495C6.20456 18.1249 7.78088 18.7354 9.74504 19.1228C12.9409 19.7806 16.916 19.1043 19.8848 17.1495C19.8848 17.1495 18.908 18.7321 16.3486 19.4549C16.9347 20.1778 17.6382 21.0178 17.6382 21.0178C21.9555 20.8813 23.5966 18.068 23.5966 18.0874C23.5966 11.8551 20.7834 6.79494 20.7834 6.79494ZM8.55296 16.2706C7.4588 16.2706 6.56024 15.3133 6.56024 14.1214C6.64016 11.2673 10.4859 11.2762 10.5459 14.1214C10.5457 15.3133 9.66656 16.2706 8.55296 16.2706ZM15.6841 16.2706C14.5899 16.2706 13.6914 15.3133 13.6914 14.1214C13.7792 11.2729 17.577 11.2717 17.677 14.1214C17.6768 15.3133 16.7977 16.2706 15.6841 16.2706Z" fill="#6B7688"/>
    </g>
    <defs>
    <clipPath id="clip0_673_5197">
    <rect width="24" height="24" fill="white" transform="translate(0.197266 0.900391)"/>
    </clipPath>
    </defs>
    </symbol>

    <symbol id="footer-reddit" width="25" height="25" viewBox="0 0 25 25" fill="none" xmlns="http://www.w3.org/2000/svg">
    <g clip-path="url(#clip0_673_5201)">
    <path d="M9.19727 15.1504L8.44727 15.1489V15.1504H9.19727Z" fill="#6B7688"/>
    <path d="M15.9473 15.1504H16.6973L15.9473 15.1489V15.1504Z" fill="#6B7688"/>
    <path d="M24.3023 12.9005C24.3023 11.246 22.9568 9.90046 21.3023 9.90046C20.6408 9.90046 20.0123 10.1165 19.4993 10.508C17.8253 9.34546 15.6323 8.65246 13.2998 8.47696L14.5583 5.52496L18.2198 6.37996C18.3368 7.51246 19.2848 8.40046 20.4473 8.40046C21.6878 8.40046 22.6973 7.39096 22.6973 6.15046C22.6973 4.90996 21.6878 3.90046 20.4473 3.90046C19.6613 3.90046 18.9698 4.30696 18.5678 4.92046L14.2883 3.91996C14.1161 3.87933 13.9351 3.90085 13.7773 3.98072C13.6195 4.06059 13.495 4.19368 13.4258 4.35646L11.6858 8.43646C9.16727 8.52346 6.76727 9.23296 4.95527 10.469C4.5071 10.1462 3.97859 9.95325 3.42787 9.91139C2.87714 9.86953 2.32554 9.98036 1.83373 10.2317C1.34192 10.483 0.928949 10.8651 0.640234 11.336C0.351519 11.8068 0.198246 12.3482 0.197273 12.9005C0.196121 13.429 0.336062 13.9484 0.602649 14.4048C0.869236 14.8612 1.25281 15.2383 1.71377 15.497C1.70219 15.6311 1.69669 15.7658 1.69727 15.9005C1.69727 20.036 6.40727 23.4005 12.1973 23.4005C17.9858 23.4005 22.6973 20.036 22.6973 15.9005C22.6973 15.7835 22.6928 15.668 22.6853 15.5525C23.1733 15.3027 23.5827 14.9228 23.8681 14.4547C24.1535 13.9866 24.3038 13.4487 24.3023 12.9005ZM20.4473 5.40046C20.6466 5.40086 20.8376 5.48042 20.9782 5.62163C21.1189 5.76285 21.1977 5.95415 21.1973 6.15346C21.1969 6.35277 21.1173 6.54376 20.9761 6.68441C20.8349 6.82506 20.6436 6.90386 20.4443 6.90346C20.3456 6.90326 20.2479 6.88363 20.1568 6.84568C20.0657 6.80773 19.983 6.75221 19.9133 6.68229C19.8437 6.61237 19.7885 6.52941 19.7509 6.43816C19.7133 6.34691 19.6941 6.24915 19.6943 6.15046C19.6945 6.05177 19.7141 5.95409 19.7521 5.86299C19.79 5.77189 19.8455 5.68915 19.9154 5.61951C19.9854 5.54986 20.0683 5.49468 20.1596 5.45709C20.2508 5.41951 20.3486 5.40026 20.4473 5.40046ZM6.94727 15.1505C6.94727 14.324 7.62077 13.6505 8.44727 13.6505C9.27377 13.6505 9.94727 14.324 9.94727 15.1505C9.93 15.5367 9.76441 15.9014 9.485 16.1685C9.20559 16.4357 8.83388 16.5849 8.44727 16.5849C8.06067 16.5849 7.68896 16.4357 7.40955 16.1685C7.13013 15.9014 6.96455 15.5367 6.94727 15.1505ZM15.6608 20.126C14.6534 20.8557 13.4412 21.2486 12.1973 21.2486C10.9533 21.2486 9.74118 20.8557 8.73377 20.126C8.65153 20.0692 8.58145 19.9966 8.52766 19.9125C8.47386 19.8283 8.43742 19.7342 8.42048 19.6357C8.40355 19.5373 8.40646 19.4364 8.42904 19.3391C8.45162 19.2418 8.49342 19.1499 8.55198 19.069C8.61054 18.988 8.68468 18.9196 8.77006 18.8677C8.85543 18.8158 8.95031 18.7815 9.04913 18.7668C9.14795 18.7521 9.24871 18.7572 9.3455 18.782C9.44229 18.8067 9.53316 18.8506 9.61277 18.911C10.3641 19.4564 11.2688 19.7501 12.1973 19.7501C13.1257 19.7501 14.0304 19.4564 14.7818 18.911C14.8614 18.8506 14.9523 18.8067 15.049 18.782C15.1458 18.7572 15.2466 18.7521 15.3454 18.7668C15.4442 18.7815 15.5391 18.8158 15.6245 18.8677C15.7099 18.9196 15.784 18.988 15.8426 19.069C15.9011 19.1499 15.9429 19.2418 15.9655 19.3391C15.9881 19.4364 15.991 19.5373 15.9741 19.6357C15.9571 19.7342 15.9207 19.8283 15.8669 19.9125C15.8131 19.9966 15.743 20.0692 15.6608 20.126ZM15.9473 16.6505C15.5494 16.6505 15.1679 16.4924 14.8866 16.2111C14.6053 15.9298 14.4473 15.5483 14.4473 15.1505C14.4473 14.7526 14.6053 14.3711 14.8866 14.0898C15.1679 13.8085 15.5494 13.6505 15.9473 13.6505C16.3451 13.6505 16.7266 13.8085 17.0079 14.0898C17.2892 14.3711 17.4473 14.7526 17.4473 15.1505C17.4473 15.5483 17.2892 15.9298 17.0079 16.2111C16.7266 16.4924 16.3451 16.6505 15.9473 16.6505Z" fill="#6B7688"/>
    </g>
    <defs>
    <clipPath id="clip0_673_5201">
    <rect width="24" height="24" fill="white" transform="translate(0.197266 0.900391)"/>
    </clipPath>
    </defs>
    </symbol>


    <symbol id="footer-linkedin" width="23" height="23" viewBox="0 0 23 23" fill="none" xmlns="http://www.w3.org/2000/svg">
    <g clip-path="url(#clip0_673_5207)">
    <path d="M20.1391 1.58789H2.25547C1.49922 1.58789 0.884766 2.20234 0.884766 2.95859V20.8379C0.884766 21.5941 1.49922 22.2086 2.25547 22.2086H20.1348C20.891 22.2086 21.5055 21.5941 21.5055 20.8379V2.95859C21.5098 2.20234 20.8953 1.58789 20.1391 1.58789ZM7.5793 19.2309H4.35664V10.1172H7.575V19.2309H7.5793ZM5.96797 7.67227C5.07852 7.67227 4.35664 6.95039 4.35664 6.06094C4.35664 5.17148 5.07852 4.44961 5.96797 4.44961C6.85742 4.44961 7.5793 5.17148 7.5793 6.06094C7.5793 6.95039 6.85742 7.67227 5.96797 7.67227ZM18.7297 19.3469H15.5113V15.5656C15.5113 14.9125 14.9828 14.3883 14.334 14.3883C13.6852 14.3883 13.1566 14.9168 13.1566 15.5656V19.2309H9.93828V10.1172H13.1566V11.9262C13.4961 11.7672 13.8441 11.634 14.2051 11.5395C14.8711 11.359 15.5629 11.316 16.2418 11.4191C16.6973 11.4879 17.1785 11.6039 17.5781 11.8359C18.2914 12.2527 18.7297 13.0863 18.7297 13.907C18.7297 13.9027 18.7297 19.3469 18.7297 19.3469Z" fill="#6B7688"/>
    </g>
    <defs>
    <clipPath id="clip0_673_5207">
    <rect width="22" height="22" fill="white" transform="translate(0.197266 0.900391)"/>
    </clipPath>
    </defs>
    </symbol>


    <symbol id="footer-facebook" width="25" height="25" viewBox="0 0 25 25" fill="none" xmlns="http://www.w3.org/2000/svg">
    <path d="M15.3166 6.22042H17.1966V3.04042C16.2864 2.94577 15.3718 2.89904 14.4566 2.90042C11.7366 2.90042 9.87664 4.56042 9.87664 7.60042V10.2204H6.80664V13.7804H9.87664V22.9004H13.5566V13.7804H16.6166L17.0766 10.2204H13.5566V7.95042C13.5566 6.90042 13.8366 6.22042 15.3166 6.22042Z" fill="#6B7688"/>
    </symbol>


    <symbol id="footer-inst" width="21" height="21" viewBox="0 0 21 21" fill="none" xmlns="http://www.w3.org/2000/svg">
    <g clip-path="url(#clip0_673_5215)">
    <path d="M6.86447 10.9004C6.86447 9.05952 8.35639 7.56679 10.1973 7.56679C12.0381 7.56679 13.5309 9.05952 13.5309 10.9004C13.5309 12.7413 12.0381 14.234 10.1973 14.234C8.35639 14.234 6.86447 12.7413 6.86447 10.9004ZM5.06237 10.9004C5.06237 13.7364 7.36124 16.0353 10.1973 16.0353C13.0333 16.0353 15.3322 13.7364 15.3322 10.9004C15.3322 8.06436 13.0333 5.7655 10.1973 5.7655C7.36124 5.7655 5.06237 8.06436 5.06237 10.9004ZM14.3354 5.56194C14.3354 6.2243 14.8725 6.76226 15.5357 6.76226C16.1981 6.76226 16.736 6.2243 16.736 5.56194C16.736 4.89958 16.1989 4.36243 15.5357 4.36243C14.8725 4.36243 14.3354 4.89958 14.3354 5.56194ZM6.15688 19.0401C5.18192 18.9957 4.65203 18.8333 4.29985 18.696C3.83297 18.5143 3.50017 18.2978 3.14961 17.948C2.79985 17.5983 2.58256 17.2655 2.40163 16.7986C2.26431 16.4464 2.10195 15.9165 2.05752 14.9416C2.00906 13.8875 1.99937 13.5708 1.99937 10.9004C1.99937 8.22995 2.00987 7.91412 2.05752 6.8592C2.10195 5.88424 2.26512 5.35516 2.40163 5.00217C2.58337 4.53529 2.79985 4.20249 3.14961 3.85193C3.49937 3.50217 3.83216 3.28488 4.29985 3.10394C4.65203 2.96663 5.18192 2.80427 6.15688 2.75984C7.211 2.71138 7.52764 2.70168 10.1973 2.70168C12.8677 2.70168 13.1835 2.71218 14.2385 2.75984C15.2134 2.80427 15.7425 2.96743 16.0955 3.10394C16.5624 3.28488 16.8952 3.50217 17.2457 3.85193C17.5955 4.20168 17.812 4.53529 17.9937 5.00217C18.131 5.35435 18.2934 5.88424 18.3378 6.8592C18.3863 7.91412 18.396 8.22995 18.396 10.9004C18.396 13.57 18.3863 13.8867 18.3378 14.9416C18.2934 15.9165 18.1302 16.4464 17.9937 16.7986C17.812 17.2655 17.5955 17.5983 17.2457 17.948C16.896 18.2978 16.5624 18.5143 16.0955 18.696C15.7433 18.8333 15.2134 18.9957 14.2385 19.0401C13.1843 19.0886 12.8677 19.0983 10.1973 19.0983C7.52764 19.0983 7.211 19.0886 6.15688 19.0401ZM6.07449 0.960972C5.00987 1.00944 4.28289 1.17826 3.64718 1.42543C2.98967 1.68068 2.43232 2.02317 1.87578 2.5789C1.32004 3.13464 0.977556 3.69199 0.722306 4.35031C0.475133 4.98601 0.306312 5.71299 0.257847 6.77761C0.208574 7.84385 0.197266 8.18472 0.197266 10.9004C0.197266 13.6161 0.208574 13.9569 0.257847 15.0232C0.306312 16.0878 0.475133 16.8148 0.722306 17.4505C0.977556 18.108 1.31924 18.6661 1.87578 19.2219C2.43151 19.7776 2.98886 20.1193 3.64718 20.3753C4.2837 20.6225 5.00987 20.7913 6.07449 20.8398C7.14153 20.8883 7.4816 20.9004 10.1973 20.9004C12.9137 20.9004 13.2538 20.8891 14.32 20.8398C15.3847 20.7913 16.1116 20.6225 16.7473 20.3753C17.4049 20.1193 17.9622 19.7776 18.5188 19.2219C19.0745 18.6661 19.4162 18.108 19.6722 17.4505C19.9194 16.8148 20.089 16.0878 20.1367 15.0232C20.1851 13.9561 20.1965 13.6161 20.1965 10.9004C20.1965 8.18472 20.1851 7.84385 20.1367 6.77761C20.0882 5.71299 19.9194 4.98601 19.6722 4.35031C19.4162 3.6928 19.0745 3.13545 18.5188 2.5789C17.963 2.02317 17.4049 1.68068 16.7482 1.42543C16.1116 1.17826 15.3847 1.00863 14.3209 0.960972C13.2546 0.912507 12.9137 0.900391 10.1981 0.900391C7.4816 0.900391 7.14153 0.911699 6.07449 0.960972Z" fill="#6B7688"/>
    </g>
    <defs>
    <clipPath id="clip0_673_5215">
    <rect width="20" height="20" fill="white" transform="translate(0.197266 0.900391)"/>
    </clipPath>
    </defs>
    </symbol>


    <symbol id="footer-youtube" width="25" height="25" viewBox="0 0 25 25" fill="none" xmlns="http://www.w3.org/2000/svg">
    <g clip-path="url(#clip0_673_5219)">
    <path fill-rule="evenodd" clip-rule="evenodd" d="M23.1773 6.99039C22.5263 5.83239 21.8198 5.61939 20.3813 5.53839C18.9443 5.44089 15.3308 5.40039 12.2003 5.40039C9.06377 5.40039 5.44877 5.44089 4.01327 5.53689C2.57777 5.61939 1.86977 5.83089 1.21277 6.99039C0.542266 8.14689 0.197266 10.1389 0.197266 13.6459V13.6579C0.197266 17.1499 0.542266 19.1569 1.21277 20.3014C1.86977 21.4594 2.57627 21.6694 4.01177 21.7669C5.44877 21.8509 9.06377 21.9004 12.2003 21.9004C15.3308 21.9004 18.9443 21.8509 20.3828 21.7684C21.8213 21.6709 22.5278 21.4609 23.1788 20.3029C23.8553 19.1584 24.1973 17.1514 24.1973 13.6594V13.6519V13.6474C24.1973 10.1389 23.8553 8.14689 23.1773 6.99039ZM9.19727 18.1504V9.15039L16.6973 13.6504L9.19727 18.1504Z" fill="#6B7688"/>
    </g>
    <defs>
    <clipPath id="clip0_673_5219">
    <rect width="24" height="24" fill="white" transform="translate(0.197266 0.900391)"/>
    </clipPath>
    </defs>
    </symbol>



</svg>