<svg width="17" height="15" viewBox="0 0 17 15" fill="none" xmlns="http://www.w3.org/2000/svg">
<path d="M16.1953 13.2109V4.69093C16.1953 4.03493 15.7953 3.45093 15.1873 3.20293L8.78731 0.642931C8.40331 0.490931 7.97931 0.490931 7.59531 0.642931L1.19531 3.20293C0.595313 3.45093 0.195312 4.04293 0.195312 4.69093V13.2109C0.195312 14.0909 0.915312 14.8109 1.79531 14.8109H4.19531V7.61093H12.1953V14.8109H14.5953C15.4753 14.8109 16.1953 14.0909 16.1953 13.2109ZM7.39531 13.2109H5.79531V14.8109H7.39531V13.2109ZM8.99531 10.8109H7.39531V12.4109H8.99531V10.8109ZM10.5953 13.2109H8.99531V14.8109H10.5953V13.2109Z" fill="#171719"/>
</svg>
