<svg width="10" height="12" viewBox="0 0 10 12" fill="none" xmlns="http://www.w3.org/2000/svg">
<path d="M5.19401 0.159027C2.74401 0.159027 0.527344 2.03736 0.527344 4.94236C0.527344 6.79736 1.95651 8.97903 4.80901 11.4932C5.03068 11.6857 5.36318 11.6857 5.58484 11.4932C8.43151 8.97903 9.86068 6.79736 9.86068 4.94236C9.86068 2.03736 7.64401 0.159027 5.19401 0.159027ZM5.19401 5.99236C4.55234 5.99236 4.02734 5.46736 4.02734 4.82569C4.02734 4.18403 4.55234 3.65903 5.19401 3.65903C5.83568 3.65903 6.36068 4.18403 6.36068 4.82569C6.36068 5.46736 5.83568 5.99236 5.19401 5.99236Z" fill="#6B7688"/>
</svg>
