<svg width="150" height="49" viewBox="0 0 150 49" fill="none" xmlns="http://www.w3.org/2000/svg">
<g clip-path="url(#clip0_673_2827)">
<path d="M80.0935 41.1929C79.9486 41.1929 79.8097 41.1351 79.7072 41.0322C79.6048 40.9294 79.5472 40.7899 79.5472 40.6444V25.6377C79.5445 25.5612 79.5573 25.485 79.5849 25.4137C79.6125 25.3424 79.6543 25.2775 79.7078 25.223C79.7584 25.1708 79.8191 25.1296 79.8862 25.1018C79.9533 25.0741 80.0253 25.0605 80.0978 25.0618H90.195C90.2714 25.0578 90.3477 25.07 90.419 25.0976C90.4904 25.1251 90.5552 25.1674 90.6093 25.2217C90.6633 25.276 90.7054 25.341 90.7329 25.4127C90.7603 25.4844 90.7725 25.561 90.7685 25.6377V27.1592C90.7698 27.232 90.7563 27.3043 90.7286 27.3717C90.701 27.4391 90.6599 27.5 90.6079 27.5508C90.5537 27.6045 90.4891 27.6465 90.4181 27.6742C90.3471 27.702 90.2711 27.7149 90.195 27.7121H82.6453V31.7907H89.6903C89.8422 31.7848 89.9904 31.8387 90.1033 31.9409C90.157 31.9927 90.199 32.0554 90.2267 32.1249C90.2544 32.1943 90.2671 32.2688 90.2638 32.3435V33.7696C90.2671 33.8443 90.2544 33.9189 90.2267 33.9883C90.199 34.0577 90.157 34.1204 90.1033 34.1722C89.9904 34.2744 89.8422 34.3283 89.6903 34.3225H82.6453V38.5415H90.3785C90.4549 38.5375 90.5312 38.5497 90.6026 38.5773C90.6739 38.6048 90.7387 38.6471 90.7928 38.7014C90.8469 38.7557 90.889 38.8208 90.9164 38.8924C90.9438 38.9641 90.956 39.0407 90.9521 39.1174V40.6378C90.9536 40.7107 90.9401 40.7831 90.9124 40.8504C90.8848 40.9178 90.8436 40.9788 90.7915 41.0294C90.7374 41.0835 90.6729 41.1258 90.6018 41.1537C90.5308 41.1817 90.4548 41.1946 90.3785 41.1918L80.0935 41.1929Z" fill="white"/>
<path d="M98.0664 41.4234C97.2704 41.4404 96.4767 41.3315 95.7144 41.1009C95.1408 40.9251 94.6013 40.6521 94.1195 40.2935C93.7591 40.0276 93.4482 39.7001 93.2007 39.326C93.0019 39.0035 92.8949 38.7347 92.8796 38.5197C92.8689 38.4452 92.877 38.3692 92.9031 38.2987C92.9293 38.2282 92.9726 38.1654 93.0292 38.116C93.1324 38.0209 93.2671 37.9677 93.4072 37.9668H95.2206C95.275 37.9658 95.3292 37.9736 95.3812 37.9899C95.4513 38.0227 95.5138 38.0697 95.5647 38.1281C95.7635 38.297 95.974 38.4736 96.1961 38.6579C96.4354 38.8532 96.7018 39.0121 96.9871 39.1296C97.3528 39.2716 97.7432 39.3384 98.1352 39.326C98.7316 39.326 99.2327 39.2068 99.6384 38.9684C99.825 38.8719 99.9809 38.7246 100.088 38.5435C100.196 38.3624 100.25 38.1546 100.246 37.9438C100.259 37.6585 100.165 37.3787 99.9825 37.1595C99.8069 36.9613 99.4818 36.781 99.0069 36.6186C98.3439 36.4078 97.6695 36.2346 96.9871 36.0998C96.2457 35.9418 95.5283 35.6862 94.8536 35.3396C94.3367 35.0777 93.9006 34.6795 93.5918 34.1877C93.3002 33.6764 93.1574 33.0932 93.1796 32.5044C93.2018 31.9157 93.3882 31.345 93.7174 30.8573C94.0765 30.3117 94.6118 29.8623 95.3233 29.5091C96.0348 29.1559 96.9186 28.9793 97.9746 28.9793C98.7055 28.9652 99.4337 29.0705 100.131 29.2908C100.678 29.4631 101.195 29.7224 101.66 30.0587C102.018 30.3173 102.332 30.6321 102.59 30.9911C102.804 31.3063 102.919 31.5791 102.934 31.8095C102.945 31.8829 102.938 31.9579 102.914 32.0282C102.89 32.0985 102.85 32.1619 102.797 32.2132C102.698 32.3093 102.567 32.3628 102.429 32.3624H100.731C100.659 32.3635 100.589 32.3477 100.524 32.3163C100.46 32.2853 100.399 32.2485 100.341 32.2066C100.173 32.053 99.9905 31.8918 99.7946 31.7228C99.5749 31.5407 99.3316 31.3894 99.0714 31.2731C98.7186 31.1296 98.3396 31.063 97.9593 31.0778C97.3767 31.0778 96.9328 31.2043 96.6276 31.4573C96.4826 31.5702 96.3656 31.7153 96.286 31.8814C96.2064 32.0474 96.1663 32.2297 96.1688 32.4139C96.164 32.6588 96.2409 32.8982 96.3873 33.094C96.533 33.2864 96.8276 33.4667 97.2711 33.6349C97.9297 33.8627 98.6046 34.0402 99.2899 34.1658C100.315 34.3501 101.129 34.6225 101.734 34.983C102.338 35.3436 102.767 35.7586 103.019 36.2281C103.274 36.7063 103.404 37.2414 103.397 37.7836C103.403 38.4552 103.19 39.1103 102.79 39.6485C102.384 40.2014 101.787 40.6354 100.999 40.9506C100.212 41.2658 99.2345 41.4234 98.0664 41.4234Z" fill="white"/>
<path d="M111.1 41.1926C110.183 41.1926 109.41 41.031 108.783 40.7078C108.169 40.3993 107.675 39.8919 107.383 39.2674C107.077 38.6312 106.924 37.8362 106.924 36.8826V31.6522H105.111C104.966 31.6522 104.827 31.5944 104.724 31.4915C104.622 31.3887 104.564 31.2492 104.564 31.1037V29.7654C104.564 29.6199 104.622 29.4804 104.724 29.3775C104.827 29.2747 104.966 29.2169 105.111 29.2169H106.923V25.384C106.919 25.2387 106.973 25.0979 107.073 24.9924C107.124 24.9382 107.186 24.8958 107.256 24.868C107.325 24.8402 107.399 24.8276 107.474 24.8311H109.331C109.476 24.8311 109.614 24.8889 109.717 24.9918C109.819 25.0947 109.877 25.2342 109.877 25.3796V29.2048H112.758C112.902 29.2048 113.041 29.2626 113.144 29.3655C113.246 29.4683 113.304 29.6078 113.304 29.7533V31.0905C113.304 31.236 113.246 31.3755 113.144 31.4784C113.041 31.5812 112.902 31.639 112.758 31.639H109.885V36.6391C109.885 37.2702 109.994 37.762 110.212 38.1145C110.431 38.467 110.817 38.6436 111.37 38.6443H112.954C113.099 38.6443 113.238 38.7021 113.34 38.805C113.443 38.9079 113.5 39.0474 113.5 39.1928V40.6189C113.5 40.7644 113.443 40.9039 113.34 41.0068C113.238 41.1096 113.099 41.1674 112.954 41.1674L111.1 41.1926Z" fill="white"/>
<path d="M119.016 41.4231C118.271 41.4339 117.533 41.2721 116.86 40.9503C116.251 40.6655 115.724 40.2294 115.33 39.6832C114.861 39.0051 114.674 38.1691 114.812 37.3547C114.949 36.5402 115.399 35.8123 116.064 35.3271C116.929 34.6894 118.072 34.2634 119.495 34.0491L122.638 33.5873V33.1035C122.638 32.4585 122.478 31.9594 122.157 31.6062C121.836 31.2529 121.288 31.0781 120.513 31.0818C119.962 31.0818 119.515 31.1915 119.171 31.4109C118.836 31.6262 118.57 31.9344 118.406 32.2984C118.354 32.3919 118.277 32.4693 118.184 32.5221C118.091 32.5749 117.986 32.6011 117.879 32.5978H116.065C115.996 32.6032 115.927 32.5937 115.862 32.5698C115.796 32.546 115.737 32.5084 115.687 32.4596C115.6 32.3577 115.554 32.2257 115.561 32.091C115.599 31.7744 115.7 31.4687 115.859 31.1926C116.079 30.7957 116.377 30.447 116.733 30.1669C117.194 29.801 117.715 29.5165 118.271 29.3255C118.898 29.0952 119.655 28.98 120.542 28.98C121.506 28.98 122.321 29.0992 122.987 29.3376C123.583 29.5338 124.127 29.8605 124.582 30.2942C124.977 30.6884 125.277 31.1694 125.456 31.6994C125.641 32.2483 125.734 32.8245 125.731 33.4041V40.6442C125.731 40.7897 125.674 40.9292 125.571 41.032C125.469 41.1349 125.33 41.1927 125.185 41.1927H123.328C123.253 41.1963 123.179 41.1837 123.11 41.1556C123.04 41.1276 122.978 41.0849 122.927 41.0303C122.827 40.9249 122.773 40.784 122.777 40.6387V39.7403C122.556 40.0553 122.285 40.3318 121.974 40.5586C121.601 40.8308 121.186 41.0409 120.746 41.1806C120.186 41.3548 119.602 41.4367 119.016 41.4231ZM119.796 39.2291C120.303 39.236 120.803 39.1173 121.253 38.8835C121.7 38.6423 122.06 38.2678 122.286 37.8118C122.539 37.3284 122.665 36.7177 122.665 35.9798V35.4961L120.371 35.8646C119.468 36.0029 118.795 36.2255 118.352 36.5327C117.908 36.8399 117.687 37.2165 117.687 37.6626C117.679 37.979 117.789 38.287 117.996 38.5259C118.209 38.769 118.482 38.9517 118.788 39.0558C119.111 39.173 119.452 39.2331 119.796 39.2335V39.2291Z" fill="white"/>
<path d="M133.932 41.1926C133.014 41.1926 132.242 41.031 131.615 40.7078C131 40.3993 130.507 39.8919 130.214 39.2674C129.908 38.6312 129.755 37.8362 129.755 36.8826V31.6522H127.941C127.796 31.6522 127.657 31.5944 127.555 31.4915C127.452 31.3887 127.395 31.2492 127.395 31.1037V29.7654C127.395 29.6199 127.452 29.4804 127.555 29.3775C127.657 29.2747 127.796 29.2169 127.941 29.2169H129.753V25.384C129.749 25.2387 129.803 25.0979 129.903 24.9924C129.954 24.9382 130.017 24.8958 130.086 24.868C130.155 24.8402 130.229 24.8276 130.304 24.8311H132.161C132.306 24.8311 132.445 24.8889 132.547 24.9918C132.649 25.0947 132.707 25.2342 132.707 25.3796V29.2048H135.588C135.733 29.2048 135.871 29.2626 135.974 29.3655C136.076 29.4683 136.134 29.6078 136.134 29.7533V31.0905C136.134 31.236 136.076 31.3755 135.974 31.4784C135.871 31.5812 135.733 31.639 135.588 31.639H132.719V36.6391C132.719 37.2702 132.828 37.762 133.047 38.1145C133.265 38.467 133.651 38.6436 134.205 38.6443H135.789C135.934 38.6443 136.072 38.7021 136.175 38.805C136.277 38.9079 136.335 39.0474 136.335 39.1928V40.6189C136.335 40.7644 136.277 40.9039 136.175 41.0068C136.072 41.1096 135.934 41.1674 135.789 41.1674L133.932 41.1926Z" fill="white"/>
<path d="M143.525 41.423C141.826 41.423 140.479 40.9312 139.483 39.9476C138.488 38.964 137.954 37.5661 137.883 35.7538C137.867 35.6003 137.86 35.405 137.86 35.1659C137.858 34.9776 137.865 34.7894 137.883 34.602C137.944 33.4495 138.208 32.4508 138.675 31.6062C139.12 30.7814 139.793 30.1039 140.614 29.6557C141.44 29.203 142.411 28.9763 143.528 28.9756C144.766 28.9756 145.807 29.2315 146.649 29.7435C147.484 30.2501 148.147 30.9969 148.553 31.887C148.982 32.8011 149.196 33.8572 149.196 35.0551V35.5388C149.197 35.6117 149.183 35.684 149.156 35.7513C149.128 35.8187 149.087 35.8797 149.035 35.9305C148.981 35.9842 148.916 36.0262 148.845 36.0539C148.774 36.0816 148.698 36.0945 148.622 36.0917H141.004V36.276C141.013 36.7867 141.118 37.291 141.314 37.7624C141.491 38.1993 141.785 38.5787 142.163 38.8594C142.553 39.141 143.025 39.2866 143.505 39.2741C144.162 39.2984 144.803 39.0674 145.295 38.629C145.438 38.5038 145.568 38.3649 145.685 38.2144C145.769 38.0804 145.88 37.9663 146.012 37.8798C146.133 37.8354 146.262 37.816 146.39 37.8228H148.37C148.509 37.8179 148.645 37.8674 148.749 37.961C148.797 38.0036 148.833 38.0575 148.855 38.1178C148.877 38.1781 148.884 38.243 148.875 38.3065C148.859 38.5522 148.733 38.8517 148.497 39.2049C148.214 39.6038 147.869 39.954 147.475 40.2416C146.97 40.611 146.408 40.8951 145.811 41.083C145.072 41.3191 144.3 41.4339 143.525 41.423ZM141 34.1643H146.076V34.0952C146.088 33.5574 145.986 33.0231 145.778 32.5276C145.592 32.0986 145.289 31.7312 144.904 31.4679C144.607 31.2627 144.268 31.1265 143.912 31.0691C143.556 31.0116 143.192 31.0345 142.846 31.1359C142.5 31.2374 142.181 31.4149 141.912 31.6556C141.643 31.8963 141.43 32.1942 141.29 32.5276C141.088 33.0249 140.99 33.5584 141.003 34.0952L141 34.1643Z" fill="white"/>
<path d="M45.7493 22.9128C45.6045 22.9128 45.4655 22.855 45.3631 22.7521C45.2607 22.6492 45.2031 22.5097 45.2031 22.3643V7.3356C45.2031 7.19013 45.2607 7.05062 45.3631 6.94776C45.4655 6.8449 45.6045 6.78711 45.7493 6.78711H47.8839C48.0288 6.78711 48.1677 6.8449 48.2701 6.94776C48.3726 7.05062 48.4301 7.19013 48.4301 7.3356V20.1703H55.7045C55.7809 20.1664 55.8572 20.1786 55.9285 20.2061C55.9999 20.2337 56.0647 20.2759 56.1188 20.3302C56.1728 20.3845 56.2149 20.4496 56.2424 20.5212C56.2698 20.5929 56.282 20.6695 56.278 20.7462V22.3588C56.2793 22.4316 56.2657 22.5039 56.2381 22.5713C56.2105 22.6386 56.1694 22.6996 56.1174 22.7504C56.0632 22.8041 55.9986 22.8461 55.9276 22.8738C55.8565 22.9016 55.7807 22.9144 55.7045 22.9117L45.7493 22.9128Z" fill="white"/>
<path d="M58.6919 8.94809C58.6189 8.95293 58.5457 8.94207 58.4773 8.91622C58.4088 8.89037 58.3466 8.85013 58.2949 8.7982C58.2432 8.74627 58.2031 8.68384 58.1774 8.61509C58.1516 8.54635 58.1408 8.47288 58.1457 8.39959V6.73657C58.1419 6.59127 58.1957 6.45042 58.2953 6.34495C58.3467 6.29079 58.4091 6.24837 58.4783 6.22054C58.5475 6.19272 58.6218 6.18015 58.6962 6.18369H60.7849C60.8605 6.18136 60.9358 6.19445 61.0062 6.22217C61.0766 6.24988 61.1407 6.29165 61.1946 6.34495C61.2466 6.39574 61.2877 6.4567 61.3153 6.52406C61.3429 6.59141 61.3565 6.66374 61.3552 6.73657V8.39521C61.3588 8.47012 61.3463 8.54494 61.3186 8.61459C61.2909 8.68424 61.2486 8.74709 61.1946 8.79889C61.0816 8.9008 60.9334 8.95434 60.7816 8.94809H58.6919ZM58.7836 22.9127C58.6388 22.9127 58.4998 22.8549 58.3974 22.752C58.295 22.6492 58.2374 22.5097 58.2374 22.3642V11.4832C58.2374 11.3377 58.295 11.1982 58.3974 11.0954C58.4998 10.9925 58.6388 10.9347 58.7836 10.9347H60.6888C60.7632 10.9312 60.8375 10.9438 60.9067 10.9716C60.9759 10.9994 61.0383 11.0418 61.0897 11.096C61.1887 11.2018 61.2424 11.3424 61.2394 11.4876V22.3642C61.2424 22.5094 61.1887 22.6499 61.0897 22.7558C61.0383 22.81 60.9759 22.8524 60.9067 22.8802C60.8375 22.908 60.7632 22.9206 60.6888 22.9171L58.7836 22.9127Z" fill="white"/>
<path d="M72.8046 27.2909C72.6598 27.2909 72.5208 27.2331 72.4184 27.1302C72.316 27.0273 72.2584 26.8878 72.2584 26.7424V21.5076C71.8819 22.0073 71.396 22.4134 70.8383 22.6945C70.2557 22.9943 69.5522 23.1439 68.7277 23.1432C68.0142 23.1565 67.3062 23.0151 66.6522 22.7285C66.0642 22.4693 65.5427 22.0792 65.1271 21.5877C64.7115 21.0846 64.3962 20.5058 64.1986 19.8829C63.977 19.1933 63.8534 18.4758 63.8315 17.7515C63.8152 17.4751 63.8086 17.203 63.8086 16.9222C63.8086 16.6414 63.8152 16.3737 63.8315 16.1148C63.8669 15.3724 63.9938 14.6373 64.2095 13.9263C64.399 13.2999 64.7109 12.7178 65.1271 12.2139C65.5371 11.7263 66.0564 11.3433 66.6423 11.0961C67.3003 10.8247 68.0067 10.6914 68.7179 10.7045C69.6049 10.7045 70.3507 10.8657 70.9552 11.1883C71.521 11.4783 72.012 11.8962 72.3895 12.4092V11.4877C72.3895 11.3423 72.4471 11.2028 72.5495 11.0999C72.6519 10.997 72.7909 10.9392 72.9357 10.9392H74.771C74.9158 10.9392 75.0548 10.997 75.1572 11.0999C75.2596 11.2028 75.3172 11.3423 75.3172 11.4877V26.738C75.3172 26.8835 75.2596 27.023 75.1572 27.1258C75.0548 27.2287 74.9158 27.2865 74.771 27.2865L72.8046 27.2909ZM69.5918 20.6782C70.2036 20.6782 70.7006 20.54 71.083 20.2636C71.4572 19.9966 71.7542 19.6347 71.9438 19.2149C72.1338 18.7982 72.2392 18.3477 72.2541 17.8897C72.285 17.5913 72.3003 17.2914 72.2999 16.9913C72.3008 16.6981 72.2854 16.4052 72.2541 16.1137C72.2382 15.6352 72.1372 15.1633 71.9558 14.7205C71.7793 14.2771 71.4854 13.8905 71.1059 13.6027C70.7236 13.3102 70.2189 13.1639 69.5918 13.1639C68.9495 13.1639 68.4372 13.3058 68.0548 13.5896C67.6754 13.8694 67.3909 14.2596 67.2399 14.7074C67.0734 15.1981 66.9766 15.7099 66.9526 16.2278C66.922 16.6884 66.922 17.1505 66.9526 17.6111C66.9766 18.1289 67.0734 18.6408 67.2399 19.1315C67.3909 19.5793 67.6754 19.9695 68.0548 20.2493C68.4372 20.5353 68.9495 20.6782 69.5918 20.6782Z" fill="white"/>
<path d="M82.8096 23.1429C81.876 23.1429 81.0687 22.9319 80.3877 22.5099C79.6996 22.0783 79.1529 21.4531 78.8157 20.712C78.4516 19.936 78.2695 19.0182 78.2695 17.9585V11.4864C78.2695 11.3409 78.3271 11.2014 78.4295 11.0985C78.5319 10.9956 78.6709 10.9379 78.8157 10.9379H80.8356C80.9102 10.9345 80.9846 10.9471 81.054 10.9749C81.1233 11.0027 81.1859 11.0451 81.2376 11.0991C81.3363 11.2051 81.3896 11.3457 81.3862 11.4907V17.828C81.3862 19.7294 82.2201 20.6802 83.8878 20.6802C84.6831 20.6802 85.3142 20.4264 85.781 19.9189C86.2478 19.4113 86.4812 18.7125 86.4812 17.8225V11.4831C86.4812 11.3376 86.5388 11.1981 86.6412 11.0952C86.7436 10.9924 86.8826 10.9346 87.0274 10.9346H89.0506C89.1954 10.9346 89.3344 10.9924 89.4368 11.0952C89.5392 11.1981 89.5968 11.3376 89.5968 11.4831V22.3596C89.5968 22.5051 89.5392 22.6446 89.4368 22.7475C89.3344 22.8503 89.1954 22.9081 89.0506 22.9081H87.1935C87.1189 22.9118 87.0444 22.8992 86.975 22.8714C86.9056 22.8436 86.843 22.8011 86.7915 22.7469C86.6928 22.6409 86.6394 22.5003 86.6429 22.3553V21.4108C86.2329 21.9451 85.7068 22.3785 85.1048 22.6778C84.4923 22.9879 83.7272 23.1429 82.8096 23.1429Z" fill="white"/>
<path d="M93.0942 8.94823C93.0212 8.95308 92.9481 8.94222 92.8796 8.91637C92.8111 8.89052 92.749 8.85028 92.6973 8.79835C92.6455 8.74641 92.6055 8.68399 92.5797 8.61524C92.554 8.5465 92.5432 8.47303 92.548 8.39974V6.73672C92.5442 6.59142 92.5981 6.45057 92.6977 6.34509C92.7482 6.29086 92.8098 6.24812 92.8782 6.21974C92.9466 6.19135 93.0202 6.17799 93.0942 6.18055H95.1829C95.259 6.17777 95.3349 6.19064 95.4059 6.21837C95.477 6.2461 95.5416 6.2881 95.5958 6.3418C95.6478 6.3926 95.6889 6.45356 95.7165 6.52091C95.7441 6.58827 95.7577 6.6606 95.7564 6.73343V8.39206C95.76 8.46698 95.7476 8.5418 95.7199 8.61145C95.6921 8.6811 95.6499 8.74395 95.5958 8.79575C95.4828 8.89766 95.3347 8.9512 95.1829 8.94494L93.0942 8.94823ZM93.186 22.9128C93.0411 22.9128 92.9022 22.855 92.7997 22.7522C92.6973 22.6493 92.6398 22.5098 92.6398 22.3643V11.4834C92.6398 11.3379 92.6973 11.1984 92.7997 11.0955C92.9022 10.9927 93.0411 10.9349 93.186 10.9349H95.0911C95.1656 10.9313 95.2399 10.9439 95.3091 10.9717C95.3782 10.9995 95.4406 11.042 95.492 11.0961C95.591 11.202 95.6448 11.3426 95.6417 11.4877V22.3643C95.6448 22.5095 95.591 22.6501 95.492 22.7559C95.4406 22.8101 95.3782 22.8525 95.3091 22.8803C95.2399 22.9082 95.1656 22.9207 95.0911 22.9172L93.186 22.9128Z" fill="white"/>
<path d="M103.119 23.1431C102.398 23.1583 101.683 23.0211 101.019 22.7405C100.434 22.4867 99.9185 22.0954 99.5157 21.5996C99.1037 21.0826 98.792 20.4924 98.597 19.8598C98.3753 19.1466 98.2518 18.4062 98.23 17.6593C98.2147 17.3828 98.207 17.1331 98.207 16.91C98.207 16.687 98.2139 16.438 98.2278 16.163C98.2517 15.4362 98.3714 14.7158 98.5839 14.0206C98.7761 13.387 99.0876 12.7964 99.5015 12.2808C99.9099 11.7792 100.43 11.3806 101.019 11.1169C101.681 10.8286 102.397 10.6872 103.119 10.7022C103.944 10.7022 104.644 10.8441 105.218 11.1279C105.765 11.3929 106.253 11.766 106.652 12.2248V7.10522C106.649 6.96018 106.702 6.81957 106.801 6.7136C106.853 6.65942 106.915 6.61699 106.985 6.58917C107.054 6.56135 107.128 6.5488 107.203 6.55235H109.152C109.297 6.55235 109.436 6.61013 109.538 6.71299C109.641 6.81586 109.698 6.95537 109.698 7.10084V22.3599C109.698 22.5053 109.641 22.6448 109.538 22.7477C109.436 22.8506 109.297 22.9083 109.152 22.9083H107.34C107.265 22.9119 107.191 22.8993 107.121 22.8715C107.052 22.8437 106.989 22.8013 106.938 22.7471C106.839 22.6411 106.786 22.5005 106.789 22.3555V21.5031C106.389 21.9942 105.892 22.3959 105.328 22.6824C104.746 22.9895 104.009 23.1431 103.119 23.1431ZM103.967 20.6782C104.61 20.6782 105.122 20.5319 105.504 20.2394C105.884 19.9516 106.178 19.565 106.354 19.1216C106.536 18.6784 106.637 18.2062 106.652 17.7273C106.667 17.4509 106.675 17.1547 106.675 16.8398C106.675 16.525 106.667 16.2288 106.652 15.9524C106.637 15.4932 106.528 15.0422 106.331 14.6272C106.134 14.2087 105.833 13.8481 105.457 13.5796C105.075 13.3032 104.578 13.165 103.966 13.165C103.324 13.165 102.814 13.3068 102.437 13.5906C102.062 13.8752 101.779 14.2638 101.622 14.7084C101.448 15.1976 101.348 15.71 101.324 16.2288C101.308 16.691 101.308 17.1521 101.324 17.6121C101.348 18.131 101.448 18.6434 101.622 19.1325C101.779 19.5773 102.062 19.9661 102.437 20.2504C102.815 20.5356 103.325 20.6782 103.967 20.6782Z" fill="white"/>
<path d="M36.9971 30.11C36.9698 28.8583 36.6508 27.3818 36.0926 25.7846C35.5343 24.1874 34.7489 22.4651 33.8105 20.7022C31.204 15.8163 27.4319 10.6177 24.2377 6.57092C21.8431 3.53667 19.7763 1.14415 18.7636 0L18.0207 0.84687C17.1468 1.85938 15.908 3.3085 14.4955 5.0516C11.6705 8.53452 8.12455 13.1879 5.27662 17.8424C3.37473 20.9425 1.78089 24.0491 0.918978 26.7631C0.423022 28.3131 0.165212 29.7315 0.1958 30.9316C0.267234 34.089 1.1429 37.1753 2.73931 39.8964C4.33573 42.6175 6.59966 44.8825 9.31524 46.4756C12.0308 48.0687 15.1075 48.9367 18.252 48.9969C21.3965 49.057 24.5038 48.3073 27.2779 46.8192C30.2779 45.2083 32.7747 42.7941 34.4909 39.8445C36.2072 36.8949 37.0758 33.5253 37.0004 30.11H36.9971ZM31.251 37.7439C29.9174 39.9963 28.0117 41.8525 25.729 43.1223C23.4463 44.3921 20.8685 45.03 18.2596 44.9706C15.6507 44.9113 13.1044 44.1568 10.8813 42.7844C8.6582 41.412 6.83821 39.4711 5.60763 37.1603C4.51433 35.1133 3.92053 32.8349 3.87505 30.5126C3.85211 29.5571 4.0564 28.4217 4.45731 27.1799C5.1499 25.0079 6.42366 22.5265 7.93993 20.0495C10.2187 16.3198 13.0557 12.601 15.3148 9.8147C16.4466 8.42263 17.4319 7.26312 18.1365 6.45135C18.367 6.18917 18.5735 5.961 18.733 5.77561C19.5381 6.69159 21.1931 8.60473 23.1092 11.0324C25.6655 14.2706 28.6805 18.4304 30.766 22.3313C31.4784 23.6376 32.0894 24.9971 32.5936 26.3978C33.0404 27.6769 33.2949 28.8561 33.3178 29.861C33.3822 32.6316 32.6658 35.3642 31.251 37.7439Z" fill="white"/>
<path d="M24.7261 35.6094H23.2109V37.1309H24.7261V35.6094Z" fill="white"/>
<path d="M26.8902 35.6094H25.375V37.1309H26.8902V35.6094Z" fill="white"/>
<path d="M24.7261 37.5654H23.2109V39.0869H24.7261V37.5654Z" fill="white"/>
<path d="M26.8902 37.5654H25.375V39.0869H26.8902V37.5654Z" fill="white"/>
<path d="M8.27148 29.9849L13.4681 27.1108V45.1748H8.27148V29.9849Z" fill="white"/>
<path d="M14.5488 17.462L19.7455 14.2632V45.175H17.1466V26.2598H14.5488" fill="white"/>
<path d="M14.5488 17.462L19.7455 14.2632V45.175H17.1466V26.2598H14.5488" fill="white"/>
<path d="M21.0488 18.335L21.4934 18.7584V32.3028L21.0488 32.7778V18.335Z" fill="white"/>
<path d="M22.0488 19.2896L22.4858 19.7064L22.4869 31.2412L22.0488 31.7096V19.2896Z" fill="white"/>
<path d="M23.0391 20.2339L23.4815 20.6551V30.1769L23.0402 30.6486L23.0391 20.2339Z" fill="white"/>
<path d="M24.0332 21.1831L24.4724 21.6032L24.4756 29.1132L24.0332 29.5871V21.1831Z" fill="white"/>
<path d="M14.5879 39.9576L24.9833 29.9619L35.4716 39.9576H33.4113L25.0292 31.9365L16.835 39.9576H14.5879Z" fill="white"/>
</g>
<defs>
<clipPath id="clip0_673_2827">
<rect width="149" height="49" fill="white" transform="translate(0.193359)"/>
</clipPath>
</defs>
</svg>
