<svg width="67" height="67" viewBox="0 0 67 67" fill="none" xmlns="http://www.w3.org/2000/svg">
<path d="M33.1937 2.2204C15.6971 2.2204 1.51367 16.4038 1.51367 33.9004C1.51367 51.397 15.6971 65.5804 33.1937 65.5804C50.6903 65.5804 64.8737 51.397 64.8737 33.9004C64.8737 16.4038 50.6903 2.2204 33.1937 2.2204ZM47.0537 26.2015H46.6676C46.6676 26.2015 45.5126 26.2015 45.5126 27.3565V40.4443C45.5126 40.4443 45.5126 41.5993 46.6676 41.5993H47.0537V44.6815H37.8137V41.5993H39.3548V27.2773H39.1997L34.4807 44.6815H30.3227L25.6466 27.2773H25.4948V41.5993H27.0326V44.6815H19.3337V41.5993H19.7198C19.7198 41.5993 20.8748 41.5993 20.8748 40.4443V27.3532C20.8748 27.3532 20.8748 26.1982 19.7198 26.1982H19.3337V23.1193H29.5505L33.1343 36.4546H33.2531L36.8666 23.1226H47.0537V26.2015Z" fill="black"/>
</svg>
