<svg width="1171" height="295" viewBox="0 0 1171 295" fill="none" xmlns="http://www.w3.org/2000/svg">
<g clip-path="url(#clip0_59_106)">
<path d="M0.193359 145.972H1170.19" stroke="#EAECF2" stroke-width="2" stroke-miterlimit="10" stroke-linecap="round"/>
<path d="M0.193359 145.972H538.118" stroke="#257CFF" stroke-width="2" stroke-miterlimit="10" stroke-linecap="round"/>
<path d="M126.767 172.6C141.439 172.6 153.333 160.696 153.333 146.011C153.333 131.326 141.439 119.421 126.767 119.421C112.095 119.421 100.201 131.326 100.201 146.011C100.201 160.696 112.095 172.6 126.767 172.6Z" fill="#257CFF"/>
<path d="M126.767 119.421V3.14355" stroke="#6B7688" stroke-width="0.25" stroke-miterlimit="10"/>
<path d="M129.107 3.14376C129.107 4.38369 128.144 5.34808 126.905 5.34808C125.666 5.34808 124.702 4.38369 124.702 3.14376C124.702 1.90384 125.666 0.939453 126.905 0.939453C128.006 0.939453 129.107 1.90384 129.107 3.14376Z" fill="#6B7688"/>
<path d="M329.884 294.9V170.356" stroke="#6B7688" stroke-width="0.25" stroke-miterlimit="10"/>
<path d="M332.087 292.007C332.087 293.247 331.123 294.211 329.884 294.211C328.645 294.211 327.682 293.247 327.682 292.007C327.682 290.767 328.645 289.803 329.884 289.803C331.123 289.803 332.087 290.767 332.087 292.007Z" fill="#6B7688"/>
<path d="M329.884 172.561C344.556 172.561 356.45 160.656 356.45 145.971C356.45 131.286 344.556 119.382 329.884 119.382C315.212 119.382 303.318 131.286 303.318 145.971C303.318 160.656 315.212 172.561 329.884 172.561Z" fill="#257CFF"/>
<path d="M716.006 294.901V170.357" stroke="#6B7688" stroke-width="0.25" stroke-miterlimit="10"/>
<path d="M718.346 292.008C718.346 293.247 717.383 294.212 716.144 294.212C714.905 294.212 713.942 293.247 713.942 292.008C713.942 290.768 714.905 289.803 716.144 289.803C717.383 289.803 718.346 290.768 718.346 292.008Z" fill="#6B7688"/>
<path d="M716.144 172.561C730.816 172.561 742.71 160.657 742.71 145.972C742.71 131.287 730.816 119.382 716.144 119.382C701.472 119.382 689.578 131.287 689.578 145.972C689.578 160.657 701.472 172.561 716.144 172.561Z" fill="#F1F2F6"/>
<path d="M909.275 172.561C923.947 172.561 935.841 160.657 935.841 145.972C935.841 131.287 923.947 119.382 909.275 119.382C894.603 119.382 882.709 131.287 882.709 145.972C882.709 160.657 894.603 172.561 909.275 172.561Z" fill="#F1F2F6"/>
<path d="M909.275 119.382V3.10449" stroke="#6B7688" stroke-width="0.25" stroke-miterlimit="10"/>
<path d="M911.477 3.1047C911.477 4.34463 910.514 5.30901 909.275 5.30901C908.036 5.30901 907.073 4.34463 907.073 3.1047C907.073 1.86478 908.036 0.900391 909.275 0.900391C910.514 0.900391 911.477 1.86478 911.477 3.1047Z" fill="#6B7688"/>
<path d="M523.017 172.561C537.689 172.561 549.583 160.657 549.583 145.972C549.583 131.287 537.689 119.382 523.017 119.382C508.345 119.382 496.451 131.287 496.451 145.972C496.451 160.657 508.345 172.561 523.017 172.561Z" fill="#EEF5FF"/>
<path d="M523.017 119.382V3.10449" stroke="#257CFF" stroke-width="0.25" stroke-miterlimit="10"/>
<path d="M525.495 3.1047C525.495 4.34463 524.531 5.30901 523.292 5.30901C522.054 5.30901 521.09 4.34463 521.09 3.1047C521.09 1.86478 522.054 0.900391 523.292 0.900391C524.531 0.900391 525.495 1.86478 525.495 3.1047Z" fill="#257CFF"/>
<path d="M121.827 153.255C122.725 153.255 123.555 153.128 124.307 152.874L125.343 154.329H128.145L126.309 151.751C127.794 150.491 128.624 148.499 128.624 145.97V145.95C128.624 141.478 126.007 138.675 121.827 138.675C117.657 138.675 115.03 141.468 115.03 145.95V145.97C115.03 150.452 117.638 153.255 121.827 153.255ZM121.827 150.755C119.513 150.755 118.038 148.919 118.038 145.97V145.95C118.038 143.001 119.522 141.175 121.827 141.175C124.141 141.175 125.606 143.011 125.606 145.95V145.97C125.606 147.396 125.264 148.567 124.639 149.388L123.79 148.177H120.987L122.735 150.647C122.452 150.716 122.139 150.755 121.827 150.755ZM134.178 153.011H137.098V138.919H134.168L130.525 141.448V144.065L134.119 141.624H134.178V153.011Z" fill="white"/>
<path d="M61.684 19.9395H71.9281V17.5957H65.5414V17.4785L68.4906 14.7832C70.9223 12.5469 71.7328 11.4336 71.7328 9.72461V9.70508C71.7328 7.30273 69.682 5.60352 66.7035 5.60352C63.725 5.60352 61.518 7.46875 61.518 10.125V10.2031H64.2523L64.2621 10.1152C64.3012 8.8457 65.2777 7.89844 66.723 7.89844C67.973 7.89844 68.852 8.71875 68.8617 9.87109V9.89062C68.8617 10.8672 68.4809 11.5605 66.6645 13.2598L61.684 17.918V19.9395ZM79.5621 20.1836C83.1363 20.1836 85.3043 17.3809 85.3043 12.8984V12.8789C85.3043 8.39648 83.1363 5.60352 79.5621 5.60352C75.9879 5.60352 73.8199 8.39648 73.8199 12.8789V12.8984C73.8199 17.3809 75.9879 20.1836 79.5621 20.1836ZM79.5621 17.8203C77.8043 17.8203 76.7984 15.9941 76.7984 12.8984V12.8789C76.7984 9.7832 77.8043 7.9668 79.5621 7.9668C81.3199 7.9668 82.3258 9.7832 82.3258 12.8789V12.8984C82.3258 15.9941 81.3199 17.8203 79.5621 17.8203ZM87.323 19.9395H97.5672V17.5957H91.1805V17.4785L94.1297 14.7832C96.5613 12.5469 97.3719 11.4336 97.3719 9.72461V9.70508C97.3719 7.30273 95.3211 5.60352 92.3426 5.60352C89.3641 5.60352 87.157 7.46875 87.157 10.125V10.2031H89.8914L89.9012 10.1152C89.9402 8.8457 90.9168 7.89844 92.3621 7.89844C93.6121 7.89844 94.491 8.71875 94.5008 9.87109V9.89062C94.5008 10.8672 94.1199 11.5605 92.3035 13.2598L87.323 17.918V19.9395ZM99.6934 19.9395H109.938V17.5957H103.551V17.4785L106.5 14.7832C108.932 12.5469 109.742 11.4336 109.742 9.72461V9.70508C109.742 7.30273 107.691 5.60352 104.713 5.60352C101.734 5.60352 99.5273 7.46875 99.5273 10.125V10.2031H102.262L102.271 10.1152C102.311 8.8457 103.287 7.89844 104.732 7.89844C105.982 7.89844 106.861 8.71875 106.871 9.87109V9.89062C106.871 10.8672 106.49 11.5605 104.674 13.2598L99.6934 17.918V19.9395Z" fill="black"/>
<path d="M323.698 153.216C324.596 153.216 325.426 153.089 326.178 152.835L327.213 154.29H330.016L328.18 151.712C329.664 150.452 330.495 148.46 330.495 145.931V145.911C330.495 141.438 327.877 138.636 323.698 138.636C319.528 138.636 316.901 141.429 316.901 145.911V145.931C316.901 150.413 319.508 153.216 323.698 153.216ZM323.698 150.716C321.383 150.716 319.909 148.88 319.909 145.931V145.911C319.909 142.962 321.393 141.136 323.698 141.136C326.012 141.136 327.477 142.972 327.477 145.911V145.931C327.477 147.356 327.135 148.528 326.51 149.349L325.661 148.138H322.858L324.606 150.608C324.323 150.677 324.01 150.716 323.698 150.716ZM332.523 152.972H342.767V150.628H336.38V150.511L339.33 147.815C341.761 145.579 342.572 144.466 342.572 142.757V142.737C342.572 140.335 340.521 138.636 337.543 138.636C334.564 138.636 332.357 140.501 332.357 143.157V143.235H335.091L335.101 143.147C335.14 141.878 336.117 140.931 337.562 140.931C338.812 140.931 339.691 141.751 339.701 142.903V142.923C339.701 143.899 339.32 144.593 337.504 146.292L332.523 150.95V152.972Z" fill="white"/>
<path d="M264.801 289.9H275.045V287.557H268.659V287.439L271.608 284.744C274.039 282.508 274.85 281.395 274.85 279.686V279.666C274.85 277.264 272.799 275.564 269.821 275.564C266.842 275.564 264.635 277.43 264.635 280.086V280.164H267.37L267.379 280.076C267.418 278.807 268.395 277.859 269.84 277.859C271.09 277.859 271.969 278.68 271.979 279.832V279.852C271.979 280.828 271.598 281.521 269.782 283.221L264.801 287.879V289.9ZM282.679 290.145C286.254 290.145 288.421 287.342 288.421 282.859V282.84C288.421 278.357 286.254 275.564 282.679 275.564C279.105 275.564 276.937 278.357 276.937 282.84V282.859C276.937 287.342 279.105 290.145 282.679 290.145ZM282.679 287.781C280.921 287.781 279.916 285.955 279.916 282.859V282.84C279.916 279.744 280.921 277.928 282.679 277.928C284.437 277.928 285.443 279.744 285.443 282.84V282.859C285.443 285.955 284.437 287.781 282.679 287.781ZM290.44 289.9H300.684V287.557H294.298V287.439L297.247 284.744C299.679 282.508 300.489 281.395 300.489 279.686V279.666C300.489 277.264 298.438 275.564 295.46 275.564C292.481 275.564 290.274 277.43 290.274 280.086V280.164H293.009L293.018 280.076C293.057 278.807 294.034 277.859 295.479 277.859C296.729 277.859 297.608 278.68 297.618 279.832V279.852C297.618 280.828 297.237 281.521 295.421 283.221L290.44 287.879V289.9ZM302.811 289.9H313.055V287.557H306.668V287.439L309.617 284.744C312.049 282.508 312.859 281.395 312.859 279.686V279.666C312.859 277.264 310.809 275.564 307.83 275.564C304.852 275.564 302.645 277.43 302.645 280.086V280.164H305.379L305.389 280.076C305.428 278.807 306.404 277.859 307.85 277.859C309.1 277.859 309.979 278.68 309.988 279.832V279.852C309.988 280.828 309.607 281.521 307.791 283.221L302.811 287.879V289.9Z" fill="black"/>
<path d="M516.568 153.216C517.467 153.216 518.297 153.089 519.049 152.835L520.084 154.29H522.887L521.051 151.712C522.535 150.452 523.365 148.46 523.365 145.931V145.911C523.365 141.438 520.748 138.636 516.568 138.636C512.398 138.636 509.772 141.429 509.772 145.911V145.931C509.772 150.413 512.379 153.216 516.568 153.216ZM516.568 150.716C514.254 150.716 512.779 148.88 512.779 145.931V145.911C512.779 142.962 514.264 141.136 516.568 141.136C518.883 141.136 520.348 142.972 520.348 145.911V145.931C520.348 147.356 520.006 148.528 519.381 149.349L518.531 148.138H515.729L517.477 150.608C517.193 150.677 516.881 150.716 516.568 150.716ZM530.638 153.216C533.929 153.216 536.116 151.517 536.116 148.997V148.978C536.116 147.063 534.749 145.853 532.659 145.657V145.599C534.31 145.257 535.599 144.114 535.599 142.356V142.337C535.599 140.12 533.646 138.636 530.609 138.636C527.65 138.636 525.667 140.237 525.472 142.679L525.462 142.796H528.167L528.177 142.708C528.294 141.614 529.232 140.901 530.609 140.901C531.995 140.901 532.806 141.585 532.806 142.728V142.747C532.806 143.89 531.849 144.671 530.374 144.671H528.802V146.771H530.413C532.113 146.771 533.118 147.513 533.118 148.86V148.88C533.118 150.032 532.142 150.843 530.628 150.843C529.105 150.843 528.109 150.091 527.982 149.085L527.962 148.978H525.15L525.159 149.104C525.355 151.536 527.445 153.216 530.638 153.216Z" fill="#257CFF"/>
<path d="M457.934 19.9004H468.178V17.5566H461.791V17.4395L464.741 14.7441C467.172 12.5078 467.983 11.3945 467.983 9.68555V9.66602C467.983 7.26367 465.932 5.56445 462.954 5.56445C459.975 5.56445 457.768 7.42969 457.768 10.0859V10.1641H460.502L460.512 10.0762C460.551 8.80664 461.528 7.85938 462.973 7.85938C464.223 7.85938 465.102 8.67969 465.112 9.83203V9.85156C465.112 10.8281 464.731 11.5215 462.914 13.2207L457.934 17.8789V19.9004ZM475.812 20.1445C479.386 20.1445 481.554 17.3418 481.554 12.8594V12.8398C481.554 8.35742 479.386 5.56445 475.812 5.56445C472.238 5.56445 470.07 8.35742 470.07 12.8398V12.8594C470.07 17.3418 472.238 20.1445 475.812 20.1445ZM475.812 17.7812C474.054 17.7812 473.048 15.9551 473.048 12.8594V12.8398C473.048 9.74414 474.054 7.92773 475.812 7.92773C477.57 7.92773 478.576 9.74414 478.576 12.8398V12.8594C478.576 15.9551 477.57 17.7812 475.812 17.7812ZM483.573 19.9004H493.817V17.5566H487.43V17.4395L490.38 14.7441C492.811 12.5078 493.622 11.3945 493.622 9.68555V9.66602C493.622 7.26367 491.571 5.56445 488.593 5.56445C485.614 5.56445 483.407 7.42969 483.407 10.0859V10.1641H486.141L486.151 10.0762C486.19 8.80664 487.167 7.85938 488.612 7.85938C489.862 7.85938 490.741 8.67969 490.751 9.83203V9.85156C490.751 10.8281 490.37 11.5215 488.554 13.2207L483.573 17.8789V19.9004ZM495.943 19.9004H506.188V17.5566H499.801V17.4395L502.75 14.7441C505.182 12.5078 505.992 11.3945 505.992 9.68555V9.66602C505.992 7.26367 503.941 5.56445 500.963 5.56445C497.984 5.56445 495.777 7.42969 495.777 10.0859V10.1641H498.512L498.521 10.0762C498.561 8.80664 499.537 7.85938 500.982 7.85938C502.232 7.85938 503.111 8.67969 503.121 9.83203V9.85156C503.121 10.8281 502.74 11.5215 500.924 13.2207L495.943 17.8789V19.9004Z" fill="#257CFF"/>
<path d="M905.035 153.216C905.933 153.216 906.764 153.089 907.516 152.835L908.551 154.29H911.353L909.517 151.712C911.002 150.452 911.832 148.46 911.832 145.931V145.911C911.832 141.438 909.215 138.636 905.035 138.636C900.865 138.636 898.238 141.429 898.238 145.911V145.931C898.238 150.413 900.846 153.216 905.035 153.216ZM905.035 150.716C902.721 150.716 901.246 148.88 901.246 145.931V145.911C901.246 142.962 902.73 141.136 905.035 141.136C907.35 141.136 908.814 142.972 908.814 145.911V145.931C908.814 147.356 908.473 148.528 907.848 149.349L906.998 148.138H904.195L905.943 150.608C905.66 150.677 905.348 150.716 905.035 150.716ZM917.386 152.972H920.306V138.88H917.376L913.733 141.409V144.026L917.327 141.585H917.386V152.972Z" fill="#6B7688"/>
<path d="M843.879 19.9004H854.123V17.5566H847.737V17.4395L850.686 14.7441C853.118 12.5078 853.928 11.3945 853.928 9.68555V9.66602C853.928 7.26367 851.877 5.56445 848.899 5.56445C845.92 5.56445 843.713 7.42969 843.713 10.0859V10.1641H846.448L846.457 10.0762C846.496 8.80664 847.473 7.85938 848.918 7.85938C850.168 7.85938 851.047 8.67969 851.057 9.83203V9.85156C851.057 10.8281 850.676 11.5215 848.86 13.2207L843.879 17.8789V19.9004ZM861.757 20.1445C865.332 20.1445 867.5 17.3418 867.5 12.8594V12.8398C867.5 8.35742 865.332 5.56445 861.757 5.56445C858.183 5.56445 856.015 8.35742 856.015 12.8398V12.8594C856.015 17.3418 858.183 20.1445 861.757 20.1445ZM861.757 17.7812C860 17.7812 858.994 15.9551 858.994 12.8594V12.8398C858.994 9.74414 860 7.92773 861.757 7.92773C863.515 7.92773 864.521 9.74414 864.521 12.8398V12.8594C864.521 15.9551 863.515 17.7812 861.757 17.7812ZM869.518 19.9004H879.762V17.5566H873.376V17.4395L876.325 14.7441C878.757 12.5078 879.567 11.3945 879.567 9.68555V9.66602C879.567 7.26367 877.516 5.56445 874.538 5.56445C871.559 5.56445 869.352 7.42969 869.352 10.0859V10.1641H872.087L872.096 10.0762C872.136 8.80664 873.112 7.85938 874.557 7.85938C875.807 7.85938 876.686 8.67969 876.696 9.83203V9.85156C876.696 10.8281 876.315 11.5215 874.499 13.2207L869.518 17.8789V19.9004ZM887.133 20.1445C890.424 20.1445 892.611 18.4453 892.611 15.9258V15.9062C892.611 13.9922 891.244 12.7812 889.154 12.5859V12.5273C890.805 12.1855 892.094 11.043 892.094 9.28516V9.26562C892.094 7.04883 890.141 5.56445 887.104 5.56445C884.145 5.56445 882.162 7.16602 881.967 9.60742L881.957 9.72461H884.662L884.672 9.63672C884.789 8.54297 885.727 7.83008 887.104 7.83008C888.49 7.83008 889.301 8.51367 889.301 9.65625V9.67578C889.301 10.8184 888.344 11.5996 886.869 11.5996H885.297V13.6992H886.908C888.607 13.6992 889.613 14.4414 889.613 15.7891V15.8086C889.613 16.9609 888.637 17.7715 887.123 17.7715C885.6 17.7715 884.604 17.0195 884.477 16.0137L884.457 15.9062H881.645L881.654 16.0332C881.85 18.4648 883.939 20.1445 887.133 20.1445Z" fill="#6B7688"/>
<path d="M709.522 153.216C710.42 153.216 711.25 153.089 712.002 152.835L713.038 154.29H715.84L714.004 151.712C715.489 150.452 716.319 148.46 716.319 145.931V145.911C716.319 141.438 713.702 138.636 709.522 138.636C705.352 138.636 702.725 141.429 702.725 145.911V145.931C702.725 150.413 705.332 153.216 709.522 153.216ZM709.522 150.716C707.207 150.716 705.733 148.88 705.733 145.931V145.911C705.733 142.962 707.217 141.136 709.522 141.136C711.836 141.136 713.301 142.972 713.301 145.911V145.931C713.301 147.356 712.959 148.528 712.334 149.349L711.485 148.138H708.682L710.43 150.608C710.147 150.677 709.834 150.716 709.522 150.716ZM725.066 152.972H727.869V150.384H729.724V148.03H727.869V138.88H723.709L718.054 147.923V150.384H725.066V152.972ZM720.623 148.108V148.03L725.056 141.009H725.125V148.108H720.623Z" fill="#6B7688"/>
<path d="M650.995 280.047V280.096H653.729V280.047C653.729 278.748 654.735 277.791 656.102 277.791C657.411 277.791 658.338 278.631 658.338 279.686C658.338 280.662 657.899 281.375 656.473 282.801L651.161 287.918V289.9H661.405V287.557H655.047V287.498L658.485 284.188C660.037 282.645 661.209 281.326 661.209 279.568C661.209 277.215 659.168 275.496 656.2 275.496C653.123 275.496 650.995 277.381 650.995 280.047ZM668.99 290.213C672.535 290.213 674.683 287.371 674.683 282.82C674.683 278.27 672.515 275.486 668.99 275.486C665.464 275.486 663.287 278.279 663.287 282.83C663.287 287.391 665.445 290.213 668.99 290.213ZM668.99 287.85C667.31 287.85 666.285 286.033 666.285 282.83C666.285 279.656 667.33 277.85 668.99 277.85C670.66 277.85 671.685 279.646 671.685 282.83C671.685 286.043 670.67 287.85 668.99 287.85ZM676.536 280.047V280.096H679.27V280.047C679.27 278.748 680.276 277.791 681.643 277.791C682.952 277.791 683.88 278.631 683.88 279.686C683.88 280.662 683.44 281.375 682.014 282.801L676.702 287.918V289.9H686.946V287.557H680.589V287.498L684.026 284.188C685.579 282.645 686.751 281.326 686.751 279.568C686.751 277.215 684.71 275.496 681.741 275.496C678.665 275.496 676.536 277.381 676.536 280.047ZM688.906 280.047V280.096H691.641V280.047C691.641 278.748 692.646 277.791 694.014 277.791C695.322 277.791 696.25 278.631 696.25 279.686C696.25 280.662 695.811 281.375 694.385 282.801L689.072 287.918V289.9H699.316V287.557H692.959V287.498L696.396 284.188C697.949 282.645 699.121 281.326 699.121 279.568C699.121 277.215 697.08 275.496 694.111 275.496C691.035 275.496 688.906 277.381 688.906 280.047Z" fill="#6B7688"/>
</g>
<defs>
<clipPath id="clip0_59_106">
<rect width="1170" height="294" fill="white" transform="translate(0.193359 0.900391)"/>
</clipPath>
</defs>
</svg>
