<svg width="173" height="1172" viewBox="0 0 173 1172" fill="none" xmlns="http://www.w3.org/2000/svg">
<path d="M27.1221 1L27.1221 1171" stroke="#EAECF2" stroke-width="2" stroke-miterlimit="10" stroke-linecap="round"/>
<path d="M27.1221 1L27.1221 538.925" stroke="#257CFF" stroke-width="2" stroke-miterlimit="10" stroke-linecap="round"/>
<path d="M0.493598 127.574C0.493597 142.246 12.3981 154.14 27.0831 154.14C41.7681 154.14 53.6726 142.246 53.6726 127.574C53.6726 112.902 41.7681 101.008 27.0831 101.008C12.3981 101.008 0.493598 112.902 0.493598 127.574Z" fill="#257CFF"/>
<path d="M53.6726 127.574L169.95 127.574" stroke="#6B7688" stroke-width="0.25" stroke-miterlimit="10"/>
<path d="M169.95 129.913C168.71 129.913 167.746 128.95 167.746 127.711C167.746 126.472 168.71 125.509 169.95 125.509C171.19 125.509 172.154 126.472 172.154 127.711C172.154 128.812 171.19 129.913 169.95 129.913Z" fill="#6B7688"/>
<path d="M1.00001 330.665C1.00001 345.337 12.9045 357.231 27.5895 357.231C42.2745 357.231 54.179 345.337 54.179 330.665C54.179 315.994 42.2745 304.1 27.5895 304.1C12.9045 304.1 1.00001 315.994 1.00001 330.665Z" fill="#257CFF"/>
<path d="M54.179 330.666L170.456 330.666" stroke="#6B7688" stroke-width="0.25" stroke-miterlimit="10"/>
<path d="M170.456 333.005C169.216 333.005 168.252 332.042 168.252 330.803C168.252 329.564 169.216 328.601 170.456 328.601C171.696 328.601 172.661 329.564 172.661 330.803C172.661 331.904 171.696 333.005 170.456 333.005Z" fill="#6B7688"/>
<path d="M0.53263 910.081C0.532629 924.753 12.4371 936.647 27.1221 936.647C41.8071 936.647 53.7116 924.753 53.7116 910.081C53.7116 895.41 41.8071 883.516 27.1221 883.516C12.4371 883.516 0.53263 895.41 0.53263 910.081Z" fill="#F1F2F6"/>
<path d="M53.7116 910.081L169.989 910.081" stroke="#6B7688" stroke-width="0.25" stroke-miterlimit="10"/>
<path d="M169.989 912.284C168.749 912.284 167.785 911.32 167.785 910.081C167.785 908.842 168.749 907.879 169.989 907.879C171.229 907.879 172.193 908.842 172.193 910.081C172.193 911.32 171.229 912.284 169.989 912.284Z" fill="#6B7688"/>
<path d="M6.46816e-06 716.665C5.82683e-06 731.337 11.9045 743.231 26.5895 743.231C41.2745 743.231 53.179 731.337 53.179 716.665C53.179 701.994 41.2745 690.1 26.5895 690.1C11.9045 690.1 7.10949e-06 701.994 6.46816e-06 716.665Z" fill="#F1F2F6"/>
<path d="M53.179 716.665L169.456 716.665" stroke="#6B7688" stroke-width="0.25" stroke-miterlimit="10"/>
<path d="M169.456 718.868C168.216 718.868 167.252 717.904 167.252 716.665C167.252 715.426 168.216 714.463 169.456 714.463C170.696 714.463 171.661 715.426 171.661 716.665C171.661 717.904 170.696 718.868 169.456 718.868Z" fill="#6B7688"/>
<path d="M0.532615 523.824C0.532614 538.496 12.4371 550.39 27.1221 550.39C41.8071 550.39 53.7116 538.496 53.7116 523.824C53.7116 509.152 41.8071 497.258 27.1221 497.258C12.4371 497.258 0.532615 509.152 0.532615 523.824Z" fill="#EEF5FF"/>
<path d="M53.7116 523.823L169.989 523.823" stroke="#257CFF" stroke-width="0.25" stroke-miterlimit="10"/>
<path d="M169.989 526.301C168.749 526.301 167.785 525.338 167.785 524.099C167.785 522.86 168.749 521.896 169.989 521.896C171.229 521.896 172.193 522.86 172.193 524.099C172.193 525.338 171.229 526.301 169.989 526.301Z" fill="#257CFF"/>
<path d="M22.5613 135.344C23.4598 135.344 24.2898 135.217 25.0418 134.963L26.077 136.418H28.8797L27.0438 133.84C28.5281 132.58 29.3582 130.588 29.3582 128.059V128.039C29.3582 123.566 26.741 120.764 22.5613 120.764C18.3914 120.764 15.7645 123.557 15.7645 128.039V128.059C15.7645 132.541 18.3719 135.344 22.5613 135.344ZM22.5613 132.844C20.2469 132.844 18.7723 131.008 18.7723 128.059V128.039C18.7723 125.09 20.2566 123.264 22.5613 123.264C24.8758 123.264 26.3406 125.1 26.3406 128.039V128.059C26.3406 129.484 25.9988 130.656 25.3738 131.477L24.5242 130.266H21.7215L23.4695 132.736C23.1863 132.805 22.8738 132.844 22.5613 132.844ZM34.9121 135.1H37.832V121.008H34.9023L31.2598 123.537V126.154L34.8535 123.713H34.9121V135.1Z" fill="white"/>
<path d="M21.8148 338.344C22.7133 338.344 23.5433 338.217 24.2953 337.963L25.3305 339.418H28.1332L26.2973 336.84C27.7816 335.58 28.6117 333.588 28.6117 331.059V331.039C28.6117 326.566 25.9945 323.764 21.8148 323.764C17.6449 323.764 15.018 326.557 15.018 331.039V331.059C15.018 335.541 17.6254 338.344 21.8148 338.344ZM21.8148 335.844C19.5004 335.844 18.0258 334.008 18.0258 331.059V331.039C18.0258 328.09 19.5101 326.264 21.8148 326.264C24.1293 326.264 25.5941 328.1 25.5941 331.039V331.059C25.5941 332.484 25.2523 333.656 24.6273 334.477L23.7777 333.266H20.975L22.723 335.736C22.4398 335.805 22.1273 335.844 21.8148 335.844ZM30.6402 338.1H40.8844V335.756H34.4976V335.639L37.4469 332.943C39.8785 330.707 40.689 329.594 40.689 327.885V327.865C40.689 325.463 38.6383 323.764 35.6598 323.764C32.6812 323.764 30.4742 325.629 30.4742 328.285V328.363H33.2086L33.2183 328.275C33.2574 327.006 34.234 326.059 35.6793 326.059C36.9293 326.059 37.8082 326.879 37.818 328.031V328.051C37.818 329.027 37.4371 329.721 35.6207 331.42L30.6402 336.078V338.1Z" fill="white"/>
<path d="M20.5512 531.344C21.4496 531.344 22.2797 531.217 23.0317 530.963L24.0668 532.418H26.8695L25.0336 529.84C26.518 528.58 27.3481 526.588 27.3481 524.059V524.039C27.3481 519.566 24.7309 516.764 20.5512 516.764C16.3813 516.764 13.7543 519.557 13.7543 524.039V524.059C13.7543 528.541 16.3617 531.344 20.5512 531.344ZM20.5512 528.844C18.2367 528.844 16.7621 527.008 16.7621 524.059V524.039C16.7621 521.09 18.2465 519.264 20.5512 519.264C22.8656 519.264 24.3305 521.1 24.3305 524.039V524.059C24.3305 525.484 23.9887 526.656 23.3637 527.477L22.5141 526.266H19.7113L21.4594 528.736C21.1762 528.805 20.8637 528.844 20.5512 528.844ZM34.6207 531.344C37.9117 531.344 40.0992 529.645 40.0992 527.125V527.105C40.0992 525.191 38.732 523.98 36.6422 523.785V523.727C38.2926 523.385 39.5817 522.242 39.5817 520.484V520.465C39.5817 518.248 37.6285 516.764 34.5914 516.764C31.6324 516.764 29.65 518.365 29.4547 520.807L29.4449 520.924H32.15L32.1598 520.836C32.277 519.742 33.2145 519.029 34.5914 519.029C35.9781 519.029 36.7887 519.713 36.7887 520.855V520.875C36.7887 522.018 35.8317 522.799 34.357 522.799H32.7848V524.898H34.3961C36.0953 524.898 37.1012 525.641 37.1012 526.988V527.008C37.1012 528.16 36.1246 528.971 34.611 528.971C33.0875 528.971 32.0914 528.219 31.9645 527.213L31.9449 527.105H29.1324L29.1422 527.232C29.3375 529.664 31.4274 531.344 34.6207 531.344Z" fill="#257CFF"/>
<path d="M18.8754 724.344C19.7738 724.344 20.6039 724.217 21.3559 723.963L22.391 725.418H25.1938L23.3578 722.84C24.8422 721.58 25.6723 719.588 25.6723 717.059V717.039C25.6723 712.566 23.0551 709.764 18.8754 709.764C14.7055 709.764 12.0785 712.557 12.0785 717.039V717.059C12.0785 721.541 14.6859 724.344 18.8754 724.344ZM18.8754 721.844C16.5609 721.844 15.0863 720.008 15.0863 717.059V717.039C15.0863 714.09 16.5707 712.264 18.8754 712.264C21.1898 712.264 22.6547 714.1 22.6547 717.039V717.059C22.6547 718.484 22.3129 719.656 21.6879 720.477L20.8383 719.266H18.0355L19.7836 721.736C19.5004 721.805 19.1879 721.844 18.8754 721.844ZM34.4195 724.1H37.2223V721.512H39.0777V719.158H37.2223V710.008H33.0621L27.4078 719.051V721.512H34.4195V724.1ZM29.9762 719.236V719.158L34.4098 712.137H34.4781V719.236H29.9762Z" fill="#6B7688"/>
<path d="M20.6293 917.344C21.518 917.344 22.3383 917.217 23.0902 916.953L24.0961 918.428H26.9574L25.1703 915.732C26.6254 914.531 27.4164 912.539 27.4164 910.059C27.4164 905.576 24.7992 902.764 20.6293 902.764C16.4496 902.764 13.8324 905.576 13.8324 910.059C13.8324 914.58 16.4496 917.344 20.6293 917.344ZM20.6293 914.902C18.3148 914.902 16.8402 913.008 16.8402 910.059C16.8402 907.1 18.3148 905.195 20.6293 905.195C22.934 905.195 24.4086 907.1 24.4086 910.059C24.4086 911.416 24.0375 912.539 23.3734 913.301L22.7582 912.461H20.0922L21.6351 914.766C21.3226 914.854 20.9906 914.902 20.6293 914.902ZM34.816 917.412C38.0484 917.412 40.2555 915.381 40.2555 912.393C40.2555 909.648 38.3219 907.666 35.6265 907.666C34.191 907.666 33.068 908.262 32.4918 909.209H32.4332L32.7555 905.352H39.4058V903.008H30.441L29.7476 911.113H32.3844C32.8726 910.303 33.7906 909.814 34.8551 909.814C36.3785 909.814 37.443 910.908 37.443 912.471C37.443 914.004 36.3785 915.078 34.8355 915.078C33.4683 915.078 32.4137 914.258 32.2476 913.066H29.523C29.6109 915.615 31.7887 917.412 34.816 917.412Z" fill="#6B7688"/>
</svg>
