<svg width="295" height="1171" viewBox="0 0 295 1171" fill="none" xmlns="http://www.w3.org/2000/svg">
<g clip-path="url(#clip0_59_167)">
<path d="M149.122 0.900391L149.122 1170.9" stroke="#EAECF2" stroke-width="2" stroke-miterlimit="10" stroke-linecap="round"/>
<path d="M149.122 0.900391L149.122 538.825" stroke="#257CFF" stroke-width="2" stroke-miterlimit="10" stroke-linecap="round"/>
<path d="M122.494 127.474C122.494 142.146 134.398 154.04 149.083 154.04C163.768 154.04 175.673 142.146 175.673 127.474C175.673 112.802 163.768 100.908 149.083 100.908C134.398 100.908 122.494 112.802 122.494 127.474Z" fill="#257CFF"/>
<path d="M175.673 127.474L291.95 127.474" stroke="#6B7688" stroke-width="0.25" stroke-miterlimit="10"/>
<path d="M291.95 129.814C290.71 129.814 289.746 128.85 289.746 127.612C289.746 126.373 290.71 125.409 291.95 125.409C293.19 125.409 294.154 126.373 294.154 127.612C294.154 128.713 293.19 129.814 291.95 129.814Z" fill="#6B7688"/>
<path d="M0.193487 330.591L124.737 330.591" stroke="#6B7688" stroke-width="0.25" stroke-miterlimit="10"/>
<path d="M3.08645 332.794C1.84653 332.794 0.882153 331.83 0.882153 330.592C0.882153 329.353 1.84653 328.389 3.08645 328.389C4.32638 328.389 5.29077 329.353 5.29077 330.592C5.29077 331.83 4.32638 332.794 3.08645 332.794Z" fill="#6B7688"/>
<path d="M122.533 330.591C122.533 345.263 134.437 357.157 149.122 357.157C163.807 357.157 175.712 345.263 175.712 330.591C175.712 315.919 163.807 304.025 149.122 304.025C134.437 304.025 122.533 315.919 122.533 330.591Z" fill="#257CFF"/>
<path d="M0.193487 716.713L124.737 716.713" stroke="#6B7688" stroke-width="0.25" stroke-miterlimit="10"/>
<path d="M3.08645 719.054C1.84653 719.054 0.882153 718.09 0.882153 716.851C0.882153 715.612 1.84653 714.649 3.08645 714.649C4.32638 714.649 5.29077 715.612 5.29077 716.851C5.29077 718.09 4.32638 719.054 3.08645 719.054Z" fill="#6B7688"/>
<path d="M122.533 716.852C122.533 731.523 134.437 743.417 149.122 743.417C163.807 743.417 175.712 731.523 175.712 716.852C175.712 702.18 163.807 690.286 149.122 690.286C134.437 690.286 122.533 702.18 122.533 716.852Z" fill="#F1F2F6"/>
<path d="M122.533 909.982C122.533 924.654 134.437 936.548 149.122 936.548C163.807 936.548 175.712 924.654 175.712 909.982C175.712 895.31 163.807 883.416 149.122 883.416C134.437 883.416 122.533 895.31 122.533 909.982Z" fill="#F1F2F6"/>
<path d="M175.712 909.981L291.989 909.981" stroke="#6B7688" stroke-width="0.25" stroke-miterlimit="10"/>
<path d="M291.989 912.184C290.749 912.184 289.785 911.22 289.785 909.982C289.785 908.743 290.749 907.779 291.989 907.779C293.229 907.779 294.193 908.743 294.193 909.982C294.193 911.22 293.229 912.184 291.989 912.184Z" fill="#6B7688"/>
<path d="M122.533 523.724C122.533 538.396 134.437 550.29 149.122 550.29C163.807 550.29 175.712 538.396 175.712 523.724C175.712 509.052 163.807 497.158 149.122 497.158C134.437 497.158 122.533 509.052 122.533 523.724Z" fill="#EEF5FF"/>
<path d="M175.712 523.724L291.989 523.724" stroke="#257CFF" stroke-width="0.25" stroke-miterlimit="10"/>
<path d="M291.989 526.202C290.749 526.202 289.785 525.238 289.785 523.999C289.785 522.76 290.749 521.797 291.989 521.797C293.229 521.797 294.193 522.76 294.193 523.999C294.193 525.238 293.229 526.202 291.989 526.202Z" fill="#257CFF"/>
<path d="M144.561 134.244C145.45 134.244 146.27 134.117 147.022 133.854L148.028 135.328L150.889 135.328L149.102 132.633C150.557 131.432 151.348 129.439 151.348 126.959C151.348 122.477 148.731 119.664 144.561 119.664C140.382 119.664 137.764 122.477 137.764 126.959C137.764 131.48 140.382 134.244 144.561 134.244ZM144.561 131.803C142.247 131.803 140.772 129.908 140.772 126.959C140.772 124 142.247 122.096 144.561 122.096C146.866 122.096 148.341 124 148.341 126.959C148.341 128.316 147.97 129.439 147.305 130.201L146.69 129.361L144.024 129.361L145.567 131.666C145.255 131.754 144.923 131.803 144.561 131.803ZM156.912 134L159.832 134L159.832 119.908L156.902 119.908L153.26 122.438L153.26 125.094L156.854 122.613L156.912 122.613L156.912 134Z" fill="white"/>
<path d="M221.848 110.146L221.848 110.195L224.582 110.195L224.582 110.146C224.582 108.848 225.588 107.891 226.955 107.891C228.264 107.891 229.192 108.73 229.192 109.785C229.192 110.762 228.752 111.475 227.327 112.9L222.014 118.018L222.014 120L232.258 120L232.258 117.656L225.901 117.656L225.901 117.598L229.338 114.287C230.891 112.744 232.063 111.426 232.063 109.668C232.063 107.314 230.022 105.596 227.053 105.596C223.977 105.596 221.848 107.48 221.848 110.146ZM239.843 120.313C243.388 120.313 245.537 117.471 245.537 112.92C245.537 108.369 243.369 105.586 239.843 105.586C236.318 105.586 234.14 108.379 234.14 112.93C234.14 117.49 236.298 120.313 239.843 120.313ZM239.843 117.949C238.164 117.949 237.138 116.133 237.138 112.93C237.138 109.756 238.183 107.949 239.843 107.949C241.513 107.949 242.539 109.746 242.539 112.93C242.539 116.143 241.523 117.949 239.843 117.949ZM247.389 110.146L247.389 110.195L250.124 110.195L250.124 110.146C250.124 108.848 251.13 107.891 252.497 107.891C253.805 107.891 254.733 108.73 254.733 109.785C254.733 110.762 254.294 111.475 252.868 112.9L247.555 118.018L247.555 120L257.8 120L257.8 117.656L251.442 117.656L251.442 117.598L254.88 114.287C256.432 112.744 257.604 111.426 257.604 109.668C257.604 107.314 255.563 105.596 252.595 105.596C249.518 105.596 247.389 107.48 247.389 110.146ZM259.76 110.146L259.76 110.195L262.494 110.195L262.494 110.146C262.494 108.848 263.5 107.891 264.867 107.891C266.176 107.891 267.104 108.73 267.104 109.785C267.104 110.762 266.664 111.475 265.238 112.9L259.926 118.018L259.926 120L270.17 120L270.17 117.656L263.812 117.656L263.812 117.598L267.25 114.287C268.803 112.744 269.975 111.426 269.975 109.668C269.975 107.314 267.934 105.596 264.965 105.596C261.889 105.596 259.76 107.48 259.76 110.146Z" fill="black"/>
<path d="M142.815 338.244C143.704 338.244 144.524 338.117 145.276 337.854L146.282 339.328H149.143L147.356 336.633C148.811 335.432 149.602 333.439 149.602 330.959C149.602 326.477 146.985 323.664 142.815 323.664C138.635 323.664 136.018 326.477 136.018 330.959C136.018 335.48 138.635 338.244 142.815 338.244ZM142.815 335.803C140.5 335.803 139.026 333.908 139.026 330.959C139.026 328 140.5 326.096 142.815 326.096C145.12 326.096 146.594 328 146.594 330.959C146.594 332.316 146.223 333.439 145.559 334.201L144.944 333.361H142.278L143.821 335.666C143.508 335.754 143.176 335.803 142.815 335.803ZM151.474 328.146V328.195H154.209V328.146C154.209 326.848 155.214 325.891 156.582 325.891C157.89 325.891 158.818 326.73 158.818 327.785C158.818 328.762 158.379 329.475 156.953 330.9L151.64 336.018V338H161.884V335.656H155.527V335.598L158.964 332.287C160.517 330.744 161.689 329.426 161.689 327.668C161.689 325.314 159.648 323.596 156.679 323.596C153.603 323.596 151.474 325.48 151.474 328.146Z" fill="white"/>
<path d="M13.848 316.075V316.124H16.5824V316.075C16.5824 314.776 17.5883 313.819 18.9555 313.819C20.2641 313.819 21.1918 314.659 21.1918 315.714C21.1918 316.69 20.7523 317.403 19.3266 318.829L14.0141 323.946V325.929H24.2582V323.585H17.9008V323.526L21.3383 320.216C22.891 318.673 24.0629 317.354 24.0629 315.597C24.0629 313.243 22.0219 311.524 19.0531 311.524C15.977 311.524 13.848 313.409 13.848 316.075ZM31.8434 326.241C35.3883 326.241 37.5367 323.399 37.5367 318.849C37.5367 314.298 35.3687 311.515 31.8434 311.515C28.318 311.515 26.1402 314.308 26.1402 318.858C26.1402 323.419 28.2984 326.241 31.8434 326.241ZM31.8434 323.878C30.1637 323.878 29.1383 322.062 29.1383 318.858C29.1383 315.685 30.1832 313.878 31.8434 313.878C33.5133 313.878 34.5387 315.675 34.5387 318.858C34.5387 322.071 33.523 323.878 31.8434 323.878ZM39.3895 316.075V316.124H42.1238V316.075C42.1238 314.776 43.1297 313.819 44.4969 313.819C45.8055 313.819 46.7332 314.659 46.7332 315.714C46.7332 316.69 46.2937 317.403 44.868 318.829L39.5555 323.946V325.929H49.7996V323.585H43.4422V323.526L46.8797 320.216C48.4324 318.673 49.6043 317.354 49.6043 315.597C49.6043 313.243 47.5633 311.524 44.5945 311.524C41.5184 311.524 39.3895 313.409 39.3895 316.075ZM51.7598 316.075V316.124H54.4941V316.075C54.4941 314.776 55.5 313.819 56.8672 313.819C58.1758 313.819 59.1035 314.659 59.1035 315.714C59.1035 316.69 58.6641 317.403 57.2383 318.829L51.9258 323.946V325.929H62.1699V323.585H55.8125V323.526L59.25 320.216C60.8027 318.673 61.9746 317.354 61.9746 315.597C61.9746 313.243 59.9336 311.524 56.9648 311.524C53.8887 311.524 51.7598 313.409 51.7598 316.075Z" fill="black"/>
<path d="M142.551 531.244C143.44 531.244 144.26 531.117 145.012 530.854L146.018 532.328L148.879 532.328L147.092 529.633C148.547 528.432 149.338 526.439 149.338 523.959C149.338 519.477 146.721 516.664 142.551 516.664C138.371 516.664 135.754 519.477 135.754 523.959C135.754 528.48 138.371 531.244 142.551 531.244ZM142.551 528.803C140.237 528.803 138.762 526.908 138.762 523.959C138.762 521 140.237 519.096 142.551 519.096C144.856 519.096 146.33 521 146.33 523.959C146.33 525.316 145.959 526.439 145.295 527.201L144.68 526.361L142.014 526.361L143.557 528.666C143.245 528.754 142.912 528.803 142.551 528.803ZM154.804 524.848L156.543 524.848C158.134 524.848 159.101 525.629 159.101 526.918C159.101 528.109 158.066 528.939 156.591 528.939C155.039 528.939 154.062 528.158 153.974 526.967L151.152 526.967C151.289 529.564 153.369 531.313 156.552 531.313C159.804 531.313 162.099 529.633 162.099 527.104C162.099 525.15 160.742 523.881 158.642 523.705L158.642 523.646C160.371 523.334 161.552 522.084 161.552 520.355C161.552 518.1 159.55 516.596 156.621 516.596C153.564 516.596 151.533 518.295 151.425 520.902L154.14 520.902C154.218 519.672 155.127 518.861 156.494 518.861C157.959 518.861 158.769 519.613 158.769 520.756C158.769 521.918 157.861 522.719 156.513 522.719L154.804 522.719L154.804 524.848Z" fill="#257CFF"/>
<path d="M221.848 506.146L221.848 506.195L224.582 506.195L224.582 506.146C224.582 504.848 225.588 503.891 226.955 503.891C228.264 503.891 229.192 504.73 229.192 505.785C229.192 506.762 228.752 507.475 227.327 508.9L222.014 514.018L222.014 516L232.258 516L232.258 513.656L225.901 513.656L225.901 513.598L229.338 510.287C230.891 508.744 232.063 507.426 232.063 505.668C232.063 503.314 230.022 501.596 227.053 501.596C223.977 501.596 221.848 503.48 221.848 506.146ZM239.843 516.313C243.388 516.313 245.537 513.471 245.537 508.92C245.537 504.369 243.369 501.586 239.843 501.586C236.318 501.586 234.14 504.379 234.14 508.93C234.14 513.49 236.298 516.313 239.843 516.313ZM239.843 513.949C238.164 513.949 237.138 512.133 237.138 508.93C237.138 505.756 238.183 503.949 239.843 503.949C241.513 503.949 242.539 505.746 242.539 508.93C242.539 512.143 241.523 513.949 239.843 513.949ZM247.389 506.146L247.389 506.195L250.124 506.195L250.124 506.146C250.124 504.848 251.13 503.891 252.497 503.891C253.805 503.891 254.733 504.73 254.733 505.785C254.733 506.762 254.294 507.475 252.868 508.9L247.555 514.018L247.555 516L257.8 516L257.8 513.656L251.442 513.656L251.442 513.598L254.88 510.287C256.432 508.744 257.604 507.426 257.604 505.668C257.604 503.314 255.563 501.596 252.595 501.596C249.518 501.596 247.389 503.48 247.389 506.146ZM259.76 506.146L259.76 506.195L262.494 506.195L262.494 506.146C262.494 504.848 263.5 503.891 264.867 503.891C266.176 503.891 267.104 504.73 267.104 505.785C267.104 506.762 266.664 507.475 265.238 508.9L259.926 514.018L259.926 516L270.17 516L270.17 513.656L263.812 513.656L263.812 513.598L267.25 510.287C268.803 508.744 269.975 507.426 269.975 505.668C269.975 503.314 267.934 501.596 264.965 501.596C261.889 501.596 259.76 503.48 259.76 506.146Z" fill="#257CFF"/>
<path d="M143.545 917.244C144.434 917.244 145.254 917.117 146.006 916.854L147.012 918.328H149.873L148.086 915.633C149.541 914.432 150.332 912.439 150.332 909.959C150.332 905.477 147.715 902.664 143.545 902.664C139.366 902.664 136.748 905.477 136.748 909.959C136.748 914.48 139.366 917.244 143.545 917.244ZM143.545 914.803C141.231 914.803 139.756 912.908 139.756 909.959C139.756 907 141.231 905.096 143.545 905.096C145.85 905.096 147.325 907 147.325 909.959C147.325 911.316 146.954 912.439 146.289 913.201L145.674 912.361H143.008L144.551 914.666C144.239 914.754 143.907 914.803 143.545 914.803ZM155.896 917H158.816V902.908H155.886L152.244 905.438V908.094L155.838 905.613H155.896V917Z" fill="#6B7688"/>
<path d="M221.321 892.146V892.195H224.055V892.146C224.055 890.848 225.061 889.891 226.428 889.891C227.737 889.891 228.664 890.73 228.664 891.785C228.664 892.762 228.225 893.475 226.799 894.9L221.487 900.018V902H231.731V899.656H225.373V899.598L228.811 896.287C230.364 894.744 231.536 893.426 231.536 891.668C231.536 889.314 229.495 887.596 226.526 887.596C223.45 887.596 221.321 889.48 221.321 892.146ZM239.316 902.312C242.861 902.312 245.009 899.471 245.009 894.92C245.009 890.369 242.841 887.586 239.316 887.586C235.791 887.586 233.613 890.379 233.613 894.93C233.613 899.49 235.771 902.312 239.316 902.312ZM239.316 899.949C237.636 899.949 236.611 898.133 236.611 894.93C236.611 891.756 237.656 889.949 239.316 889.949C240.986 889.949 242.011 891.746 242.011 894.93C242.011 898.143 240.996 899.949 239.316 899.949ZM246.862 892.146V892.195H249.596V892.146C249.596 890.848 250.602 889.891 251.97 889.891C253.278 889.891 254.206 890.73 254.206 891.785C254.206 892.762 253.766 893.475 252.341 894.9L247.028 900.018V902H257.272V899.656H250.915V899.598L254.352 896.287C255.905 894.744 257.077 893.426 257.077 891.668C257.077 889.314 255.036 887.596 252.067 887.596C248.991 887.596 246.862 889.48 246.862 892.146ZM262.826 895.848H264.564C266.156 895.848 267.123 896.629 267.123 897.918C267.123 899.109 266.088 899.939 264.613 899.939C263.061 899.939 262.084 899.158 261.996 897.967H259.174C259.311 900.564 261.391 902.312 264.574 902.312C267.826 902.312 270.121 900.633 270.121 898.104C270.121 896.15 268.764 894.881 266.664 894.705V894.646C268.393 894.334 269.574 893.084 269.574 891.355C269.574 889.1 267.572 887.596 264.643 887.596C261.586 887.596 259.555 889.295 259.447 891.902H262.162C262.24 890.672 263.148 889.861 264.516 889.861C265.98 889.861 266.791 890.613 266.791 891.756C266.791 892.918 265.883 893.719 264.535 893.719H262.826V895.848Z" fill="#6B7688"/>
<path d="M141.866 724.244C142.754 724.244 143.575 724.117 144.327 723.854L145.332 725.328H148.194L146.407 722.633C147.862 721.432 148.653 719.439 148.653 716.959C148.653 712.477 146.036 709.664 141.866 709.664C137.686 709.664 135.069 712.477 135.069 716.959C135.069 721.48 137.686 724.244 141.866 724.244ZM141.866 721.803C139.551 721.803 138.077 719.908 138.077 716.959C138.077 714 139.551 712.096 141.866 712.096C144.17 712.096 145.645 714 145.645 716.959C145.645 718.316 145.274 719.439 144.61 720.201L143.995 719.361H141.329L142.871 721.666C142.559 721.754 142.227 721.803 141.866 721.803ZM157.41 724H160.213V721.49H162.048V719.127H160.213V709.908H156.052C153.162 714.166 151.629 716.637 150.398 718.98V721.49H157.41V724ZM152.986 719.137C154.129 716.93 155.359 715.006 157.41 711.998H157.468V719.215H152.986V719.137Z" fill="#6B7688"/>
<path d="M12.848 700.075V700.124H15.5824V700.075C15.5824 698.776 16.5883 697.819 17.9555 697.819C19.2641 697.819 20.1918 698.659 20.1918 699.714C20.1918 700.69 19.7523 701.403 18.3266 702.829L13.0141 707.946V709.929H23.2582V707.585H16.9008V707.526L20.3383 704.216C21.891 702.673 23.0629 701.354 23.0629 699.597C23.0629 697.243 21.0219 695.524 18.0531 695.524C14.977 695.524 12.848 697.409 12.848 700.075ZM30.8434 710.241C34.3883 710.241 36.5367 707.399 36.5367 702.849C36.5367 698.298 34.3687 695.515 30.8434 695.515C27.318 695.515 25.1402 698.308 25.1402 702.858C25.1402 707.419 27.2984 710.241 30.8434 710.241ZM30.8434 707.878C29.1637 707.878 28.1383 706.062 28.1383 702.858C28.1383 699.685 29.1832 697.878 30.8434 697.878C32.5133 697.878 33.5387 699.675 33.5387 702.858C33.5387 706.071 32.523 707.878 30.8434 707.878ZM38.3895 700.075V700.124H41.1238V700.075C41.1238 698.776 42.1297 697.819 43.4969 697.819C44.8055 697.819 45.7332 698.659 45.7332 699.714C45.7332 700.69 45.2937 701.403 43.868 702.829L38.5555 707.946V709.929H48.7996V707.585H42.4422V707.526L45.8797 704.216C47.4324 702.673 48.6043 701.354 48.6043 699.597C48.6043 697.243 46.5633 695.524 43.5945 695.524C40.5184 695.524 38.3895 697.409 38.3895 700.075ZM50.7598 700.075V700.124H53.4941V700.075C53.4941 698.776 54.5 697.819 55.8672 697.819C57.1758 697.819 58.1035 698.659 58.1035 699.714C58.1035 700.69 57.6641 701.403 56.2383 702.829L50.9258 707.946V709.929H61.1699V707.585H54.8125V707.526L58.25 704.216C59.8027 702.673 60.9746 701.354 60.9746 699.597C60.9746 697.243 58.9336 695.524 55.9648 695.524C52.8887 695.524 50.7598 697.409 50.7598 700.075Z" fill="#6B7688"/>
</g>
<defs>
<clipPath id="clip0_59_167">
<rect width="1170" height="294" fill="white" transform="translate(294.193 0.900391) rotate(90)"/>
</clipPath>
</defs>
</svg>
