<svg width="65" height="65" viewBox="0 0 65 65" fill="none" xmlns="http://www.w3.org/2000/svg">
<g clip-path="url(#clip0_673_4716)">
<path d="M64.1934 32.9004C64.1934 50.5804 49.8734 64.9004 32.1934 64.9004C14.5134 64.9004 0.193359 50.5804 0.193359 32.9004C0.193359 15.2204 14.5134 0.900391 32.1934 0.900391C49.8734 0.900391 64.1934 15.2204 64.1934 32.9004Z" fill="url(#paint0_linear_673_4716)"/>
<path d="M26.3272 47.5671C25.2872 47.5671 25.4739 47.1671 25.1005 46.1804L22.0605 36.1537L40.9405 24.3671L43.1539 24.9537L41.3139 29.9671L26.3272 47.5671Z" fill="#C8DAEA"/>
<path d="M26.3262 47.567C27.1262 47.567 27.4728 47.1937 27.9262 46.767C28.6195 46.1003 37.5262 37.4337 37.5262 37.4337L32.0595 36.1003L26.9928 39.3003L26.3262 47.3003V47.567Z" fill="#A9C9DD"/>
<path d="M26.8599 39.4071L39.7665 48.9271C41.2332 49.7271 42.2999 49.3271 42.6732 47.5671L47.9265 22.8204C48.4599 20.6604 47.0999 19.7004 45.6865 20.3404L14.8599 32.2337C12.7532 33.0871 12.7799 34.2604 14.4865 34.7671L22.4065 37.2471L40.7265 25.7004C41.5799 25.1671 42.3799 25.4604 41.7399 26.0471L26.8599 39.4071Z" fill="url(#paint1_linear_673_4716)"/>
</g>
<defs>
<linearGradient id="paint0_linear_673_4716" x1="41.572" y1="11.0151" x2="25.572" y2="48.3479" gradientUnits="userSpaceOnUse">
<stop stop-color="#37AEE2"/>
<stop offset="1" stop-color="#1E96C8"/>
</linearGradient>
<linearGradient id="paint1_linear_673_4716" x1="34.5908" y1="33.9017" x2="41.2575" y2="44.5684" gradientUnits="userSpaceOnUse">
<stop stop-color="#EFF7FC"/>
<stop offset="1" stop-color="white"/>
</linearGradient>
<clipPath id="clip0_673_4716">
<rect width="64" height="64" fill="white" transform="translate(0.193359 0.900391)"/>
</clipPath>
</defs>
</svg>
