<svg width="65" height="65" viewBox="0 0 65 65" fill="none" xmlns="http://www.w3.org/2000/svg">
<g clip-path="url(#clip0_673_4736)">
<path d="M32.1934 64.9005C49.8665 64.9005 64.1934 50.5736 64.1934 32.9005C64.1934 15.2273 49.8665 0.900452 32.1934 0.900452C14.5202 0.900452 0.193359 15.2273 0.193359 32.9005C0.193359 50.5736 14.5202 64.9005 32.1934 64.9005Z" fill="#2DAAE1"/>
<path d="M50.2407 21.704C48.9131 22.2931 47.4871 22.6914 45.9879 22.8704C47.518 21.9541 48.6902 20.5022 49.2437 18.7741C47.7902 19.6374 46.1994 20.2452 44.5406 20.571C43.1906 19.132 41.2656 18.2336 39.1358 18.2336C35.0478 18.2336 31.7324 21.5477 31.7324 25.638C31.7324 26.2176 31.7977 26.783 31.9232 27.3259C25.7693 27.0166 20.3135 24.0688 16.6616 19.5896C16.0239 20.6836 15.6589 21.9555 15.6589 23.3125C15.6589 25.8811 16.9663 28.1473 18.9528 29.4748C17.7768 29.4384 16.6267 29.121 15.5984 28.5491V28.6427C15.5984 32.2305 18.1504 35.2222 21.5379 35.9026C20.9156 36.0731 20.2625 36.1622 19.5869 36.1622C19.1093 36.1622 18.6458 36.1169 18.1931 36.0318C19.1353 38.9725 21.8699 41.1131 25.1091 41.1736C22.5749 43.1601 19.3818 44.3442 15.9137 44.3442C15.3164 44.3442 14.726 44.3086 14.1465 44.2387C17.4238 46.3402 21.3151 47.567 25.4967 47.567C39.1156 47.567 46.5639 36.2843 46.5639 26.4998C46.5639 26.1786 46.5568 25.8598 46.5413 25.5421C47.9925 24.4924 49.2452 23.1928 50.2407 21.704Z" fill="white"/>
</g>
<defs>
<clipPath id="clip0_673_4736">
<rect width="64" height="64" fill="white" transform="translate(0.193359 0.900391)"/>
</clipPath>
</defs>
</svg>
