<svg width="33" height="33" viewBox="0 0 33 33" fill="none" xmlns="http://www.w3.org/2000/svg">
<path d="M25.1973 7.90039V5.40039" stroke="#6B7688" stroke-width="2.5" stroke-linecap="round" stroke-linejoin="round"/>
<path d="M25.1979 7.90043L22.8203 7.12793" stroke="#6B7688" stroke-width="2.5" stroke-linecap="round" stroke-linejoin="round"/>
<path d="M25.198 7.90039L23.7285 9.92289" stroke="#6B7688" stroke-width="2.5" stroke-linecap="round" stroke-linejoin="round"/>
<path d="M25.1973 7.90039L26.6668 9.92289" stroke="#6B7688" stroke-width="2.5" stroke-linecap="round" stroke-linejoin="round"/>
<path d="M25.1973 7.90043L27.5749 7.12793" stroke="#6B7688" stroke-width="2.5" stroke-linecap="round" stroke-linejoin="round"/>
<path d="M23.525 16.1141C22.9265 17.4761 21.9599 18.6442 20.7339 19.4869C19.508 20.3297 18.0712 20.8137 16.5851 20.8846C15.0991 20.9555 13.6228 20.6105 12.3221 19.8883C11.0214 19.1661 9.94803 18.0954 9.22256 16.7965C8.49709 15.4977 8.14833 14.0222 8.2155 12.536C8.28267 11.0498 8.7631 9.61182 9.60277 8.38371C10.4424 7.1556 11.6081 6.18608 12.9686 5.58415C14.3291 4.98222 15.8305 4.77176 17.3041 4.97643M4.07031 27.8992C5.29976 25.7712 7.06758 24.0041 9.19617 22.7756C11.3248 21.5471 13.7392 20.9004 16.1968 20.9004C18.6545 20.9004 21.0689 21.5472 23.1975 22.7758C25.326 24.0043 27.0938 25.7714 28.3232 27.8995L4.07031 27.8992Z" stroke="#6B7688" stroke-width="2.5" stroke-linecap="round" stroke-linejoin="round"/>
</svg>
