<svg width="25" height="25" viewBox="0 0 25 25" fill="none" xmlns="http://www.w3.org/2000/svg">
<path fill-rule="evenodd" clip-rule="evenodd" d="M4.19922 6.1085C4.19922 4.30685 5.60345 2.7085 7.51261 2.7085H12.5417C13.5919 2.7085 14.6559 3.1003 15.4596 3.89934L15.4693 3.909L19.0858 7.60455C19.8875 8.40499 20.2948 9.57747 20.1802 10.6656V19.3085C20.1802 21.1101 18.7759 22.7085 16.8668 22.7085H7.51261C5.60345 22.7085 4.19922 21.1101 4.19922 19.3085V6.1085ZM7.51261 4.7085C6.80664 4.7085 6.19922 5.31015 6.19922 6.1085V19.3085C6.19922 20.1068 6.80664 20.7085 7.51261 20.7085H16.8668C17.5727 20.7085 18.1802 20.1068 18.1802 19.3085V10.6085C18.1802 10.5668 18.1828 10.5251 18.188 10.4838C18.2497 9.99306 18.0555 9.40052 17.6704 9.01765L17.6607 9.00799L14.0451 5.31333C13.6423 4.91519 13.0988 4.7085 12.5417 4.7085H7.51261Z" fill="#257CFF"/>
<path fill-rule="evenodd" clip-rule="evenodd" d="M8.19922 14.7085C8.19922 14.1562 8.64693 13.7085 9.19922 13.7085H15.1992C15.7515 13.7085 16.1992 14.1562 16.1992 14.7085C16.1992 15.2608 15.7515 15.7085 15.1992 15.7085H9.19922C8.64693 15.7085 8.19922 15.2608 8.19922 14.7085Z" fill="#257CFF"/>
<path fill-rule="evenodd" clip-rule="evenodd" d="M8.19922 17.7085C8.19922 17.1562 8.64693 16.7085 9.19922 16.7085H12.1992C12.7515 16.7085 13.1992 17.1562 13.1992 17.7085C13.1992 18.2608 12.7515 18.7085 12.1992 18.7085H9.19922C8.64693 18.7085 8.19922 18.2608 8.19922 17.7085Z" fill="#257CFF"/>
</svg>
