<svg width="14" height="14" viewBox="0 0 14 14" fill="none" xmlns="http://www.w3.org/2000/svg">
<path fill-rule="evenodd" clip-rule="evenodd" d="M6.3709 0.0248991C5.53678 0.10407 4.60388 0.370091 3.88183 0.734679C3.13484 1.11185 2.35291 1.70865 1.81711 2.31056C0.766119 3.49121 0.169755 4.85611 0.0257171 6.41062C-0.087385 7.63121 0.176675 9.00752 0.736961 10.1175C1.11407 10.8646 1.71076 11.6467 2.31257 12.1826C3.49301 13.2337 4.85768 13.8302 6.41192 13.9743C7.63231 14.0874 9.00838 13.8233 10.1182 13.2629C10.8652 12.8857 11.6471 12.2889 12.1829 11.687C13.2339 10.5064 13.8302 9.14148 13.9743 7.58697C14.0874 6.36638 13.8233 4.99007 13.263 3.88009C12.8859 3.13297 12.2892 2.35091 11.6874 1.81501C10.507 0.763841 9.14232 0.167375 7.58808 0.0233123C7.24628 -0.00836717 6.71411 -0.00768324 6.3709 0.0248991ZM10.6947 4.94937C11.2308 5.53577 11.2455 5.55503 11.1955 5.60213C11.1671 5.62881 10.0546 6.63908 8.7232 7.84714C7.39182 9.0552 6.2683 10.0752 6.22647 10.1138L6.15041 10.184L4.61958 8.65313L3.08875 7.12223L3.66974 6.54067L4.2507 5.95912L5.2256 6.9339C5.76179 7.47005 6.21116 7.90207 6.22415 7.89397C6.23717 7.88588 7.12172 7.08429 8.18983 6.1127C9.25794 5.14108 10.1342 4.34592 10.1371 4.34565C10.14 4.34538 10.391 4.61706 10.6947 4.94937Z" fill="white"/>
</svg>
