<svg width="343" height="343" viewBox="0 0 343 343" fill="none" xmlns="http://www.w3.org/2000/svg">
<g clip-path="url(#clip0_598_2583)">
<path d="M292.712 342.33H0.669678L20.7211 322.282H292.712V342.33Z" fill="#1DB86A"/>
<path d="M289.372 275.857H181.778V295.906H289.372V275.857Z" fill="#1DB86A"/>
<path d="M342.998 60.1515L103.036 300.114L0.506836 342.496L42.8854 239.962L282.847 0L342.998 60.1515Z" fill="#1DB86A"/>
<path d="M291.722 111.429L342.997 60.1536L282.848 0.00378039L231.572 51.2795L291.722 111.429Z" fill="#1DB86A"/>
<path d="M103.036 300.113L0.506592 342.496L42.8851 239.962L103.036 300.113Z" fill="#F9F9F8"/>
<path d="M283.949 119.193L298.125 105.017L237.975 44.8671L223.799 59.0435L283.949 119.193Z" fill="#424242"/>
<path d="M253.71 149.441L267.886 135.264L207.736 75.1146L193.56 89.2911L253.71 149.441Z" fill="#424242"/>
<path d="M11.5802 315.702L0.506592 342.496L27.2989 331.421L11.5802 315.702Z" fill="#36CC8F"/>
<path d="M19.4402 323.561L0.506592 342.495L27.2989 331.42L19.4402 323.561Z" fill="#00BA64"/>
<path d="M11.5802 315.702L0.506592 342.496L27.2989 331.421L11.5802 315.702Z" fill="#20C070"/>
</g>
<defs>
<clipPath id="clip0_598_2583">
<rect width="342.496" height="342.496" fill="white" transform="translate(0.503906)"/>
</clipPath>
</defs>
</svg>
