<svg width="214" height="38" viewBox="0 0 214 38" fill="none" xmlns="http://www.w3.org/2000/svg">
<path d="M1.44 3.128H5.952L21.28 21.368V3.128H24.8V27H21.344L7.648 10.584V27H4.224V6.488L1.44 3.128ZM35.4165 23.672H45.8165V27H32.1525V10.424H45.2085V13.72H35.4165V17.752C36.1418 17.3253 36.9418 17.0587 37.8165 16.952C38.7125 16.8453 39.6405 16.792 40.6005 16.792H43.0325V20.088H40.6005C39.8325 20.088 39.1925 20.1093 38.6805 20.152C38.1898 20.1733 37.7632 20.216 37.4005 20.28C37.0378 20.344 36.7072 20.44 36.4085 20.568C36.1098 20.696 35.7792 20.856 35.4165 21.048V23.672ZM60.9548 27H56.6988L49.4988 10.424H53.2108L58.8108 23.64L64.5388 10.424H68.2828L60.9548 27ZM76.6665 23.672H87.0665V27H73.4025V10.424H86.4585V13.72H76.6665V17.752C77.3918 17.3253 78.1918 17.0587 79.0665 16.952C79.9625 16.8453 80.8905 16.792 81.8505 16.792H84.2825V20.088H81.8505C81.0825 20.088 80.4425 20.1093 79.9305 20.152C79.4398 20.1733 79.0132 20.216 78.6505 20.28C78.2878 20.344 77.9572 20.44 77.6585 20.568C77.3598 20.696 77.0292 20.856 76.6665 21.048V23.672ZM106.429 21.976C106.621 22.3173 106.834 22.584 107.069 22.776C107.303 22.968 107.549 23.1173 107.805 23.224C108.061 23.3093 108.306 23.3733 108.541 23.416C108.797 23.4373 109.021 23.448 109.213 23.448H110.365V27H108.925C108.498 27 108.071 26.9787 107.645 26.936C107.239 26.8933 106.834 26.7867 106.429 26.616C106.023 26.4453 105.629 26.1893 105.245 25.848C104.861 25.4853 104.477 24.9947 104.093 24.376L101.533 20.216H101.309C100.669 20.216 100.125 20.2373 99.6768 20.28C99.2501 20.3013 98.8661 20.3547 98.5248 20.44C98.2048 20.5253 97.8954 20.632 97.5968 20.76C97.3194 20.8667 97.0101 21.0053 96.6688 21.176V27H93.3088V10.424H103.997C104.765 10.424 105.458 10.552 106.077 10.808C106.717 11.0427 107.271 11.384 107.741 11.832C108.21 12.28 108.573 12.8133 108.829 13.432C109.085 14.0293 109.213 14.6907 109.213 15.416C109.213 16.696 108.882 17.7307 108.221 18.52C107.559 19.3093 106.621 19.8853 105.405 20.248L106.429 21.976ZM103.997 16.92C104.487 16.92 104.914 16.792 105.277 16.536C105.661 16.2587 105.853 15.8533 105.853 15.32C105.853 14.9573 105.778 14.6693 105.629 14.456C105.479 14.2427 105.287 14.0827 105.053 13.976C104.839 13.8693 104.583 13.8053 104.285 13.784C103.986 13.7413 103.698 13.72 103.421 13.72H96.6688V17.88C97.3088 17.5173 98.0128 17.272 98.7808 17.144C99.5701 16.9947 100.413 16.92 101.309 16.92H103.997ZM116.778 27V10.424H120.202V23.672H129.002V27H116.778ZM137.385 23.672H147.785V27H134.121V10.424H147.177V13.72H137.385V17.752C138.111 17.3253 138.911 17.0587 139.785 16.952C140.681 16.8453 141.609 16.792 142.569 16.792H145.001V20.088H142.569C141.801 20.088 141.161 20.1093 140.649 20.152C140.159 20.1733 139.732 20.216 139.369 20.28C139.007 20.344 138.676 20.44 138.377 20.568C138.079 20.696 137.748 20.856 137.385 21.048V23.672ZM156.388 10.424L166.404 21.944V10.424H169.7V27H166.404L157.188 16.216V27H153.892V12.888L152.26 10.424H156.388ZM182.267 13.72V23.672H185.563C187.163 23.672 188.401 23.2347 189.275 22.36C190.15 21.4853 190.587 20.248 190.587 18.648C190.587 17.0267 190.15 15.8 189.275 14.968C188.401 14.136 187.163 13.72 185.563 13.72H182.267ZM175.291 10.424H185.563C186.801 10.424 187.931 10.6053 188.955 10.968C190.001 11.3093 190.886 11.832 191.611 12.536C192.358 13.2187 192.934 14.072 193.339 15.096C193.745 16.0987 193.947 17.2613 193.947 18.584C193.947 19.864 193.745 21.0267 193.339 22.072C192.955 23.1173 192.39 24.0027 191.643 24.728C190.918 25.4533 190.033 26.0187 188.987 26.424C187.963 26.808 186.822 27 185.563 27H178.811V13.72H176.763L175.291 10.424Z" fill="white"/>
<path d="M197.5 11.38C197.5 11.2133 197.557 11.0733 197.67 10.96C197.783 10.84 197.923 10.78 198.09 10.78C198.257 10.78 198.397 10.84 198.51 10.96C198.63 11.0733 198.69 11.2133 198.69 11.38C198.69 11.5467 198.63 11.6867 198.51 11.8C198.397 11.9133 198.257 11.97 198.09 11.97C197.923 11.97 197.783 11.9133 197.67 11.8C197.557 11.6867 197.5 11.5467 197.5 11.38ZM205.067 11.42C204.781 11.6667 204.454 11.8533 204.088 11.98C203.721 12.1 203.338 12.16 202.938 12.16C202.544 12.16 202.164 12.1 201.798 11.98C201.431 11.8533 201.104 11.6733 200.818 11.44C200.538 11.2 200.311 10.91 200.138 10.57C199.971 10.2233 199.888 9.83 199.888 9.39C199.888 8.95 199.974 8.56 200.148 8.22C200.321 7.88 200.551 7.59333 200.838 7.36C201.124 7.12667 201.451 6.95 201.818 6.83C202.184 6.71 202.561 6.65 202.948 6.65C203.328 6.65 203.698 6.70667 204.058 6.82C204.418 6.92667 204.741 7.08667 205.028 7.3L204.338 8.1C204.144 7.96667 203.924 7.86667 203.678 7.8C203.438 7.72667 203.194 7.69 202.948 7.69C202.694 7.69 202.451 7.72667 202.218 7.8C201.984 7.86667 201.774 7.97 201.588 8.11C201.401 8.25 201.251 8.43 201.138 8.65C201.031 8.86333 200.978 9.11667 200.978 9.41C200.978 9.70333 201.034 9.95667 201.148 10.17C201.261 10.3833 201.411 10.56 201.598 10.7C201.784 10.84 201.994 10.9467 202.228 11.02C202.468 11.0867 202.711 11.12 202.958 11.12C203.238 11.12 203.508 11.0733 203.768 10.98C204.034 10.88 204.268 10.74 204.467 10.56L205.067 11.42ZM211.412 9.37C211.412 9.08333 211.355 8.83667 211.242 8.63C211.129 8.41667 210.979 8.24333 210.792 8.11C210.605 7.97 210.392 7.87 210.152 7.81C209.919 7.74333 209.679 7.71 209.432 7.71C209.179 7.71 208.932 7.74333 208.692 7.81C208.459 7.87667 208.249 7.98 208.062 8.12C207.882 8.26 207.735 8.43667 207.622 8.65C207.509 8.86333 207.452 9.11667 207.452 9.41C207.452 9.70333 207.509 9.95667 207.622 10.17C207.735 10.3833 207.885 10.56 208.072 10.7C208.259 10.84 208.469 10.9433 208.702 11.01C208.942 11.0767 209.189 11.11 209.442 11.11C209.689 11.11 209.929 11.0733 210.162 11C210.395 10.92 210.605 10.8067 210.792 10.66C210.979 10.5133 211.129 10.3333 211.242 10.12C211.355 9.9 211.412 9.65 211.412 9.37ZM212.492 9.36C212.492 9.8 212.405 10.1933 212.232 10.54C212.059 10.8867 211.829 11.18 211.542 11.42C211.262 11.66 210.935 11.8433 210.562 11.97C210.195 12.0967 209.815 12.16 209.422 12.16C209.029 12.16 208.649 12.1 208.282 11.98C207.915 11.8533 207.589 11.6733 207.302 11.44C207.022 11.2 206.795 10.91 206.622 10.57C206.455 10.2233 206.372 9.83 206.372 9.39C206.372 8.95 206.459 8.56 206.632 8.22C206.805 7.88 207.035 7.59333 207.322 7.36C207.609 7.12667 207.935 6.95 208.302 6.83C208.669 6.71 209.045 6.65 209.432 6.65C209.819 6.65 210.195 6.70667 210.562 6.82C210.935 6.93333 211.262 7.10333 211.542 7.33C211.829 7.55667 212.059 7.84 212.232 8.18C212.405 8.52 212.492 8.91333 212.492 9.36Z" fill="white"/>
</svg>
