<svg width="149" height="16" viewBox="0 0 149 16" fill="none" xmlns="http://www.w3.org/2000/svg">
<path d="M0.871094 0.541138H4.03791L14.7961 12.2262V0.541138H17.2667V15.8342H14.841L5.22827 5.31767V15.8342H2.82509V2.69365L0.871094 0.541138Z" fill="white"/>
<path d="M24.718 13.7022H32.0174V15.8342H22.4271V5.21517H31.5907V7.32668H24.718V9.9097C25.2271 9.63636 25.7886 9.46553 26.4025 9.39719C27.0314 9.32886 27.6827 9.29469 28.3565 9.29469H30.0634V11.4062H28.3565C27.8175 11.4062 27.3683 11.4199 27.0089 11.4472C26.6645 11.4609 26.3651 11.4882 26.1105 11.5292C25.856 11.5702 25.6239 11.6317 25.4143 11.7137C25.2047 11.7957 24.9726 11.8982 24.718 12.0212V13.7022Z" fill="white"/>
<path d="M42.6424 15.8342H39.6553L34.6019 5.21517H37.2072L41.1376 13.6817L45.1579 5.21517H47.7857L42.6424 15.8342Z" fill="white"/>
<path d="M53.67 13.7022H60.9694V15.8342H51.3791V5.21517H60.5426V7.32668H53.67V9.9097C54.1791 9.63636 54.7406 9.46553 55.3545 9.39719C55.9833 9.32886 56.6347 9.29469 57.3084 9.29469H59.0154V11.4062H57.3084C56.7694 11.4062 56.3202 11.4199 55.9609 11.4472C55.6165 11.4609 55.317 11.4882 55.0625 11.5292C54.8079 11.5702 54.5758 11.6317 54.3662 11.7137C54.1566 11.7957 53.9245 11.8982 53.67 12.0212V13.7022Z" fill="white"/>
<path d="M74.5591 12.6157C74.6938 12.8344 74.8436 13.0052 75.0083 13.1282C75.173 13.2512 75.3452 13.3469 75.5248 13.4152C75.7045 13.4699 75.8767 13.5109 76.0414 13.5382C76.2211 13.5519 76.3783 13.5587 76.5131 13.5587H77.3216V15.8342H76.3109C76.0115 15.8342 75.712 15.8206 75.4125 15.7932C75.1281 15.7659 74.8436 15.6976 74.5591 15.5882C74.2746 15.4789 73.9976 15.3149 73.7281 15.0962C73.4585 14.8639 73.189 14.5496 72.9195 14.1532L71.1227 11.4882H70.9655C70.5163 11.4882 70.1345 11.5019 69.8201 11.5292C69.5206 11.5429 69.2511 11.577 69.0115 11.6317C68.7869 11.6864 68.5698 11.7547 68.3602 11.8367C68.1655 11.905 67.9484 11.9939 67.7089 12.1032V15.8342H65.3506V5.21517H72.8521C73.3912 5.21517 73.8778 5.29717 74.312 5.46117C74.7612 5.6115 75.1505 5.83017 75.4799 6.11717C75.8093 6.40417 76.0639 6.74584 76.2436 7.14218C76.4232 7.52485 76.5131 7.94852 76.5131 8.41319C76.5131 9.23319 76.281 9.89603 75.8168 10.4017C75.3527 10.9074 74.6938 11.2764 73.8404 11.5087L74.5591 12.6157ZM72.8521 9.37669C73.1965 9.37669 73.496 9.29469 73.7505 9.13069C74.02 8.95302 74.1548 8.69336 74.1548 8.35169C74.1548 8.11935 74.1024 7.93485 73.9976 7.79818C73.8928 7.66152 73.758 7.55901 73.5933 7.49068C73.4436 7.42235 73.2639 7.38135 73.0543 7.36768C72.8447 7.34035 72.6425 7.32668 72.4479 7.32668H67.7089V9.9917C68.1581 9.75936 68.6522 9.60219 69.1912 9.52019C69.7452 9.42453 70.3367 9.37669 70.9655 9.37669H72.8521Z" fill="white"/>
<path d="M81.8225 15.8342V5.21517H84.2257V13.7022H90.4021V15.8342H81.8225Z" fill="white"/>
<path d="M96.2864 13.7022H103.586V15.8342H93.9955V5.21517H103.159V7.32668H96.2864V9.9097C96.7955 9.63636 97.3569 9.46553 97.9708 9.39719C98.5997 9.32886 99.2511 9.29469 99.9249 9.29469H101.632V11.4062H99.9249C99.3858 11.4062 98.9366 11.4199 98.5773 11.4472C98.2329 11.4609 97.9334 11.4882 97.6789 11.5292C97.4243 11.5702 97.1923 11.6317 96.9826 11.7137C96.773 11.7957 96.5409 11.8982 96.2864 12.0212V13.7022Z" fill="white"/>
<path d="M109.624 5.21517L116.654 12.5952V5.21517H118.967V15.8342H116.654L110.185 8.92569V15.8342H107.872V6.79368L106.726 5.21517H109.624Z" fill="white"/>
<path d="M127.788 7.32668V13.7022H130.101C131.224 13.7022 132.092 13.4221 132.706 12.8617C133.32 12.3014 133.627 11.5087 133.627 10.4837C133.627 9.44503 133.32 8.65919 132.706 8.12618C132.092 7.59318 131.224 7.32668 130.101 7.32668H127.788ZM122.891 5.21517H130.101C130.969 5.21517 131.763 5.33133 132.482 5.56367C133.215 5.78234 133.837 6.11717 134.346 6.56818C134.87 7.00551 135.274 7.55218 135.559 8.20819C135.843 8.85052 135.985 9.59536 135.985 10.4427C135.985 11.2627 135.843 12.0075 135.559 12.6772C135.289 13.3469 134.892 13.9141 134.368 14.3787C133.859 14.8434 133.238 15.2056 132.504 15.4652C131.785 15.7112 130.984 15.8342 130.101 15.8342H125.362V7.32668H123.924L122.891 5.21517Z" fill="white"/>
<path d="M138.479 5.82754C138.479 5.72077 138.518 5.63108 138.598 5.55847C138.677 5.4816 138.776 5.44316 138.893 5.44316C139.01 5.44316 139.108 5.4816 139.187 5.55847C139.272 5.63108 139.314 5.72077 139.314 5.82754C139.314 5.93431 139.272 6.024 139.187 6.0966C139.108 6.16921 139.01 6.20551 138.893 6.20551C138.776 6.20551 138.677 6.16921 138.598 6.0966C138.518 6.024 138.479 5.93431 138.479 5.82754Z" fill="white"/>
<path d="M143.79 5.85316C143.589 6.01119 143.359 6.13077 143.102 6.21192C142.845 6.28879 142.576 6.32723 142.295 6.32723C142.019 6.32723 141.752 6.28879 141.495 6.21192C141.237 6.13077 141.008 6.01546 140.807 5.86598C140.61 5.71222 140.451 5.52644 140.33 5.30863C140.213 5.08654 140.154 4.83456 140.154 4.55269C140.154 4.27081 140.215 4.02096 140.337 3.80315C140.458 3.58534 140.62 3.40169 140.821 3.25221C141.022 3.10273 141.251 2.98955 141.509 2.91268C141.766 2.8358 142.031 2.79736 142.302 2.79736C142.569 2.79736 142.828 2.83367 143.081 2.90627C143.334 2.9746 143.561 3.0771 143.762 3.21377L143.278 3.72628C143.142 3.64086 142.987 3.5768 142.814 3.53409C142.646 3.48711 142.475 3.46362 142.302 3.46362C142.124 3.46362 141.953 3.48711 141.79 3.53409C141.626 3.5768 141.478 3.64299 141.347 3.73268C141.216 3.82237 141.111 3.93768 141.032 4.07862C140.957 4.21529 140.919 4.37758 140.919 4.5655C140.919 4.75342 140.959 4.91571 141.039 5.05238C141.118 5.18904 141.223 5.30222 141.354 5.39191C141.485 5.4816 141.633 5.54993 141.797 5.59691C141.965 5.63962 142.136 5.66097 142.309 5.66097C142.505 5.66097 142.695 5.63108 142.877 5.57129C143.065 5.50722 143.228 5.41754 143.369 5.30222L143.79 5.85316Z" fill="white"/>
<path d="M148.243 4.53987C148.243 4.35623 148.203 4.19821 148.123 4.06581C148.044 3.92914 147.939 3.8181 147.808 3.73268C147.677 3.64299 147.527 3.57893 147.358 3.54049C147.195 3.49778 147.026 3.47643 146.853 3.47643C146.675 3.47643 146.502 3.49778 146.334 3.54049C146.17 3.5832 146.023 3.6494 145.892 3.73909C145.765 3.82878 145.662 3.94195 145.583 4.07862C145.503 4.21529 145.463 4.37758 145.463 4.5655C145.463 4.75342 145.503 4.91571 145.583 5.05238C145.662 5.18904 145.768 5.30222 145.899 5.39191C146.03 5.4816 146.177 5.5478 146.341 5.59051C146.509 5.63321 146.682 5.65457 146.86 5.65457C147.033 5.65457 147.202 5.63108 147.365 5.5841C147.529 5.53285 147.677 5.46024 147.808 5.36629C147.939 5.27233 148.044 5.15701 148.123 5.02035C148.203 4.87941 148.243 4.71925 148.243 4.53987ZM149.001 4.53347C149.001 4.81534 148.94 5.06732 148.818 5.28941C148.697 5.51149 148.535 5.69941 148.334 5.85316C148.137 6.00691 147.908 6.12436 147.646 6.20551C147.389 6.28666 147.122 6.32723 146.846 6.32723C146.57 6.32723 146.303 6.28879 146.046 6.21192C145.789 6.13077 145.559 6.01546 145.358 5.86598C145.162 5.71222 145.003 5.52644 144.881 5.30863C144.764 5.08654 144.705 4.83456 144.705 4.55269C144.705 4.27081 144.766 4.02096 144.888 3.80315C145.01 3.58534 145.171 3.40169 145.372 3.25221C145.573 3.10273 145.803 2.98955 146.06 2.91268C146.317 2.8358 146.582 2.79736 146.853 2.79736C147.124 2.79736 147.389 2.83367 147.646 2.90627C147.908 2.97887 148.137 3.08778 148.334 3.23299C148.535 3.3782 148.697 3.55971 148.818 3.77753C148.94 3.99534 149.001 4.24732 149.001 4.53347Z" fill="white"/>
</svg>
