<svg width="72" height="72" viewBox="0 0 72 72" fill="none" xmlns="http://www.w3.org/2000/svg">
<mask id="path-1-outside-1_598_10118" maskUnits="userSpaceOnUse" x="0" y="0" width="72" height="72" fill="black">
<rect fill="white" width="72" height="72"/>
<path d="M69.9395 34.2005C66.3378 32.2307 63.4892 29.0571 61.9182 25.2644C60.4121 21.6288 60.1396 17.5653 61.1361 13.7648L69.2849 5.61593C70.086 4.81488 70.086 3.51622 69.2849 2.71518C68.484 1.91413 67.1852 1.91413 66.3842 2.71518L58.2353 10.8639C50.4282 13.0265 41.5922 9.22227 37.7995 2.06045C37.0403 0.646244 34.9592 0.646791 34.2004 2.06045C32.2306 5.66215 29.057 8.51079 25.2643 10.0818C21.6287 11.5877 17.5653 11.8603 13.7646 10.8639L5.61584 2.71518C4.81493 1.91413 3.51614 1.91413 2.71509 2.71518C1.91405 3.51622 1.91405 4.81488 2.71509 5.61593L10.8639 13.7648C11.8604 17.5653 11.5879 21.6288 10.0818 25.2644C8.51085 29.057 5.6622 32.2305 2.0605 34.2005C0.646295 34.9598 0.646705 37.0406 2.0605 37.7995C5.6622 39.7693 8.51085 42.9429 10.0818 46.7356C11.5879 50.3712 11.8604 54.4347 10.8639 58.2352L2.71523 66.3841C1.91418 67.1851 1.91418 68.4838 2.71523 69.2848C3.51614 70.0859 4.81507 70.0859 5.61598 69.2848L13.7647 61.1361C21.5718 58.9737 30.4078 62.7776 34.2005 69.9396C34.9597 71.3538 37.0408 71.3532 37.7996 69.9396C41.5925 62.7776 50.4282 58.9737 58.2355 61.1361L66.3842 69.2848C67.1851 70.0859 68.484 70.0859 69.2849 69.2848C70.086 68.4838 70.086 67.1851 69.2849 66.3841L61.1361 58.2352C60.1396 54.4347 60.4121 50.3712 61.9182 46.7356C63.4892 42.943 66.3378 39.7695 69.9395 37.7995C71.3537 37.0402 71.3533 34.9594 69.9395 34.2005ZM58.1281 26.8342C59.2326 29.5006 60.8534 31.916 62.866 33.9487H54.4267C53.5315 32.4701 52.7456 30.9235 52.088 29.3362C51.4307 27.7489 50.8927 26.0996 50.4799 24.4208L56.4475 18.4532C56.4616 21.3138 57.0236 24.1678 58.1281 26.8342ZM47.1524 44.2515L40.9518 38.051H49.7205C49.2013 39.0461 48.7252 40.0621 48.2977 41.0938C47.8707 42.1257 47.4889 43.1808 47.1524 44.2515ZM23.7021 41.094C23.2748 40.0622 22.7985 39.0462 22.2793 38.0512H31.048L24.8475 44.2517C24.5111 43.1807 24.1295 42.1256 23.7021 41.094ZM24.8476 27.7483L31.0482 33.9488H22.2795C22.7987 32.9539 23.2748 31.9379 23.7023 30.9062C24.1295 29.8744 24.5111 28.8192 24.8476 27.7483ZM38.0512 22.2872C40.0389 23.3237 42.1082 24.1811 44.2456 24.8536L38.0512 31.048V22.2872ZM33.9489 31.0481L27.7543 24.8535C29.8917 24.181 31.9609 23.3236 33.9489 22.2868V31.0481ZM33.9489 40.9519V49.7127C31.9613 48.6762 29.892 47.8189 27.7544 47.1463L33.9489 40.9519ZM38.0512 40.9519L44.2457 47.1464C42.1081 47.8189 40.0389 48.6763 38.0512 49.7128V40.9519ZM40.952 33.9488L47.1524 27.7485C47.4889 28.8193 47.8705 29.8744 48.2979 30.9062C48.7252 31.9379 49.2015 32.9539 49.7207 33.9488H40.952ZM45.1657 13.8718C47.8321 14.9763 50.6861 15.5383 53.5468 15.5526L47.5726 21.5268C44.2104 20.6984 41.0165 19.3752 38.0512 17.5818V9.13393C40.0839 11.1467 42.4994 12.7674 45.1657 13.8718ZM26.8343 13.8718C29.5006 12.7674 31.9161 11.1467 33.9488 9.13393V17.5814C30.9828 19.375 27.789 20.6982 24.4272 21.5265L18.4531 15.5524C21.3138 15.5381 24.1678 14.9763 26.8343 13.8718ZM13.8719 26.8342C14.9764 24.1678 15.5384 21.3137 15.5525 18.4532L21.52 24.4208C21.1073 26.0996 20.5695 27.7489 19.9119 29.3361C19.2543 30.9237 18.4684 32.4701 17.5731 33.9487H9.13399C11.1467 31.916 12.7674 29.5006 13.8719 26.8342ZM13.8719 45.1657C12.7674 42.4993 11.1466 40.0839 9.13399 38.0512H17.5733C18.4685 39.5299 19.2544 41.0765 19.912 42.6638C20.5695 44.2511 21.1073 45.9004 21.5201 47.5792L15.5525 53.5468C15.5384 50.6862 14.9764 47.832 13.8719 45.1657ZM26.8343 58.128C24.1682 57.0237 21.3146 56.4606 18.4543 56.4462L24.4274 50.4731C27.7898 51.3014 30.9836 52.6246 33.9488 54.4179V62.8658C31.9161 60.8533 29.5006 59.2325 26.8343 58.128ZM45.1657 58.128C42.4994 59.2325 40.0839 60.8532 38.0512 62.8659V54.418C41.0165 52.6248 44.2103 51.3015 47.5726 50.4732L53.5469 56.4476C50.6862 56.4617 47.8321 57.0237 45.1657 58.128ZM58.1281 45.1657C57.0236 47.832 56.4616 50.6862 56.4475 53.5467L50.4799 47.5791C51.3042 44.2148 52.6303 41.0126 54.4267 38.051H62.866C60.8534 40.0839 59.2326 42.4993 58.1281 45.1657Z"/>
</mask>
<path d="M69.9395 34.2005C66.3378 32.2307 63.4892 29.0571 61.9182 25.2644C60.4121 21.6288 60.1396 17.5653 61.1361 13.7648L69.2849 5.61593C70.086 4.81488 70.086 3.51622 69.2849 2.71518C68.484 1.91413 67.1852 1.91413 66.3842 2.71518L58.2353 10.8639C50.4282 13.0265 41.5922 9.22227 37.7995 2.06045C37.0403 0.646244 34.9592 0.646791 34.2004 2.06045C32.2306 5.66215 29.057 8.51079 25.2643 10.0818C21.6287 11.5877 17.5653 11.8603 13.7646 10.8639L5.61584 2.71518C4.81493 1.91413 3.51614 1.91413 2.71509 2.71518C1.91405 3.51622 1.91405 4.81488 2.71509 5.61593L10.8639 13.7648C11.8604 17.5653 11.5879 21.6288 10.0818 25.2644C8.51085 29.057 5.6622 32.2305 2.0605 34.2005C0.646295 34.9598 0.646705 37.0406 2.0605 37.7995C5.6622 39.7693 8.51085 42.9429 10.0818 46.7356C11.5879 50.3712 11.8604 54.4347 10.8639 58.2352L2.71523 66.3841C1.91418 67.1851 1.91418 68.4838 2.71523 69.2848C3.51614 70.0859 4.81507 70.0859 5.61598 69.2848L13.7647 61.1361C21.5718 58.9737 30.4078 62.7776 34.2005 69.9396C34.9597 71.3538 37.0408 71.3532 37.7996 69.9396C41.5925 62.7776 50.4282 58.9737 58.2355 61.1361L66.3842 69.2848C67.1851 70.0859 68.484 70.0859 69.2849 69.2848C70.086 68.4838 70.086 67.1851 69.2849 66.3841L61.1361 58.2352C60.1396 54.4347 60.4121 50.3712 61.9182 46.7356C63.4892 42.943 66.3378 39.7695 69.9395 37.7995C71.3537 37.0402 71.3533 34.9594 69.9395 34.2005ZM58.1281 26.8342C59.2326 29.5006 60.8534 31.916 62.866 33.9487H54.4267C53.5315 32.4701 52.7456 30.9235 52.088 29.3362C51.4307 27.7489 50.8927 26.0996 50.4799 24.4208L56.4475 18.4532C56.4616 21.3138 57.0236 24.1678 58.1281 26.8342ZM47.1524 44.2515L40.9518 38.051H49.7205C49.2013 39.0461 48.7252 40.0621 48.2977 41.0938C47.8707 42.1257 47.4889 43.1808 47.1524 44.2515ZM23.7021 41.094C23.2748 40.0622 22.7985 39.0462 22.2793 38.0512H31.048L24.8475 44.2517C24.5111 43.1807 24.1295 42.1256 23.7021 41.094ZM24.8476 27.7483L31.0482 33.9488H22.2795C22.7987 32.9539 23.2748 31.9379 23.7023 30.9062C24.1295 29.8744 24.5111 28.8192 24.8476 27.7483ZM38.0512 22.2872C40.0389 23.3237 42.1082 24.1811 44.2456 24.8536L38.0512 31.048V22.2872ZM33.9489 31.0481L27.7543 24.8535C29.8917 24.181 31.9609 23.3236 33.9489 22.2868V31.0481ZM33.9489 40.9519V49.7127C31.9613 48.6762 29.892 47.8189 27.7544 47.1463L33.9489 40.9519ZM38.0512 40.9519L44.2457 47.1464C42.1081 47.8189 40.0389 48.6763 38.0512 49.7128V40.9519ZM40.952 33.9488L47.1524 27.7485C47.4889 28.8193 47.8705 29.8744 48.2979 30.9062C48.7252 31.9379 49.2015 32.9539 49.7207 33.9488H40.952ZM45.1657 13.8718C47.8321 14.9763 50.6861 15.5383 53.5468 15.5526L47.5726 21.5268C44.2104 20.6984 41.0165 19.3752 38.0512 17.5818V9.13393C40.0839 11.1467 42.4994 12.7674 45.1657 13.8718ZM26.8343 13.8718C29.5006 12.7674 31.9161 11.1467 33.9488 9.13393V17.5814C30.9828 19.375 27.789 20.6982 24.4272 21.5265L18.4531 15.5524C21.3138 15.5381 24.1678 14.9763 26.8343 13.8718ZM13.8719 26.8342C14.9764 24.1678 15.5384 21.3137 15.5525 18.4532L21.52 24.4208C21.1073 26.0996 20.5695 27.7489 19.9119 29.3361C19.2543 30.9237 18.4684 32.4701 17.5731 33.9487H9.13399C11.1467 31.916 12.7674 29.5006 13.8719 26.8342ZM13.8719 45.1657C12.7674 42.4993 11.1466 40.0839 9.13399 38.0512H17.5733C18.4685 39.5299 19.2544 41.0765 19.912 42.6638C20.5695 44.2511 21.1073 45.9004 21.5201 47.5792L15.5525 53.5468C15.5384 50.6862 14.9764 47.832 13.8719 45.1657ZM26.8343 58.128C24.1682 57.0237 21.3146 56.4606 18.4543 56.4462L24.4274 50.4731C27.7898 51.3014 30.9836 52.6246 33.9488 54.4179V62.8658C31.9161 60.8533 29.5006 59.2325 26.8343 58.128ZM45.1657 58.128C42.4994 59.2325 40.0839 60.8532 38.0512 62.8659V54.418C41.0165 52.6248 44.2103 51.3015 47.5726 50.4732L53.5469 56.4476C50.6862 56.4617 47.8321 57.0237 45.1657 58.128ZM58.1281 45.1657C57.0236 47.832 56.4616 50.6862 56.4475 53.5467L50.4799 47.5791C51.3042 44.2148 52.6303 41.0126 54.4267 38.051H62.866C60.8534 40.0839 59.2326 42.4993 58.1281 45.1657Z" fill="#1DB86A"/>
<path d="M69.9395 34.2005C66.3378 32.2307 63.4892 29.0571 61.9182 25.2644C60.4121 21.6288 60.1396 17.5653 61.1361 13.7648L69.2849 5.61593C70.086 4.81488 70.086 3.51622 69.2849 2.71518C68.484 1.91413 67.1852 1.91413 66.3842 2.71518L58.2353 10.8639C50.4282 13.0265 41.5922 9.22227 37.7995 2.06045C37.0403 0.646244 34.9592 0.646791 34.2004 2.06045C32.2306 5.66215 29.057 8.51079 25.2643 10.0818C21.6287 11.5877 17.5653 11.8603 13.7646 10.8639L5.61584 2.71518C4.81493 1.91413 3.51614 1.91413 2.71509 2.71518C1.91405 3.51622 1.91405 4.81488 2.71509 5.61593L10.8639 13.7648C11.8604 17.5653 11.5879 21.6288 10.0818 25.2644C8.51085 29.057 5.6622 32.2305 2.0605 34.2005C0.646295 34.9598 0.646705 37.0406 2.0605 37.7995C5.6622 39.7693 8.51085 42.9429 10.0818 46.7356C11.5879 50.3712 11.8604 54.4347 10.8639 58.2352L2.71523 66.3841C1.91418 67.1851 1.91418 68.4838 2.71523 69.2848C3.51614 70.0859 4.81507 70.0859 5.61598 69.2848L13.7647 61.1361C21.5718 58.9737 30.4078 62.7776 34.2005 69.9396C34.9597 71.3538 37.0408 71.3532 37.7996 69.9396C41.5925 62.7776 50.4282 58.9737 58.2355 61.1361L66.3842 69.2848C67.1851 70.0859 68.484 70.0859 69.2849 69.2848C70.086 68.4838 70.086 67.1851 69.2849 66.3841L61.1361 58.2352C60.1396 54.4347 60.4121 50.3712 61.9182 46.7356C63.4892 42.943 66.3378 39.7695 69.9395 37.7995C71.3537 37.0402 71.3533 34.9594 69.9395 34.2005ZM58.1281 26.8342C59.2326 29.5006 60.8534 31.916 62.866 33.9487H54.4267C53.5315 32.4701 52.7456 30.9235 52.088 29.3362C51.4307 27.7489 50.8927 26.0996 50.4799 24.4208L56.4475 18.4532C56.4616 21.3138 57.0236 24.1678 58.1281 26.8342ZM47.1524 44.2515L40.9518 38.051H49.7205C49.2013 39.0461 48.7252 40.0621 48.2977 41.0938C47.8707 42.1257 47.4889 43.1808 47.1524 44.2515ZM23.7021 41.094C23.2748 40.0622 22.7985 39.0462 22.2793 38.0512H31.048L24.8475 44.2517C24.5111 43.1807 24.1295 42.1256 23.7021 41.094ZM24.8476 27.7483L31.0482 33.9488H22.2795C22.7987 32.9539 23.2748 31.9379 23.7023 30.9062C24.1295 29.8744 24.5111 28.8192 24.8476 27.7483ZM38.0512 22.2872C40.0389 23.3237 42.1082 24.1811 44.2456 24.8536L38.0512 31.048V22.2872ZM33.9489 31.0481L27.7543 24.8535C29.8917 24.181 31.9609 23.3236 33.9489 22.2868V31.0481ZM33.9489 40.9519V49.7127C31.9613 48.6762 29.892 47.8189 27.7544 47.1463L33.9489 40.9519ZM38.0512 40.9519L44.2457 47.1464C42.1081 47.8189 40.0389 48.6763 38.0512 49.7128V40.9519ZM40.952 33.9488L47.1524 27.7485C47.4889 28.8193 47.8705 29.8744 48.2979 30.9062C48.7252 31.9379 49.2015 32.9539 49.7207 33.9488H40.952ZM45.1657 13.8718C47.8321 14.9763 50.6861 15.5383 53.5468 15.5526L47.5726 21.5268C44.2104 20.6984 41.0165 19.3752 38.0512 17.5818V9.13393C40.0839 11.1467 42.4994 12.7674 45.1657 13.8718ZM26.8343 13.8718C29.5006 12.7674 31.9161 11.1467 33.9488 9.13393V17.5814C30.9828 19.375 27.789 20.6982 24.4272 21.5265L18.4531 15.5524C21.3138 15.5381 24.1678 14.9763 26.8343 13.8718ZM13.8719 26.8342C14.9764 24.1678 15.5384 21.3137 15.5525 18.4532L21.52 24.4208C21.1073 26.0996 20.5695 27.7489 19.9119 29.3361C19.2543 30.9237 18.4684 32.4701 17.5731 33.9487H9.13399C11.1467 31.916 12.7674 29.5006 13.8719 26.8342ZM13.8719 45.1657C12.7674 42.4993 11.1466 40.0839 9.13399 38.0512H17.5733C18.4685 39.5299 19.2544 41.0765 19.912 42.6638C20.5695 44.2511 21.1073 45.9004 21.5201 47.5792L15.5525 53.5468C15.5384 50.6862 14.9764 47.832 13.8719 45.1657ZM26.8343 58.128C24.1682 57.0237 21.3146 56.4606 18.4543 56.4462L24.4274 50.4731C27.7898 51.3014 30.9836 52.6246 33.9488 54.4179V62.8658C31.9161 60.8533 29.5006 59.2325 26.8343 58.128ZM45.1657 58.128C42.4994 59.2325 40.0839 60.8532 38.0512 62.8659V54.418C41.0165 52.6248 44.2103 51.3015 47.5726 50.4732L53.5469 56.4476C50.6862 56.4617 47.8321 57.0237 45.1657 58.128ZM58.1281 45.1657C57.0236 47.832 56.4616 50.6862 56.4475 53.5467L50.4799 47.5791C51.3042 44.2148 52.6303 41.0126 54.4267 38.051H62.866C60.8534 40.0839 59.2326 42.4993 58.1281 45.1657Z" stroke="#1DB86A" stroke-width="2" mask="url(#path-1-outside-1_598_10118)"/>
</svg>
