<svg width="1320" height="490" viewBox="0 0 1320 490" fill="none" xmlns="http://www.w3.org/2000/svg">
<path d="M992 332C992 332 823.324 332 639.966 332C456.607 332 328 332 328 332C328 148.641 476.642 0 660 0C843.359 0 992 148.641 992 332Z" fill="url(#paint0_linear_1_160)" fill-opacity="0.5"/>
<path d="M950 332C950 332 802.663 332 642.5 332C482.337 332 370 332 370 332C370 171.837 499.837 42 660 42C820.163 42 950 171.837 950 332Z" fill="url(#paint1_linear_1_160)"/>
<path d="M366.082 154.96H392.082V162H358.642V106H391.682V113.04H366.082V130.24H389.682V137.2H366.082V154.96ZM432.532 122H439.492V162H432.532V155.12C429.066 160.4 424.026 163.04 417.412 163.04C411.812 163.04 407.039 161.013 403.092 156.96C399.146 152.853 397.172 147.867 397.172 142C397.172 136.133 399.146 131.173 403.092 127.12C407.039 123.013 411.812 120.96 417.412 120.96C424.026 120.96 429.066 123.6 432.532 128.88V122ZM418.292 156.32C422.346 156.32 425.732 154.96 428.452 152.24C431.172 149.467 432.532 146.053 432.532 142C432.532 137.947 431.172 134.56 428.452 131.84C425.732 129.067 422.346 127.68 418.292 127.68C414.292 127.68 410.932 129.067 408.212 131.84C405.492 134.56 404.132 137.947 404.132 142C404.132 146.053 405.492 149.467 408.212 152.24C410.932 154.96 414.292 156.32 418.292 156.32ZM455.887 132.8C455.887 134.347 456.66 135.6 458.207 136.56C459.754 137.467 461.62 138.213 463.807 138.8C465.994 139.333 468.18 139.973 470.367 140.72C472.554 141.413 474.42 142.64 475.967 144.4C477.514 146.107 478.287 148.32 478.287 151.04C478.287 154.667 476.874 157.573 474.047 159.76C471.274 161.947 467.7 163.04 463.327 163.04C459.434 163.04 456.1 162.187 453.327 160.48C450.554 158.773 448.58 156.507 447.407 153.68L453.407 150.24C454.047 152.16 455.247 153.68 457.007 154.8C458.767 155.92 460.874 156.48 463.327 156.48C465.62 156.48 467.514 156.053 469.007 155.2C470.5 154.293 471.247 152.907 471.247 151.04C471.247 149.493 470.474 148.267 468.927 147.36C467.38 146.4 465.514 145.653 463.327 145.12C461.14 144.533 458.954 143.867 456.767 143.12C454.58 142.373 452.714 141.147 451.167 139.44C449.62 137.733 448.847 135.547 448.847 132.88C448.847 129.413 450.18 126.56 452.847 124.32C455.567 122.08 458.954 120.96 463.007 120.96C466.26 120.96 469.14 121.707 471.647 123.2C474.207 124.64 476.127 126.667 477.407 129.28L471.567 132.56C470.127 129.147 467.274 127.44 463.007 127.44C461.034 127.44 459.354 127.92 457.967 128.88C456.58 129.787 455.887 131.093 455.887 132.8ZM512.344 122H519.784L503.464 164.48C501.758 169.013 499.358 172.453 496.264 174.8C493.224 177.2 489.704 178.267 485.704 178V171.52C490.611 171.893 494.211 169.173 496.504 163.36L497.224 161.84L479.784 122H487.224L500.824 153.36L512.344 122ZM553.612 154.96H577.772V162H546.172V106H553.612V154.96ZM587.963 114.72C586.629 114.72 585.509 114.267 584.603 113.36C583.696 112.453 583.243 111.36 583.243 110.08C583.243 108.8 583.696 107.707 584.603 106.8C585.509 105.84 586.629 105.36 587.963 105.36C589.243 105.36 590.336 105.84 591.243 106.8C592.149 107.707 592.603 108.8 592.603 110.08C592.603 111.36 592.149 112.453 591.243 113.36C590.336 114.267 589.243 114.72 587.963 114.72ZM584.443 162V122H591.403V162H584.443ZM635.789 162H627.149L608.909 143.04V162H601.949V106H608.909V139.68L626.189 122H635.149L616.029 141.36L635.789 162ZM643.397 145.2C644.091 148.773 645.717 151.547 648.277 153.52C650.891 155.493 654.091 156.48 657.877 156.48C663.157 156.48 666.997 154.533 669.397 150.64L675.317 154C671.424 160.027 665.557 163.04 657.717 163.04C651.371 163.04 646.197 161.067 642.197 157.12C638.251 153.12 636.277 148.08 636.277 142C636.277 135.973 638.224 130.96 642.117 126.96C646.011 122.96 651.051 120.96 657.237 120.96C663.104 120.96 667.877 123.04 671.557 127.2C675.291 131.307 677.157 136.267 677.157 142.08C677.157 143.093 677.077 144.133 676.917 145.2H643.397ZM657.237 127.52C653.504 127.52 650.411 128.587 647.957 130.72C645.504 132.8 643.984 135.6 643.397 139.12H670.117C669.531 135.333 668.037 132.453 665.637 130.48C663.237 128.507 660.437 127.52 657.237 127.52ZM723.814 163.04C718.587 163.04 714.107 161.813 710.374 159.36C706.694 156.907 704.107 153.547 702.614 149.28L709.014 145.6C711.201 152.373 716.187 155.76 723.974 155.76C727.814 155.76 730.747 154.987 732.774 153.44C734.801 151.84 735.814 149.733 735.814 147.12C735.814 144.453 734.801 142.453 732.774 141.12C730.747 139.787 727.361 138.373 722.614 136.88C720.267 136.133 718.481 135.547 717.254 135.12C716.027 134.64 714.481 133.947 712.614 133.04C710.801 132.08 709.441 131.12 708.534 130.16C707.627 129.147 706.801 127.84 706.054 126.24C705.361 124.64 705.014 122.827 705.014 120.8C705.014 115.947 706.721 112.107 710.134 109.28C713.547 106.4 717.707 104.96 722.614 104.96C727.041 104.96 730.881 106.08 734.134 108.32C737.441 110.56 739.921 113.52 741.574 117.2L735.334 120.8C732.934 115.04 728.694 112.16 722.614 112.16C719.574 112.16 717.121 112.907 715.254 114.4C713.387 115.893 712.454 117.92 712.454 120.48C712.454 122.933 713.334 124.8 715.094 126.08C716.854 127.36 719.894 128.693 724.214 130.08C725.761 130.56 726.854 130.907 727.494 131.12C728.134 131.333 729.121 131.707 730.454 132.24C731.841 132.773 732.854 133.2 733.494 133.52C734.134 133.84 734.987 134.293 736.054 134.88C737.174 135.467 738.001 136.027 738.534 136.56C739.067 137.093 739.681 137.76 740.374 138.56C741.121 139.307 741.654 140.08 741.974 140.88C742.294 141.68 742.561 142.613 742.774 143.68C743.041 144.693 743.174 145.787 743.174 146.96C743.174 151.867 741.387 155.787 737.814 158.72C734.241 161.6 729.574 163.04 723.814 163.04ZM778.792 122H785.752V162H778.792V156.24C775.965 160.773 771.645 163.04 765.832 163.04C761.139 163.04 757.379 161.573 754.552 158.64C751.725 155.653 750.312 151.627 750.312 146.56V122H757.272V146.16C757.272 149.413 758.152 151.947 759.912 153.76C761.672 155.52 764.099 156.4 767.192 156.4C770.659 156.4 773.459 155.333 775.592 153.2C777.725 151.013 778.792 147.68 778.792 143.2V122ZM816.196 120.96C820.889 120.96 824.649 122.453 827.476 125.44C830.303 128.373 831.716 132.373 831.716 137.44V162H824.756V137.84C824.756 134.587 823.876 132.08 822.116 130.32C820.356 128.507 817.929 127.6 814.836 127.6C811.369 127.6 808.569 128.693 806.436 130.88C804.303 133.013 803.236 136.32 803.236 140.8V162H796.276V122H803.236V127.76C806.063 123.227 810.383 120.96 816.196 120.96ZM874.48 106H881.44V162H874.48V155.12C871.014 160.4 865.974 163.04 859.36 163.04C853.76 163.04 848.987 161.013 845.04 156.96C841.094 152.853 839.12 147.867 839.12 142C839.12 136.133 841.094 131.173 845.04 127.12C848.987 123.013 853.76 120.96 859.36 120.96C865.974 120.96 871.014 123.6 874.48 128.88V106ZM860.24 156.32C864.294 156.32 867.68 154.96 870.4 152.24C873.12 149.467 874.48 146.053 874.48 142C874.48 137.947 873.12 134.56 870.4 131.84C867.68 129.067 864.294 127.68 860.24 127.68C856.24 127.68 852.88 129.067 850.16 131.84C847.44 134.56 846.08 137.947 846.08 142C846.08 146.053 847.44 149.467 850.16 152.24C852.88 154.96 856.24 156.32 860.24 156.32ZM925.033 122H931.993V162H925.033V155.12C921.567 160.4 916.527 163.04 909.913 163.04C904.313 163.04 899.54 161.013 895.593 156.96C891.647 152.853 889.673 147.867 889.673 142C889.673 136.133 891.647 131.173 895.593 127.12C899.54 123.013 904.313 120.96 909.913 120.96C916.527 120.96 921.567 123.6 925.033 128.88V122ZM910.793 156.32C914.847 156.32 918.233 154.96 920.953 152.24C923.673 149.467 925.033 146.053 925.033 142C925.033 137.947 923.673 134.56 920.953 131.84C918.233 129.067 914.847 127.68 910.793 127.68C906.793 127.68 903.433 129.067 900.713 131.84C897.993 134.56 896.633 137.947 896.633 142C896.633 146.053 897.993 149.467 900.713 152.24C903.433 154.96 906.793 156.32 910.793 156.32ZM970.386 122H977.826L961.506 164.48C959.8 169.013 957.4 172.453 954.306 174.8C951.266 177.2 947.746 178.267 943.746 178V171.52C948.653 171.893 952.253 169.173 954.546 163.36L955.266 161.84L937.826 122H945.266L958.866 153.36L970.386 122ZM575.483 200V256H568.123V212.24L549.803 242.72H548.843L530.523 212.32V256H523.083V200H531.483L549.323 229.6L567.083 200H575.483ZM620.426 250.96C616.32 255.013 611.333 257.04 605.466 257.04C599.6 257.04 594.613 255.013 590.506 250.96C586.453 246.907 584.426 241.92 584.426 236C584.426 230.08 586.453 225.093 590.506 221.04C594.613 216.987 599.6 214.96 605.466 214.96C611.333 214.96 616.32 216.987 620.426 221.04C624.533 225.093 626.586 230.08 626.586 236C626.586 241.92 624.533 246.907 620.426 250.96ZM605.466 250.24C609.466 250.24 612.826 248.88 615.546 246.16C618.266 243.44 619.626 240.053 619.626 236C619.626 231.947 618.266 228.56 615.546 225.84C612.826 223.12 609.466 221.76 605.466 221.76C601.52 221.76 598.186 223.12 595.466 225.84C592.746 228.56 591.386 231.947 591.386 236C591.386 240.053 592.746 243.44 595.466 246.16C598.186 248.88 601.52 250.24 605.466 250.24ZM641.679 222.72C643.973 217.76 648.133 215.28 654.159 215.28V222.56C650.746 222.4 647.813 223.307 645.359 225.28C642.906 227.253 641.679 230.427 641.679 234.8V256H634.719V216H641.679V222.72ZM680.817 214.96C685.511 214.96 689.271 216.453 692.097 219.44C694.924 222.373 696.337 226.373 696.337 231.44V256H689.377V231.84C689.377 228.587 688.497 226.08 686.737 224.32C684.977 222.507 682.551 221.6 679.457 221.6C675.991 221.6 673.191 222.693 671.057 224.88C668.924 227.013 667.857 230.32 667.857 234.8V256H660.897V216H667.857V221.76C670.684 217.227 675.004 214.96 680.817 214.96ZM709.501 208.72C708.168 208.72 707.048 208.267 706.141 207.36C705.235 206.453 704.781 205.36 704.781 204.08C704.781 202.8 705.235 201.707 706.141 200.8C707.048 199.84 708.168 199.36 709.501 199.36C710.781 199.36 711.875 199.84 712.781 200.8C713.688 201.707 714.141 202.8 714.141 204.08C714.141 205.36 713.688 206.453 712.781 207.36C711.875 208.267 710.781 208.72 709.501 208.72ZM705.981 256V216H712.941V256H705.981ZM743.408 214.96C748.101 214.96 751.861 216.453 754.688 219.44C757.514 222.373 758.928 226.373 758.928 231.44V256H751.968V231.84C751.968 228.587 751.088 226.08 749.328 224.32C747.568 222.507 745.141 221.6 742.048 221.6C738.581 221.6 735.781 222.693 733.648 224.88C731.514 227.013 730.448 230.32 730.448 234.8V256H723.488V216H730.448V221.76C733.274 217.227 737.594 214.96 743.408 214.96ZM801.772 216H808.652V254.32C808.652 260.24 806.652 264.827 802.652 268.08C798.652 271.387 793.852 273.04 788.252 273.04C783.772 273.04 779.905 272.187 776.652 270.48C773.398 268.827 770.945 266.427 769.292 263.28L775.372 259.84C777.558 264.32 781.905 266.56 788.412 266.56C792.572 266.56 795.825 265.467 798.172 263.28C800.572 261.093 801.772 258.107 801.772 254.32V248.64C798.252 253.973 793.238 256.64 786.732 256.64C781.025 256.64 776.198 254.613 772.252 250.56C768.305 246.507 766.332 241.573 766.332 235.76C766.332 229.947 768.305 225.04 772.252 221.04C776.198 216.987 781.025 214.96 786.732 214.96C793.292 214.96 798.305 217.6 801.772 222.88V216ZM777.372 245.92C780.092 248.64 783.478 250 787.532 250C791.585 250 794.972 248.64 797.692 245.92C800.412 243.2 801.772 239.813 801.772 235.76C801.772 231.76 800.412 228.4 797.692 225.68C794.972 222.96 791.585 221.6 787.532 221.6C783.478 221.6 780.092 222.96 777.372 225.68C774.652 228.4 773.292 231.76 773.292 235.76C773.292 239.813 774.652 243.2 777.372 245.92Z" fill="black"/>
<path d="M0 331H1320" stroke="url(#paint2_linear_1_160)" stroke-width="7"/>
<path d="M0 362H1320" stroke="url(#paint3_linear_1_160)" stroke-width="7"/>
<path d="M0 393H1320" stroke="url(#paint4_linear_1_160)" stroke-width="7"/>
<path d="M0 424H1320" stroke="url(#paint5_linear_1_160)" stroke-width="7"/>
<path d="M0 455H1320" stroke="url(#paint6_linear_1_160)" stroke-width="7"/>
<path d="M0 486H1320" stroke="url(#paint7_linear_1_160)" stroke-width="7"/>
<path d="M360.75 94C360.75 94 359.75 77.5 362.75 72" stroke="black" stroke-width="2" stroke-linecap="round" stroke-linejoin="round"/>
<path d="M337 85L349 96" stroke="black" stroke-width="2" stroke-linecap="round" stroke-linejoin="round"/>
<path d="M326 111C326 111 336.5 108 349 109" stroke="black" stroke-width="2" stroke-linecap="round" stroke-linejoin="round"/>
<path d="M836.763 33.037C846.438 30.3157 853.023 36.0021 853.023 36.0021C853.023 36.0021 857.271 28.4055 869.262 27.3066" stroke="#262626" stroke-width="1.5" stroke-linecap="round" stroke-linejoin="round"/>
<path d="M863 16.1291C873 15.1291 878.498 21.8727 878.498 21.8727C878.498 21.8727 884 15.1291 896 16.1291" stroke="#262626" stroke-width="1.5" stroke-linecap="round" stroke-linejoin="round"/>
<defs>
<linearGradient id="paint0_linear_1_160" x1="961.394" y1="16.6914" x2="357.701" y2="30.1534" gradientUnits="userSpaceOnUse">
<stop stop-color="#FEFCF3"/>
<stop offset="1" stop-color="#F6F0D6"/>
</linearGradient>
<linearGradient id="paint1_linear_1_160" x1="923.266" y1="56.5798" x2="395.943" y2="68.3388" gradientUnits="userSpaceOnUse">
<stop stop-color="#FEFCF3"/>
<stop offset="1" stop-color="#F6F0D6"/>
</linearGradient>
<linearGradient id="paint2_linear_1_160" x1="1320" y1="330.5" x2="0" y2="330.5" gradientUnits="userSpaceOnUse">
<stop stop-color="#FEFCF3"/>
<stop offset="1" stop-color="#EEE7C8"/>
</linearGradient>
<linearGradient id="paint3_linear_1_160" x1="1320" y1="361.5" x2="0" y2="361.5" gradientUnits="userSpaceOnUse">
<stop stop-color="#FEFCF3"/>
<stop offset="1" stop-color="#EEE7C8"/>
</linearGradient>
<linearGradient id="paint4_linear_1_160" x1="1320" y1="392.5" x2="0" y2="392.5" gradientUnits="userSpaceOnUse">
<stop stop-color="#FEFCF3"/>
<stop offset="1" stop-color="#EEE7C8"/>
</linearGradient>
<linearGradient id="paint5_linear_1_160" x1="1320" y1="423.5" x2="0" y2="423.5" gradientUnits="userSpaceOnUse">
<stop stop-color="#FEFCF3"/>
<stop offset="1" stop-color="#EEE7C8"/>
</linearGradient>
<linearGradient id="paint6_linear_1_160" x1="1320" y1="454.5" x2="0" y2="454.5" gradientUnits="userSpaceOnUse">
<stop stop-color="#FEFCF3"/>
<stop offset="1" stop-color="#EEE7C8"/>
</linearGradient>
<linearGradient id="paint7_linear_1_160" x1="1320" y1="485.5" x2="0" y2="485.5" gradientUnits="userSpaceOnUse">
<stop stop-color="#FEFCF3"/>
<stop offset="1" stop-color="#EEE7C8"/>
</linearGradient>
</defs>
</svg>
