<svg viewBox="0 0 390 233" fill="none" xmlns="http://www.w3.org/2000/svg">
<path d="M350 157C350 157 269.981 157 182.996 157C96.0108 157 35 157 35 157C35 70.2913 105.515 0 192.5 0C279.485 0 350 70.2913 350 157Z" fill="url(#paint0_linear_1_584)" fill-opacity="0.3"/>
<path d="M322 157C322 157 256.206 157 184.685 157C113.164 157 63 157 63 157C63 85.7553 120.979 28 192.5 28C264.021 28 322 85.7553 322 157Z" fill="url(#paint1_linear_1_584)"/>
<path d="M-102 159.009H491" stroke="url(#paint2_linear_1_584)" stroke-width="7"/>
<path d="M-102 172.917H491" stroke="url(#paint3_linear_1_584)" stroke-width="7"/>
<path d="M-102 186.826H491" stroke="url(#paint4_linear_1_584)" stroke-width="7"/>
<path d="M-102 200.734H491" stroke="url(#paint5_linear_1_584)" stroke-width="7"/>
<path d="M-102 214.643H491" stroke="url(#paint6_linear_1_584)" stroke-width="7"/>
<path d="M-102 228.551H491" stroke="url(#paint7_linear_1_584)" stroke-width="7"/>
<path d="M63.0642 52.6763C63.0642 52.6763 62.615 45.2734 63.9627 42.8058" stroke="black" stroke-width="2" stroke-linecap="round" stroke-linejoin="round"/>
<path d="M52.3947 48.6384L57.7856 53.5737" stroke="black" stroke-width="2" stroke-linecap="round" stroke-linejoin="round"/>
<path d="M47.453 60.3036C47.453 60.3036 52.1701 58.9576 57.7856 59.4062" stroke="black" stroke-width="2" stroke-linecap="round" stroke-linejoin="round"/>
<path d="M274.185 25.6543C278.531 24.4317 281.49 26.9865 281.49 26.9865C281.49 26.9865 283.398 23.5736 288.785 23.0798" stroke="#262626" stroke-width="1.5" stroke-linecap="round" stroke-linejoin="round"/>
<path d="M286 18.066C290.545 17.5551 293.044 21 293.044 21C293.044 21 295.545 17.5551 301 18.066" stroke="#262626" stroke-width="1.5" stroke-linecap="round" stroke-linejoin="round"/>
<path d="M68.5045 80.92H79.8795V84H65.2495V59.5H79.7045V62.58H68.5045V70.105H78.8295V73.15H68.5045V80.92ZM97.5766 66.5H100.622V84H97.5766V80.99C96.06 83.3 93.855 84.455 90.9616 84.455C88.5116 84.455 86.4233 83.5683 84.6966 81.795C82.97 79.9983 82.1066 77.8167 82.1066 75.25C82.1066 72.6833 82.97 70.5133 84.6966 68.74C86.4233 66.9433 88.5116 66.045 90.9616 66.045C93.855 66.045 96.06 67.2 97.5766 69.51V66.5ZM91.3466 81.515C93.12 81.515 94.6016 80.92 95.7916 79.73C96.9816 78.5167 97.5766 77.0233 97.5766 75.25C97.5766 73.4767 96.9816 71.995 95.7916 70.805C94.6016 69.5917 93.12 68.985 91.3466 68.985C89.5966 68.985 88.1266 69.5917 86.9366 70.805C85.7466 71.995 85.1516 73.4767 85.1516 75.25C85.1516 77.0233 85.7466 78.5167 86.9366 79.73C88.1266 80.92 89.5966 81.515 91.3466 81.515ZM107.794 71.225C107.794 71.9017 108.133 72.45 108.809 72.87C109.486 73.2667 110.303 73.5933 111.259 73.85C112.216 74.0833 113.173 74.3633 114.129 74.69C115.086 74.9933 115.903 75.53 116.579 76.3C117.256 77.0467 117.594 78.015 117.594 79.205C117.594 80.7917 116.976 82.0633 115.739 83.02C114.526 83.9767 112.963 84.455 111.049 84.455C109.346 84.455 107.888 84.0817 106.674 83.335C105.461 82.5883 104.598 81.5967 104.084 80.36L106.709 78.855C106.989 79.695 107.514 80.36 108.284 80.85C109.054 81.34 109.976 81.585 111.049 81.585C112.053 81.585 112.881 81.3983 113.534 81.025C114.188 80.6283 114.514 80.0217 114.514 79.205C114.514 78.5283 114.176 77.9917 113.499 77.595C112.823 77.175 112.006 76.8483 111.049 76.615C110.093 76.3583 109.136 76.0667 108.179 75.74C107.223 75.4133 106.406 74.8767 105.729 74.13C105.053 73.3833 104.714 72.4267 104.714 71.26C104.714 69.7433 105.298 68.495 106.464 67.515C107.654 66.535 109.136 66.045 110.909 66.045C112.333 66.045 113.593 66.3717 114.689 67.025C115.809 67.655 116.649 68.5417 117.209 69.685L114.654 71.12C114.024 69.6267 112.776 68.88 110.909 68.88C110.046 68.88 109.311 69.09 108.704 69.51C108.098 69.9067 107.794 70.4783 107.794 71.225ZM132.494 66.5H135.749L128.609 85.085C127.863 87.0683 126.813 88.5733 125.459 89.6C124.129 90.65 122.589 91.1167 120.839 91V88.165C122.986 88.3283 124.561 87.1383 125.564 84.595L125.879 83.93L118.249 66.5H121.504L127.454 80.22L132.494 66.5ZM150.549 80.92H161.119V84H147.294V59.5H150.549V80.92ZM165.577 63.315C164.994 63.315 164.504 63.1167 164.107 62.72C163.711 62.3233 163.512 61.845 163.512 61.285C163.512 60.725 163.711 60.2467 164.107 59.85C164.504 59.43 164.994 59.22 165.577 59.22C166.137 59.22 166.616 59.43 167.012 59.85C167.409 60.2467 167.607 60.725 167.607 61.285C167.607 61.845 167.409 62.3233 167.012 62.72C166.616 63.1167 166.137 63.315 165.577 63.315ZM164.037 84V66.5H167.082V84H164.037ZM186.501 84H182.721L174.741 75.705V84H171.696V59.5H174.741V74.235L182.301 66.5H186.221L177.856 74.97L186.501 84ZM189.83 76.65C190.133 78.2133 190.845 79.4267 191.965 80.29C193.108 81.1533 194.508 81.585 196.165 81.585C198.475 81.585 200.155 80.7333 201.205 79.03L203.795 80.5C202.092 83.1367 199.525 84.455 196.095 84.455C193.318 84.455 191.055 83.5917 189.305 81.865C187.578 80.115 186.715 77.91 186.715 75.25C186.715 72.6133 187.567 70.42 189.27 68.67C190.973 66.92 193.178 66.045 195.885 66.045C198.452 66.045 200.54 66.955 202.15 68.775C203.783 70.5717 204.6 72.7417 204.6 75.285C204.6 75.7283 204.565 76.1833 204.495 76.65H189.83ZM195.885 68.915C194.252 68.915 192.898 69.3817 191.825 70.315C190.752 71.225 190.087 72.45 189.83 73.99H201.52C201.263 72.3333 200.61 71.0733 199.56 70.21C198.51 69.3467 197.285 68.915 195.885 68.915ZM225.012 84.455C222.726 84.455 220.766 83.9183 219.132 82.845C217.522 81.7717 216.391 80.3017 215.737 78.435L218.537 76.825C219.494 79.7883 221.676 81.27 225.082 81.27C226.762 81.27 228.046 80.9317 228.932 80.255C229.819 79.555 230.262 78.6333 230.262 77.49C230.262 76.3233 229.819 75.4483 228.932 74.865C228.046 74.2817 226.564 73.6633 224.487 73.01C223.461 72.6833 222.679 72.4267 222.142 72.24C221.606 72.03 220.929 71.7267 220.112 71.33C219.319 70.91 218.724 70.49 218.327 70.07C217.931 69.6267 217.569 69.055 217.242 68.355C216.939 67.655 216.787 66.8617 216.787 65.975C216.787 63.8517 217.534 62.1717 219.027 60.935C220.521 59.675 222.341 59.045 224.487 59.045C226.424 59.045 228.104 59.535 229.527 60.515C230.974 61.495 232.059 62.79 232.782 64.4L230.052 65.975C229.002 63.455 227.147 62.195 224.487 62.195C223.157 62.195 222.084 62.5217 221.267 63.175C220.451 63.8283 220.042 64.715 220.042 65.835C220.042 66.9083 220.427 67.725 221.197 68.285C221.967 68.845 223.297 69.4283 225.187 70.035C225.864 70.245 226.342 70.3967 226.622 70.49C226.902 70.5833 227.334 70.7467 227.917 70.98C228.524 71.2133 228.967 71.4 229.247 71.54C229.527 71.68 229.901 71.8783 230.367 72.135C230.857 72.3917 231.219 72.6367 231.452 72.87C231.686 73.1033 231.954 73.395 232.257 73.745C232.584 74.0717 232.817 74.41 232.957 74.76C233.097 75.11 233.214 75.5183 233.307 75.985C233.424 76.4283 233.482 76.9067 233.482 77.42C233.482 79.5667 232.701 81.2817 231.137 82.565C229.574 83.825 227.532 84.455 225.012 84.455ZM249.065 66.5H252.11V84H249.065V81.48C247.829 83.4633 245.939 84.455 243.395 84.455C241.342 84.455 239.697 83.8133 238.46 82.53C237.224 81.2233 236.605 79.4617 236.605 77.245V66.5H239.65V77.07C239.65 78.4933 240.035 79.6017 240.805 80.395C241.575 81.165 242.637 81.55 243.99 81.55C245.507 81.55 246.732 81.0833 247.665 80.15C248.599 79.1933 249.065 77.735 249.065 75.775V66.5ZM265.43 66.045C267.483 66.045 269.128 66.6983 270.365 68.005C271.601 69.2883 272.22 71.0383 272.22 73.255V84H269.175V73.43C269.175 72.0067 268.79 70.91 268.02 70.14C267.25 69.3467 266.188 68.95 264.835 68.95C263.318 68.95 262.093 69.4283 261.16 70.385C260.226 71.3183 259.76 72.765 259.76 74.725V84H256.715V66.5H259.76V69.02C260.996 67.0367 262.886 66.045 265.43 66.045ZM290.929 59.5H293.974V84H290.929V80.99C289.412 83.3 287.207 84.455 284.314 84.455C281.864 84.455 279.776 83.5683 278.049 81.795C276.322 79.9983 275.459 77.8167 275.459 75.25C275.459 72.6833 276.322 70.5133 278.049 68.74C279.776 66.9433 281.864 66.045 284.314 66.045C287.207 66.045 289.412 67.2 290.929 69.51V59.5ZM284.699 81.515C286.472 81.515 287.954 80.92 289.144 79.73C290.334 78.5167 290.929 77.0233 290.929 75.25C290.929 73.4767 290.334 71.995 289.144 70.805C287.954 69.5917 286.472 68.985 284.699 68.985C282.949 68.985 281.479 69.5917 280.289 70.805C279.099 71.995 278.504 73.4767 278.504 75.25C278.504 77.0233 279.099 78.5167 280.289 79.73C281.479 80.92 282.949 81.515 284.699 81.515ZM313.046 66.5H316.091V84H313.046V80.99C311.529 83.3 309.324 84.455 306.431 84.455C303.981 84.455 301.893 83.5683 300.166 81.795C298.439 79.9983 297.576 77.8167 297.576 75.25C297.576 72.6833 298.439 70.5133 300.166 68.74C301.893 66.9433 303.981 66.045 306.431 66.045C309.324 66.045 311.529 67.2 313.046 69.51V66.5ZM306.816 81.515C308.589 81.515 310.071 80.92 311.261 79.73C312.451 78.5167 313.046 77.0233 313.046 75.25C313.046 73.4767 312.451 71.995 311.261 70.805C310.071 69.5917 308.589 68.985 306.816 68.985C305.066 68.985 303.596 69.5917 302.406 70.805C301.216 71.995 300.621 73.4767 300.621 75.25C300.621 77.0233 301.216 78.5167 302.406 79.73C303.596 80.92 305.066 81.515 306.816 81.515ZM332.888 66.5H336.143L329.003 85.085C328.256 87.0683 327.206 88.5733 325.853 89.6C324.523 90.65 322.983 91.1167 321.233 91V88.165C323.379 88.3283 324.954 87.1383 325.958 84.595L326.273 83.93L318.643 66.5H321.898L327.848 80.22L332.888 66.5ZM160.118 100.5V125H156.898V105.855L148.883 119.19H148.463L140.448 105.89V125H137.193V100.5H140.868L148.673 113.45L156.443 100.5H160.118ZM179.78 122.795C177.984 124.568 175.802 125.455 173.235 125.455C170.669 125.455 168.487 124.568 166.69 122.795C164.917 121.022 164.03 118.84 164.03 116.25C164.03 113.66 164.917 111.478 166.69 109.705C168.487 107.932 170.669 107.045 173.235 107.045C175.802 107.045 177.984 107.932 179.78 109.705C181.577 111.478 182.475 113.66 182.475 116.25C182.475 118.84 181.577 121.022 179.78 122.795ZM173.235 122.48C174.985 122.48 176.455 121.885 177.645 120.695C178.835 119.505 179.43 118.023 179.43 116.25C179.43 114.477 178.835 112.995 177.645 111.805C176.455 110.615 174.985 110.02 173.235 110.02C171.509 110.02 170.05 110.615 168.86 111.805C167.67 112.995 167.075 114.477 167.075 116.25C167.075 118.023 167.67 119.505 168.86 120.695C170.05 121.885 171.509 122.48 173.235 122.48ZM189.078 110.44C190.082 108.27 191.902 107.185 194.538 107.185V110.37C193.045 110.3 191.762 110.697 190.688 111.56C189.615 112.423 189.078 113.812 189.078 115.725V125H186.033V107.5H189.078V110.44ZM206.201 107.045C208.255 107.045 209.9 107.698 211.136 109.005C212.373 110.288 212.991 112.038 212.991 114.255V125H209.946V114.43C209.946 113.007 209.561 111.91 208.791 111.14C208.021 110.347 206.96 109.95 205.606 109.95C204.09 109.95 202.865 110.428 201.931 111.385C200.998 112.318 200.531 113.765 200.531 115.725V125H197.486V107.5H200.531V110.02C201.768 108.037 203.658 107.045 206.201 107.045ZM218.751 104.315C218.167 104.315 217.677 104.117 217.281 103.72C216.884 103.323 216.686 102.845 216.686 102.285C216.686 101.725 216.884 101.247 217.281 100.85C217.677 100.43 218.167 100.22 218.751 100.22C219.311 100.22 219.789 100.43 220.186 100.85C220.582 101.247 220.781 101.725 220.781 102.285C220.781 102.845 220.582 103.323 220.186 103.72C219.789 104.117 219.311 104.315 218.751 104.315ZM217.211 125V107.5H220.256V125H217.211ZM233.585 107.045C235.638 107.045 237.283 107.698 238.52 109.005C239.756 110.288 240.375 112.038 240.375 114.255V125H237.33V114.43C237.33 113.007 236.945 111.91 236.175 111.14C235.405 110.347 234.343 109.95 232.99 109.95C231.473 109.95 230.248 110.428 229.315 111.385C228.381 112.318 227.915 113.765 227.915 115.725V125H224.87V107.5H227.915V110.02C229.151 108.037 231.041 107.045 233.585 107.045ZM259.119 107.5H262.129V124.265C262.129 126.855 261.254 128.862 259.504 130.285C257.754 131.732 255.654 132.455 253.204 132.455C251.244 132.455 249.552 132.082 248.129 131.335C246.706 130.612 245.632 129.562 244.909 128.185L247.569 126.68C248.526 128.64 250.427 129.62 253.274 129.62C255.094 129.62 256.517 129.142 257.544 128.185C258.594 127.228 259.119 125.922 259.119 124.265V121.78C257.579 124.113 255.386 125.28 252.539 125.28C250.042 125.28 247.931 124.393 246.204 122.62C244.477 120.847 243.614 118.688 243.614 116.145C243.614 113.602 244.477 111.455 246.204 109.705C247.931 107.932 250.042 107.045 252.539 107.045C255.409 107.045 257.602 108.2 259.119 110.51V107.5ZM248.444 120.59C249.634 121.78 251.116 122.375 252.889 122.375C254.662 122.375 256.144 121.78 257.334 120.59C258.524 119.4 259.119 117.918 259.119 116.145C259.119 114.395 258.524 112.925 257.334 111.735C256.144 110.545 254.662 109.95 252.889 109.95C251.116 109.95 249.634 110.545 248.444 111.735C247.254 112.925 246.659 114.395 246.659 116.145C246.659 117.918 247.254 119.4 248.444 120.59Z" fill="black"/>
<defs>
<linearGradient id="paint0_linear_1_584" x1="335.481" y1="7.89323" x2="49.0908" y2="14.2999" gradientUnits="userSpaceOnUse">
<stop stop-color="#F2F1EA"/>
<stop offset="1" stop-color="#F6F0D6"/>
</linearGradient>
<linearGradient id="paint1_linear_1_584" x1="310.062" y1="34.4855" x2="74.586" y2="39.7568" gradientUnits="userSpaceOnUse">
<stop stop-color="#FEFCF3"/>
<stop offset="1" stop-color="#F6F0D6"/>
</linearGradient>
<linearGradient id="paint2_linear_1_584" x1="491" y1="158.785" x2="-102" y2="158.785" gradientUnits="userSpaceOnUse">
<stop stop-color="#FEFCF3"/>
<stop offset="1" stop-color="#EEE7C8"/>
</linearGradient>
<linearGradient id="paint3_linear_1_584" x1="491" y1="172.693" x2="-102" y2="172.693" gradientUnits="userSpaceOnUse">
<stop stop-color="#FEFCF3"/>
<stop offset="1" stop-color="#EEE7C8"/>
</linearGradient>
<linearGradient id="paint4_linear_1_584" x1="491" y1="186.602" x2="-102" y2="186.602" gradientUnits="userSpaceOnUse">
<stop stop-color="#FEFCF3"/>
<stop offset="1" stop-color="#EEE7C8"/>
</linearGradient>
<linearGradient id="paint5_linear_1_584" x1="491" y1="200.51" x2="-102" y2="200.51" gradientUnits="userSpaceOnUse">
<stop stop-color="#FEFCF3"/>
<stop offset="1" stop-color="#EEE7C8"/>
</linearGradient>
<linearGradient id="paint6_linear_1_584" x1="491" y1="214.419" x2="-102" y2="214.419" gradientUnits="userSpaceOnUse">
<stop stop-color="#FEFCF3"/>
<stop offset="1" stop-color="#EEE7C8"/>
</linearGradient>
<linearGradient id="paint7_linear_1_584" x1="491" y1="228.327" x2="-102" y2="228.327" gradientUnits="userSpaceOnUse">
<stop stop-color="#FEFCF3"/>
<stop offset="1" stop-color="#EEE7C8"/>
</linearGradient>
</defs>
</svg>
