<svg width="195" height="31" viewBox="0 0 195 31" fill="none" xmlns="http://www.w3.org/2000/svg">
<path d="M22.715 28.93C22.715 29.5 22.505 29.995 22.085 30.415C21.695 30.805 21.215 31 20.645 31H19.385C18.815 31 18.32 30.805 17.9 30.415C17.51 29.995 17.315 29.5 17.315 28.93V13.675C17.315 13.255 17.12 13.045 16.73 13.045H14.975C14.615 13.045 14.435 13.255 14.435 13.675V28.93C14.435 29.5 14.225 29.995 13.805 30.415C13.415 30.805 12.935 31 12.365 31H11.15C10.58 31 10.085 30.805 9.665 30.415C9.275 29.995 9.08 29.5 9.08 28.93V13.675C9.08 13.255 8.9 13.045 8.54 13.045H6.785C6.395 13.045 6.2 13.255 6.2 13.675V28.93C6.2 29.5 5.99 29.995 5.57 30.415C5.18 30.805 4.7 31 4.13 31H2.87C2.3 31 1.805 30.805 1.385 30.415C0.995 29.995 0.8 29.5 0.8 28.93V12.73C0.8 11.8 1.025 10.96 1.475 10.21C1.955 9.43 2.57 8.815 3.32 8.365C4.07 7.915 4.91 7.69 5.84 7.69H9.395C10.055 7.69 10.655 7.825 11.195 8.095C11.555 8.185 11.93 8.185 12.32 8.095C12.86 7.825 13.46 7.69 14.12 7.69H17.675C18.605 7.69 19.445 7.915 20.195 8.365C20.945 8.815 21.545 9.43 21.995 10.21C22.475 10.96 22.715 11.8 22.715 12.73V28.93Z" fill="#E5050F"/>
<path d="M46.3572 25.06C46.3572 26.14 46.0872 27.13 45.5472 28.03C45.0072 28.93 44.2872 29.65 43.3872 30.19C42.4872 30.73 41.4972 31 40.4172 31H32.3172C31.2372 31 30.2322 30.73 29.3022 30.19C28.4022 29.65 27.6822 28.93 27.1422 28.03C26.6022 27.13 26.3322 26.14 26.3322 25.06V6.565C26.3322 5.455 26.6022 4.45 27.1422 3.55C27.6822 2.65 28.4022 1.93 29.3022 1.39C30.2322 0.849997 31.2372 0.579997 32.3172 0.579997H40.4172C41.4972 0.579997 42.4872 0.849997 43.3872 1.39C44.2872 1.93 45.0072 2.65 45.5472 3.55C46.0872 4.45 46.3572 5.455 46.3572 6.565V7.78C46.3572 8.35 46.1622 8.83 45.7722 9.22C45.3822 9.61 44.8872 9.805 44.2872 9.805H43.0722C42.5022 9.805 42.0072 9.61 41.5872 9.22C41.1972 8.83 41.0022 8.35 41.0022 7.78V6.565C41.0022 6.145 40.8072 5.935 40.4172 5.935H32.3172C31.9272 5.935 31.7322 6.145 31.7322 6.565V25.06C31.7322 25.21 31.7922 25.36 31.9122 25.51C32.0322 25.63 32.1672 25.69 32.3172 25.69H40.4172C40.5672 25.69 40.7022 25.63 40.8222 25.51C40.9422 25.36 41.0022 25.21 41.0022 25.06V23.71C41.0022 23.14 41.1972 22.66 41.5872 22.27C42.0072 21.85 42.5022 21.64 43.0722 21.64H44.2872C44.8872 21.64 45.3822 21.85 45.7722 22.27C46.1622 22.66 46.3572 23.14 46.3572 23.71V25.06ZM66.3088 28.93C66.3088 29.5 66.1138 29.995 65.7238 30.415C65.3338 30.805 64.8538 31 64.2838 31H63.0238C62.4538 31 61.9738 30.805 61.5838 30.415C61.1938 29.995 60.9988 29.5 60.9988 28.93V13.675C60.9988 13.495 60.9238 13.345 60.7738 13.225C60.6538 13.105 60.5188 13.045 60.3688 13.045H56.0038C55.8538 13.045 55.7038 13.105 55.5538 13.225C55.4338 13.345 55.3738 13.495 55.3738 13.675V28.93C55.3738 29.5 55.1788 29.995 54.7888 30.415C54.3988 30.805 53.9188 31 53.3488 31H52.0888C51.5188 31 51.0238 30.805 50.6038 30.415C50.2138 29.995 50.0188 29.5 50.0188 28.93V2.65C50.0188 2.05 50.2138 1.555 50.6038 1.165C51.0238 0.774998 51.5188 0.579997 52.0888 0.579997H53.3488C53.9188 0.579997 54.3988 0.774998 54.7888 1.165C55.1788 1.555 55.3738 2.05 55.3738 2.65V7.15C55.3738 7.3 55.4338 7.435 55.5538 7.555C55.7038 7.645 55.8538 7.69 56.0038 7.69H61.3138C62.2438 7.69 63.0838 7.915 63.8338 8.365C64.5838 8.815 65.1838 9.43 65.6338 10.21C66.0838 10.96 66.3088 11.8 66.3088 12.73V28.93ZM86.2599 25.96C86.2599 27.37 85.7649 28.57 84.7749 29.56C83.8149 30.52 82.6449 31 81.2649 31H75.0099C73.6299 31 72.4449 30.52 71.4549 29.56C70.4649 28.57 69.9699 27.37 69.9699 25.96V21.055C69.9699 20.125 70.1949 19.3 70.6449 18.58C71.1249 17.83 71.7399 17.23 72.4899 16.78C73.2399 16.33 74.0799 16.105 75.0099 16.105H80.3199C80.4699 16.105 80.6049 16.045 80.7249 15.925C80.8749 15.805 80.9499 15.655 80.9499 15.475V13.675C80.9499 13.495 80.8749 13.345 80.7249 13.225C80.6049 13.105 80.4699 13.045 80.3199 13.045H75.0099C74.4399 13.045 73.9449 12.85 73.5249 12.46C73.1349 12.07 72.9399 11.59 72.9399 11.02V9.805C72.9399 9.205 73.1349 8.71 73.5249 8.32C73.9449 7.9 74.4399 7.69 75.0099 7.69H81.2649C82.1949 7.69 83.0349 7.915 83.7849 8.365C84.5349 8.815 85.1349 9.43 85.5849 10.21C86.0349 10.96 86.2599 11.8 86.2599 12.73V25.96ZM80.9499 25.105V22C80.9499 21.85 80.8749 21.715 80.7249 21.595C80.6049 21.475 80.4699 21.415 80.3199 21.415H75.9549C75.8049 21.415 75.6549 21.475 75.5049 21.595C75.3849 21.715 75.3249 21.85 75.3249 22V25.105C75.3249 25.255 75.3849 25.39 75.5049 25.51C75.6549 25.63 75.8049 25.69 75.9549 25.69H80.3199C80.4699 25.69 80.6049 25.63 80.7249 25.51C80.8749 25.39 80.9499 25.255 80.9499 25.105ZM103.286 11.02C103.286 11.59 103.091 12.07 102.701 12.46C102.311 12.85 101.831 13.045 101.261 13.045H95.9061C95.5161 13.045 95.3211 13.255 95.3211 13.675V28.93C95.3211 29.5 95.1111 29.995 94.6911 30.415C94.3011 30.805 93.8211 31 93.2511 31H91.9911C91.4211 31 90.9411 30.805 90.5511 30.415C90.1611 29.995 89.9661 29.5 89.9661 28.93V12.73C89.9661 11.8 90.1911 10.96 90.6411 10.21C91.0911 9.43 91.6911 8.815 92.4411 8.365C93.1911 7.915 94.0311 7.69 94.9611 7.69H101.261C101.831 7.69 102.311 7.9 102.701 8.32C103.091 8.71 103.286 9.205 103.286 9.805V11.02ZM120.977 25.96C120.977 27.37 120.482 28.57 119.492 29.56C118.532 30.52 117.362 31 115.982 31H109.727C108.347 31 107.162 30.52 106.172 29.56C105.182 28.57 104.687 27.37 104.687 25.96V21.055C104.687 20.125 104.912 19.3 105.362 18.58C105.842 17.83 106.457 17.23 107.207 16.78C107.957 16.33 108.797 16.105 109.727 16.105H115.037C115.187 16.105 115.322 16.045 115.442 15.925C115.592 15.805 115.667 15.655 115.667 15.475V13.675C115.667 13.495 115.592 13.345 115.442 13.225C115.322 13.105 115.187 13.045 115.037 13.045H109.727C109.157 13.045 108.662 12.85 108.242 12.46C107.852 12.07 107.657 11.59 107.657 11.02V9.805C107.657 9.205 107.852 8.71 108.242 8.32C108.662 7.9 109.157 7.69 109.727 7.69H115.982C116.912 7.69 117.752 7.915 118.502 8.365C119.252 8.815 119.852 9.43 120.302 10.21C120.752 10.96 120.977 11.8 120.977 12.73V25.96ZM115.667 25.105V22C115.667 21.85 115.592 21.715 115.442 21.595C115.322 21.475 115.187 21.415 115.037 21.415H110.672C110.522 21.415 110.372 21.475 110.222 21.595C110.102 21.715 110.042 21.85 110.042 22V25.105C110.042 25.255 110.102 25.39 110.222 25.51C110.372 25.63 110.522 25.69 110.672 25.69H115.037C115.187 25.69 115.322 25.63 115.442 25.51C115.592 25.39 115.667 25.255 115.667 25.105ZM140.928 25.96C140.928 27.37 140.433 28.57 139.443 29.56C138.483 30.52 137.313 31 135.933 31H129.678C128.298 31 127.113 30.52 126.123 29.56C125.133 28.57 124.638 27.37 124.638 25.96V12.73C124.638 11.8 124.863 10.96 125.313 10.21C125.793 9.43 126.408 8.815 127.158 8.365C127.908 7.915 128.748 7.69 129.678 7.69H135.933C136.863 7.69 137.703 7.915 138.453 8.365C139.203 8.815 139.803 9.43 140.253 10.21C140.703 10.96 140.928 11.8 140.928 12.73V15.07C140.928 15.64 140.733 16.135 140.343 16.555C139.953 16.945 139.473 17.14 138.903 17.14H137.643C137.073 17.14 136.593 16.945 136.203 16.555C135.813 16.135 135.618 15.64 135.618 15.07V13.675C135.618 13.495 135.543 13.345 135.393 13.225C135.273 13.105 135.138 13.045 134.988 13.045H130.623C130.473 13.045 130.323 13.105 130.173 13.225C130.053 13.345 129.993 13.495 129.993 13.675V25.105C129.993 25.255 130.053 25.39 130.173 25.51C130.323 25.63 130.473 25.69 130.623 25.69H134.988C135.138 25.69 135.273 25.63 135.393 25.51C135.543 25.39 135.618 25.255 135.618 25.105V23.71C135.618 23.14 135.813 22.66 136.203 22.27C136.593 21.85 137.073 21.64 137.643 21.64H138.903C139.473 21.64 139.953 21.85 140.343 22.27C140.733 22.66 140.928 23.14 140.928 23.71V25.96ZM157.954 28.93C157.954 29.5 157.759 29.995 157.369 30.415C156.979 30.805 156.499 31 155.929 31H149.629C148.249 31 147.064 30.52 146.074 29.56C145.114 28.57 144.634 27.37 144.634 25.96V2.65C144.634 2.05 144.829 1.555 145.219 1.165C145.609 0.774998 146.089 0.579997 146.659 0.579997H147.919C148.489 0.579997 148.969 0.774998 149.359 1.165C149.779 1.555 149.989 2.05 149.989 2.65V7.15C149.989 7.51 150.184 7.69 150.574 7.69H155.929C156.499 7.69 156.979 7.9 157.369 8.32C157.759 8.71 157.954 9.205 157.954 9.805V11.02C157.954 11.53 157.759 12.01 157.369 12.46C156.919 12.85 156.439 13.045 155.929 13.045H150.574C150.184 13.045 149.989 13.255 149.989 13.675V25.105C149.989 25.495 150.184 25.69 150.574 25.69H155.929C156.499 25.69 156.979 25.885 157.369 26.275C157.759 26.665 157.954 27.16 157.954 27.76V28.93ZM177.886 17.635C177.886 18.535 177.661 19.375 177.211 20.155C176.761 20.905 176.161 21.52 175.411 22C174.661 22.45 173.821 22.675 172.891 22.675H167.581C167.431 22.675 167.281 22.735 167.131 22.855C167.011 22.945 166.951 23.065 166.951 23.215V25.105C166.951 25.255 167.011 25.39 167.131 25.51C167.281 25.63 167.431 25.69 167.581 25.69H172.891C173.461 25.69 173.941 25.885 174.331 26.275C174.751 26.665 174.961 27.16 174.961 27.76V28.93C174.961 29.5 174.751 29.995 174.331 30.415C173.941 30.805 173.461 31 172.891 31H166.636C165.256 31 164.071 30.52 163.081 29.56C162.091 28.57 161.596 27.37 161.596 25.96V12.73C161.596 11.8 161.821 10.96 162.271 10.21C162.751 9.46 163.366 8.86 164.116 8.41C164.866 7.93 165.706 7.69 166.636 7.69H172.891C173.821 7.69 174.661 7.93 175.411 8.41C176.161 8.86 176.761 9.46 177.211 10.21C177.661 10.96 177.886 11.8 177.886 12.73V17.635ZM172.576 16.735V13.675C172.576 13.495 172.501 13.345 172.351 13.225C172.231 13.105 172.096 13.045 171.946 13.045H167.581C167.431 13.045 167.281 13.105 167.131 13.225C167.011 13.345 166.951 13.495 166.951 13.675V16.735C166.951 16.855 167.011 16.975 167.131 17.095C167.281 17.215 167.431 17.275 167.581 17.275H171.946C172.096 17.275 172.231 17.215 172.351 17.095C172.501 16.975 172.576 16.855 172.576 16.735ZM194.912 11.02C194.912 11.59 194.717 12.07 194.327 12.46C193.937 12.85 193.457 13.045 192.887 13.045H187.532C187.142 13.045 186.947 13.255 186.947 13.675V28.93C186.947 29.5 186.737 29.995 186.317 30.415C185.927 30.805 185.447 31 184.877 31H183.617C183.047 31 182.567 30.805 182.177 30.415C181.787 29.995 181.592 29.5 181.592 28.93V12.73C181.592 11.8 181.817 10.96 182.267 10.21C182.717 9.43 183.317 8.815 184.067 8.365C184.817 7.915 185.657 7.69 186.587 7.69H192.887C193.457 7.69 193.937 7.9 194.327 8.32C194.717 8.71 194.912 9.205 194.912 9.805V11.02Z" fill="#304455"/>
</svg>
