<svg width="208" height="39" viewBox="0 0 208 39" fill="none" xmlns="http://www.w3.org/2000/svg">
<path d="M18.3883 1.59961L17.229 4.24658C16.63 4.28299 16.0329 4.35871 15.4415 4.47281L13.6681 2.18278L11.7566 2.83268L11.7471 5.74625C10.9374 6.16246 10.1614 6.66565 9.4284 7.25293L6.72697 6.03662L5.34391 7.50773L6.72689 10.1309C6.28113 10.7666 5.89471 11.4313 5.56771 12.1185L2.60173 12.1994L1.99951 14.125L4.3942 15.889C4.27956 16.6035 4.22358 17.3254 4.22038 18.048L1.56152 19.3953L1.84001 21.3948L4.75838 21.9661C4.93236 22.5741 5.14739 23.1716 5.40584 23.7561L3.48258 26.1437L4.55607 27.8527L7.54581 27.1529C7.73396 27.3734 7.92949 27.5914 8.13371 27.8027C8.56355 28.2471 9.01464 28.6562 9.48347 29.0309L8.90266 32.0255L10.6499 33.0348L12.9326 31.0471C13.5881 31.3108 14.2607 31.5217 14.9441 31.6803L15.6892 34.6057L17.7005 34.77L18.9097 32.0111C19.7453 31.9608 20.5782 31.8359 21.3972 31.6349L23.3183 33.8607L25.1916 33.1109L25.1367 31.9825L20.764 28.6668C19.491 28.9886 18.171 29.0747 16.8744 28.9285C14.4557 28.6558 12.1312 27.5635 10.307 25.677C6.13755 21.3646 6.25676 14.5049 10.5689 10.3355C12.6576 8.31599 15.3441 7.29148 18.0338 7.26246C20.8971 7.23153 23.763 8.32856 25.9128 10.5521C29.4118 14.1712 29.8887 19.6154 27.4029 23.7371L29.8381 25.5842C30.1426 25.1059 30.4166 24.613 30.657 24.1084L33.6014 24.0274L34.2036 22.1018L31.8257 20.3499C31.941 19.6295 31.9981 18.8999 31.9994 18.1718L34.6417 16.8293L34.3633 14.8298L31.4474 14.2585C31.204 13.4211 30.8804 12.6008 30.4762 11.8114L32.2137 9.40487L31.0521 7.75521L28.1911 8.58594C28.1551 8.54786 28.1202 8.50924 28.0838 8.47168C27.6269 7.99904 27.1446 7.566 26.6413 7.17189L27.1889 4.34401L25.4414 3.3348L23.2705 5.22493C22.5677 4.94211 21.8459 4.72197 21.1139 4.55843L20.4022 1.76384L18.3883 1.59961ZM13.9585 13.292C13.1706 13.301 12.3896 13.4945 11.6733 13.8465L15.1178 16.4603C16.1596 17.2506 16.455 18.7527 15.6556 19.8071C14.856 20.862 13.3205 21.0206 12.2637 20.219L8.82162 17.6077C8.46917 19.4962 9.13659 21.4972 10.7712 22.7374C12.2371 23.8493 14.1185 24.0574 15.7391 23.4753L16.1032 23.3443L16.4102 23.5776L26.7078 31.3901L27.0148 31.6234L26.9886 32.009C26.8639 33.7267 27.5668 35.4832 29.0334 36.5959C30.668 37.8359 32.7768 37.9388 34.501 37.091L31.0591 34.4798C30.0023 33.678 29.7427 32.1561 30.5426 31.102C31.3424 30.0478 32.8687 29.9286 33.9107 30.7188L37.3528 33.3302C37.7044 31.4423 37.0397 29.4403 35.4056 28.2004C33.9345 27.0839 32.068 26.8627 30.4569 27.4362L30.095 27.5648L29.7881 27.3315L19.4904 19.5191L19.1834 19.2858L19.2096 18.9027C19.3277 17.1974 18.6117 15.4601 17.141 14.3442C16.1855 13.6193 15.0675 13.2794 13.9586 13.2921L13.9585 13.292ZM17.2768 20.1665L29.7594 29.638L28.9001 30.7734L16.415 21.2996L17.2768 20.1665Z" fill="#FAFF00"/>
<path d="M49.917 19H45.9875L51.0915 3.87273H55.9591L61.0631 19H57.1335L53.5807 7.68409H53.4625L49.917 19ZM49.3926 13.0466H57.6063V15.8239H49.3926V13.0466ZM62.6918 19V3.87273H66.348V16.0307H72.6412V19H62.6918ZM74.5339 19V3.87273H80.7828C81.9154 3.87273 82.8929 4.09432 83.7152 4.5375C84.5425 4.97576 85.1802 5.58882 85.6283 6.3767C86.0764 7.15966 86.3004 8.07064 86.3004 9.10966C86.3004 10.1536 86.0714 11.067 85.6135 11.85C85.1605 12.628 84.5129 13.2312 83.6709 13.6597C82.8288 14.0881 81.8292 14.3023 80.672 14.3023H76.8163V11.4216H79.9925C80.544 11.4216 81.0044 11.3256 81.3737 11.1335C81.748 10.9415 82.0311 10.6731 82.2232 10.3284C82.4152 9.97879 82.5112 9.57254 82.5112 9.10966C82.5112 8.64185 82.4152 8.23807 82.2232 7.89829C82.0311 7.5536 81.748 7.28769 81.3737 7.10057C80.9995 6.91345 80.5391 6.81989 79.9925 6.81989H78.1902V19H74.5339ZM88.1027 19V3.87273H91.759V9.94432H97.7197V3.87273H101.369V19H97.7197V12.921H91.759V19H88.1027ZM106.934 19H103.005L108.109 3.87273H112.976L118.08 19H114.151L110.598 7.68409H110.48L106.934 19ZM106.41 13.0466H114.623V15.8239H106.41V13.0466Z" fill="#F8F8F8"/>
<path d="M49.0888 36H45.8961L50.0431 23.7091H53.998L58.145 36H54.9522L52.0656 26.8058H51.9695L49.0888 36ZM48.6627 31.1629H55.3363V33.4194H48.6627V31.1629ZM59.4683 36V23.7091H64.5455C65.4657 23.7091 66.2599 23.8891 66.9281 24.2492C67.6002 24.6053 68.1184 25.1034 68.4824 25.7436C68.8465 26.3797 69.0286 27.1199 69.0286 27.9641C69.0286 28.8123 68.8425 29.5545 68.4704 30.1906C68.1024 30.8228 67.5762 31.3129 66.8921 31.661C66.2079 32.0091 65.3957 32.1831 64.4555 32.1831H61.3227V29.8425H63.9034C64.3515 29.8425 64.7256 29.7645 65.0256 29.6085C65.3297 29.4524 65.5597 29.2344 65.7158 28.9543C65.8718 28.6703 65.9498 28.3402 65.9498 27.9641C65.9498 27.584 65.8718 27.2559 65.7158 26.9799C65.5597 26.6998 65.3297 26.4837 65.0256 26.3317C64.7216 26.1797 64.3475 26.1037 63.9034 26.1037H62.439V36H59.4683ZM70.4929 36V23.7091H75.5701C76.4903 23.7091 77.2845 23.8891 77.9527 24.2492C78.6248 24.6053 79.143 25.1034 79.5071 25.7436C79.8711 26.3797 80.0532 27.1199 80.0532 27.9641C80.0532 28.8123 79.8671 29.5545 79.4951 30.1906C79.127 30.8228 78.6008 31.3129 77.9167 31.661C77.2325 32.0091 76.4203 32.1831 75.4801 32.1831H72.3474V29.8425H74.928C75.3761 29.8425 75.7502 29.7645 76.0502 29.6085C76.3543 29.4524 76.5844 29.2344 76.7404 28.9543C76.8964 28.6703 76.9745 28.3402 76.9745 27.9641C76.9745 27.584 76.8964 27.2559 76.7404 26.9799C76.5844 26.6998 76.3543 26.4837 76.0502 26.3317C75.7462 26.1797 75.3721 26.1037 74.928 26.1037H73.4636V36H70.4929ZM81.5175 36V23.7091H84.4882V33.5874H89.6014V36H81.5175ZM94.11 23.7091V36H91.1393V23.7091H94.11ZM98.6336 36H95.4408L99.5878 23.7091H103.543L107.69 36H104.497L101.61 26.8058H101.514L98.6336 36ZM98.2075 31.1629H104.881V33.4194H98.2075V31.1629ZM119.474 23.7091V36H116.953L112.062 28.9063H111.984V36H109.013V23.7091H111.57L116.407 30.7908H116.509V23.7091H119.474ZM132.498 28.1621H129.497C129.457 27.8541 129.375 27.576 129.251 27.3279C129.127 27.0799 128.963 26.8678 128.759 26.6918C128.555 26.5158 128.313 26.3817 128.033 26.2897C127.757 26.1937 127.451 26.1457 127.115 26.1457C126.519 26.1457 126.005 26.2917 125.572 26.5838C125.144 26.8758 124.814 27.2979 124.582 27.8501C124.354 28.4022 124.24 29.0704 124.24 29.8545C124.24 30.6707 124.356 31.3549 124.588 31.907C124.824 32.4552 125.154 32.8693 125.578 33.1493C126.007 33.4254 126.513 33.5634 127.097 33.5634C127.425 33.5634 127.723 33.5214 127.991 33.4374C128.263 33.3534 128.501 33.2313 128.705 33.0713C128.913 32.9073 129.083 32.7092 129.215 32.4772C129.351 32.2411 129.445 31.975 129.497 31.679L132.498 31.697C132.446 32.2411 132.288 32.7772 132.024 33.3054C131.764 33.8335 131.406 34.3156 130.95 34.7517C130.494 35.1838 129.937 35.5279 129.281 35.7839C128.629 36.04 127.881 36.168 127.037 36.168C125.925 36.168 124.928 35.924 124.048 35.4359C123.172 34.9437 122.48 34.2276 121.972 33.2874C121.463 32.3471 121.209 31.2029 121.209 29.8545C121.209 28.5022 121.467 27.356 121.984 26.4157C122.5 25.4755 123.198 24.7613 124.078 24.2732C124.958 23.7851 125.945 23.541 127.037 23.541C127.781 23.541 128.469 23.6451 129.101 23.8531C129.733 24.0572 130.29 24.3572 130.77 24.7533C131.25 25.1454 131.64 25.6275 131.94 26.1997C132.24 26.7718 132.426 27.426 132.498 28.1621ZM134.198 36V23.7091H142.768V26.1217H137.169V28.6423H142.33V31.0608H137.169V33.5874H142.768V36H134.198ZM148.259 36V23.7091H153.337C154.257 23.7091 155.051 23.8751 155.719 24.2072C156.391 24.5353 156.909 25.0074 157.273 25.6235C157.638 26.2357 157.82 26.9619 157.82 27.8021C157.82 28.6543 157.634 29.3784 157.261 29.9746C156.889 30.5667 156.361 31.0188 155.677 31.3309C154.993 31.639 154.183 31.793 153.247 31.793H150.036V29.4524H152.694C153.142 29.4524 153.517 29.3944 153.817 29.2784C154.121 29.1584 154.351 28.9783 154.507 28.7383C154.663 28.4942 154.741 28.1821 154.741 27.8021C154.741 27.422 154.663 27.1079 154.507 26.8598C154.351 26.6078 154.121 26.4197 153.817 26.2957C153.513 26.1677 153.138 26.1037 152.694 26.1037H151.23V36H148.259ZM155.179 30.3827L158.24 36H154.999L151.998 30.3827H155.179ZM159.449 36V23.7091H168.019V26.1217H162.42V28.6423H167.581V31.0608H162.42V33.5874H168.019V36H159.449ZM169.879 36V23.7091H174.957C175.877 23.7091 176.671 23.8891 177.339 24.2492C178.011 24.6053 178.529 25.1034 178.894 25.7436C179.258 26.3797 179.44 27.1199 179.44 27.9641C179.44 28.8123 179.254 29.5545 178.882 30.1906C178.513 30.8228 177.987 31.3129 177.303 31.661C176.619 32.0091 175.807 32.1831 174.867 32.1831H171.734V29.8425H174.314C174.763 29.8425 175.137 29.7645 175.437 29.6085C175.741 29.4524 175.971 29.2344 176.127 28.9543C176.283 28.6703 176.361 28.3402 176.361 27.9641C176.361 27.584 176.283 27.2559 176.127 26.9799C175.971 26.6998 175.741 26.4837 175.437 26.3317C175.133 26.1797 174.759 26.1037 174.314 26.1037H172.85V36H169.879ZM182.077 36H178.885L183.032 23.7091H186.987L191.133 36H187.941L185.054 26.8058H184.958L182.077 36ZM181.651 31.1629H188.325V33.4194H181.651V31.1629ZM195.428 23.7091V36H192.457V23.7091H195.428ZM197.292 36V23.7091H202.37C203.29 23.7091 204.084 23.8751 204.752 24.2072C205.424 24.5353 205.942 25.0074 206.307 25.6235C206.671 26.2357 206.853 26.9619 206.853 27.8021C206.853 28.6543 206.667 29.3784 206.295 29.9746C205.922 30.5667 205.394 31.0188 204.71 31.3309C204.026 31.639 203.216 31.793 202.28 31.793H199.069V29.4524H201.727C202.176 29.4524 202.55 29.3944 202.85 29.2784C203.154 29.1584 203.384 28.9783 203.54 28.7383C203.696 28.4942 203.774 28.1821 203.774 27.8021C203.774 27.422 203.696 27.1079 203.54 26.8598C203.384 26.6078 203.154 26.4197 202.85 26.2957C202.546 26.1677 202.172 26.1037 201.727 26.1037H200.263V36H197.292ZM204.212 30.3827L207.273 36H204.032L201.031 30.3827H204.212Z" fill="#FAFF00"/>
</svg>
