<svg width="330" height="80" viewBox="0 0 330 80" fill="none" xmlns="http://www.w3.org/2000/svg">
<path fill-rule="evenodd" clip-rule="evenodd" d="M127.568 10.5621C127.568 4.72846 122.825 0 116.973 0V62.3338H127.568V10.5621ZM88.5788 63.0247C99.3485 63.0247 107.511 57.052 109.161 47.7879H98.7393C97.6099 51.9441 94.0491 54.1939 88.5788 54.1939C81.8045 54.1939 77.2881 49.6924 76.507 42.68H108.813C108.901 41.8143 108.988 40.5154 108.988 39.0442C108.988 28.6552 102.387 18.0061 87.7104 18.0061C73.3799 18.0061 66.2583 28.8275 66.2583 40.3422C66.2583 51.77 74.2483 63.0247 88.5788 63.0247ZM98.3063 35.6668H76.7669C77.8962 29.0868 81.718 25.9695 87.7103 25.9695C94.049 25.9695 97.8716 30.1256 98.3063 35.6668ZM53.7567 18.6952L45.6803 47.8715L37.0829 18.6952H27.2689L18.6715 47.8715L10.6824 18.6952H0L13.9814 62.3296H23.3617L32.2191 32.9811L40.9911 62.3296H50.4569L64.3519 18.6952H53.7567ZM138.332 0C144.184 0 148.927 4.72846 148.927 10.5621V62.3338H138.332V0ZM156.741 40.5163C156.741 27.5294 166.294 18.0061 179.669 18.0061C192.958 18.0061 202.511 27.5294 202.511 40.5163C202.511 53.5032 192.958 63.0256 179.669 63.0256C166.294 63.0256 156.741 53.5032 156.741 40.5163ZM191.74 40.5175C191.74 32.6394 186.877 27.1852 179.668 27.1852C172.373 27.1852 167.51 32.6394 167.51 40.5175C167.51 48.3956 172.373 53.8498 179.668 53.8498C186.877 53.8498 191.74 48.3956 191.74 40.5175ZM229.864 27.6219C223.089 27.6219 220.396 33.4223 220.396 41.7337V62.3385H209.715V18.705H220.396V26.4099C222.568 20.8696 225.954 18.705 231.6 18.705L235.49 18.705L238.614 27.6219L229.864 27.6219ZM260.742 80L267.517 60.2609L282.8 18.705H271.858L261.784 48.659L251.623 18.705H240.768L256.747 62.3385L250.581 80H260.742Z" fill="#F3654A"/>
<path d="M329.31 62.3986H316.463L307.089 48.9446L297.628 62.3986H284.694L300.492 39.5702L285.823 18.6514H299.016L307.002 30.1958L314.988 18.6514H328.268L313.599 39.657L329.31 62.3986Z" fill="#FCF6E8"/>
</svg>
