<svg width="594" height="738" viewBox="0 0 594 738" fill="none" xmlns="http://www.w3.org/2000/svg">
<path d="M176.556 486.618C141.438 432.88 3.97633 215.67 217.927 75.9693C252.798 62.1337 312.196 75.8248 355.477 136.165C409.579 211.591 448.93 313.784 469.617 362.885C490.304 411.985 507.315 477.814 479.92 558.559C452.524 639.305 420.136 660.075 339.176 629.416C258.215 598.758 211.675 540.355 176.556 486.618Z" fill="url(#paint0_linear)"/>
<path d="M91.306 234.582C104.641 147.659 161.272 107.275 184.156 86.9112" stroke="#CDB991"/>
<path d="M296.885 625.024C232.68 588.971 185.761 536.126 164.4 497.804" stroke="#D6CDF9" stroke-opacity="0.58"/>
<path d="M474.558 592.646C445.419 679.075 416.774 677.1 317.504 634.132" stroke="#53419A" stroke-opacity="0.57"/>
<defs>
<linearGradient id="paint0_linear" x1="163.113" y1="103.565" x2="430.765" y2="635.209" gradientUnits="userSpaceOnUse">
<stop stop-color="#F7E6C6"/>
<stop offset="1" stop-color="#EBE6FF"/>
</linearGradient>
</defs>
</svg>
