<svg  width="1803" height="6962" viewBox="0 0 1803 6962" fill="none" xmlns="http://www.w3.org/2000/svg">
<path d="M-238 -160.5C-286.974 -17.3 -38.5 -81 169 94.5C292.082 198.601 366.398 444.546 424 593.5C537.5 887 688.923 936.208 818.5 966C999 1007.5 1144.6 1000.49 1340.5 1074.5C1566.7 1159.96 1598 1239 1646.5 1315C1695 1391 1777.7 1741.78 1485 1907.5C1059.67 2148.31 740.777 1915.78 409.5 2190.5C163.5 2394.5 121.5 2847 305 3146C442.123 3369.43 886.452 3303 1149 3303C1370.5 3303 1485 3291 1635 3397C1806.07 3517.89 1832.5 3736 1769.5 3902C1606.19 4332.3 1317.63 4240.85 926.443 4578.11C550.083 4902.59 492.386 5251.74 523.918 5503.28C547.04 5687.74 607.777 5998.85 829.837 6193L1684.5 7023.5" stroke="url(#paint0_radial)" stroke-width="3"/>
<defs>
<radialGradient id="paint0_radial" cx="0" cy="0" r="1" gradientUnits="userSpaceOnUse" gradientTransform="translate(949.923 -150.704) rotate(90) scale(5977.38 1692.95)">
<stop stop-color="#CDB991"/>
<stop offset="1" stop-color="#E7D6B7"/>
</radialGradient>
</defs>
</svg>
