<svg width="375" height="6735" viewBox="0 0 375 6735" fill="none" xmlns="http://www.w3.org/2000/svg">
<path d="M4.99995 -144C-3.66873 -0.789307 -1.13451 41.589 44.5 215C72 319.5 176 463 185 591C193.336 709.554 50.5 735 19 843.5C-21.9825 984.662 126 1027 245.5 1135C349.038 1228.57 389.5 1341 329 1475C268.5 1609 66.2 1644.85 21 1812.5C-34 2016.5 309 2390.5 347 2539C426.448 2849.47 25 2877.5 17.5 3127C10.8793 3347.25 230.998 3377.13 300.5 3449.5C361 3512.5 375.178 3631.21 323.5 3727.5C254 3857 33.6514 3994.49 22.5 4160.5C-6.40666 4590.84 315.542 4788.96 351 4971C407 5258.5 13.4188 5336.44 19 5588C23.0929 5772.48 150.815 6017.81 190.12 6211.98L384 6758.5" stroke="url(#paint0_radial_224:446)" stroke-width="2"/>
<defs>
<radialGradient id="paint0_radial_224:446" cx="0" cy="0" r="1" gradientUnits="userSpaceOnUse" gradientTransform="translate(211.377 -132.203) rotate(90) scale(5977.82 299.664)">
<stop stop-color="#CDB991"/>
<stop offset="1" stop-color="#E7D6B7"/>
</radialGradient>
</defs>
</svg>
