<svg width="286" height="506" viewBox="0 0 286 506" fill="none" xmlns="http://www.w3.org/2000/svg">
<g clip-path="url(#clip0)">
<path d="M248.958 237.265L256.537 195.807C256.855 194.069 256.459 192.25 255.443 190.779L241.687 170.87C239.577 167.815 235.351 167.043 232.297 169.153L212.388 182.908C210.916 183.925 209.903 185.487 209.605 187.252L202.026 228.71C201.356 232.372 203.793 235.899 207.455 236.568L241.119 242.722C244.782 243.391 248.28 240.974 248.958 237.265ZM229.823 189.322C228.231 187.017 228.806 183.872 231.111 182.279C233.415 180.687 236.561 181.262 238.153 183.567C239.746 185.871 239.171 189.017 236.866 190.61C234.561 192.202 231.415 191.627 229.823 189.322Z" fill="#E5E5E5"/>
</g>
<path d="M135.975 385.119C136.921 383.578 137.541 381.86 137.797 380.069C138.052 378.279 137.938 376.456 137.461 374.712C137.093 373.031 136.638 371.37 136.098 369.736L151.267 361.315C152.583 364.428 153.055 367.834 152.635 371.188C152.58 371.434 152.575 371.688 152.618 371.936C152.662 372.184 152.754 372.421 152.889 372.633C153.024 372.846 153.2 373.029 153.406 373.174C153.613 373.318 153.845 373.421 154.091 373.475C154.337 373.53 154.591 373.536 154.839 373.492C155.087 373.448 155.324 373.356 155.536 373.221C155.749 373.086 155.932 372.91 156.077 372.704C156.221 372.498 156.324 372.265 156.378 372.019C157.022 367.747 156.42 363.379 154.645 359.439L159.829 356.561C160.273 356.315 160.601 355.902 160.74 355.415C160.88 354.927 160.82 354.404 160.573 353.96C160.327 353.516 159.915 353.189 159.427 353.049C158.939 352.91 158.416 352.97 157.973 353.216L152.955 356.001C148.703 348.736 142.784 346.705 138.936 347.222C136.443 347.527 134.137 348.704 132.428 350.546C130.72 352.387 129.718 354.774 129.601 357.284C129.453 360.924 130.095 364.554 131.482 367.923L116.163 376.428C113.959 371.939 113.242 366.866 114.116 361.943C114.212 361.691 114.254 361.423 114.239 361.154C114.224 360.885 114.153 360.622 114.029 360.383C113.906 360.144 113.734 359.933 113.523 359.765C113.313 359.597 113.07 359.476 112.809 359.408C112.549 359.341 112.277 359.329 112.012 359.373C111.746 359.418 111.493 359.518 111.269 359.668C111.045 359.817 110.855 360.011 110.711 360.239C110.568 360.467 110.474 360.722 110.436 360.989C109.289 366.859 110.127 372.943 112.818 378.285L107.801 381.07C107.357 381.316 107.03 381.728 106.89 382.216C106.751 382.704 106.811 383.227 107.057 383.671C107.303 384.114 107.716 384.442 108.203 384.581C108.691 384.721 109.214 384.661 109.658 384.415L114.675 381.629C117.611 386.169 122.134 390.769 129.413 389.418C130.737 389.17 131.998 388.663 133.124 387.925C134.25 387.187 135.219 386.233 135.975 385.119ZM133.46 357.614C133.509 355.989 134.136 354.435 135.228 353.231C136.32 352.027 137.806 351.253 139.418 351.046C140.022 350.952 145.26 350.494 149.611 357.858L134.894 366.029C133.83 363.356 133.341 360.489 133.46 357.614ZM128.786 385.609C124.539 386.392 121.331 384.673 118.087 379.735L132.687 371.63C133.047 372.83 133.392 374.082 133.691 375.448C134.053 376.693 134.159 377.999 134.001 379.287C133.843 380.574 133.425 381.816 132.772 382.937C131.842 384.312 130.412 385.27 128.786 385.609Z" fill="#CDB991" fill-opacity="0.5"/>
<g clip-path="url(#clip1)">
<path d="M165.298 61.6274C166.948 63.4865 169.792 63.6565 171.651 62.0072C173.51 60.3578 173.68 57.5136 172.031 55.6545C170.381 53.7954 167.537 53.6254 165.678 55.2747C163.819 56.9241 163.649 59.7682 165.298 61.6274Z" fill="#9A4176" fill-opacity="0.21"/>
<path d="M186.203 85.1908C187.852 87.0499 190.697 87.22 192.556 85.5706C194.415 83.9213 194.585 81.0771 192.936 79.218C191.286 77.3589 188.442 77.1889 186.583 78.8382C184.724 80.4876 184.554 83.3317 186.203 85.1908Z" fill="#9A4176" fill-opacity="0.21"/>
<path d="M203.576 12.5691C203.89 12.1545 204.05 11.644 204.03 11.1244C204.01 10.6049 203.811 10.1083 203.466 9.71912L197.493 2.98669L194.127 5.9731L198.875 11.3254L172.3 46.452C171.987 46.8666 171.826 47.3771 171.846 47.8967C171.866 48.4163 172.066 48.9128 172.41 49.302L199.288 79.5979L202.654 76.6115L177.001 47.6957L182.539 40.3764L209.387 70.6387C209.727 71.0215 210.187 71.2771 210.691 71.3631C211.196 71.4492 211.715 71.3607 212.162 71.1122L232.745 59.6735L229.688 56.2281L211.555 66.3024L185.308 36.7168L203.576 12.5691Z" fill="#9A4176" fill-opacity="0.21"/>
<path d="M222.007 46.1659L210.617 45.4849L224.371 33.2825L221.384 29.9163L207.63 42.1187L208.311 30.7285L203.82 30.4599L202.68 49.5178L221.738 50.6572L222.007 46.1659Z" fill="#9A4176" fill-opacity="0.21"/>
</g>
<g clip-path="url(#clip2)">
<path d="M65.131 136.984C65.6989 136.753 66.3356 136.756 66.9009 136.994C67.4662 137.232 67.9139 137.685 68.1454 138.253L73.3835 151.101L86.2318 145.863C86.7997 145.631 87.4364 145.635 88.0017 145.873C88.567 146.111 89.0146 146.563 89.2462 147.131C89.4777 147.699 89.4742 148.336 89.2363 148.901C88.9984 149.466 88.5458 149.914 87.9778 150.146L75.1296 155.384L80.3677 168.232C80.5993 168.8 80.5957 169.437 80.3578 170.002C80.12 170.567 79.6673 171.015 79.0994 171.246C78.5314 171.478 77.8948 171.474 77.3295 171.236C76.7642 170.999 76.3165 170.546 76.085 169.978L70.8468 157.13L57.9986 162.368C57.4307 162.599 56.794 162.596 56.2287 162.358C55.6634 162.12 55.2157 161.667 54.9842 161.1C54.7526 160.532 54.7562 159.895 54.9941 159.33C55.2319 158.764 55.6846 158.317 56.2525 158.085L69.1008 152.847L63.8626 139.999C63.6311 139.431 63.6347 138.794 63.8725 138.229C64.1104 137.664 64.5631 137.216 65.131 136.984V136.984Z" fill="#9BE1A6" fill-opacity="0.42"/>
</g>
<path d="M41.51 458.407C41.772 458.061 41.9321 457.648 41.972 457.215C42.012 456.782 41.9304 456.347 41.7364 455.958C41.5424 455.57 41.2436 455.243 40.8738 455.015C40.504 454.786 40.0779 454.666 39.6433 454.667H24.6867C24.2763 454.667 23.8731 454.775 23.5179 454.981C23.1627 455.187 22.8681 455.482 22.6637 455.838L11.34 475.569C11.1368 475.924 11.0304 476.326 11.0314 476.735C11.0325 477.144 11.1411 477.545 11.3462 477.899C11.5513 478.253 11.8459 478.547 12.2002 478.751C12.5546 478.955 12.9564 479.062 13.3653 479.062H21L13.804 497.88C12.7657 500.26 15.5773 502.437 17.4673 500.715L46.6667 471.773H31.409L41.5077 458.407H41.51Z" stroke="#FCF298" stroke-opacity="0.8" stroke-width="2" stroke-linecap="round" stroke-linejoin="round"/>
<g clip-path="url(#clip3)">
<path d="M165.298 61.6274C166.948 63.4865 169.792 63.6565 171.651 62.0072C173.51 60.3578 173.68 57.5136 172.031 55.6545C170.381 53.7954 167.537 53.6254 165.678 55.2747C163.819 56.9241 163.649 59.7682 165.298 61.6274Z" fill="#9A4176" fill-opacity="0.21"/>
<path d="M186.203 85.1908C187.852 87.0499 190.697 87.22 192.556 85.5706C194.415 83.9213 194.585 81.0771 192.936 79.218C191.286 77.3589 188.442 77.1889 186.583 78.8382C184.724 80.4876 184.554 83.3317 186.203 85.1908Z" fill="#9A4176" fill-opacity="0.21"/>
<path d="M203.576 12.5691C203.89 12.1545 204.05 11.644 204.03 11.1244C204.01 10.6049 203.811 10.1083 203.466 9.71912L197.493 2.98669L194.127 5.9731L198.875 11.3254L172.3 46.452C171.987 46.8666 171.826 47.3771 171.846 47.8967C171.866 48.4163 172.066 48.9128 172.41 49.302L199.288 79.5979L202.654 76.6115L177.001 47.6957L182.539 40.3764L209.387 70.6387C209.727 71.0215 210.187 71.2771 210.691 71.3631C211.196 71.4492 211.715 71.3607 212.162 71.1122L232.745 59.6735L229.688 56.2281L211.555 66.3024L185.308 36.7168L203.576 12.5691Z" fill="#9A4176" fill-opacity="0.21"/>
<path d="M222.007 46.1659L210.617 45.4849L224.371 33.2825L221.384 29.9163L207.63 42.1187L208.311 30.7285L203.82 30.4599L202.68 49.5178L221.738 50.6572L222.007 46.1659Z" fill="#9A4176" fill-opacity="0.21"/>
</g>
<defs>
<clipPath id="clip0">
<rect width="81" height="81" fill="white" transform="translate(239.567 155.926) rotate(55.3594)"/>
</clipPath>
<clipPath id="clip1">
<rect width="72" height="72" fill="white" transform="translate(200.859 0.000244141) rotate(48.4215)"/>
</clipPath>
<clipPath id="clip2">
<rect width="37" height="37" fill="white" transform="translate(48 143.969) rotate(-22.1804)"/>
</clipPath>
<clipPath id="clip3">
<rect width="72" height="72" fill="white" transform="translate(200.859 0.000244141) rotate(48.4215)"/>
</clipPath>
</defs>
</svg>
