<svg width="106" height="105" viewBox="0 0 106 105" fill="none" xmlns="http://www.w3.org/2000/svg">
<rect x="0.5" width="105" height="105" rx="52.5" fill="white"/>
<path d="M63.5742 68.5705V78.5995L68.3793 80.5994V65.9423C66.8699 66.9775 65.2601 67.858 63.5742 68.5705ZM37.6207 65.9423V80.4994L42.4258 78.4995V68.5705C40.7399 67.858 39.1301 66.9775 37.6207 65.9423ZM52.9999 70.7041C50.731 70.7053 48.4707 70.423 46.2718 69.8635V85L52.9999 82.1998L59.7281 84.9999V69.8635C57.5291 70.4229 55.2689 70.7053 52.9999 70.7041ZM52.9999 20C40.0812 20 29.571 30.5102 29.571 43.429C29.571 56.3479 40.0812 66.8579 52.9999 66.8579C65.9187 66.8579 76.429 56.3478 76.429 43.4289C76.429 30.51 65.9188 20 52.9999 20ZM52.9999 61.9071C42.7583 61.9071 34.426 53.5748 34.426 43.3332C34.426 33.0914 42.7583 24.7591 52.9999 24.7591C63.2416 24.7591 71.5739 33.0914 71.5739 43.3332C71.5739 53.575 63.2417 61.9071 52.9999 61.9071ZM52.9999 28.6051C44.879 28.6051 38.272 35.212 38.272 43.3332C38.272 51.4544 44.879 58.061 52.9999 58.061C61.1209 58.061 67.7279 51.4541 67.7279 43.3331C67.7279 35.212 61.121 28.6051 52.9999 28.6051ZM59.0532 51.9286L52.9999 48.7463L46.9468 51.9286L48.1029 45.1885L43.2058 40.415L49.9735 39.4315L52.9999 33.2989L56.0265 39.4315L62.7942 40.415L57.8972 45.1885L59.0532 51.9286Z" fill="#41568F"/>
</svg>
