<svg width="106" height="105" viewBox="0 0 106 105" fill="none" xmlns="http://www.w3.org/2000/svg">
<rect x="0.5" width="105" height="105" rx="52.5" fill="white"/>
<path d="M66.9792 52.375C75.2059 52.375 81.875 59.0441 81.875 67.2708C81.875 75.4976 75.2059 82.1667 66.9792 82.1667C58.7525 82.1667 52.0834 75.4976 52.0834 67.2708C52.0834 59.0441 58.7525 52.375 66.9792 52.375ZM27.7084 71.3333L49.8466 71.3356C50.3079 73.2871 51.0939 75.1131 52.1446 76.7533L27.7084 76.75C26.2126 76.75 25 75.5374 25 74.0417C25 72.6527 26.0456 71.508 27.3925 71.3516L27.7084 71.3333ZM61.6876 67.1141L61.5 67.2708L61.3433 67.4584C61.0234 67.9202 61.0234 68.5366 61.3433 68.9984L61.5 69.1859L67 73.5L74.5 65.6008L74.6567 65.4133C74.9766 64.9515 74.9766 64.3351 74.6567 63.8733L74.5 63.6857L74.3125 63.529C73.8507 63.2091 73.2343 63.2091 72.7725 63.529L72.5849 63.6857L66.9792 70L63.4151 67.2708L63.2276 67.1141C62.8317 66.8399 62.3223 66.8008 61.8941 66.9966L61.6876 67.1141ZM62.9192 28C64.4851 28 65.701 29.3158 65.6248 30.8385L65.592 31.1454L64.9277 35.2079C64.6863 36.6841 63.2939 37.6851 61.8178 37.4437C60.447 37.2195 59.486 36.0029 59.549 34.6484L59.582 34.3337L59.732 33.4167H50.545L45.7784 63.2083H46.6667C48.0556 63.2083 49.2004 64.2539 49.3568 65.6008L49.375 65.9167C49.375 67.3056 48.3295 68.4503 46.9825 68.6068L46.6667 68.625H38.5417C37.0459 68.625 35.8334 67.4124 35.8334 65.9167C35.8334 64.5277 36.8789 63.383 38.2258 63.2266L38.5417 63.2083H40.294L45.0607 33.4167H35.4169L35.116 35.2173C34.8694 36.6926 33.4736 37.6887 31.9982 37.4421C30.6283 37.2132 29.6716 35.9933 29.7393 34.6389L29.7734 34.3244L30.4523 30.2619C30.6523 29.0653 31.6182 28.1618 32.7972 28.0196L33.1236 28H62.9192Z" fill="#41568F"/>
</svg>
