<svg width="105" height="105" viewBox="0 0 105 105" fill="none" xmlns="http://www.w3.org/2000/svg">
<rect width="105" height="105" rx="52.5" fill="white"/>
<path d="M68.75 36.25H76.875C78.3708 36.25 79.5833 37.4626 79.5833 38.9583V66.0417C79.5833 67.5375 78.3708 68.75 76.875 68.75H47.0833M55.2083 36.25H28.125C26.6292 36.25 25.4167 37.4626 25.4167 38.9583V66.0417C25.4167 67.5375 26.6292 68.75 28.125 68.75H36.25M36.25 45.7292V59.2708M68.75 45.7292V59.2708M59.2708 52.5C59.2708 56.2394 56.2394 59.2708 52.5 59.2708C48.7606 59.2708 45.7292 56.2394 45.7292 52.5C45.7292 48.7606 48.7606 45.7292 52.5 45.7292C56.2394 45.7292 59.2708 48.7606 59.2708 52.5Z" stroke="#2A878E" stroke-width="4" stroke-linecap="round" stroke-linejoin="round"/>
</svg>
