<svg width="361" height="49" viewBox="0 0 361 49" fill="none" xmlns="http://www.w3.org/2000/svg">
<path d="M29.7109 31.1865C29.7109 30.6533 29.6289 30.1748 29.4648 29.751C29.3145 29.3135 29.0273 28.917 28.6035 28.5615C28.1797 28.1924 27.585 27.8301 26.8193 27.4746C26.0537 27.1191 25.0625 26.75 23.8457 26.3672C22.4922 25.9297 21.207 25.4375 19.9902 24.8906C18.7871 24.3438 17.7207 23.708 16.791 22.9834C15.875 22.2451 15.1504 21.3906 14.6172 20.4199C14.0977 19.4492 13.8379 18.3213 13.8379 17.0361C13.8379 15.792 14.1113 14.6641 14.6582 13.6523C15.2051 12.627 15.9707 11.752 16.9551 11.0273C17.9395 10.2891 19.1016 9.72168 20.4414 9.3252C21.7949 8.92871 23.2783 8.73047 24.8916 8.73047C27.0928 8.73047 29.0137 9.12695 30.6543 9.91992C32.2949 10.7129 33.5664 11.7998 34.4688 13.1807C35.3848 14.5615 35.8428 16.1406 35.8428 17.918H29.7314C29.7314 17.043 29.5469 16.2773 29.1777 15.6211C28.8223 14.9512 28.2754 14.4248 27.5371 14.042C26.8125 13.6592 25.8965 13.4678 24.7891 13.4678C23.7227 13.4678 22.834 13.6318 22.123 13.96C21.4121 14.2744 20.8789 14.7051 20.5234 15.252C20.168 15.7852 19.9902 16.3867 19.9902 17.0566C19.9902 17.5625 20.1133 18.0205 20.3594 18.4307C20.6191 18.8408 21.002 19.2236 21.5078 19.5791C22.0137 19.9346 22.6357 20.2695 23.374 20.584C24.1123 20.8984 24.9668 21.2061 25.9375 21.5068C27.5645 21.999 28.9932 22.5527 30.2236 23.168C31.4678 23.7832 32.5068 24.4736 33.3408 25.2393C34.1748 26.0049 34.8037 26.873 35.2275 27.8438C35.6514 28.8145 35.8633 29.915 35.8633 31.1455C35.8633 32.4443 35.6104 33.6064 35.1045 34.6318C34.5986 35.6572 33.8672 36.5254 32.9102 37.2363C31.9531 37.9473 30.8115 38.4873 29.4854 38.8564C28.1592 39.2256 26.6758 39.4102 25.0352 39.4102C23.5586 39.4102 22.1025 39.2188 20.667 38.8359C19.2314 38.4395 17.9258 37.8447 16.75 37.0518C15.5879 36.2588 14.6582 35.2471 13.9609 34.0166C13.2637 32.7861 12.915 31.3301 12.915 29.6484H19.0879C19.0879 30.5781 19.2314 31.3643 19.5186 32.0068C19.8057 32.6494 20.209 33.1689 20.7285 33.5654C21.2617 33.9619 21.8906 34.249 22.6152 34.4268C23.3535 34.6045 24.1602 34.6934 25.0352 34.6934C26.1016 34.6934 26.9766 34.543 27.6602 34.2422C28.3574 33.9414 28.8701 33.5244 29.1982 32.9912C29.54 32.458 29.7109 31.8564 29.7109 31.1865ZM53.3975 9.14062V39H47.2656V9.14062H53.3975ZM62.585 9.14062V13.96H38.2217V9.14062H62.585ZM82.5801 9.14062H88.7119V28.8691C88.7119 31.166 88.2197 33.1006 87.2354 34.6729C86.2646 36.2451 84.918 37.4277 83.1953 38.2207C81.4863 39.0137 79.5176 39.4102 77.2891 39.4102C75.0605 39.4102 73.0781 39.0137 71.3418 38.2207C69.6191 37.4277 68.2656 36.2451 67.2812 34.6729C66.3105 33.1006 65.8252 31.166 65.8252 28.8691V9.14062H71.9775V28.8691C71.9775 30.209 72.1895 31.3027 72.6133 32.1504C73.0371 32.998 73.6455 33.6201 74.4385 34.0166C75.2451 34.4131 76.1953 34.6113 77.2891 34.6113C78.4102 34.6113 79.3604 34.4131 80.1396 34.0166C80.9326 33.6201 81.5342 32.998 81.9443 32.1504C82.3682 31.3027 82.5801 30.209 82.5801 28.8691V9.14062ZM102.944 39H96.4434L96.4844 34.2012H102.944C104.558 34.2012 105.918 33.8389 107.025 33.1143C108.133 32.376 108.967 31.3027 109.527 29.8945C110.102 28.4863 110.389 26.7842 110.389 24.7881V23.332C110.389 21.8008 110.225 20.4541 109.896 19.292C109.582 18.1299 109.11 17.1523 108.481 16.3594C107.853 15.5664 107.08 14.9717 106.164 14.5752C105.248 14.165 104.195 13.96 103.006 13.96H96.3203V9.14062H103.006C105.002 9.14062 106.827 9.48242 108.481 10.166C110.149 10.8359 111.592 11.7998 112.809 13.0576C114.025 14.3154 114.962 15.8193 115.618 17.5693C116.288 19.3057 116.623 21.2402 116.623 23.373V24.7881C116.623 26.9072 116.288 28.8418 115.618 30.5918C114.962 32.3418 114.025 33.8457 112.809 35.1035C111.605 36.3477 110.163 37.3115 108.481 37.9951C106.813 38.665 104.968 39 102.944 39ZM99.9297 9.14062V39H93.7773V9.14062H99.9297ZM141.13 34.2012V39H125.236V34.2012H141.13ZM127.246 9.14062V39H121.094V9.14062H127.246ZM139.059 21.3018V25.9775H125.236V21.3018H139.059ZM141.109 9.14062V13.96H125.236V9.14062H141.109ZM169.021 9.14062V39H162.868L150.871 18.9844V39H144.719V9.14062H150.871L162.889 29.1768V9.14062H169.021ZM187.108 9.14062V39H180.977V9.14062H187.108ZM196.296 9.14062V13.96H171.933V9.14062H196.296ZM194.676 36.1494C194.676 35.2744 194.977 34.543 195.578 33.9551C196.193 33.3672 197.007 33.0732 198.019 33.0732C199.03 33.0732 199.837 33.3672 200.438 33.9551C201.054 34.543 201.361 35.2744 201.361 36.1494C201.361 37.0244 201.054 37.7559 200.438 38.3438C199.837 38.9316 199.03 39.2256 198.019 39.2256C197.007 39.2256 196.193 38.9316 195.578 38.3438C194.977 37.7559 194.676 37.0244 194.676 36.1494ZM214.138 34.2627L220.085 9.14062H223.407L224.166 13.3242L217.829 39H214.261L214.138 34.2627ZM211.082 9.14062L216.004 34.2627L215.594 39H211.615L204.991 9.14062H211.082ZM229.396 34.1602L234.256 9.14062H240.347L233.743 39H229.765L229.396 34.1602ZM225.273 9.14062L231.262 34.3652L231.098 39H227.529L221.151 13.3037L221.972 9.14062H225.273ZM268.217 23.373V24.7881C268.217 27.0576 267.909 29.0947 267.294 30.8994C266.679 32.7041 265.811 34.2422 264.689 35.5137C263.568 36.7715 262.229 37.7354 260.67 38.4053C259.125 39.0752 257.409 39.4102 255.522 39.4102C253.649 39.4102 251.934 39.0752 250.375 38.4053C248.83 37.7354 247.49 36.7715 246.355 35.5137C245.221 34.2422 244.339 32.7041 243.71 30.8994C243.095 29.0947 242.787 27.0576 242.787 24.7881V23.373C242.787 21.0898 243.095 19.0527 243.71 17.2617C244.325 15.457 245.193 13.9189 246.314 12.6475C247.449 11.376 248.789 10.4053 250.334 9.73535C251.893 9.06543 253.608 8.73047 255.481 8.73047C257.368 8.73047 259.084 9.06543 260.629 9.73535C262.188 10.4053 263.527 11.376 264.648 12.6475C265.783 13.9189 266.658 15.457 267.273 17.2617C267.902 19.0527 268.217 21.0898 268.217 23.373ZM262.003 24.7881V23.332C262.003 21.7461 261.859 20.3516 261.572 19.1484C261.285 17.9453 260.861 16.9336 260.301 16.1133C259.74 15.293 259.057 14.6777 258.25 14.2676C257.443 13.8437 256.521 13.6318 255.481 13.6318C254.442 13.6318 253.52 13.8437 252.713 14.2676C251.92 14.6777 251.243 15.293 250.683 16.1133C250.136 16.9336 249.719 17.9453 249.432 19.1484C249.145 20.3516 249.001 21.7461 249.001 23.332V24.7881C249.001 26.3604 249.145 27.7549 249.432 28.9717C249.719 30.1748 250.143 31.1934 250.703 32.0273C251.264 32.8477 251.947 33.4697 252.754 33.8936C253.561 34.3174 254.483 34.5293 255.522 34.5293C256.562 34.5293 257.484 34.3174 258.291 33.8936C259.098 33.4697 259.774 32.8477 260.321 32.0273C260.868 31.1934 261.285 30.1748 261.572 28.9717C261.859 27.7549 262.003 26.3604 262.003 24.7881ZM272.646 9.14062H283.782C286.065 9.14062 288.027 9.48242 289.668 10.166C291.322 10.8496 292.594 11.8613 293.482 13.2012C294.371 14.541 294.815 16.1885 294.815 18.1436C294.815 19.7432 294.542 21.1172 293.995 22.2656C293.462 23.4004 292.703 24.3506 291.719 25.1162C290.748 25.8682 289.606 26.4697 288.294 26.9209L286.346 27.9463H276.666L276.625 23.1475H283.823C284.903 23.1475 285.799 22.9561 286.51 22.5732C287.221 22.1904 287.754 21.6572 288.109 20.9736C288.479 20.29 288.663 19.4971 288.663 18.5947C288.663 17.6377 288.485 16.8105 288.13 16.1133C287.774 15.416 287.234 14.8828 286.51 14.5137C285.785 14.1445 284.876 13.96 283.782 13.96H278.799V39H272.646V9.14062ZM289.34 39L282.531 25.6904L289.032 25.6494L295.923 38.7129V39H289.34ZM305.705 9.14062V39H299.553V9.14062H305.705ZM323.588 9.14062L311.755 23.8857L304.926 31.2275L303.818 25.4033L308.433 19.0869L316.041 9.14062H323.588ZM316.595 39L307.797 25.1982L312.35 21.3838L323.875 39H316.595ZM341.799 31.1865C341.799 30.6533 341.717 30.1748 341.553 29.751C341.402 29.3135 341.115 28.917 340.691 28.5615C340.268 28.1924 339.673 27.8301 338.907 27.4746C338.142 27.1191 337.15 26.75 335.934 26.3672C334.58 25.9297 333.295 25.4375 332.078 24.8906C330.875 24.3438 329.809 23.708 328.879 22.9834C327.963 22.2451 327.238 21.3906 326.705 20.4199C326.186 19.4492 325.926 18.3213 325.926 17.0361C325.926 15.792 326.199 14.6641 326.746 13.6523C327.293 12.627 328.059 11.752 329.043 11.0273C330.027 10.2891 331.189 9.72168 332.529 9.3252C333.883 8.92871 335.366 8.73047 336.979 8.73047C339.181 8.73047 341.102 9.12695 342.742 9.91992C344.383 10.7129 345.654 11.7998 346.557 13.1807C347.473 14.5615 347.931 16.1406 347.931 17.918H341.819C341.819 17.043 341.635 16.2773 341.266 15.6211C340.91 14.9512 340.363 14.4248 339.625 14.042C338.9 13.6592 337.984 13.4678 336.877 13.4678C335.811 13.4678 334.922 13.6318 334.211 13.96C333.5 14.2744 332.967 14.7051 332.611 15.252C332.256 15.7852 332.078 16.3867 332.078 17.0566C332.078 17.5625 332.201 18.0205 332.447 18.4307C332.707 18.8408 333.09 19.2236 333.596 19.5791C334.102 19.9346 334.724 20.2695 335.462 20.584C336.2 20.8984 337.055 21.2061 338.025 21.5068C339.652 21.999 341.081 22.5527 342.312 23.168C343.556 23.7832 344.595 24.4736 345.429 25.2393C346.263 26.0049 346.892 26.873 347.315 27.8438C347.739 28.8145 347.951 29.915 347.951 31.1455C347.951 32.4443 347.698 33.6064 347.192 34.6318C346.687 35.6572 345.955 36.5254 344.998 37.2363C344.041 37.9473 342.899 38.4873 341.573 38.8564C340.247 39.2256 338.764 39.4102 337.123 39.4102C335.646 39.4102 334.19 39.2188 332.755 38.8359C331.319 38.4395 330.014 37.8447 328.838 37.0518C327.676 36.2588 326.746 35.2471 326.049 34.0166C325.352 32.7861 325.003 31.3301 325.003 29.6484H331.176C331.176 30.5781 331.319 31.3643 331.606 32.0068C331.894 32.6494 332.297 33.1689 332.816 33.5654C333.35 33.9619 333.979 34.249 334.703 34.4268C335.441 34.6045 336.248 34.6934 337.123 34.6934C338.189 34.6934 339.064 34.543 339.748 34.2422C340.445 33.9414 340.958 33.5244 341.286 32.9912C341.628 32.458 341.799 31.8564 341.799 31.1865Z" fill="#41568F"/>
</svg>
