<svg width="40" height="40" viewBox="0 0 40 40" fill="none" xmlns="http://www.w3.org/2000/svg">
<path d="M20 14.98C17.244 14.98 14.98 17.244 14.98 19.9996C14.98 22.7556 17.244 25.0196 20 25.0196C22.662 25.0196 24.8448 22.902 24.992 20.2748C25.0104 20.1842 25.0198 20.092 25.02 19.9996C25.0198 19.9067 25.0105 19.8142 24.992 19.7232C24.844 17.096 22.6612 14.98 20 14.98ZM20 17.78C21.2428 17.78 22.22 18.7568 22.22 19.9996C22.22 21.2424 21.2428 22.2196 20 22.2196C18.7572 22.2196 17.78 21.2424 17.78 19.9996C17.78 18.7568 18.7572 17.78 20 17.78Z" fill="#41568F"/>
</svg>
