<svg width="25" height="25" viewBox="0 0 25 25" fill="none" xmlns="http://www.w3.org/2000/svg">
<path d="M12.5 9.36255C10.7775 9.36255 9.36249 10.7775 9.36249 12.4998C9.36249 14.2223 10.7775 15.6373 12.5 15.6373C14.1637 15.6373 15.528 14.3138 15.62 12.6718C15.6315 12.6152 15.6373 12.5576 15.6375 12.4998C15.6374 12.4418 15.6315 12.3839 15.62 12.327C15.5275 10.685 14.1632 9.36255 12.5 9.36255ZM12.5 11.1125C13.2767 11.1125 13.8875 11.723 13.8875 12.4998C13.8875 13.2765 13.2767 13.8873 12.5 13.8873C11.7232 13.8873 11.1125 13.2765 11.1125 12.4998C11.1125 11.723 11.7232 11.1125 12.5 11.1125Z" fill="#41568F"/>
</svg>
