<svg width="106" height="105" viewBox="0 0 106 105" fill="none" xmlns="http://www.w3.org/2000/svg">
<rect x="0.5" width="105" height="105" rx="52.5" fill="white"/>
<g clip-path="url(#clip0_8_119)">
<path d="M36.75 20L33.6547 24.6429H25.1429C22.5707 24.6429 20.5 26.7136 20.5 29.2857V80.3571C20.5 82.9293 22.5707 85 25.1429 85H66.9286C69.5007 85 71.5714 82.9293 71.5714 80.3571V59.4643L66.9286 64.1071V80.3571H25.1429V29.2857H30.5596L27.4643 33.9286H64.6071L61.5118 29.2857H66.9286V31.6071L71.1619 27.3738C70.4357 25.761 68.8181 24.6429 66.9286 24.6429H58.4168L55.3214 20H36.75ZM39.0714 24.6429H53L55.3214 29.2857H36.75L39.0714 24.6429Z" fill="#41568F"/>
<path fill-rule="evenodd" clip-rule="evenodd" d="M27.4643 54.8214L46.0357 73.3928L85.5 33.9285L80.8571 26.9642L46.0357 61.7857L34.4286 50.1785L27.4643 54.8214Z" fill="#41568F"/>
</g>
<defs>
<clipPath id="clip0_8_119">
<rect width="65" height="65" fill="white" transform="translate(20.5 20)"/>
</clipPath>
</defs>
</svg>
