<svg width="106" height="105" viewBox="0 0 106 105" fill="none" xmlns="http://www.w3.org/2000/svg">
<rect x="0.5" width="105" height="105" rx="52.5" fill="white"/>
<g clip-path="url(#clip0_8_86)">
<path d="M26.3355 68.7639C26.3355 65.4767 26.3355 26.9885 26.3355 23.6985C29.5902 23.6985 64.3126 23.6985 67.5673 23.6985C67.5673 24.8618 67.5673 30.4314 67.5673 37.279C68.3635 37.132 69.18 37.0322 70.0173 37.0322C70.4461 37.0322 70.8515 37.1203 71.2745 37.1586V20H22.6311V72.4624H53.2231V68.7639C42.0897 68.7639 28.3271 68.7639 26.3355 68.7639Z" fill="#41568F"/>
<path d="M31.6026 48.1685H56.7278C56.9746 46.7849 57.4623 45.4982 58.1026 44.2938H31.6026V48.1685Z" fill="#41568F"/>
<path d="M62.2946 32.1792H31.6026V36.0539H62.2946V32.1792Z" fill="#41568F"/>
<path d="M31.6026 60.2861H57.6502C58.3464 59.8631 59.0896 59.5194 59.8856 59.3079C59.1306 58.4295 58.5109 57.4426 57.9821 56.4114H31.6026V60.2861Z" fill="#41568F"/>
<path d="M70.0203 60.6738C75.6135 60.6738 80.1196 56.1529 80.1196 50.5773C80.1196 44.9959 75.6133 40.4779 70.0203 40.4779C64.4506 40.4779 59.9415 44.9959 59.9415 50.5773C59.9415 56.1529 64.4506 60.6738 70.0203 60.6738Z" fill="#41568F"/>
<path d="M78.1251 62.313H61.939C59.0484 62.313 56.6807 64.9627 56.6807 68.2264V84.4771C56.6807 84.6564 56.7629 84.815 56.7747 85.0001H83.2746C83.2863 84.818 83.3686 84.6564 83.3686 84.4771V68.2264C83.3804 64.9714 81.0186 62.313 78.1251 62.313Z" fill="#41568F"/>
</g>
<defs>
<clipPath id="clip0_8_86">
<rect width="65" height="65" fill="white" transform="translate(20.5 20)"/>
</clipPath>
</defs>
</svg>
