<svg width="105" height="105" viewBox="0 0 105 105" fill="none" xmlns="http://www.w3.org/2000/svg">
<rect width="105" height="105" rx="52.5" fill="white"/>
<g clip-path="url(#clip0_8_165)">
<path d="M59.5417 77.6875C58.7292 78.2996 57.8652 78.9442 57.1313 79.5833H63.3333C64.0516 79.5833 64.7405 79.8687 65.2484 80.3766C65.7563 80.8845 66.0417 81.5734 66.0417 82.2917C66.0417 83.0099 65.7563 83.6988 65.2484 84.2067C64.7405 84.7146 64.0516 85 63.3333 85H52.5C51.7817 85 51.0928 84.7146 50.5849 84.2067C50.077 83.6988 49.7917 83.0099 49.7917 82.2917C49.7917 78.2292 53.2448 75.64 56.2917 73.3542C58.3229 71.8321 60.625 70.1042 60.625 68.75C60.625 68.0317 60.3397 67.3428 59.8318 66.8349C59.3238 66.327 58.635 66.0417 57.9167 66.0417C57.1984 66.0417 56.5095 66.327 56.0016 66.8349C55.4937 67.3428 55.2083 68.0317 55.2083 68.75C55.2083 69.4683 54.923 70.1572 54.4151 70.6651C53.9072 71.173 53.2183 71.4583 52.5 71.4583C51.7817 71.4583 51.0928 71.173 50.5849 70.6651C50.077 70.1572 49.7917 69.4683 49.7917 68.75C49.7917 66.5951 50.6477 64.5285 52.1714 63.0047C53.6952 61.481 55.7618 60.625 57.9167 60.625C60.0716 60.625 62.1382 61.481 63.6619 63.0047C65.1856 64.5285 66.0417 66.5951 66.0417 68.75C66.0417 72.8125 62.5885 75.4017 59.5417 77.6875ZM82.2917 60.625C81.5734 60.625 80.8845 60.9103 80.3766 61.4182C79.8687 61.9261 79.5833 62.615 79.5833 63.3333V71.4583H76.875C76.1567 71.4583 75.4678 71.173 74.9599 70.6651C74.452 70.1572 74.1667 69.4683 74.1667 68.75V63.3333C74.1667 62.615 73.8813 61.9261 73.3734 61.4182C72.8655 60.9103 72.1766 60.625 71.4583 60.625C70.74 60.625 70.0512 60.9103 69.5433 61.4182C69.0353 61.9261 68.75 62.615 68.75 63.3333V68.75C68.75 70.9049 69.606 72.9715 71.1298 74.4952C72.6535 76.019 74.7201 76.875 76.875 76.875H79.5833V82.2917C79.5833 83.0099 79.8687 83.6988 80.3766 84.2067C80.8845 84.7146 81.5734 85 82.2917 85C83.01 85 83.6988 84.7146 84.2068 84.2067C84.7147 83.6988 85 83.0099 85 82.2917V63.3333C85 62.615 84.7147 61.9261 84.2068 61.4182C83.6988 60.9103 83.01 60.625 82.2917 60.625ZM55.2083 52.5V38.9583C55.2083 38.24 54.923 37.5512 54.4151 37.0432C53.9072 36.5353 53.2183 36.25 52.5 36.25C51.7817 36.25 51.0928 36.5353 50.5849 37.0432C50.077 37.5512 49.7917 38.24 49.7917 38.9583V49.7917H41.6667C40.9484 49.7917 40.2595 50.077 39.7516 50.5849C39.2437 51.0928 38.9583 51.7817 38.9583 52.5C38.9583 53.2183 39.2437 53.9072 39.7516 54.4151C40.2595 54.923 40.9484 55.2083 41.6667 55.2083H52.5C53.2183 55.2083 53.9072 54.923 54.4151 54.4151C54.923 53.9072 55.2083 53.2183 55.2083 52.5ZM82.2917 25.4167C81.5734 25.4167 80.8845 25.702 80.3766 26.2099C79.8687 26.7178 79.5833 27.4067 79.5833 28.125V34.5546C76.7614 30.2959 72.9753 26.7625 68.5322 24.241C64.0891 21.7195 59.1142 20.2809 54.011 20.042C48.9078 19.8031 43.8202 20.7707 39.161 22.8661C34.5018 24.9615 30.4021 28.1258 27.1947 32.1022C23.9874 36.0786 21.7625 40.7551 20.7009 45.7523C19.6392 50.7495 19.7705 55.9267 21.0842 60.8636C22.3978 65.8006 24.8569 70.3583 28.2617 74.167C31.6666 77.9757 35.9214 80.9281 40.6808 82.7846C40.9954 82.9059 41.3295 82.9683 41.6667 82.9687C42.2987 82.9697 42.9111 82.7496 43.398 82.3466C43.8848 81.9435 44.2153 81.3829 44.3324 80.7618C44.4494 80.1408 44.3455 79.4983 44.0387 78.9457C43.7319 78.3932 43.2415 77.9653 42.6525 77.7362C38.6117 76.1738 35.0048 73.6647 32.1344 70.4197C29.264 67.1747 27.2139 63.2885 26.1563 59.0872C25.0987 54.8859 25.0644 50.4923 26.0563 46.275C27.0482 42.0577 29.0373 38.1399 31.8567 34.8505C34.676 31.5611 38.2434 28.996 42.2593 27.3706C46.2752 25.7453 50.6224 25.107 54.936 25.5094C59.2496 25.9118 63.4037 27.3432 67.0496 29.6833C70.6956 32.0235 73.7269 35.2042 75.8892 38.9583H68.75C68.0317 38.9583 67.3428 39.2437 66.8349 39.7516C66.327 40.2595 66.0417 40.9484 66.0417 41.6667C66.0417 42.3849 66.327 43.0738 66.8349 43.5817C67.3428 44.0896 68.0317 44.375 68.75 44.375H76.875C79.0299 44.375 81.0965 43.519 82.6202 41.9952C84.144 40.4715 85 38.4049 85 36.25V28.125C85 27.4067 84.7147 26.7178 84.2068 26.2099C83.6988 25.702 83.01 25.4167 82.2917 25.4167Z" fill="#41568F"/>
</g>
<defs>
<clipPath id="clip0_8_165">
<rect width="65" height="65" fill="white" transform="translate(20 20)"/>
</clipPath>
</defs>
</svg>
