<svg width="106" height="105" viewBox="0 0 106 105" fill="none" xmlns="http://www.w3.org/2000/svg">
<rect x="0.5" width="105" height="105" rx="52.5" fill="white"/>
<path d="M57.55 48.6001H53.65H49.75C47.605 48.6001 45.85 50.3551 45.85 52.5001V58.3501C45.85 59.0651 46.175 59.7151 46.63 60.1701C47.085 60.6251 47.735 60.9501 48.45 60.9501V66.8001C48.45 68.9451 50.205 70.7001 52.35 70.7001H53.65H54.95C57.095 70.7001 58.85 68.9451 58.85 66.8001V60.9501C59.565 60.9501 60.215 60.6901 60.67 60.1701C61.125 59.7151 61.45 59.0651 61.45 58.3501V52.5001C61.45 50.3551 59.695 48.6001 57.55 48.6001Z" fill="#41568F"/>
<path d="M53.65 46C56.1629 46 58.2 43.9629 58.2 41.45C58.2 38.9371 56.1629 36.9 53.65 36.9C51.1371 36.9 49.1 38.9371 49.1 41.45C49.1 43.9629 51.1371 46 53.65 46Z" fill="#41568F"/>
<path d="M44.29 63.355C44.16 63.225 43.965 63.095 43.835 62.965C42.6 61.665 41.885 60.04 41.885 58.35V52.5C41.885 50.42 42.73 48.47 44.095 47.105C44.485 46.715 44.16 46 43.64 46C42.535 46 41.3 46 41.3 46H37.4C35.255 46 33.5 47.755 33.5 49.9V55.75C33.5 56.465 33.825 57.115 34.28 57.57C34.735 58.025 35.385 58.35 36.1 58.35V64.2C36.1 66.345 37.855 68.1 40 68.1H41.3H42.6C43.185 68.1 43.705 67.97 44.16 67.775C44.42 67.645 44.55 67.45 44.55 67.19C44.55 66.41 44.55 64.59 44.55 63.875C44.55 63.68 44.485 63.485 44.29 63.355Z" fill="#41568F"/>
<path d="M41.3 43.4C43.8129 43.4 45.85 41.3629 45.85 38.85C45.85 36.3372 43.8129 34.3 41.3 34.3C38.7871 34.3 36.75 36.3372 36.75 38.85C36.75 41.3629 38.7871 43.4 41.3 43.4Z" fill="#41568F"/>
<path d="M69.9 46H66C66 46 64.765 46 63.66 46C63.075 46 62.815 46.65 63.205 47.105C64.57 48.535 65.415 50.42 65.415 52.5V58.35C65.415 60.04 64.765 61.665 63.465 62.965C63.335 63.095 63.205 63.225 63.01 63.355C62.88 63.485 62.75 63.68 62.75 63.875C62.75 64.59 62.75 66.345 62.75 67.19C62.75 67.45 62.88 67.71 63.14 67.775C63.595 67.97 64.115 68.1 64.7 68.1H66H67.3C69.445 68.1 71.2 66.345 71.2 64.2V58.35C71.915 58.35 72.565 58.09 73.02 57.57C73.475 57.115 73.8 56.465 73.8 55.75V49.9C73.8 47.755 72.045 46 69.9 46Z" fill="#41568F"/>
<path d="M66 43.4C68.5129 43.4 70.55 41.3629 70.55 38.85C70.55 36.3372 68.5129 34.3 66 34.3C63.4871 34.3 61.45 36.3372 61.45 38.85C61.45 41.3629 63.4871 43.4 66 43.4Z" fill="#41568F"/>
</svg>
