<svg width="105" height="105" viewBox="0 0 105 105" fill="none" xmlns="http://www.w3.org/2000/svg">
<rect width="105" height="105" rx="52.5" fill="white"/>
<path d="M38.9583 49.7917C38.9583 48.2959 40.1709 47.0834 41.6667 47.0834C43.1624 47.0834 44.375 48.2959 44.375 49.7917C44.375 51.2875 43.1624 52.5 41.6667 52.5C40.1709 52.5 38.9583 51.2875 38.9583 49.7917Z" fill="#41568F"/>
<path d="M38.9583 63.3333C38.9583 61.8375 40.1709 60.625 41.6667 60.625C43.1624 60.625 44.375 61.8375 44.375 63.3333C44.375 64.8291 43.1624 66.0417 41.6667 66.0417C40.1709 66.0417 38.9583 64.8291 38.9583 63.3333Z" fill="#41568F"/>
<path d="M49.7917 49.7917C49.7917 48.2959 51.0042 47.0834 52.5 47.0834C53.9958 47.0834 55.2083 48.2959 55.2083 49.7917C55.2083 51.2875 53.9958 52.5 52.5 52.5C51.0042 52.5 49.7917 51.2875 49.7917 49.7917Z" fill="#41568F"/>
<path d="M49.7917 63.3333C49.7917 61.8375 51.0042 60.625 52.5 60.625C53.9958 60.625 55.2083 61.8375 55.2083 63.3333C55.2083 64.8291 53.9958 66.0417 52.5 66.0417C51.0042 66.0417 49.7917 64.8291 49.7917 63.3333Z" fill="#41568F"/>
<path d="M60.625 49.7917C60.625 48.2959 61.8375 47.0834 63.3333 47.0834C64.8291 47.0834 66.0417 48.2959 66.0417 49.7917C66.0417 51.2875 64.8291 52.5 63.3333 52.5C61.8375 52.5 60.625 51.2875 60.625 49.7917Z" fill="#41568F"/>
<path d="M60.625 63.3333C60.625 61.8375 61.8375 60.625 63.3333 60.625C64.8291 60.625 66.0417 61.8375 66.0417 63.3333C66.0417 64.8291 64.8291 66.0417 63.3333 66.0417C61.8375 66.0417 60.625 64.8291 60.625 63.3333Z" fill="#41568F"/>
<path fill-rule="evenodd" clip-rule="evenodd" d="M41.6667 25.4166C43.1624 25.4166 44.375 26.6292 44.375 28.125V30.8333H60.625V28.125C60.625 26.6292 61.8375 25.4166 63.3333 25.4166C64.8291 25.4166 66.0417 26.6292 66.0417 28.125V30.8333C73.5205 30.8333 79.5833 36.8961 79.5833 44.375V66.0416C79.5833 73.5204 73.5205 79.5833 66.0417 79.5833H38.9583C31.4795 79.5833 25.4167 73.5204 25.4167 66.0416V44.375C25.4167 36.8961 31.4795 30.8333 38.9583 30.8333V28.125C38.9583 26.6292 40.1709 25.4166 41.6667 25.4166ZM38.9583 36.25C34.471 36.25 30.8333 39.8877 30.8333 44.375V66.0416C30.8333 70.5291 34.471 74.1666 38.9583 74.1666H66.0417C70.5291 74.1666 74.1667 70.5291 74.1667 66.0416V44.375C74.1667 39.8877 70.5291 36.25 66.0417 36.25C66.0417 37.7457 64.8291 38.9583 63.3333 38.9583C61.8375 38.9583 60.625 37.7457 60.625 36.25H44.375C44.375 37.7457 43.1624 38.9583 41.6667 38.9583C40.1709 38.9583 38.9583 37.7457 38.9583 36.25Z" fill="#41568F"/>
</svg>
