<svg width="45" height="45" viewBox="0 0 45 45" fill="none" xmlns="http://www.w3.org/2000/svg">
<g clip-path="url(#clip0_20_775)">
<path d="M8.33298 1.90693C5.24099 3.91225 4.63358 10.1805 5.80094 15.2893C6.71008 19.2678 8.64297 24.6046 11.9023 29.63C14.9685 34.3576 19.2462 38.5968 22.508 41.0495C26.6966 44.1988 32.6676 46.2006 35.7596 44.1952C37.3231 43.1812 39.646 40.4108 39.7519 39.9137C39.7519 39.9137 38.3898 37.8135 38.0909 37.3526L33.5231 30.3095C33.1836 29.7861 31.0549 30.2645 29.9735 30.877C28.5148 31.7035 27.1714 33.9212 27.1714 33.9212C26.1712 34.4991 25.3334 33.9233 23.583 33.1177C21.4317 32.1279 19.0129 29.0524 17.0879 26.2669C15.3296 23.3733 13.5079 19.9105 13.4815 17.5425C13.4598 15.6158 13.2758 14.6161 14.2114 13.9385C14.2114 13.9385 16.7841 13.6163 18.1337 12.6215C19.134 11.8839 20.4389 10.1354 20.0994 9.61195L15.5316 2.56893C15.2327 2.10803 13.8705 0.00779414 13.8705 0.00779414C13.3733 -0.0981141 9.89647 0.89294 8.33298 1.90693Z" fill="#2A878E"/>
</g>
<defs>
<clipPath id="clip0_20_775">
<rect width="45" height="45" fill="white"/>
</clipPath>
</defs>
</svg>
