<svg width="45" height="45" viewBox="0 0 45 45" fill="none" xmlns="http://www.w3.org/2000/svg">
<g clip-path="url(#clip0_20_732)">
<path d="M36 8.25022L5.43751 20.0627C3.37501 20.8127 3.37501 22.1252 5.06251 22.5002L12.75 24.9377L15.75 33.9377C16.125 34.8752 15.9375 35.2502 16.875 35.2502C17.625 35.2502 18 34.8752 18.375 34.5002C18.5625 34.3127 20.25 32.6252 22.125 30.7502L30 36.5627C31.5 37.3127 32.4375 36.9377 32.8125 35.2502L38.0625 10.6877C38.625 8.62522 37.3125 7.50022 36 8.25022ZM32.0625 13.8752L17.4375 27.1877L16.875 33.3752L13.875 24.3752L31.125 13.5002C31.875 12.9377 32.625 13.3127 32.0625 13.8752Z" fill="#2A878E"/>
</g>
<defs>
<clipPath id="clip0_20_732">
<rect width="45" height="45" fill="white"/>
</clipPath>
</defs>
</svg>
