<svg width="36" height="38" viewBox="0 0 36 38" fill="none" xmlns="http://www.w3.org/2000/svg">
<path d="M19.1751 21.4788C19.1751 21.4788 19.8426 21.535 20.2007 21.0925L20.902 20.2113C21.2395 19.7763 22.0532 19.4988 22.852 19.9413C23.4502 20.2826 24.0309 20.6537 24.592 21.0531C25.1207 21.4413 26.2045 22.3469 26.2082 22.3469C26.7257 22.7838 26.8457 23.4231 26.4932 24.0981L26.4895 24.1131C26.1021 24.7848 25.6104 25.3905 25.0326 25.9075L25.0195 25.9169C24.5182 26.3356 24.0251 26.5738 23.5401 26.6313C23.469 26.6442 23.3967 26.6492 23.3245 26.6463C23.1112 26.648 22.8991 26.6151 22.6963 26.5488L22.6795 26.5263C21.9332 26.3144 20.6882 25.7875 18.6126 24.6438C17.4122 23.989 16.2693 23.2338 15.1963 22.3863C14.6582 21.9617 14.1448 21.5066 13.6588 21.0231L13.6082 20.9725L13.5557 20.92L13.5032 20.8694L13.4526 20.8169C12.9692 20.3309 12.514 19.8175 12.0895 19.2794C11.242 18.2063 10.4868 17.0635 9.83197 15.8631C8.68822 13.7875 8.16134 12.5444 7.94947 11.7944L7.92697 11.7794C7.86129 11.5766 7.829 11.3644 7.83134 11.1513C7.82749 11.0791 7.8319 11.0068 7.84447 10.9356C7.90447 10.4519 8.14322 9.95814 8.56072 9.45439L8.57009 9.44126C9.08693 8.8633 9.69267 8.3715 10.3645 7.98439L10.3776 7.98251C11.0526 7.63001 11.6938 7.75001 12.1288 8.26376C12.1326 8.26564 13.0363 9.35126 13.4226 9.88001C13.8221 10.4417 14.1932 11.0231 14.5345 11.6219C14.9788 12.4188 14.7013 13.2344 14.2645 13.5719L13.3832 14.2713C12.9388 14.6313 12.997 15.2988 12.997 15.2988C12.997 15.2988 14.302 20.2356 19.1751 21.4788ZM17.5288 6.71314C17.4662 6.71239 17.4041 6.72405 17.346 6.74744C17.2879 6.77083 17.2351 6.80549 17.1904 6.84941C17.1458 6.89334 17.1103 6.94566 17.086 7.00337C17.0617 7.06108 17.0491 7.12302 17.0488 7.18564C17.0486 7.24793 17.0606 7.30967 17.0842 7.36732C17.1078 7.42496 17.1426 7.4774 17.1865 7.52162C17.2303 7.56584 17.2825 7.60099 17.3399 7.62506C17.3974 7.64913 17.459 7.66164 17.5213 7.66189C20.0582 7.68064 22.1226 8.50001 23.8138 10.1481C25.4901 11.7831 26.347 14.005 26.3695 16.9188C26.3697 16.9811 26.3822 17.0427 26.4063 17.1002C26.4304 17.1576 26.4655 17.2098 26.5097 17.2536C26.554 17.2975 26.6064 17.3323 26.664 17.3559C26.7217 17.3795 26.7834 17.3915 26.8457 17.3913C26.9082 17.391 26.97 17.3784 27.0275 17.3543C27.0851 17.3301 27.1374 17.2948 27.1813 17.2503C27.2252 17.2059 27.2599 17.1533 27.2834 17.0954C27.3069 17.0375 27.3187 16.9756 27.3182 16.9131C27.2938 13.8119 26.3488 11.2956 24.4757 9.46939C22.6195 7.66001 20.272 6.73189 17.5288 6.71314ZM18.397 9.17501C18.3348 9.17041 18.2723 9.17812 18.2131 9.19768C18.1539 9.21725 18.0991 9.2483 18.0519 9.28905C18.0048 9.3298 17.9661 9.37945 17.9381 9.43517C17.9101 9.49088 17.8934 9.55157 17.8888 9.61376C17.8842 9.67594 17.8919 9.73842 17.9115 9.79762C17.9311 9.85683 17.9621 9.91159 18.0029 9.95878C18.0436 10.006 18.0933 10.0447 18.149 10.0727C18.2047 10.1006 18.2654 10.1174 18.3276 10.1219C20.1388 10.255 21.4813 10.8475 22.462 11.9163C23.4445 12.9906 23.9113 14.2975 23.8757 15.9306C23.8745 15.9929 23.8855 16.0549 23.9082 16.1129C23.9309 16.1709 23.9648 16.2239 24.008 16.2688C24.0512 16.3138 24.1028 16.3497 24.1599 16.3747C24.217 16.3997 24.2784 16.4132 24.3407 16.4144C24.4659 16.4169 24.587 16.3698 24.6776 16.2834C24.7682 16.197 24.821 16.0783 24.8245 15.9531C24.8638 14.1194 24.307 12.5275 23.1613 11.2769C22.0045 10.0131 20.3863 9.31939 18.3988 9.17501H18.397ZM19.1076 11.7194C19.0453 11.7161 18.9829 11.7251 18.9241 11.746C18.8653 11.7668 18.8112 11.7991 18.7648 11.8409C18.7185 11.8827 18.6809 11.9332 18.6541 11.9896C18.6273 12.046 18.612 12.1071 18.6088 12.1694C18.6022 12.2949 18.6457 12.418 18.7297 12.5115C18.8137 12.605 18.9314 12.6614 19.057 12.6681C19.8745 12.7113 20.4257 12.9419 20.8007 13.3263C21.172 13.7125 21.4007 14.2938 21.4438 15.1469C21.4502 15.2721 21.5058 15.3897 21.5985 15.474C21.6913 15.5583 21.8136 15.6025 21.9388 15.5969C22.0637 15.5906 22.181 15.5352 22.2653 15.4429C22.3495 15.3505 22.3939 15.2287 22.3888 15.1038C22.3382 14.0969 22.0513 13.2588 21.4813 12.6663C20.9095 12.0775 20.0882 11.77 19.1076 11.7194ZM31.5501 3.65689C30.6182 2.79814 26.8513 0.0643874 18.4626 0.0268874C18.4626 0.0268874 8.57197 -0.569363 3.74947 3.85376C1.06634 6.53876 0.121341 10.4669 0.0219657 15.3381C-0.0774093 20.2075 -0.206784 29.335 8.59072 31.81H8.60009L8.59447 35.5881C8.59447 35.5881 8.53822 37.1163 9.54509 37.4275C10.7638 37.8063 11.4763 36.6438 12.6388 35.3913C13.2782 34.7031 14.1595 33.6944 14.8232 32.9219C20.842 33.4281 25.4695 32.2713 25.9945 32.0988C27.2095 31.705 34.0851 30.8238 35.2007 21.6981C36.3557 12.2913 34.6438 6.34001 31.5501 3.65689ZM32.5701 21.0231C31.6251 28.6431 26.0488 29.1231 25.0213 29.4531C24.5845 29.5938 20.5195 30.6044 15.4082 30.2706C15.4082 30.2706 11.6001 34.8644 10.4095 36.0606C10.2238 36.2481 10.0063 36.3231 9.86009 36.2856C9.65384 36.235 9.59759 35.9931 9.60134 35.6388L9.63322 29.3631C2.18947 27.2969 2.62447 19.5269 2.70884 15.46C2.79322 11.3913 3.55822 8.05939 5.82884 5.81689C9.90697 2.12314 18.307 2.67439 18.307 2.67439C25.402 2.70626 28.8032 4.84376 29.5907 5.55814C32.2082 7.80064 33.5432 13.1631 32.5682 21.0213L32.5701 21.0231Z" fill="#2A878E"/>
</svg>
