<svg width="46" height="30" viewBox="0 0 46 30" fill="none" xmlns="http://www.w3.org/2000/svg">
<path d="M8.29547 12.272C8.1568 12.2827 7.9648 12.2453 7.71947 12.16C7.4848 12.0747 7.31947 11.984 7.22347 11.888C7.1488 11.7813 7.07414 11.648 6.99947 11.488C6.93547 11.3173 6.88214 11.1573 6.83947 11.008C6.7968 10.848 6.7808 10.736 6.79147 10.672L6.98347 9.344C7.01547 9.22667 7.04214 9.10933 7.06347 8.992C7.09547 8.87467 7.12747 8.76267 7.15947 8.656C7.1488 8.63467 7.17014 8.53867 7.22347 8.368C7.2768 8.18667 7.33547 7.98933 7.39947 7.776C7.47414 7.552 7.54347 7.35467 7.60747 7.184C7.67147 7.00267 7.70347 6.90667 7.70347 6.896C7.74614 6.71467 7.8048 6.544 7.87947 6.384C7.95414 6.21333 8.02347 6.05333 8.08747 5.904C8.1728 5.66933 8.2528 5.45067 8.32747 5.248C8.4128 5.04533 8.48747 4.86933 8.55147 4.72C8.61547 4.57067 8.66347 4.45333 8.69547 4.368C8.73814 4.28267 8.75947 4.24533 8.75947 4.256L9.65547 2.208C9.57014 2.12267 9.4848 2.02133 9.39947 1.904C9.31414 1.78667 9.27147 1.64267 9.27147 1.472C9.2608 1.35467 9.28747 1.25867 9.35147 1.184C9.42614 1.10933 9.50614 1.05067 9.59147 1.008C9.7408 0.997333 9.87947 0.986666 10.0075 0.976C10.1461 0.965333 10.3008 0.970666 10.4715 0.992C10.5355 0.981333 10.5995 0.976 10.6635 0.976C10.7381 0.976 10.8075 0.970666 10.8715 0.959999C10.9248 0.970666 10.9835 0.981333 11.0475 0.992C11.1115 0.992 11.1915 0.976 11.2875 0.943999C11.3941 0.922666 11.5328 0.906666 11.7035 0.896C11.8848 0.885333 12.0661 0.874666 12.2475 0.863999C12.4288 0.842666 12.5888 0.832 12.7275 0.832C12.8768 0.821333 12.9728 0.815999 13.0155 0.815999C13.1435 0.805333 13.2715 0.794666 13.3995 0.783999C13.5275 0.773333 13.6555 0.762666 13.7835 0.752C13.9221 0.741333 14.0555 0.730666 14.1835 0.719999C14.3115 0.709333 14.4395 0.698666 14.5675 0.688C14.8981 0.613333 15.1168 0.645333 15.2235 0.783999C15.3408 0.912 15.4315 1.02933 15.4955 1.136C15.5168 1.18933 15.5541 1.27467 15.6075 1.392C15.6715 1.49867 15.7035 1.60533 15.7035 1.712C15.7141 1.808 15.6395 1.872 15.4795 1.904C15.4581 1.97867 15.3835 2.03733 15.2555 2.08C15.1381 2.112 14.9941 2.096 14.8235 2.032C14.8021 2.02133 14.6528 2.02667 14.3755 2.048C14.1088 2.05867 13.7781 2.08 13.3835 2.112C12.9888 2.144 12.5941 2.18133 12.1995 2.224C11.8155 2.256 11.4901 2.288 11.2235 2.32C11.1915 2.39467 11.1541 2.46933 11.1115 2.544C11.0795 2.61867 11.0475 2.69333 11.0155 2.768C10.9408 2.928 10.8661 3.088 10.7915 3.248C10.7275 3.39733 10.6581 3.552 10.5835 3.712C10.5088 3.872 10.4341 4.032 10.3595 4.192C10.2955 4.34133 10.2315 4.49067 10.1675 4.64C10.1355 4.69333 10.1035 4.752 10.0715 4.816C10.0395 4.88 10.0075 4.93867 9.97547 4.992C10.0715 4.98133 10.1621 4.97067 10.2475 4.96C10.3435 4.94933 10.4395 4.93867 10.5355 4.928C10.6848 4.90667 10.8555 4.91733 11.0475 4.96C11.2395 4.992 11.4315 5.04 11.6235 5.104C11.8155 5.15733 11.9915 5.22133 12.1515 5.296C12.3115 5.36 12.4341 5.41867 12.5195 5.472C12.7648 5.62133 12.9835 5.78133 13.1755 5.952C13.3781 6.112 13.5488 6.32 13.6875 6.576C13.7835 6.78933 13.8741 7.024 13.9595 7.28C14.0448 7.52533 14.0768 7.792 14.0555 8.08C14.0555 8.12267 14.0395 8.23467 14.0075 8.416C13.9861 8.58667 13.9488 8.768 13.8955 8.96C13.8528 9.14133 13.7995 9.28533 13.7355 9.392C13.6288 9.584 13.5008 9.776 13.3515 9.968C13.2128 10.16 13.0635 10.3467 12.9035 10.528C12.7115 10.7627 12.4928 10.96 12.2475 11.12C12.0021 11.2693 11.7621 11.3973 11.5275 11.504C11.3141 11.6107 11.1488 11.6907 11.0315 11.744C10.9141 11.7973 10.8075 11.84 10.7115 11.872C10.6261 11.8933 10.5035 11.92 10.3435 11.952C10.2795 11.9627 10.2155 11.9787 10.1515 12C10.0981 12.0107 10.0395 12.0213 9.97547 12.032C9.91147 12.0427 9.84747 12.0587 9.78347 12.08C9.6128 12.176 9.44214 12.2293 9.27147 12.24C9.1008 12.2613 8.9408 12.272 8.79147 12.272C8.70614 12.272 8.6208 12.2667 8.53547 12.256C8.4608 12.256 8.3808 12.2613 8.29547 12.272ZM8.11947 10.912C8.29014 10.9013 8.45547 10.9013 8.61547 10.912C8.77547 10.912 8.93014 10.8907 9.07947 10.848C9.6128 10.6987 10.0981 10.544 10.5355 10.384C10.9835 10.224 11.3835 9.94667 11.7355 9.552C11.9915 9.25333 12.1835 8.98133 12.3115 8.736C12.4395 8.49067 12.5355 8.20267 12.5995 7.872C12.6315 7.75467 12.6315 7.632 12.5995 7.504C12.5675 7.376 12.5301 7.20533 12.4875 6.992C12.4235 6.84267 12.3648 6.74667 12.3115 6.704C12.2581 6.65067 12.1941 6.61333 12.1195 6.592C12.0448 6.57067 11.9488 6.528 11.8315 6.464C11.7248 6.37867 11.5701 6.31467 11.3675 6.272C11.1648 6.22933 10.9728 6.19733 10.7915 6.176C10.6955 6.15467 10.5941 6.13867 10.4875 6.128C10.3915 6.11733 10.2955 6.10667 10.1995 6.096C10.1035 6.07467 10.0021 6.05867 9.89547 6.048C9.79947 6.02667 9.70347 6.01067 9.60747 6C9.5968 6.04267 9.5488 6.15467 9.46347 6.336C9.3888 6.51733 9.30347 6.72533 9.20747 6.96C9.12214 7.184 9.04747 7.38667 8.98347 7.568C8.8768 7.87733 8.77547 8.192 8.67947 8.512C8.58347 8.82133 8.49814 9.13067 8.42347 9.44C8.39147 9.6 8.35414 9.776 8.31147 9.968C8.27947 10.1493 8.24214 10.3253 8.19947 10.496C8.16747 10.656 8.1408 10.7947 8.11947 10.912ZM25.7406 12.928C25.4313 12.7893 25.1166 12.5653 24.7966 12.256C24.4873 11.9467 24.2046 11.6 23.9486 11.216C23.7033 10.832 23.5166 10.4693 23.3886 10.128C23.3779 10.0853 23.3619 10.048 23.3406 10.016C23.3299 9.97333 23.3193 9.93067 23.3086 9.888C23.2766 9.71733 23.2286 9.55733 23.1646 9.408C23.1006 9.248 23.0419 9.088 22.9886 8.928C22.9779 8.87467 22.9619 8.82667 22.9406 8.784C22.9299 8.73067 22.9139 8.68267 22.8926 8.64C22.8286 8.36267 22.7753 8.13867 22.7326 7.968C22.6899 7.78667 22.6366 7.59467 22.5726 7.392C22.4659 7.712 22.3593 8.02133 22.2526 8.32C22.1566 8.61867 22.0659 8.912 21.9806 9.2C21.8739 9.54133 21.7726 9.888 21.6766 10.24C21.5806 10.592 21.4846 10.9547 21.3886 11.328C21.3033 11.6907 21.2126 12.0747 21.1166 12.48C21.0739 12.6827 20.9726 12.8373 20.8126 12.944C20.6526 13.0507 20.4659 13.072 20.2526 13.008C20.0713 12.9547 19.9059 12.8693 19.7566 12.752C19.6179 12.6347 19.5326 12.4747 19.5006 12.272C19.5753 12.0053 19.6606 11.7173 19.7566 11.408C19.8526 11.088 19.9486 10.7573 20.0446 10.416C20.1406 10.064 20.2419 9.70667 20.3486 9.344C20.4553 8.98133 20.5566 8.624 20.6526 8.272C20.7593 7.90933 20.8606 7.55733 20.9566 7.216C20.9459 7.25867 20.8659 7.376 20.7166 7.568C20.5673 7.76 20.4019 7.97333 20.2206 8.208C20.1139 8.34667 19.9966 8.49067 19.8686 8.64C19.7513 8.78933 19.6446 8.92267 19.5486 9.04C19.4739 9.136 19.4046 9.22133 19.3406 9.296C19.2766 9.36 19.2286 9.41333 19.1966 9.456C18.9833 9.69067 18.7059 9.952 18.3646 10.24C18.0233 10.528 17.6659 10.816 17.2926 11.104C17.0579 11.2853 16.8179 11.4613 16.5726 11.632C16.3379 11.8027 16.1139 11.968 15.9006 12.128C15.6873 12.288 15.4953 12.4373 15.3246 12.576C15.2499 12.6293 15.1593 12.6987 15.0526 12.784C14.9566 12.88 14.8606 12.9493 14.7646 12.992C14.6793 13.0347 14.6046 13.0187 14.5406 12.944C14.4553 12.8373 14.3646 12.7307 14.2686 12.624C14.1833 12.5173 14.0979 12.4107 14.0126 12.304C13.9913 12.08 14.0019 11.904 14.0446 11.776C14.0979 11.648 14.2153 11.5467 14.3966 11.472C14.4713 11.44 14.5353 11.3973 14.5886 11.344C14.6526 11.2907 14.7113 11.2427 14.7646 11.2C14.9673 11.0293 15.1806 10.8747 15.4046 10.736C15.6286 10.5867 15.8419 10.432 16.0446 10.272L16.3166 10.064C16.4446 9.95733 16.5833 9.84 16.7326 9.712C16.8926 9.57333 17.0793 9.408 17.2926 9.216C17.5166 9.024 17.7833 8.8 18.0926 8.544C18.2419 8.43733 18.3646 8.31467 18.4606 8.176C18.5566 8.03733 18.6686 7.91467 18.7966 7.808C19.0419 7.60533 19.2873 7.376 19.5326 7.12C19.7779 6.85333 19.9859 6.58667 20.1566 6.32C20.0393 6.10667 19.9219 5.89333 19.8046 5.68C19.6873 5.46667 19.5646 5.25333 19.4366 5.04C19.3086 4.82667 19.1753 4.61867 19.0366 4.416C18.9086 4.21333 18.7699 4.02133 18.6206 3.84C18.5566 3.72267 18.4979 3.62667 18.4446 3.552C18.3913 3.46667 18.3646 3.424 18.3646 3.424C18.1939 3.14667 18.0126 2.87467 17.8206 2.608C17.6393 2.34133 17.4579 2.07467 17.2766 1.808C17.2766 1.73333 17.2713 1.65867 17.2606 1.584C17.2606 1.49867 17.2659 1.424 17.2766 1.36C17.3086 1.17867 17.3939 1.06133 17.5326 1.008C17.6713 0.954666 17.8259 0.944 17.9966 0.976C18.1779 1.008 18.3433 1.06667 18.4926 1.152C18.6526 1.23733 18.7646 1.33867 18.8286 1.456C19.0419 1.808 19.2553 2.15467 19.4686 2.496C19.6926 2.83733 19.9219 3.17867 20.1566 3.52C20.2099 3.59467 20.2579 3.68 20.3006 3.776C20.3539 3.86133 20.4126 3.94133 20.4766 4.016C20.6473 4.21867 20.7753 4.42667 20.8606 4.64C20.9459 4.85333 21.0579 5.06667 21.1966 5.28C21.2499 5.35467 21.3086 5.42933 21.3726 5.504C21.4366 5.57867 21.4899 5.65867 21.5326 5.744C21.6179 5.54133 21.7139 5.296 21.8206 5.008C21.9273 4.72 22.0446 4.40533 22.1726 4.064C22.3113 3.72267 22.4499 3.376 22.5886 3.024C22.7273 2.672 22.8713 2.34133 23.0206 2.032C23.1699 1.712 23.3139 1.42933 23.4526 1.184C23.6019 0.938666 23.7459 0.757332 23.8846 0.639999C24.2046 0.650666 24.4393 0.693333 24.5886 0.768C24.7486 0.831999 24.8659 0.922666 24.9406 1.04C25.0259 1.14667 25.1113 1.28 25.1966 1.44L24.5886 2.544C24.4606 2.77867 24.3326 3.01333 24.2046 3.248C24.0766 3.48267 23.9539 3.72267 23.8366 3.968C23.7193 4.20267 23.6019 4.44267 23.4846 4.688C23.3673 4.92267 23.2553 5.16267 23.1486 5.408C23.0526 5.64267 22.9566 5.88267 22.8606 6.128C23.1806 5.86133 23.5059 5.58933 23.8366 5.312C24.1779 5.03467 24.5139 4.76267 24.8446 4.496C25.0366 4.336 25.2286 4.176 25.4206 4.016C25.6126 3.856 25.7993 3.70667 25.9806 3.568C26.3006 3.312 26.6099 3.01867 26.9086 2.688C27.2179 2.34667 27.5433 2.02667 27.8846 1.728C28.2259 1.42933 28.6153 1.20533 29.0526 1.056C29.2979 1.09867 29.4633 1.14133 29.5486 1.184C29.6446 1.22667 29.7619 1.36533 29.9006 1.6C29.9006 1.76 29.8686 1.91467 29.8046 2.064C29.7406 2.21333 29.6446 2.34133 29.5166 2.448C29.0579 2.82133 28.5939 3.19467 28.1246 3.568C27.6659 3.94133 27.2126 4.33067 26.7646 4.736C26.3379 5.10933 25.9006 5.46667 25.4526 5.808C25.0046 6.14933 24.5779 6.52267 24.1726 6.928C24.1939 7.024 24.2099 7.12 24.2206 7.216C24.2419 7.312 24.2633 7.408 24.2846 7.504C24.3059 7.6 24.3273 7.70133 24.3486 7.808C24.3699 7.904 24.3913 8 24.4126 8.096C24.4766 8.32 24.5406 8.544 24.6046 8.768C24.6686 8.98133 24.7379 9.17867 24.8126 9.36C24.8873 9.54133 24.9619 9.70667 25.0366 9.856C25.0899 9.93067 25.1326 10.016 25.1646 10.112C25.1966 10.208 25.2339 10.2987 25.2766 10.384C25.3406 10.5227 25.4153 10.64 25.5006 10.736C25.5966 10.832 25.6873 10.9333 25.7726 11.04C25.8046 11.072 25.8313 11.1093 25.8526 11.152C25.8846 11.184 25.9113 11.2213 25.9326 11.264C26.1353 11.456 26.3699 11.6 26.6366 11.696C27.0099 11.856 27.1699 12.0693 27.1166 12.336C27.0633 12.6027 26.9246 12.848 26.7006 13.072C26.6259 13.0827 26.5513 13.0933 26.4766 13.104C26.4126 13.1147 26.3433 13.1253 26.2686 13.136L25.7406 12.928ZM32.2663 13.072C31.6583 13.168 31.2157 13.184 30.9383 13.12C30.661 13.0667 30.421 12.9387 30.2183 12.736C30.1223 12.6507 30.0743 12.5333 30.0743 12.384C30.0743 12.2453 30.0957 12.16 30.1383 12.128C30.2237 12.0747 30.3463 12.0107 30.5063 11.936C30.6663 11.8613 30.9703 11.808 31.4183 11.776C31.9517 11.7973 32.4583 11.7387 32.9383 11.6C33.429 11.4613 33.861 11.28 34.2343 11.056C34.6077 10.8213 34.8797 10.5707 35.0503 10.304C35.2743 9.92 35.3757 9.6 35.3543 9.344C35.3437 9.07733 35.221 8.82667 34.9863 8.592C34.8477 8.47467 34.7357 8.416 34.6503 8.416C34.565 8.40533 34.421 8.384 34.2183 8.352C34.0157 8.352 33.8557 8.37333 33.7383 8.416C33.621 8.45867 33.4877 8.52267 33.3383 8.608C33.1997 8.68267 33.061 8.75733 32.9223 8.832C32.7943 8.896 32.6663 8.93867 32.5383 8.96C32.4637 9.056 32.341 9.136 32.1703 9.2C32.0103 9.25333 31.8557 9.28 31.7063 9.28C31.557 9.28 31.4557 9.25333 31.4023 9.2C31.317 9.2 31.2477 9.25333 31.1943 9.36C31.141 9.46667 31.0397 9.68 30.8903 10C30.837 10.192 30.7623 10.3947 30.6663 10.608C30.5703 10.8213 30.5117 10.992 30.4903 11.12C30.3197 11.536 30.181 11.808 30.0743 11.936C29.9783 12.064 29.877 12.128 29.7703 12.128C29.7063 12.128 29.6477 12.096 29.5943 12.032C29.541 11.968 29.4557 11.8773 29.3383 11.76C29.253 11.76 29.1623 11.6853 29.0663 11.536C28.9703 11.376 28.9757 11.1627 29.0823 10.896C29.1677 10.6827 29.2743 10.4 29.4023 10.048C29.5303 9.696 29.6583 9.33867 29.7863 8.976C29.925 8.60267 30.0423 8.288 30.1383 8.032C30.245 7.76533 30.309 7.62667 30.3303 7.616C30.3517 7.46667 30.389 7.36 30.4423 7.296C30.4957 7.232 30.5223 7.18933 30.5223 7.168C30.5437 7.11467 30.597 6.98133 30.6823 6.768C30.7677 6.55467 30.8583 6.336 30.9543 6.112C31.061 5.888 31.157 5.73333 31.2423 5.648C31.2423 5.59467 31.2903 5.488 31.3863 5.328C31.4823 5.15733 31.5837 4.98667 31.6903 4.816C31.765 4.656 31.8397 4.464 31.9143 4.24C31.9997 4.016 32.0637 3.86667 32.1063 3.792C32.2343 3.632 32.2823 3.53067 32.2503 3.488C32.2183 3.43467 32.149 3.34933 32.0423 3.232C32.021 3.21067 31.9997 3.13067 31.9783 2.992C31.957 2.84267 31.9463 2.74667 31.9463 2.704C31.9463 2.68267 31.9997 2.64 32.1063 2.576C32.213 2.512 32.341 2.44267 32.4903 2.368C32.6503 2.28267 32.7997 2.208 32.9383 2.144C33.077 2.06933 33.1783 2.02133 33.2423 2C33.2957 1.97867 33.4023 1.936 33.5623 1.872C33.733 1.79733 33.9037 1.728 34.0743 1.664C34.245 1.6 34.3623 1.55733 34.4263 1.536C34.5863 1.48267 34.757 1.44533 34.9383 1.424C35.1303 1.40267 35.285 1.39733 35.4023 1.408C35.6797 1.312 35.9463 1.328 36.2023 1.456C36.2983 1.488 36.4263 1.56267 36.5863 1.68C36.757 1.78667 36.9117 1.90933 37.0503 2.048C37.1997 2.18667 37.285 2.32 37.3063 2.448C37.3277 2.58667 37.3437 2.73067 37.3543 2.88C37.3757 3.01867 37.3437 3.17333 37.2583 3.344C37.2477 3.49333 37.1997 3.70133 37.1143 3.968C37.0397 4.224 36.9597 4.464 36.8743 4.688C36.789 4.912 36.7143 5.056 36.6503 5.12C36.4797 5.36533 36.3197 5.632 36.1703 5.92C36.021 6.19733 35.8237 6.46933 35.5783 6.736C35.5783 6.736 35.541 6.77867 35.4663 6.864C35.3917 6.93867 35.237 7.11467 35.0023 7.392C35.0023 7.392 35.093 7.39733 35.2743 7.408C35.4663 7.41867 35.605 7.45067 35.6903 7.504C35.9357 7.664 36.1543 7.86667 36.3463 8.112C36.549 8.34667 36.693 8.592 36.7783 8.848C36.8743 8.976 36.9063 9.152 36.8743 9.376C36.853 9.6 36.789 9.83467 36.6823 10.08C36.5863 10.3253 36.469 10.5493 36.3303 10.752C36.2663 10.8907 36.1437 11.0613 35.9623 11.264C35.781 11.4667 35.6103 11.648 35.4503 11.808C35.2903 11.9573 35.1997 12.032 35.1783 12.032C35.1357 12.0107 35.0717 12.0107 34.9863 12.032C34.901 12.064 34.7677 12.1227 34.5863 12.208C34.5117 12.2933 34.4263 12.3733 34.3303 12.448C34.2343 12.5227 34.1597 12.5493 34.1063 12.528C34.1063 12.528 34.0477 12.5493 33.9303 12.592C33.813 12.6453 33.669 12.72 33.4983 12.816C33.381 12.848 33.1997 12.8853 32.9543 12.928C32.7197 12.9813 32.4903 13.0293 32.2663 13.072ZM31.7703 7.792C31.781 7.81333 31.861 7.79733 32.0103 7.744C32.1703 7.69067 32.357 7.61067 32.5703 7.504C32.7943 7.39733 33.013 7.28 33.2263 7.152C33.4397 7.024 33.6103 6.90133 33.7383 6.784C33.8877 6.67733 34.021 6.56 34.1383 6.432C34.2663 6.304 34.3677 6.18667 34.4423 6.08C34.517 5.96267 34.5543 5.888 34.5543 5.856C34.5543 5.856 34.581 5.80267 34.6343 5.696C34.6877 5.57867 34.773 5.45067 34.8903 5.312C35.029 5.17333 35.1357 5.04533 35.2103 4.928C35.285 4.8 35.3223 4.72 35.3223 4.688C35.3223 4.688 35.349 4.63467 35.4023 4.528C35.4557 4.42133 35.5197 4.29867 35.5943 4.16C35.6903 4.032 35.765 3.87733 35.8183 3.696C35.8717 3.51467 35.909 3.38133 35.9303 3.296C35.9517 3.02933 35.8983 2.848 35.7703 2.752C35.653 2.64533 35.4877 2.608 35.2743 2.64C35.1357 2.66133 34.997 2.68267 34.8583 2.704C34.7303 2.71467 34.597 2.736 34.4583 2.768C34.3303 2.8 34.197 2.85333 34.0583 2.928C33.8877 3.03467 33.765 3.14133 33.6903 3.248C33.6157 3.344 33.6423 3.39733 33.7703 3.408C33.8557 3.408 33.877 3.48267 33.8343 3.632C33.7917 3.78133 33.6957 3.984 33.5463 4.24C33.5037 4.32533 33.413 4.496 33.2743 4.752C33.1357 5.008 32.9757 5.30667 32.7943 5.648C32.6237 5.97867 32.4583 6.304 32.2983 6.624C32.1383 6.944 32.005 7.216 31.8983 7.44C31.8023 7.65333 31.7597 7.77067 31.7703 7.792ZM2.46466 28.672C2.41132 28.6613 2.33132 28.624 2.22466 28.56C2.12866 28.5067 2.03799 28.4427 1.95266 28.368C1.86732 28.2933 1.82466 28.2453 1.82466 28.224C1.83532 28.1707 1.81399 28.144 1.76066 28.144C1.76066 28.144 1.74999 28.1067 1.72866 28.032C1.70732 27.968 1.70199 27.8987 1.71266 27.824C1.71266 27.792 1.71799 27.712 1.72866 27.584C1.73932 27.456 1.74466 27.3547 1.74466 27.28C1.76599 27.0667 1.81932 26.784 1.90466 26.432C1.98999 26.08 2.09132 25.712 2.20866 25.328C2.32599 24.9333 2.43799 24.5813 2.54466 24.272C2.69399 23.888 2.75799 23.6533 2.73666 23.568C2.72599 23.4827 2.59266 23.4507 2.33666 23.472C2.00599 23.5253 1.70199 23.472 1.42466 23.312C1.14732 23.152 0.928656 22.928 0.768656 22.64C0.608656 22.3413 0.539323 22.0373 0.560656 21.728C0.571323 21.568 0.603323 21.424 0.656657 21.296C0.720656 21.1573 0.82199 20.9707 0.960656 20.736C1.18466 20.4053 1.45132 20.0907 1.76066 19.792C2.08066 19.4933 2.41132 19.2373 2.75266 19.024C3.09399 18.8107 3.40332 18.6773 3.68066 18.624C3.85132 18.592 4.05399 18.5813 4.28866 18.592C4.52332 18.6027 4.70466 18.6347 4.83266 18.688C4.99266 18.752 5.16866 18.8907 5.36066 19.104C5.55266 19.3173 5.71266 19.5413 5.84066 19.776C5.97932 20.0107 6.03266 20.192 6.00066 20.32C5.92599 20.672 5.84066 20.9387 5.74466 21.12C5.64866 21.3013 5.53132 21.4667 5.39266 21.616C5.22199 21.7653 5.01932 22.0373 4.78466 22.432C4.56066 22.8267 4.33132 23.28 4.09666 23.792C3.87266 24.2933 3.67532 24.7893 3.50466 25.28C3.35532 25.728 3.25932 26.1333 3.21666 26.496C3.18466 26.8587 3.20599 27.0453 3.28066 27.056C3.32332 27.056 3.39799 27.072 3.50466 27.104C3.61132 27.136 3.68599 27.152 3.72866 27.152C3.76066 27.1947 3.77666 27.2427 3.77666 27.296C3.77666 27.3493 3.74999 27.4347 3.69666 27.552C3.66466 27.6267 3.58999 27.728 3.47266 27.856C3.36599 27.984 3.23799 28.1067 3.08866 28.224C2.94999 28.352 2.82199 28.4587 2.70466 28.544C2.58732 28.6293 2.50732 28.672 2.46466 28.672ZM2.00066 22.096C2.16066 22.2667 2.35266 22.3413 2.57666 22.32C2.80066 22.288 3.03532 22.1707 3.28066 21.968C3.52599 21.7653 3.76066 21.488 3.98466 21.136C4.11266 20.9867 4.19266 20.8693 4.22466 20.784C4.26732 20.688 4.30999 20.624 4.35266 20.592C4.49132 20.4427 4.58732 20.3253 4.64066 20.24C4.69399 20.1547 4.68332 20.0747 4.60866 20C4.53399 19.8827 4.45399 19.8187 4.36866 19.808C4.28332 19.7973 4.11266 19.84 3.85666 19.936C3.68599 19.968 3.55266 20.0213 3.45666 20.096C3.37132 20.1707 3.21666 20.2827 2.99266 20.432C2.94999 20.4747 2.90732 20.5013 2.86466 20.512C2.82199 20.512 2.77932 20.5067 2.73666 20.496C2.73666 20.496 2.72599 20.5013 2.70466 20.512C2.68332 20.512 2.67266 20.5333 2.67266 20.576C2.72599 20.672 2.66199 20.7947 2.48066 20.944C2.20332 21.2427 2.02732 21.4827 1.95266 21.664C1.87799 21.8347 1.89399 21.9787 2.00066 22.096ZM5.75228 29.84C5.43228 29.8507 5.19761 29.6853 5.04828 29.344C4.90961 29.0133 4.98961 28.4907 5.28828 27.776C5.35228 27.6587 5.41095 27.5413 5.46428 27.424C5.52828 27.3067 5.56561 27.2107 5.57628 27.136C5.60828 27.0613 5.67761 26.9173 5.78428 26.704C5.89095 26.48 6.02428 26.2133 6.18428 25.904C6.34428 25.5947 6.50961 25.2747 6.68028 24.944C6.86161 24.6133 7.02695 24.304 7.17628 24.016C7.33628 23.7173 7.46961 23.472 7.57628 23.28C7.68295 23.088 7.74695 22.976 7.76828 22.944C7.82161 22.9547 7.86961 22.928 7.91228 22.864C7.95495 22.7893 7.98161 22.7147 7.99228 22.64C8.01361 22.544 8.05095 22.448 8.10428 22.352C8.15761 22.256 8.21095 22.1973 8.26428 22.176C8.27495 22.1227 8.29628 22.064 8.32828 22C8.36028 21.936 8.38161 21.8827 8.39228 21.84C8.40295 21.7973 8.42428 21.76 8.45628 21.728C8.48828 21.6853 8.50428 21.6427 8.50428 21.6C8.58961 21.4933 8.71761 21.296 8.88828 21.008C9.06961 20.72 9.27228 20.384 9.49628 20C9.72028 19.6053 9.94961 19.2 10.1843 18.784C10.4189 18.3573 10.6376 17.9573 10.8403 17.584C11.0429 17.2107 11.2083 16.9013 11.3363 16.656C11.4643 16.4 11.5336 16.2507 11.5443 16.208C11.5549 16.048 11.6563 15.984 11.8483 16.016C11.9229 15.9627 12.0083 15.9467 12.1043 15.968C12.1043 15.968 12.1576 16.0267 12.2643 16.144C12.3816 16.2507 12.4776 16.3573 12.5523 16.464C12.6376 16.5493 12.6749 16.64 12.6643 16.736C12.6643 16.832 12.6483 16.9387 12.6163 17.056C12.5949 17.1947 12.5576 17.3173 12.5043 17.424C12.4616 17.5307 12.3709 17.6747 12.2323 17.856C12.1043 18.0373 11.9069 18.32 11.6403 18.704C11.5763 18.8 11.4749 18.96 11.3363 19.184C11.2083 19.408 11.0696 19.6427 10.9203 19.888C10.7816 20.1333 10.6643 20.3467 10.5683 20.528C10.4723 20.7093 10.4243 20.8107 10.4243 20.832C10.4136 20.8747 10.3763 20.9387 10.3123 21.024C10.2589 21.0987 10.2056 21.2 10.1523 21.328C10.0883 21.4027 10.0029 21.52 9.89628 21.68C9.80028 21.8293 9.69895 21.9893 9.59228 22.16C9.48561 22.32 9.38961 22.464 9.30428 22.592C9.22961 22.7093 9.19228 22.7787 9.19228 22.8C9.18161 22.832 9.16561 22.8693 9.14428 22.912C9.13361 22.9547 9.10161 22.992 9.04828 23.024C9.01628 23.0133 8.98961 23.04 8.96828 23.104C8.94695 23.1573 8.93628 23.184 8.93628 23.184C8.95761 23.2693 8.82961 23.536 8.55228 23.984C8.44561 24.208 8.30161 24.5013 8.12028 24.864C7.93895 25.2267 7.74161 25.616 7.52828 26.032C7.32561 26.448 7.12828 26.8533 6.93628 27.248C6.74428 27.6427 6.58428 27.9893 6.45628 28.288C6.32828 28.5867 6.25361 28.7947 6.23228 28.912C6.18961 29.1573 6.12028 29.3653 6.02428 29.536C5.92828 29.7067 5.83761 29.808 5.75228 29.84ZM15.5775 28.288C15.5455 28.3093 15.4655 28.3147 15.3375 28.304C15.2202 28.2933 15.0922 28.2613 14.9535 28.208C14.8255 28.1653 14.7242 28.112 14.6495 28.048C14.6069 28.0053 14.5642 27.9573 14.5215 27.904C14.4789 27.84 14.4575 27.7333 14.4575 27.584C14.4682 27.4347 14.5055 27.1947 14.5695 26.864C14.6122 26.6507 14.6655 26.4267 14.7295 26.192C14.7935 25.9573 14.8522 25.7547 14.9055 25.584C14.9589 25.4133 14.9855 25.328 14.9855 25.328C15.0389 25.3067 15.1135 25.1467 15.2095 24.848C15.3162 24.5493 15.4335 24.1867 15.5615 23.76C15.6042 23.6107 15.6789 23.36 15.7855 23.008C15.8922 22.656 15.9989 22.3147 16.1055 21.984C16.2015 21.6747 16.2922 21.4347 16.3775 21.264C16.4629 21.0933 16.5055 21.008 16.5055 21.008C16.5055 21.008 16.4415 21.0453 16.3135 21.12C16.1855 21.1947 16.0202 21.296 15.8175 21.424C15.6149 21.552 15.4015 21.7013 15.1775 21.872C14.9962 21.9787 14.7882 22.128 14.5535 22.32C14.3295 22.5013 14.1215 22.6507 13.9295 22.768C13.6415 22.992 13.4442 23.136 13.3375 23.2C13.2415 23.264 13.1455 23.2693 13.0495 23.216C12.9109 23.0987 12.7775 22.928 12.6495 22.704C12.5322 22.4693 12.5055 22.2987 12.5695 22.192C12.5909 22.1813 12.6602 22.1333 12.7775 22.048C12.9055 21.9627 13.0495 21.8613 13.2095 21.744C13.3695 21.6267 13.5135 21.52 13.6415 21.424C13.7802 21.328 13.8762 21.264 13.9295 21.232C13.9615 21.232 14.0202 21.1947 14.1055 21.12C14.1909 21.0453 14.2815 20.976 14.3775 20.912C14.4309 20.848 14.6175 20.704 14.9375 20.48C15.2575 20.256 15.6042 20.0053 15.9775 19.728C16.3722 19.4827 16.7242 19.2853 17.0335 19.136C17.3429 18.9867 17.5189 18.9173 17.5615 18.928C17.5935 18.928 17.6682 18.9653 17.7855 19.04C17.9135 19.1147 18.0362 19.2 18.1535 19.296C18.2709 19.392 18.3349 19.472 18.3455 19.536C18.4095 19.6107 18.3775 19.7813 18.2495 20.048C18.2069 20.144 18.1375 20.32 18.0415 20.576C17.9455 20.8213 17.8389 21.1093 17.7215 21.44C17.6149 21.76 17.5082 22.08 17.4015 22.4C17.3055 22.7093 17.2255 22.976 17.1615 23.2C17.0762 23.5307 16.9962 23.7867 16.9215 23.968C16.8575 24.1493 16.7935 24.3253 16.7295 24.496C16.6762 24.656 16.6122 24.88 16.5375 25.168C16.4629 25.3387 16.3829 25.5573 16.2975 25.824C16.2229 26.08 16.1535 26.336 16.0895 26.592C16.0255 26.8373 15.9775 27.04 15.9455 27.2C15.8602 27.4347 15.7909 27.664 15.7375 27.888C15.6842 28.112 15.6309 28.2453 15.5775 28.288ZM22.7807 28.288C22.7487 28.3093 22.6687 28.3147 22.5407 28.304C22.4233 28.2933 22.2953 28.2613 22.1567 28.208C22.0287 28.1653 21.9273 28.112 21.8527 28.048C21.81 28.0053 21.7673 27.9573 21.7247 27.904C21.682 27.84 21.6607 27.7333 21.6607 27.584C21.6713 27.4347 21.7087 27.1947 21.7727 26.864C21.8153 26.6507 21.8687 26.4267 21.9327 26.192C21.9967 25.9573 22.0553 25.7547 22.1087 25.584C22.162 25.4133 22.1887 25.328 22.1887 25.328C22.242 25.3067 22.3167 25.1467 22.4127 24.848C22.5193 24.5493 22.6367 24.1867 22.7647 23.76C22.8073 23.6107 22.882 23.36 22.9887 23.008C23.0953 22.656 23.202 22.3147 23.3087 21.984C23.4047 21.6747 23.4953 21.4347 23.5807 21.264C23.666 21.0933 23.7087 21.008 23.7087 21.008C23.7087 21.008 23.6447 21.0453 23.5167 21.12C23.3887 21.1947 23.2233 21.296 23.0207 21.424C22.818 21.552 22.6047 21.7013 22.3807 21.872C22.1993 21.9787 21.9913 22.128 21.7567 22.32C21.5327 22.5013 21.3247 22.6507 21.1327 22.768C20.8447 22.992 20.6473 23.136 20.5407 23.2C20.4447 23.264 20.3487 23.2693 20.2527 23.216C20.114 23.0987 19.9807 22.928 19.8527 22.704C19.7353 22.4693 19.7087 22.2987 19.7727 22.192C19.794 22.1813 19.8633 22.1333 19.9807 22.048C20.1087 21.9627 20.2527 21.8613 20.4127 21.744C20.5727 21.6267 20.7167 21.52 20.8447 21.424C20.9833 21.328 21.0793 21.264 21.1327 21.232C21.1647 21.232 21.2233 21.1947 21.3087 21.12C21.394 21.0453 21.4847 20.976 21.5807 20.912C21.634 20.848 21.8207 20.704 22.1407 20.48C22.4607 20.256 22.8073 20.0053 23.1807 19.728C23.5753 19.4827 23.9273 19.2853 24.2367 19.136C24.546 18.9867 24.722 18.9173 24.7647 18.928C24.7967 18.928 24.8713 18.9653 24.9887 19.04C25.1167 19.1147 25.2393 19.2 25.3567 19.296C25.474 19.392 25.538 19.472 25.5487 19.536C25.6127 19.6107 25.5807 19.7813 25.4527 20.048C25.41 20.144 25.3407 20.32 25.2447 20.576C25.1487 20.8213 25.042 21.1093 24.9247 21.44C24.818 21.76 24.7113 22.08 24.6047 22.4C24.5087 22.7093 24.4287 22.976 24.3647 23.2C24.2793 23.5307 24.1993 23.7867 24.1247 23.968C24.0607 24.1493 23.9967 24.3253 23.9327 24.496C23.8793 24.656 23.8153 24.88 23.7407 25.168C23.666 25.3387 23.586 25.5573 23.5007 25.824C23.426 26.08 23.3567 26.336 23.2927 26.592C23.2287 26.8373 23.1807 27.04 23.1487 27.2C23.0633 27.4347 22.994 27.664 22.9407 27.888C22.8873 28.112 22.834 28.2453 22.7807 28.288ZM25.4398 29.84C25.1198 29.8507 24.8851 29.6853 24.7358 29.344C24.5971 29.0133 24.6771 28.4907 24.9758 27.776C25.0398 27.6587 25.0984 27.5413 25.1518 27.424C25.2158 27.3067 25.2531 27.2107 25.2638 27.136C25.2958 27.0613 25.3651 26.9173 25.4718 26.704C25.5784 26.48 25.7118 26.2133 25.8718 25.904C26.0318 25.5947 26.1971 25.2747 26.3678 24.944C26.5491 24.6133 26.7144 24.304 26.8638 24.016C27.0238 23.7173 27.1571 23.472 27.2638 23.28C27.3704 23.088 27.4344 22.976 27.4558 22.944C27.5091 22.9547 27.5571 22.928 27.5998 22.864C27.6424 22.7893 27.6691 22.7147 27.6798 22.64C27.7011 22.544 27.7384 22.448 27.7918 22.352C27.8451 22.256 27.8984 22.1973 27.9518 22.176C27.9624 22.1227 27.9838 22.064 28.0158 22C28.0478 21.936 28.0691 21.8827 28.0798 21.84C28.0904 21.7973 28.1118 21.76 28.1438 21.728C28.1758 21.6853 28.1918 21.6427 28.1918 21.6C28.2771 21.4933 28.4051 21.296 28.5758 21.008C28.7571 20.72 28.9598 20.384 29.1838 20C29.4078 19.6053 29.6371 19.2 29.8718 18.784C30.1064 18.3573 30.3251 17.9573 30.5278 17.584C30.7304 17.2107 30.8958 16.9013 31.0238 16.656C31.1518 16.4 31.2211 16.2507 31.2318 16.208C31.2424 16.048 31.3438 15.984 31.5358 16.016C31.6104 15.9627 31.6958 15.9467 31.7918 15.968C31.7918 15.968 31.8451 16.0267 31.9518 16.144C32.0691 16.2507 32.1651 16.3573 32.2398 16.464C32.3251 16.5493 32.3624 16.64 32.3518 16.736C32.3518 16.832 32.3358 16.9387 32.3038 17.056C32.2824 17.1947 32.2451 17.3173 32.1918 17.424C32.1491 17.5307 32.0584 17.6747 31.9198 17.856C31.7918 18.0373 31.5944 18.32 31.3278 18.704C31.2638 18.8 31.1624 18.96 31.0238 19.184C30.8958 19.408 30.7571 19.6427 30.6078 19.888C30.4691 20.1333 30.3518 20.3467 30.2558 20.528C30.1598 20.7093 30.1118 20.8107 30.1118 20.832C30.1011 20.8747 30.0638 20.9387 29.9998 21.024C29.9464 21.0987 29.8931 21.2 29.8398 21.328C29.7758 21.4027 29.6904 21.52 29.5838 21.68C29.4878 21.8293 29.3864 21.9893 29.2798 22.16C29.1731 22.32 29.0771 22.464 28.9918 22.592C28.9171 22.7093 28.8798 22.7787 28.8798 22.8C28.8691 22.832 28.8531 22.8693 28.8318 22.912C28.8211 22.9547 28.7891 22.992 28.7358 23.024C28.7038 23.0133 28.6771 23.04 28.6558 23.104C28.6344 23.1573 28.6238 23.184 28.6238 23.184C28.6451 23.2693 28.5171 23.536 28.2398 23.984C28.1331 24.208 27.9891 24.5013 27.8078 24.864C27.6264 25.2267 27.4291 25.616 27.2158 26.032C27.0131 26.448 26.8158 26.8533 26.6238 27.248C26.4318 27.6427 26.2718 27.9893 26.1438 28.288C26.0158 28.5867 25.9411 28.7947 25.9198 28.912C25.8771 29.1573 25.8078 29.3653 25.7118 29.536C25.6158 29.7067 25.5251 29.808 25.4398 29.84ZM35.265 28.288C35.233 28.3093 35.153 28.3147 35.025 28.304C34.9077 28.2933 34.7797 28.2613 34.641 28.208C34.513 28.1653 34.4117 28.112 34.337 28.048C34.2944 28.0053 34.2517 27.9573 34.209 27.904C34.1664 27.84 34.145 27.7333 34.145 27.584C34.1557 27.4347 34.193 27.1947 34.257 26.864C34.2997 26.6507 34.353 26.4267 34.417 26.192C34.481 25.9573 34.5397 25.7547 34.593 25.584C34.6464 25.4133 34.673 25.328 34.673 25.328C34.7264 25.3067 34.801 25.1467 34.897 24.848C35.0037 24.5493 35.121 24.1867 35.249 23.76C35.2917 23.6107 35.3664 23.36 35.473 23.008C35.5797 22.656 35.6864 22.3147 35.793 21.984C35.889 21.6747 35.9797 21.4347 36.065 21.264C36.1504 21.0933 36.193 21.008 36.193 21.008C36.193 21.008 36.129 21.0453 36.001 21.12C35.873 21.1947 35.7077 21.296 35.505 21.424C35.3024 21.552 35.089 21.7013 34.865 21.872C34.6837 21.9787 34.4757 22.128 34.241 22.32C34.017 22.5013 33.809 22.6507 33.617 22.768C33.329 22.992 33.1317 23.136 33.025 23.2C32.929 23.264 32.833 23.2693 32.737 23.216C32.5984 23.0987 32.465 22.928 32.337 22.704C32.2197 22.4693 32.193 22.2987 32.257 22.192C32.2784 22.1813 32.3477 22.1333 32.465 22.048C32.593 21.9627 32.737 21.8613 32.897 21.744C33.057 21.6267 33.201 21.52 33.329 21.424C33.4677 21.328 33.5637 21.264 33.617 21.232C33.649 21.232 33.7077 21.1947 33.793 21.12C33.8784 21.0453 33.969 20.976 34.065 20.912C34.1184 20.848 34.305 20.704 34.625 20.48C34.945 20.256 35.2917 20.0053 35.665 19.728C36.0597 19.4827 36.4117 19.2853 36.721 19.136C37.0304 18.9867 37.2064 18.9173 37.249 18.928C37.281 18.928 37.3557 18.9653 37.473 19.04C37.601 19.1147 37.7237 19.2 37.841 19.296C37.9584 19.392 38.0224 19.472 38.033 19.536C38.097 19.6107 38.065 19.7813 37.937 20.048C37.8944 20.144 37.825 20.32 37.729 20.576C37.633 20.8213 37.5264 21.1093 37.409 21.44C37.3024 21.76 37.1957 22.08 37.089 22.4C36.993 22.7093 36.913 22.976 36.849 23.2C36.7637 23.5307 36.6837 23.7867 36.609 23.968C36.545 24.1493 36.481 24.3253 36.417 24.496C36.3637 24.656 36.2997 24.88 36.225 25.168C36.1504 25.3387 36.0704 25.5573 35.985 25.824C35.9104 26.08 35.841 26.336 35.777 26.592C35.713 26.8373 35.665 27.04 35.633 27.2C35.5477 27.4347 35.4784 27.664 35.425 27.888C35.3717 28.112 35.3184 28.2453 35.265 28.288ZM41.3482 27.952C41.2735 27.952 41.1348 27.9253 40.9322 27.872C40.7402 27.8187 40.5375 27.7547 40.3242 27.68C40.1215 27.5947 39.9615 27.504 39.8442 27.408C39.4815 27.0987 39.2202 26.7573 39.0602 26.384C38.9002 26 38.8042 25.6107 38.7722 25.216C38.7508 24.8213 38.7668 24.448 38.8202 24.096C38.9375 23.4133 39.1828 22.736 39.5562 22.064C39.9295 21.3813 40.3775 20.816 40.9002 20.368C41.1775 20.1227 41.4548 19.9147 41.7322 19.744C42.0095 19.5733 42.3082 19.4507 42.6282 19.376C42.7455 19.344 42.9108 19.328 43.1242 19.328C43.3482 19.3173 43.4975 19.312 43.5722 19.312C43.7855 19.312 44.0202 19.36 44.2762 19.456C44.5428 19.5413 44.7722 19.648 44.9642 19.776C45.1562 19.8933 45.2522 20.0053 45.2522 20.112C45.2522 20.1867 45.2468 20.2613 45.2362 20.336C45.2255 20.4107 45.1775 20.4267 45.0922 20.384H44.9322L45.0922 20.864C45.1348 20.9493 45.1722 21.0667 45.2042 21.216C45.2362 21.3547 45.2522 21.4827 45.2522 21.6C45.2522 21.7067 45.2362 21.8667 45.2042 22.08C45.1828 22.2827 45.1455 22.5013 45.0922 22.736C45.0495 22.9707 45.0015 23.1893 44.9482 23.392C44.9055 23.5947 44.8628 23.744 44.8202 23.84C44.7882 23.904 44.7668 23.968 44.7562 24.032C44.7562 24.0853 44.7562 24.1333 44.7562 24.176C44.7135 24.2613 44.6442 24.4107 44.5482 24.624C44.4522 24.8373 44.3828 24.9867 44.3402 25.072C44.2975 25.1147 44.2602 25.152 44.2282 25.184C44.2068 25.216 44.2175 25.2533 44.2602 25.296C44.2602 25.328 44.2335 25.4027 44.1802 25.52C44.1268 25.6267 44.0682 25.728 44.0042 25.824C43.9508 25.92 43.9082 25.968 43.8762 25.968C43.8762 25.968 43.8602 25.9733 43.8282 25.984C43.8068 25.984 43.7962 26 43.7962 26.032C43.7962 26.0747 43.7215 26.1867 43.5722 26.368C43.4335 26.5493 43.2682 26.736 43.0762 26.928C42.9695 27.0347 42.7988 27.1733 42.5642 27.344C42.3295 27.504 42.0948 27.648 41.8602 27.776C41.6362 27.8933 41.4655 27.952 41.3482 27.952ZM41.3162 26.416C41.4335 26.416 41.5455 26.4 41.6522 26.368C41.7588 26.3253 41.8495 26.2667 41.9242 26.192C42.1162 26.064 42.2975 25.8933 42.4682 25.68C42.6495 25.4667 42.7988 25.2213 42.9162 24.944C43.0335 24.784 43.1242 24.6187 43.1882 24.448C43.2628 24.2667 43.3748 23.9627 43.5242 23.536C43.6095 23.4187 43.6682 23.2747 43.7002 23.104C43.7322 22.9333 43.7482 22.7893 43.7482 22.672C43.7482 22.5547 43.7482 22.3947 43.7482 22.192C43.7588 21.9893 43.7855 21.8187 43.8282 21.68C43.8282 21.4027 43.8228 21.2427 43.8122 21.2C43.8015 21.1467 43.7588 21.0773 43.6842 20.992C43.6415 20.96 43.5828 20.928 43.5082 20.896C43.4442 20.864 43.3748 20.848 43.3002 20.848C43.2255 20.848 43.1242 20.8693 42.9962 20.912C42.8788 20.944 42.7775 20.9867 42.6922 21.04C42.6175 21.0827 42.5322 21.088 42.4362 21.056C42.3508 21.024 42.3082 20.9813 42.3082 20.928C42.3082 20.7787 42.2335 20.7893 42.0842 20.96C41.9455 21.12 41.7588 21.344 41.5242 21.632C41.3322 21.824 41.1668 22.0213 41.0282 22.224C40.9002 22.416 40.8362 22.5333 40.8362 22.576C40.8362 22.6187 40.8202 22.672 40.7882 22.736C40.7562 22.8 40.7242 22.8747 40.6922 22.96C40.6388 23.0347 40.5748 23.1573 40.5002 23.328C40.4255 23.4987 40.3508 23.6693 40.2762 23.84C40.2122 24 40.1695 24.1227 40.1482 24.208C40.1482 24.2507 40.1482 24.368 40.1482 24.56C40.1482 24.7413 40.1482 24.912 40.1482 25.072C40.1482 25.2533 40.1535 25.3867 40.1642 25.472C40.1748 25.5573 40.1908 25.6267 40.2122 25.68C40.2442 25.7333 40.2868 25.8133 40.3402 25.92C40.3828 25.9947 40.4468 26.0853 40.5322 26.192C40.6282 26.288 40.6922 26.3573 40.7242 26.4C40.8415 26.5067 40.9162 26.5493 40.9482 26.528C40.9908 26.496 41.1135 26.4587 41.3162 26.416Z" fill="#F19C31"/>
</svg>
