<svg width="29" height="20" viewBox="0 0 29 20" fill="none" xmlns="http://www.w3.org/2000/svg">
<path d="M22.4467 19.1735H5.94459C5.49203 19.1747 5.05093 19.0474 4.68579 18.8104C4.32064 18.5734 4.0506 18.239 3.91515 17.8562L1.92594 12.287C1.9063 12.2389 1.89783 12.1878 1.90106 12.1367C1.90429 12.0856 1.91915 12.0356 1.94474 11.9897C1.97033 11.9438 2.00612 11.903 2.04996 11.8697C2.0938 11.8364 2.14479 11.8114 2.19986 11.796C2.25492 11.7806 2.31292 11.7753 2.37037 11.7803C2.42781 11.7853 2.48352 11.8006 2.53414 11.8252C2.58475 11.8498 2.62923 11.8833 2.66489 11.9235C2.70056 11.9637 2.72667 12.01 2.74166 12.0594L4.73087 17.627C4.81188 17.856 4.97339 18.0559 5.19177 18.1976C5.41016 18.3393 5.67395 18.4154 5.94459 18.4147H22.4467C22.7173 18.4155 22.9811 18.3394 23.1994 18.1977C23.4177 18.0559 23.5791 17.856 23.66 17.627L25.6497 12.0583C25.6646 12.0088 25.6908 11.9626 25.7264 11.9224C25.7621 11.8821 25.8066 11.8487 25.8572 11.8241C25.9078 11.7995 25.9635 11.7842 26.021 11.7792C26.0784 11.7742 26.1364 11.7795 26.1915 11.7949C26.2465 11.8102 26.2975 11.8353 26.3414 11.8686C26.3852 11.9019 26.421 11.9427 26.4466 11.9886C26.4722 12.0344 26.487 12.0844 26.4903 12.1355C26.4935 12.1866 26.485 12.2378 26.4654 12.2859L24.4757 17.8562C24.3404 18.239 24.0705 18.5734 23.7054 18.8104C23.3403 19.0475 22.8992 19.1747 22.4467 19.1735Z" fill="#F19C31"/>
<path d="M2.34944 9.52576C2.28228 9.5257 2.21608 9.51163 2.15619 9.48469C2.09629 9.45774 2.04439 9.41868 2.00469 9.37066C1.96498 9.32264 1.93858 9.26701 1.92761 9.20826C1.91665 9.14952 1.92144 9.08931 1.94159 9.03251L3.93165 3.46112C4.06746 3.07884 4.33738 2.74498 4.7021 2.50817C5.06682 2.27136 5.5073 2.14396 5.95938 2.14453H9.80298C9.91649 2.14453 10.0253 2.18451 10.1056 2.25566C10.1859 2.32682 10.231 2.42332 10.231 2.52395C10.231 2.62458 10.1859 2.72109 10.1056 2.79224C10.0253 2.8634 9.91649 2.90337 9.80298 2.90337H5.95938C5.68905 2.90304 5.42567 2.97927 5.20764 3.12096C4.98962 3.26266 4.82835 3.46239 4.74736 3.69105L2.7573 9.2613C2.72978 9.33805 2.67542 9.40505 2.60209 9.45259C2.52877 9.50013 2.44029 9.52576 2.34944 9.52576Z" fill="#F19C31"/>
<path d="M26.0612 9.52691C25.9702 9.52683 25.8816 9.50104 25.8083 9.45328C25.7349 9.40552 25.6807 9.33828 25.6534 9.26131L23.6633 3.69029C23.5819 3.4619 23.4205 3.26247 23.2026 3.12096C22.9846 2.97944 22.7214 2.90322 22.4513 2.90337H18.6077C18.4942 2.90337 18.3853 2.8634 18.305 2.79224C18.2248 2.72109 18.1797 2.62458 18.1797 2.52395C18.1797 2.42332 18.2248 2.32682 18.305 2.25566C18.3853 2.18451 18.4942 2.14453 18.6077 2.14453H22.4513C22.9031 2.14402 23.3433 2.27132 23.7079 2.5079C24.0725 2.74448 24.3425 3.07801 24.4786 3.45998L26.4691 9.03252C26.4892 9.08932 26.494 9.14953 26.483 9.20827C26.4721 9.26702 26.4457 9.32265 26.406 9.37067C26.3663 9.4187 26.3144 9.45776 26.2545 9.4847C26.1946 9.51164 26.1284 9.52571 26.0612 9.52577V9.52691Z" fill="#F19C31"/>
<path d="M26.2789 12.5485H2.30312C1.73684 12.5485 1.19376 12.3491 0.793339 11.9941C0.392921 11.6391 0.167969 11.1576 0.167969 10.6556C0.167969 10.1536 0.392921 9.67211 0.793339 9.31712C1.19376 8.96213 1.73684 8.7627 2.30312 8.7627H26.2789C26.8452 8.7627 27.3883 8.96213 27.7887 9.31712C28.1891 9.67211 28.4141 10.1536 28.4141 10.6556C28.4141 11.1576 28.1891 11.6391 27.7887 11.9941C27.3883 12.3491 26.8452 12.5485 26.2789 12.5485ZM2.30312 9.52153C1.96385 9.52153 1.63848 9.64102 1.39858 9.8537C1.15868 10.0664 1.02391 10.3548 1.02391 10.6556C1.02391 10.9564 1.15868 11.2449 1.39858 11.4575C1.63848 11.6702 1.96385 11.7897 2.30312 11.7897H26.2789C26.6182 11.7897 26.9436 11.6702 27.1835 11.4575C27.4233 11.2449 27.5581 10.9564 27.5581 10.6556C27.5581 10.3548 27.4233 10.0664 27.1835 9.8537C26.9436 9.64102 26.6182 9.52153 26.2789 9.52153H2.30312Z" fill="#F19C31"/>
<path d="M19.2626 5.09365H9.12908C9.06347 5.09364 8.99874 5.08026 8.9399 5.05454C8.88105 5.02882 8.82966 4.99145 8.7897 4.94531C8.74974 4.89918 8.72228 4.84552 8.70945 4.78848C8.69661 4.73144 8.69873 4.67254 8.71566 4.61634L10.0201 0.281905C10.0444 0.201096 10.098 0.129649 10.1728 0.0786698C10.2476 0.0276905 10.3392 3.44025e-05 10.4335 0H17.9586C18.0529 3.44025e-05 18.1445 0.0276905 18.2193 0.0786698C18.2941 0.129649 18.3477 0.201096 18.372 0.281905L19.6777 4.61596C19.6947 4.67216 19.6968 4.73106 19.6839 4.7881C19.6711 4.84514 19.6436 4.8988 19.6037 4.94493C19.5637 4.99107 19.5123 5.02844 19.4535 5.05416C19.3946 5.07988 19.3299 5.09326 19.2643 5.09327L19.2626 5.09365ZM9.6863 4.33482H18.7054L17.6295 0.75883H10.7626L9.6863 4.33482Z" fill="#F19C31"/>
<path d="M19.2678 19.1712C19.1543 19.1712 19.0455 19.1312 18.9652 19.0601C18.8849 18.9889 18.8398 18.8924 18.8398 18.7918V15.481C18.8398 15.3804 18.8849 15.2838 18.9652 15.2127C19.0455 15.1415 19.1543 15.1016 19.2678 15.1016C19.3813 15.1016 19.4902 15.1415 19.5704 15.2127C19.6507 15.2838 19.6958 15.3804 19.6958 15.481V18.7918C19.6958 18.8924 19.6507 18.9889 19.5704 19.0601C19.4902 19.1312 19.3813 19.1712 19.2678 19.1712Z" fill="#F19C31"/>
<path d="M14.1975 19.1712C14.084 19.1712 13.9751 19.1312 13.8949 19.0601C13.8146 18.9889 13.7695 18.8924 13.7695 18.7918V15.481C13.7695 15.3804 13.8146 15.2838 13.8949 15.2127C13.9751 15.1415 14.084 15.1016 14.1975 15.1016C14.311 15.1016 14.4199 15.1415 14.5001 15.2127C14.5804 15.2838 14.6255 15.3804 14.6255 15.481V18.7918C14.6255 18.8924 14.5804 18.9889 14.5001 19.0601C14.4199 19.1312 14.311 19.1712 14.1975 19.1712Z" fill="#F19C31"/>
<path d="M9.12914 19.1712C9.01564 19.1712 8.90678 19.1312 8.82652 19.0601C8.74626 18.9889 8.70117 18.8924 8.70117 18.7918V15.481C8.70117 15.3804 8.74626 15.2838 8.82652 15.2127C8.90678 15.1415 9.01564 15.1016 9.12914 15.1016C9.24265 15.1016 9.35151 15.1415 9.43177 15.2127C9.51203 15.2838 9.55712 15.3804 9.55712 15.481V18.7918C9.55712 18.8924 9.51203 18.9889 9.43177 19.0601C9.35151 19.1312 9.24265 19.1712 9.12914 19.1712Z" fill="#F19C31"/>
</svg>
