<svg width="22" height="27" viewBox="0 0 22 27" fill="none" xmlns="http://www.w3.org/2000/svg">
<path d="M21.504 26.3587L20.9231 22.7466V0.916161C20.9231 0.782781 20.8565 0.658895 20.747 0.588741C20.6374 0.518536 20.5008 0.512275 20.3856 0.571908L18.2079 1.70038L16.03 0.571908C16.028 0.570882 16.026 0.570266 16.024 0.569291C16.0161 0.565339 16.008 0.562055 15.9999 0.558719C15.9931 0.555948 15.9864 0.553125 15.9796 0.550816C15.9717 0.548147 15.9638 0.546043 15.9558 0.543939C15.9485 0.541989 15.9411 0.539987 15.9338 0.538499C15.926 0.536959 15.9183 0.536036 15.9105 0.535009C15.9028 0.533983 15.895 0.532905 15.8872 0.532392C15.8796 0.53193 15.8722 0.531981 15.8646 0.531981C15.8565 0.531981 15.8484 0.531879 15.8403 0.532443C15.833 0.532905 15.8259 0.533931 15.8186 0.534855C15.8103 0.535933 15.8019 0.536959 15.7937 0.538602C15.7868 0.539987 15.78 0.541886 15.7732 0.543631C15.7648 0.545838 15.7563 0.548044 15.7479 0.550918C15.7415 0.553125 15.7351 0.555794 15.7288 0.558411C15.7203 0.561849 15.712 0.565288 15.7037 0.569393C15.7018 0.570317 15.6998 0.570933 15.698 0.571908L13.5202 1.70038L11.3424 0.571908C11.238 0.517766 11.1149 0.517714 11.0103 0.571908L8.83256 1.70038L6.65487 0.571908C6.55034 0.517714 6.42729 0.517714 6.32271 0.571908L4.14498 1.70038L1.96705 0.571908C1.85187 0.512223 1.71516 0.518638 1.60572 0.588792C1.49624 0.658946 1.42959 0.782832 1.42959 0.916213V22.7464L0.848799 26.3589C0.830874 26.4705 0.861178 26.5846 0.931741 26.6709C1.0023 26.7573 1.10594 26.807 1.21513 26.807L16.4501 26.8069H21.1377C21.2469 26.8069 21.3505 26.7571 21.4211 26.6708C21.4917 26.5845 21.522 26.4702 21.504 26.3587ZM1.65346 26.0372L2.11551 23.1633H11.3961C11.6013 23.1633 11.7675 22.991 11.7675 22.7784C11.7675 22.5658 11.6013 22.3935 11.3961 22.3935H2.17235V1.53893L3.9789 2.475C4.08343 2.52919 4.20653 2.52914 4.31106 2.475L6.48879 1.34653L8.66647 2.475C8.771 2.52919 8.8941 2.52919 8.99864 2.475L11.1764 1.34653L13.3541 2.475C13.4587 2.52919 13.5818 2.52919 13.6863 2.475L15.4925 1.53908V22.3936H13.5202C13.3151 22.3936 13.1488 22.5659 13.1488 22.7785C13.1488 22.9911 13.3151 23.1634 13.5202 23.1634H15.5494L16.0003 25.9667L16.0117 26.0371L1.65346 26.0372ZM16.7647 26.037L16.6785 25.5014L16.3025 23.1633H18.4276C18.6328 23.1633 18.799 22.991 18.799 22.7784C18.799 22.5659 18.6328 22.3935 18.4276 22.3935H16.2354V1.53903L18.0418 2.475C18.1464 2.52919 18.2695 2.52914 18.374 2.475L20.1803 1.53898V22.7784C20.1803 22.7996 20.182 22.8208 20.1854 22.8417L20.6993 26.037H16.7647Z" fill="white"/>
</svg>
