<svg width="30" height="21" viewBox="0 0 30 21" fill="none" xmlns="http://www.w3.org/2000/svg">
<path d="M11.9522 17.471C4.60123 17.4714 0.124167 10.3842 0.076194 10.3072C0.041931 10.2517 0.0184422 10.1884 0.0073323 10.1216C-0.00377761 10.0547 -0.00224687 9.98591 0.01182 9.9198C1.1685 4.47517 6.76781 2.98867 7.00562 2.92813C15.1992 0.0904152 19.5188 5.3402 21.3631 7.57868C21.6074 7.8954 21.8706 8.19203 22.1507 8.46642C23.1012 9.26382 23.7814 8.69911 23.9397 8.54067C26.1337 4.68374 29.3721 6.58264 29.4045 6.60156C29.4561 6.63283 29.5014 6.67646 29.5373 6.72952C29.5732 6.78258 29.5988 6.84385 29.6125 6.90926C29.6262 6.97466 29.6276 7.04268 29.6167 7.10878C29.6058 7.17487 29.5828 7.23753 29.5492 7.29255C28.1039 9.66015 27.7082 12.4894 28.3397 15.9419C28.3535 16.0176 28.351 16.096 28.3324 16.1704C28.3139 16.2447 28.2798 16.3126 28.2332 16.3682C28.1865 16.4238 28.1288 16.4654 28.065 16.4893C28.0012 16.5132 27.9334 16.5186 27.8673 16.5052C25.7549 16.0767 24.369 14.8896 23.6305 12.8772C23.6086 12.7674 23.5664 12.6644 23.5067 12.5752C23.447 12.4861 23.3714 12.4128 23.2848 12.3606C23.1983 12.3083 23.1031 12.2783 23.0055 12.2725C22.908 12.2667 22.8105 12.2854 22.7199 12.3271C22.4528 12.4216 22.2115 12.594 22.0191 12.8275C19.7592 15.3648 16.8262 16.9537 13.6903 17.3395C13.114 17.4264 12.5334 17.4703 11.9522 17.471ZM0.857292 9.92926C1.63634 11.0733 6.3623 17.4856 13.5845 16.4021C16.5415 16.0418 19.3082 14.5476 21.4418 12.1588C21.7337 11.8101 22.0991 11.5547 22.5021 11.4176C22.688 11.3454 22.8845 11.3165 23.0802 11.3325C23.2758 11.3485 23.4668 11.4092 23.642 11.5109C23.8172 11.6127 23.9731 11.7535 24.1008 11.9253C24.2285 12.097 24.3254 12.2963 24.3858 12.5116C24.7478 13.4991 25.4519 14.8314 27.42 15.4288C26.962 12.2884 27.3564 9.54144 28.5935 7.24667C27.7767 6.9506 25.9664 6.66163 24.5994 9.10727C24.5836 9.13535 24.5653 9.16149 24.5449 9.18531C24.1522 9.59505 23.6435 9.82584 23.114 9.83454C22.5845 9.84325 22.0704 9.62927 21.6677 9.2326C21.345 8.92645 21.044 8.591 20.7677 8.22947C18.8816 5.93659 14.9519 1.16402 7.21187 3.84283C7.13109 3.86458 2.00085 5.23473 0.857292 9.92926Z" fill="#F19C31"/>
<path d="M27.937 16.5131C27.874 16.5131 27.8119 16.4963 27.7554 16.4642C27.699 16.432 27.6497 16.3853 27.6114 16.3277C26.2944 14.346 25.7589 12.5095 26.0189 10.8698C26.271 9.2811 27.2731 7.85088 28.9965 6.61836C29.0889 6.55226 29.2003 6.53122 29.3062 6.55986C29.4121 6.58851 29.5038 6.66451 29.5611 6.77113C29.6184 6.87775 29.6366 7.00626 29.6118 7.12839C29.5869 7.25053 29.5211 7.35628 29.4286 7.42239C27.9115 8.50782 27.0345 9.7252 26.8258 11.04C26.6089 12.4064 27.0923 13.9917 28.2609 15.7521C28.3075 15.8221 28.3362 15.9058 28.3437 15.9936C28.3512 16.0815 28.3373 16.17 28.3034 16.2492C28.2696 16.3284 28.2172 16.395 28.1522 16.4417C28.0873 16.4883 28.0123 16.513 27.9357 16.5131H27.937Z" fill="#F19C31"/>
<path d="M20.1446 7.27973C20.0666 7.27966 19.9902 7.25394 19.9245 7.20559C19.8587 7.15723 19.8063 7.08824 19.7733 7.00672C19.7403 6.92519 19.7282 6.83451 19.7383 6.74532C19.7485 6.65612 19.7804 6.57211 19.8305 6.50313C20.0298 6.22834 19.9998 5.6485 19.7526 4.98967C19.3368 3.8839 18.4791 2.95029 17.8407 2.90867C17.1751 2.82324 16.5274 2.60545 15.9262 2.26497C14.5841 1.57445 13.1531 1.14182 11.6899 0.984207C8.51873 0.605842 8.16692 3.13663 8.15339 3.24447C8.14723 3.30735 8.13019 3.36816 8.10328 3.42331C8.07637 3.47846 8.04014 3.52681 7.99674 3.56552C7.95333 3.60422 7.90364 3.63248 7.85059 3.64863C7.79754 3.66478 7.74223 3.66848 7.68792 3.65952C7.63361 3.65057 7.58141 3.62913 7.53442 3.59648C7.48742 3.56383 7.44658 3.52063 7.41432 3.46945C7.38206 3.41826 7.35903 3.36013 7.3466 3.2985C7.33417 3.23686 7.33259 3.17297 7.34195 3.11062C7.34605 3.07515 7.82783 -0.427094 11.7739 0.0434976C13.3162 0.21225 14.8246 0.667761 16.2407 1.39237C16.7578 1.68788 17.3141 1.88132 17.8866 1.96465C18.9789 2.03559 20.0306 3.35135 20.505 4.6132C20.888 5.63147 20.8712 6.54097 20.4595 7.10946C20.421 7.16273 20.3729 7.20559 20.3185 7.23501C20.264 7.26444 20.2047 7.2797 20.1446 7.27973Z" fill="#F19C31"/>
<path d="M14.9047 18.4634C13.3659 18.4312 11.8478 18.048 10.4379 17.3359C10.3411 17.2816 10.2666 17.1856 10.2306 17.0686C10.1946 16.9515 10.2 16.8229 10.2455 16.7103C10.2911 16.5978 10.3732 16.5105 10.4741 16.4672C10.575 16.4239 10.6866 16.4281 10.7848 16.4789C10.8201 16.4978 14.3209 18.3451 17.2279 17.054C17.9423 16.7178 18.5883 16.2138 19.1248 15.5742C19.6612 14.9345 20.0765 14.1732 20.3441 13.3384C20.387 13.2238 20.4674 13.1333 20.5679 13.0868C20.6683 13.0403 20.7807 13.0415 20.8804 13.0901C20.9801 13.1387 21.059 13.2309 21.1001 13.3464C21.1411 13.462 21.1409 13.5915 21.0994 13.7069C20.3314 15.8021 19.126 17.2257 17.5166 17.9389C16.6812 18.2967 15.7959 18.4745 14.9047 18.4634Z" fill="#F19C31"/>
<path d="M10.0885 20.4343C10.0508 20.4343 10.0114 20.4343 9.9708 20.43C7.48415 20.2408 6.05999 15.902 6.00053 15.717C5.96246 15.5994 5.96646 15.4692 6.01164 15.355C6.05682 15.2408 6.13948 15.1519 6.24144 15.108C6.3434 15.0641 6.45631 15.0687 6.55532 15.1208C6.65433 15.173 6.73134 15.2683 6.7694 15.3859C7.12288 16.4838 8.39573 19.3591 10.0233 19.4835C10.1041 19.501 10.1875 19.4906 10.2632 19.4538C10.3128 19.3435 10.2378 18.6435 9.21341 17.0116C9.14962 16.91 9.12344 16.7833 9.14063 16.6595C9.15782 16.5356 9.21696 16.4247 9.30506 16.3511C9.39315 16.2775 9.50297 16.2473 9.61037 16.2671C9.71776 16.287 9.81393 16.3552 9.87772 16.4568C11.2781 18.688 11.1756 19.4996 10.9767 19.9168C10.8869 20.0918 10.7555 20.2336 10.5981 20.3253C10.4408 20.417 10.2639 20.4548 10.0885 20.4343Z" fill="#F19C31"/>
<path d="M4.04819 13.9932C3.95435 13.9946 3.86293 13.9588 3.78919 13.8918C3.71545 13.8249 3.66386 13.7308 3.64304 13.6252C3.62221 13.5196 3.63341 13.409 3.67476 13.3119C3.71611 13.2147 3.78511 13.1368 3.87024 13.0912C5.05644 12.255 5.78465 11.2051 6.03517 9.96972C6.45299 7.9081 5.46483 5.70129 4.83872 4.56903C4.78373 4.46343 4.76662 4.33724 4.79105 4.21731C4.81549 4.09738 4.87952 3.99319 4.96953 3.92688C5.05955 3.86058 5.16844 3.83741 5.27304 3.86229C5.37763 3.88718 5.46969 3.95816 5.52961 4.06013C6.3796 5.59629 7.29559 7.90574 6.83349 10.1849C6.52844 11.6899 5.66246 12.9479 4.26017 13.9251C4.19621 13.9696 4.12291 13.9932 4.04819 13.9932Z" fill="#F19C31"/>
<path d="M3.88714 8.87556C4.2196 8.87556 4.48912 8.56468 4.48912 8.18119C4.48912 7.7977 4.2196 7.48682 3.88714 7.48682C3.55467 7.48682 3.28516 7.7977 3.28516 8.18119C3.28516 8.56468 3.55467 8.87556 3.88714 8.87556Z" fill="#F19C31"/>
<path d="M3.8874 9.10786C3.72786 9.10748 3.572 9.05257 3.4395 8.95006C3.307 8.84754 3.20382 8.70203 3.14299 8.5319C3.08216 8.36177 3.06641 8.17466 3.09774 7.99421C3.12906 7.81376 3.20605 7.64807 3.31898 7.51808C3.43191 7.38808 3.57571 7.29961 3.73221 7.26384C3.88871 7.22808 4.05089 7.24662 4.19825 7.31713C4.34562 7.38765 4.47156 7.50696 4.56016 7.66C4.64877 7.81304 4.69606 7.99294 4.69606 8.17698C4.69595 8.29935 4.67495 8.42049 4.63425 8.5335C4.59355 8.64651 4.53396 8.74916 4.45887 8.8356C4.38378 8.92204 4.29466 8.99057 4.19661 9.03729C4.09856 9.084 3.99349 9.10798 3.8874 9.10786ZM3.8874 7.7191C3.8089 7.7191 3.73215 7.74596 3.66687 7.79627C3.6016 7.84658 3.55072 7.91809 3.52067 8.00175C3.49063 8.08542 3.48277 8.17748 3.49809 8.2663C3.5134 8.35512 3.55121 8.43671 3.60672 8.50074C3.66223 8.56478 3.73296 8.60838 3.80996 8.62605C3.88696 8.64372 3.96678 8.63465 4.03931 8.59999C4.11184 8.56534 4.17383 8.50665 4.21745 8.43136C4.26107 8.35606 4.28435 8.26753 4.28435 8.17698C4.28424 8.05558 4.24238 7.93919 4.16797 7.85335C4.09355 7.76751 3.99265 7.71923 3.8874 7.7191Z" fill="#F19C31"/>
<path d="M10.9273 14.0728C9.84188 14.0728 8.60183 11.9556 8.21473 11.2409C8.16661 11.1521 8.14538 11.0475 8.15436 10.9433C8.16334 10.8391 8.20202 10.7414 8.26435 10.6653C8.36613 10.579 8.44106 10.4571 8.478 10.3178C8.51494 10.1785 8.51192 10.0291 8.46938 9.89191C8.45224 9.8066 8.45597 9.71747 8.48015 9.63446C8.50433 9.55145 8.54802 9.47781 8.60635 9.42175C8.92866 9.11146 11.8049 6.41158 13.3455 7.13905C13.4893 7.20241 13.6171 7.30614 13.7173 7.44085C13.8176 7.57556 13.8871 7.73699 13.9196 7.91052C14.1505 9.12943 12.5807 11.3 11.9468 12.1155C12.0545 12.4299 12.0732 12.7757 12.0001 13.1031C11.9475 13.2964 11.8591 13.4741 11.7411 13.6241C11.6231 13.774 11.4782 13.8926 11.3165 13.9715C11.195 14.0386 11.062 14.0732 10.9273 14.0728ZM9.06972 11.0219C9.78939 12.2607 10.6887 13.2653 10.9622 13.1163C11.1672 13.0024 11.2013 12.8798 11.2119 12.8382C11.2375 12.6415 11.2025 12.4407 11.1131 12.2706C11.0674 12.1823 11.0477 12.0794 11.0568 11.9772C11.0659 11.8749 11.1033 11.7788 11.1635 11.703C12.1916 10.433 13.2323 8.69853 13.1208 8.11059C13.1142 8.07748 13.1085 8.04674 13.0367 8.01268C12.2986 7.66219 10.482 8.90334 9.31371 9.97658C9.35223 10.3483 9.26482 10.7228 9.06972 11.0219Z" fill="#F19C31"/>
</svg>
