<svg width="22" height="27" viewBox="0 0 22 27" fill="none" xmlns="http://www.w3.org/2000/svg">
<path d="M10.0265 9.16689C9.98267 8.97839 9.82826 8.83116 9.63052 8.78943C9.55939 8.77443 8.45207 8.54842 7.31064 8.73206C7.58988 8.29226 7.78642 7.79112 7.78642 7.25138C7.78642 5.42661 5.54027 4.04199 5.44461 3.98393C5.27406 3.88036 5.05596 3.88036 4.8854 3.98393C4.78974 4.04194 2.54365 5.42656 2.54365 7.25138C2.54365 7.79112 2.74019 8.29226 3.01942 8.73206C1.87794 8.54837 0.770626 8.77438 0.699488 8.78943C0.501751 8.83116 0.347342 8.97834 0.303493 9.16689C0.279694 9.26932 -0.249411 11.6228 0.960864 12.9403C0.812131 12.9627 0.718548 12.9819 0.699436 12.9859C0.501699 13.0276 0.34729 13.1748 0.303441 13.3634C0.279277 13.4673 -0.265815 15.8919 1.01758 17.1965C0.836139 17.2223 0.72084 17.246 0.699436 17.2505C0.501699 17.2922 0.34729 17.4394 0.303441 17.6279C0.278912 17.7334 -0.28149 20.2257 1.07304 21.5159C1.80545 22.2136 2.90694 22.3778 3.78147 22.3778C4.11232 22.3778 4.41051 22.3543 4.64413 22.3273V25.7825C4.64413 26.0569 4.87733 26.2792 5.1649 26.2792C5.45247 26.2792 5.68567 26.0569 5.68567 25.7825V22.3273C5.91929 22.3543 6.21749 22.3778 6.54839 22.3778C7.42292 22.3778 8.5244 22.2135 9.25682 21.516C10.6114 20.2257 10.0509 17.7334 10.0264 17.6279C9.98251 17.4394 9.8281 17.2922 9.63037 17.2505C9.60896 17.246 9.49366 17.2224 9.31223 17.1966C10.5957 15.8919 10.0505 13.4674 10.0263 13.3634C9.98246 13.1749 9.82805 13.0277 9.63032 12.986C9.61126 12.9819 9.51767 12.9628 9.36894 12.9403C10.5795 11.6228 10.0503 9.26932 10.0265 9.16689ZM9.06851 9.70435C9.17178 10.4256 9.19422 11.7106 8.52092 12.3519C7.85037 12.9906 6.49699 12.97 5.73858 12.8728C5.71249 12.6905 5.69161 12.472 5.68573 12.2371V11.9772C5.70223 11.3434 5.84456 10.6458 6.28613 10.2252C6.95672 9.58653 8.31016 9.60714 9.06851 9.70435ZM1.26239 13.9008C2.02126 13.8035 3.37365 13.7833 4.04384 14.4217C4.71365 15.0597 4.69251 16.3471 4.59059 17.0694C3.83162 17.1666 2.47928 17.1868 1.80915 16.5484C1.13928 15.9105 1.16048 14.6231 1.26239 13.9008ZM5.73947 17.0694C5.63755 16.3467 5.61646 15.0596 6.28618 14.4217C6.95651 13.7832 8.30906 13.8036 9.06762 13.9008C9.16954 14.6235 9.19063 15.9106 8.52092 16.5485C7.85068 17.187 6.49824 17.1667 5.73947 17.0694ZM5.16568 5.00991C5.77426 5.45021 6.74487 6.34416 6.74487 7.25138C6.74487 7.92096 6.2102 8.58697 5.68578 9.06675V7.79787C5.68578 7.52353 5.45258 7.30115 5.16501 7.30115C4.87744 7.30115 4.64423 7.52353 4.64423 7.79787V9.06914C4.11982 8.5905 3.58519 7.92469 3.58519 7.25138C3.58519 6.34848 4.55742 5.4517 5.16568 5.00991ZM1.2625 9.70346C2.01985 9.60496 3.37011 9.5834 4.04384 10.2252C4.71391 10.8635 4.69251 12.1516 4.59049 12.8736C3.83308 12.9721 2.48287 12.9937 1.80915 12.3519C1.13907 11.7136 1.16048 10.4255 1.2625 9.70346ZM4.59049 21.3347C3.83297 21.4333 2.48287 21.4548 1.80915 20.813C1.13907 20.1747 1.16048 18.8866 1.2625 18.1645C2.01985 18.066 3.37011 18.0444 4.04384 18.6862C4.71391 19.3246 4.69251 20.6127 4.59049 21.3347ZM8.52097 20.813C7.85037 21.4518 6.49699 21.4311 5.73864 21.3339C5.71255 21.1515 5.69166 20.9331 5.68578 20.6982V20.4382C5.70229 19.8044 5.84461 19.1069 6.28618 18.6863C6.95651 18.0478 8.30906 18.0682 9.06762 18.1653C9.16959 18.888 9.19068 20.1751 8.52097 20.813Z" fill="#F19C31"/>
<path d="M20.8371 10.3038C20.7933 10.1153 20.6389 9.96809 20.4411 9.92636C20.4221 9.92234 20.3284 9.90312 20.1797 9.88071C21.39 8.56326 20.8609 6.20973 20.8371 6.10731C20.7932 5.91875 20.6388 5.77157 20.4411 5.72985C20.3699 5.71485 19.2626 5.48884 18.1211 5.67253C18.4003 5.23273 18.5969 4.73154 18.5969 4.1918C18.5969 2.36704 16.3508 0.982422 16.2551 0.924355C16.0847 0.820788 15.8666 0.820788 15.6959 0.924355C15.6002 0.982372 13.3541 2.36699 13.3541 4.1918C13.3541 4.73154 13.5506 5.23273 13.8299 5.67248C12.6885 5.48879 11.5811 5.7148 11.51 5.72985C11.3123 5.77157 11.1579 5.91875 11.114 6.10731C11.0902 6.20973 10.5611 8.56321 11.7713 9.88067C11.6226 9.90307 11.5291 9.92229 11.51 9.92631C11.3123 9.96804 11.1579 10.1152 11.114 10.3038C11.0898 10.4077 10.5447 12.8322 11.8281 14.1369C11.6467 14.1627 11.5314 14.1863 11.51 14.1908C11.3123 14.2326 11.1579 14.3797 11.114 14.5683C11.0895 14.6738 10.529 17.166 11.8836 18.4563C12.616 19.1539 13.7175 19.3182 14.592 19.3182C14.9229 19.3182 15.2211 19.2947 15.4547 19.2676V22.7228C15.4547 22.9972 15.6879 23.2196 15.9755 23.2196C16.263 23.2196 16.4962 22.9972 16.4962 22.7228V19.2676C16.7299 19.2947 17.028 19.3182 17.3589 19.3182C18.2334 19.3182 19.3349 19.1539 20.0673 18.4563C21.4219 17.166 20.8614 14.6738 20.8369 14.5683C20.7931 14.3798 20.6387 14.2326 20.4409 14.1909C20.4195 14.1864 20.3042 14.1628 20.1228 14.137C21.4064 12.8323 20.8613 10.4078 20.8371 10.3038ZM19.3315 13.4889C18.661 14.1275 17.3076 14.107 16.5492 14.0097C16.5232 13.828 16.5023 13.6104 16.4964 13.3765V13.1129C16.5131 12.4795 16.6554 11.7825 17.0968 11.3621C17.7673 10.7234 19.1207 10.744 19.8791 10.8412C19.9824 11.5625 20.0048 12.8475 19.3315 13.4889ZM12.073 10.8412C12.8319 10.744 14.1843 10.7237 14.8545 11.3621C15.5245 12.0004 15.5031 13.2885 15.4011 14.0106C14.6436 14.1091 13.2934 14.1306 12.6197 13.4889C11.9499 12.8508 11.971 11.5635 12.073 10.8412ZM19.8782 6.64466C19.9802 7.3674 20.0012 8.65445 19.3315 9.29235C18.6612 9.93083 17.3087 9.91062 16.5501 9.81331C16.4482 9.09058 16.4271 7.80352 17.0968 7.16563C17.7671 6.52714 19.1199 6.54746 19.8782 6.64466ZM15.9763 1.95034C16.5848 2.39063 17.5554 3.28458 17.5554 4.1918C17.5554 4.86138 17.0208 5.52739 16.4964 6.00717V4.65325C16.4964 4.37891 16.2632 4.15653 15.9756 4.15653C15.6881 4.15653 15.4548 4.37891 15.4548 4.65325V6.00717C14.9303 5.52729 14.3958 4.86138 14.3958 4.19185C14.3958 3.2889 15.3681 2.39212 15.9763 1.95034ZM12.0731 6.64387C12.8305 6.54532 14.1807 6.52381 14.8545 7.16563C15.5243 7.80367 15.5031 9.09103 15.4012 9.81326C14.6421 9.91047 13.2898 9.93064 12.6197 9.2923C11.9496 8.65411 11.9711 7.36596 12.0731 6.64387ZM15.4012 18.2743C14.6421 18.3715 13.2898 18.3918 12.6197 17.7534C11.9496 17.1151 11.9711 15.827 12.0731 15.1049C12.8305 15.0064 14.1807 14.9848 14.8545 15.6267C15.5243 16.2647 15.5031 17.5521 15.4012 18.2743ZM19.3315 17.7534C18.6612 18.3919 17.3087 18.3716 16.5501 18.2743C16.4482 17.5516 16.4271 16.2645 17.0968 15.6267C17.7674 14.9879 19.1209 15.0085 19.8792 15.1058C19.9824 15.827 20.0048 17.1121 19.3315 17.7534Z" fill="#F19C31"/>
<line x1="0.5" y1="-0.5" x2="32.7944" y2="-0.5" transform="matrix(-0.61398 0.789321 -0.816279 -0.577658 20.6738 0)" stroke="#F19C31" stroke-linecap="round" stroke-linejoin="round"/>
</svg>
