<svg width="6" height="9" viewBox="0 0 6 9" fill="none" xmlns="http://www.w3.org/2000/svg">
<path d="M2.32875 0.354492C1.9575 0.354492 1.59825 0.459947 1.28887 0.659947L0.541875 1.14286L0.958125 1.74795L1.70512 1.26504C1.88971 1.14543 2.10675 1.08164 2.32875 1.08176H3.97312C4.15837 1.0821 4.33903 1.13769 4.49058 1.24101C4.64213 1.34432 4.75722 1.49035 4.82024 1.65927C4.88327 1.82819 4.89116 2.01183 4.84286 2.18525C4.79456 2.35867 4.6924 2.51348 4.55025 2.62867L4.215 2.89995H0V3.62722H3.315L1.96425 4.71813H0V5.4454H1.065L0.96975 5.52176C0.783365 5.67206 0.633438 5.86035 0.53064 6.07323C0.427842 6.2861 0.374701 6.51834 0.375 6.7534C0.375595 7.17792 0.549796 7.58489 0.859394 7.88503C1.16899 8.18518 1.58871 8.35401 2.0265 8.35449H3.67087C4.04212 8.35449 4.40212 8.24904 4.71075 8.04904L5.45812 7.56613L5.04187 6.96104L4.29487 7.44395C4.11029 7.56356 3.89325 7.62734 3.67125 7.62722H2.02687C1.84162 7.62689 1.66097 7.57129 1.50942 7.46798C1.35787 7.36466 1.24278 7.21864 1.17976 7.04971C1.11673 6.88079 1.10884 6.69716 1.15714 6.52373C1.20544 6.35031 1.3076 6.1955 1.44975 6.08031L2.23537 5.4454H6V4.71813H3.13538L4.48537 3.62722H6V2.89995H5.30625C5.51332 2.62616 5.62498 2.29548 5.625 1.95595C5.6245 1.53136 5.45035 1.12431 5.14074 0.824079C4.83113 0.523852 4.41135 0.354973 3.9735 0.354492H2.32875Z" fill="black"/>
</svg>
