<svg width="47" height="37" viewBox="0 0 47 37" fill="none" xmlns="http://www.w3.org/2000/svg">
<path d="M16.0115 17.672C15.9582 17.6613 15.8782 17.624 15.7715 17.56C15.6755 17.5067 15.5849 17.4427 15.4995 17.368C15.4142 17.2933 15.3715 17.2453 15.3715 17.224C15.3822 17.1707 15.3609 17.144 15.3075 17.144C15.3075 17.144 15.2969 17.1067 15.2755 17.032C15.2542 16.968 15.2489 16.8987 15.2595 16.824C15.2595 16.792 15.2649 16.712 15.2755 16.584C15.2862 16.456 15.2915 16.3547 15.2915 16.28C15.3129 16.0667 15.3662 15.784 15.4515 15.432C15.5369 15.08 15.6382 14.712 15.7555 14.328C15.8729 13.9333 15.9849 13.5813 16.0915 13.272C16.2409 12.888 16.3049 12.6533 16.2835 12.568C16.2729 12.4827 16.1395 12.4507 15.8835 12.472C15.5529 12.5253 15.2489 12.472 14.9715 12.312C14.6942 12.152 14.4755 11.928 14.3155 11.64C14.1555 11.3413 14.0862 11.0373 14.1075 10.728C14.1182 10.568 14.1502 10.424 14.2035 10.296C14.2675 10.1573 14.3689 9.97067 14.5075 9.736C14.7315 9.40533 14.9982 9.09067 15.3075 8.792C15.6275 8.49333 15.9582 8.23733 16.2995 8.024C16.6409 7.81067 16.9502 7.67733 17.2275 7.624C17.3982 7.592 17.6009 7.58133 17.8355 7.592C18.0702 7.60267 18.2515 7.63467 18.3795 7.688C18.5395 7.752 18.7155 7.89067 18.9075 8.104C19.0995 8.31733 19.2595 8.54133 19.3875 8.776C19.5262 9.01067 19.5795 9.192 19.5475 9.32C19.4729 9.672 19.3875 9.93867 19.2915 10.12C19.1955 10.3013 19.0782 10.4667 18.9395 10.616C18.7689 10.7653 18.5662 11.0373 18.3315 11.432C18.1075 11.8267 17.8782 12.28 17.6435 12.792C17.4195 13.2933 17.2222 13.7893 17.0515 14.28C16.9022 14.728 16.8062 15.1333 16.7635 15.496C16.7315 15.8587 16.7529 16.0453 16.8275 16.056C16.8702 16.056 16.9449 16.072 17.0515 16.104C17.1582 16.136 17.2329 16.152 17.2755 16.152C17.3075 16.1947 17.3235 16.2427 17.3235 16.296C17.3235 16.3493 17.2969 16.4347 17.2435 16.552C17.2115 16.6267 17.1369 16.728 17.0195 16.856C16.9129 16.984 16.7849 17.1067 16.6355 17.224C16.4969 17.352 16.3689 17.4587 16.2515 17.544C16.1342 17.6293 16.0542 17.672 16.0115 17.672ZM15.5475 11.096C15.7075 11.2667 15.8995 11.3413 16.1235 11.32C16.3475 11.288 16.5822 11.1707 16.8275 10.968C17.0729 10.7653 17.3075 10.488 17.5315 10.136C17.6595 9.98667 17.7395 9.86933 17.7715 9.784C17.8142 9.688 17.8569 9.624 17.8995 9.592C18.0382 9.44267 18.1342 9.32533 18.1875 9.24C18.2409 9.15467 18.2302 9.07467 18.1555 9C18.0809 8.88267 18.0009 8.81867 17.9155 8.808C17.8302 8.79733 17.6595 8.84 17.4035 8.936C17.2329 8.968 17.0995 9.02133 17.0035 9.096C16.9182 9.17067 16.7635 9.28267 16.5395 9.432C16.4969 9.47467 16.4542 9.50133 16.4115 9.512C16.3689 9.512 16.3262 9.50667 16.2835 9.496C16.2835 9.496 16.2729 9.50133 16.2515 9.512C16.2302 9.512 16.2195 9.53333 16.2195 9.576C16.2729 9.672 16.2089 9.79467 16.0275 9.944C15.7502 10.2427 15.5742 10.4827 15.4995 10.664C15.4249 10.8347 15.4409 10.9787 15.5475 11.096ZM23.8432 17.288C23.8112 17.3093 23.7312 17.3147 23.6032 17.304C23.4858 17.2933 23.3578 17.2613 23.2192 17.208C23.0912 17.1653 22.9898 17.112 22.9152 17.048C22.8725 17.0053 22.8298 16.9573 22.7872 16.904C22.7445 16.84 22.7232 16.7333 22.7232 16.584C22.7338 16.4347 22.7712 16.1947 22.8352 15.864C22.8778 15.6507 22.9312 15.4267 22.9952 15.192C23.0592 14.9573 23.1178 14.7547 23.1712 14.584C23.2245 14.4133 23.2512 14.328 23.2512 14.328C23.3045 14.3067 23.3792 14.1467 23.4752 13.848C23.5818 13.5493 23.6992 13.1867 23.8272 12.76C23.8698 12.6107 23.9445 12.36 24.0512 12.008C24.1578 11.656 24.2645 11.3147 24.3712 10.984C24.4672 10.6747 24.5578 10.4347 24.6432 10.264C24.7285 10.0933 24.7712 10.008 24.7712 10.008C24.7712 10.008 24.7072 10.0453 24.5792 10.12C24.4512 10.1947 24.2858 10.296 24.0832 10.424C23.8805 10.552 23.6672 10.7013 23.4432 10.872C23.2618 10.9787 23.0538 11.128 22.8192 11.32C22.5952 11.5013 22.3872 11.6507 22.1952 11.768C21.9072 11.992 21.7098 12.136 21.6032 12.2C21.5072 12.264 21.4112 12.2693 21.3152 12.216C21.1765 12.0987 21.0432 11.928 20.9152 11.704C20.7978 11.4693 20.7712 11.2987 20.8352 11.192C20.8565 11.1813 20.9258 11.1333 21.0432 11.048C21.1712 10.9627 21.3152 10.8613 21.4752 10.744C21.6352 10.6267 21.7792 10.52 21.9072 10.424C22.0458 10.328 22.1418 10.264 22.1952 10.232C22.2272 10.232 22.2858 10.1947 22.3712 10.12C22.4565 10.0453 22.5472 9.976 22.6432 9.912C22.6965 9.848 22.8832 9.704 23.2032 9.48C23.5232 9.256 23.8698 9.00533 24.2432 8.728C24.6378 8.48267 24.9898 8.28533 25.2992 8.136C25.6085 7.98667 25.7845 7.91733 25.8272 7.928C25.8592 7.928 25.9338 7.96533 26.0512 8.04C26.1792 8.11467 26.3018 8.2 26.4192 8.296C26.5365 8.392 26.6005 8.472 26.6112 8.536C26.6752 8.61067 26.6432 8.78133 26.5152 9.048C26.4725 9.144 26.4032 9.32 26.3072 9.576C26.2112 9.82133 26.1045 10.1093 25.9872 10.44C25.8805 10.76 25.7738 11.08 25.6672 11.4C25.5712 11.7093 25.4912 11.976 25.4272 12.2C25.3418 12.5307 25.2618 12.7867 25.1872 12.968C25.1232 13.1493 25.0592 13.3253 24.9952 13.496C24.9418 13.656 24.8778 13.88 24.8032 14.168C24.7285 14.3387 24.6485 14.5573 24.5632 14.824C24.4885 15.08 24.4192 15.336 24.3552 15.592C24.2912 15.8373 24.2432 16.04 24.2112 16.2C24.1258 16.4347 24.0565 16.664 24.0032 16.888C23.9498 17.112 23.8965 17.2453 23.8432 17.288ZM28.1503 17.752C28.0756 17.7413 27.9743 17.6933 27.8463 17.608C27.7183 17.5227 27.5903 17.4267 27.4623 17.32C27.3343 17.224 27.2383 17.1493 27.1743 17.096C27.0996 16.9147 27.0463 16.776 27.0143 16.68C26.9823 16.584 26.9823 16.424 27.0143 16.2C27.0143 16.072 27.0249 15.9227 27.0463 15.752C27.0783 15.5813 27.1316 15.4427 27.2063 15.336C27.2809 15.1227 27.3983 14.872 27.5583 14.584C27.7289 14.296 27.9103 14.008 28.1023 13.72C28.3049 13.432 28.4916 13.1707 28.6623 12.936C28.8436 12.6907 28.9769 12.5147 29.0623 12.408C29.1796 12.2587 29.2329 12.136 29.2223 12.04C29.2223 11.9333 29.1156 11.736 28.9023 11.448C28.8596 11.3307 28.8116 11.2453 28.7583 11.192C28.7049 11.128 28.6996 11.096 28.7423 11.096C28.7423 11.096 28.7263 11.08 28.6943 11.048C28.6729 11.0053 28.6463 10.9467 28.6143 10.872C28.4543 10.7227 28.3743 10.4933 28.3743 10.184C28.3849 9.87467 28.4649 9.57067 28.6143 9.272C28.7849 8.888 29.0143 8.55733 29.3023 8.28C29.5903 8.00267 29.8943 7.84267 30.2143 7.8C30.3316 7.81067 30.5343 7.84267 30.8223 7.896C31.1209 7.94933 31.4249 8.008 31.7343 8.072C32.0543 8.136 32.3049 8.21067 32.4863 8.296C32.6143 8.34933 32.7796 8.44533 32.9823 8.584C33.1956 8.72267 33.3876 8.86133 33.5583 9C33.7289 9.13867 33.8196 9.24 33.8303 9.304C33.8303 9.336 33.8463 9.37333 33.8783 9.416C33.9209 9.448 33.9476 9.49067 33.9583 9.544C34.0223 9.66133 34.0543 9.82133 34.0543 10.024C34.0649 10.2267 34.0543 10.424 34.0223 10.616C33.9903 10.808 33.9423 10.952 33.8783 11.048C33.6116 11.3467 33.4249 11.5173 33.3183 11.56C33.2649 11.6027 33.2009 11.656 33.1263 11.72C33.0623 11.784 32.9876 11.8267 32.9023 11.848C32.8489 11.9227 32.7956 11.9867 32.7423 12.04C32.6996 12.0933 32.6569 12.12 32.6143 12.12C32.5716 12.088 32.5289 12.072 32.4863 12.072C32.4436 12.0613 32.4223 12.0773 32.4223 12.12C32.4223 12.1413 32.3476 12.1893 32.1983 12.264C32.0596 12.3387 31.9156 12.4027 31.7663 12.456C31.6169 12.5093 31.5209 12.5253 31.4783 12.504C31.4783 12.504 31.4623 12.504 31.4303 12.504C31.3983 12.504 31.3503 12.5253 31.2863 12.568C31.1476 12.5467 31.2276 12.7173 31.5263 13.08C31.7716 13.5387 31.9529 13.9813 32.0703 14.408C32.1983 14.824 32.1823 15.144 32.0223 15.368C31.8196 15.8267 31.6009 16.2053 31.3663 16.504C31.1316 16.792 30.9449 16.9307 30.8063 16.92C30.8063 16.92 30.7796 16.936 30.7263 16.968C30.6836 17 30.6356 17.032 30.5823 17.064C30.5609 17.1387 30.5129 17.1867 30.4383 17.208C30.3743 17.24 30.3156 17.2507 30.2623 17.24C30.1663 17.1973 30.0009 17.2507 29.7663 17.4C29.6276 17.496 29.4463 17.576 29.2223 17.64C28.9983 17.704 28.7796 17.7467 28.5663 17.768C28.3636 17.7893 28.2249 17.784 28.1503 17.752ZM28.5183 16.536C28.6249 16.5467 28.7636 16.52 28.9343 16.456C29.1156 16.392 29.3023 16.3067 29.4943 16.2C29.6969 16.0933 29.8783 15.9867 30.0383 15.88C30.3796 15.6133 30.6089 15.3467 30.7263 15.08C30.8543 14.8133 30.8649 14.5467 30.7583 14.28C30.6943 14.152 30.6249 14.0133 30.5503 13.864C30.4756 13.7147 30.4116 13.5973 30.3583 13.512C30.2943 13.416 30.2356 13.3467 30.1823 13.304C30.1396 13.2613 30.0916 13.224 30.0383 13.192C30.0383 13.192 30.0116 13.2293 29.9583 13.304C29.9156 13.368 29.8676 13.4587 29.8143 13.576C29.6969 13.7253 29.6276 13.816 29.6063 13.848C29.5849 13.88 29.5529 13.9333 29.5103 14.008C29.4356 14.0827 29.3663 14.152 29.3023 14.216C29.2383 14.28 29.1903 14.328 29.1583 14.36C29.1583 14.392 29.1263 14.488 29.0623 14.648C28.9983 14.7973 28.9236 14.9467 28.8383 15.096C28.6036 15.5013 28.4543 15.8373 28.3903 16.104C28.3369 16.3707 28.3796 16.5147 28.5183 16.536ZM30.9983 11.32C31.2223 11.1173 31.3983 11 31.5263 10.968C31.6543 10.936 31.7503 10.9787 31.8143 11.096C31.8356 11.1387 31.9369 11.112 32.1183 11.016C32.3103 10.9093 32.4916 10.7653 32.6623 10.584C32.7263 10.4667 32.7423 10.408 32.7103 10.408C32.6889 10.408 32.6676 10.3227 32.6463 10.152C32.6569 10.0453 32.6569 9.96 32.6463 9.896C32.6356 9.832 32.5876 9.768 32.5023 9.704C32.4169 9.64 32.2623 9.56533 32.0383 9.48C31.3769 9.24533 30.8703 9.17067 30.5183 9.256C30.1663 9.33067 29.9209 9.55467 29.7823 9.928C29.7183 10.1307 29.6863 10.296 29.6863 10.424C29.6863 10.552 29.7289 10.7067 29.8143 10.888C29.9103 10.9307 29.9743 10.9893 30.0063 11.064C30.0383 11.128 30.0543 11.16 30.0543 11.16C30.0543 11.256 30.0969 11.304 30.1823 11.304C30.2036 11.3573 30.2783 11.416 30.4063 11.48C30.5343 11.544 30.7316 11.4907 30.9983 11.32ZM19.329 28.952C19.1476 28.888 18.9823 28.792 18.833 28.664C18.6836 28.536 18.545 28.4027 18.417 28.264C18.3743 28.2107 18.3103 28.0987 18.225 27.928C18.1503 27.7467 18.0596 27.544 17.953 27.32C17.857 27.0853 17.7556 26.8507 17.649 26.616C17.553 26.3813 17.4623 26.1733 17.377 25.992C17.3236 26.1307 17.2756 26.2693 17.233 26.408C17.201 26.536 17.185 26.664 17.185 26.792C17.089 26.9627 17.0036 27.176 16.929 27.432C16.865 27.6773 16.817 27.8427 16.785 27.928C16.753 28.0667 16.689 28.2 16.593 28.328C16.5076 28.4453 16.4063 28.5467 16.289 28.632C16.065 28.6427 15.8996 28.6267 15.793 28.584C15.697 28.5307 15.5743 28.4133 15.425 28.232C15.3396 28.0507 15.297 27.8853 15.297 27.736C15.3076 27.576 15.3343 27.432 15.377 27.304C15.3983 27.208 15.457 27.0213 15.553 26.744C15.6596 26.456 15.777 26.1467 15.905 25.816C16.033 25.4747 16.1396 25.176 16.225 24.92C16.321 24.6533 16.3743 24.4987 16.385 24.456C16.4596 24.2107 16.577 23.9707 16.737 23.736C16.897 23.4907 17.0036 23.2347 17.057 22.968C17.0996 22.776 17.1903 22.6373 17.329 22.552C17.4676 22.456 17.617 22.4187 17.777 22.44C17.937 22.4507 18.065 22.5307 18.161 22.68C18.2036 22.6907 18.241 22.7067 18.273 22.728C18.3156 22.7387 18.353 22.7707 18.385 22.824C18.4916 22.9413 18.5556 23.0853 18.577 23.256C18.609 23.4267 18.577 23.592 18.481 23.752C18.3636 23.9653 18.2623 24.1413 18.177 24.28C18.1023 24.4187 18.0276 24.552 17.953 24.68C17.889 24.808 17.8196 24.9627 17.745 25.144C17.8516 25.1227 17.9476 25.1067 18.033 25.096C18.1183 25.0747 18.193 25.048 18.257 25.016C18.3316 24.9733 18.4063 24.9093 18.481 24.824C18.545 24.76 18.657 24.6533 18.817 24.504C18.977 24.344 19.1476 24.1787 19.329 24.008C19.521 23.8267 19.681 23.672 19.809 23.544C19.9476 23.4053 20.0223 23.3307 20.033 23.32C20.1076 23.224 20.1876 23.1227 20.273 23.016C20.369 22.8987 20.4916 22.8187 20.641 22.776C20.833 22.7867 20.9876 22.8133 21.105 22.856C21.233 22.8987 21.3183 22.9733 21.361 23.08C21.489 23.208 21.521 23.3893 21.457 23.624C21.4036 23.8587 21.3076 24.0347 21.169 24.152C20.9876 24.2907 20.7583 24.472 20.481 24.696C20.2143 24.9093 19.9316 25.1387 19.633 25.384C19.3343 25.6187 19.0356 25.8427 18.737 26.056C18.8543 26.2587 18.961 26.456 19.057 26.648C19.153 26.8293 19.2383 26.984 19.313 27.112C19.4303 27.2827 19.5156 27.416 19.569 27.512C19.6223 27.5973 19.7823 27.64 20.049 27.64C20.241 27.7253 20.3636 27.8107 20.417 27.896C20.4703 27.9813 20.497 28.0667 20.497 28.152C20.497 28.2267 20.5023 28.3067 20.513 28.392C20.4916 28.4987 20.433 28.616 20.337 28.744C20.2516 28.8613 20.1236 28.9467 19.953 29C19.7823 29.064 19.5743 29.048 19.329 28.952ZM22.1207 28.664C22.0781 28.5787 21.9821 28.4933 21.8327 28.408C21.6941 28.3227 21.6247 28.2587 21.6247 28.216C21.6247 28.1733 21.5981 28.1093 21.5447 28.024C21.5021 27.928 21.4594 27.8587 21.4167 27.816C21.3634 27.752 21.3794 27.5973 21.4647 27.352C21.5501 27.096 21.6781 26.7867 21.8487 26.424C22.0194 26.0613 22.2061 25.6933 22.4087 25.32C22.4941 25.2347 22.5794 25.1227 22.6647 24.984C22.7501 24.8453 22.8141 24.7547 22.8567 24.712C22.8567 24.6693 22.8727 24.632 22.9047 24.6C22.9367 24.5573 22.9741 24.536 23.0167 24.536L23.1447 24.28C23.1661 24.2373 23.2301 24.152 23.3367 24.024C23.4541 23.896 23.5927 23.7573 23.7527 23.608C23.9127 23.448 24.0727 23.2987 24.2327 23.16C24.4034 23.0213 24.5421 22.92 24.6487 22.856C24.8727 22.7067 25.1021 22.6373 25.3367 22.648C25.5821 22.6587 25.7901 22.7333 25.9607 22.872C25.9927 22.904 26.0621 22.968 26.1687 23.064C26.2861 23.16 26.4141 23.2667 26.5527 23.384C26.7021 23.5013 26.8301 23.608 26.9367 23.704L27.5287 24.232L27.2567 25.032C27.1181 25.4587 27.0807 25.832 27.1447 26.152C27.2194 26.472 27.3207 26.7493 27.4487 26.984C27.5021 27.1013 27.5714 27.192 27.6567 27.256C27.7527 27.32 27.8754 27.3627 28.0247 27.384C28.1101 27.3947 28.1901 27.4267 28.2647 27.48C28.3394 27.5333 28.3767 27.6187 28.3767 27.736C28.3767 27.992 28.3287 28.1787 28.2327 28.296C28.1474 28.4027 28.0514 28.4667 27.9447 28.488C27.5927 28.5307 27.2567 28.4933 26.9367 28.376C26.6167 28.2587 26.3287 27.9547 26.0727 27.464C26.0301 27.4 25.9714 27.2827 25.8967 27.112C25.8327 26.9307 25.7954 26.8133 25.7847 26.76C25.7421 26.8133 25.6834 26.8827 25.6087 26.968C25.5447 27.0427 25.4807 27.112 25.4167 27.176C24.6594 27.944 24.0087 28.4453 23.4647 28.68C22.9314 28.904 22.4834 28.8987 22.1207 28.664ZM23.0007 27.336C23.0754 27.3467 23.1927 27.3093 23.3527 27.224C23.5127 27.128 23.7261 26.9733 23.9927 26.76C24.3554 26.4507 24.6541 26.1947 24.8887 25.992C25.1234 25.7893 25.3527 25.528 25.5767 25.208L25.9287 24.632C25.8221 24.3867 25.7261 24.2267 25.6407 24.152C25.5554 24.0773 25.4701 24.04 25.3847 24.04C25.2461 24.04 25.0807 24.1307 24.8887 24.312C24.6967 24.4827 24.4781 24.7387 24.2327 25.08C23.9981 25.4107 23.7314 25.8267 23.4327 26.328C23.2941 26.5627 23.1874 26.792 23.1127 27.016C23.0381 27.2293 23.0007 27.336 23.0007 27.336ZM29.566 28.984C29.4593 28.9413 29.358 28.9093 29.262 28.888C29.166 28.8667 29.0646 28.84 28.958 28.808C28.862 28.712 28.7766 28.6107 28.702 28.504C28.638 28.3867 28.5953 28.264 28.574 28.136C28.5313 27.9973 28.5313 27.8907 28.574 27.816C28.6273 27.7307 28.6646 27.624 28.686 27.496C28.7606 27.496 28.83 27.496 28.894 27.496C28.9686 27.496 29.0433 27.496 29.118 27.496C29.2673 27.3787 29.4166 27.2293 29.566 27.048C29.726 26.8667 29.8753 26.6747 30.014 26.472C30.1313 26.2907 30.238 26.1093 30.334 25.928C30.4406 25.7467 30.5153 25.576 30.558 25.416C30.59 25.3093 30.6113 25.208 30.622 25.112C30.6433 25.016 30.6753 24.92 30.718 24.824C30.75 24.7493 30.7766 24.6747 30.798 24.6C30.83 24.5253 30.862 24.4507 30.894 24.376C30.766 24.3547 30.6593 24.3227 30.574 24.28C30.4993 24.2373 30.4246 24.184 30.35 24.12C30.286 24.0453 30.206 23.9653 30.11 23.88C30.0993 23.6987 30.11 23.5387 30.142 23.4C30.1846 23.2613 30.2806 23.1547 30.43 23.08C30.4726 23.0587 30.5153 23.0427 30.558 23.032C30.6113 23.0107 30.6646 22.9947 30.718 22.984C30.878 22.9093 31.0806 22.8773 31.326 22.888C31.5713 22.888 31.806 22.9093 32.03 22.952C32.094 22.9627 32.158 22.9733 32.222 22.984C32.286 22.9947 32.3446 23.0107 32.398 23.032C32.494 23.0533 32.5846 23.0907 32.67 23.144C32.766 23.1973 32.862 23.24 32.958 23.272C33.0433 23.2933 33.1286 23.3253 33.214 23.368C33.2993 23.4107 33.3793 23.4587 33.454 23.512C33.6673 23.6507 33.838 23.832 33.966 24.056C34.1046 24.28 34.174 24.5147 34.174 24.76C34.174 25.112 34.126 25.4427 34.03 25.752C33.9766 25.9547 33.9126 26.1573 33.838 26.36C33.774 26.5627 33.7153 26.7653 33.662 26.968C33.63 27.0747 33.598 27.1813 33.566 27.288C33.534 27.384 33.5073 27.4853 33.486 27.592C33.4433 27.7627 33.4113 27.9387 33.39 28.12C33.3686 28.2907 33.3526 28.472 33.342 28.664C33.2673 28.6853 33.1873 28.712 33.102 28.744C33.0273 28.7653 32.9473 28.7867 32.862 28.808C32.7233 28.7653 32.5686 28.7067 32.398 28.632C32.238 28.5573 32.1206 28.4507 32.046 28.312C32.0353 28.28 32.0246 28.248 32.014 28.216C32.0033 28.184 31.9926 28.152 31.982 28.12C31.9713 28.088 31.966 28.056 31.966 28.024C31.966 27.992 31.966 27.96 31.966 27.928C31.9553 27.704 31.982 27.4693 32.046 27.224C32.1206 26.968 32.1953 26.7227 32.27 26.488C32.3233 26.3173 32.3766 26.1573 32.43 26.008C32.494 25.848 32.542 25.6987 32.574 25.56C32.5953 25.464 32.6273 25.352 32.67 25.224C32.7126 25.0853 32.7393 24.952 32.75 24.824C32.7606 24.7173 32.75 24.616 32.718 24.52C32.654 24.4667 32.5846 24.4293 32.51 24.408C32.4353 24.3867 32.3553 24.3653 32.27 24.344C32.27 24.344 32.2433 24.408 32.19 24.536C32.1793 24.5467 32.1686 24.5627 32.158 24.584C32.158 24.6053 32.158 24.6267 32.158 24.648C32.126 24.712 32.094 24.7867 32.062 24.872C32.03 24.9467 32.0033 25.0213 31.982 25.096C31.9713 25.128 31.9606 25.16 31.95 25.192C31.9393 25.224 31.9286 25.2507 31.918 25.272C31.886 25.3467 31.8593 25.416 31.838 25.48C31.8273 25.5333 31.822 25.5653 31.822 25.576C31.8113 25.7253 31.7793 25.8693 31.726 26.008C31.6833 26.136 31.6353 26.2587 31.582 26.376C31.5286 26.4827 31.47 26.5947 31.406 26.712C31.342 26.8187 31.2833 26.9307 31.23 27.048C31.2193 27.0907 31.2033 27.128 31.182 27.16C31.1606 27.192 31.1393 27.2293 31.118 27.272C31.0433 27.4 30.9633 27.528 30.878 27.656C30.7926 27.784 30.702 27.9067 30.606 28.024C30.4673 28.216 30.3126 28.392 30.142 28.552C29.9713 28.712 29.7793 28.856 29.566 28.984Z" fill="#F19C31"/>
<path d="M1.16797 0L1.16797 36.0133" stroke="#F19C31"/>
<path d="M46.168 0L46.168 36.0133" stroke="#F19C31"/>
</svg>
