<svg width="17" height="32" viewBox="0 0 17 32" fill="none" xmlns="http://www.w3.org/2000/svg">
<path d="M15.2223 29.9606H3.80346C3.33202 29.96 2.8801 29.7856 2.54679 29.4759C2.21348 29.1661 2.02597 28.7461 2.02539 28.3081V13.5755C2.02543 12.3596 2.37489 11.1656 3.03766 10.1171L5.75317 5.8306V3.62109H13.2721V5.82938L15.9872 10.1159C16.6502 11.1643 16.9997 12.3583 16.9995 13.5743V28.3081C16.999 28.746 16.8116 29.1659 16.4785 29.4757C16.1453 29.7855 15.6936 29.9599 15.2223 29.9606ZM6.63473 4.43898V6.0543L3.7973 10.5322C3.214 11.4549 2.90633 12.5055 2.90606 13.5755V28.3081C2.90618 28.5293 3.0008 28.7415 3.16913 28.898C3.33747 29.0545 3.56577 29.1425 3.8039 29.1427H15.2223C15.4604 29.1425 15.6888 29.0545 15.8572 28.898C16.0256 28.7415 16.1203 28.5294 16.1205 28.3081V13.5755C16.1205 12.5054 15.8128 11.4548 15.2293 10.5322L12.3919 6.0543V4.43898H6.63473Z" fill="#F19C31"/>
<path d="M13.0106 4.44039H6.02063C5.77492 4.44007 5.53936 4.34923 5.36561 4.18778C5.19187 4.02634 5.0941 3.80747 5.09375 3.57916V2.19815C5.0941 1.96984 5.19187 1.75097 5.36561 1.58952C5.53936 1.42808 5.77492 1.33724 6.02063 1.33691H13.0106C13.2563 1.33724 13.4919 1.42807 13.6657 1.5895C13.8396 1.75093 13.9374 1.9698 13.9379 2.19815V3.57916C13.9374 3.80751 13.8396 4.02638 13.6657 4.18781C13.4919 4.34924 13.2563 4.44007 13.0106 4.44039ZM6.02063 2.1548C6.0083 2.15491 5.9965 2.15951 5.98777 2.16762C5.97905 2.17572 5.9741 2.18669 5.97398 2.19815V3.57916C5.9741 3.59062 5.97905 3.60158 5.98777 3.60969C5.9965 3.6178 6.0083 3.6224 6.02063 3.6225H13.0106C13.023 3.6225 13.0349 3.61795 13.0437 3.60983C13.0525 3.60171 13.0575 3.59069 13.0577 3.57916V2.19815C13.0575 2.18662 13.0525 2.17559 13.0437 2.16747C13.0349 2.15936 13.023 2.1548 13.0106 2.1548H6.02063Z" fill="#F19C31"/>
<path d="M5.02832 18.6811C4.54248 18.6746 4.0681 18.5431 3.6578 18.3012C3.30517 18.0759 2.87418 17.9822 2.45056 18.0387L2.33789 17.2274C2.94653 17.1486 3.56539 17.2753 4.08207 17.5844C4.43719 17.8043 4.86594 17.8976 5.28923 17.8468C5.71252 17.7961 6.10178 17.6048 6.3852 17.3083C6.80445 16.8924 7.36642 16.6251 7.97468 16.5522C8.58293 16.4793 9.19952 16.6054 9.71864 16.9088C10.074 17.1287 10.5029 17.222 10.9263 17.1713C11.3498 17.1207 11.7393 16.9296 12.0231 16.6332C12.4424 16.2168 13.0047 15.9491 13.6133 15.8761C14.222 15.8032 14.839 15.9294 15.3583 16.2332C15.7113 16.4581 16.1422 16.5517 16.566 16.4958L16.6786 17.3067C16.0699 17.386 15.4507 17.2595 14.934 16.9501C14.5785 16.7301 14.1494 16.6368 13.7258 16.6875C13.3022 16.7383 12.9125 16.9296 12.6287 17.2261C12.2094 17.6422 11.6472 17.9097 11.0388 17.9826C10.4303 18.0555 9.81356 17.9293 9.29436 17.6257C8.93925 17.4057 8.5105 17.3125 8.08721 17.3632C7.66392 17.4139 7.27465 17.6052 6.99124 17.9017C6.5759 18.3226 6.01182 18.591 5.40154 18.6582C5.27779 18.6733 5.15313 18.681 5.02832 18.6811Z" fill="#F19C31"/>
<path d="M15.6348 1.01025L1.0009 31.057" stroke="#F19C31" stroke-linecap="round" stroke-linejoin="round"/>
</svg>
