<svg width="22" height="27" viewBox="0 0 22 27" fill="none" xmlns="http://www.w3.org/2000/svg">
<path d="M21.9596 16.4993C21.9147 16.402 21.8321 16.3283 21.7316 16.2959C21.5606 16.2408 17.5118 14.9612 14.8031 16.2585C13.1495 17.0505 12.4743 19.2905 12.6722 20.4927C12.237 20.804 11.8649 21.0935 11.5646 21.339C11.7019 20.6558 11.8328 19.9091 11.9468 19.1054C12.1563 17.6295 12.2808 16.1476 12.3211 14.6746C12.3553 14.5088 12.6115 13.4073 13.5493 12.3785C13.7933 12.5877 14.1181 12.7763 14.4794 12.9091C14.8363 13.0404 15.1925 13.1058 15.5326 13.1058C15.8917 13.1058 16.2328 13.0328 16.5376 12.8868C18.3971 11.9961 19.4998 9.27445 19.5458 9.15902C19.5855 9.05949 19.5825 8.9476 19.5378 8.85033C19.4929 8.75306 19.4103 8.67935 19.3098 8.64697C19.1933 8.60945 16.4339 7.73748 14.5746 8.62803C13.3128 9.23242 12.8955 10.9269 13.1048 11.734C12.7843 12.0653 12.5286 12.4061 12.3252 12.7315C12.3176 12.4109 12.3061 12.091 12.2903 11.7721C12.2066 10.0837 12.0068 8.41835 11.694 6.79007C12.4064 6.31559 13.2344 5.01847 12.909 3.75349C12.3878 1.72782 9.96256 0.127767 9.85959 0.0606301C9.77072 0.00278322 9.66206 -0.0146684 9.56039 0.0125869C9.45843 0.0398422 9.37227 0.109289 9.32277 0.204144C9.26532 0.31414 7.92269 2.92151 8.4439 4.94718C8.76899 6.21057 10.112 6.92634 10.9614 6.98496C11.2476 8.48595 11.435 10.0195 11.5224 11.5738C11.2299 11.1536 10.9188 10.78 10.6054 10.4501C10.8494 9.62985 10.6068 8.02117 9.4833 7.29837C7.7459 6.18065 4.90219 6.69886 4.782 6.72144C4.67832 6.74094 4.58738 6.80372 4.53114 6.89457C4.47489 6.98547 4.45848 7.09614 4.48582 7.19987C4.51754 7.32023 5.28231 10.1599 7.01966 11.2775C7.42777 11.5401 7.88931 11.6454 8.34169 11.6454C9.04381 11.6454 9.72303 11.3914 10.1441 11.0779C10.6645 11.6391 11.1727 12.3299 11.5778 13.1646C11.5974 14.7334 11.5169 16.3191 11.338 17.9025C11.1541 17.6301 10.9318 17.3724 10.672 17.1296C10.8575 15.8889 9.76916 13.3391 7.75703 12.7318C6.4492 12.3371 4.80682 12.4192 2.87536 12.9757C1.4557 13.3847 0.422091 13.9 0.378787 13.9218C0.284224 13.9693 0.213427 14.0549 0.183517 14.1579C0.153556 14.2609 0.167303 14.372 0.221231 14.4643C0.245955 14.5065 0.837709 15.5124 1.81014 16.6434C3.13302 18.1822 4.46699 19.1624 5.77472 19.5571C6.10433 19.6566 6.42886 19.6974 6.73989 19.6974C7.64439 19.6973 8.43278 19.352 8.88596 19.1011C9.49302 18.765 10.0167 18.3158 10.3374 17.8764C10.7256 18.2843 11.0162 18.7612 11.152 19.3178C10.9882 20.4041 10.7878 21.409 10.5814 22.2943C10.58 22.2998 10.5787 22.3052 10.5776 22.3107C10.1944 23.9506 9.79106 25.1781 9.56271 25.7494C9.48385 25.9462 9.57645 26.1709 9.76956 26.2513C9.81629 26.2708 9.86463 26.28 9.91216 26.28C10.0611 26.28 10.2022 26.1897 10.2619 26.0405C10.2922 25.9649 10.7903 24.7068 11.2919 22.5868C11.5014 22.393 12.099 21.8589 12.9933 21.2115C13.5523 21.8941 14.8539 22.5727 16.1668 22.5727C16.6461 22.5727 17.1271 22.4822 17.5735 22.2683C20.2822 20.971 21.9002 16.9772 21.9677 16.8078C22.0074 16.7084 22.0044 16.5965 21.9596 16.4993ZM14.8957 9.32491C15.4039 9.08156 16.0117 8.99856 16.6047 8.99856C17.419 8.99856 18.2051 9.15506 18.6661 9.26788C18.3048 10.0175 17.4221 11.6126 16.2164 12.19C15.6621 12.4555 15.0508 12.3008 14.7356 12.1849C14.4754 12.0892 14.2629 11.9652 14.1094 11.849C14.2464 11.7373 14.3925 11.6286 14.5503 11.5251C14.7257 11.4101 14.7764 11.1719 14.6636 10.9931C14.5507 10.8143 14.317 10.7627 14.1416 10.8777C14.0273 10.9526 13.9183 11.0298 13.8137 11.1085C13.8743 10.5308 14.203 9.65669 14.8957 9.32491ZM7.44711 9.07273C7.46377 9.07977 8.48212 9.51872 9.59413 10.5327C9.11486 10.8209 8.12159 11.0762 7.42268 10.6266C6.29618 9.90189 5.61323 8.2079 5.3455 7.41863C6.15977 7.32532 7.95361 7.22482 9.08012 7.94952C9.71065 8.35517 9.93643 9.22851 9.93855 9.81042C8.80932 8.82333 7.80648 8.39099 7.73548 8.36112C7.54273 8.27997 7.32188 8.37349 7.24227 8.56997C7.16261 8.76646 7.25435 8.99158 7.44711 9.07273ZM11.5204 5.94772C11.3035 4.95262 11.0449 3.97225 10.7428 3.01062C10.6792 2.80813 10.4666 2.69649 10.2681 2.76137C10.0694 2.82619 9.95995 3.0429 10.0235 3.24539C10.326 4.20846 10.5841 5.19094 10.7992 6.1886C10.2538 6.05612 9.38093 5.55434 9.17448 4.75187C8.83651 3.43844 9.47177 1.72531 9.80466 0.96221C10.4622 1.46056 11.8404 2.63536 12.1784 3.94879C12.3739 4.70891 11.9186 5.53283 11.5204 5.94772ZM5.72597 15.7586C6.87862 15.9923 8.56299 16.4662 9.76588 17.3715C9.54594 17.693 9.10852 18.1019 8.52543 18.4247C8.01912 18.705 7.01643 19.1292 5.98907 18.819C3.69618 18.1271 1.74875 15.423 1.09985 14.4345C2.17157 13.9649 5.24631 12.7772 7.54258 13.4703C8.56979 13.7803 9.1845 14.6925 9.45948 15.2086C9.71548 15.689 9.8613 16.1635 9.91473 16.5348C9.75899 16.431 9.59468 16.3308 9.42177 16.2342C8.46812 15.7017 7.27424 15.2876 5.87326 15.0034C5.66867 14.9619 5.46983 15.0974 5.42924 15.3059C5.38851 15.5145 5.52139 15.7171 5.72597 15.7586ZM17.2523 21.5717C16.909 21.7361 16.5379 21.8043 16.1663 21.8043C15.1005 21.8043 14.0327 21.2425 13.6169 20.7763C14.9323 19.891 16.7083 18.8998 18.7469 18.2927C18.9471 18.2331 19.0619 18.0193 19.0035 17.8153C18.945 17.6112 18.7353 17.4941 18.535 17.5537C16.4958 18.161 14.7284 19.119 13.3893 20.0006C13.4108 19.0721 13.9437 17.5209 15.1244 16.9554C15.9086 16.5797 16.8436 16.452 17.7529 16.452C19.1306 16.452 20.4494 16.7454 21.0939 16.9142C20.6233 17.9323 19.2279 20.6254 17.2523 21.5717Z" fill="#F19C31"/>
</svg>
