<svg width="15" height="15" viewBox="0 0 15 15" fill="none" xmlns="http://www.w3.org/2000/svg">
<path d="M4.62725 1.84219H4.48365C4.56263 1.84219 4.62725 1.77757 4.62725 1.69859V1.84219H10.084V1.69859C10.084 1.77757 10.1486 1.84219 10.2276 1.84219H10.084V3.13458H11.3764V1.69859C11.3764 1.06496 10.8612 0.549805 10.2276 0.549805H4.48365C3.85002 0.549805 3.33486 1.06496 3.33486 1.69859V3.13458H4.62725V1.84219ZM13.674 3.13458H1.03729C0.719573 3.13458 0.462891 3.39126 0.462891 3.70897V4.28337C0.462891 4.36235 0.52751 4.42697 0.606489 4.42697H1.69066L2.13402 13.8147C2.16274 14.4268 2.66892 14.9097 3.28101 14.9097H11.4302C12.0441 14.9097 12.5485 14.4286 12.5772 13.8147L13.0206 4.42697H14.1048C14.1837 4.42697 14.2484 4.36235 14.2484 4.28337V3.70897C14.2484 3.39126 13.9917 3.13458 13.674 3.13458ZM11.292 13.6173H3.41923L2.98484 4.42697H11.7264L11.292 13.6173Z" fill="#F19C31"/>
</svg>
