<svg width="70" height="10" viewBox="0 0 70 10" fill="none" xmlns="http://www.w3.org/2000/svg">
<ellipse cx="4.99937" cy="5" rx="4.99937" ry="5" fill="#F19C31"/>
<ellipse cx="19.9994" cy="5" rx="4.99937" ry="5" fill="#F19C31"/>
<ellipse cx="34.9935" cy="5" rx="4.99936" ry="5" fill="#F19C31"/>
<path d="M54.4929 5C54.4929 7.48534 52.4784 9.5 49.9935 9.5C47.5086 9.5 45.4941 7.48534 45.4941 5C45.4941 2.51466 47.5086 0.5 49.9935 0.5C52.4784 0.5 54.4929 2.51466 54.4929 5Z" stroke="#F19C31"/>
<path d="M69.4929 5C69.4929 7.48534 67.4784 9.5 64.9935 9.5C62.5086 9.5 60.4941 7.48534 60.4941 5C60.4941 2.51466 62.5086 0.5 64.9935 0.5C67.4784 0.5 69.4929 2.51466 69.4929 5Z" stroke="#F19C31"/>
</svg>
