<svg width="16" height="16" viewBox="0 0 16 16" fill="none" xmlns="http://www.w3.org/2000/svg">
<path d="M14.0641 15.5C6.06566 15.5113 -0.00464152 9.36825 0.00391529 1.43983C0.00391529 0.922063 0.423648 0.499977 0.941415 0.499977H3.41581C3.88041 0.499977 4.27509 0.841348 4.34331 1.30091C4.50682 2.40235 4.8275 3.47463 5.29561 4.48501L5.39195 4.69295C5.5259 4.98208 5.43511 5.32561 5.17579 5.5108C4.4095 6.05803 4.11665 7.15956 4.71362 8.01906C5.46276 9.09764 6.40708 10.0418 7.48541 10.7906C8.34486 11.3874 9.44622 11.0945 9.99344 10.3284C10.1788 10.0689 10.5225 9.9781 10.8118 10.1121L11.0188 10.208C12.0292 10.6761 13.1016 10.9968 14.2031 11.1602C14.6627 11.2285 15.0039 11.6231 15.0039 12.0877V14.5625C15.0039 15.0802 14.5831 15.5 14.0654 15.5L14.0641 15.5Z" fill="#FAFF00"/>
</svg>
