<svg width="231" height="56" viewBox="0 0 231 56" fill="none" xmlns="http://www.w3.org/2000/svg">
<path fill-rule="evenodd" clip-rule="evenodd" d="M89.2975 7.39348C89.2975 3.30992 85.9772 0 81.8809 0V43.6337H89.2975V7.39348ZM62.0052 44.1173C69.5439 44.1173 75.2579 39.9364 76.4125 33.4516H69.1175C68.327 36.3608 65.8344 37.9357 62.0052 37.9357C57.2632 37.9357 54.1016 34.7847 53.5549 29.876H76.1694C76.2305 29.27 76.2916 28.3608 76.2916 27.3309C76.2916 20.0587 71.6712 12.6043 61.3973 12.6043C51.3659 12.6043 46.3808 20.1792 46.3808 28.2396C46.3808 36.239 51.9738 44.1173 62.0052 44.1173ZM68.8144 24.9668H53.7368C54.5274 20.3608 57.2026 18.1786 61.3972 18.1786C65.8343 18.1786 68.5101 21.0879 68.8144 24.9668ZM37.6297 13.0866L31.9762 33.5101L25.9581 13.0866H19.0882L13.0701 33.5101L7.47769 13.0866H0L9.78695 43.6307H16.3532L22.5534 23.0867L28.6938 43.6307H35.3198L45.0463 13.0866L37.6297 13.0866ZM96.8326 0C100.929 0 104.249 3.30992 104.249 7.39348V43.6337H96.8326V0ZM109.719 28.3614C109.719 19.2706 116.406 12.6043 125.768 12.6043C135.07 12.6043 141.757 19.2706 141.757 28.3614C141.757 37.4522 135.07 44.1179 125.768 44.1179C116.406 44.1179 109.719 37.4522 109.719 28.3614ZM134.218 28.3623C134.218 22.8476 130.814 19.0297 125.768 19.0297C120.661 19.0297 117.257 22.8476 117.257 28.3623C117.257 33.8769 120.661 37.6948 125.768 37.6948C130.814 37.6948 134.218 33.8769 134.218 28.3623ZM160.904 19.3353C156.162 19.3353 154.277 23.3956 154.277 29.2136V43.6369H146.801V13.0935H154.277V18.4869C155.798 14.6087 158.168 13.0935 162.12 13.0935H164.843L167.03 19.3353H160.904ZM182.52 56L187.262 42.1826L197.96 13.0935L190.3 13.0935L183.249 34.0613L176.136 13.0935H168.537L179.723 43.6369L175.407 56H182.52Z" fill="#F3654A"/>
<path d="M230.517 43.6807H221.524L214.962 34.2629L208.339 43.6807H199.286L210.344 27.7008L200.076 13.0576H209.311L214.901 21.1387L220.491 13.0576H229.787L219.519 27.7615L230.517 43.6807Z" fill="#6D2936"/>
</svg>
