<svg width="45" height="42" viewBox="0 0 45 42" fill="none" xmlns="http://www.w3.org/2000/svg">
<path d="M18.5 9.69213C18.4995 7.64194 17.8179 5.65002 16.5622 4.02932C15.3066 2.40862 13.5481 1.251 11.5631 0.73833C9.57801 0.225661 7.47888 0.387001 5.59548 1.197C3.71209 2.007 2.15116 3.41975 1.15794 5.21329C0.164728 7.00683 -0.204489 9.07952 0.108302 11.1057C0.421094 13.1319 1.39817 14.9968 2.88601 16.4073C4.37385 17.8178 6.28815 18.6941 8.32813 18.8984C10.3681 19.1027 12.4182 18.6236 14.1562 17.5361C13.5603 21.1176 12.3698 24.5742 10.6338 27.7629C8.23251 32.1289 5.17261 35.2036 2.39021 37.9823C2.04283 38.3297 1.84768 38.8009 1.84768 39.2921C1.84768 39.7834 2.04283 40.2546 2.39021 40.6019C2.73759 40.9493 3.20874 41.1445 3.70001 41.1445C4.19128 41.1445 4.66243 40.9493 5.00981 40.6019L5.05051 40.5575C7.81441 37.7936 11.2073 34.4007 13.8787 29.5463C16.576 24.6327 18.5 18.3131 18.5 9.69213Z" fill="#695F4E"/>
<path d="M40.0562 17.5361C38.3182 18.6236 36.2681 19.1027 34.2282 18.8984C32.1882 18.6941 30.2739 17.8178 28.786 16.4073C27.2982 14.9968 26.3211 13.1319 26.0083 11.1057C25.6955 9.07952 26.0648 7.00683 27.058 5.21329C28.0512 3.41975 29.6121 2.007 31.4955 1.197C33.3789 0.387001 35.478 0.225661 37.4631 0.73833C39.4481 1.251 41.2066 2.40862 42.4623 4.02932C43.7179 5.65002 44.3995 7.64194 44.4 9.69213C44.4 18.3131 42.476 24.6327 39.775 29.5463C37.1073 34.4007 33.7144 37.7973 30.9542 40.5575L30.9098 40.6019C30.5625 40.9493 30.0913 41.1445 29.6 41.1445C29.1088 41.1445 28.6376 40.9493 28.2902 40.6019C27.9429 40.2546 27.7477 39.7834 27.7477 39.2921C27.7477 38.8009 27.9429 38.3297 28.2902 37.9823C31.0726 35.2036 34.1325 32.1326 36.5338 27.7629C38.2703 24.5731 39.4609 21.1152 40.0562 17.5324V17.5361Z" fill="#695F4E"/>
</svg>
