<svg width="31" height="30" viewBox="0 0 31 30" fill="none" xmlns="http://www.w3.org/2000/svg">
<path d="M15.1091 8.125C13.7494 8.125 12.4202 8.52821 11.2896 9.28365C10.159 10.0391 9.27781 11.1128 8.75746 12.3691C8.23711 13.6253 8.10096 15.0076 8.36623 16.3412C8.63151 17.6749 9.28629 18.8999 10.2478 19.8614C11.2093 20.8228 12.4343 21.4776 13.7679 21.7429C15.1015 22.0082 16.4838 21.872 17.7401 21.3517C18.9963 20.8313 20.07 19.9501 20.8255 18.8195C21.5809 17.689 21.9841 16.3597 21.9841 15C21.9821 13.1773 21.2571 11.4298 19.9682 10.1409C18.6793 8.85206 16.9319 8.12707 15.1091 8.125ZM15.1091 20.625C13.9966 20.625 12.9091 20.2951 11.984 19.677C11.059 19.0589 10.3381 18.1804 9.91231 17.1526C9.48656 16.1248 9.37517 14.9938 9.59221 13.9026C9.80925 12.8115 10.345 11.8092 11.1317 11.0225C11.9183 10.2359 12.9206 9.70012 14.0117 9.48308C15.1029 9.26604 16.2339 9.37743 17.2617 9.80318C18.2896 10.2289 19.1681 10.9499 19.7861 11.8749C20.4042 12.7999 20.7341 13.8875 20.7341 15C20.7325 16.4913 20.1393 17.9211 19.0848 18.9756C18.0302 20.0302 16.6005 20.6233 15.1091 20.625ZM21.9841 0H8.23413C6.08 0.00243996 4.01479 0.859248 2.49158 2.38245C0.968379 3.90566 0.111571 5.97086 0.109131 8.125V21.875C0.111571 24.0291 0.968379 26.0943 2.49158 27.6175C4.01479 29.1408 6.08 29.9976 8.23413 30H21.9841C24.1383 29.9976 26.2035 29.1408 27.7267 27.6175C29.2499 26.0943 30.1067 24.0291 30.1091 21.875V8.125C30.1067 5.97086 29.2499 3.90566 27.7267 2.38245C26.2035 0.859248 24.1383 0.00243996 21.9841 0ZM28.8591 21.875C28.8571 23.6977 28.1321 25.4452 26.8432 26.7341C25.5543 28.0229 23.8069 28.7479 21.9841 28.75H8.23413C6.4114 28.7479 4.66392 28.0229 3.37506 26.7341C2.08619 25.4452 1.3612 23.6977 1.35913 21.875V8.125C1.3612 6.30227 2.08619 4.55479 3.37506 3.26592C4.66392 1.97706 6.4114 1.25207 8.23413 1.25H21.9841C23.8069 1.25207 25.5543 1.97706 26.8432 3.26592C28.1321 4.55479 28.8571 6.30227 28.8591 8.125V21.875ZM24.4841 6.875C24.4841 7.12223 24.4108 7.3639 24.2735 7.56946C24.1361 7.77502 23.9409 7.93524 23.7125 8.02985C23.4841 8.12446 23.2327 8.14921 22.9903 8.10098C22.7478 8.05275 22.5251 7.9337 22.3502 7.75888C22.1754 7.58407 22.0564 7.36134 22.0081 7.11886C21.9599 6.87639 21.9847 6.62505 22.0793 6.39665C22.1739 6.16824 22.3341 5.97301 22.5397 5.83566C22.7452 5.69831 22.9869 5.625 23.2341 5.625C23.5655 5.62541 23.8832 5.75724 24.1176 5.99157C24.3519 6.2259 24.4837 6.54361 24.4841 6.875Z" fill="url(#paint0_linear_224:135)"/>
<defs>
<linearGradient id="paint0_linear_224:135" x1="15.1091" y1="0" x2="15.1091" y2="30" gradientUnits="userSpaceOnUse">
<stop stop-color="#53419A"/>
<stop offset="1" stop-color="#5229F5"/>
</linearGradient>
</defs>
</svg>
