<svg width="32" height="32" viewBox="0 0 32 32" fill="none" xmlns="http://www.w3.org/2000/svg">
<path d="M16.0817 10.4074C13.2145 10.4074 10.8747 12.7473 10.8747 15.6144C10.8747 18.4816 13.2145 20.8215 16.0817 20.8215C18.9489 20.8215 21.2888 18.4816 21.2888 15.6144C21.2888 12.7473 18.9489 10.4074 16.0817 10.4074ZM31.6989 15.6144C31.6989 13.4582 31.7184 11.3215 31.5974 9.16913C31.4763 6.66913 30.9059 4.45038 29.0778 2.62226C27.2458 0.790224 25.0309 0.223818 22.5309 0.102724C20.3747 -0.0183694 18.238 0.00116189 16.0856 0.00116189C13.9294 0.00116189 11.7927 -0.0183694 9.64032 0.102724C7.14032 0.223818 4.92157 0.79413 3.09345 2.62226C1.26142 4.45429 0.695009 6.66913 0.573916 9.16913C0.452822 11.3254 0.472353 13.4621 0.472353 15.6144C0.472353 17.7668 0.452822 19.9074 0.573916 22.0598C0.695009 24.5598 1.26532 26.7785 3.09345 28.6066C4.92548 30.4387 7.14032 31.0051 9.64032 31.1262C11.7966 31.2473 13.9333 31.2277 16.0856 31.2277C18.2419 31.2277 20.3786 31.2473 22.5309 31.1262C25.0309 31.0051 27.2497 30.4348 29.0778 28.6066C30.9099 26.7746 31.4763 24.5598 31.5974 22.0598C31.7224 19.9074 31.6989 17.7707 31.6989 15.6144ZM16.0817 23.6262C11.6481 23.6262 8.07001 20.048 8.07001 15.6144C8.07001 11.1808 11.6481 7.60272 16.0817 7.60272C20.5153 7.60272 24.0934 11.1808 24.0934 15.6144C24.0934 20.048 20.5153 23.6262 16.0817 23.6262ZM24.4216 9.14569C23.3864 9.14569 22.5505 8.30976 22.5505 7.2746C22.5505 6.23944 23.3864 5.40351 24.4216 5.40351C25.4567 5.40351 26.2927 6.23944 26.2927 7.2746C26.293 7.5204 26.2448 7.76385 26.1509 7.991C26.0569 8.21815 25.9191 8.42454 25.7453 8.59835C25.5715 8.77216 25.3651 8.90997 25.138 9.00389C24.9108 9.09782 24.6674 9.146 24.4216 9.14569Z" fill="url(#paint0_linear)"/>
<defs>
<linearGradient id="paint0_linear" x1="16.0859" y1="0" x2="16.0859" y2="31.2289" gradientUnits="userSpaceOnUse">
<stop stop-color="#53419A"/>
<stop offset="1" stop-color="#5229F5"/>
</linearGradient>
</defs>
</svg>
