<svg width="32" height="32" viewBox="0 0 32 32" fill="none" xmlns="http://www.w3.org/2000/svg">
<path d="M16.1091 0.375C13.3736 0.375718 10.6862 1.0944 8.31547 2.45921C5.94475 3.82402 3.97377 5.78716 2.59952 8.15242C1.22528 10.5177 0.495891 13.2022 0.484272 15.9377C0.472653 18.6732 1.17921 21.3638 2.53331 23.7406L1.12628 28.665C1.03445 28.9865 1.03027 29.3267 1.11416 29.6504C1.19805 29.974 1.36696 30.2694 1.6034 30.5058C1.83984 30.7422 2.1352 30.9111 2.45887 30.995C2.78254 31.0789 3.12275 31.0747 3.44425 30.9828L8.36878 29.5759C10.4478 30.7613 12.7714 31.4532 15.1602 31.5984C17.549 31.7436 19.9393 31.3381 22.1466 30.4133C24.3539 29.4885 26.3193 28.069 27.8912 26.2644C29.4631 24.4598 30.5995 22.3182 31.2127 20.0048C31.8258 17.6915 31.8995 15.2682 31.4279 12.9219C30.9563 10.5756 29.9521 8.369 28.4927 6.47224C27.0333 4.57548 25.1577 3.03928 23.0106 1.98214C20.8635 0.924987 18.5023 0.375139 16.1091 0.375ZM16.1091 30.375C13.5274 30.3768 10.993 29.6822 8.77284 28.3645C8.69964 28.3209 8.6183 28.2928 8.53381 28.2818C8.44933 28.2709 8.36349 28.2773 8.28159 28.3008L3.10081 29.7809C2.99365 29.8115 2.88026 29.8129 2.77239 29.7849C2.66451 29.757 2.56608 29.7006 2.48729 29.6218C2.4085 29.543 2.35221 29.4446 2.32426 29.3367C2.2963 29.2288 2.2977 29.1154 2.32831 29.0083L3.80831 23.8277C3.83172 23.7458 3.83813 23.6599 3.82717 23.5754C3.81621 23.491 3.7881 23.4096 3.74456 23.3364C2.12547 20.6086 1.45401 17.4219 1.83479 14.2727C2.21557 11.1235 3.62719 8.18868 5.84977 5.92538C8.07235 3.66208 10.9811 2.1974 14.1228 1.75951C17.2646 1.32162 20.463 1.93511 23.2197 3.50441C25.9765 5.07371 28.1368 7.5107 29.3642 10.4358C30.5916 13.3608 30.8171 16.6097 30.0056 19.6762C29.1941 22.7428 27.3912 25.4549 24.8777 27.39C22.3642 29.3251 19.2812 30.3746 16.1091 30.375ZM24.0016 18.8973L20.8047 17.0706C20.5155 16.9056 20.1876 16.8204 19.8546 16.824C19.5216 16.8275 19.1955 16.9196 18.9099 17.0908L16.7525 18.3852C15.4466 17.7235 14.3857 16.6625 13.7241 15.3566L15.0185 13.1992C15.1896 12.9136 15.2817 12.5875 15.2852 12.2545C15.2887 11.9215 15.2036 11.5936 15.0385 11.3044L13.2119 8.1075C13.0627 7.84724 12.8476 7.63092 12.5881 7.48036C12.3286 7.32981 12.0341 7.25035 11.7341 7.25C10.4114 7.25032 9.14261 7.77464 8.20554 8.7082C7.26846 9.64176 6.73938 10.9085 6.73409 12.2312C6.73165 13.9564 7.06933 15.6651 7.72781 17.2597C8.3863 18.8542 9.35268 20.3033 10.5717 21.524C11.7907 22.7448 13.2384 23.7133 14.832 24.374C16.4255 25.0348 18.1338 25.375 19.8589 25.375H19.8777C21.2004 25.3698 22.4672 24.8407 23.4008 23.9036C24.3344 22.9665 24.8588 21.6978 24.8591 20.375C24.8588 20.075 24.7793 19.7805 24.6288 19.521C24.4782 19.2616 24.2619 19.0465 24.0016 18.8973ZM19.876 24.125H19.8591C18.2982 24.125 16.7527 23.8173 15.3109 23.2195C13.869 22.6217 12.5592 21.7455 11.4563 20.641C10.3534 19.5365 9.47901 18.2255 8.88322 16.7828C8.28743 15.3401 7.9819 13.7941 7.98409 12.2333C7.98839 11.2416 8.38539 10.292 9.0882 9.5923C9.79101 8.89262 10.7424 8.49987 11.7341 8.5C11.8138 8.5001 11.892 8.52119 11.9609 8.56116C12.0298 8.60113 12.087 8.65856 12.1266 8.72766L13.9532 11.9247C14.0082 12.0211 14.0366 12.1304 14.0354 12.2414C14.0343 12.3523 14.0036 12.461 13.9466 12.5562L12.4794 15.0013C12.4275 15.0877 12.3973 15.1854 12.3914 15.2861C12.3855 15.3867 12.404 15.4873 12.4453 15.5792C13.2611 17.3948 14.7145 18.848 16.53 19.6637C16.622 19.7051 16.7226 19.7237 16.8232 19.7177C16.9238 19.7118 17.0216 19.6816 17.108 19.6297L19.5528 18.1625C19.6481 18.1055 19.7568 18.0748 19.8678 18.0736C19.9788 18.0724 20.0881 18.1008 20.1846 18.1558L23.3814 19.9827C23.4505 20.0222 23.508 20.0794 23.548 20.1483C23.5879 20.2171 23.609 20.2954 23.6091 20.375C23.6092 21.3667 23.2165 22.318 22.5169 23.0208C21.8172 23.7236 20.8676 24.1207 19.876 24.125Z" fill="url(#paint0_linear_224:139)"/>
<defs>
<linearGradient id="paint0_linear_224:139" x1="16.1092" y1="0.375" x2="16.1092" y2="31.6272" gradientUnits="userSpaceOnUse">
<stop stop-color="#53419A"/>
<stop offset="1" stop-color="#5229F5"/>
</linearGradient>
</defs>
</svg>
