<svg width="35" height="34" viewBox="0 0 35 34" fill="none" xmlns="http://www.w3.org/2000/svg">
<path d="M0.811254 33.6667L3.06459 25.3867C1.57982 22.8415 0.799748 19.9467 0.804588 17C0.804588 7.79504 8.26625 0.333374 17.4713 0.333374C26.6763 0.333374 34.1379 7.79504 34.1379 17C34.1379 26.205 26.6763 33.6667 17.4713 33.6667C14.5259 33.6715 11.6323 32.892 9.08792 31.4084L0.811254 33.6667ZM11.4563 9.18004C11.241 9.1934 11.0307 9.25009 10.8379 9.34671C10.6571 9.44909 10.4921 9.57708 10.3479 9.72671C10.1479 9.91504 10.0346 10.0784 9.91292 10.2367C9.29694 11.0384 8.9656 12.0224 8.97125 13.0334C8.97459 13.85 9.18792 14.645 9.52125 15.3884C10.2029 16.8917 11.3246 18.4834 12.8063 19.9584C13.1629 20.3134 13.5113 20.67 13.8863 21.0017C15.7252 22.6208 17.9167 23.7884 20.2863 24.4117L21.2346 24.5567C21.5429 24.5734 21.8513 24.55 22.1613 24.535C22.6466 24.51 23.1206 24.3786 23.5496 24.15C23.7678 24.0376 23.9808 23.9153 24.1879 23.7834C24.1879 23.7834 24.2596 23.7367 24.3963 23.6334C24.6213 23.4667 24.7596 23.3484 24.9463 23.1534C25.0846 23.01 25.2046 22.8417 25.2962 22.65C25.4263 22.3784 25.5562 21.86 25.6096 21.4284C25.6496 21.0984 25.6379 20.9184 25.6329 20.8067C25.6262 20.6284 25.4779 20.4434 25.3163 20.365L24.3463 19.93C24.3463 19.93 22.8962 19.2984 22.0113 18.895C21.9179 18.8544 21.8179 18.8312 21.7163 18.8267C21.6022 18.815 21.487 18.8278 21.3783 18.8643C21.2697 18.9008 21.1701 18.9602 21.0863 19.0384V19.035C21.0779 19.035 20.9662 19.13 19.7613 20.59C19.6921 20.683 19.5968 20.7532 19.4876 20.7918C19.3784 20.8304 19.2601 20.8356 19.1479 20.8067C19.0393 20.7777 18.9329 20.7409 18.8296 20.6967C18.6229 20.61 18.5513 20.5767 18.4096 20.515L18.4013 20.5117C17.4478 20.0954 16.565 19.5331 15.7846 18.845C15.5746 18.6617 15.3796 18.4617 15.1796 18.2684C14.5239 17.6404 13.9524 16.9301 13.4796 16.155L13.3813 15.9967C13.3106 15.8903 13.2535 15.7755 13.2113 15.655C13.1479 15.41 13.3129 15.2134 13.3129 15.2134C13.3129 15.2134 13.7179 14.77 13.9063 14.53C14.0631 14.3306 14.2094 14.1231 14.3446 13.9084C14.5413 13.5917 14.6029 13.2667 14.4996 13.015C14.0329 11.875 13.5496 10.74 13.0529 9.61337C12.9546 9.39004 12.6629 9.23004 12.3979 9.19837C12.3079 9.18837 12.2179 9.17837 12.1279 9.17171C11.9041 9.16059 11.6798 9.16281 11.4563 9.17837V9.18004Z" fill="url(#paint0_linear)"/>
<defs>
<linearGradient id="paint0_linear" x1="17.4712" y1="0.333374" x2="17.4712" y2="33.6667" gradientUnits="userSpaceOnUse">
<stop stop-color="#53419A"/>
<stop offset="1" stop-color="#5229F5"/>
</linearGradient>
</defs>
</svg>
