<svg width="540" height="398" viewBox="0 0 540 398" fill="none" xmlns="http://www.w3.org/2000/svg">
<path d="M347.433 310.499C299.912 331.492 108.417 412.761 24.9315 223.574C18.4587 193.912 37.1863 148.276 91.0518 121.631C158.384 88.3246 245.156 70.3101 287.08 60.2335C329.005 50.157 383.806 45.2105 444.692 77.6834C505.578 110.156 517.913 138.746 482.807 199.375C447.7 260.005 394.954 289.506 347.433 310.499Z" fill="url(#paint0_linear)"/>
<path d="M134.979 345.504C67.3144 323.449 42.4969 272.926 29.2376 251.979" stroke="#CDB991"/>
<path d="M473.75 232.571C436.534 279.111 388.176 309.644 354.77 321.674" stroke="#D6CDF9" stroke-opacity="0.58"/>
<path d="M471.208 86.4385C536.404 121.049 531.068 143.665 483.728 217.301" stroke="#53419A" stroke-opacity="0.57"/>
<defs>
<linearGradient id="paint0_linear" x1="39.7757" y1="270.969" x2="499.451" y2="126.995" gradientUnits="userSpaceOnUse">
<stop stop-color="#E7D6B7"/>
<stop offset="1" stop-color="#D6CDF9"/>
</linearGradient>
</defs>
</svg>
