<svg width="664" height="662" viewBox="0 0 664 662" fill="none" xmlns="http://www.w3.org/2000/svg">
<path d="M465.414 355.808C446.284 404.109 366.866 596.379 174.637 520.161C149.213 503.568 130.535 457.911 150.218 401.131C174.823 330.156 224.009 256.435 246.81 219.839C269.611 183.242 305.187 141.266 371.353 121.681C437.52 102.097 466.37 113.812 483.897 181.644C501.425 249.476 484.543 307.506 465.414 355.808Z" fill="url(#paint0_linear)"/>
<path d="M338.6 529.82C274.913 561.583 221.78 542.999 197.636 537.378" stroke="#CDB991"/>
<path d="M500.736 211.651C506.875 270.925 493.844 326.611 478.483 358.622" stroke="#D6CDF9" stroke-opacity="0.58"/>
<path d="M396.39 109.313C467.128 88.2286 479.194 108.087 497.132 193.769" stroke="#53419A" stroke-opacity="0.57"/>
<defs>
<linearGradient id="paint0_linear" x1="218.469" y1="543.514" x2="444.97" y2="118.394" gradientUnits="userSpaceOnUse">
<stop stop-color="#53419A"/>
<stop offset="1" stop-color="#5229F5"/>
</linearGradient>
</defs>
</svg>
