<svg width="28" height="20" viewBox="0 0 28 20" fill="none" xmlns="http://www.w3.org/2000/svg">
<path d="M27.2631 1.53833C26.7301 0.622256 25.7494 0 24.6133 0H13.845V1.53833H27.2631ZM0 15.3833H27.69V16.9217H0V15.3833ZM13.845 9.23H27.69V10.7683H13.845V9.23ZM13.845 6.15333H27.69V7.69167H13.845V6.15333ZM0 12.3067H27.69V13.845H0V12.3067ZM3.07667 19.9983H24.6133C25.7494 19.9983 26.7301 19.3761 27.2631 18.46H0.426888C0.95992 19.3761 1.94061 19.9983 3.07667 19.9983ZM13.845 3.07667H27.69V4.615H13.845V3.07667Z" fill="#B22334"/>
<path d="M0.0523033 17.4442C0.0653792 17.5157 0.0799933 17.5872 0.0976842 17.6572C0.117683 17.7349 0.142296 17.8095 0.168448 17.8849C0.236903 18.0841 0.319973 18.2764 0.42458 18.4564L0.426888 18.4602H27.2631L27.2647 18.4572C27.3685 18.278 27.4516 18.0857 27.52 17.8872C27.5462 17.8111 27.5716 17.7349 27.5915 17.6557C27.6092 17.5865 27.6239 17.5157 27.6369 17.4442C27.6685 17.275 27.69 17.1011 27.69 16.9219H0C0 17.1011 0.0215367 17.2742 0.0523033 17.4442ZM0 13.8452H27.69V15.3836H0V13.8452ZM0 10.7686V12.3069H27.69V10.7686H13.845H0ZM13.845 7.69191H27.69V9.23024H13.845V7.69191ZM13.845 4.61524H27.69V6.15357H13.845V4.61524ZM0 3.07691C0 2.89769 0.023075 2.7254 0.0523033 2.55464C0.0215367 2.72463 0 2.89769 0 3.07691ZM0.426888 1.53857L0.42458 1.54242L0.426888 1.53857ZM0.0984533 2.34158C0.117683 2.26313 0.144603 2.18852 0.169217 2.11314C0.143065 2.18852 0.118452 2.2639 0.0984533 2.34158ZM13.845 3.07691H27.69C27.69 2.89769 27.6685 2.72386 27.6369 2.55387C27.6239 2.48311 27.61 2.41235 27.5915 2.34312C27.5708 2.2639 27.5462 2.18698 27.5192 2.11083C27.4508 1.91239 27.3677 1.72087 27.2639 1.54165C27.2647 1.54088 27.2639 1.53934 27.2631 1.53857H13.845V3.07691Z" fill="#EEEEEE"/>
<path d="M13.845 0H3.07667C1.37758 0 0 1.37758 0 3.07667V10.7683H13.845V0Z" fill="#3C3B6E"/>
<path d="M1.53909 2.09699L2.01444 2.44235L1.83291 2.99999L2.30749 2.6554L2.78284 2.99999L2.60131 2.44235L3.07666 2.09699H2.48901L2.30749 1.53857L2.12674 2.09699H1.53909ZM3.07743 3.63532L3.55277 3.98068L3.37125 4.53832L3.84582 4.19374L4.32117 4.53832L4.13965 3.98068L4.61499 3.63532H4.02735L3.84582 3.07691L3.66507 3.63532H3.07743ZM6.15409 3.63532L6.62944 3.98068L6.44792 4.53832L6.92249 4.19374L7.39784 4.53832L7.21631 3.98068L7.69166 3.63532H7.10401L6.92249 3.07691L6.74174 3.63532H6.15409ZM9.23076 3.63532L9.70611 3.98068L9.52458 4.53832L9.99916 4.19374L10.4745 4.53832L10.293 3.98068L10.7683 3.63532H10.1807L9.99916 3.07691L9.8184 3.63532H9.23076ZM3.07743 6.71199L3.55277 7.05735L3.37125 7.61499L3.84582 7.2704L4.32117 7.61499L4.13965 7.05735L4.61499 6.71199H4.02735L3.84582 6.15357L3.66507 6.71199H3.07743ZM6.15409 6.71199L6.62944 7.05735L6.44792 7.61499L6.92249 7.2704L7.39784 7.61499L7.21631 7.05735L7.69166 6.71199H7.10401L6.92249 6.15357L6.74174 6.71199H6.15409ZM9.23076 6.71199L9.70611 7.05735L9.52458 7.61499L9.99916 7.2704L10.4745 7.61499L10.293 7.05735L10.7683 6.71199H10.1807L9.99916 6.15357L9.8184 6.71199H9.23076ZM4.61576 2.09699L5.0911 2.44235L4.90958 2.99999L5.38416 2.6554L5.8595 2.99999L5.67798 2.44235L6.15332 2.09699H5.56568L5.38416 1.53857L5.2034 2.09699H4.61576ZM7.69243 2.09699L8.16777 2.44235L7.98625 2.99999L8.46082 2.6554L8.93617 2.99999L8.75465 2.44235L9.22999 2.09699H8.64235L8.46082 1.53857L8.28007 2.09699H7.69243ZM10.7691 2.09699L11.2444 2.44235L11.0629 2.99999L11.5375 2.6554L12.0128 2.99999L11.8313 2.44235L12.3067 2.09699H11.719L11.5375 1.53857L11.3567 2.09699H10.7691ZM1.53909 5.17366L2.01444 5.51901L1.83291 6.07666L2.30749 5.73207L2.78284 6.07666L2.60131 5.51901L3.07666 5.17366H2.48901L2.30749 4.61524L2.12674 5.17366H1.53909ZM4.90958 6.07666L5.38416 5.73207L5.8595 6.07666L5.67798 5.51901L6.15332 5.17366H5.56568L5.38416 4.61524L5.2034 5.17366H4.61576L5.0911 5.51901L4.90958 6.07666ZM7.69243 5.17366L8.16777 5.51901L7.98625 6.07666L8.46082 5.73207L8.93617 6.07666L8.75465 5.51901L9.22999 5.17366H8.64235L8.46082 4.61524L8.28007 5.17366H7.69243ZM10.7691 5.17366L11.2444 5.51901L11.0629 6.07666L11.5375 5.73207L12.0128 6.07666L11.8313 5.51901L12.3067 5.17366H11.719L11.5375 4.61524L11.3567 5.17366H10.7691ZM1.53909 8.25032L2.01444 8.59568L1.83291 9.15332L2.30749 8.80874L2.78284 9.15332L2.60131 8.59568L3.07666 8.25032H2.48901L2.30749 7.69191L2.12674 8.25032H1.53909ZM4.90958 9.15332L5.38416 8.80874L5.8595 9.15332L5.67798 8.59568L6.15332 8.25032H5.56568L5.38416 7.69191L5.2034 8.25032H4.61576L5.0911 8.59568L4.90958 9.15332ZM7.69243 8.25032L8.16777 8.59568L7.98625 9.15332L8.46082 8.80874L8.93617 9.15332L8.75465 8.59568L9.22999 8.25032H8.64235L8.46082 7.69191L8.28007 8.25032H7.69243ZM10.7691 8.25032L11.2444 8.59568L11.0629 9.15332L11.5375 8.80874L12.0128 9.15332L11.8313 8.59568L12.3067 8.25032H11.719L11.5375 7.69191L11.3567 8.25032H10.7691Z" fill="white"/>
</svg>
