<svg width="41" height="43" viewBox="0 0 41 43" fill="none" xmlns="http://www.w3.org/2000/svg">
<path d="M38.5816 23.2128L40.9562 9.89244C40.9767 9.7776 40.9722 9.65958 40.943 9.54673C40.9138 9.43387 40.8607 9.32893 40.7873 9.23933C40.714 9.14973 40.6223 9.07765 40.5186 9.02819C40.415 8.97874 40.3019 8.95311 40.1875 8.95312H8.02695L6.95664 2.94748C6.85868 2.39647 6.57411 1.89806 6.15259 1.53926C5.73108 1.18047 5.1994 0.984074 4.65039 0.984375H1.125C0.9178 0.984375 0.719086 1.06833 0.572573 1.21777C0.42606 1.36722 0.34375 1.56991 0.34375 1.78125C0.34375 1.99259 0.42606 2.19528 0.572573 2.34473C0.719086 2.49417 0.9178 2.57812 1.125 2.57812H4.65039C4.83337 2.57802 5.01059 2.64346 5.15109 2.76304C5.29159 2.88261 5.38646 3.04872 5.41914 3.23236L10.8645 33.7798C10.0986 34.3487 9.51966 35.141 9.20404 36.0522C8.88842 36.9634 8.8509 37.9508 9.09641 38.8842C9.34193 39.8177 9.85896 40.6533 10.5794 41.281C11.2998 41.9087 12.1897 42.299 13.132 42.4005C14.0742 42.502 15.0245 42.31 15.8576 41.8496C16.6906 41.3892 17.3674 40.6822 17.7987 39.8217C18.2299 38.9612 18.3954 37.9876 18.2734 37.0292C18.1514 36.0709 17.7475 35.1727 17.115 34.4531H30.4475C29.7325 35.2689 29.3136 36.3102 29.2609 37.4031C29.2081 38.496 29.5247 39.5743 30.1577 40.4577C30.7907 41.3411 31.7018 41.9762 32.7386 42.2569C33.7755 42.5375 34.8754 42.4467 35.8545 41.9995C36.8337 41.5524 37.6327 40.7761 38.1181 39.8003C38.6035 38.8245 38.7459 37.7083 38.5215 36.6383C38.2971 35.5683 37.7194 34.6093 36.8851 33.9215C36.0507 33.2337 35.0103 32.8587 33.9375 32.8594H12.2883L11.152 26.4844H34.7387C35.6535 26.4847 36.5394 26.1573 37.2418 25.5594C37.9441 24.9615 38.4183 24.131 38.5816 23.2128ZM16.75 37.6406C16.75 38.271 16.5667 38.8873 16.2233 39.4115C15.88 39.9357 15.3919 40.3442 14.8209 40.5855C14.2499 40.8267 13.6215 40.8899 13.0153 40.7669C12.4092 40.6439 11.8523 40.3403 11.4153 39.8945C10.9783 39.4487 10.6806 38.8808 10.56 38.2625C10.4395 37.6442 10.5014 37.0033 10.7379 36.4208C10.9744 35.8384 11.3749 35.3406 11.8888 34.9903C12.4027 34.6401 13.0069 34.4531 13.625 34.4531C14.4535 34.4541 15.2478 34.7902 15.8337 35.3878C16.4195 35.9853 16.7491 36.7955 16.75 37.6406ZM37.0625 37.6406C37.0625 38.271 36.8792 38.8873 36.5358 39.4115C36.1925 39.9357 35.7044 40.3442 35.1334 40.5855C34.5624 40.8267 33.934 40.8899 33.3278 40.7669C32.7216 40.6439 32.1648 40.3403 31.7278 39.8945C31.2908 39.4487 30.9931 38.8808 30.8725 38.2625C30.752 37.6442 30.8139 37.0033 31.0504 36.4208C31.2869 35.8384 31.6874 35.3406 32.2013 34.9903C32.7152 34.6401 33.3194 34.4531 33.9375 34.4531C34.766 34.4541 35.5603 34.7902 36.1462 35.3878C36.732 35.9853 37.0616 36.7955 37.0625 37.6406ZM8.31113 10.5469H39.2514L37.0443 22.9277C36.9464 23.4786 36.6619 23.9769 36.2405 24.3357C35.8191 24.6944 35.2876 24.8908 34.7387 24.8906H10.868L8.31113 10.5469Z" fill="#53419A"/>
</svg>
