<svg width="34" height="34" viewBox="0 0 34 34" fill="none" xmlns="http://www.w3.org/2000/svg">
<path d="M0.340002 33.6668L2.59333 25.3868C1.10857 22.8416 0.328495 19.9468 0.333335 17.0002C0.333335 7.79516 7.795 0.333496 17 0.333496C26.205 0.333496 33.6667 7.79516 33.6667 17.0002C33.6667 26.2052 26.205 33.6668 17 33.6668C14.0546 33.6716 11.1611 32.8921 8.61667 31.4085L0.340002 33.6668ZM10.985 9.18016C10.7698 9.19353 10.5595 9.25021 10.3667 9.34683C10.1859 9.44921 10.0208 9.5772 9.87667 9.72683C9.67667 9.91516 9.56333 10.0785 9.44167 10.2368C8.82569 11.0385 8.49435 12.0225 8.5 13.0335C8.50333 13.8502 8.71667 14.6452 9.05 15.3885C9.73167 16.8918 10.8533 18.4835 12.335 19.9585C12.6917 20.3135 13.04 20.6702 13.415 21.0018C15.254 22.6209 17.4454 23.7886 19.815 24.4118L20.7633 24.5568C21.0717 24.5735 21.38 24.5502 21.69 24.5352C22.1754 24.5101 22.6494 24.3787 23.0783 24.1502C23.2966 24.0377 23.5096 23.9154 23.7167 23.7835C23.7167 23.7835 23.7883 23.7368 23.925 23.6335C24.15 23.4668 24.2883 23.3485 24.475 23.1535C24.6133 23.0102 24.7333 22.8418 24.825 22.6502C24.955 22.3785 25.085 21.8602 25.1383 21.4285C25.1783 21.0985 25.1667 20.9185 25.1617 20.8068C25.155 20.6285 25.0067 20.4435 24.845 20.3652L23.875 19.9302C23.875 19.9302 22.425 19.2985 21.54 18.8952C21.4467 18.8545 21.3467 18.8313 21.245 18.8268C21.131 18.8151 21.0157 18.8279 20.9071 18.8645C20.7984 18.901 20.6988 18.9603 20.615 19.0385V19.0352C20.6067 19.0352 20.495 19.1302 19.29 20.5902C19.2208 20.6831 19.1256 20.7533 19.0163 20.7919C18.9071 20.8305 18.7889 20.8357 18.6767 20.8068C18.5681 20.7778 18.4617 20.741 18.3583 20.6968C18.1517 20.6102 18.08 20.5768 17.9383 20.5152L17.93 20.5118C16.9765 20.0955 16.0937 19.5332 15.3133 18.8452C15.1033 18.6618 14.9083 18.4618 14.7083 18.2685C14.0526 17.6406 13.4812 16.9302 13.0083 16.1552L12.91 15.9968C12.8394 15.8904 12.7823 15.7757 12.74 15.6552C12.6767 15.4102 12.8417 15.2135 12.8417 15.2135C12.8417 15.2135 13.2467 14.7702 13.435 14.5302C13.5918 14.3307 13.7381 14.1232 13.8733 13.9085C14.07 13.5918 14.1317 13.2668 14.0283 13.0152C13.5617 11.8752 13.0783 10.7402 12.5817 9.6135C12.4833 9.39016 12.1917 9.23016 11.9267 9.1985C11.8367 9.1885 11.7467 9.1785 11.6567 9.17183C11.4328 9.16071 11.2086 9.16294 10.985 9.1785V9.18016Z" fill="white"/>
</svg>
