<svg width="32" height="32" viewBox="0 0 32 32" fill="none" xmlns="http://www.w3.org/2000/svg">
<path d="M15.6105 10.4074C12.7433 10.4074 10.4034 12.7473 10.4034 15.6144C10.4034 18.4816 12.7433 20.8215 15.6105 20.8215C18.4777 20.8215 20.8175 18.4816 20.8175 15.6144C20.8175 12.7473 18.4777 10.4074 15.6105 10.4074ZM31.2277 15.6144C31.2277 13.4582 31.2472 11.3215 31.1261 9.16913C31.005 6.66913 30.4347 4.45038 28.6066 2.62226C26.7745 0.790224 24.5597 0.223818 22.0597 0.102724C19.9034 -0.0183694 17.7667 0.00116189 15.6144 0.00116189C13.4581 0.00116189 11.3214 -0.0183694 9.16907 0.102724C6.66907 0.223818 4.45032 0.79413 2.62219 2.62226C0.790163 4.45429 0.223757 6.66913 0.102663 9.16913C-0.0184304 11.3254 0.00110086 13.4621 0.00110086 15.6144C0.00110086 17.7668 -0.0184304 19.9074 0.102663 22.0598C0.223757 24.5598 0.79407 26.7785 2.62219 28.6066C4.45423 30.4387 6.66907 31.0051 9.16907 31.1262C11.3253 31.2473 13.462 31.2277 15.6144 31.2277C17.7706 31.2277 19.9073 31.2473 22.0597 31.1262C24.5597 31.0051 26.7784 30.4348 28.6066 28.6066C30.4386 26.7746 31.005 24.5598 31.1261 22.0598C31.2511 19.9074 31.2277 17.7707 31.2277 15.6144ZM15.6105 23.6262C11.1769 23.6262 7.59876 20.048 7.59876 15.6144C7.59876 11.1808 11.1769 7.60272 15.6105 7.60272C20.0441 7.60272 23.6222 11.1808 23.6222 15.6144C23.6222 20.048 20.0441 23.6262 15.6105 23.6262ZM23.9503 9.14569C22.9152 9.14569 22.0792 8.30976 22.0792 7.2746C22.0792 6.23944 22.9152 5.40351 23.9503 5.40351C24.9855 5.40351 25.8214 6.23944 25.8214 7.2746C25.8217 7.5204 25.7735 7.76385 25.6796 7.991C25.5857 8.21815 25.4479 8.42454 25.2741 8.59835C25.1003 8.77216 24.8939 8.90997 24.6667 9.00389C24.4396 9.09782 24.1961 9.146 23.9503 9.14569Z" fill="white"/>
</svg>
