<svg width="50" height="50" viewBox="0 0 50 50" fill="none" xmlns="http://www.w3.org/2000/svg">
<path d="M25 42C15.6 42 8 34.4 8 25C8 15.6 15.6 8 25 8C34.4 8 42 15.6 42 25C42 34.4 34.4 42 25 42ZM25 10C16.7 10 10 16.7 10 25C10 33.3 16.7 40 25 40C33.3 40 40 33.3 40 25C40 16.7 33.3 10 25 10Z" fill="#53419A"/>
<path d="M19.8 19.6001C20.1 18.8001 20.4 18.2001 21 17.7001C21.5 17.2001 22.1 16.8001 22.9 16.5001C23.7 16.2001 24.5 16.1001 25.4 16.1001C26.1 16.1001 26.8 16.2001 27.4 16.4001C28 16.6001 28.6 16.9001 29.1 17.3001C29.6 17.7001 30 18.2001 30.2 18.8001C30.5 19.4001 30.6 20.1001 30.6 20.8001C30.6 21.8001 30.4 22.6001 30 23.3001C29.6 24.0001 29 24.6001 28.4 25.3001L27.1 26.6001C26.8 26.9001 26.5 27.2001 26.4 27.5001C26.2 27.8001 26.1 28.2001 26.1 28.6001C26 29.0001 26 29.3001 26 30.1001H24.4C24.4 29.3001 24.4 29.0001 24.5 28.4001C24.6 27.9001 24.8 27.4001 25 26.9001C25.2 26.5001 25.5 26.1001 25.9 25.7001C26.3 25.3001 26.8 24.9001 27.3 24.3001C27.8 23.8001 28.2 23.3001 28.5 22.8001C28.8 22.3001 29 21.6001 29 21.0001C29 20.5001 28.9 20.0001 28.7 19.6001C28.5 19.2001 28.2 18.8001 27.9 18.5001C27.6 18.2001 27.2 18.0001 26.7 17.8001C26.2 17.6001 25.8 17.5001 25.3 17.5001C24.6 17.5001 24 17.6001 23.5 17.9001C23 18.1001 22.5 18.5001 22.2 18.9001C21.9 19.3001 21.6 19.8001 21.4 20.4001C21.2 21.0001 21 21.3001 21 22.0001H19.4C19.4 21.1001 19.5 20.4001 19.8 19.6001ZM26 32.0001V34.0001H24V32.0001H26Z" fill="#53419A"/>
</svg>
