<svg width="50" height="50" viewBox="0 0 50 50" fill="none" xmlns="http://www.w3.org/2000/svg">
<path fill-rule="evenodd" clip-rule="evenodd" d="M14.5 25C14.5 25.1989 14.579 25.3897 14.7197 25.5304C14.8603 25.671 15.0511 25.75 15.25 25.75L32.9395 25.75L28.219 30.469C28.1493 30.5388 28.094 30.6215 28.0562 30.7127C28.0185 30.8038 27.9991 30.9014 27.9991 31C27.9991 31.0986 28.0185 31.1963 28.0562 31.2874C28.094 31.3785 28.1493 31.4613 28.219 31.531C28.2887 31.6008 28.3715 31.6561 28.4626 31.6938C28.5537 31.7316 28.6514 31.751 28.75 31.751C28.8486 31.751 28.9463 31.7316 29.0374 31.6938C29.1285 31.6561 29.2113 31.6008 29.281 31.531L35.281 25.531C35.3508 25.4614 35.4063 25.3786 35.4441 25.2875C35.4819 25.1964 35.5013 25.0987 35.5013 25C35.5013 24.9014 35.4819 24.8037 35.4441 24.7126C35.4063 24.6215 35.3508 24.5387 35.281 24.469L29.281 18.469C29.2113 18.3993 29.1285 18.344 29.0374 18.3062C28.9463 18.2685 28.8486 18.2491 28.75 18.2491C28.6514 18.2491 28.5537 18.2685 28.4626 18.3062C28.3715 18.344 28.2887 18.3993 28.219 18.469C28.1493 18.5388 28.094 18.6215 28.0562 18.7127C28.0185 18.8038 27.9991 18.9014 27.9991 19C27.9991 19.0986 28.0185 19.1963 28.0562 19.2874C28.094 19.3785 28.1493 19.4613 28.219 19.531L32.9395 24.25L15.25 24.25C15.0511 24.25 14.8603 24.329 14.7197 24.4697C14.579 24.6103 14.5 24.8011 14.5 25Z" fill="#53419A"/>
<circle cx="25" cy="25" r="24.5" transform="rotate(-180 25 25)" stroke="#53419A"/>
</svg>
