<svg width="50" height="50" viewBox="0 0 50 50" fill="none" xmlns="http://www.w3.org/2000/svg">
<path fill-rule="evenodd" clip-rule="evenodd" d="M35.5 25C35.5 24.8011 35.421 24.6103 35.2803 24.4696C35.1397 24.329 34.9489 24.25 34.75 24.25H17.0605L21.781 19.531C21.8507 19.4612 21.906 19.3785 21.9438 19.2873C21.9815 19.1962 22.0009 19.0986 22.0009 19C22.0009 18.9014 21.9815 18.8037 21.9438 18.7126C21.906 18.6215 21.8507 18.5387 21.781 18.469C21.7113 18.3992 21.6285 18.3439 21.5374 18.3062C21.4463 18.2684 21.3486 18.249 21.25 18.249C21.1514 18.249 21.0537 18.2684 20.9626 18.3062C20.8715 18.3439 20.7887 18.3992 20.719 18.469L14.719 24.469C14.6492 24.5386 14.5937 24.6214 14.5559 24.7125C14.5181 24.8036 14.4987 24.9013 14.4987 25C14.4987 25.0986 14.5181 25.1963 14.5559 25.2874C14.5937 25.3785 14.6492 25.4613 14.719 25.531L20.719 31.531C20.7887 31.6007 20.8715 31.656 20.9626 31.6938C21.0537 31.7315 21.1514 31.7509 21.25 31.7509C21.3486 31.7509 21.4463 31.7315 21.5374 31.6938C21.6285 31.656 21.7113 31.6007 21.781 31.531C21.8507 31.4612 21.906 31.3785 21.9438 31.2873C21.9815 31.1962 22.0009 31.0986 22.0009 31C22.0009 30.9014 21.9815 30.8037 21.9438 30.7126C21.906 30.6215 21.8507 30.5387 21.781 30.469L17.0605 25.75H34.75C34.9489 25.75 35.1397 25.671 35.2803 25.5303C35.421 25.3896 35.5 25.1989 35.5 25Z" fill="#53419A"/>
<circle cx="25" cy="25" r="24.5" stroke="#53419A"/>
</svg>
