<svg width="9" height="11" viewBox="0 0 9 11" fill="none" xmlns="http://www.w3.org/2000/svg">
<path d="M5.42808 6.22204C6.21453 6.24146 6.97659 5.94827 7.54722 5.40675C8.11786 4.86522 8.45051 4.11954 8.47225 3.33315C8.45051 2.54677 8.11786 1.80109 7.54722 1.25956C6.97659 0.718036 6.21453 0.424848 5.42808 0.444266H2.33336C2.23759 0.444266 2.14574 0.482312 2.07802 0.550033C2.0103 0.617754 1.97225 0.709604 1.97225 0.805377V5.49982H1.25003C1.15425 5.49982 1.0624 5.53787 0.994683 5.60559C0.926962 5.67331 0.888916 5.76516 0.888916 5.86093C0.888916 5.95671 0.926962 6.04856 0.994683 6.11628C1.0624 6.184 1.15425 6.22204 1.25003 6.22204H1.97225V6.94427H1.25003C1.15425 6.94427 1.0624 6.98231 0.994683 7.05003C0.926962 7.11775 0.888916 7.2096 0.888916 7.30538C0.888916 7.40115 0.926962 7.493 0.994683 7.56072C1.0624 7.62844 1.15425 7.66649 1.25003 7.66649H1.97225V10.1943C1.97225 10.29 2.0103 10.3819 2.07802 10.4496C2.14574 10.5173 2.23759 10.5554 2.33336 10.5554C2.42913 10.5554 2.52098 10.5173 2.5887 10.4496C2.65643 10.3819 2.69447 10.29 2.69447 10.1943V7.66649H5.94447C6.04025 7.66649 6.1321 7.62844 6.19982 7.56072C6.26754 7.493 6.30558 7.40115 6.30558 7.30538C6.30558 7.2096 6.26754 7.11775 6.19982 7.05003C6.1321 6.98231 6.04025 6.94427 5.94447 6.94427H2.69447V6.22204H5.42808ZM2.69447 1.16649H5.42808C6.02276 1.14794 6.60063 1.36534 7.03563 1.77125C7.47062 2.17715 7.72743 2.73862 7.75003 3.33315C7.72837 3.92801 7.47185 4.49004 7.03664 4.89615C6.60143 5.30225 6.02302 5.51932 5.42808 5.49982H2.69447V1.16649Z" fill="#695F4E"/>
</svg>
