<svg width="26" height="32" viewBox="0 0 26 32" fill="none" xmlns="http://www.w3.org/2000/svg">
<path d="M25.6 0.199951H19.3V2.29995H6.70002V0.199951H0.400024V31.6999H6.70002V29.5999H19.3V31.6999H25.6V0.199951ZM4.60002 2.29995V4.39995H2.50002V2.29995H4.60002ZM23.5 2.29995V4.39995H21.4V2.29995H23.5ZM19.3 4.39995V14.9H6.70002V4.39995H19.3ZM4.60002 6.49995V8.59995H2.50002V6.49995H4.60002ZM23.5 6.49995V8.59995H21.4V6.49995H23.5ZM4.60002 10.7V12.8H2.50002V10.7H4.60002ZM23.5 10.7V12.8H21.4V10.7H23.5ZM4.60002 14.9V17H2.50002V14.9H4.60002ZM23.5 14.9V17H21.4V14.9H23.5ZM19.3 17V27.5H6.70002V17H19.3ZM4.60002 19.1V21.2H2.50002V19.1H4.60002ZM23.5 19.1V21.2H21.4V19.1H23.5ZM4.60002 23.2999V25.4H2.50002V23.2999H4.60002ZM23.5 23.2999V25.4H21.4V23.2999H23.5ZM4.60002 27.5V29.5999H2.50002V27.5H4.60002ZM23.5 27.5V29.5999H21.4V27.5H23.5Z" fill="white"/>
</svg>
