<svg width="28" height="42" viewBox="0 0 28 42" fill="none" xmlns="http://www.w3.org/2000/svg">
<path d="M26.2023 23.604C25.9365 22.9715 25.6209 22.361 25.2586 21.7784V11.2245C25.2601 9.74961 24.9697 8.28897 24.404 6.92681C23.8384 5.56464 23.0087 4.3279 21.9629 3.28786C20.9233 2.24205 19.6864 1.41294 18.3241 0.848571C16.9617 0.284201 15.5009 -0.0042107 14.0262 4.64498e-05C12.5507 -0.00348594 11.0891 0.285231 9.72579 0.849534C8.36245 1.41384 7.12437 2.24255 6.08299 3.28786C5.03765 4.32785 4.20884 5.56475 3.64451 6.92705C3.08017 8.28934 2.7915 9.74999 2.79517 11.2245V12.7628H7.29311V11.2245C7.29311 9.4343 7.99005 7.73855 9.26842 6.46673C9.89194 5.84033 10.6335 5.3438 11.4502 5.00587C12.2668 4.66793 13.1424 4.49531 14.0262 4.49798C15.8098 4.5011 17.5194 5.21063 18.781 6.47128C20.0427 7.73193 20.7535 9.44103 20.758 11.2245V17.371C18.7139 16.1524 16.3772 15.5119 13.9974 15.5177C12.2577 15.5142 10.5346 15.8549 8.92721 16.5201C7.31979 17.1853 5.85982 18.1618 4.63136 19.3935C3.40011 20.6223 2.42394 22.0823 1.759 23.6897C1.09407 25.2971 0.753489 27.0201 0.756861 28.7595C0.753981 30.4976 1.09482 32.219 1.75976 33.8249C2.4247 35.4307 3.40062 36.8891 4.63136 38.1164C5.86003 39.3483 7.31958 40.3258 8.92649 40.993C10.5334 41.6602 12.2561 42.0039 13.996 42.0045C15.7359 42.0051 17.4589 41.6626 19.0662 40.9965C20.6736 40.3305 22.1338 39.354 23.3634 38.1229C24.5945 36.8944 25.5706 35.4346 26.2356 33.8274C26.9005 32.2203 27.2411 30.4975 27.2379 28.7582C27.2379 26.9732 26.89 25.2368 26.1997 23.6027L26.2023 23.604ZM14 37.5021C9.18049 37.5021 5.25742 33.579 5.25742 28.7595C5.25742 23.94 9.18049 20.017 14 20.017C16.3181 20.0187 18.5408 20.9404 20.18 22.5795C21.8192 24.2187 22.7408 26.4414 22.7425 28.7595C22.7394 31.0773 21.8173 33.2991 20.1785 34.938C18.5396 36.5769 16.3177 37.499 14 37.5021ZM17.7537 28.8002C17.7537 33.7418 10.3355 33.7418 10.3355 28.8002C10.3355 23.8508 17.7537 23.8508 17.7537 28.8002Z" fill="white"/>
</svg>
