<svg width="31" height="32" viewBox="0 0 31 32" fill="none" xmlns="http://www.w3.org/2000/svg">
<path d="M24 0C23.7348 0 23.4804 0.105357 23.2929 0.292893C23.1053 0.48043 23 0.734784 23 1C23 1.26522 23.1053 1.51957 23.2929 1.70711C23.4804 1.89464 23.7348 2 24 2H27.586L18 11.586L12.708 6.292C12.6151 6.19887 12.5047 6.12499 12.3832 6.07457C12.2618 6.02416 12.1315 5.99821 12 5.99821C11.8684 5.99821 11.7382 6.02416 11.6167 6.07457C11.4952 6.12499 11.3849 6.19887 11.292 6.292L1.29198 16.292C1.10421 16.4798 0.998718 16.7344 0.998718 17C0.998718 17.2656 1.10421 17.5202 1.29198 17.708C1.47975 17.8958 1.73443 18.0013 1.99998 18.0013C2.26553 18.0013 2.52021 17.8958 2.70798 17.708L12 8.414L17.292 13.708C17.3849 13.8011 17.4952 13.875 17.6167 13.9254C17.7382 13.9758 17.8684 14.0018 18 14.0018C18.1315 14.0018 18.2618 13.9758 18.3832 13.9254C18.5047 13.875 18.6151 13.8011 18.708 13.708L29 3.414V7C29 7.26522 29.1053 7.51957 29.2929 7.70711C29.4804 7.89464 29.7348 8 30 8C30.2652 8 30.5195 7.89464 30.7071 7.70711C30.8946 7.51957 31 7.26522 31 7V1C31 0.734784 30.8946 0.48043 30.7071 0.292893C30.5195 0.105357 30.2652 0 30 0H24ZM26 14C25.7348 14 25.4804 14.1054 25.2929 14.2929C25.1053 14.4804 25 14.7348 25 15V31C25 31.2652 25.1053 31.5196 25.2929 31.7071C25.4804 31.8946 25.7348 32 26 32C26.2652 32 26.5195 31.8946 26.7071 31.7071C26.8946 31.5196 27 31.2652 27 31V15C27 14.7348 26.8946 14.4804 26.7071 14.2929C26.5195 14.1054 26.2652 14 26 14ZM9.99998 18C9.73476 18 9.48041 18.1054 9.29287 18.2929C9.10534 18.4804 8.99998 18.7348 8.99998 19V31C8.99998 31.2652 9.10534 31.5196 9.29287 31.7071C9.48041 31.8946 9.73476 32 9.99998 32C10.2652 32 10.5196 31.8946 10.7071 31.7071C10.8946 31.5196 11 31.2652 11 31V19C11 18.7348 10.8946 18.4804 10.7071 18.2929C10.5196 18.1054 10.2652 18 9.99998 18ZM17 23C17 22.7348 17.1053 22.4804 17.2929 22.2929C17.4804 22.1054 17.7348 22 18 22C18.2652 22 18.5196 22.1054 18.7071 22.2929C18.8946 22.4804 19 22.7348 19 23V31C19 31.2652 18.8946 31.5196 18.7071 31.7071C18.5196 31.8946 18.2652 32 18 32C17.7348 32 17.4804 31.8946 17.2929 31.7071C17.1053 31.5196 17 31.2652 17 31V23ZM0.999981 25C0.999981 24.7348 1.10534 24.4804 1.29287 24.2929C1.48041 24.1054 1.73476 24 1.99998 24C2.2652 24 2.51955 24.1054 2.70709 24.2929C2.89462 24.4804 2.99998 24.7348 2.99998 25V31C2.99998 31.2652 2.89462 31.5196 2.70709 31.7071C2.51955 31.8946 2.2652 32 1.99998 32C1.73476 32 1.48041 31.8946 1.29287 31.7071C1.10534 31.5196 0.999981 31.2652 0.999981 31V25Z" fill="#53419A"/>
</svg>
