<svg width="34" height="38" viewBox="0 0 34 38" fill="none" xmlns="http://www.w3.org/2000/svg">
<path d="M10.125 1.9375C10.125 1.5894 10.2633 1.25556 10.5094 1.00942C10.7556 0.763281 11.0894 0.625 11.4375 0.625H21.9375C22.2856 0.625 22.6194 0.763281 22.8656 1.00942C23.1117 1.25556 23.25 1.5894 23.25 1.9375C23.25 2.2856 23.1117 2.61944 22.8656 2.86558C22.6194 3.11172 22.2856 3.25 21.9375 3.25H11.4375C11.0894 3.25 10.7556 3.11172 10.5094 2.86558C10.2633 2.61944 10.125 2.2856 10.125 1.9375Z" fill="white"/>
<path d="M16.6875 11.125C16.3394 11.125 16.0056 11.2633 15.7594 11.5094C15.5133 11.7556 15.375 12.0894 15.375 12.4375V22.9375C15.375 23.2856 15.5133 23.6194 15.7594 23.8656C16.0056 24.1117 16.3394 24.25 16.6875 24.25C17.0356 24.25 17.3694 24.1117 17.6156 23.8656C17.8617 23.6194 18 23.2856 18 22.9375V12.4375C18 12.0894 17.8617 11.7556 17.6156 11.5094C17.3694 11.2633 17.0356 11.125 16.6875 11.125Z" fill="white"/>
<path d="M32.4375 21.625C32.4375 25.8022 30.7781 29.8082 27.8244 32.7619C24.8707 35.7156 20.8647 37.375 16.6875 37.375C12.5103 37.375 8.50427 35.7156 5.55057 32.7619C2.59687 29.8082 0.9375 25.8022 0.9375 21.625C0.9375 17.4478 2.59687 13.4418 5.55057 10.4881C8.50427 7.53437 12.5103 5.875 16.6875 5.875C20.8647 5.875 24.8707 7.53437 27.8244 10.4881C30.7781 13.4418 32.4375 17.4478 32.4375 21.625ZM29.8125 21.625C29.8125 18.144 28.4297 14.8056 25.9683 12.3442C23.5069 9.88281 20.1685 8.5 16.6875 8.5C13.2065 8.5 9.86814 9.88281 7.40672 12.3442C4.94531 14.8056 3.5625 18.144 3.5625 21.625C3.5625 25.106 4.94531 28.4444 7.40672 30.9058C9.86814 33.3672 13.2065 34.75 16.6875 34.75C20.1685 34.75 23.5069 33.3672 25.9683 30.9058C28.4297 28.4444 29.8125 25.106 29.8125 21.625Z" fill="white"/>
<path d="M29.6891 4.93511C29.568 4.80976 29.4232 4.70977 29.2631 4.64098C29.103 4.57219 28.9307 4.53599 28.7565 4.53447C28.5822 4.53296 28.4094 4.56617 28.2481 4.63216C28.0868 4.69815 27.9402 4.79561 27.817 4.91885C27.6937 5.04208 27.5963 5.18862 27.5303 5.34992C27.4643 5.51123 27.4311 5.68406 27.4326 5.85833C27.4341 6.0326 27.4703 6.20483 27.5391 6.36496C27.6079 6.52509 27.7079 6.66992 27.8332 6.79099L31.5161 10.4739C31.6372 10.5992 31.782 10.6992 31.9422 10.768C32.1023 10.8368 32.2745 10.873 32.4488 10.8745C32.6231 10.876 32.7959 10.8428 32.9572 10.7768C33.1185 10.7108 33.265 10.6134 33.3883 10.4901C33.5115 10.3669 33.609 10.2204 33.6749 10.0591C33.7409 9.89775 33.7741 9.72492 33.7726 9.55065C33.7711 9.37638 33.7349 9.20415 33.6661 9.04402C33.5973 8.88389 33.4974 8.73906 33.372 8.61799L29.6891 4.93511Z" fill="white"/>
</svg>
