<svg width="42" height="42" viewBox="0 0 42 42" fill="none" xmlns="http://www.w3.org/2000/svg">
<path d="M34.125 39.375H14.4375C13.7415 39.3743 13.0742 39.0975 12.5821 38.6054C12.09 38.1133 11.8132 37.446 11.8125 36.75V28.875H14.4375V36.75H34.125V7.875H22.3125V5.25H34.125C34.821 5.25069 35.4883 5.52748 35.9804 6.01961C36.4725 6.51174 36.7493 7.17902 36.75 7.875V36.75C36.7493 37.446 36.4725 38.1133 35.9804 38.6054C35.4883 39.0975 34.821 39.3743 34.125 39.375Z" fill="white"/>
<path d="M22.3125 13.125H31.5V15.75H22.3125V13.125Z" fill="white"/>
<path d="M21 19.6875H31.5V22.3125H21V19.6875Z" fill="white"/>
<path d="M19.6875 26.25H31.5V28.875H19.6875V26.25Z" fill="white"/>
<path d="M11.8125 24.9375C10.0725 24.9358 8.40436 24.2438 7.17403 23.0135C5.9437 21.7831 5.25174 20.115 5.25 18.375V3.9375H7.875V18.375C7.875 19.4193 8.28984 20.4208 9.02827 21.1592C9.76669 21.8977 10.7682 22.3125 11.8125 22.3125C12.8568 22.3125 13.8583 21.8977 14.5967 21.1592C15.3352 20.4208 15.75 19.4193 15.75 18.375V6.5625C15.75 6.2144 15.6117 5.88056 15.3656 5.63442C15.1194 5.38828 14.7856 5.25 14.4375 5.25C14.0894 5.25 13.7556 5.38828 13.5094 5.63442C13.2633 5.88056 13.125 6.2144 13.125 6.5625V19.6875H10.5V6.5625C10.5 5.51821 10.9148 4.51669 11.6533 3.77827C12.3917 3.03984 13.3932 2.625 14.4375 2.625C15.4818 2.625 16.4833 3.03984 17.2217 3.77827C17.9602 4.51669 18.375 5.51821 18.375 6.5625V18.375C18.3733 20.115 17.6813 21.7831 16.451 23.0135C15.2206 24.2438 13.5525 24.9358 11.8125 24.9375Z" fill="white"/>
</svg>
