<svg width="477" height="785" viewBox="0 0 477 785" fill="none" xmlns="http://www.w3.org/2000/svg">
<g clip-path="url(#clip0)">
<path d="M97.418 398.635C101.991 401.234 107.805 399.634 110.404 395.062C113.003 390.489 111.403 384.675 106.831 382.076C102.258 379.477 96.444 381.077 93.8448 385.649C91.2455 390.222 92.8453 396.036 97.418 398.635Z" fill="#D6CDF9" fill-opacity="0.58"/>
<path d="M147.72 427.228C152.293 429.827 158.107 428.228 160.706 423.655C163.305 419.082 161.706 413.268 157.133 410.669C152.56 408.07 146.746 409.67 144.147 414.242C141.548 418.815 143.148 424.629 147.72 427.228Z" fill="#D6CDF9" fill-opacity="0.58"/>
<path d="M225.795 341.953C225.692 341.337 225.455 340.75 225.098 340.236C224.742 339.722 224.277 339.294 223.735 338.981L147.123 295.433L145.331 304.152L214.731 343.601L179.806 382.173L124.61 350.798L138.06 287.993C138.199 287.324 138.175 286.632 137.989 285.975C137.802 285.319 137.46 284.716 136.991 284.22L124.539 271.008C124.156 270.602 123.697 270.275 123.188 270.046C122.679 269.817 122.13 269.691 121.572 269.675C120.445 269.641 119.351 270.057 118.53 270.83C117.71 271.603 117.23 272.671 117.197 273.798C117.163 274.925 117.579 276.019 118.352 276.839L129.262 288.396L115.823 351.353L106.985 352.854L106.235 353.06C103.764 353.932 101.675 355.638 100.327 357.885C98.9787 360.131 98.4563 362.777 98.8494 365.367C99.1591 367.157 99.8833 368.85 100.964 370.31C102.045 371.769 103.453 372.956 105.074 373.774L166.489 408.685C167.465 409.239 168.622 409.384 169.704 409.086C170.786 408.788 171.706 408.072 172.261 407.096C172.816 406.12 172.96 404.964 172.662 403.882C172.364 402.799 171.649 401.88 170.673 401.325L108.669 366.08C108.253 365.825 107.91 365.467 107.674 365.04C107.437 364.614 107.314 364.134 107.318 363.646C107.321 363.158 107.45 362.68 107.692 362.256C107.934 361.833 108.281 361.479 108.7 361.229L121.751 358.911L178.567 391.206C179.406 391.71 180.393 391.908 181.362 391.766C182.33 391.624 183.219 391.151 183.878 390.427L224.826 345.541C225.25 345.056 225.558 344.481 225.726 343.859C225.893 343.238 225.917 342.586 225.795 341.953Z" fill="#D6CDF9" fill-opacity="0.58"/>
</g>
<g clip-path="url(#clip1)">
<path fill-rule="evenodd" clip-rule="evenodd" d="M273.342 449.871L271.907 449.599C270.202 449.273 268.455 449.457 266.825 450.134C265.196 450.811 263.738 451.959 262.583 453.472C261.428 454.985 260.614 456.816 260.216 458.796C259.818 460.776 259.848 462.842 260.304 464.805L261.812 471.294C262.566 474.54 264.297 477.353 266.681 479.208C269.065 481.063 271.941 481.834 274.771 481.378L279.156 480.67C281.987 480.212 284.581 478.558 286.453 476.015C288.326 473.471 289.35 470.213 289.334 466.846L289.304 460.119C289.295 458.085 288.851 456.086 288.015 454.306C287.18 452.525 285.978 451.021 284.52 449.93C283.063 448.838 281.396 448.196 279.673 448.06C277.949 447.925 276.225 448.301 274.657 449.155L273.338 449.872L273.342 449.871ZM269.604 458.794C269.944 458.686 270.3 458.665 270.647 458.733L274.449 459.459L277.948 457.55C278.323 457.346 278.735 457.256 279.147 457.289C279.559 457.321 279.958 457.475 280.306 457.736C280.654 457.998 280.941 458.358 281.141 458.783C281.34 459.209 281.446 459.687 281.448 460.174L281.477 466.896C281.482 468.018 281.141 469.105 280.518 469.953C279.894 470.801 279.029 471.353 278.086 471.505L273.705 472.213C272.761 472.364 271.803 472.107 271.008 471.488C270.214 470.869 269.637 469.931 269.386 468.848L267.879 462.364C267.706 461.621 267.791 460.828 268.114 460.158C268.437 459.489 268.973 458.998 269.604 458.794Z" fill="#9BE1A6" fill-opacity="0.42"/>
<path fill-rule="evenodd" clip-rule="evenodd" d="M283.923 472.898L267.479 475.552C265.379 475.89 263.395 476.889 261.736 478.444C255.669 484.139 251.393 490.138 248.908 496.435C248.111 498.45 247.289 500.305 246.515 502.036C243.152 509.578 240.816 514.805 246.744 520.865C254.033 528.33 268.014 531.489 281.123 529.373C294.233 527.257 306.923 522.01 314.16 509.987C319.517 501.079 316.501 497.985 311.807 493.163C310.16 491.473 308.306 489.573 306.536 487.133C302.557 481.65 297.043 477.208 289.993 473.804C288.072 472.877 285.978 472.565 283.923 472.898ZM300.561 493.144C301.472 494.397 302.43 495.578 303.471 496.759C303.685 497.005 304.341 497.702 305.141 498.544C306.416 499.897 308.061 501.639 308.87 502.564C308.655 503.033 308.296 503.726 307.748 504.636C302.71 513.012 293.326 518.066 280.057 520.208C268.745 522.034 257.127 519.227 251.895 513.876C251.019 512.986 250.958 512.972 250.956 512.954L250.959 512.948C251.013 512.389 251.344 511.285 252.112 509.438L253.033 507.338C253.879 505.413 255.065 502.724 255.571 501.485C255.728 501.1 255.885 500.715 256.031 500.337C257.966 495.44 261.462 490.534 266.632 485.68C267.186 485.161 267.848 484.828 268.549 484.716L284.993 482.062C285.679 481.951 286.377 482.056 287.017 482.365C292.967 485.238 297.45 488.851 300.565 493.143L300.561 493.144Z" fill="#9BE1A6" fill-opacity="0.42"/>
<path d="M256.253 445.977C255.866 445.177 255.764 444.23 255.971 443.342C256.177 442.455 256.674 441.7 257.353 441.245C258.031 440.789 258.836 440.67 259.589 440.913C260.342 441.156 260.983 441.742 261.37 442.541L266.592 453.369C266.959 454.167 267.047 455.103 266.835 455.976C266.623 456.848 266.13 457.588 265.46 458.037C264.79 458.486 263.998 458.608 263.253 458.377C262.508 458.146 261.87 457.58 261.475 456.801L256.252 445.972L256.253 445.977Z" fill="#9BE1A6" fill-opacity="0.42"/>
<path d="M283.186 439.026C283.389 438.151 283.874 437.403 284.539 436.945C285.204 436.486 285.995 436.352 286.742 436.573C287.49 436.793 288.134 437.349 288.537 438.123C288.94 438.896 289.07 439.825 288.899 440.709L286.341 452.794C286.139 453.669 285.653 454.417 284.988 454.876C284.324 455.334 283.533 455.468 282.785 455.248C282.038 455.028 281.394 454.471 280.99 453.698C280.587 452.924 280.457 451.996 280.629 451.111L283.186 439.026Z" fill="#9BE1A6" fill-opacity="0.42"/>
<path d="M276.62 495.085C276.549 494.477 276.686 493.862 277.001 493.373C277.316 492.884 277.782 492.563 278.298 492.48C278.814 492.397 279.337 492.558 279.752 492.929C280.166 493.3 280.439 493.849 280.51 494.457L282.642 512.787C282.713 513.395 282.576 514.011 282.261 514.5C281.946 514.988 281.479 515.309 280.963 515.393C280.448 515.476 279.925 515.314 279.51 514.944C279.095 514.573 278.823 514.023 278.752 513.415L276.62 495.085Z" fill="#9BE1A6" fill-opacity="0.42"/>
<path d="M266.981 495.6C267.056 495.3 267.18 495.021 267.348 494.78C267.516 494.539 267.724 494.34 267.959 494.196C268.194 494.052 268.451 493.965 268.716 493.941C268.98 493.917 269.245 493.956 269.496 494.056C269.747 494.156 269.978 494.315 270.176 494.523C270.373 494.732 270.533 494.985 270.645 495.267C270.757 495.55 270.819 495.857 270.828 496.168C270.837 496.48 270.793 496.791 270.697 497.082L266.465 511.809C266.286 512.371 265.928 512.83 265.467 513.087C265.006 513.345 264.478 513.38 263.995 513.187C263.512 512.994 263.112 512.587 262.879 512.052C262.647 511.517 262.6 510.896 262.749 510.322L266.981 495.6Z" fill="#9BE1A6" fill-opacity="0.42"/>
<path d="M289.909 491.894C289.765 491.641 289.579 491.424 289.362 491.256C289.146 491.088 288.904 490.972 288.649 490.915C288.395 490.857 288.133 490.86 287.88 490.923C287.626 490.985 287.385 491.106 287.172 491.279C286.958 491.451 286.775 491.672 286.634 491.928C286.493 492.184 286.397 492.47 286.35 492.771C286.303 493.071 286.308 493.379 286.363 493.677C286.418 493.975 286.522 494.258 286.67 494.508L294.105 507.314C294.25 507.567 294.436 507.784 294.652 507.952C294.868 508.12 295.11 508.236 295.365 508.293C295.619 508.351 295.881 508.348 296.135 508.285C296.388 508.223 296.629 508.102 296.843 507.929C297.056 507.757 297.239 507.536 297.38 507.28C297.521 507.024 297.618 506.738 297.664 506.438C297.711 506.137 297.706 505.829 297.651 505.531C297.596 505.233 297.492 504.95 297.344 504.7L289.909 491.894Z" fill="#9BE1A6" fill-opacity="0.42"/>
</g>
<g clip-path="url(#clip2)">
<path d="M245.821 560.776L287.96 561.484C289.726 561.513 291.456 560.826 292.742 559.583L310.138 542.762C312.807 540.181 312.879 535.886 310.298 533.217L293.477 515.821C292.234 514.535 290.528 513.79 288.738 513.784L246.598 513.077C242.876 513.014 239.795 515.993 239.732 519.716L239.157 553.933C239.095 557.656 242.051 560.713 245.821 560.776ZM289.996 534.07C292.01 532.122 295.207 532.176 297.155 534.19C299.102 536.204 299.048 539.401 297.034 541.348C295.021 543.295 291.823 543.242 289.876 541.228C287.929 539.214 287.982 536.017 289.996 534.07Z" fill="#E5E5E5"/>
</g>
<path d="M407.083 402.416C408.029 400.875 408.649 399.156 408.905 397.366C409.16 395.576 409.046 393.752 408.568 392.008C408.201 390.327 407.746 388.666 407.206 387.032L422.375 378.611C423.691 381.725 424.163 385.13 423.743 388.485C423.688 388.73 423.683 388.985 423.726 389.233C423.77 389.481 423.862 389.718 423.997 389.93C424.132 390.142 424.308 390.326 424.514 390.471C424.72 390.615 424.953 390.718 425.199 390.772C425.445 390.827 425.699 390.832 425.947 390.789C426.195 390.745 426.432 390.653 426.644 390.518C426.857 390.383 427.04 390.207 427.185 390.001C427.329 389.795 427.432 389.562 427.486 389.316C428.13 385.043 427.528 380.675 425.753 376.736L430.937 373.858C431.381 373.611 431.708 373.199 431.848 372.711C431.988 372.224 431.928 371.7 431.681 371.257C431.435 370.813 431.023 370.486 430.535 370.346C430.047 370.207 429.524 370.267 429.08 370.513L424.063 373.298C419.811 366.033 413.892 364.002 410.044 364.519C407.551 364.824 405.245 366.001 403.536 367.843C401.828 369.684 400.826 372.071 400.709 374.581C400.561 378.221 401.203 381.851 402.59 385.22L387.271 393.724C385.067 389.236 384.35 384.163 385.224 379.24C385.32 378.988 385.362 378.719 385.347 378.451C385.332 378.182 385.261 377.919 385.137 377.68C385.014 377.441 384.842 377.23 384.631 377.062C384.421 376.894 384.178 376.772 383.917 376.705C383.657 376.637 383.385 376.625 383.12 376.67C382.854 376.715 382.601 376.815 382.377 376.964C382.153 377.113 381.963 377.308 381.819 377.536C381.676 377.764 381.582 378.019 381.544 378.285C380.397 384.155 381.235 390.24 383.926 395.581L378.909 398.367C378.465 398.613 378.138 399.025 377.998 399.513C377.859 400.001 377.919 400.524 378.165 400.967C378.411 401.411 378.824 401.739 379.311 401.878C379.799 402.018 380.322 401.958 380.766 401.711L385.783 398.926C388.719 403.466 393.242 408.065 400.521 406.715C401.845 406.467 403.106 405.96 404.232 405.222C405.358 404.484 406.327 403.53 407.083 402.416ZM404.568 374.911C404.617 373.286 405.244 371.732 406.336 370.528C407.428 369.324 408.914 368.549 410.526 368.343C411.13 368.248 416.368 367.791 420.719 375.155L406.002 383.326C404.938 380.653 404.449 377.785 404.568 374.911ZM399.894 402.906C395.647 403.689 392.439 401.969 389.195 397.032L403.795 388.927C404.155 390.127 404.5 391.379 404.799 392.745C405.161 393.99 405.267 395.296 405.109 396.584C404.951 397.871 404.533 399.113 403.88 400.234C402.95 401.609 401.52 402.567 399.894 402.906Z" fill="#CDB991" fill-opacity="0.5"/>
<path d="M134.274 699.01C131.269 683.577 128.783 674.817 126.881 672.972C125.374 671.519 122.33 670.585 116.626 668.924C112.356 667.683 107.045 666.137 104.879 664.677L102.836 663.301L100.708 664.909C100.548 665.026 92.9212 670.566 84.7499 668.926C76.5268 667.275 72.6411 659.346 72.6031 659.265L71.5362 657.038L69.0003 657.477C66.2915 657.96 60.7293 657.321 56.2581 656.806C50.2801 656.121 47.0626 655.798 44.9536 656.523C42.2698 657.45 35.4121 664.335 24.5653 676.986L23.3989 678.345L23.6168 680.031C25.6498 695.873 39.1744 701.982 39.7497 702.235L41.5491 703.024L24.828 755.492L24.1416 757.648L25.6606 759.097C40.0725 772.862 69.6829 778.806 89.8484 771.983L91.973 771.264L92.4981 769.077L105.312 715.825L107.338 715.803C107.986 715.796 123.307 715.477 133.507 702.091L134.598 700.667L134.274 699.01ZM123.405 702.647C117.997 707.02 112.322 708.9 106.503 708.258L104.821 702.708L88.9871 768.515C69.4052 775.141 42.2647 769.695 28.2669 756.326L48.9291 691.488L44.6294 695.712C39.0917 694.074 35.0119 690.231 32.4957 684.274C31.3696 681.557 30.6308 678.671 30.2993 675.693L30.1193 675.895C34.7878 670.584 43.6469 660.738 45.8371 659.981C48.503 659.063 60.103 661.476 66.9342 661.278C68.1569 663.404 69.5979 665.387 71.2362 667.198C72.754 668.87 74.4783 670.342 76.374 671.584C78.6701 673.068 81.1112 674.076 83.6465 674.585L83.7206 674.6C86.7921 675.2 90.0075 675.075 93.2841 674.22C96.9001 673.278 100.63 671.423 104.391 668.722C110.297 671.558 122.326 673.857 124.256 675.724C125.807 677.229 128.506 689.321 129.873 695.861C128.011 698.379 125.835 700.662 123.405 702.647Z" fill="#F7E6C6"/>
<g clip-path="url(#clip3)">
<path d="M360.597 21.9278C359.937 22.3547 359.467 23.0198 359.284 23.7846C359.102 24.5494 359.221 25.3552 359.618 26.0342C360.014 26.7132 360.657 27.2132 361.413 27.4302C362.169 27.6471 362.979 27.5644 363.675 27.1991C376.015 20.0195 387.678 27.2377 394.327 33.1776L390.84 36.7781C389.671 37.9881 388.957 40.3237 389.258 41.9733L392.401 57.763C392.835 59.6822 393.779 61.4484 395.134 62.875L436.845 103.091C437.818 104.025 439.121 104.537 440.47 104.512C441.819 104.488 443.104 103.93 444.043 102.961L470.204 75.9098C472.151 73.8848 471.386 71.4047 469.37 69.4509L427.654 29.2364C426.447 28.0822 424.104 26.9328 422.437 26.6913L405.884 24.7766C404.222 24.5341 401.912 25.3281 400.743 26.5381L398.618 28.7315C389.624 20.7678 375.059 13.5174 360.597 21.9278ZM411.2 34.572C411.968 35.3131 412.582 36.1981 413.007 37.1764C413.432 38.1548 413.66 39.2074 413.679 40.2741C413.697 41.3407 413.505 42.4005 413.113 43.3929C412.722 44.3852 412.139 45.2908 411.397 46.0577C409.897 47.6104 407.842 48.5043 405.683 48.5432C403.524 48.5821 401.438 47.7629 399.883 46.2653C398.666 45.0909 397.846 43.5655 397.538 41.9023C397.23 40.2392 397.45 38.5214 398.166 36.9891C399.241 38.1793 399.897 39.0137 400.005 39.1727C400.418 39.7302 401.008 40.1311 401.678 40.3096C402.348 40.4881 403.059 40.4337 403.694 40.1553C404.329 39.8769 404.851 39.391 405.174 38.7772C405.497 38.1635 405.602 37.4582 405.471 36.7771C405.388 36.3508 405.204 35.9338 404.931 35.56C404.288 34.687 403.547 33.761 402.698 32.8097C404.138 32.273 405.699 32.1536 407.203 32.4654C408.708 32.7771 410.093 33.5074 411.2 34.572Z" fill="#9A4176" fill-opacity="0.21"/>
</g>
<g clip-path="url(#clip4)">
<path d="M397.131 217.984C397.699 217.753 398.336 217.756 398.901 217.994C399.466 218.232 399.914 218.685 400.145 219.253L405.384 232.101L418.232 226.863C418.8 226.631 419.436 226.635 420.002 226.873C420.567 227.111 421.015 227.563 421.246 228.131C421.478 228.699 421.474 229.336 421.236 229.901C420.998 230.466 420.546 230.914 419.978 231.146L407.13 236.384L412.368 249.232C412.599 249.8 412.596 250.437 412.358 251.002C412.12 251.567 411.667 252.015 411.099 252.246C410.531 252.478 409.895 252.474 409.329 252.236C408.764 251.999 408.317 251.546 408.085 250.978L402.847 238.13L389.999 243.368C389.431 243.599 388.794 243.596 388.229 243.358C387.663 243.12 387.216 242.667 386.984 242.1C386.753 241.532 386.756 240.895 386.994 240.33C387.232 239.764 387.685 239.317 388.253 239.085L401.101 233.847L395.863 220.999C395.631 220.431 395.635 219.794 395.873 219.229C396.11 218.664 396.563 218.216 397.131 217.984V217.984Z" fill="#9BE1A6" fill-opacity="0.42"/>
</g>
<defs>
<clipPath id="clip0">
<rect width="152.377" height="152.377" fill="white" transform="translate(115.3 253) rotate(29.615)"/>
</clipPath>
<clipPath id="clip1">
<rect width="78.8095" height="92.2693" fill="white" transform="matrix(0.98722 -0.159362 0.115548 0.993302 233 443.769)"/>
</clipPath>
<clipPath id="clip2">
<rect width="81" height="81" fill="white" transform="translate(324.535 538.23) rotate(135.962)"/>
</clipPath>
<clipPath id="clip3">
<rect width="101" height="101" fill="white" transform="translate(377.285 118.427) rotate(-101.007)"/>
</clipPath>
<clipPath id="clip4">
<rect width="37" height="37" fill="white" transform="translate(380 224.969) rotate(-22.1804)"/>
</clipPath>
</defs>
</svg>
