<svg width="443" height="657" viewBox="0 0 443 657" fill="none" xmlns="http://www.w3.org/2000/svg">
<g clip-path="url(#clip0)">
<path d="M75.3102 318.835C80.5153 318.078 84.1218 313.246 83.3655 308.041C82.6093 302.836 77.7767 299.229 72.5716 299.985C67.3665 300.742 63.76 305.574 64.5163 310.779C65.2725 315.984 70.1051 319.591 75.3102 318.835Z" fill="#D6CDF9" fill-opacity="0.58"/>
<path d="M132.57 310.515C137.775 309.759 141.382 304.927 140.626 299.721C139.869 294.516 135.037 290.91 129.832 291.666C124.627 292.422 121.02 297.255 121.776 302.46C122.533 307.665 127.365 311.272 132.57 310.515Z" fill="#D6CDF9" fill-opacity="0.58"/>
<path d="M141.831 195.269C141.372 194.845 140.824 194.529 140.227 194.342C139.631 194.155 139 194.102 138.381 194.188L51.1714 206.859L55.1112 214.841L134.111 203.363L130.23 255.252L67.3988 264.381L39.4501 206.551C39.1496 205.938 38.7053 205.407 38.155 205.003C37.6047 204.599 36.9649 204.334 36.29 204.23L18.3494 201.448C17.7978 201.362 17.2347 201.386 16.6923 201.518C16.1499 201.65 15.6388 201.888 15.1882 202.218C14.2783 202.883 13.67 203.883 13.4973 204.997C13.3245 206.111 13.6014 207.248 14.267 208.158C14.9326 209.068 15.9324 209.676 17.0465 209.849L32.7535 212.272L60.8042 270.215L54.7501 276.826L54.2847 277.45C52.87 279.655 52.2686 282.284 52.584 284.885C52.8994 287.486 54.1119 289.895 56.0127 291.698C57.3561 292.921 58.967 293.812 60.7164 294.3C62.4659 294.789 64.3054 294.861 66.0878 294.512L135.998 284.354C137.109 284.193 138.11 283.597 138.781 282.697C139.453 281.798 139.739 280.668 139.578 279.557C139.416 278.446 138.82 277.445 137.921 276.773C137.021 276.102 135.891 275.816 134.781 275.977L64.2005 286.232C63.7157 286.285 63.2253 286.213 62.7767 286.022C62.3281 285.83 61.9363 285.527 61.6393 285.14C61.3423 284.753 61.1501 284.296 61.0813 283.813C61.0124 283.33 61.0692 282.838 61.2462 282.384L70.1239 272.539L134.798 263.143C135.77 263.026 136.671 262.576 137.348 261.869C138.025 261.163 138.436 260.243 138.512 259.267L143.27 198.696C143.307 198.053 143.196 197.41 142.947 196.816C142.697 196.222 142.316 195.693 141.831 195.269Z" fill="#D6CDF9" fill-opacity="0.58"/>
</g>
<g clip-path="url(#clip1)">
<path d="M373.022 27.1502L359.382 67.0273C358.811 68.6983 358.932 70.5558 359.719 72.1619L370.372 93.8899C372.006 97.2233 376.071 98.6136 379.404 96.9793L401.132 86.3269C402.738 85.5394 403.972 84.1454 404.528 82.4441L418.168 42.567C419.373 39.0444 417.486 35.1958 413.964 33.9909L381.583 22.9154C378.061 21.7105 374.242 23.5825 373.022 27.1502ZM384.84 77.3997C386.073 79.9149 385.038 82.9407 382.523 84.1739C380.008 85.407 376.982 84.372 375.749 81.8568C374.516 79.3416 375.551 76.3158 378.066 75.0826C380.581 73.8495 383.607 74.8845 384.84 77.3997Z" fill="#E5E5E5"/>
</g>
<g clip-path="url(#clip2)">
<path d="M240.044 132.714C239.845 130.916 239.279 129.179 238.381 127.609C237.484 126.039 236.274 124.67 234.826 123.587C233.503 122.486 232.125 121.454 230.695 120.496L237.497 104.535C240.447 106.185 242.911 108.583 244.639 111.488C244.747 111.716 244.899 111.92 245.085 112.089C245.272 112.258 245.49 112.388 245.727 112.473C245.964 112.557 246.216 112.594 246.467 112.582C246.719 112.569 246.965 112.507 247.193 112.4C247.42 112.292 247.624 112.14 247.793 111.953C247.962 111.767 248.093 111.549 248.177 111.312C248.262 111.074 248.299 110.823 248.287 110.571C248.274 110.32 248.212 110.073 248.104 109.846C245.989 106.078 242.832 103 239.011 100.981L241.336 95.5257C241.535 95.059 241.54 94.5324 241.351 94.0618C241.161 93.5911 240.793 93.215 240.326 93.0161C239.859 92.8172 239.333 92.8119 238.862 93.0013C238.392 93.1907 238.015 93.5592 237.817 94.0259L235.567 99.3051C227.749 96.1816 221.831 98.2132 219.111 100.984C217.33 102.756 216.233 105.1 216.016 107.603C215.798 110.106 216.473 112.605 217.921 114.658C220.04 117.622 222.775 120.092 225.939 121.9L219.07 138.019C214.574 135.83 210.893 132.266 208.56 127.843C208.481 127.586 208.349 127.348 208.173 127.145C207.996 126.942 207.778 126.778 207.534 126.665C207.29 126.552 207.024 126.492 206.755 126.488C206.486 126.485 206.219 126.538 205.972 126.645C205.725 126.751 205.503 126.909 205.321 127.107C205.139 127.306 205.001 127.54 204.916 127.795C204.831 128.051 204.8 128.321 204.827 128.589C204.853 128.857 204.936 129.116 205.069 129.35C207.768 134.687 212.166 138.975 217.57 141.538L215.32 146.817C215.121 147.284 215.116 147.811 215.305 148.281C215.495 148.752 215.863 149.128 216.33 149.327C216.797 149.526 217.323 149.531 217.794 149.342C218.265 149.152 218.641 148.784 218.84 148.317L221.089 143.038C226.194 144.818 232.588 145.672 237.505 140.136C238.397 139.128 239.081 137.953 239.517 136.679C239.952 135.405 240.132 134.057 240.044 132.714ZM221.17 112.549C220.211 111.236 219.751 109.625 219.874 108.004C219.997 106.383 220.694 104.859 221.84 103.706C222.258 103.261 226.111 99.6837 234.067 102.825L227.468 118.31C224.987 116.854 222.841 114.89 221.17 112.549ZM234.671 137.514C231.799 140.74 228.211 141.353 222.619 139.448L229.166 124.086C230.187 124.812 231.228 125.589 232.303 126.483C233.353 127.243 234.239 128.209 234.905 129.322C235.571 130.435 236.003 131.672 236.176 132.958C236.286 134.615 235.746 136.249 234.671 137.514Z" fill="#CDB991" fill-opacity="0.5"/>
</g>
<path d="M246.748 524.084C234.901 513.748 227.559 508.361 224.925 508.072C222.844 507.85 219.867 508.983 214.346 511.174C210.213 512.817 205.072 514.858 202.466 515.035L200.009 515.204L199.316 517.779C199.262 517.97 196.644 527.026 189.187 530.748C181.683 534.495 173.748 530.623 173.668 530.582L171.459 529.479L169.726 531.383C167.885 533.428 163.103 536.339 159.257 538.677C154.119 541.808 151.381 543.528 150.161 545.396C148.612 547.775 147.427 557.42 146.634 574.066L146.548 575.854L147.755 577.051C159.087 588.307 173.513 584.824 174.123 584.671L176.028 584.189L195.047 635.868L195.829 637.991L197.918 638.202C217.745 640.217 244.765 626.727 256.492 608.959L257.728 607.087L256.799 605.038L234.214 555.139L235.8 553.878C236.307 553.474 248.203 543.816 248.035 526.986L248.022 525.193L246.748 524.084ZM240.403 533.628C238.819 540.401 235.495 545.37 230.507 548.436L225.773 545.088L253.683 606.751C242.296 624.004 217.53 636.371 198.273 634.414L174.769 570.552L173.968 576.525C168.592 578.634 163.013 578.106 157.368 574.948C154.812 573.496 152.456 571.671 150.366 569.524L150.348 569.795C150.771 562.736 151.718 549.525 152.982 547.583C154.523 545.221 165.159 540.002 170.43 535.652C172.701 536.579 175.056 537.26 177.461 537.683C179.685 538.071 181.95 538.174 184.209 537.99C186.932 537.751 189.478 537.048 191.791 535.893L191.859 535.859C194.652 534.447 197.113 532.374 199.174 529.687C201.45 526.723 203.255 522.968 204.565 518.527C210.967 517.139 221.873 511.568 224.543 511.856C226.691 512.092 236.247 519.979 241.341 524.301C241.418 527.432 241.102 530.57 240.403 533.628Z" fill="#F7E6C6"/>
<g clip-path="url(#clip3)">
<path d="M215.131 410.983C215.699 410.751 216.335 410.755 216.901 410.992C217.466 411.23 217.914 411.683 218.145 412.251L223.383 425.099L236.232 419.861C236.799 419.63 237.436 419.633 238.001 419.871C238.567 420.109 239.014 420.562 239.246 421.129C239.477 421.697 239.474 422.334 239.236 422.899C238.998 423.465 238.546 423.912 237.978 424.144L225.129 429.382L230.367 442.23C230.599 442.798 230.595 443.435 230.358 444C230.12 444.565 229.667 445.013 229.099 445.245C228.531 445.476 227.895 445.473 227.329 445.235C226.764 444.997 226.316 444.544 226.085 443.976L220.847 431.128L207.998 436.366C207.43 436.598 206.794 436.594 206.228 436.356C205.663 436.118 205.215 435.666 204.984 435.098C204.752 434.53 204.756 433.893 204.994 433.328C205.232 432.763 205.684 432.315 206.252 432.083L219.101 426.845L213.862 413.997C213.631 413.429 213.634 412.792 213.872 412.227C214.11 411.662 214.563 411.214 215.131 410.983V410.983Z" fill="#9BE1A6" fill-opacity="0.42"/>
</g>
<g clip-path="url(#clip4)">
<path d="M238.597 284.926C237.937 285.353 237.467 286.018 237.284 286.783C237.102 287.548 237.221 288.353 237.618 289.032C238.014 289.711 238.657 290.211 239.413 290.428C240.169 290.645 240.979 290.563 241.675 290.197C254.015 283.018 265.677 290.236 272.327 296.176L268.84 299.776C267.671 300.986 266.957 303.322 267.258 304.972L270.401 320.761C270.835 322.68 271.779 324.447 273.134 325.873L314.845 366.089C315.818 367.024 317.121 367.535 318.47 367.511C319.819 367.487 321.104 366.929 322.043 365.959L348.204 338.908C350.151 336.883 349.386 334.403 347.37 332.449L305.654 292.235C304.447 291.08 302.104 289.931 300.436 289.69L283.884 287.775C282.222 287.532 279.912 288.326 278.743 289.536L276.617 291.73C267.624 283.766 253.059 276.516 238.597 284.926ZM289.2 297.57C289.968 298.311 290.582 299.196 291.007 300.175C291.432 301.153 291.66 302.206 291.679 303.272C291.697 304.339 291.505 305.399 291.113 306.391C290.722 307.384 290.139 308.289 289.397 309.056C287.897 310.609 285.842 311.503 283.683 311.541C281.524 311.58 279.438 310.761 277.883 309.264C276.666 308.089 275.846 306.564 275.538 304.901C275.23 303.237 275.45 301.52 276.166 299.987C277.241 301.178 277.897 302.012 278.005 302.171C278.418 302.729 279.008 303.129 279.678 303.308C280.348 303.486 281.059 303.432 281.694 303.154C282.329 302.875 282.851 302.389 283.174 301.776C283.497 301.162 283.602 300.457 283.471 299.775C283.388 299.349 283.204 298.932 282.931 298.558C282.288 297.685 281.547 296.759 280.698 295.808C282.137 295.271 283.699 295.152 285.203 295.464C286.707 295.775 288.093 296.506 289.2 297.57Z" fill="#9A4176" fill-opacity="0.21"/>
</g>
<defs>
<clipPath id="clip0">
<rect width="152.377" height="152.377" fill="white" transform="translate(0 192.908) rotate(-8.26665)"/>
</clipPath>
<clipPath id="clip1">
<rect width="81" height="81" fill="white" transform="translate(370.254 108.983) rotate(-116.117)"/>
</clipPath>
<clipPath id="clip2">
<rect width="68.8618" height="68.8618" fill="white" transform="translate(210.151 75.999) rotate(23.0806)"/>
</clipPath>
<clipPath id="clip3">
<rect width="37" height="37" fill="white" transform="translate(198 417.967) rotate(-22.1804)"/>
</clipPath>
<clipPath id="clip4">
<rect width="101" height="101" fill="white" transform="translate(255.284 381.425) rotate(-101.007)"/>
</clipPath>
</defs>
</svg>
