<svg width="425" height="701" viewBox="0 0 425 701" fill="none" xmlns="http://www.w3.org/2000/svg">
<g clip-path="url(#clip0)">
<path d="M92.2635 156.978C97.3106 155.498 100.202 150.206 98.7216 145.159C97.2412 140.112 91.9496 137.221 86.9025 138.701C81.8554 140.182 78.964 145.473 80.4444 150.52C81.9248 155.567 87.2164 158.459 92.2635 156.978Z" fill="#D6CDF9" fill-opacity="0.58"/>
<path d="M147.786 140.693C152.833 139.213 155.724 133.921 154.244 128.874C152.763 123.827 147.472 120.935 142.425 122.416C137.377 123.896 134.486 129.188 135.966 134.235C137.447 139.282 142.738 142.173 147.786 140.693Z" fill="#D6CDF9" fill-opacity="0.58"/>
<path d="M140.755 25.2894C140.24 24.9344 139.653 24.6977 139.036 24.5965C138.42 24.4953 137.788 24.532 137.187 24.704L52.6243 49.5074L57.647 56.8562L134.249 34.3878L137.7 86.3078L76.7762 104.178L40.9762 50.8508C40.5926 50.2861 40.078 49.8225 39.4763 49.4997C38.8747 49.1769 38.2039 49.0045 37.5212 48.997L19.3676 48.7639C18.8094 48.7567 18.2553 48.8596 17.7369 49.0666C17.2184 49.2736 16.7458 49.5807 16.3461 49.9703C15.5387 50.7572 15.077 51.8326 15.0626 52.9599C15.0481 54.0873 15.4821 55.1742 16.269 55.9815C17.0559 56.7889 18.1313 57.2506 19.2586 57.265L35.1502 57.4559L71.0672 110.881L66.0025 118.277L65.6294 118.96C64.5387 121.342 64.3128 124.03 64.9907 126.561C65.6685 129.091 67.2077 131.306 69.3431 132.824C70.845 133.846 72.5651 134.502 74.3659 134.739C76.1666 134.977 77.998 134.79 79.7136 134.193L147.502 114.31C148.579 113.994 149.486 113.263 150.025 112.278C150.563 111.293 150.688 110.134 150.372 109.057C150.056 107.98 149.325 107.072 148.34 106.534C147.355 105.996 146.196 105.871 145.119 106.187L76.6811 126.261C76.2087 126.382 75.713 126.379 75.242 126.253C74.7709 126.127 74.3404 125.881 73.9919 125.54C73.6435 125.199 73.389 124.773 73.2529 124.305C73.1169 123.837 73.1039 123.341 73.2153 122.866L80.621 111.872L143.332 93.4779C144.278 93.2254 145.107 92.6531 145.678 91.8583C146.249 91.0634 146.527 90.0953 146.464 89.1185L142.661 28.4797C142.607 27.838 142.407 27.217 142.077 26.6642C141.747 26.1113 141.294 25.6412 140.755 25.2894Z" fill="#D6CDF9" fill-opacity="0.58"/>
</g>
<path d="M386.491 692.259L416.292 662.457C417.541 661.209 418.25 659.487 418.25 657.699L418.25 633.5C418.25 629.787 415.212 626.75 411.5 626.75L387.301 626.75C385.512 626.75 383.791 627.459 382.542 628.741L352.741 658.542C350.109 661.175 350.109 665.461 352.741 668.094L376.94 692.292C379.572 694.925 383.825 694.925 386.491 692.259ZM398 641.937C398 639.136 400.261 636.875 403.062 636.875C405.864 636.875 408.125 639.136 408.125 641.937C408.125 644.739 405.864 647 403.062 647C400.261 647 398 644.739 398 641.937Z" fill="#E5E5E5"/>
<path d="M273.391 194.95C272.941 193.198 272.136 191.558 271.027 190.13C269.918 188.702 268.527 187.516 266.942 186.647C265.478 185.743 263.968 184.915 262.418 184.168L266.908 167.409C270.061 168.628 272.838 170.656 274.957 173.289C275.096 173.499 275.274 173.68 275.483 173.821C275.692 173.962 275.926 174.06 276.173 174.111C276.419 174.161 276.673 174.163 276.921 174.115C277.168 174.067 277.403 173.971 277.613 173.832C277.824 173.694 278.004 173.515 278.145 173.306C278.286 173.098 278.385 172.863 278.435 172.617C278.486 172.37 278.487 172.116 278.439 171.869C278.392 171.621 278.296 171.386 278.157 171.176C275.533 167.743 271.974 165.14 267.908 163.677L269.443 157.949C269.574 157.459 269.505 156.937 269.252 156.498C268.998 156.059 268.58 155.738 268.09 155.607C267.6 155.475 267.078 155.544 266.639 155.798C266.199 156.051 265.879 156.469 265.748 156.959L264.262 162.502C256.083 160.509 250.509 163.352 248.206 166.478C246.692 168.482 245.935 170.958 246.071 173.466C246.208 175.975 247.227 178.354 248.95 180.183C251.464 182.82 254.519 184.881 257.906 186.226L253.371 203.15C248.612 201.615 244.466 198.604 241.535 194.553C241.421 194.309 241.257 194.092 241.053 193.916C240.85 193.74 240.611 193.609 240.354 193.531C240.096 193.454 239.825 193.431 239.558 193.465C239.291 193.5 239.034 193.59 238.805 193.73C238.575 193.871 238.377 194.058 238.225 194.28C238.073 194.502 237.969 194.753 237.92 195.018C237.872 195.283 237.88 195.555 237.944 195.816C238.007 196.078 238.126 196.323 238.291 196.535C241.713 201.44 246.67 205.068 252.38 206.846L250.895 212.389C250.764 212.879 250.833 213.401 251.086 213.84C251.34 214.28 251.758 214.6 252.248 214.731C252.738 214.863 253.26 214.794 253.699 214.54C254.139 214.287 254.459 213.869 254.591 213.379L256.076 207.836C261.38 208.881 267.831 208.827 271.92 202.655C272.662 201.532 273.174 200.272 273.426 198.95C273.679 197.627 273.667 196.268 273.391 194.95ZM251.87 177.638C250.736 176.473 250.054 174.942 249.948 173.32C249.842 171.698 250.318 170.092 251.29 168.789C251.642 168.289 254.954 164.206 263.272 166.197L258.916 182.457C256.254 181.364 253.853 179.722 251.87 177.638ZM268.746 200.458C266.357 204.056 262.89 205.167 257.086 204.067L261.408 187.937C262.521 188.512 263.661 189.135 264.851 189.869C265.998 190.474 267.01 191.306 267.826 192.314C268.642 193.323 269.244 194.487 269.596 195.735C269.937 197.36 269.633 199.054 268.746 200.458Z" fill="#CDB991" fill-opacity="0.5"/>
<g clip-path="url(#clip1)">
<path d="M143.598 277.928C142.937 278.355 142.467 279.02 142.285 279.784C142.102 280.549 142.222 281.355 142.618 282.034C143.014 282.713 143.657 283.213 144.413 283.43C145.169 283.647 145.979 283.564 146.676 283.199C159.015 276.019 170.678 283.238 177.328 289.177L173.84 292.778C172.671 293.988 171.958 296.324 172.258 297.973L175.401 313.763C175.835 315.682 176.779 317.448 178.135 318.875L219.845 359.09C220.818 360.025 222.122 360.537 223.471 360.512C224.82 360.488 226.104 359.93 227.043 358.961L253.204 331.91C255.151 329.885 254.386 327.405 252.37 325.451L210.655 285.236C209.447 284.082 207.104 282.933 205.437 282.691L188.884 280.776C187.222 280.534 184.912 281.328 183.743 282.538L181.618 284.731C172.624 276.768 158.059 269.517 143.598 277.928ZM194.201 290.572C194.968 291.313 195.582 292.198 196.007 293.176C196.432 294.155 196.661 295.207 196.679 296.274C196.697 297.341 196.505 298.4 196.114 299.393C195.722 300.385 195.139 301.291 194.398 302.058C192.897 303.61 190.842 304.504 188.683 304.543C186.524 304.582 184.438 303.763 182.883 302.265C181.666 301.091 180.846 299.565 180.538 297.902C180.23 296.239 180.45 294.521 181.166 292.989C182.241 294.179 182.898 295.014 183.006 295.173C183.418 295.73 184.008 296.131 184.678 296.309C185.348 296.488 186.059 296.434 186.694 296.155C187.329 295.877 187.851 295.391 188.174 294.777C188.497 294.163 188.602 293.458 188.471 292.777C188.389 292.351 188.205 291.934 187.931 291.56C187.288 290.687 186.547 289.761 185.698 288.81C187.138 288.273 188.699 288.153 190.204 288.465C191.708 288.777 193.093 289.507 194.201 290.572Z" fill="#9A4176" fill-opacity="0.21"/>
</g>
<path d="M326.719 522.531C322.141 511.094 318.94 504.715 317.206 503.574C315.833 502.677 313.352 502.405 308.718 501.965C305.249 501.636 300.934 501.226 299.052 500.42L297.278 499.661L295.876 501.211C295.77 501.324 290.712 506.709 284.182 506.646C277.61 506.582 273.455 501.05 273.414 500.993L272.265 499.435L270.378 500.145C268.364 500.915 263.988 501.24 260.471 501.5C255.769 501.851 253.245 502.074 251.728 502.942C249.798 504.049 245.531 510.356 239.039 521.687L238.341 522.904L238.756 524.169C242.647 536.065 253.954 538.782 254.434 538.892L255.935 539.236L250.768 582.077L250.556 583.837L251.938 584.73C265.052 593.209 288.717 593.437 303.237 585.224L304.767 584.359L304.85 582.598L306.895 539.726L308.452 539.413C308.949 539.312 320.695 536.817 326.582 525.015L327.212 523.76L326.719 522.531ZM318.887 526.927C315.366 531.087 311.274 533.368 306.7 533.727L304.592 529.703L302.065 582.681C287.965 590.657 266.275 590.449 253.537 582.214L259.922 529.272L257.232 533.154C252.729 532.707 249.025 530.348 246.213 526.132C244.948 524.206 243.955 522.093 243.263 519.849L243.154 520.032C245.967 515.257 251.341 506.378 252.916 505.474C254.833 504.376 264.116 504.53 269.346 503.375C270.599 504.832 271.999 506.147 273.526 507.3C274.94 508.364 276.483 509.244 278.125 509.922C280.11 510.727 282.137 511.144 284.163 511.164L284.223 511.164C286.675 511.176 289.132 510.607 291.528 509.468C294.173 508.212 296.772 506.236 299.27 503.605C304.233 504.921 313.829 504.924 315.59 506.078C317.004 507.009 320.857 515.921 322.87 520.754C321.806 522.966 320.466 525.042 318.887 526.927Z" fill="#F7E6C6"/>
<g clip-path="url(#clip2)">
<path d="M124.045 233.95C124.613 234.18 125.067 234.627 125.306 235.192C125.545 235.757 125.55 236.393 125.319 236.962L120.107 249.82L132.965 255.033C133.534 255.263 133.987 255.71 134.226 256.275C134.465 256.84 134.47 257.476 134.24 258.045C134.009 258.613 133.563 259.067 132.998 259.306C132.433 259.545 131.796 259.55 131.228 259.319L118.369 254.107L113.157 266.965C112.926 267.534 112.48 267.987 111.915 268.226C111.35 268.465 110.713 268.47 110.145 268.24C109.577 268.009 109.123 267.563 108.884 266.998C108.645 266.433 108.64 265.796 108.871 265.228L114.083 252.369L101.224 247.157C100.656 246.926 100.202 246.48 99.9633 245.915C99.7243 245.35 99.7195 244.713 99.9499 244.145C100.18 243.577 100.627 243.123 101.192 242.884C101.757 242.645 102.393 242.64 102.962 242.871L115.82 248.083L121.033 235.224C121.263 234.656 121.71 234.202 122.275 233.963C122.84 233.724 123.476 233.719 124.045 233.95V233.95Z" fill="#9BE1A6" fill-opacity="0.42"/>
</g>
<defs>
<clipPath id="clip0">
<rect width="152.377" height="152.377" fill="white" transform="translate(0 42.8878) rotate(-16.3472)"/>
</clipPath>
<clipPath id="clip1">
<rect width="101" height="101" fill="white" transform="translate(160.285 374.426) rotate(-101.007)"/>
</clipPath>
<clipPath id="clip2">
<rect width="37" height="37" fill="white" transform="translate(106.9 227) rotate(22.0658)"/>
</clipPath>
</defs>
</svg>
