<svg width="301" height="374" viewBox="0 0 301 374" fill="none" xmlns="http://www.w3.org/2000/svg">
<path d="M89.2327 245.962C71.4537 218.757 1.86274 108.793 110.177 38.0681C127.83 31.0637 157.901 37.995 179.813 68.5427C207.202 106.727 227.124 158.464 237.597 183.321C248.07 208.178 256.682 241.505 242.813 282.383C228.943 323.261 212.547 333.776 171.56 318.255C130.573 302.733 107.012 273.167 89.2327 245.962Z" fill="url(#paint0_linear_224:82)"/>
<path d="M46.074 118.367C52.8248 74.3614 81.4947 53.917 93.0798 43.6076" stroke="#CDB991"/>
<path d="M150.15 316.031C117.646 297.779 93.8927 271.026 83.0784 251.625" stroke="#D6CDF9" stroke-opacity="0.58"/>
<path d="M240.098 299.639C225.346 343.395 210.844 342.395 160.588 320.642" stroke="#53419A" stroke-opacity="0.57"/>
<defs>
<linearGradient id="paint0_linear_224:82" x1="82.4269" y1="52.0387" x2="217.927" y2="321.187" gradientUnits="userSpaceOnUse">
<stop stop-color="#F7E6C6"/>
<stop offset="1" stop-color="#EBE6FF"/>
</linearGradient>
</defs>
</svg>
