<svg width="516" height="1434" viewBox="0 0 516 1434" fill="none" xmlns="http://www.w3.org/2000/svg">
<path d="M-434.552 768.906C-486.381 672.462 -685.991 282.881 -148.639 49.3128C-65.2982 26.9499 58.9874 54.3574 125.657 162.868C208.994 298.507 247.154 480.375 269.407 567.855C291.66 655.336 312.006 1026.4 213.379 1166.81C114.752 1307.22 86.7637 1322.94 -76.9493 1264.49C-240.662 1206.04 -382.723 865.35 -434.552 768.906Z" fill="url(#paint0_linear)"/>
<path d="M-50.2043 18.9301C36.4015 37.8245 114.41 79.9946 160.089 173.191" stroke="#E7D6B7"/>
<path d="M179.958 214.315C236.377 341.003 273.977 483.42 285.725 538.793" stroke="#CDB991"/>
<path d="M291.078 569.714C311.058 706.599 304.271 689.449 306.774 746.677" stroke="#E2CDA4"/>
<defs>
<linearGradient id="paint0_linear" x1="-282.421" y1="94.7452" x2="41.5961" y2="1048.86" gradientUnits="userSpaceOnUse">
<stop stop-color="#EBE6FF"/>
<stop offset="1" stop-color="#E7D6B7"/>
</linearGradient>
</defs>
</svg>
