<svg width="113" height="116" viewBox="0 0 113 116" fill="none" xmlns="http://www.w3.org/2000/svg">
<path fill-rule="evenodd" clip-rule="evenodd" d="M47.3396 24.1247L45.5773 24.0793C43.4825 24.024 41.4074 24.4955 39.5421 25.4505C37.6769 26.4056 36.0812 27.8136 34.9015 29.5455C33.7217 31.2774 32.9956 33.2777 32.7898 35.3631C32.584 37.4485 32.9049 39.5522 33.7233 41.4813L36.4299 47.8587C37.7842 51.0494 40.2521 53.6391 43.374 55.1454C46.4958 56.6517 50.0587 56.972 53.3991 56.0465L58.5723 54.6127C61.9132 53.6863 64.8033 51.5769 66.7042 48.6775C68.6051 45.7781 69.3871 42.2865 68.9045 38.8533L67.9421 31.9925C67.6499 29.918 66.8417 27.9499 65.5915 26.2688C64.3414 24.5876 62.6892 23.2471 60.7866 22.3701C58.8839 21.4931 56.7916 21.1077 54.7013 21.2492C52.6111 21.3906 50.5897 22.0545 48.8226 23.1798L47.3351 24.1259L47.3396 24.1247ZM44.0755 33.8374C44.4694 33.6722 44.8942 33.5932 45.3211 33.6059L49.9919 33.73L53.9357 31.2134C54.3583 30.9445 54.8416 30.786 55.3413 30.7524C55.841 30.7188 56.3412 30.8113 56.7959 31.0212C57.2506 31.2312 57.6453 31.552 57.9438 31.9542C58.2423 32.3564 58.435 32.8271 58.5043 33.3231L59.4654 40.1793C59.6267 41.3236 59.3664 42.4876 58.7332 43.4542C58.0999 44.4209 57.1368 45.1243 56.0233 45.4336L50.8547 46.8661C49.7409 47.1741 48.5531 47.0668 47.5126 46.564C46.4721 46.0613 45.6498 45.1974 45.199 44.1333L42.4937 37.7605C42.1833 37.0305 42.1755 36.2071 42.4722 35.4714C42.7688 34.7357 43.3455 34.148 44.0755 33.8374Z" fill="#9BE1A6" fill-opacity="0.42"/>
<path fill-rule="evenodd" clip-rule="evenodd" d="M63.2326 45.9069L43.8297 51.2845C41.3511 51.9701 39.1035 53.312 37.3239 55.1685C30.8147 61.9648 26.5004 68.7805 24.3799 75.6109C23.7004 77.7962 22.9672 79.8233 22.2757 81.7153C19.2712 89.9572 17.1824 95.6717 25.1445 100.894C34.9354 107.33 52.1786 108.284 67.6476 103.997C83.1166 99.7097 97.65 92.2959 104.694 78.8516C109.906 68.8906 105.855 66.2223 99.5472 62.0638C97.3341 60.6062 94.8437 58.9683 92.3794 56.7647C86.8408 51.8148 79.5996 48.177 70.6548 45.8467C68.2186 45.2127 65.6582 45.2334 63.2326 45.9069ZM86.0247 63.8691C87.2923 65.0006 88.6063 66.0501 90.0206 67.0866C90.3126 67.3022 91.197 67.9073 92.2741 68.6369C93.9935 69.8112 96.2114 71.3219 97.3113 72.1342C97.1175 72.6476 96.781 73.413 96.2475 74.4308C91.3451 83.7969 80.7605 90.4771 65.1032 94.8166C51.7549 98.5161 37.4013 97.5366 30.3747 92.9249C29.1985 92.1586 29.1233 92.1547 29.1182 92.1363L29.1215 92.1305C29.1091 91.5507 29.3553 90.3703 30.0242 88.361L30.842 86.0683C31.5941 83.9667 32.6486 81.0301 33.0859 79.683C33.222 79.2647 33.3581 78.8464 33.4818 78.4365C35.1335 73.1248 38.6599 67.5507 44.2066 61.7576C44.8009 61.1385 45.5513 60.6914 46.3787 60.4636L65.7816 55.0861C66.5908 54.8616 67.445 54.8551 68.2576 55.0671C75.8064 57.033 81.6932 59.9933 86.0293 63.8678L86.0247 63.8691Z" fill="#9BE1A6" fill-opacity="0.42"/>
<path d="M26.2687 22.9309C25.6936 22.1779 25.4412 21.2272 25.567 20.2881C25.6928 19.349 26.1865 18.4983 26.9395 17.9233C27.6925 17.3482 28.6431 17.0957 29.5822 17.2215C30.5214 17.3473 31.372 17.841 31.9471 18.5941L39.7178 28.7974C40.2691 29.5521 40.5026 30.4928 40.3683 31.4178C40.234 32.3427 39.7427 33.1781 38.9995 33.7449C38.2564 34.3118 37.3208 34.5648 36.3933 34.4498C35.4658 34.3347 34.6203 33.8608 34.0381 33.1296L26.2674 22.9263L26.2687 22.9309Z" fill="#9BE1A6" fill-opacity="0.42"/>
<path d="M57.6904 11.4643C57.8131 10.5378 58.294 9.69621 59.03 9.12015C59.7659 8.54408 60.6983 8.27937 61.6272 8.38279C62.5561 8.48621 63.4074 8.94953 63.9987 9.67336C64.5899 10.3972 64.8739 11.3239 64.7899 12.2547L63.3801 25.0025C63.2574 25.929 62.7765 26.7705 62.0405 27.3466C61.3046 27.9227 60.3722 28.1874 59.4433 28.0839C58.5144 27.9805 57.6631 27.5172 57.0718 26.7934C56.4806 26.0695 56.1966 25.1428 56.2806 24.212L57.6904 11.4643Z" fill="#9BE1A6" fill-opacity="0.42"/>
<path d="M57.5095 69.7358C57.3408 69.1271 57.4208 68.4763 57.7319 67.9266C58.043 67.3769 58.5598 66.9733 59.1685 66.8046C59.7772 66.6359 60.428 66.7159 60.9777 67.027C61.5274 67.3381 61.931 67.8549 62.0997 68.4636L67.1885 86.8245C67.3572 87.4332 67.2772 88.084 66.966 88.6337C66.6549 89.1834 66.1382 89.587 65.5294 89.7557C64.9207 89.9244 64.27 89.8444 63.7203 89.5332C63.1705 89.2221 62.7669 88.7054 62.5982 88.0967L57.5095 69.7358Z" fill="#9BE1A6" fill-opacity="0.42"/>
<path d="M45.9934 71.825C46.0412 71.5072 46.1529 71.2024 46.3217 70.9289C46.4904 70.6554 46.7128 70.4189 46.9754 70.2336C47.2379 70.0483 47.5353 69.9181 47.8496 69.8507C48.1638 69.7834 48.4884 69.7804 48.8039 69.8418C49.1193 69.9033 49.4191 70.0279 49.6851 70.2083C49.9511 70.3886 50.1778 70.621 50.3517 70.8913C50.5255 71.1616 50.6428 71.4643 50.6966 71.7811C50.7503 72.098 50.7394 72.4224 50.6645 72.7349L47.6059 88.4506C47.4683 89.054 47.1012 89.5802 46.5824 89.9176C46.0636 90.2551 45.4338 90.3773 44.8264 90.2584C44.219 90.1395 43.6818 89.7889 43.3285 89.2807C42.9751 88.7726 42.8335 88.1469 42.9336 87.5361L45.9934 71.825Z" fill="#9BE1A6" fill-opacity="0.42"/>
<path d="M73.0469 64.3223C72.838 64.0875 72.5847 63.8963 72.3015 63.7599C72.0183 63.6235 71.711 63.5444 71.3971 63.5274C71.0833 63.5103 70.7692 63.5555 70.4729 63.6604C70.1766 63.7653 69.904 63.9278 69.6708 64.1386C69.4376 64.3493 69.2484 64.6041 69.1142 64.8883C68.98 65.1726 68.9033 65.4805 68.8887 65.7945C68.874 66.1085 68.9217 66.4222 69.0289 66.7177C69.1361 67.0132 69.3007 67.2845 69.5132 67.516L80.2151 79.3784C80.4241 79.6132 80.6774 79.8043 80.9606 79.9408C81.2437 80.0772 81.5511 80.1562 81.865 80.1733C82.1788 80.1904 82.4929 80.1452 82.7892 80.0403C83.0855 79.9354 83.3581 79.7729 83.5913 79.5621C83.8245 79.3514 84.0136 79.0965 84.1479 78.8123C84.2821 78.5281 84.3588 78.2202 84.3734 77.9062C84.3881 77.5922 84.3404 77.2785 84.2332 76.983C84.126 76.6875 83.9614 76.4162 83.7489 76.1846L73.0469 64.3223Z" fill="#9BE1A6" fill-opacity="0.42"/>
</svg>
