<svg width="300" height="332" viewBox="0 0 300 332" fill="none" xmlns="http://www.w3.org/2000/svg">
<g clip-path="url(#clip0)">
<path d="M175.825 317.514L209.519 292.198C210.931 291.137 211.875 289.533 212.126 287.762L215.528 263.803C216.05 260.127 213.469 256.693 209.794 256.171L185.835 252.77C184.064 252.518 182.26 252.978 180.844 254.072L147.149 279.389C144.173 281.625 143.571 285.869 145.807 288.845L166.364 316.205C168.6 319.182 172.81 319.779 175.825 317.514ZM194.293 269.31C194.687 266.537 197.243 264.616 200.017 265.01C202.79 265.404 204.711 267.96 204.317 270.734C203.924 273.507 201.367 275.428 198.594 275.034C195.82 274.64 193.899 272.084 194.293 269.31Z" fill="#E5E5E5"/>
</g>
<g clip-path="url(#clip1)">
<path d="M265.571 56.7149C265.372 54.9176 264.806 53.1803 263.909 51.6104C263.011 50.0406 261.801 48.6716 260.353 47.5882C259.031 46.4871 257.652 45.4554 256.223 44.4973L263.024 28.5367C265.975 30.1859 268.438 32.5841 270.166 35.4893C270.274 35.7169 270.426 35.9209 270.613 36.0899C270.799 36.2588 271.017 36.3893 271.255 36.474C271.492 36.5586 271.743 36.5957 271.995 36.5832C272.246 36.5706 272.493 36.5087 272.72 36.4008C272.948 36.293 273.152 36.1414 273.321 35.9547C273.49 35.768 273.62 35.5499 273.705 35.3127C273.79 35.0756 273.827 34.8241 273.814 34.5726C273.802 34.3212 273.74 34.0746 273.632 33.8471C271.516 30.0794 268.359 27.0015 264.539 24.982L266.863 19.5269C267.062 19.0602 267.068 18.5336 266.878 18.063C266.689 17.5923 266.32 17.2162 265.854 17.0173C265.387 16.8184 264.86 16.8131 264.39 17.0025C263.919 17.1919 263.543 17.5605 263.344 18.0272L261.094 23.3063C253.277 20.1828 247.358 22.2144 244.639 24.9854C242.857 26.7568 241.761 29.1017 241.543 31.6044C241.325 34.1072 242 36.6063 243.449 38.6588C245.567 41.6231 248.302 44.0937 251.466 45.9011L244.597 62.02C240.102 59.8311 236.42 56.2668 234.087 51.8443C234.009 51.5869 233.877 51.3489 233.7 51.1459C233.523 50.943 233.306 50.7796 233.061 50.6665C232.817 50.5534 232.552 50.4931 232.283 50.4896C232.014 50.4861 231.747 50.5394 231.5 50.6461C231.253 50.7527 231.031 50.9103 230.849 51.1086C230.667 51.3068 230.529 51.5413 230.443 51.7966C230.358 52.0519 230.328 52.3223 230.354 52.5902C230.381 52.858 230.463 53.1173 230.597 53.351C233.296 58.6883 237.693 62.9762 243.097 65.5395L240.848 70.8186C240.649 71.2853 240.643 71.8119 240.833 72.2826C241.022 72.7532 241.391 73.1293 241.858 73.3282C242.324 73.5271 242.851 73.5324 243.321 73.3431C243.792 73.1537 244.168 72.7851 244.367 72.3184L246.617 67.0392C251.722 68.8195 258.116 69.6729 263.032 64.1371C263.924 63.1289 264.608 61.9539 265.044 60.68C265.48 59.406 265.659 58.0584 265.571 56.7149ZM246.697 36.5499C245.738 35.2374 245.279 33.6259 245.402 32.0051C245.524 30.3843 246.221 28.8604 247.367 27.7074C247.786 27.262 251.639 23.685 259.595 26.8257L252.996 42.3112C250.515 40.8548 248.368 38.8917 246.697 36.5499ZM260.199 61.5157C257.327 64.7416 253.739 65.3543 248.146 63.4494L254.693 48.0871C255.714 48.8134 256.756 49.5899 257.83 50.4843C258.881 51.2444 259.766 52.2104 260.432 53.3235C261.098 54.4366 261.531 55.6735 261.704 56.959C261.813 58.6158 261.273 60.2501 260.199 61.5157Z" fill="#CDB991" fill-opacity="0.5"/>
</g>
<g clip-path="url(#clip2)">
<path d="M174.393 118.995C175.151 119.094 175.839 119.491 176.305 120.097C176.771 120.704 176.977 121.471 176.878 122.229L174.631 139.385L191.788 141.632C192.546 141.731 193.234 142.128 193.7 142.734C194.166 143.34 194.372 144.107 194.273 144.866C194.173 145.624 193.777 146.312 193.17 146.778C192.564 147.244 191.797 147.45 191.039 147.351L173.882 145.104L171.636 162.261C171.537 163.019 171.14 163.707 170.534 164.173C169.927 164.639 169.161 164.845 168.402 164.746C167.644 164.646 166.956 164.25 166.49 163.643C166.024 163.037 165.818 162.27 165.917 161.512L168.164 144.355L151.007 142.109C150.249 142.01 149.561 141.613 149.095 141.007C148.629 140.4 148.423 139.634 148.522 138.875C148.621 138.117 149.018 137.429 149.624 136.963C150.231 136.497 150.998 136.291 151.756 136.39L168.912 138.637L171.159 121.48C171.258 120.722 171.655 120.034 172.261 119.568C172.867 119.102 173.634 118.896 174.393 118.995V118.995Z" fill="#9BE1A6" fill-opacity="0.42"/>
</g>
<g clip-path="url(#clip3)">
<path d="M41.4038 107.316C45.068 107.013 47.7928 103.797 47.4897 100.132C47.1867 96.4682 43.9706 93.7435 40.3064 94.0465C36.6422 94.3495 33.9175 97.5656 34.2205 101.23C34.5235 104.894 37.7396 107.619 41.4038 107.316Z" fill="#9A4176" fill-opacity="0.21"/>
<path d="M87.8462 103.475C91.5104 103.172 94.2352 99.9558 93.9321 96.2916C93.6291 92.6274 90.413 89.9026 86.7488 90.2057C83.0846 90.5087 80.3598 93.7248 80.6629 97.389C80.9659 101.053 84.182 103.778 87.8462 103.475Z" fill="#9A4176" fill-opacity="0.21"/>
<path d="M17.2895 18.4756C17.0771 17.7363 16.6152 17.0934 15.9823 16.6562C15.3494 16.219 14.5846 16.0144 13.818 16.0774L0.548706 17.1748L1.09742 23.8094L11.6465 22.937L29.6515 85.5626C29.8639 86.3019 30.3259 86.9448 30.9587 87.382C31.5916 87.8193 32.3564 88.0238 33.123 87.9608L92.8347 83.0224L92.286 76.3878L35.2945 81.1012L31.5433 68.0515L91.1885 63.1185C91.9432 63.056 92.6539 62.738 93.2035 62.2171C93.7531 61.6962 94.1086 61.0035 94.2114 60.2533L98.932 25.7381L92.1415 26.2997L87.9793 56.704L29.6676 61.5266L17.2895 18.4756Z" fill="#9A4176" fill-opacity="0.21"/>
<path d="M73.4144 26.4656L62.5024 39.3453L60.2603 12.2362L53.6257 12.785L55.8678 39.894L42.988 28.982L38.6853 34.0606L60.2353 52.3184L78.493 30.7683L73.4144 26.4656Z" fill="#9A4176" fill-opacity="0.21"/>
</g>
<defs>
<clipPath id="clip0">
<rect width="81" height="81" fill="white" transform="translate(224.109 251.386) rotate(98.0806)"/>
</clipPath>
<clipPath id="clip1">
<rect width="68.8618" height="68.8618" fill="white" transform="translate(235.678) rotate(23.0806)"/>
</clipPath>
<clipPath id="clip2">
<rect width="46.1409" height="46.1409" fill="white" transform="translate(151.517 116) rotate(7.45959)"/>
</clipPath>
<clipPath id="clip3">
<rect width="106.516" height="106.516" fill="white" transform="translate(0 10.54) rotate(-4.72785)"/>
</clipPath>
</defs>
</svg>
