<svg width="7" height="7" viewBox="0 0 7 7" fill="none" xmlns="http://www.w3.org/2000/svg">
<path d="M3.80586 6.57129C5.44232 6.57129 6.82461 5.19759 6.82461 3.57129C6.82461 1.94499 5.44232 0.571289 3.80586 0.571289C2.16939 0.571289 0.787109 1.94499 0.787109 3.57129C0.787109 5.19759 2.16939 6.57129 3.80586 6.57129ZM3.80586 1.17129C5.11509 1.17129 6.22086 2.27019 6.22086 3.57129C6.22086 4.87239 5.11509 5.97129 3.80586 5.97129C2.49663 5.97129 1.39086 4.87239 1.39086 3.57129C1.39086 2.27019 2.49663 1.17129 3.80586 1.17129Z" fill="white"/>
<path d="M3.80625 5.07166C4.07824 5.07166 4.58539 5.02125 4.9253 4.68398L4.49845 4.25909C4.36472 4.39202 4.10571 4.47153 3.80625 4.47153C3.3154 4.47153 2.90063 4.05925 2.90063 3.57135C2.90063 3.08345 3.3154 2.67117 3.80625 2.67117C4.10601 2.67117 4.36502 2.75068 4.49845 2.88331L4.9253 2.45902C4.58569 2.12146 4.07824 2.07104 3.80625 2.07104C2.97398 2.07104 2.29688 2.74408 2.29688 3.57135C2.29688 4.39862 2.97398 5.07166 3.80625 5.07166Z" fill="white"/>
</svg>
