<svg width="62" height="393" viewBox="0 0 62 393" fill="none" xmlns="http://www.w3.org/2000/svg">
<path d="M58.414 222.049C58.414 220.061 55.0438 205.436 49.9896 185M17.252 61.7156C18.5112 66.0504 19.8287 70.6683 21.1873 75.5M30.9027 111C31.9674 114.979 33.0333 118.988 34.0938 123M60.3094 238C60.6134 242.14 60.8126 246.485 60.9158 251M56.4999 326.5C54.8055 343.646 54.0671 346.051 51.4276 362.5M47.9787 382.5C47.3485 385.909 46.7089 389.247 46.0632 392.5M1.32225 0.5C2.07597 3.71119 2.83274 6.88137 3.58866 10L1.32225 0.5Z" stroke="#F19C31" stroke-width="2"/>
</svg>
