<svg width="16" height="16" viewBox="0 0 16 16" fill="none" xmlns="http://www.w3.org/2000/svg">
<path d="M7.58899 4.21973C5.46211 4.21973 3.74023 5.9434 3.74023 8.06831C3.74023 10.1951 5.46399 11.9169 7.58899 11.9169C9.71586 11.9169 11.4377 10.1932 11.4377 8.06831C11.4377 5.94153 9.71399 4.21973 7.58899 4.21973ZM7.58899 10.5663C6.20836 10.5663 5.09086 9.44825 5.09086 8.06831C5.09086 6.68837 6.20899 5.57029 7.58899 5.57029C8.96899 5.57029 10.0871 6.68837 10.0871 8.06831C10.0877 9.44825 8.96961 10.5663 7.58899 10.5663Z" fill="#F19C31"/>
<path d="M10.6766 0.618405C9.29663 0.554031 5.8785 0.557156 4.49725 0.618405C3.2835 0.675279 2.21288 0.968399 1.34975 1.83151C-0.0927487 3.27398 0.0916264 5.2177 0.0916264 8.06828C0.0916264 10.9857 -0.0708736 12.8844 1.34975 14.305C2.79788 15.7525 4.76975 15.5631 7.58663 15.5631C10.4766 15.5631 11.4741 15.565 12.496 15.1694C13.8854 14.63 14.9341 13.3882 15.0366 11.1576C15.1016 9.77699 15.0979 6.35955 15.0366 4.97833C14.9129 2.34525 13.4998 0.748403 10.6766 0.618405V0.618405ZM12.861 13.3507C11.9154 14.2963 10.6035 14.2119 7.5685 14.2119C4.4435 14.2119 3.19038 14.2582 2.276 13.3413C1.22288 12.2932 1.4135 10.6101 1.4135 8.05827C1.4135 4.60521 1.05913 2.11838 4.52475 1.94088C5.321 1.91276 5.55538 1.90338 7.55975 1.90338L7.58788 1.92213C10.9185 1.92213 13.5316 1.57339 13.6885 5.03833C13.7241 5.82894 13.7323 6.06643 13.7323 8.06765C13.7316 11.1563 13.7904 12.4169 12.861 13.3507V13.3507Z" fill="#F19C31"/>
<path d="M11.5888 4.96699C12.0855 4.96699 12.4882 4.56438 12.4882 4.06772C12.4882 3.57107 12.0855 3.16846 11.5888 3.16846C11.0921 3.16846 10.6895 3.57107 10.6895 4.06772C10.6895 4.56438 11.0921 4.96699 11.5888 4.96699Z" fill="#F19C31"/>
</svg>
